mtllib EGA_Highway_18.mtl
g default
v -5.29941 0.299 9.176198
v -5.30092 0.301 8.621801
v -5.29941 0.301 9.176198
v -5.30092 0.299 8.621801
v 2.096112 0.301 -10.09982
v 1.900602 0.301 -10.10003
v 2.096112 0.299 -10.09982
v 1.900602 0.299 -10.10003
v -5.29941 0.301 9.176198
v -5.30092 0.301 8.621801
v 2.096112 0.301 -10.09982
v 1.900602 0.301 -10.10003
v 2.096112 0.299 -10.09982
v -5.30092 0.299 8.621801
v -5.29941 0.299 9.176198
v 1.900602 0.299 -10.10003
v 2.096112 0.301 -10.09982
v -5.29941 0.299 9.176198
v -5.29941 0.301 9.176198
v 2.096112 0.299 -10.09982
v -5.30092 0.301 8.621801
v -5.30092 0.299 8.621801
v 1.900602 0.301 -10.10003
v 1.900602 0.299 -10.10003
v -3.300922 1.5 9.900002
v -3.500923 0.5000002 9.900002
v -3.500923 1.5 9.900002
v -3.300922 -0.09999979 9.900002
v -3.500923 0.5000002 9.900002
v -3.500923 0.5000002 9.900002
v -5.300923 0.3000003 9.900002
v -5.300923 0.5000002 9.900002
v -3.300922 -0.09999979 9.900002
v -5.300923 0.3000003 9.900002
v -3.500923 0.5000002 9.900002
v -5.300923 0.3000003 9.900002
v -5.3 -0.1 9.900001
v -5.3 0.3 9.900001
v -3.300922 -0.09999979 9.900002
v -5.3 -0.1 9.900001
v -5.300923 0.3000003 9.900002
v 4.1 1.5 -10.1
v 4.1 0.5 -10.1
v 4.3 1.5 -10.1
v 4.1 0.5 -10.1
v 4.3 -0.1 -10.1
v 2.3 0.5 -10.1
v 2.3 0.3 -10.1
v 4.1 0.5 -10.1
v 4.1 0.5 -10.1
v 2.3 0.3 -10.1
v 4.3 -0.1 -10.1
v -5.3 0.3 -10.1
v -5.3 -0.1 -10.1
v 2.3 0.3 -10.1
v 2.3 0.3 -10.1
v -5.3 -0.1 -10.1
v 4.3 -0.1 -10.1
v -5.300923 0.3000003 9.900002
v -5.3 0.3 9.900001
v 2.3 0.3 -10.1
v -5.3 0.3 9.900001
v -5.3 0.3 -10.1
v 2.3 0.3 -10.1
v -3.500923 0.5000002 9.900002
v -5.300923 0.5000002 9.900002
v 4.1 0.5 -10.1
v 2.3 0.5 -10.1
v -3.300922 1.5 9.900002
v -3.500923 1.5 9.900002
v 4.3 1.5 -10.1
v 4.1 1.5 -10.1
v 4.3 -0.1 -10.1
v -5.3 -0.1 9.900001
v -3.300922 -0.09999979 9.900002
v -5.3 -0.1 -10.1
v 4.3 1.5 -10.1
v -3.300922 -0.09999979 9.900002
v -3.300922 1.5 9.900002
v 4.3 -0.1 -10.1
v -5.3 0.3 9.900001
v -5.3 -0.1 9.900001
v -5.3 0.3 -10.1
v -5.3 -0.1 -10.1
v -3.500923 1.5 9.900002
v -3.500923 0.5000002 9.900002
v 4.1 1.5 -10.1
v 4.1 0.5 -10.1
v -5.300923 0.5000002 9.900002
v -5.300923 0.3000003 9.900002
v 2.3 0.5 -10.1
v 2.3 0.3 -10.1
vn -0.358205 0 0.9336429
vn -0.358205 0 0.9336429
vn -0.358205 0 0.9336429
vn -0.358205 0 0.9336429
vn 0.358205 0 -0.9336429
vn 0.358205 0 -0.9336429
vn 0.358205 0 -0.9336429
vn 0.358205 0 -0.9336429
vn 0 1 0
vn 0 1 0
vn 0 1 0
vn 0 1 0
vn 0 -1 0
vn 0 -1 0
vn 0 -1 0
vn 0 -1 0
vn 0.933643 0 0.358205
vn 0.933643 0 0.358205
vn 0.933643 0 0.358205
vn 0.933643 0 0.358205
vn -0.933643 0 -0.358205
vn -0.933643 0 -0.358205
vn -0.933643 0 -0.358205
vn -0.933643 0 -0.358205
vn 0 0 1
vn 0 0 1
vn 0 0 1
vn 0 0 1
vn 0 0 1
vn 0 0 1
vn 0 0 1
vn 0 0 1
vn 0 0 1
vn 0 0 1
vn 0 0 1
vn 0 0 1
vn 0 0 1
vn 0 0 1
vn 0 0 1
vn 0 0 1
vn 0 0 1
vn 0 0 -1
vn 0 0 -1
vn 0 0 -1
vn 0 0 -1
vn 0 0 -1
vn 0 0 -1
vn 0 0 -1
vn 0 0 -1
vn 0 0 -1
vn 0 0 -1
vn 0 0 -1
vn 0 0 -1
vn 0 0 -1
vn 0 0 -1
vn 0 0 -1
vn 0 0 -1
vn 0 0 -1
vn 0 1 0
vn 0 1 0
vn 0 1 0
vn 0 1 0
vn 0 1 0
vn 0 1 0
vn 0 1 0
vn 0 1 0
vn 0 1 0
vn 0 1 0
vn 0 1 0
vn 0 1 0
vn 0 1 0
vn 0 1 0
vn 0 -1 0
vn 0 -1 0
vn 0 -1 0
vn 0 -1 0
vn 1 0 0
vn 1 0 0
vn 1 0 0
vn 1 0 0
vn -1 0 0
vn -1 0 0
vn -1 0 0
vn -1 0 0
vn -1 0 0
vn -1 0 0
vn -1 0 0
vn -1 0 0
vn -1 0 0
vn -1 0 0
vn -1 0 0
vn -1 0 0
vt 0.06676094 0.7778563
vt 0.1332862 0.8887318
vt 0.06671381 0.8888103
vt 0.1332862 0.7778563
vt 0.06671381 0.8888103
vt 0.1332862 0.8887318
vt 0.06676094 0.7778563
vt 0.1332862 0.7778563
vt 0.06671381 0.8888103
vt 0.1332862 0.8887318
vt 0.06676094 0.7778563
vt 0.1332862 0.7778563
vt 0.06676094 0.7778563
vt 0.1332862 0.8887318
vt 0.06671381 0.8888103
vt 0.1332862 0.7778563
vt 0.06676094 0.7778563
vt 0.1332862 0.8887318
vt 0.06671381 0.8888103
vt 0.1332862 0.7778563
vt 0.06671381 0.8888103
vt 0.1332862 0.8887318
vt 0.06676094 0.7778563
vt 0.1332862 0.7778563
vt 0.06670588 0.222116
vt 0.1332862 0.1112682
vt 0.1332862 0.2221437
vt 0.06670588 0.111201
vt 0.1332549 0.1527941
vt 0.733373 0.2224008
vt 0.7999206 0.4221329
vt 0.733373 0.4221329
vt 0.7999333 0.2223139
vt 0.7555689 0.4072491
vt 0.7333867 0.2408074
vt 0.3334073 0.3332409
vt 0.399963 0.111296
vt 0.399963 0.3332409
vt 0.1000592 0.1111622
vt 0.8999122 0.1111622
vt 0.2666953 0.3332312
vt 0.1332862 0.2221437
vt 0.1332862 0.1112682
vt 0.06670588 0.222116
vt 0.1332549 0.1527941
vt 0.06670588 0.111201
vt 0.733373 0.4221329
vt 0.7999206 0.4221329
vt 0.733373 0.2224008
vt 0.7333867 0.2408074
vt 0.7555689 0.4072491
vt 0.7999333 0.2223139
vt 0.399963 0.3332409
vt 0.399963 0.111296
vt 0.3334073 0.3332409
vt 0.2666953 0.3332312
vt 0.8999122 0.1111622
vt 0.1000592 0.1111622
vt 0.3333805 0.555477
vt 0.3999529 0.5553984
vt 0.3334276 0.444523
vt 0.3999529 0.5553984
vt 0.3999529 0.444523
vt 0.3334276 0.444523
vt 0.733373 0.2223115
vt 0.7334127 0.4221329
vt 0.7999603 0.2224008
vt 0.7999603 0.4221329
vt 0.06671381 0.2221437
vt 0.1332862 0.2220651
vt 0.06676095 0.1111897
vt 0.1332862 0.1111897
vt 0.06676095 0.1111897
vt 0.1332862 0.2220651
vt 0.06671381 0.2221437
vt 0.1332862 0.1111897
vt 0.06676095 0.1111897
vt 0.1332862 0.2220651
vt 0.06671381 0.2221437
vt 0.1332862 0.1111897
vt 0.3333703 0.3332409
vt 0.3334073 0.1112036
vt 0.399963 0.3331484
vt 0.399963 0.1112036
vt 0.06671381 0.2221437
vt 0.1332862 0.2220651
vt 0.06676095 0.1111897
vt 0.1332862 0.1111897
vt 0.7333805 0.555477
vt 0.7999529 0.5553984
vt 0.7334276 0.444523
vt 0.7999529 0.444523
usemtl EGA_Highway_18
f 3/3/3 2/2/2 1/1/1
f 2/2/2 4/4/4 1/1/1
f 7/7/7 6/6/6 5/5/5
f 7/7/7 8/8/8 6/6/6
f 11/11/11 10/10/10 9/9/9
f 11/11/11 12/12/12 10/10/10
f 15/15/15 14/14/14 13/13/13
f 14/14/14 16/16/16 13/13/13
f 19/19/19 18/18/18 17/17/17
f 18/18/18 20/20/20 17/17/17
f 23/23/23 22/22/22 21/21/21
f 23/23/23 24/24/24 22/22/22
f 27/27/27 26/26/26 25/25/25
f 25/25/25 29/29/29 28/28/28
f 32/32/32 31/31/31 30/30/30
f 35/35/35 34/34/34 33/33/33
f 38/38/38 37/37/37 36/36/36
f 41/41/41 40/40/40 39/39/39
f 44/44/44 43/43/43 42/42/42
f 46/46/46 45/45/45 44/44/44
f 49/49/49 48/48/48 47/47/47
f 52/52/52 51/51/51 50/50/50
f 55/55/55 54/54/54 53/53/53
f 58/58/58 57/57/57 56/56/56
f 61/61/61 60/60/60 59/59/59
f 64/64/64 63/63/63 62/62/62
f 67/67/67 66/66/66 65/65/65
f 67/67/67 68/68/68 66/66/66
f 71/71/71 70/70/70 69/69/69
f 71/71/71 72/72/72 70/70/70
f 75/75/75 74/74/74 73/73/73
f 74/74/74 76/76/76 73/73/73
f 79/79/79 78/78/78 77/77/77
f 78/78/78 80/80/80 77/77/77
f 83/83/83 82/82/82 81/81/81
f 83/83/83 84/84/84 82/82/82
f 87/87/87 86/86/86 85/85/85
f 87/87/87 88/88/88 86/86/86
f 91/91/91 90/90/90 89/89/89
f 91/91/91 92/92/92 90/90/90
