mtllib EGA_Highway_09.mtl
g default
v -8.1 1.5 10.1
v -8.1 -0.1 10.1
v -8.1 -0.1 -9.900001
v -8.1 1.5 -9.900001
v 9.7 -0.1 -9.900001
v 9.7 -0.1 10.1
v 9.7 0.3 10.1
v 9.7 0.3 -9.900001
v -7.9 0.5 -9.900001
v -7.9 0.5 10.1
v -7.9 1.5 10.1
v -7.9 1.5 -9.900001
v -6.1 0.3 -9.900001
v -6.1 0.3 10.1
v -6.1 0.5 10.1
v -6.1 0.5 -9.900001
v -8.1 -0.1 -9.900001
v -8.1 -0.1 10.1
v 9.7 -0.1 10.1
v 9.7 -0.1 -9.900001
v -7.9 1.5 10.1
v -8.1 1.5 10.1
v -8.1 1.5 -9.900001
v -7.9 1.5 -9.900001
v -6.1 0.5 10.1
v -7.9 0.5 10.1
v -7.9 0.5 -9.900001
v -6.1 0.5 -9.900001
v 9.7 0.3 10.1
v -6.1 0.3 10.1
v -6.1 0.3 -9.900001
v 9.7 0.3 10.1
v -6.1 0.3 -9.900001
v 9.7 0.3 -9.900001
v 9.7 -0.1 10.1
v -8.1 -0.1 10.1
v -6.1 0.3 10.1
v -6.1 0.3 10.1
v -8.1 -0.1 10.1
v -7.9 0.5 10.1
v 9.7 -0.1 10.1
v -6.1 0.3 10.1
v 9.7 0.3 10.1
v -7.9 0.5 10.1
v -8.1 -0.1 10.1
v -8.1 1.5 10.1
v -7.9 0.5 10.1
v -7.9 1.5 10.1
v -6.1 0.3 10.1
v -7.9 0.5 10.1
v -6.1 0.5 10.1
v -6.1 0.3 -9.900001
v -8.1 -0.1 -9.900001
v 9.7 -0.1 -9.900001
v -7.9 0.5 -9.900001
v -8.1 -0.1 -9.900001
v -6.1 0.3 -9.900001
v 9.7 0.3 -9.900001
v -6.1 0.3 -9.900001
v 9.7 -0.1 -9.900001
v -8.1 1.5 -9.900001
v -8.1 -0.1 -9.900001
v -7.9 0.5 -9.900001
v -7.9 1.5 -9.900001
v -7.9 0.5 -9.900001
v -6.1 0.5 -9.900001
v -7.9 0.5 -9.900001
v -6.1 0.3 -9.900001
vn -1 0 0
vn -1 0 0
vn -1 0 0
vn -1 0 0
vn 1 0 0
vn 1 0 0
vn 1 0 0
vn 1 0 0
vn 1 0 0
vn 1 0 0
vn 1 0 0
vn 1 0 0
vn 1 0 0
vn 1 0 0
vn 1 0 0
vn 1 0 0
vn 0 -1 0
vn 0 -1 0
vn 0 -1 0
vn 0 -1 0
vn 0 1 0
vn 0 1 0
vn 0 1 0
vn 0 1 0
vn 0 1 0
vn 0 1 0
vn 0 1 0
vn 0 1 0
vn 0 1 0
vn 0 1 0
vn 0 1 0
vn 0 1 0
vn 0 1 0
vn 0 1 0
vn 0 0 1
vn 0 0 1
vn 0 0 1
vn 0 0 1
vn 0 0 1
vn 0 0 1
vn 0 0 1
vn 0 0 1
vn 0 0 1
vn 0 0 1
vn 0 0 1
vn 0 0 1
vn 0 0 1
vn 0 0 1
vn 0 0 1
vn 0 0 1
vn 0 0 1
vn 0 0 -1
vn 0 0 -1
vn 0 0 -1
vn 0 0 -1
vn 0 0 -1
vn 0 0 -1
vn 0 0 -1
vn 0 0 -1
vn 0 0 -1
vn 0 0 -1
vn 0 0 -1
vn 0 0 -1
vn 0 0 -1
vn 0 0 -1
vn 0 0 -1
vn 0 0 -1
vn 0 0 -1
vt 0.04256824 0.9166863
vt 0.05318397 0.9166863
vt 0.05318397 0.9444051
vt 0.04256072 0.9444248
vt 0.04256499 0.5833564
vt 0.05318559 0.5833564
vt 0.05318559 0.6388426
vt 0.04255909 0.6388658
vt 0.05318397 0.9444051
vt 0.05318397 0.9166863
vt 0.04256824 0.9166863
vt 0.04256072 0.9444248
vt 0.02126907 0.9721829
vt 0.02126907 0.9444641
vt 0.01065334 0.9444641
vt 0.01064582 0.9722026
vt 0.05318397 0.9444051
vt 0.05318397 0.9166863
vt 0.04256824 0.9166863
vt 0.04256072 0.9444248
vt 0.04256824 0.9166863
vt 0.05318397 0.9166863
vt 0.05318397 0.9444051
vt 0.04256072 0.9444248
vt 0.904249 0.966622
vt 0.904249 0.916689
vt 0.8936297 0.916689
vt 0.8936234 0.9666443
vt 0.04256937 0.250018
vt 0.8829706 0.250018
vt 0.8829706 0.5277417
vt 0.01064639 0.3055195
vt 0.8510476 0.02779582
vt 0.01064639 0.02779582
vt 0.0425696 0.9166782
vt 0.989352 0.9166782
vt 0.882972 0.972199
vt 0.8971652 0.9629234
vt 0.9042447 0.9166896
vt 0.8936256 0.921313
vt 0.04256266 0.5833587
vt 0.8829598 0.6388762
vt 0.04256266 0.6388762
vt 0.04256571 0.9270874
vt 0.05318523 0.9166892
vt 0.05318523 0.9444179
vt 0.04256072 0.916706
vt 0.04256072 0.9444248
vt 0.9042426 0.9666443
vt 0.8936234 0.9167113
vt 0.8936234 0.9666443
vt 0.882972 0.8610879
vt 0.989352 0.8055671
vt 0.0425696 0.8055671
vt 0.8936256 0.921313
vt 0.9042447 0.9166896
vt 0.8971652 0.9629234
vt 0.04256266 0.7499873
vt 0.8829598 0.7499873
vt 0.04256266 0.6944698
vt 0.05318523 0.9444179
vt 0.05318523 0.9166892
vt 0.04256571 0.9270874
vt 0.04256072 0.9444248
vt 0.04256072 0.916706
vt 0.8936234 0.9666443
vt 0.8936234 0.9167113
vt 0.9042426 0.9666443
usemtl EGA_Highway_20_texture0
f 3/3/3 2/2/2 1/1/1
f 4/4/4 3/3/3 1/1/1
f 7/7/7 6/6/6 5/5/5
f 7/7/7 5/5/5 8/8/8
f 11/11/11 10/10/10 9/9/9
f 11/11/11 9/9/9 12/12/12
f 15/15/15 14/14/14 13/13/13
f 15/15/15 13/13/13 16/16/16
f 19/19/19 18/18/18 17/17/17
f 19/19/19 17/17/17 20/20/20
f 23/23/23 22/22/22 21/21/21
f 24/24/24 23/23/23 21/21/21
f 27/27/27 26/26/26 25/25/25
f 28/28/28 27/27/27 25/25/25
f 31/31/31 30/30/30 29/29/29
f 34/34/34 33/33/33 32/32/32
f 37/37/37 36/36/36 35/35/35
f 40/40/40 39/39/39 38/38/38
f 43/43/43 42/42/42 41/41/41
f 46/46/46 45/45/45 44/44/44
f 48/48/48 46/46/46 47/47/47
f 51/51/51 50/50/50 49/49/49
f 54/54/54 53/53/53 52/52/52
f 57/57/57 56/56/56 55/55/55
f 60/60/60 59/59/59 58/58/58
f 63/63/63 62/62/62 61/61/61
f 65/65/65 61/61/61 64/64/64
f 68/68/68 67/67/67 66/66/66
