mtllib EGA_Highway_14.mtl
g default
v 4.7 0.5 9.900001
v 4.7 0.3 9.900001
v 4.7 0.3 7.1
v 4.7 0.5 7.1
v -5.5 1.5 9.900001
v -5.5 -0.1 9.900001
v -5.5 -0.1 -10.1
v -5.5 1.5 -10.1
v 6.5 1.5 9.900001
v 6.5 0.5 9.900001
v 6.5 0.5 8.3
v 6.5 1.5 8.3
v -3.5 0.3 -10.1
v -3.5 0.3 9.900001
v -3.5 0.5 9.900001
v -3.5 0.5 -10.1
v -5.3 0.5 -10.1
v -5.3 0.5 9.900001
v -5.3 1.5 9.900001
v -5.3 1.5 -10.1
v 6.7 0.5 8.3
v 6.7 -0.1 9.900001
v 6.7 1.5 9.900001
v 6.7 1.5 8.3
v 6.7 0.5 8.3
v 6.7 0.3 7.1
v 6.7 -0.1 9.900001
v 6.7 0.5 8.3
v 6.7 -0.1 -10.1
v 6.7 -0.1 9.900001
v 6.7 0.3 7.1
v 6.7 0.5 7.1
v 6.7 0.3 7.1
v 6.7 0.5 8.3
v 6.7 0.3 -10.1
v 6.7 -0.1 -10.1
v 6.7 0.3 7.1
v -5.5 -0.1 -10.1
v -5.5 -0.1 9.900001
v 6.7 -0.1 9.900001
v 6.7 -0.1 -10.1
v 6.7 1.5 9.900001
v 6.5 1.5 9.900001
v 6.5 1.5 8.3
v 6.7 1.5 8.3
v -5.3 1.5 9.900001
v -5.5 1.5 9.900001
v -5.5 1.5 -10.1
v -5.3 1.5 -10.1
v 6.5 0.5 8.3
v 6.7 0.5 7.1
v 6.7 0.5 8.3
v 4.7 0.5 7.1
v 6.5 0.5 8.3
v 4.7 0.5 9.900001
v 4.7 0.5 7.1
v 6.5 0.5 8.3
v 4.7 0.5 9.900001
v 6.5 0.5 8.3
v 6.5 0.5 9.900001
v -3.5 0.5 9.900001
v -5.3 0.5 9.900001
v -5.3 0.5 -10.1
v -3.5 0.5 -10.1
v 4.7 0.3 7.1
v 6.7 0.3 -10.1
v 6.7 0.3 7.1
v -3.5 0.3 -10.1
v 6.7 0.3 -10.1
v -3.5 0.3 9.900001
v -3.5 0.3 -10.1
v 4.7 0.3 7.1
v -3.5 0.3 9.900001
v 4.7 0.3 7.1
v 4.7 0.3 9.900001
v 6.7 -0.1 9.900001
v -5.5 -0.1 9.900001
v 4.7 0.3 9.900001
v 4.7 0.3 9.900001
v -5.5 -0.1 9.900001
v -3.5 0.3 9.900001
v 6.7 -0.1 9.900001
v 4.7 0.3 9.900001
v 6.5 0.5 9.900001
v -3.5 0.3 9.900001
v -5.5 -0.1 9.900001
v -5.3 0.5 9.900001
v 6.5 0.5 9.900001
v 4.7 0.3 9.900001
v 4.7 0.5 9.900001
v 6.7 -0.1 9.900001
v 6.5 0.5 9.900001
v 6.7 1.5 9.900001
v 6.5 0.5 9.900001
v 6.5 1.5 9.900001
v -5.3 0.5 9.900001
v -5.5 -0.1 9.900001
v -5.5 1.5 9.900001
v -5.3 0.5 9.900001
v -5.3 1.5 9.900001
v -3.5 0.3 9.900001
v -5.3 0.5 9.900001
v -3.5 0.5 9.900001
v 4.7 0.5 7.1
v 4.7 0.3 7.1
v 6.7 0.3 7.1
v 6.7 0.5 7.1
v 6.5 1.5 8.3
v 6.5 0.5 8.3
v 6.7 0.5 8.3
v 6.7 1.5 8.3
v -3.5 0.3 -10.1
v -5.5 -0.1 -10.1
v 6.7 -0.1 -10.1
v -5.3 0.5 -10.1
v -5.5 -0.1 -10.1
v -3.5 0.3 -10.1
v 6.7 0.3 -10.1
v -3.5 0.3 -10.1
v 6.7 -0.1 -10.1
v -5.5 1.5 -10.1
v -5.5 -0.1 -10.1
v -5.3 0.5 -10.1
v -5.3 1.5 -10.1
v -5.3 0.5 -10.1
v -3.5 0.5 -10.1
v -5.3 0.5 -10.1
v -3.5 0.3 -10.1
vn -1 0 0
vn -1 0 0
vn -1 0 0
vn -1 0 0
vn -1 0 0
vn -1 0 0
vn -1 0 0
vn -1 0 0
vn -1 0 0
vn -1 0 0
vn -1 0 0
vn -1 0 0
vn 1 0 0
vn 1 0 0
vn 1 0 0
vn 1 0 0
vn 1 0 0
vn 1 0 0
vn 1 0 0
vn 1 0 0
vn 1 0 0
vn 1 0 0
vn 1 0 0
vn 1 0 0
vn 1 0 0
vn 1 0 0
vn 1 0 0
vn 1 0 0
vn 1 0 0
vn 1 0 0
vn 1 0 0
vn 1 0 0
vn 1 0 0
vn 1 0 0
vn 1 0 0
vn 1 0 0
vn 1 0 0
vn 0 -1 0
vn 0 -1 0
vn 0 -1 0
vn 0 -1 0
vn 0 1 0
vn 0 1 0
vn 0 1 0
vn 0 1 0
vn 0 1 0
vn 0 1 0
vn 0 1 0
vn 0 1 0
vn 0 1 0
vn 0 1 0
vn 0 1 0
vn 0 1 0
vn 0 1 0
vn 0 1 0
vn 0 1 0
vn 0 1 0
vn 0 1 0
vn 0 1 0
vn 0 1 0
vn 0 1 0
vn 0 1 0
vn 0 1 0
vn 0 1 0
vn 0 1 0
vn 0 1 0
vn 0 1 0
vn 0 1 0
vn 0 1 0
vn 0 1 0
vn 0 1 0
vn 0 1 0
vn 0 1 0
vn 0 1 0
vn 0 1 0
vn 0 0 1
vn 0 0 1
vn 0 0 1
vn 0 0 1
vn 0 0 1
vn 0 0 1
vn 0 0 1
vn 0 0 1
vn 0 0 1
vn 0 0 1
vn 0 0 1
vn 0 0 1
vn 0 0 1
vn 0 0 1
vn 0 0 1
vn 0 0 1
vn 0 0 1
vn 0 0 1
vn 0 0 1
vn 0 0 1
vn 0 0 1
vn 0 0 1
vn 0 0 1
vn 0 0 1
vn 0 0 1
vn 0 0 1
vn 0 0 1
vn 0 0 1
vn 0 0 -1
vn 0 0 -1
vn 0 0 -1
vn 0 0 -1
vn 0 0 -1
vn 0 0 -1
vn 0 0 -1
vn 0 0 -1
vn 0 0 -1
vn 0 0 -1
vn 0 0 -1
vn 0 0 -1
vn 0 0 -1
vn 0 0 -1
vn 0 0 -1
vn 0 0 -1
vn 0 0 -1
vn 0 0 -1
vn 0 0 -1
vn 0 0 -1
vn 0 0 -1
vn 0 0 -1
vn 0 0 -1
vn 0 0 -1
vn 0 0 -1
vt 0.1831185 0.7346987
vt 0.1971731 0.7346987
vt 0.1971731 0.741487
vt 0.1831086 0.7414918
vt 0.1549097 0.7210932
vt 0.140855 0.7210932
vt 0.140855 0.7278816
vt 0.1549196 0.7278863
vt 0.1549097 0.7210932
vt 0.140855 0.7210932
vt 0.140855 0.7278816
vt 0.1549196 0.7278863
vt 0.1971731 0.741487
vt 0.1971731 0.7346987
vt 0.1831185 0.7346987
vt 0.1831086 0.7414918
vt 0.140855 0.7278816
vt 0.140855 0.7210932
vt 0.1549097 0.7210932
vt 0.1549196 0.7278863
vt 0.1461288 0.7278832
vt 0.1408565 0.7210925
vt 0.1549161 0.7210925
vt 0.1549196 0.7278863
vt 0.140865 0.7278863
vt 0.2065693 0.7306046
vt 0.1972006 0.7210968
vt 0.2112536 0.7265298
vt 0.9154872 0.6870647
vt 0.9154872 0.006808932
vt 0.8873355 0.1020447
vt 0.2112582 0.7346888
vt 0.1972018 0.7346888
vt 0.2112582 0.7244999
vt 0.4788668 0.08163871
vt 0.4507171 0.08163871
vt 0.4788668 0.6666545
vt 0.140855 0.7278816
vt 0.140855 0.7210932
vt 0.1549097 0.7210932
vt 0.1549196 0.7278863
vt 0.1549097 0.7210932
vt 0.140855 0.7210932
vt 0.140855 0.7278816
vt 0.1549196 0.7278863
vt 0.1549097 0.7210932
vt 0.140855 0.7210932
vt 0.140855 0.7278816
vt 0.1549196 0.7278863
vt 0.1972018 0.7244949
vt 0.2112582 0.7346837
vt 0.2112582 0.7244949
vt 0.1972001 0.734689
vt 0.209852 0.7244995
vt 0.8844976 0.09523253
vt 0.8844976 0.08571934
vt 0.8591738 0.08979642
vt 0.1971915 0.7333224
vt 0.2112508 0.7210939
vt 0.1971915 0.7210939
vt 0.1971915 0.7333224
vt 0.1971915 0.7210939
vt 0.2112508 0.7210939
vt 0.2112592 0.7333279
vt 0.802826 0.4081697
vt 0.8168969 0.9931844
vt 0.8168969 0.4081697
vt 0.2253683 0.9931929
vt 0.9436513 0.9931929
vt 0.01409365 0.6870697
vt 0.01409365 0.006811165
vt 0.591531 0.5918335
vt 0.5915227 0.5238118
vt 0.0140978 0.5306078
vt 0.0140978 0.5238118
vt 0.9859022 0.06803006
vt 0.1267816 0.06803006
vt 0.8450627 0.08162695
vt 0.8027852 0.7346895
vt 0.08452811 0.7210973
vt 0.2253628 0.7346895
vt 0.1971972 0.7210941
vt 0.20657 0.7324166
vt 0.2112563 0.7222263
vt 0.20657 0.7324166
vt 0.1971972 0.7210941
vt 0.2112563 0.7222263
vt 0.2112592 0.7210994
vt 0.1971999 0.7333279
vt 0.2112592 0.7333279
vt 0.1549213 0.721094
vt 0.1408616 0.7236404
vt 0.1549213 0.7278847
vt 0.140855 0.7210981
vt 0.140855 0.7278863
vt 0.154913 0.7236404
vt 0.1408534 0.721094
vt 0.1408534 0.7278847
vt 0.1549196 0.7210981
vt 0.1549196 0.7278863
vt 0.1971999 0.7333279
vt 0.2112592 0.7210994
vt 0.2112592 0.7333279
vt 0.1971731 0.741487
vt 0.1971731 0.7346987
vt 0.1831185 0.7346987
vt 0.1831086 0.7414918
vt 0.140855 0.7278816
vt 0.140855 0.7210932
vt 0.1549097 0.7210932
vt 0.1549196 0.7278863
vt 0.9436502 0.1088472
vt 0.9154989 0.04082275
vt 0.9154989 0.4557722
vt 0.2112563 0.7222263
vt 0.1971972 0.7210941
vt 0.20657 0.7324166
vt 0.95774 0.2993258
vt 0.95774 0.6462464
vt 0.9295905 0.2993258
vt 0.1408534 0.7278847
vt 0.1408534 0.721094
vt 0.154913 0.7236404
vt 0.1549196 0.7278863
vt 0.1549196 0.7210981
vt 0.2112592 0.7333279
vt 0.2112592 0.7210994
vt 0.1971999 0.7333279
usemtl EGA_Highway_16_texture0
f 3/3/3 2/2/2 1/1/1
f 4/4/4 3/3/3 1/1/1
f 7/7/7 6/6/6 5/5/5
f 8/8/8 7/7/7 5/5/5
f 11/11/11 10/10/10 9/9/9
f 12/12/12 11/11/11 9/9/9
f 15/15/15 14/14/14 13/13/13
f 15/15/15 13/13/13 16/16/16
f 19/19/19 18/18/18 17/17/17
f 19/19/19 17/17/17 20/20/20
f 23/23/23 22/22/22 21/21/21
f 23/23/23 25/25/25 24/24/24
f 28/28/28 27/27/27 26/26/26
f 31/31/31 30/30/30 29/29/29
f 34/34/34 33/33/33 32/32/32
f 37/37/37 36/36/36 35/35/35
f 40/40/40 39/39/39 38/38/38
f 40/40/40 38/38/38 41/41/41
f 44/44/44 43/43/43 42/42/42
f 45/45/45 44/44/44 42/42/42
f 48/48/48 47/47/47 46/46/46
f 49/49/49 48/48/48 46/46/46
f 52/52/52 51/51/51 50/50/50
f 54/54/54 51/51/51 53/53/53
f 57/57/57 56/56/56 55/55/55
f 60/60/60 59/59/59 58/58/58
f 63/63/63 62/62/62 61/61/61
f 64/64/64 63/63/63 61/61/61
f 67/67/67 66/66/66 65/65/65
f 65/65/65 69/69/69 68/68/68
f 72/72/72 71/71/71 70/70/70
f 75/75/75 74/74/74 73/73/73
f 78/78/78 77/77/77 76/76/76
f 81/81/81 80/80/80 79/79/79
f 84/84/84 83/83/83 82/82/82
f 87/87/87 86/86/86 85/85/85
f 90/90/90 89/89/89 88/88/88
f 93/93/93 92/92/92 91/91/91
f 95/95/95 94/94/94 93/93/93
f 98/98/98 97/97/97 96/96/96
f 100/100/100 98/98/98 99/99/99
f 103/103/103 102/102/102 101/101/101
f 106/106/106 105/105/105 104/104/104
f 106/106/106 104/104/104 107/107/107
f 110/110/110 109/109/109 108/108/108
f 110/110/110 108/108/108 111/111/111
f 114/114/114 113/113/113 112/112/112
f 117/117/117 116/116/116 115/115/115
f 120/120/120 119/119/119 118/118/118
f 123/123/123 122/122/122 121/121/121
f 125/125/125 121/121/121 124/124/124
f 128/128/128 127/127/127 126/126/126
