mtllib EGA_Highway_26.mtl
g default
v -9.900001 1.5 9.3
v -9.900001 -0.1 9.3
v -9.900001 -0.1 -9.1
v -9.900001 1.5 -9.1
v 7.9 0.5 9.3
v 7.9 0.3 9.3
v 7.9 0.3 -9.1
v 7.9 0.5 -9.1
v 9.7 1.5 9.3
v 9.7 0.5 9.3
v 9.7 0.5 -9.1
v 9.7 1.5 -9.1
v -9.7 0.5 -9.1
v -9.7 0.5 9.3
v -9.7 1.5 9.3
v -9.7 1.5 -9.1
v -7.9 0.3 -9.1
v -7.9 0.3 9.3
v -7.9 0.5 9.3
v -7.9 0.5 -9.1
v 9.900001 -0.1 -9.1
v 9.900001 -0.1 9.3
v 9.900001 1.5 9.3
v 9.900001 1.5 -9.1
v -9.900001 -0.1 -9.1
v -9.900001 -0.1 9.3
v 9.900001 -0.1 9.3
v 9.900001 -0.1 -9.1
v 9.900001 1.5 9.3
v 9.7 1.5 9.3
v 9.7 1.5 -9.1
v 9.900001 1.5 -9.1
v -9.7 1.5 9.3
v -9.900001 1.5 9.3
v -9.900001 1.5 -9.1
v -9.7 1.5 -9.1
v 9.7 0.5 9.3
v 7.9 0.5 9.3
v 7.9 0.5 -9.1
v 9.7 0.5 -9.1
v -7.9 0.5 9.3
v -9.7 0.5 9.3
v -9.7 0.5 -9.1
v -7.9 0.5 -9.1
v 7.9 0.3 9.3
v -7.9 0.3 9.3
v -7.9 0.3 -9.1
v 7.9 0.3 9.3
v -7.9 0.3 -9.1
v 7.9 0.3 -9.1
v 9.900001 -0.1 9.3
v -9.900001 -0.1 9.3
v 7.9 0.3 9.3
v 7.9 0.3 9.3
v -9.900001 -0.1 9.3
v -7.9 0.3 9.3
v 9.900001 -0.1 9.3
v 7.9 0.3 9.3
v 9.7 0.5 9.3
v -7.9 0.3 9.3
v -9.900001 -0.1 9.3
v -9.7 0.5 9.3
v 9.7 0.5 9.3
v 7.9 0.3 9.3
v 7.9 0.5 9.3
v 9.900001 -0.1 9.3
v 9.7 0.5 9.3
v 9.900001 1.5 9.3
v 9.7 0.5 9.3
v 9.7 1.5 9.3
v -9.7 0.5 9.3
v -9.900001 -0.1 9.3
v -9.900001 1.5 9.3
v -9.7 0.5 9.3
v -9.7 1.5 9.3
v -7.9 0.3 9.3
v -9.7 0.5 9.3
v -7.9 0.5 9.3
v 7.9 0.3 -9.1
v -9.900001 -0.1 -9.1
v 9.900001 -0.1 -9.1
v -7.9 0.3 -9.1
v -9.900001 -0.1 -9.1
v 7.9 0.3 -9.1
v 9.7 0.5 -9.1
v 7.9 0.3 -9.1
v 9.900001 -0.1 -9.1
v -9.7 0.5 -9.1
v -9.900001 -0.1 -9.1
v -7.9 0.3 -9.1
v 7.9 0.5 -9.1
v 7.9 0.3 -9.1
v 9.7 0.5 -9.1
v 9.900001 1.5 -9.1
v 9.7 0.5 -9.1
v 9.900001 -0.1 -9.1
v 9.7 1.5 -9.1
v 9.7 0.5 -9.1
v -9.900001 1.5 -9.1
v -9.900001 -0.1 -9.1
v -9.7 0.5 -9.1
v -9.7 1.5 -9.1
v -9.7 0.5 -9.1
v -7.9 0.5 -9.1
v -9.7 0.5 -9.1
v -7.9 0.3 -9.1
vn -1 0 0
vn -1 0 0
vn -1 0 0
vn -1 0 0
vn -1 0 0
vn -1 0 0
vn -1 0 0
vn -1 0 0
vn -1 0 0
vn -1 0 0
vn -1 0 0
vn -1 0 0
vn 1 0 0
vn 1 0 0
vn 1 0 0
vn 1 0 0
vn 1 0 0
vn 1 0 0
vn 1 0 0
vn 1 0 0
vn 1 0 0
vn 1 0 0
vn 1 0 0
vn 1 0 0
vn 0 -1 0
vn 0 -1 0
vn 0 -1 0
vn 0 -1 0
vn 0 1 0
vn 0 1 0
vn 0 1 0
vn 0 1 0
vn 0 1 0
vn 0 1 0
vn 0 1 0
vn 0 1 0
vn 0 1 0
vn 0 1 0
vn 0 1 0
vn 0 1 0
vn 0 1 0
vn 0 1 0
vn 0 1 0
vn 0 1 0
vn 0 1 0
vn 0 1 0
vn 0 1 0
vn 0 1 0
vn 0 1 0
vn 0 1 0
vn 0 0 1
vn 0 0 1
vn 0 0 1
vn 0 0 1
vn 0 0 1
vn 0 0 1
vn 0 0 1
vn 0 0 1
vn 0 0 1
vn 0 0 1
vn 0 0 1
vn 0 0 1
vn 0 0 1
vn 0 0 1
vn 0 0 1
vn 0 0 1
vn 0 0 1
vn 0 0 1
vn 0 0 1
vn 0 0 1
vn 0 0 1
vn 0 0 1
vn 0 0 1
vn 0 0 1
vn 0 0 1
vn 0 0 1
vn 0 0 1
vn 0 0 1
vn 0 0 -1
vn 0 0 -1
vn 0 0 -1
vn 0 0 -1
vn 0 0 -1
vn 0 0 -1
vn 0 0 -1
vn 0 0 -1
vn 0 0 -1
vn 0 0 -1
vn 0 0 -1
vn 0 0 -1
vn 0 0 -1
vn 0 0 -1
vn 0 0 -1
vn 0 0 -1
vn 0 0 -1
vn 0 0 -1
vn 0 0 -1
vn 0 0 -1
vn 0 0 -1
vn 0 0 -1
vn 0 0 -1
vn 0 0 -1
vn 0 0 -1
vn 0 0 -1
vn 0 0 -1
vn 0 0 -1
vt 0.8415982 0.6176679
vt 0.8514782 0.6176679
vt 0.8514782 0.6470172
vt 0.8415912 0.647038
vt 0.07922193 0.9411973
vt 0.08910191 0.9411973
vt 0.08910191 0.9705467
vt 0.07921492 0.9705675
vt 0.8415982 0.6176679
vt 0.8514782 0.6176679
vt 0.8514782 0.6470172
vt 0.8415912 0.647038
vt 0.8514782 0.6470172
vt 0.8514782 0.6176679
vt 0.8415982 0.6176679
vt 0.8415912 0.647038
vt 0.08910191 0.9705467
vt 0.08910191 0.9411973
vt 0.07922193 0.9411973
vt 0.07921492 0.9705675
vt 0.8514782 0.6470172
vt 0.8514782 0.6176679
vt 0.8415982 0.6176679
vt 0.8415912 0.647038
vt 0.8514782 0.6470172
vt 0.8514782 0.6176679
vt 0.8415982 0.6176679
vt 0.8415912 0.647038
vt 0.8415982 0.6176679
vt 0.8514782 0.6176679
vt 0.8514782 0.6470172
vt 0.8415912 0.647038
vt 0.8415982 0.6176679
vt 0.8514782 0.6176679
vt 0.8514782 0.6470172
vt 0.8415912 0.647038
vt 0.8118753 0.6176943
vt 0.8118753 0.6705646
vt 0.801992 0.6705646
vt 0.8019861 0.6176707
vt 0.8118753 0.670541
vt 0.8118753 0.6176707
vt 0.801992 0.6176707
vt 0.8019861 0.6705646
vt 0.009916558 0.1617829
vt 0.7920714 0.1617829
vt 0.7920714 0.4323166
vt 0.009908774 0.2794481
vt 0.7920637 0.5499818
vt 0.009908774 0.5499818
vt 0.009909973 0.8529536
vt 0.9900835 0.8529536
vt 0.1089174 0.91174
vt 0.009921115 0.6764544
vt 0.8910772 0.6176794
vt 0.7920709 0.6764544
vt 0.8118713 0.6176713
vt 0.8052825 0.6666248
vt 0.8019881 0.6225666
vt 0.8052825 0.6666248
vt 0.8118713 0.6176713
vt 0.8019881 0.6225666
vt 0.8019861 0.6176943
vt 0.8118694 0.6705646
vt 0.8019861 0.6705646
vt 0.84159 0.6176708
vt 0.8514735 0.6286808
vt 0.84159 0.6470307
vt 0.8514782 0.6176887
vt 0.8514782 0.647038
vt 0.8415958 0.6286808
vt 0.8514794 0.6176708
vt 0.8514794 0.6470307
vt 0.8415912 0.6176887
vt 0.8415912 0.647038
vt 0.8118694 0.6705646
vt 0.8019861 0.6176943
vt 0.8019861 0.6705646
vt 0.1089174 0.7940929
vt 0.9900835 0.7353065
vt 0.009909973 0.7353065
vt 0.7920709 0.08821911
vt 0.8910772 0.02944415
vt 0.009921115 0.08821911
vt 0.8019881 0.6225666
vt 0.8052825 0.6666248
vt 0.8118713 0.6176713
vt 0.8019881 0.6225666
vt 0.8118713 0.6176713
vt 0.8052825 0.6666248
vt 0.8019861 0.6705646
vt 0.8118694 0.6705646
vt 0.8019861 0.6176943
vt 0.84159 0.6470307
vt 0.8514735 0.6286808
vt 0.84159 0.6176708
vt 0.8514782 0.647038
vt 0.8514782 0.6176887
vt 0.8514794 0.6470307
vt 0.8514794 0.6176708
vt 0.8415958 0.6286808
vt 0.8415912 0.647038
vt 0.8415912 0.6176887
vt 0.8019861 0.6705646
vt 0.8019861 0.6176943
vt 0.8118694 0.6705646
usemtl EGA_Highway_26-defaultMat
f 3/3/3 2/2/2 1/1/1
f 4/4/4 3/3/3 1/1/1
f 7/7/7 6/6/6 5/5/5
f 8/8/8 7/7/7 5/5/5
f 11/11/11 10/10/10 9/9/9
f 12/12/12 11/11/11 9/9/9
f 15/15/15 14/14/14 13/13/13
f 15/15/15 13/13/13 16/16/16
f 19/19/19 18/18/18 17/17/17
f 19/19/19 17/17/17 20/20/20
f 23/23/23 22/22/22 21/21/21
f 23/23/23 21/21/21 24/24/24
f 27/27/27 26/26/26 25/25/25
f 27/27/27 25/25/25 28/28/28
f 31/31/31 30/30/30 29/29/29
f 32/32/32 31/31/31 29/29/29
f 35/35/35 34/34/34 33/33/33
f 36/36/36 35/35/35 33/33/33
f 39/39/39 38/38/38 37/37/37
f 40/40/40 39/39/39 37/37/37
f 43/43/43 42/42/42 41/41/41
f 44/44/44 43/43/43 41/41/41
f 47/47/47 46/46/46 45/45/45
f 50/50/50 49/49/49 48/48/48
f 53/53/53 52/52/52 51/51/51
f 56/56/56 55/55/55 54/54/54
f 59/59/59 58/58/58 57/57/57
f 62/62/62 61/61/61 60/60/60
f 65/65/65 64/64/64 63/63/63
f 68/68/68 67/67/67 66/66/66
f 70/70/70 69/69/69 68/68/68
f 73/73/73 72/72/72 71/71/71
f 75/75/75 73/73/73 74/74/74
f 78/78/78 77/77/77 76/76/76
f 81/81/81 80/80/80 79/79/79
f 84/84/84 83/83/83 82/82/82
f 87/87/87 86/86/86 85/85/85
f 90/90/90 89/89/89 88/88/88
f 93/93/93 92/92/92 91/91/91
f 96/96/96 95/95/95 94/94/94
f 94/94/94 98/98/98 97/97/97
f 101/101/101 100/100/100 99/99/99
f 103/103/103 99/99/99 102/102/102
f 106/106/106 105/105/105 104/104/104
