mtllib EGA_Highway_34.mtl
g default
v -4.6 4.616654 9.900001
v -4.6 1.5 9.9
v -4.6 1.5 8.3
v -4.6 5.254898 8.3
v -5 1.5 10.3
v -5 -0.1 10.3
v -5 -0.1 7.9
v -5 1.5 7.9
v -1.8 -0.1 7.9
v -1.8 -0.1 10.3
v -1.8 1.5 10.3
v -1.8 1.5 7.9
v -2.2 1.5 8.3
v -2.2 1.5 9.9
v -2.2 4.616654 9.900001
v -2.2 5.254898 8.3
v -5 -0.1 7.9
v -5 -0.1 10.3
v -1.8 -0.1 10.3
v -1.8 -0.1 7.9
v -1.8 1.5 10.3
v -5 1.5 10.3
v -2.2 1.5 9.9
v -2.2 1.5 9.9
v -4.6 1.5 9.9
v -2.2 1.5 9.9
v -1.8 1.5 7.9
v -4.6 1.5 9.9
v -5 1.5 7.9
v -2.2 1.5 8.3
v -2.2 1.5 9.9
v -2.2 1.5 8.3
v -4.6 1.5 9.9
v -4.6 1.5 8.3
v -4.6 1.5 8.3
v -2.2 1.5 8.3
v -2.2 4.616654 9.900001
v -4.6 4.616654 9.900001
v -4.6 5.254898 8.3
v -2.2 5.254898 8.3
v -2.2 1.5 9.9
v -4.6 1.5 9.9
v -4.6 4.616654 9.900001
v -2.2 4.616654 9.900001
v -1.8 -0.1 10.3
v -5 -0.1 10.3
v -5 1.5 10.3
v -1.8 1.5 10.3
v -5 1.5 7.9
v -5 -0.1 7.9
v -1.8 -0.1 7.9
v -1.8 1.5 7.9
v -4.6 5.254898 8.3
v -4.6 1.5 8.3
v -2.2 1.5 8.3
v -2.2 5.254898 8.3
v 2.4 4.616654 9.900001
v 2.4 1.5 9.9
v 2.4 1.5 8.3
v 2.4 5.254898 8.3
v 2 1.5 10.3
v 2 -0.1 10.3
v 2 -0.1 7.9
v 2 1.5 7.9
v 5.2 -0.1 7.9
v 5.2 -0.1 10.3
v 5.2 1.5 10.3
v 5.2 1.5 7.9
v 4.8 1.5 8.3
v 4.8 1.5 9.9
v 4.8 4.616654 9.900001
v 4.8 5.254898 8.3
v 2 -0.1 7.9
v 2 -0.1 10.3
v 5.2 -0.1 10.3
v 5.2 -0.1 7.9
v 5.2 1.5 10.3
v 2 1.5 10.3
v 4.8 1.5 9.9
v 4.8 1.5 9.9
v 2.4 1.5 9.9
v 4.8 1.5 9.9
v 5.2 1.5 7.9
v 2.4 1.5 9.9
v 2 1.5 7.9
v 4.8 1.5 8.3
v 4.8 1.5 9.9
v 4.8 1.5 8.3
v 2.4 1.5 9.9
v 2.4 1.5 8.3
v 2.4 1.5 8.3
v 4.8 1.5 8.3
v 4.8 4.616654 9.900001
v 2.4 4.616654 9.900001
v 2.4 5.254898 8.3
v 4.8 5.254898 8.3
v 4.8 1.5 9.9
v 2.4 1.5 9.9
v 2.4 4.616654 9.900001
v 4.8 4.616654 9.900001
v 5.2 -0.1 10.3
v 2 -0.1 10.3
v 2 1.5 10.3
v 5.2 1.5 10.3
v 2 1.5 7.9
v 2 -0.1 7.9
v 5.2 -0.1 7.9
v 5.2 1.5 7.9
v 2.4 5.254898 8.3
v 2.4 1.5 8.3
v 4.8 1.5 8.3
v 4.8 5.254898 8.3
v -4.6 7.5 0.9
v -4.6 1.5 0.9
v -4.6 1.5 -0.7
v -4.6 7.5 -0.7
v -5 1.5 1.3
v -5 -0.1 1.3
v -5 -0.1 -1.1
v -5 1.5 -1.1
v -1.8 -0.1 -1.1
v -1.8 -0.1 1.3
v -1.8 1.5 1.3
v -1.8 1.5 -1.1
v -2.2 1.5 -0.7
v -2.2 1.5 0.9
v -2.2 7.5 0.9
v -2.2 7.5 -0.7
v -5 -0.1 -1.1
v -5 -0.1 1.3
v -1.8 -0.1 1.3
v -1.8 -0.1 -1.1
v -1.8 1.5 1.3
v -5 1.5 1.3
v -2.2 1.5 0.9
v -2.2 1.5 0.9
v -4.6 1.5 0.9
v -2.2 1.5 0.9
v -1.8 1.5 -1.1
v -4.6 1.5 0.9
v -5 1.5 -1.1
v -2.2 1.5 -0.7
v -2.2 1.5 0.9
v -2.2 1.5 -0.7
v -4.6 1.5 0.9
v -4.6 1.5 -0.7
v -4.6 1.5 -0.7
v -2.2 1.5 -0.7
v -2.2 7.5 0.9
v -4.6 7.5 0.9
v -4.6 7.5 -0.7
v -2.2 7.5 -0.7
v -2.2 1.5 0.9
v -4.6 1.5 0.9
v -4.6 7.5 0.9
v -2.2 7.5 0.9
v -1.8 -0.1 1.3
v -5 -0.1 1.3
v -5 1.5 1.3
v -1.8 1.5 1.3
v -5 1.5 -1.1
v -5 -0.1 -1.1
v -1.8 -0.1 -1.1
v -1.8 1.5 -1.1
v -4.6 7.5 -0.7
v -4.6 1.5 -0.7
v -2.2 1.5 -0.7
v -2.2 7.5 -0.7
v 2.4 7.5 0.9
v 2.4 1.5 0.9
v 2.4 1.5 -0.7
v 2.4 7.5 -0.7
v 2 1.5 1.3
v 2 -0.1 1.3
v 2 -0.1 -1.1
v 2 1.5 -1.1
v 5.2 -0.1 -1.1
v 5.2 -0.1 1.3
v 5.2 1.5 1.3
v 5.2 1.5 -1.1
v 4.8 1.5 -0.7
v 4.8 1.5 0.9
v 4.8 7.5 0.9
v 4.8 7.5 -0.7
v 2 -0.1 -1.1
v 2 -0.1 1.3
v 5.2 -0.1 1.3
v 5.2 -0.1 -1.1
v 5.2 1.5 1.3
v 2 1.5 1.3
v 4.8 1.5 0.9
v 4.8 1.5 0.9
v 2.4 1.5 0.9
v 4.8 1.5 0.9
v 5.2 1.5 -1.1
v 2.4 1.5 0.9
v 2 1.5 -1.1
v 4.8 1.5 -0.7
v 4.8 1.5 0.9
v 4.8 1.5 -0.7
v 2.4 1.5 0.9
v 2.4 1.5 -0.7
v 2.4 1.5 -0.7
v 4.8 1.5 -0.7
v 4.8 7.5 0.9
v 2.4 7.5 0.9
v 2.4 7.5 -0.7
v 4.8 7.5 -0.7
v 4.8 1.5 0.9
v 2.4 1.5 0.9
v 2.4 7.5 0.9
v 4.8 7.5 0.9
v 5.2 -0.1 1.3
v 2 -0.1 1.3
v 2 1.5 1.3
v 5.2 1.5 1.3
v 2 1.5 -1.1
v 2 -0.1 -1.1
v 5.2 -0.1 -1.1
v 5.2 1.5 -1.1
v 2.4 7.5 -0.7
v 2.4 1.5 -0.7
v 4.8 1.5 -0.7
v 4.8 7.5 -0.7
vn -1 -3.469646E-08 -6.920248E-09
vn -1 -3.824912E-08 0
vn -1 -3.469646E-08 -6.920248E-09
vn -1 -3.174768E-08 -1.266422E-08
vn -1 0 0
vn -1 0 0
vn -1 0 0
vn -1 0 0
vn 1 0 0
vn 1 0 0
vn 1 0 0
vn 1 0 0
vn 1 3.469646E-08 6.920248E-09
vn 1 3.824912E-08 0
vn 1 3.469646E-08 6.920248E-09
vn 1 3.174768E-08 1.266422E-08
vn 0 -1 0
vn 0 -1 0
vn 0 -1 0
vn 0 -1 0
vn 0 1 0
vn 0 1 0
vn 0 1 0
vn 0 0.9999999 0
vn 0 0.9999999 0
vn 0 1 0
vn 0 1 0
vn 0 1 0
vn 0 1 0
vn 0 1 0
vn 0 1 0
vn 0 1 0
vn 0 1 0
vn 0 1 0
vn 0 0.9999999 0
vn 0 0.9999999 0
vn 0 0.9288279 0.3705115
vn 0 0.9288279 0.3705115
vn 0 0.9288279 0.3705115
vn 0 0.9288279 0.3705115
vn 0 -1.72121E-07 1
vn 0 -1.72121E-07 1
vn 0 -1.72121E-07 1
vn 0 -1.72121E-07 1
vn 0 0 1
vn 0 0 1
vn 0 0 1
vn 0 0 1
vn 0 0 -1
vn 0 0 -1
vn 0 0 -1
vn 0 0 -1
vn 0 4.762151E-08 -1
vn 0 4.762151E-08 -1
vn 0 4.762151E-08 -1
vn 0 4.762152E-08 -1
vn -1 -3.469646E-08 -6.920248E-09
vn -1 -3.824912E-08 0
vn -1 -3.469646E-08 -6.920248E-09
vn -1 -3.174768E-08 -1.266422E-08
vn -1 0 0
vn -1 0 0
vn -1 0 0
vn -1 0 0
vn 1 0 0
vn 1 0 0
vn 1 0 0
vn 1 0 0
vn 1 3.469646E-08 6.920248E-09
vn 1 3.824912E-08 0
vn 1 3.469646E-08 6.920248E-09
vn 1 3.174768E-08 1.266422E-08
vn 0 -1 0
vn 0 -1 0
vn 0 -1 0
vn 0 -1 0
vn 0 1 0
vn 0 1 0
vn 0 1 0
vn 0 0.9999999 0
vn 0 0.9999999 0
vn 0 1 0
vn 0 1 0
vn 0 1 0
vn 0 1 0
vn 0 1 0
vn 0 1 0
vn 0 1 0
vn 0 1 0
vn 0 1 0
vn 0 0.9999999 0
vn 0 0.9999999 0
vn 0 0.9288279 0.3705115
vn 0 0.9288279 0.3705115
vn 0 0.9288279 0.3705115
vn 0 0.9288279 0.3705115
vn 0 -1.72121E-07 1
vn 0 -1.72121E-07 1
vn 0 -1.72121E-07 1
vn 0 -1.72121E-07 1
vn 0 0 1
vn 0 0 1
vn 0 0 1
vn 0 0 1
vn 0 0 -1
vn 0 0 -1
vn 0 0 -1
vn 0 0 -1
vn 0 4.762151E-08 -1
vn 0 4.762151E-08 -1
vn 0 4.762151E-08 -1
vn 0 4.762152E-08 -1
vn -1 0 0
vn -1 0 0
vn -1 0 0
vn -1 0 0
vn -1 0 0
vn -1 0 0
vn -1 0 0
vn -1 0 0
vn 1 0 0
vn 1 0 0
vn 1 0 0
vn 1 0 0
vn 1 0 0
vn 1 0 0
vn 1 0 0
vn 1 0 0
vn 0 -1 0
vn 0 -1 0
vn 0 -1 0
vn 0 -1 0
vn 0 1 0
vn 0 1 0
vn 0 1 0
vn 0 1 0
vn 0 1 0
vn 0 1 0
vn 0 1 0
vn 0 1 0
vn 0 1 0
vn 0 1 0
vn 0 1 0
vn 0 1 0
vn 0 1 0
vn 0 1 0
vn 0 1 0
vn 0 1 0
vn 0 1 0
vn 0 1 0
vn 0 1 0
vn 0 1 0
vn 0 0 1
vn 0 0 1
vn 0 0 1
vn 0 0 1
vn 0 0 1
vn 0 0 1
vn 0 0 1
vn 0 0 1
vn 0 0 -1
vn 0 0 -1
vn 0 0 -1
vn 0 0 -1
vn 0 0 -1
vn 0 0 -1
vn 0 0 -1
vn 0 0 -1
vn -1 0 0
vn -1 0 0
vn -1 0 0
vn -1 0 0
vn -1 0 0
vn -1 0 0
vn -1 0 0
vn -1 0 0
vn 1 0 0
vn 1 0 0
vn 1 0 0
vn 1 0 0
vn 1 0 0
vn 1 0 0
vn 1 0 0
vn 1 0 0
vn 0 -1 0
vn 0 -1 0
vn 0 -1 0
vn 0 -1 0
vn 0 1 0
vn 0 1 0
vn 0 1 0
vn 0 1 0
vn 0 1 0
vn 0 1 0
vn 0 1 0
vn 0 1 0
vn 0 1 0
vn 0 1 0
vn 0 1 0
vn 0 1 0
vn 0 1 0
vn 0 1 0
vn 0 1 0
vn 0 1 0
vn 0 1 0
vn 0 1 0
vn 0 1 0
vn 0 1 0
vn 0 0 1
vn 0 0 1
vn 0 0 1
vn 0 0 1
vn 0 0 1
vn 0 0 1
vn 0 0 1
vn 0 0 1
vn 0 0 -1
vn 0 0 -1
vn 0 0 -1
vn 0 0 -1
vn 0 0 -1
vn 0 0 -1
vn 0 0 -1
vn 0 0 -1
vt 0.1669024 0.333569
vt 0.3332155 0.333569
vt 0.3332155 0.6661953
vt 0.1667845 0.666431
vt 0.6669024 0.333569
vt 0.8332155 0.333569
vt 0.8332155 0.6661953
vt 0.6667845 0.666431
vt 0.8332155 0.6661953
vt 0.8332155 0.333569
vt 0.6669024 0.333569
vt 0.6667845 0.666431
vt 0.3332155 0.6661953
vt 0.3332155 0.333569
vt 0.1669024 0.333569
vt 0.1667845 0.666431
vt 0.8332155 0.6661953
vt 0.8332155 0.333569
vt 0.6669024 0.333569
vt 0.6667845 0.666431
vt 0.6667913 0.3335548
vt 0.8331257 0.3335548
vt 0.687583 0.6662238
vt 0.6669185 0.6663954
vt 0.809427 0.6663954
vt 0.8331164 0.3890335
vt 0.6667751 0.6662689
vt 0.6668836 0.3890335
vt 0.8332249 0.6662689
vt 0.687583 0.3337762
vt 0.8331904 0.3338478
vt 0.8331904 0.5998285
vt 0.6668096 0.3338478
vt 0.6668096 0.5998285
vt 0.809427 0.3336046
vt 0.6669185 0.3336046
vt 0.1669024 0.333569
vt 0.3332155 0.333569
vt 0.3332155 0.6661953
vt 0.1667845 0.666431
vt 0.1669024 0.333569
vt 0.3332155 0.333569
vt 0.3332155 0.6661953
vt 0.1667845 0.666431
vt 0.6669024 0.333569
vt 0.8332155 0.333569
vt 0.8332155 0.6661953
vt 0.6667845 0.666431
vt 0.8332155 0.6661953
vt 0.8332155 0.333569
vt 0.6669024 0.333569
vt 0.6667845 0.666431
vt 0.3332155 0.6661953
vt 0.3332155 0.333569
vt 0.1669024 0.333569
vt 0.1667845 0.666431
vt 0.1669024 0.333569
vt 0.3332155 0.333569
vt 0.3332155 0.6661953
vt 0.1667845 0.666431
vt 0.6669024 0.333569
vt 0.8332155 0.333569
vt 0.8332155 0.6661953
vt 0.6667845 0.666431
vt 0.8332155 0.6661953
vt 0.8332155 0.333569
vt 0.6669024 0.333569
vt 0.6667845 0.666431
vt 0.3332155 0.6661953
vt 0.3332155 0.333569
vt 0.1669024 0.333569
vt 0.1667845 0.666431
vt 0.8332155 0.6661953
vt 0.8332155 0.333569
vt 0.6669024 0.333569
vt 0.6667845 0.666431
vt 0.6667913 0.3335548
vt 0.8331257 0.3335548
vt 0.687583 0.6662238
vt 0.6669185 0.6663954
vt 0.809427 0.6663954
vt 0.8331164 0.3890335
vt 0.6667751 0.6662689
vt 0.6668836 0.3890335
vt 0.8332249 0.6662689
vt 0.687583 0.3337762
vt 0.8331904 0.3338478
vt 0.8331904 0.5998285
vt 0.6668096 0.3338478
vt 0.6668096 0.5998285
vt 0.809427 0.3336046
vt 0.6669185 0.3336046
vt 0.1669024 0.333569
vt 0.3332155 0.333569
vt 0.3332155 0.6661953
vt 0.1667845 0.666431
vt 0.1669024 0.333569
vt 0.3332155 0.333569
vt 0.3332155 0.6661953
vt 0.1667845 0.666431
vt 0.6669024 0.333569
vt 0.8332155 0.333569
vt 0.8332155 0.6661953
vt 0.6667845 0.666431
vt 0.8332155 0.6661953
vt 0.8332155 0.333569
vt 0.6669024 0.333569
vt 0.6667845 0.666431
vt 0.3332155 0.6661953
vt 0.3332155 0.333569
vt 0.1669024 0.333569
vt 0.1667845 0.666431
vt 0.1669024 0.333569
vt 0.3332155 0.333569
vt 0.3332155 0.6661953
vt 0.1667845 0.666431
vt 0.6669024 0.333569
vt 0.8332155 0.333569
vt 0.8332155 0.6661953
vt 0.6667845 0.666431
vt 0.8332155 0.6661953
vt 0.8332155 0.333569
vt 0.6669024 0.333569
vt 0.6667845 0.666431
vt 0.3332155 0.6661953
vt 0.3332155 0.333569
vt 0.1669024 0.333569
vt 0.1667845 0.666431
vt 0.8332155 0.6661953
vt 0.8332155 0.333569
vt 0.6669024 0.333569
vt 0.6667845 0.666431
vt 0.6667913 0.3335548
vt 0.8331257 0.3335548
vt 0.687583 0.6662238
vt 0.6669185 0.6663954
vt 0.809427 0.6663954
vt 0.8331164 0.3890335
vt 0.6667751 0.6662689
vt 0.6668836 0.3890335
vt 0.8332249 0.6662689
vt 0.687583 0.3337762
vt 0.8331904 0.3338478
vt 0.8331904 0.5998285
vt 0.6668096 0.3338478
vt 0.6668096 0.5998285
vt 0.809427 0.3336046
vt 0.6669185 0.3336046
vt 0.1669024 0.333569
vt 0.3332155 0.333569
vt 0.3332155 0.6661953
vt 0.1667845 0.666431
vt 0.1669024 0.333569
vt 0.3332155 0.333569
vt 0.3332155 0.6661953
vt 0.1667845 0.666431
vt 0.6669024 0.333569
vt 0.8332155 0.333569
vt 0.8332155 0.6661953
vt 0.6667845 0.666431
vt 0.8332155 0.6661953
vt 0.8332155 0.333569
vt 0.6669024 0.333569
vt 0.6667845 0.666431
vt 0.3332155 0.6661953
vt 0.3332155 0.333569
vt 0.1669024 0.333569
vt 0.1667845 0.666431
vt 0.1669024 0.333569
vt 0.3332155 0.333569
vt 0.3332155 0.6661953
vt 0.1667845 0.666431
vt 0.6669024 0.333569
vt 0.8332155 0.333569
vt 0.8332155 0.6661953
vt 0.6667845 0.666431
vt 0.8332155 0.6661953
vt 0.8332155 0.333569
vt 0.6669024 0.333569
vt 0.6667845 0.666431
vt 0.3332155 0.6661953
vt 0.3332155 0.333569
vt 0.1669024 0.333569
vt 0.1667845 0.666431
vt 0.8332155 0.6661953
vt 0.8332155 0.333569
vt 0.6669024 0.333569
vt 0.6667845 0.666431
vt 0.6667913 0.3335548
vt 0.8331257 0.3335548
vt 0.687583 0.6662238
vt 0.6669185 0.6663954
vt 0.809427 0.6663954
vt 0.8331164 0.3890335
vt 0.6667751 0.6662689
vt 0.6668836 0.3890335
vt 0.8332249 0.6662689
vt 0.687583 0.3337762
vt 0.8331904 0.3338478
vt 0.8331904 0.5998285
vt 0.6668096 0.3338478
vt 0.6668096 0.5998285
vt 0.809427 0.3336046
vt 0.6669185 0.3336046
vt 0.1669024 0.333569
vt 0.3332155 0.333569
vt 0.3332155 0.6661953
vt 0.1667845 0.666431
vt 0.1669024 0.333569
vt 0.3332155 0.333569
vt 0.3332155 0.6661953
vt 0.1667845 0.666431
vt 0.6669024 0.333569
vt 0.8332155 0.333569
vt 0.8332155 0.6661953
vt 0.6667845 0.666431
vt 0.8332155 0.6661953
vt 0.8332155 0.333569
vt 0.6669024 0.333569
vt 0.6667845 0.666431
vt 0.3332155 0.6661953
vt 0.3332155 0.333569
vt 0.1669024 0.333569
vt 0.1667845 0.666431
usemtl EGA_Highway_34-defaultMat
f 3/3/3 2/2/2 1/1/1
f 4/4/4 3/3/3 1/1/1
f 7/7/7 6/6/6 5/5/5
f 8/8/8 7/7/7 5/5/5
f 11/11/11 10/10/10 9/9/9
f 11/11/11 9/9/9 12/12/12
f 15/15/15 14/14/14 13/13/13
f 15/15/15 13/13/13 16/16/16
f 19/19/19 18/18/18 17/17/17
f 19/19/19 17/17/17 20/20/20
f 23/23/23 22/22/22 21/21/21
f 25/25/25 22/22/22 24/24/24
f 27/27/27 26/26/26 21/21/21
f 29/29/29 22/22/22 28/28/28
f 27/27/27 29/29/29 30/30/30
f 32/32/32 31/31/31 27/27/27
f 34/34/34 29/29/29 33/33/33
f 36/36/36 29/29/29 35/35/35
f 39/39/39 38/38/38 37/37/37
f 40/40/40 39/39/39 37/37/37
f 43/43/43 42/42/42 41/41/41
f 44/44/44 43/43/43 41/41/41
f 47/47/47 46/46/46 45/45/45
f 48/48/48 47/47/47 45/45/45
f 51/51/51 50/50/50 49/49/49
f 51/51/51 49/49/49 52/52/52
f 55/55/55 54/54/54 53/53/53
f 55/55/55 53/53/53 56/56/56
f 59/59/59 58/58/58 57/57/57
f 60/60/60 59/59/59 57/57/57
f 63/63/63 62/62/62 61/61/61
f 64/64/64 63/63/63 61/61/61
f 67/67/67 66/66/66 65/65/65
f 67/67/67 65/65/65 68/68/68
f 71/71/71 70/70/70 69/69/69
f 71/71/71 69/69/69 72/72/72
f 75/75/75 74/74/74 73/73/73
f 75/75/75 73/73/73 76/76/76
f 79/79/79 78/78/78 77/77/77
f 81/81/81 78/78/78 80/80/80
f 83/83/83 82/82/82 77/77/77
f 85/85/85 78/78/78 84/84/84
f 83/83/83 85/85/85 86/86/86
f 88/88/88 87/87/87 83/83/83
f 90/90/90 85/85/85 89/89/89
f 92/92/92 85/85/85 91/91/91
f 95/95/95 94/94/94 93/93/93
f 96/96/96 95/95/95 93/93/93
f 99/99/99 98/98/98 97/97/97
f 100/100/100 99/99/99 97/97/97
f 103/103/103 102/102/102 101/101/101
f 104/104/104 103/103/103 101/101/101
f 107/107/107 106/106/106 105/105/105
f 107/107/107 105/105/105 108/108/108
f 111/111/111 110/110/110 109/109/109
f 111/111/111 109/109/109 112/112/112
f 115/115/115 114/114/114 113/113/113
f 116/116/116 115/115/115 113/113/113
f 119/119/119 118/118/118 117/117/117
f 120/120/120 119/119/119 117/117/117
f 123/123/123 122/122/122 121/121/121
f 123/123/123 121/121/121 124/124/124
f 127/127/127 126/126/126 125/125/125
f 127/127/127 125/125/125 128/128/128
f 131/131/131 130/130/130 129/129/129
f 131/131/131 129/129/129 132/132/132
f 135/135/135 134/134/134 133/133/133
f 137/137/137 134/134/134 136/136/136
f 139/139/139 138/138/138 133/133/133
f 141/141/141 134/134/134 140/140/140
f 139/139/139 141/141/141 142/142/142
f 144/144/144 143/143/143 139/139/139
f 146/146/146 141/141/141 145/145/145
f 148/148/148 141/141/141 147/147/147
f 151/151/151 150/150/150 149/149/149
f 152/152/152 151/151/151 149/149/149
f 155/155/155 154/154/154 153/153/153
f 156/156/156 155/155/155 153/153/153
f 159/159/159 158/158/158 157/157/157
f 160/160/160 159/159/159 157/157/157
f 163/163/163 162/162/162 161/161/161
f 163/163/163 161/161/161 164/164/164
f 167/167/167 166/166/166 165/165/165
f 167/167/167 165/165/165 168/168/168
f 171/171/171 170/170/170 169/169/169
f 172/172/172 171/171/171 169/169/169
f 175/175/175 174/174/174 173/173/173
f 176/176/176 175/175/175 173/173/173
f 179/179/179 178/178/178 177/177/177
f 179/179/179 177/177/177 180/180/180
f 183/183/183 182/182/182 181/181/181
f 183/183/183 181/181/181 184/184/184
f 187/187/187 186/186/186 185/185/185
f 187/187/187 185/185/185 188/188/188
f 191/191/191 190/190/190 189/189/189
f 193/193/193 190/190/190 192/192/192
f 195/195/195 194/194/194 189/189/189
f 197/197/197 190/190/190 196/196/196
f 195/195/195 197/197/197 198/198/198
f 200/200/200 199/199/199 195/195/195
f 202/202/202 197/197/197 201/201/201
f 204/204/204 197/197/197 203/203/203
f 207/207/207 206/206/206 205/205/205
f 208/208/208 207/207/207 205/205/205
f 211/211/211 210/210/210 209/209/209
f 212/212/212 211/211/211 209/209/209
f 215/215/215 214/214/214 213/213/213
f 216/216/216 215/215/215 213/213/213
f 219/219/219 218/218/218 217/217/217
f 219/219/219 217/217/217 220/220/220
f 223/223/223 222/222/222 221/221/221
f 223/223/223 221/221/221 224/224/224
