mtllib EGA_Highway_Sign_Label_01.mtl
g default
v 0.1399997 2.95 -2.65
v 0.1399997 0.15 -2.65
v 0.05999967 0.15 -2.65
v 0.05999967 2.95 -2.65
v 0.1400003 2.95 2.75
v 0.1400003 0.15 2.75
v 0.06000032 0.15 2.75
v 0.06000032 2.95 2.75
v 0.06000034 3.15 2.95
v 0.06000034 -0.05 2.95
v -0.01999965 -0.05 2.95
v -0.01999965 3.15 2.95
v -0.02000036 -0.05 -3.049999
v 0.05999963 -0.05 -3.049999
v 0.05999963 3.15 -3.049999
v -0.02000036 3.15 -3.049999
v 0.05999965 0.15 -2.85
v 0.1399996 0.15 -2.85
v 0.1399996 2.95 -2.85
v 0.05999965 2.95 -2.85
v 0.0600003 0.15 2.549999
v 0.1400003 0.15 2.549999
v 0.1400003 2.95 2.549999
v 0.0600003 2.95 2.549999
v -0.01999965 -0.05 2.95
v 0.06000034 -0.05 2.95
v 0.05999963 -0.05 -3.049999
v -0.02000036 -0.05 -3.049999
v 0.05999967 0.15 -2.65
v 0.1399997 0.15 -2.65
v 0.1399996 0.15 -2.85
v 0.05999965 0.15 -2.85
v 0.06000032 0.15 2.75
v 0.1400003 0.15 2.75
v 0.1400003 0.15 2.549999
v 0.0600003 0.15 2.549999
v 0.05999963 3.15 -3.049999
v 0.06000034 3.15 2.95
v -0.01999965 3.15 2.95
v -0.02000036 3.15 -3.049999
v 0.1399996 2.95 -2.85
v 0.1399997 2.95 -2.65
v 0.05999967 2.95 -2.65
v 0.05999965 2.95 -2.85
v 0.1400003 2.95 2.549999
v 0.1400003 2.95 2.75
v 0.06000032 2.95 2.75
v 0.0600003 2.95 2.549999
v 0.06000034 -0.05 2.95
v 0.05999967 0.15 -2.65
v 0.05999963 -0.05 -3.049999
v 0.05999967 0.15 -2.65
v 0.05999965 0.15 -2.85
v 0.05999967 0.15 -2.65
v 0.0600003 0.15 2.549999
v 0.05999965 0.15 -2.85
v 0.05999963 3.15 -3.049999
v 0.0600003 0.15 2.549999
v 0.06000032 0.15 2.75
v 0.05999965 0.15 -2.85
v 0.05999965 2.95 -2.85
v 0.06000032 0.15 2.75
v 0.06000034 3.15 2.95
v 0.05999967 2.95 -2.65
v 0.05999967 2.95 -2.65
v 0.05999965 2.95 -2.85
v 0.06000032 0.15 2.75
v 0.06000032 2.95 2.75
v 0.0600003 2.95 2.549999
v 0.05999967 2.95 -2.65
v 0.06000032 2.95 2.75
v 0.0600003 2.95 2.549999
v 0.05999967 0.15 -2.65
v 0.0600003 0.15 2.549999
v 0.0600003 2.95 2.549999
v 0.05999967 2.95 -2.65
v 0.1399996 0.15 -2.85
v 0.1399997 0.15 -2.65
v 0.1399997 2.95 -2.65
v 0.1399996 2.95 -2.85
v 0.1400003 0.15 2.549999
v 0.1400003 0.15 2.75
v 0.1400003 2.95 2.75
v 0.1400003 2.95 2.549999
v -0.01999965 3.15 2.95
v -0.01999965 -0.05 2.95
v -0.02000036 -0.05 -3.049999
v -0.02000036 3.15 -3.049999
v -0.01999965 3.15 2.95
v -0.02000036 -0.05 -3.049999
vn 1.192093E-07 0 0.9999999
vn 1.192093E-07 0 0.9999999
vn 1.192093E-07 0 0.9999999
vn 1.192093E-07 0 0.9999999
vn 1.192093E-07 0 0.9999999
vn 1.192093E-07 0 0.9999999
vn 1.192093E-07 0 0.9999999
vn 1.192093E-07 0 0.9999999
vn 1.192093E-07 0 0.9999999
vn 1.192093E-07 0 0.9999999
vn 1.192093E-07 0 0.9999999
vn 1.192093E-07 0 0.9999999
vn -1.192093E-07 0 -0.9999999
vn -1.192093E-07 0 -0.9999999
vn -1.192093E-07 0 -0.9999999
vn -1.192093E-07 0 -0.9999999
vn -1.192093E-07 0 -0.9999999
vn -1.192093E-07 0 -0.9999999
vn -1.192093E-07 0 -0.9999999
vn -1.192093E-07 0 -0.9999999
vn -1.192093E-07 0 -0.9999999
vn -1.192093E-07 0 -0.9999999
vn -1.192093E-07 0 -0.9999999
vn -1.192093E-07 0 -0.9999999
vn 0 -1 0
vn 0 -1 0
vn 0 -1 0
vn 0 -1 0
vn 0 -1 0
vn 0 -1 0
vn 0 -1 0
vn 0 -1 0
vn 0 -1 0
vn 0 -1 0
vn 0 -1 0
vn 0 -1 0
vn 0 1 0
vn 0 1 0
vn 0 1 0
vn 0 1 0
vn 0 1 0
vn 0 1 0
vn 0 1 0
vn 0 1 0
vn 0 1 0
vn 0 1 0
vn 0 1 0
vn 0 1 0
vn 0.9999999 0 -1.192093E-07
vn 0.9999999 0 -1.192093E-07
vn 0.9999999 0 -1.192093E-07
vn 0.9999999 0 -1.192093E-07
vn 0.9999999 0 -1.192093E-07
vn 0.9999999 0 -1.192093E-07
vn 0.9999999 0 -1.192093E-07
vn 0.9999999 0 -1.192093E-07
vn 0.9999999 0 -1.192093E-07
vn 0.9999999 0 -1.192093E-07
vn 0.9999999 0 -1.192093E-07
vn 0.9999999 0 -1.192093E-07
vn 0.9999999 0 -1.192093E-07
vn 0.9999999 0 -1.192093E-07
vn 0.9999999 0 -1.192093E-07
vn 0.9999999 0 -1.192093E-07
vn 0.9999999 0 -1.192093E-07
vn 0.9999999 0 -1.192093E-07
vn 0.9999999 0 -1.192093E-07
vn 0.9999999 0 -1.192093E-07
vn 0.9999999 0 -1.192093E-07
vn 0.9999999 0 -1.192093E-07
vn 0.9999999 0 -1.192093E-07
vn 0.9999999 0 -1.192093E-07
vn 0.9999999 0 -1.192093E-07
vn 0.9999999 0 -1.192093E-07
vn 0.9999999 0 -1.192093E-07
vn 0.9999999 0 -1.192093E-07
vn 0.9999999 0 -1.192093E-07
vn 0.9999999 0 -1.192093E-07
vn 0.9999999 0 -1.192093E-07
vn 0.9999999 0 -1.192093E-07
vn 0.9999999 0 -1.192093E-07
vn 0.9999999 0 -1.192093E-07
vn 0.9999999 0 -1.192093E-07
vn 0.9999999 0 -1.192093E-07
vn -0.9999999 0 1.192093E-07
vn -0.9999999 0 1.192093E-07
vn -0.9999999 0 1.192093E-07
vn -0.9999999 0 1.192093E-07
vn -0.9999999 0 1.192093E-07
vn -0.9999999 0 1.192093E-07
vt 0.6669024 0.7500884
vt 0.8332155 0.7500884
vt 0.8332155 0.8748232
vt 0.6667845 0.8749116
vt 0.6669024 0.7500884
vt 0.8332155 0.7500884
vt 0.8332155 0.8748232
vt 0.6667845 0.8749116
vt 0.3331484 0.749896
vt 0.1667591 0.749896
vt 0.1667591 0.500208
vt 0.3332409 0.500104
vt 0.1667591 0.500208
vt 0.1667591 0.749896
vt 0.3331484 0.749896
vt 0.3332409 0.500104
vt 0.8332155 0.8748232
vt 0.8332155 0.7500884
vt 0.6669024 0.7500884
vt 0.6667845 0.8749116
vt 0.8332155 0.8748232
vt 0.8332155 0.7500884
vt 0.6669024 0.7500884
vt 0.6667845 0.8749116
vt 0.1667591 0.500208
vt 0.1667591 0.749896
vt 0.3331484 0.749896
vt 0.3332409 0.500104
vt 0.8332155 0.8748232
vt 0.8332155 0.7500884
vt 0.6669024 0.7500884
vt 0.6667845 0.8749116
vt 0.8332155 0.8748232
vt 0.8332155 0.7500884
vt 0.6669024 0.7500884
vt 0.6667845 0.8749116
vt 0.3331484 0.749896
vt 0.1667591 0.749896
vt 0.1667591 0.500208
vt 0.3332409 0.500104
vt 0.6669024 0.7500884
vt 0.8332155 0.7500884
vt 0.8332155 0.8748232
vt 0.6667845 0.8749116
vt 0.6669024 0.7500884
vt 0.8332155 0.7500884
vt 0.8332155 0.8748232
vt 0.6667845 0.8749116
vt 0.333113 0.7500855
vt 0.1778766 0.874829
vt 0.1667883 0.7500855
vt 0.3330833 0.874875
vt 0.25 0.874875
vt 0.1669107 0.8749051
vt 0.3213201 0.8749051
vt 0.3331049 0.7578875
vt 0.1667809 0.874834
vt 0.1669167 0.874875
vt 0.25 0.874875
vt 0.3332074 0.7501826
vt 0.3332074 0.8665848
vt 0.1668951 0.7578875
vt 0.3332191 0.874834
vt 0.1778766 0.750171
vt 0.3330833 0.750125
vt 0.25 0.750125
vt 0.1667926 0.7501826
vt 0.1667926 0.8665848
vt 0.3213201 0.7500949
vt 0.1669107 0.7500949
vt 0.25 0.750125
vt 0.1669167 0.750125
vt 0.1669024 0.7500884
vt 0.3332155 0.7500884
vt 0.3332155 0.8748232
vt 0.1667845 0.8749116
vt 0.6669024 0.7500884
vt 0.8332155 0.7500884
vt 0.8332155 0.8748232
vt 0.6667845 0.8749116
vt 0.6669024 0.7500884
vt 0.8332155 0.7500884
vt 0.8332155 0.8748232
vt 0.6667845 0.8749116
vt 0.3360305 0.379006
vt 0.3360305 0.2459137
vt 0.166922 0.2459137
vt 0.3360305 0.3790863
vt 0.166922 0.3790863
vt 0.3360305 0.245994
usemtl EGA_Highway_Sign_Label_01_texture0
f 3/3/3 2/2/2 1/1/1
f 4/4/4 3/3/3 1/1/1
f 7/7/7 6/6/6 5/5/5
f 8/8/8 7/7/7 5/5/5
f 11/11/11 10/10/10 9/9/9
f 12/12/12 11/11/11 9/9/9
f 15/15/15 14/14/14 13/13/13
f 15/15/15 13/13/13 16/16/16
f 19/19/19 18/18/18 17/17/17
f 19/19/19 17/17/17 20/20/20
f 23/23/23 22/22/22 21/21/21
f 23/23/23 21/21/21 24/24/24
f 27/27/27 26/26/26 25/25/25
f 27/27/27 25/25/25 28/28/28
f 31/31/31 30/30/30 29/29/29
f 31/31/31 29/29/29 32/32/32
f 35/35/35 34/34/34 33/33/33
f 35/35/35 33/33/33 36/36/36
f 39/39/39 38/38/38 37/37/37
f 40/40/40 39/39/39 37/37/37
f 43/43/43 42/42/42 41/41/41
f 44/44/44 43/43/43 41/41/41
f 47/47/47 46/46/46 45/45/45
f 48/48/48 47/47/47 45/45/45
f 51/51/51 50/50/50 49/49/49
f 53/53/53 52/52/52 51/51/51
f 55/55/55 49/49/49 54/54/54
f 57/57/57 56/56/56 51/51/51
f 59/59/59 49/49/49 58/58/58
f 61/61/61 60/60/60 57/57/57
f 63/63/63 49/49/49 62/62/62
f 64/64/64 57/57/57 63/63/63
f 66/66/66 57/57/57 65/65/65
f 68/68/68 63/63/63 67/67/67
f 70/70/70 63/63/63 69/69/69
f 72/72/72 63/63/63 71/71/71
f 75/75/75 74/74/74 73/73/73
f 76/76/76 75/75/75 73/73/73
f 79/79/79 78/78/78 77/77/77
f 80/80/80 79/79/79 77/77/77
f 83/83/83 82/82/82 81/81/81
f 84/84/84 83/83/83 81/81/81
f 87/87/87 86/86/86 85/85/85
f 90/90/90 89/89/89 88/88/88
