mtllib EGA_Highway_30.mtl
g default
v -1.1 7.5 0.9
v -1.1 1.5 0.9
v -1.1 1.5 -0.7
v -1.1 7.5 -0.7
v -1.5 1.5 1.3
v -1.5 -0.1 1.3
v -1.5 -0.1 -1.1
v -1.5 1.5 -1.1
v 1.7 -0.1 -1.1
v 1.7 -0.1 1.3
v 1.7 1.5 1.3
v 1.7 1.5 -1.1
v 1.3 1.5 -0.7
v 1.3 1.5 0.9
v 1.3 7.5 0.9
v 1.3 7.5 -0.7
v -1.5 -0.1 -1.1
v -1.5 -0.1 1.3
v 1.7 -0.1 1.3
v 1.7 -0.1 -1.1
v 1.7 1.5 1.3
v -1.5 1.5 1.3
v 1.3 1.5 0.9
v 1.3 1.5 0.9
v -1.1 1.5 0.9
v 1.3 1.5 0.9
v 1.7 1.5 -1.1
v -1.1 1.5 0.9
v -1.5 1.5 -1.1
v 1.3 1.5 -0.7
v 1.3 1.5 0.9
v 1.3 1.5 -0.7
v -1.1 1.5 0.9
v -1.1 1.5 -0.7
v -1.1 1.5 -0.7
v 1.3 1.5 -0.7
v 1.3 7.5 0.9
v -1.1 7.5 0.9
v -1.1 7.5 -0.7
v 1.3 7.5 -0.7
v 1.3 1.5 0.9
v -1.1 1.5 0.9
v -1.1 7.5 0.9
v 1.3 7.5 0.9
v 1.7 -0.1 1.3
v -1.5 -0.1 1.3
v -1.5 1.5 1.3
v 1.7 1.5 1.3
v -1.5 1.5 -1.1
v -1.5 -0.1 -1.1
v 1.7 -0.1 -1.1
v 1.7 1.5 -1.1
v -1.1 7.5 -0.7
v -1.1 1.5 -0.7
v 1.3 1.5 -0.7
v 1.3 7.5 -0.7
vn -1 0 0
vn -1 0 0
vn -1 0 0
vn -1 0 0
vn -1 0 0
vn -1 0 0
vn -1 0 0
vn -1 0 0
vn 1 0 0
vn 1 0 0
vn 1 0 0
vn 1 0 0
vn 1 0 0
vn 1 0 0
vn 1 0 0
vn 1 0 0
vn 0 -1 0
vn 0 -1 0
vn 0 -1 0
vn 0 -1 0
vn 0 1 0
vn 0 1 0
vn 0 1 0
vn 0 1 0
vn 0 1 0
vn 0 1 0
vn 0 1 0
vn 0 1 0
vn 0 1 0
vn 0 1 0
vn 0 1 0
vn 0 1 0
vn 0 1 0
vn 0 1 0
vn 0 1 0
vn 0 1 0
vn 0 1 0
vn 0 1 0
vn 0 1 0
vn 0 1 0
vn 0 0 1
vn 0 0 1
vn 0 0 1
vn 0 0 1
vn 0 0 1
vn 0 0 1
vn 0 0 1
vn 0 0 1
vn 0 0 -1
vn 0 0 -1
vn 0 0 -1
vn 0 0 -1
vn 0 0 -1
vn 0 0 -1
vn 0 0 -1
vn 0 0 -1
vt 0.1669024 0.333569
vt 0.3332155 0.333569
vt 0.3332155 0.6661953
vt 0.1667845 0.666431
vt 0.6669024 0.333569
vt 0.8332155 0.333569
vt 0.8332155 0.6661953
vt 0.6667845 0.666431
vt 0.8332155 0.6661953
vt 0.8332155 0.333569
vt 0.6669024 0.333569
vt 0.6667845 0.666431
vt 0.3332155 0.6661953
vt 0.3332155 0.333569
vt 0.1669024 0.333569
vt 0.1667845 0.666431
vt 0.8332155 0.6661953
vt 0.8332155 0.333569
vt 0.6669024 0.333569
vt 0.6667845 0.666431
vt 0.6667913 0.3335548
vt 0.8331257 0.3335548
vt 0.687583 0.6662238
vt 0.6669185 0.6663954
vt 0.809427 0.6663954
vt 0.8331164 0.3890335
vt 0.6667751 0.6662689
vt 0.6668836 0.3890335
vt 0.8332249 0.6662689
vt 0.687583 0.3337762
vt 0.8331904 0.3338478
vt 0.8331904 0.5998285
vt 0.6668096 0.3338478
vt 0.6668096 0.5998285
vt 0.809427 0.3336046
vt 0.6669185 0.3336046
vt 0.1669024 0.333569
vt 0.3332155 0.333569
vt 0.3332155 0.6661953
vt 0.1667845 0.666431
vt 0.1669024 0.333569
vt 0.3332155 0.333569
vt 0.3332155 0.6661953
vt 0.1667845 0.666431
vt 0.6669024 0.333569
vt 0.8332155 0.333569
vt 0.8332155 0.6661953
vt 0.6667845 0.666431
vt 0.8332155 0.6661953
vt 0.8332155 0.333569
vt 0.6669024 0.333569
vt 0.6667845 0.666431
vt 0.3332155 0.6661953
vt 0.3332155 0.333569
vt 0.1669024 0.333569
vt 0.1667845 0.666431
usemtl EGA_Highway_30-defaultMat
f 3/3/3 2/2/2 1/1/1
f 4/4/4 3/3/3 1/1/1
f 7/7/7 6/6/6 5/5/5
f 8/8/8 7/7/7 5/5/5
f 11/11/11 10/10/10 9/9/9
f 11/11/11 9/9/9 12/12/12
f 15/15/15 14/14/14 13/13/13
f 15/15/15 13/13/13 16/16/16
f 19/19/19 18/18/18 17/17/17
f 19/19/19 17/17/17 20/20/20
f 23/23/23 22/22/22 21/21/21
f 25/25/25 22/22/22 24/24/24
f 27/27/27 26/26/26 21/21/21
f 29/29/29 22/22/22 28/28/28
f 27/27/27 29/29/29 30/30/30
f 32/32/32 31/31/31 27/27/27
f 34/34/34 29/29/29 33/33/33
f 36/36/36 29/29/29 35/35/35
f 39/39/39 38/38/38 37/37/37
f 40/40/40 39/39/39 37/37/37
f 43/43/43 42/42/42 41/41/41
f 44/44/44 43/43/43 41/41/41
f 47/47/47 46/46/46 45/45/45
f 48/48/48 47/47/47 45/45/45
f 51/51/51 50/50/50 49/49/49
f 51/51/51 49/49/49 52/52/52
f 55/55/55 54/54/54 53/53/53
f 55/55/55 53/53/53 56/56/56
