mtllib EGA_Highway_11.mtl
g default
v -8.1 0.3 8.5
v -8.1 -0.1 8.5
v -8.1 -0.1 -8.1
v -8.1 0.3 -8.1
v 4.1 0.3 -7.3
v 4.1 0.3 -8.1
v 4.1 0.1 -7.3
v 4.1 0.1 -7.3
v 4.1 -0.1 -8.1
v 4.1 -0.1 -7.3
v 4.1 0.1 -7.3
v 10.1 -0.1 -7.3
v 10.1 -0.1 8.5
v 10.1 0.1 8.5
v 10.1 0.1 -7.3
v -6.1 0.1 -7.3
v -6.1 0.1 8.5
v -6.1 0.3 8.5
v -6.1 0.3 -7.3
v 4.1 -0.1 -7.3
v -8.1 -0.1 8.5
v 10.1 -0.1 8.5
v -8.1 -0.1 -8.1
v -8.1 -0.1 8.5
v 4.1 -0.1 -7.3
v 10.1 -0.1 -7.3
v 4.1 -0.1 -7.3
v 10.1 -0.1 8.5
v 4.1 -0.1 -8.1
v -8.1 -0.1 -8.1
v 4.1 -0.1 -7.3
v 10.1 0.1 8.5
v -6.1 0.1 8.5
v 4.1 0.1 -7.3
v 4.1 0.1 -7.3
v -6.1 0.1 8.5
v -6.1 0.1 -7.3
v 10.1 0.1 8.5
v 4.1 0.1 -7.3
v 10.1 0.1 -7.3
v -6.1 0.3 -7.3
v 4.1 0.3 -8.1
v 4.1 0.3 -7.3
v -8.1 0.3 -8.1
v 4.1 0.3 -8.1
v -6.1 0.3 -7.3
v -8.1 0.3 8.5
v -8.1 0.3 -8.1
v -6.1 0.3 -7.3
v -6.1 0.3 8.5
v 10.1 -0.1 8.5
v -8.1 -0.1 8.5
v -6.1 0.1 8.5
v -6.1 0.1 8.5
v -8.1 -0.1 8.5
v -8.1 0.3 8.5
v -6.1 0.1 8.5
v -6.1 0.3 8.5
v 10.1 -0.1 8.5
v -6.1 0.1 8.5
v 10.1 0.1 8.5
v 4.1 0.1 -7.3
v -6.1 0.1 -7.3
v -6.1 0.3 -7.3
v 4.1 0.3 -7.3
v -8.1 0.3 -8.1
v -8.1 -0.1 -8.1
v 4.1 -0.1 -8.1
v 4.1 0.3 -8.1
v 4.1 0.1 -7.3
v 4.1 -0.1 -7.3
v 10.1 -0.1 -7.3
v 10.1 0.1 -7.3
vn -1 0 0
vn -1 0 0
vn -1 0 0
vn -1 0 0
vn 1 0 0
vn 1 0 0
vn 1 0 0
vn 1 0 0
vn 1 0 0
vn 1 0 0
vn 1 0 0
vn 1 0 0
vn 1 0 0
vn 1 0 0
vn 1 0 0
vn 1 0 0
vn 1 0 0
vn 1 0 0
vn 1 0 0
vn 0 -1 0
vn 0 -1 0
vn 0 -1 0
vn 0 -1 0
vn 0 -1 0
vn 0 -1 0
vn 0 -1 0
vn 0 -1 0
vn 0 -1 0
vn 0 -1 0
vn 0 -1 0
vn 0 -1 0
vn 0 1 0
vn 0 1 0
vn 0 1 0
vn 0 1 0
vn 0 1 0
vn 0 1 0
vn 0 1 0
vn 0 1 0
vn 0 1 0
vn 0 1 0
vn 0 1 0
vn 0 1 0
vn 0 1 0
vn 0 1 0
vn 0 1 0
vn 0 1 0
vn 0 1 0
vn 0 1 0
vn 0 1 0
vn 0 0 1
vn 0 0 1
vn 0 0 1
vn 0 0 1
vn 0 0 1
vn 0 0 1
vn 0 0 1
vn 0 0 1
vn 0 0 1
vn 0 0 1
vn 0 0 1
vn 0 0 1
vn 0 0 1
vn 0 0 1
vn 0 0 1
vn 0 0 -1
vn 0 0 -1
vn 0 0 -1
vn 0 0 -1
vn 0 0 -1
vn 0 0 -1
vn 0 0 -1
vn 0 0 -1
vt 0.969238 0.9772807
vt 0.9743553 0.9772807
vt 0.9743553 0.9886203
vt 0.9692344 0.9886283
vt 0.758978 0.9545535
vt 0.758978 0.965893
vt 0.7640953 0.9545535
vt 0.7615384 0.9545581
vt 0.7640983 0.9659028
vt 0.7640989 0.9545535
vt 0.7589816 0.9545535
vt 0.7025605 0.04547062
vt 0.7025605 0.05681015
vt 0.6974431 0.05681015
vt 0.6974396 0.04546258
vt 0.7640989 0.965893
vt 0.7640989 0.9545535
vt 0.7589816 0.9545535
vt 0.758978 0.9659011
vt 0.1589754 0.9772591
vt 0.4717897 0.07955227
vt 0.005132308 0.07955227
vt 0.9948683 0.9886281
vt 0.9948683 0.04546992
vt 0.6820583 0.9431747
vt 0.6974394 0.01137183
vt 0.851275 0.01137183
vt 0.6974394 0.9090745
vt 0.9589776 0.9886276
vt 0.9646555 0.9886276
vt 0.9589776 0.9772902
vt 0.4205087 0.9431751
vt 0.005133132 0.9431751
vt 0.2666659 0.04546794
vt 0.4102636 0.9886283
vt 0.6717913 0.09092527
vt 0.6717913 0.9886283
vt 0.6974394 0.9090745
vt 0.851275 0.01137183
vt 0.6974394 0.01137183
vt 0.7640953 0.9545535
vt 0.758978 0.965893
vt 0.758978 0.9545535
vt 0.9646584 0.9886282
vt 0.95898 0.9886282
vt 0.9637275 0.9772891
vt 0.9692268 0.9772863
vt 0.9692268 0.988629
vt 0.9606916 0.9880824
vt 0.9606878 0.9772798
vt 0.8769137 0.6363674
vt 0.4102619 0.6363674
vt 0.4615423 0.6477198
vt 0.9606903 0.9829546
vt 0.9692275 0.9772815
vt 0.9692275 0.9886276
vt 0.9606878 0.9772869
vt 0.9606878 0.9886293
vt 0.3640992 0.02273803
vt 0.358976 0.9431603
vt 0.358976 0.02273803
vt 0.7589816 0.9545535
vt 0.7640989 0.9545535
vt 0.7640989 0.965893
vt 0.758978 0.9659011
vt 0.9646587 0.9886189
vt 0.9646587 0.9772815
vt 0.9589809 0.9772815
vt 0.9589776 0.9886276
vt 0.7025605 0.04547062
vt 0.7025605 0.05681015
vt 0.6974431 0.05681015
vt 0.6974396 0.04546258
usemtl EGA_Highway_11-defaultMat
f 3/3/3 2/2/2 1/1/1
f 4/4/4 3/3/3 1/1/1
f 7/7/7 6/6/6 5/5/5
f 9/9/9 6/6/6 8/8/8
f 11/11/11 10/10/10 9/9/9
f 14/14/14 13/13/13 12/12/12
f 14/14/14 12/12/12 15/15/15
f 18/18/18 17/17/17 16/16/16
f 18/18/18 16/16/16 19/19/19
f 22/22/22 21/21/21 20/20/20
f 25/25/25 24/24/24 23/23/23
f 28/28/28 27/27/27 26/26/26
f 31/31/31 30/30/30 29/29/29
f 34/34/34 33/33/33 32/32/32
f 37/37/37 36/36/36 35/35/35
f 40/40/40 39/39/39 38/38/38
f 43/43/43 42/42/42 41/41/41
f 46/46/46 45/45/45 44/44/44
f 49/49/49 48/48/48 47/47/47
f 50/50/50 49/49/49 47/47/47
f 53/53/53 52/52/52 51/51/51
f 56/56/56 55/55/55 54/54/54
f 58/58/58 56/56/56 57/57/57
f 61/61/61 60/60/60 59/59/59
f 64/64/64 63/63/63 62/62/62
f 65/65/65 64/64/64 62/62/62
f 68/68/68 67/67/67 66/66/66
f 68/68/68 66/66/66 69/69/69
f 72/72/72 71/71/71 70/70/70
f 72/72/72 70/70/70 73/73/73
