mtllib EGA_Road_43.mtl
g default
v 7.899999 0.1 1.899999
v 7.899999 -0.1 1.899999
v -7.899999 -0.1 1.900001
v -7.899999 0.1 1.900001
v -7.899999 -0.1 -2.099999
v 7.899998 -0.1 -2.100001
v 7.899998 0.1 -2.100001
v -7.899999 0.1 -2.099999
v -7.899999 -0.1 1.900001
v 7.899999 -0.1 1.899999
v 7.899998 -0.1 -2.100001
v -7.899999 -0.1 -2.099999
v -7.899999 -0.1 1.900001
v 7.899998 -0.1 -2.100001
v 7.899998 0.1 -2.100001
v 7.899999 0.1 1.899999
v -7.899999 0.1 1.900001
v 7.899998 0.1 -2.100001
v -7.899999 0.1 1.900001
v -7.899999 0.1 -2.099999
v 7.899998 -0.1 -2.100001
v 7.899999 -0.1 1.899999
v 7.899999 0.1 1.899999
v 7.899998 0.1 -2.100001
v -7.899999 0.1 1.900001
v -7.899999 -0.1 1.900001
v -7.899999 -0.1 -2.099999
v -7.899999 0.1 -2.099999
vn 1.192093E-07 0 0.9999999
vn 1.192093E-07 0 0.9999999
vn 1.192093E-07 0 0.9999999
vn 1.192093E-07 0 0.9999999
vn -1.192093E-07 0 -0.9999999
vn -1.192093E-07 0 -0.9999999
vn -1.192093E-07 0 -0.9999999
vn -1.192093E-07 0 -0.9999999
vn 0 -1 0
vn 0 -1 0
vn 0 -1 0
vn 0 -1 0
vn 0 -1 0
vn 0 -1 0
vn 0 1 0
vn 0 1 0
vn 0 1 0
vn 0 1 0
vn 0 1 0
vn 0 1 0
vn 0.9999999 0 -1.192093E-07
vn 0.9999999 0 -1.192093E-07
vn 0.9999999 0 -1.192093E-07
vn 0.9999999 0 -1.192093E-07
vn -0.9999999 0 1.192093E-07
vn -0.9999999 0 1.192093E-07
vn -0.9999999 0 1.192093E-07
vn -0.9999999 0 1.192093E-07
vt 0.06670979 0.01235736
vt 0.1333118 0.01235736
vt 0.1333118 0.987631
vt 0.06668822 0.9876426
vt 0.7333118 0.987631
vt 0.7333118 0.01235736
vt 0.6667098 0.01235736
vt 0.6666882 0.9876426
vt 0.4740504 0.9876313
vt 0.4740504 0.01235722
vt 0.3259733 0.01235722
vt 0.7259496 0.9876428
vt 0.8740267 0.9876428
vt 0.7259496 0.01236876
vt 0.3259733 0.01235722
vt 0.4740504 0.01235722
vt 0.4740504 0.9876313
vt 0.7259496 0.01236876
vt 0.8740267 0.9876428
vt 0.7259496 0.9876428
vt 0.06676095 0.4691445
vt 0.1332862 0.4691445
vt 0.1332862 0.481464
vt 0.06671381 0.4814728
vt 0.1332862 0.481464
vt 0.1332862 0.4691445
vt 0.06676095 0.4691445
vt 0.06671381 0.4814728
usemtl EGA_Road_43_texture0
f 3/3/3 2/2/2 1/1/1
f 4/4/4 3/3/3 1/1/1
f 7/7/7 6/6/6 5/5/5
f 7/7/7 5/5/5 8/8/8
f 11/11/11 10/10/10 9/9/9
f 14/14/14 13/13/13 12/12/12
f 17/17/17 16/16/16 15/15/15
f 20/20/20 19/19/19 18/18/18
f 23/23/23 22/22/22 21/21/21
f 24/24/24 23/23/23 21/21/21
f 27/27/27 26/26/26 25/25/25
f 27/27/27 25/25/25 28/28/28
