mtllib EGA_Road_79.mtl
g default
v -2.9 0.1 7.9
v -2.9 -0.1 7.9
v -2.9 -0.1 -7.9
v -2.9 0.1 -7.9
v 3.1 -0.1 -7.9
v 3.1 -0.1 7.9
v 3.1 0.1 7.9
v 3.1 0.1 -7.9
v -2.9 -0.1 -7.9
v -2.9 -0.1 7.9
v 3.1 -0.1 7.9
v 3.1 -0.1 -7.9
v -2.9 -0.1 -7.9
v 3.1 -0.1 7.9
v 3.1 0.1 7.9
v -2.9 0.1 7.9
v -2.9 0.1 -7.9
v 3.1 0.1 7.9
v -2.9 0.1 -7.9
v 3.1 0.1 -7.9
v 3.1 -0.1 7.9
v -2.9 -0.1 7.9
v -2.9 0.1 7.9
v 3.1 0.1 7.9
v -2.9 0.1 -7.9
v -2.9 -0.1 -7.9
v 3.1 -0.1 -7.9
v 3.1 0.1 -7.9
vn -1 0 0
vn -1 0 0
vn -1 0 0
vn -1 0 0
vn 1 0 0
vn 1 0 0
vn 1 0 0
vn 1 0 0
vn 0 -1 0
vn 0 -1 0
vn 0 -1 0
vn 0 -1 0
vn 0 -1 0
vn 0 -1 0
vn 0 1 0
vn 0 1 0
vn 0 1 0
vn 0 1 0
vn 0 1 0
vn 0 1 0
vn 0 0 1
vn 0 0 1
vn 0 0 1
vn 0 0 1
vn 0 0 -1
vn 0 0 -1
vn 0 0 -1
vn 0 0 -1
vt 0.6875202 0.01235736
vt 0.7187399 0.01235736
vt 0.7187399 0.987631
vt 0.6875101 0.9876426
vt 0.7187279 0.9505998
vt 0.7187279 0.9382803
vt 0.6875442 0.9382803
vt 0.6875221 0.9506086
vt 0.843742 0.9876304
vt 0.843742 0.01235761
vt 0.8114384 0.01235761
vt 0.9687284 0.9876454
vt 0.03129331 0.9876454
vt 0.9687284 0.01236348
vt 0.8114384 0.01235761
vt 0.843742 0.01235761
vt 0.843742 0.9876304
vt 0.9687284 0.01236348
vt 0.03129331 0.9876454
vt 0.9687284 0.9876454
vt 0.6875442 0.9382803
vt 0.7187279 0.9382803
vt 0.7187279 0.9505998
vt 0.6875221 0.9506086
vt 0.7187279 0.9505998
vt 0.7187279 0.9382803
vt 0.6875442 0.9382803
vt 0.6875221 0.9506086
usemtl EGA_Road_79-defaultMat
f 3/3/3 2/2/2 1/1/1
f 4/4/4 3/3/3 1/1/1
f 7/7/7 6/6/6 5/5/5
f 7/7/7 5/5/5 8/8/8
f 11/11/11 10/10/10 9/9/9
f 14/14/14 13/13/13 12/12/12
f 17/17/17 16/16/16 15/15/15
f 20/20/20 19/19/19 18/18/18
f 23/23/23 22/22/22 21/21/21
f 24/24/24 23/23/23 21/21/21
f 27/27/27 26/26/26 25/25/25
f 27/27/27 25/25/25 28/28/28
