mtllib EGA_Road_68.mtl
g default
v 7.9 0.1 7.899998
v 7.9 -0.1 7.899998
v -7.899998 -0.1 7.9
v -7.899998 0.1 7.9
v -7.9 -0.1 -8.099998
v 7.899998 -0.1 -8.099999
v 7.899998 0.1 -8.099999
v -7.9 0.1 -8.099998
v -7.899998 -0.1 7.9
v 7.9 -0.1 7.899998
v 7.899998 -0.1 -8.099999
v -7.9 -0.1 -8.099998
v -7.899998 -0.1 7.9
v 7.899998 -0.1 -8.099999
v 7.899998 0.1 -8.099999
v 7.9 0.1 7.899998
v -7.899998 0.1 7.9
v 7.899998 0.1 -8.099999
v -7.899998 0.1 7.9
v -7.9 0.1 -8.099998
v 7.899998 -0.1 -8.099999
v 7.9 -0.1 7.899998
v 7.9 0.1 7.899998
v 7.899998 0.1 -8.099999
v -7.899998 0.1 7.9
v -7.899998 -0.1 7.9
v -7.9 -0.1 -8.099998
v -7.9 0.1 -8.099998
vn 1.192093E-07 0 0.9999999
vn 1.192093E-07 0 0.9999999
vn 1.192093E-07 0 0.9999999
vn 1.192093E-07 0 0.9999999
vn -1.192093E-07 0 -0.9999999
vn -1.192093E-07 0 -0.9999999
vn -1.192093E-07 0 -0.9999999
vn -1.192093E-07 0 -0.9999999
vn 0 -1 0
vn 0 -1 0
vn 0 -1 0
vn 0 -1 0
vn 0 -1 0
vn 0 -1 0
vn 0 1 0
vn 0 1 0
vn 0 1 0
vn 0 1 0
vn 0 1 0
vn 0 1 0
vn 0.9999999 0 -1.192093E-07
vn 0.9999999 0 -1.192093E-07
vn 0.9999999 0 -1.192093E-07
vn 0.9999999 0 -1.192093E-07
vn -0.9999999 0 1.192093E-07
vn -0.9999999 0 1.192093E-07
vn -0.9999999 0 1.192093E-07
vn -0.9999999 0 1.192093E-07
vt 0.03848642 0.01235736
vt 0.07691064 0.01235736
vt 0.07691064 0.987631
vt 0.03847398 0.9876426
vt 0.1922953 0.987631
vt 0.1922953 0.01235736
vt 0.153871 0.01235736
vt 0.1538586 0.9876426
vt 0.5768987 0.9876353
vt 0.5768987 0.01235522
vt 0.2692795 0.01235522
vt 0.6538705 0.9876448
vt 0.9614897 0.9876448
vt 0.6538705 0.01236477
vt 0.2692795 0.01235522
vt 0.5768987 0.01235522
vt 0.5768987 0.9876353
vt 0.6538705 0.01236477
vt 0.9614897 0.9876448
vt 0.6538705 0.9876448
vt 0.03851593 0.9382803
vt 0.07689588 0.9382803
vt 0.07689588 0.9505998
vt 0.03848873 0.9506086
vt 0.07689588 0.9505998
vt 0.07689588 0.9382803
vt 0.03851593 0.9382803
vt 0.03848873 0.9506086
usemtl EGA_Road_68_texture0
f 3/3/3 2/2/2 1/1/1
f 4/4/4 3/3/3 1/1/1
f 7/7/7 6/6/6 5/5/5
f 7/7/7 5/5/5 8/8/8
f 11/11/11 10/10/10 9/9/9
f 14/14/14 13/13/13 12/12/12
f 17/17/17 16/16/16 15/15/15
f 20/20/20 19/19/19 18/18/18
f 23/23/23 22/22/22 21/21/21
f 24/24/24 23/23/23 21/21/21
f 27/27/27 26/26/26 25/25/25
f 27/27/27 25/25/25 28/28/28
