mtllib EGA_Road_65.mtl
g default
v -7.899998 0.1 -7.9
v -7.899998 -0.1 -7.9
v 7.9 -0.1 -7.899998
v 7.9 0.1 -7.899998
v 7.899998 -0.1 7.9
v -7.9 -0.1 7.899998
v -7.9 0.1 7.899998
v 7.899998 0.1 7.9
v 7.9 -0.1 -7.899998
v -7.899998 -0.1 -7.9
v -7.9 -0.1 7.899998
v 7.899998 -0.1 7.9
v 7.9 -0.1 -7.899998
v -7.9 -0.1 7.899998
v -7.9 0.1 7.899998
v -7.899998 0.1 -7.9
v 7.9 0.1 -7.899998
v -7.9 0.1 7.899998
v 7.9 0.1 -7.899998
v 7.899998 0.1 7.9
v -7.9 -0.1 7.899998
v -7.899998 -0.1 -7.9
v -7.899998 0.1 -7.9
v -7.9 0.1 7.899998
v 7.9 0.1 -7.899998
v 7.9 -0.1 -7.899998
v 7.899998 -0.1 7.9
v 7.899998 0.1 7.9
vn 1.192093E-07 0 -0.9999999
vn 1.192093E-07 0 -0.9999999
vn 1.192093E-07 0 -0.9999999
vn 1.192093E-07 0 -0.9999999
vn -1.192093E-07 0 0.9999999
vn -1.192093E-07 0 0.9999999
vn -1.192093E-07 0 0.9999999
vn -1.192093E-07 0 0.9999999
vn 0 -1 0
vn 0 -1 0
vn 0 -1 0
vn 0 -1 0
vn 0 -1 0
vn 0 -1 0
vn 0 1 0
vn 0 1 0
vn 0 1 0
vn 0 1 0
vn 0 1 0
vn 0 1 0
vn -0.9999999 0 -1.192093E-07
vn -0.9999999 0 -1.192093E-07
vn -0.9999999 0 -1.192093E-07
vn -0.9999999 0 -1.192093E-07
vn 0.9999999 0 1.192093E-07
vn 0.9999999 0 1.192093E-07
vn 0.9999999 0 1.192093E-07
vn 0.9999999 0 1.192093E-07
vt 0.9756176 0.01235736
vt 0.987801 0.01235736
vt 0.987801 0.987631
vt 0.9756137 0.9876426
vt 0.9877962 0.9505998
vt 0.9877962 0.9382803
vt 0.975627 0.9382803
vt 0.9756184 0.9506086
vt 0.9756011 0.9876369
vt 0.9756011 0.01235441
vt 0.01221237 0.01235441
vt 0.9756137 0.9876426
vt 0.9756137 0.01236904
vt 0.987797 0.9876426
vt 0.01221237 0.01235441
vt 0.9756011 0.01235441
vt 0.9756011 0.9876369
vt 0.987797 0.9876426
vt 0.9756137 0.01236904
vt 0.9756137 0.9876426
vt 0.987801 0.987631
vt 0.987801 0.01235736
vt 0.9756176 0.01235736
vt 0.9756137 0.9876426
vt 0.9756176 0.01235736
vt 0.987801 0.01235736
vt 0.987801 0.987631
vt 0.9756137 0.9876426
usemtl EGA_Road_65_texture0
f 3/3/3 2/2/2 1/1/1
f 4/4/4 3/3/3 1/1/1
f 7/7/7 6/6/6 5/5/5
f 7/7/7 5/5/5 8/8/8
f 11/11/11 10/10/10 9/9/9
f 14/14/14 13/13/13 12/12/12
f 17/17/17 16/16/16 15/15/15
f 20/20/20 19/19/19 18/18/18
f 23/23/23 22/22/22 21/21/21
f 24/24/24 23/23/23 21/21/21
f 27/27/27 26/26/26 25/25/25
f 27/27/27 25/25/25 28/28/28
