mtllib EGA_Road_03.mtl
g default
v -7.899998 0.1 -9.9
v -7.899998 -0.1 -9.9
v 7.9 -0.1 -9.899998
v 7.9 0.1 -9.899998
v 7.899997 -0.1 10.1
v -7.9 -0.1 10.1
v -7.9 0.1 10.1
v 7.899997 0.1 10.1
v 7.9 -0.1 -9.899998
v -7.899998 -0.1 -9.9
v -7.9 -0.1 10.1
v 7.899997 -0.1 10.1
v 7.9 -0.1 -9.899998
v -7.9 -0.1 10.1
v -7.9 0.1 10.1
v -7.899998 0.1 -9.9
v 7.9 0.1 -9.899998
v -7.9 0.1 10.1
v 7.9 0.1 -9.899998
v 7.899997 0.1 10.1
v -7.9 -0.1 10.1
v -7.899998 -0.1 -9.9
v -7.899998 0.1 -9.9
v -7.9 0.1 10.1
v 7.9 0.1 -9.899998
v 7.9 -0.1 -9.899998
v 7.899997 -0.1 10.1
v 7.899997 0.1 10.1
vn 1.192093E-07 0 -0.9999999
vn 1.192093E-07 0 -0.9999999
vn 1.192093E-07 0 -0.9999999
vn 1.192093E-07 0 -0.9999999
vn -1.192093E-07 0 0.9999999
vn -1.192093E-07 0 0.9999999
vn -1.192093E-07 0 0.9999999
vn -1.192093E-07 0 0.9999999
vn 0 -1 0
vn 0 -1 0
vn 0 -1 0
vn 0 -1 0
vn 0 -1 0
vn 0 -1 0
vn 0 1 0
vn 0 1 0
vn 0 1 0
vn 0 1 0
vn 0 1 0
vn 0 1 0
vn -0.9999999 0 -1.192093E-07
vn -0.9999999 0 -1.192093E-07
vn -0.9999999 0 -1.192093E-07
vn -0.9999999 0 -1.192093E-07
vn 0.9999999 0 1.192093E-07
vn 0.9999999 0 1.192093E-07
vn 0.9999999 0 1.192093E-07
vn 0.9999999 0 1.192093E-07
vt 0.3928802 0.01235736
vt 0.4285599 0.01235736
vt 0.4285599 0.987631
vt 0.3928687 0.9876426
vt 0.5357028 0.987631
vt 0.5357028 0.01235736
vt 0.5000231 0.01235736
vt 0.5000116 0.9876426
vt 0.9642625 0.9876356
vt 0.9642625 0.01235506
vt 0.6071892 0.01235506
vt 0.03573748 0.9876449
vt 0.3928107 0.9876449
vt 0.03573748 0.01236445
vt 0.6071892 0.01235506
vt 0.9642625 0.01235506
vt 0.9642625 0.9876356
vt 0.03573748 0.01236445
vt 0.3928107 0.9876449
vt 0.03573748 0.9876449
vt 0.3929076 0.9382803
vt 0.4285462 0.9382803
vt 0.4285462 0.9505998
vt 0.3928824 0.9506086
vt 0.4285462 0.9505998
vt 0.4285462 0.9382803
vt 0.3929076 0.9382803
vt 0.3928824 0.9506086
usemtl EGA_Road_03_texture0
f 3/3/3 2/2/2 1/1/1
f 4/4/4 3/3/3 1/1/1
f 7/7/7 6/6/6 5/5/5
f 7/7/7 5/5/5 8/8/8
f 11/11/11 10/10/10 9/9/9
f 14/14/14 13/13/13 12/12/12
f 17/17/17 16/16/16 15/15/15
f 20/20/20 19/19/19 18/18/18
f 23/23/23 22/22/22 21/21/21
f 24/24/24 23/23/23 21/21/21
f 27/27/27 26/26/26 25/25/25
f 27/27/27 25/25/25 28/28/28
