mtllib EGA_Road_63.mtl
g default
v -7.899999 0.1 -1.900001
v -7.899999 -0.1 -1.900001
v 7.899999 -0.1 -1.899999
v 7.899999 0.1 -1.899999
v 7.899998 -0.1 2.100001
v -7.899999 -0.1 2.099999
v -7.899999 0.1 2.099999
v 7.899998 0.1 2.100001
v 7.899999 -0.1 -1.899999
v -7.899999 -0.1 -1.900001
v -7.899999 -0.1 2.099999
v 7.899998 -0.1 2.100001
v -7.899999 0.1 2.099999
v -7.899999 0.1 -1.900001
v 7.899999 0.1 -1.899999
v 7.899998 0.1 2.100001
v -7.899999 -0.1 2.099999
v -7.899999 -0.1 -1.900001
v -7.899999 0.1 -1.900001
v -7.899999 0.1 2.099999
v 7.899999 0.1 -1.899999
v 7.899999 -0.1 -1.899999
v 7.899998 -0.1 2.100001
v 7.899998 0.1 2.100001
vn 1.192093E-07 0 -0.9999999
vn 1.192093E-07 0 -0.9999999
vn 1.192093E-07 0 -0.9999999
vn 1.192093E-07 0 -0.9999999
vn -1.192093E-07 0 0.9999999
vn -1.192093E-07 0 0.9999999
vn -1.192093E-07 0 0.9999999
vn -1.192093E-07 0 0.9999999
vn 0 -1 0
vn 0 -1 0
vn 0 -1 0
vn 0 -1 0
vn 0 1 0
vn 0 1 0
vn 0 1 0
vn 0 1 0
vn -0.9999999 0 -1.192093E-07
vn -0.9999999 0 -1.192093E-07
vn -0.9999999 0 -1.192093E-07
vn -0.9999999 0 -1.192093E-07
vn 0.9999999 0 1.192093E-07
vn 0.9999999 0 1.192093E-07
vn 0.9999999 0 1.192093E-07
vn 0.9999999 0 1.192093E-07
vt 0.3335489 0.01235736
vt 0.6665589 0.01235736
vt 0.6665589 0.987631
vt 0.3334411 0.9876426
vt 0.6665589 0.987631
vt 0.6665589 0.01235736
vt 0.3335489 0.01235736
vt 0.3334411 0.9876426
vt 0.6665589 0.987631
vt 0.6665589 0.01235736
vt 0.3335489 0.01235736
vt 0.3334411 0.9876426
vt 0.3335489 0.01235736
vt 0.6665589 0.01235736
vt 0.6665589 0.987631
vt 0.3334411 0.9876426
vt 0.3338047 0.9382803
vt 0.666431 0.9382803
vt 0.666431 0.9505998
vt 0.333569 0.9506086
vt 0.666431 0.9505998
vt 0.666431 0.9382803
vt 0.3338047 0.9382803
vt 0.333569 0.9506086
usemtl EGA_Road_63_texture0
f 3/3/3 2/2/2 1/1/1
f 4/4/4 3/3/3 1/1/1
f 7/7/7 6/6/6 5/5/5
f 7/7/7 5/5/5 8/8/8
f 11/11/11 10/10/10 9/9/9
f 11/11/11 9/9/9 12/12/12
f 15/15/15 14/14/14 13/13/13
f 16/16/16 15/15/15 13/13/13
f 19/19/19 18/18/18 17/17/17
f 20/20/20 19/19/19 17/17/17
f 23/23/23 22/22/22 21/21/21
f 23/23/23 21/21/21 24/24/24
