mtllib EGA_Road_73.mtl
g default
v -7.899998 0.1 -5.5
v -7.899998 -0.1 -5.5
v 7.899999 -0.1 -5.499998
v 7.899999 0.1 -5.499998
v 7.899998 -0.1 5.7
v -7.899999 -0.1 5.699998
v -7.899999 0.1 5.699998
v 7.899998 0.1 5.7
v 7.899999 -0.1 -5.499998
v -7.899998 -0.1 -5.5
v -7.899999 -0.1 5.699998
v 7.899998 -0.1 5.7
v 7.899999 -0.1 -5.499998
v -7.899999 -0.1 5.699998
v -7.899999 0.1 5.699998
v -7.899998 0.1 -5.5
v 7.899999 0.1 -5.499998
v -7.899999 0.1 5.699998
v 7.899999 0.1 -5.499998
v 7.899998 0.1 5.7
v -7.899999 -0.1 5.699998
v -7.899998 -0.1 -5.5
v -7.899998 0.1 -5.5
v -7.899999 0.1 5.699998
v 7.899999 0.1 -5.499998
v 7.899999 -0.1 -5.499998
v 7.899998 -0.1 5.7
v 7.899998 0.1 5.7
vn 1.192093E-07 0 -0.9999999
vn 1.192093E-07 0 -0.9999999
vn 1.192093E-07 0 -0.9999999
vn 1.192093E-07 0 -0.9999999
vn -1.192093E-07 0 0.9999999
vn -1.192093E-07 0 0.9999999
vn -1.192093E-07 0 0.9999999
vn -1.192093E-07 0 0.9999999
vn 0 -1 0
vn 0 -1 0
vn 0 -1 0
vn 0 -1 0
vn 0 -1 0
vn 0 -1 0
vn 0 1 0
vn 0 1 0
vn 0 1 0
vn 0 1 0
vn 0 1 0
vn 0 1 0
vn -0.9999999 0 -1.192093E-07
vn -0.9999999 0 -1.192093E-07
vn -0.9999999 0 -1.192093E-07
vn -0.9999999 0 -1.192093E-07
vn 0.9999999 0 1.192093E-07
vn 0.9999999 0 1.192093E-07
vn 0.9999999 0 1.192093E-07
vn 0.9999999 0 1.192093E-07
vt 0.04548395 0.01235736
vt 0.09089439 0.01235736
vt 0.09089439 0.987631
vt 0.04546925 0.9876426
vt 0.227258 0.987631
vt 0.227258 0.01235736
vt 0.1818476 0.01235736
vt 0.1818329 0.9876426
vt 0.5772462 0.9876342
vt 0.5772462 0.01235571
vt 0.3227803 0.01235571
vt 0.6863902 0.9876443
vt 0.9408561 0.9876443
vt 0.6863902 0.01236574
vt 0.3227803 0.01235571
vt 0.5772462 0.01235571
vt 0.5772462 0.9876342
vt 0.6863902 0.01236574
vt 0.9408561 0.9876443
vt 0.6863902 0.9876443
vt 0.04551883 0.9382803
vt 0.09087695 0.9382803
vt 0.09087695 0.9505998
vt 0.04548668 0.9506086
vt 0.09087695 0.9505998
vt 0.09087695 0.9382803
vt 0.04551883 0.9382803
vt 0.04548668 0.9506086
usemtl EGA_Road_73_texture0
f 3/3/3 2/2/2 1/1/1
f 4/4/4 3/3/3 1/1/1
f 7/7/7 6/6/6 5/5/5
f 7/7/7 5/5/5 8/8/8
f 11/11/11 10/10/10 9/9/9
f 14/14/14 13/13/13 12/12/12
f 17/17/17 16/16/16 15/15/15
f 20/20/20 19/19/19 18/18/18
f 23/23/23 22/22/22 21/21/21
f 24/24/24 23/23/23 21/21/21
f 27/27/27 26/26/26 25/25/25
f 27/27/27 25/25/25 28/28/28
