mtllib EGA_Game_Case_01.mtl
g default
v -0.033 0.477 0.195
v -0.033 -0.003 0.195
v -0.033 -0.003 -0.189
v -0.033 0.477 0.195
v -0.033 -0.003 -0.189
v -0.033 0.477 -0.189
v 0.021 0.297 0.195
v 0.021 0.195 0.195
v 0.021 0.195 0.189
v 0.021 0.297 0.189
v -0.015 0.195 0.189
v -0.015 0.195 0.195
v -0.015 0.297 0.195
v -0.015 0.297 0.189
v 0.039 -0.003 -0.189
v 0.039 -0.003 0.195
v 0.039 0.477 0.195
v 0.039 0.477 -0.189
v 0.039 -0.003 -0.189
v 0.039 0.477 0.195
v -0.033 -0.003 -0.189
v -0.033 -0.003 0.195
v 0.039 -0.003 0.195
v 0.039 -0.003 -0.189
v -0.015 0.297 0.189
v -0.015 0.297 0.195
v 0.021 0.297 0.195
v 0.021 0.297 0.189
v 0.021 0.195 0.195
v -0.015 0.195 0.195
v -0.015 0.195 0.189
v 0.021 0.195 0.189
v 0.039 0.477 0.195
v -0.033 0.477 0.195
v -0.033 0.477 -0.189
v 0.039 0.477 -0.189
v 0.039 -0.003 0.195
v -0.033 -0.003 0.195
v 0.021 0.195 0.195
v -0.015 0.195 0.195
v 0.039 -0.003 0.195
v 0.021 0.195 0.195
v 0.039 0.477 0.195
v 0.021 0.195 0.195
v 0.021 0.297 0.195
v -0.015 0.195 0.195
v -0.033 -0.003 0.195
v -0.033 0.477 0.195
v -0.015 0.195 0.195
v -0.015 0.297 0.195
v 0.021 0.297 0.195
v -0.033 0.477 0.195
v 0.039 0.477 0.195
v -0.015 0.297 0.195
v 0.021 0.195 0.189
v -0.015 0.195 0.189
v -0.015 0.297 0.189
v 0.021 0.297 0.189
v -0.033 0.477 -0.189
v -0.033 -0.003 -0.189
v 0.039 -0.003 -0.189
v 0.039 0.477 -0.189
v -0.033 0.477 -0.189
v 0.039 -0.003 -0.189
vn -1 0 0
vn -1 0 0
vn -1 0 0
vn -1 0 0
vn -1 0 0
vn -1 0 0
vn -1 0 0
vn -1 0 0
vn -1 0 0
vn -1 0 0
vn 1 0 0
vn 1 0 0
vn 1 0 0
vn 1 0 0
vn 1 0 0
vn 1 0 0
vn 1 0 0
vn 1 0 0
vn 1 0 0
vn 1 0 0
vn 0 -1 0
vn 0 -1 0
vn 0 -1 0
vn 0 -1 0
vn 0 -1 0
vn 0 -1 0
vn 0 -1 0
vn 0 -1 0
vn 0 1 0
vn 0 1 0
vn 0 1 0
vn 0 1 0
vn 0 1 0
vn 0 1 0
vn 0 1 0
vn 0 1 0
vn 0 0 1
vn 0 0 1
vn 0 0 1
vn 0 0 1
vn 0 0 1
vn 0 0 1
vn 0 0 1
vn 0 0 1
vn 0 0 1
vn 0 0 1
vn 0 0 1
vn 0 0 1
vn 0 0 1
vn 0 0 1
vn 0 0 1
vn 0 0 1
vn 0 0 1
vn 0 0 1
vn 0 0 1
vn 0 0 1
vn 0 0 1
vn 0 0 1
vn 0 0 -1
vn 0 0 -1
vn 0 0 -1
vn 0 0 -1
vn 0 0 -1
vn 0 0 -1
vt 0.07032358 0.476568
vt 0.695307 0.476568
vt 0.695307 0.9765515
vt 0.03906804 0.4921985
vt 0.6640514 0.992182
vt 0.03906804 0.992182
vt 0.01561948 0.7578015
vt 0.01561948 0.7500055
vt 0.007823548 0.7500055
vt 0.007818025 0.757807
vt 0.007823548 0.7500055
vt 0.01561948 0.7500055
vt 0.01561948 0.7578015
vt 0.007818025 0.757807
vt 0.03134338 0.7265736
vt 0.03134338 0.7344935
vt 0.02344853 0.7344935
vt 0.02334225 0.7968689
vt 0.03134034 0.7968689
vt 0.02334225 0.7889506
vt 0.007819488 0.7461007
vt 0.01562151 0.7461007
vt 0.01562151 0.7929548
vt 0.007815993 0.7929618
vt 0.007820088 0.7578194
vt 0.01562121 0.7578194
vt 0.01562121 0.7812364
vt 0.007816294 0.7812431
vt 0.01562121 0.7812364
vt 0.01562121 0.7578194
vt 0.007820088 0.7578194
vt 0.007816294 0.7812431
vt 0.01562151 0.7929548
vt 0.01562151 0.7461007
vt 0.007819488 0.7461007
vt 0.007815993 0.7929618
vt 0.01562151 0.79296
vt 0.01562151 0.746106
vt 0.007819488 0.7812465
vt 0.007819071 0.7578167
vt 0.01561862 0.757808
vt 0.01240155 0.750009
vt 0.007819667 0.757808
vt 0.01561475 0.7500075
vt 0.01279712 0.7500075
vt 0.01240155 0.7578035
vt 0.01561862 0.7500045
vt 0.007819667 0.7500045
vt 0.01561475 0.757805
vt 0.01279712 0.757805
vt 0.01561801 0.7812465
vt 0.007815993 0.746106
vt 0.007815993 0.79296
vt 0.01561843 0.7578167
vt 0.007823548 0.7031305
vt 0.01561948 0.7031305
vt 0.01561948 0.7109265
vt 0.007818025 0.710932
vt 0.02353402 0.8984451
vt 0.01552666 0.8984451
vt 0.01552666 0.9921723
vt 0.01552666 0.9062424
vt 0.01552666 0.8125152
vt 0.02353402 0.9062424
usemtl EGA_Game_Case_01_texture0
f 3/3/3 2/2/2 1/1/1
f 6/6/6 5/5/5 4/4/4
f 9/9/9 8/8/8 7/7/7
f 10/10/10 9/9/9 7/7/7
f 13/13/13 12/12/12 11/11/11
f 13/13/13 11/11/11 14/14/14
f 17/17/17 16/16/16 15/15/15
f 20/20/20 19/19/19 18/18/18
f 23/23/23 22/22/22 21/21/21
f 23/23/23 21/21/21 24/24/24
f 27/27/27 26/26/26 25/25/25
f 27/27/27 25/25/25 28/28/28
f 31/31/31 30/30/30 29/29/29
f 32/32/32 31/31/31 29/29/29
f 35/35/35 34/34/34 33/33/33
f 36/36/36 35/35/35 33/33/33
f 39/39/39 38/38/38 37/37/37
f 40/40/40 38/38/38 39/39/39
f 43/43/43 42/42/42 41/41/41
f 45/45/45 44/44/44 43/43/43
f 48/48/48 47/47/47 46/46/46
f 50/50/50 48/48/48 49/49/49
f 53/53/53 52/52/52 51/51/51
f 51/51/51 52/52/52 54/54/54
f 57/57/57 56/56/56 55/55/55
f 58/58/58 57/57/57 55/55/55
f 61/61/61 60/60/60 59/59/59
f 64/64/64 63/63/63 62/62/62
