mtllib EGA_Spotlight_03.mtl
g default
v -0.03 0.57 -0.03
v -0.03 0.6438265 0.09
v -0.03 0.57 0.09
v -0.03 0.6438265 -0.03
v -0.09 0.5699691 -0.09
v -0.09 0.57 0.15
v -0.09 0.5699691 0.15
v -0.09 0.57 -0.09
v 0.8700001 0.08066665 -0.8100001
v 0.8700001 0.09 0.8700001
v 0.8700001 0.08066665 0.8700001
v 0.8700001 0.09 -0.8100001
v -0.8700001 0.08066665 -0.8700001
v -0.8700001 0.15 0.9300001
v -0.8700001 0.08066665 0.9300001
v -0.8700001 0.15 -0.8700001
v 0.9300001 0.15 0.9300001
v 0.9300001 0.08066665 -0.8700001
v 0.9300001 0.08066665 0.9300001
v 0.9300001 0.15 -0.8700001
v 0.15 0.57 0.15
v 0.15 0.5699691 -0.09
v 0.15 0.5699691 0.15
v 0.15 0.57 -0.09
v -0.8100001 0.09 0.8700001
v -0.8100001 0.08066665 -0.8100001
v -0.8100001 0.08066665 0.8700001
v -0.8100001 0.09 -0.8100001
v 0.09 0.6438265 0.09
v 0.09 0.57 -0.03
v 0.09 0.57 0.09
v 0.09 0.6438265 -0.03
v 0.9300001 0.08066665 0.9300001
v 0.8700001 0.08066665 0.8700001
v -0.8700001 0.08066665 0.9300001
v 0.8700001 0.08066665 0.8700001
v -0.8100001 0.08066665 0.8700001
v 0.9300001 0.08066665 -0.8700001
v 0.8700001 0.08066665 0.8700001
v -0.8100001 0.08066665 0.8700001
v -0.8700001 0.08066665 -0.8700001
v 0.8700001 0.08066665 -0.8100001
v 0.8700001 0.08066665 -0.8100001
v 0.8700001 0.08066665 0.8700001
v -0.8100001 0.08066665 0.8700001
v -0.8100001 0.08066665 -0.8100001
v -0.8100001 0.08066665 -0.8100001
v 0.8700001 0.08066665 -0.8100001
v 0.8700001 0.09 0.8700001
v -0.8100001 0.09 -0.8100001
v -0.8100001 0.09 0.8700001
v 0.8700001 0.09 -0.8100001
v -0.03 0.6438265 -0.03
v 0.09 0.6438265 0.09
v -0.03 0.6438265 0.09
v 0.09 0.6438265 -0.03
v 0.09 0.57 0.09
v 0.15 0.57 0.15
v -0.09 0.57 0.15
v -0.03 0.57 0.09
v 0.09 0.57 0.09
v 0.15 0.57 -0.09
v 0.09 0.57 0.09
v -0.09 0.57 -0.09
v -0.03 0.57 0.09
v 0.09 0.57 -0.03
v 0.09 0.57 -0.03
v 0.09 0.57 0.09
v -0.03 0.57 -0.03
v -0.03 0.57 0.09
v 0.09 0.57 -0.03
v -0.03 0.57 -0.03
v 0.15 0.5699691 0.15
v 0.9300001 0.15 0.9300001
v -0.8700001 0.15 0.9300001
v -0.09 0.5699691 0.15
v 0.15 0.5699691 0.15
v 0.9300001 0.15 -0.8700001
v 0.9300001 0.15 0.9300001
v 0.15 0.5699691 0.15
v -0.8700001 0.15 -0.8700001
v -0.09 0.5699691 0.15
v 0.9300001 0.15 -0.8700001
v 0.15 0.5699691 -0.09
v 0.15 0.5699691 -0.09
v 0.15 0.5699691 0.15
v -0.09 0.5699691 -0.09
v -0.09 0.5699691 0.15
v 0.15 0.5699691 -0.09
v -0.09 0.5699691 -0.09
v -0.03 0.6438265 0.09
v 0.09 0.57 0.09
v -0.03 0.57 0.09
v 0.09 0.6438265 0.09
v -0.8100001 0.09 -0.8100001
v 0.8700001 0.08066665 -0.8100001
v -0.8100001 0.08066665 -0.8100001
v 0.8700001 0.09 -0.8100001
v -0.09 0.57 0.15
v 0.15 0.5699691 0.15
v -0.09 0.5699691 0.15
v 0.15 0.57 0.15
v -0.8700001 0.15 0.9300001
v 0.9300001 0.08066665 0.9300001
v -0.8700001 0.08066665 0.9300001
v 0.9300001 0.15 0.9300001
v 0.09 0.57 -0.03
v -0.03 0.6438265 -0.03
v -0.03 0.57 -0.03
v 0.09 0.6438265 -0.03
v 0.9300001 0.08066665 -0.8700001
v -0.8700001 0.15 -0.8700001
v -0.8700001 0.08066665 -0.8700001
v 0.9300001 0.15 -0.8700001
v 0.8700001 0.08066665 0.8700001
v -0.8100001 0.09 0.8700001
v -0.8100001 0.08066665 0.8700001
v 0.8700001 0.09 0.8700001
v 0.15 0.5699691 -0.09
v -0.09 0.57 -0.09
v -0.09 0.5699691 -0.09
v 0.15 0.57 -0.09
v 0.05853172 0.594 0.02072949
v 0.05853172 3.114 0.02072949
v 0.05427053 3.114 0.01236643
v 0.05427053 0.594 0.01236643
v 0.04763357 3.114 0.005729476
v 0.04763357 0.594 0.005729476
v 0.03927052 3.114 0.00146829
v 0.03927052 0.594 0.00146829
v 0.03 3.114 -1.490116E-08
v 0.03 0.594 -1.490116E-08
v 0.02072949 3.114 0.001468292
v 0.02072949 0.594 0.001468292
v 0.01236644 3.114 0.005729482
v 0.01236644 0.594 0.005729482
v 0.005729483 3.114 0.01236644
v 0.005729483 0.594 0.01236644
v 0.001468297 3.114 0.02072949
v 0.001468297 0.594 0.02072949
v 0.001468297 0.594 0.02072949
v 0.001468297 3.114 0.02072949
v -7.450581E-09 3.114 0.03
v -7.450581E-09 0.594 0.03
v -7.450581E-09 0.594 0.03
v -7.450581E-09 3.114 0.03
v 0.001468297 3.114 0.03927051
v 0.001468297 0.594 0.03927051
v 0.005729485 3.114 0.04763356
v 0.005729485 0.594 0.04763356
v 0.01236644 3.114 0.05427051
v 0.01236644 0.594 0.05427051
v 0.02072949 3.114 0.0585317
v 0.02072949 0.594 0.0585317
v 0.03 3.114 0.06000001
v 0.03 0.594 0.06000001
v 0.03927051 3.114 0.0585317
v 0.03927051 0.594 0.0585317
v 0.04763356 3.114 0.05427051
v 0.04763356 0.594 0.05427051
v 0.05427051 3.114 0.04763356
v 0.05427051 0.594 0.04763356
v 0.0585317 3.114 0.03927051
v 0.0585317 0.594 0.03927051
v 0.06 3.114 0.03
v 0.06 0.594 0.03
v 0.06 0.594 0.03
v 0.06 3.114 0.03
v 0.05853172 3.114 0.02072949
v 0.05853172 0.594 0.02072949
v 0.05427053 0.594 0.01236643
v 0.03 0.594 0.03
v 0.05853172 0.594 0.02072949
v 0.04763357 0.594 0.005729476
v 0.03927052 0.594 0.00146829
v 0.03 0.594 -1.490116E-08
v 0.02072949 0.594 0.001468292
v 0.01236644 0.594 0.005729482
v 0.005729483 0.594 0.01236644
v 0.001468297 0.594 0.02072949
v -7.450581E-09 0.594 0.03
v 0.001468297 0.594 0.03927051
v 0.005729485 0.594 0.04763356
v 0.01236644 0.594 0.05427051
v 0.02072949 0.594 0.0585317
v 0.03 0.594 0.06000001
v 0.03927051 0.594 0.0585317
v 0.04763356 0.594 0.05427051
v 0.05427051 0.594 0.04763356
v 0.0585317 0.594 0.03927051
v 0.06 0.594 0.03
v 0.05853172 3.114 0.02072949
v 0.03 3.114 0.03
v 0.05427053 3.114 0.01236643
v 0.04763357 3.114 0.005729476
v 0.03927052 3.114 0.00146829
v 0.03 3.114 -1.490116E-08
v 0.02072949 3.114 0.001468292
v 0.01236644 3.114 0.005729482
v 0.005729483 3.114 0.01236644
v 0.001468297 3.114 0.02072949
v -7.450581E-09 3.114 0.03
v 0.001468297 3.114 0.03927051
v 0.005729485 3.114 0.04763356
v 0.01236644 3.114 0.05427051
v 0.02072949 3.114 0.0585317
v 0.03 3.114 0.06000001
v 0.03927051 3.114 0.0585317
v 0.04763356 3.114 0.05427051
v 0.05427051 3.114 0.04763356
v 0.0585317 3.114 0.03927051
v 0.06 3.114 0.03
vn -0.9999999 0 0
vn -0.9999999 0 0
vn -0.9999999 0 0
vn -0.9999999 0 0
vn -1 0 0
vn -1 0 0
vn -1 0 0
vn -1 0 0
vn -1 0 0
vn -1 0 0
vn -1 0 0
vn -1 0 0
vn -1 0 0
vn -1 0 0
vn -1 0 0
vn -1 0 0
vn 1 0 0
vn 1 0 0
vn 1 0 0
vn 1 0 0
vn 1 0 0
vn 1 0 0
vn 1 0 0
vn 1 0 0
vn 1 0 0
vn 1 0 0
vn 1 0 0
vn 1 0 0
vn 0.9999999 0 0
vn 0.9999999 0 0
vn 0.9999999 0 0
vn 0.9999999 0 0
vn 0 -0.9999999 0
vn 0 -0.9999999 0
vn 0 -1 0
vn 0 -0.9999999 0
vn 0 -0.9999999 0
vn 0 -1 0
vn 0 -0.9999999 0
vn 0 -0.9999999 0
vn 0 -1 0
vn 0 -0.9999999 0
vn 0 -1 0
vn 0 -1 0
vn 0 -0.9999999 0
vn 0 -0.9999999 0
vn 0 -0.9999999 0
vn 0 -0.9999999 0
vn 0 -0.9999999 0
vn 0 -0.9999999 0
vn 0 -0.9999999 0
vn 0 -0.9999999 0
vn 0 1 0
vn 0 1 0
vn 0 1 0
vn 0 1 0
vn 0 1 0
vn 0 1 0
vn 0 1 0
vn 0 1 0
vn 0 1 0
vn 0 1 0
vn 0 1 0
vn 0 1 0
vn 0 1 0
vn 0 1 0
vn 0 1 0
vn 0 1 0
vn 0 1 0
vn 0 1 0
vn 0 1 0
vn 0 1 0
vn 0 0.8804857 0.4740728
vn 0.2515936 0.9345595 0.2515936
vn -0.2358107 0.9343284 0.2672521
vn 0 0.8804857 0.4740728
vn 0 0.8804857 0.4740728
vn 0.2672521 0.9343284 -0.2358107
vn 0.2515936 0.9345595 0.2515936
vn 0.4740728 0.8804857 0
vn -0.2515936 0.9345594 -0.2515936
vn -0.4740728 0.8804857 0
vn 0.2672521 0.9343284 -0.2358107
vn 0 0.8804857 -0.4740728
vn 0.4740728 0.8804857 0
vn 0.4740728 0.8804857 0
vn -0.4740728 0.8804857 0
vn -0.4740728 0.8804857 0
vn 0 0.8804857 -0.4740728
vn 0 0.8804857 -0.4740728
vn 0 0 0.9999999
vn 0 0 0.9999999
vn 0 0 0.9999999
vn 0 0 0.9999999
vn 0 0 1
vn 0 0 1
vn 0 0 1
vn 0 0 1
vn 0 0 1
vn 0 0 1
vn 0 0 1
vn 0 0 1
vn 0 0 1
vn 0 0 1
vn 0 0 1
vn 0 0 1
vn 0 0 -0.9999999
vn 0 0 -0.9999999
vn 0 0 -0.9999999
vn 0 0 -0.9999999
vn 0 0 -1
vn 0 0 -1
vn 0 0 -1
vn 0 0 -1
vn 0 0 -1
vn 0 0 -1
vn 0 0 -1
vn 0 0 -1
vn 0 0 -1
vn 0 0 -1
vn 0 0 -1
vn 0 0 -1
vn 0.9510569 0 -0.309016
vn 0.9510569 0 -0.309016
vn 0.809017 0 -0.5877854
vn 0.809017 0 -0.5877854
vn 0.5877851 0 -0.8090171
vn 0.5877851 0 -0.8090171
vn 0.3090168 0 -0.9510565
vn 0.3090168 0 -0.9510565
vn 0 0 -1
vn 0 0 -1
vn -0.3090171 0 -0.9510565
vn -0.3090171 0 -0.9510565
vn -0.5877855 0 -0.8090169
vn -0.5877855 0 -0.8090169
vn -0.8090171 0 -0.5877851
vn -0.8090171 0 -0.5877851
vn -0.9510565 0 -0.3090169
vn -0.9510565 0 -0.3090169
vn -0.9510565 0 -0.3090169
vn -0.9510565 0 -0.3090169
vn -1 0 0
vn -1 0 0
vn -1 0 0
vn -1 0 0
vn -0.9510565 0 0.309017
vn -0.9510565 0 0.309017
vn -0.8090169 0 0.5877854
vn -0.8090169 0 0.5877854
vn -0.5877852 0 0.8090171
vn -0.5877852 0 0.8090171
vn -0.3090169 0 0.9510565
vn -0.3090169 0 0.9510565
vn 0 0 1
vn 0 0 1
vn 0.3090171 0 0.9510565
vn 0.3090171 0 0.9510565
vn 0.5877852 0 0.809017
vn 0.5877852 0 0.809017
vn 0.809017 0 0.5877852
vn 0.809017 0 0.5877852
vn 0.9510565 0 0.3090169
vn 0.9510565 0 0.3090169
vn 1 0 0
vn 1 0 0
vn 1 0 0
vn 1 0 0
vn 0.9510569 0 -0.309016
vn 0.9510569 0 -0.309016
vn 0 -1 0
vn 0 -1 0
vn 0 -1 0
vn 0 -1 0
vn 0 -1 0
vn 0 -1 0
vn 0 -1 0
vn 0 -1 0
vn 0 -1 0
vn 0 -1 0
vn 0 -1 0
vn 0 -1 0
vn 0 -1 0
vn 0 -1 0
vn 0 -1 0
vn 0 -1 0
vn 0 -1 0
vn 0 -1 0
vn 0 -1 0
vn 0 -1 0
vn 0 -1 0
vn 0 1 0
vn 0 1 0
vn 0 1 0
vn 0 1 0
vn 0 1 0
vn 0 1 0
vn 0 1 0
vn 0 1 0
vn 0 1 0
vn 0 1 0
vn 0 1 0
vn 0 1 0
vn 0 1 0
vn 0 1 0
vn 0 1 0
vn 0 1 0
vn 0 1 0
vn 0 1 0
vn 0 1 0
vn 0 1 0
vn 0 1 0
vt 0.01561948 0.9923556
vt 0.007823549 0.9847382
vt 0.01561948 0.9847382
vt 0.007818023 0.992361
vt 0.03905698 0.9923556
vt 0.03126105 0.9847382
vt 0.03905698 0.9847382
vt 0.03125552 0.992361
vt 0.03905698 0.9923556
vt 0.03126105 0.9847382
vt 0.03905698 0.9847382
vt 0.03125552 0.992361
vt 0.03905698 0.9923556
vt 0.03126105 0.9847382
vt 0.03905698 0.9847382
vt 0.03125552 0.992361
vt 0.03126105 0.9847382
vt 0.03905698 0.9923556
vt 0.03905698 0.9847382
vt 0.03125552 0.992361
vt 0.03126105 0.9847382
vt 0.03905698 0.9923556
vt 0.03905698 0.9847382
vt 0.03125552 0.992361
vt 0.03126105 0.9847382
vt 0.03905698 0.9923556
vt 0.03905698 0.9847382
vt 0.03125552 0.992361
vt 0.007823549 0.9847382
vt 0.01561948 0.9923556
vt 0.01561948 0.9847382
vt 0.007818023 0.992361
vt 0.03125561 0.9847381
vt 0.03151549 0.9923558
vt 0.03905182 0.9847381
vt 0.03126124 0.9923608
vt 0.03878778 0.9923608
vt 0.03125544 0.9923559
vt 0.03905163 0.9849922
vt 0.03126087 0.9849922
vt 0.03905706 0.9923559
vt 0.03151549 0.9847434
vt 0.03905679 0.992098
vt 0.03905679 0.9847438
vt 0.03125571 0.9847438
vt 0.03125571 0.992098
vt 0.03878778 0.9847384
vt 0.03126124 0.9847384
vt 0.03126105 0.9847382
vt 0.03905698 0.9923556
vt 0.03905698 0.9847382
vt 0.03125552 0.992361
vt 0.01561948 0.9923556
vt 0.007823549 0.9847382
vt 0.01561948 0.9847382
vt 0.007818023 0.992361
vt 0.03320557 0.9923569
vt 0.0312561 0.9847376
vt 0.03905396 0.9847376
vt 0.03645586 0.9923592
vt 0.03126235 0.9923592
vt 0.03125488 0.9923581
vt 0.03905274 0.9866436
vt 0.03905762 0.9923581
vt 0.03125976 0.9866436
vt 0.03320557 0.9847423
vt 0.03905509 0.9898195
vt 0.03905509 0.9847449
vt 0.03125741 0.9898195
vt 0.03125741 0.9847449
vt 0.03126235 0.9847401
vt 0.03645586 0.9847401
vt 0.03463601 0.9923577
vt 0.03125641 0.9847372
vt 0.0390555 0.9847372
vt 0.03309189 0.9923596
vt 0.03125853 0.9923596
vt 0.03125447 0.9923596
vt 0.03125641 0.9847372
vt 0.03905356 0.9880413
vt 0.03905803 0.9923596
vt 0.03125894 0.9880413
vt 0.03125447 0.9923596
vt 0.03463601 0.9847416
vt 0.03905559 0.9865325
vt 0.03905559 0.9847412
vt 0.03125691 0.9865325
vt 0.03125691 0.9847412
vt 0.03125853 0.9847395
vt 0.03309189 0.9847395
vt 0.01561948 0.9923556
vt 0.007823549 0.9847382
vt 0.01561948 0.9847382
vt 0.007818023 0.992361
vt 0.03905698 0.9923556
vt 0.03126105 0.9847382
vt 0.03905698 0.9847382
vt 0.03125552 0.992361
vt 0.03905698 0.9923556
vt 0.03126105 0.9847382
vt 0.03905698 0.9847382
vt 0.03125552 0.992361
vt 0.03905698 0.9923556
vt 0.03126105 0.9847382
vt 0.03905698 0.9847382
vt 0.03125552 0.992361
vt 0.007823549 0.9847382
vt 0.01561948 0.9923556
vt 0.01561948 0.9847382
vt 0.007818023 0.992361
vt 0.03126105 0.9847382
vt 0.03905698 0.9923556
vt 0.03905698 0.9847382
vt 0.03125552 0.992361
vt 0.03126105 0.9847382
vt 0.03905698 0.9923556
vt 0.03905698 0.9847382
vt 0.03125552 0.992361
vt 0.03126105 0.9847382
vt 0.03905698 0.9923556
vt 0.03905698 0.9847382
vt 0.03125552 0.992361
vt 0.1005999 0.0004433472
vt 0.1005996 0.9765431
vt 0.2005053 0.9765431
vt 0.2005054 0.0004433472
vt 0.300411 0.9765431
vt 0.300411 0.0004433472
vt 0.4003165 0.9765431
vt 0.4003165 0.0004433472
vt 0.500222 0.9765431
vt 0.500222 0.0004433472
vt 0.6001273 0.9765431
vt 0.6001273 0.0004433472
vt 0.7000328 0.9765431
vt 0.7000327 0.0004433472
vt 0.7999381 0.9765431
vt 0.799938 0.0004433472
vt 0.8998435 0.9765431
vt 0.8998432 0.0004433472
vt 0.8998432 0.0004433472
vt 0.8998435 0.9765431
vt 0.9997491 0.9765431
vt 0.999749 0.0004433472
vt 0.0006936856 0.0004433472
vt 0.0006940446 0.9765431
vt 0.1005996 0.9765431
vt 0.1005993 0.0004433472
vt 0.2005051 0.9765431
vt 0.200505 0.0004433472
vt 0.3004106 0.9765431
vt 0.3004106 0.0004433472
vt 0.400316 0.9765431
vt 0.400316 0.0004433472
vt 0.5002215 0.9765431
vt 0.5002215 0.0004433472
vt 0.6001268 0.9765431
vt 0.6001268 0.0004433472
vt 0.7000321 0.9765431
vt 0.7000322 0.0004433472
vt 0.7999371 0.9765431
vt 0.7999375 0.0004433472
vt 0.8998424 0.9765431
vt 0.8998428 0.0004433472
vt 0.9997478 0.9765431
vt 0.9997481 0.0004433472
vt 0.00069427 0.0004433472
vt 0.0006939089 0.9765431
vt 0.1005996 0.9765431
vt 0.1005999 0.0004433472
vt 0.0988569 0.7734267
vt 0.5002239 0.4884952
vt 0.02838877 0.6382923
vt 0.2086136 0.88067
vt 0.3469154 0.9495246
vt 0.500224 0.9732503
vt 0.6535327 0.9495246
vt 0.7918344 0.8806699
vt 0.901591 0.7734264
vt 0.9720588 0.6382921
vt 0.9963405 0.4884946
vt 0.9720586 0.3386973
vt 0.9015904 0.2035631
vt 0.7918337 0.09632005
vt 0.653532 0.02746571
vt 0.5002234 0.003740214
vt 0.346915 0.02746598
vt 0.2086136 0.09632044
vt 0.09885708 0.2035637
vt 0.02838913 0.3386978
vt 0.004107505 0.4884951
vt 0.9720596 0.6382923
vt 0.5002245 0.4884951
vt 0.9015915 0.7734267
vt 0.7918347 0.88067
vt 0.653533 0.9495246
vt 0.5002243 0.9732503
vt 0.3469157 0.9495246
vt 0.2086142 0.8806699
vt 0.0988576 0.7734265
vt 0.0283896 0.6382922
vt 0.004108027 0.4884948
vt 0.02838971 0.3386973
vt 0.09885782 0.2035631
vt 0.2086144 0.09632005
vt 0.3469159 0.02746566
vt 0.5002242 0.003740065
vt 0.6535327 0.02746569
vt 0.7918344 0.09632005
vt 0.901591 0.2035632
vt 0.9720591 0.3386974
vt 0.9963408 0.4884948
usemtl EGA_Spotlight_03-defaultMat
f 3/3/3 2/2/2 1/1/1
f 1/1/1 2/2/2 4/4/4
f 7/7/7 6/6/6 5/5/5
f 5/5/5 6/6/6 8/8/8
f 11/11/11 10/10/10 9/9/9
f 9/9/9 10/10/10 12/12/12
f 15/15/15 14/14/14 13/13/13
f 13/13/13 14/14/14 16/16/16
f 19/19/19 18/18/18 17/17/17
f 18/18/18 20/20/20 17/17/17
f 23/23/23 22/22/22 21/21/21
f 22/22/22 24/24/24 21/21/21
f 27/27/27 26/26/26 25/25/25
f 26/26/26 28/28/28 25/25/25
f 31/31/31 30/30/30 29/29/29
f 30/30/30 32/32/32 29/29/29
f 35/35/35 34/34/34 33/33/33
f 35/35/35 37/37/37 36/36/36
f 39/39/39 38/38/38 33/33/33
f 35/35/35 41/41/41 40/40/40
f 41/41/41 38/38/38 42/42/42
f 44/44/44 43/43/43 38/38/38
f 41/41/41 46/46/46 45/45/45
f 41/41/41 48/48/48 47/47/47
f 51/51/51 50/50/50 49/49/49
f 50/50/50 52/52/52 49/49/49
f 55/55/55 54/54/54 53/53/53
f 53/53/53 54/54/54 56/56/56
f 59/59/59 58/58/58 57/57/57
f 59/59/59 61/61/61 60/60/60
f 63/63/63 58/58/58 62/62/62
f 59/59/59 65/65/65 64/64/64
f 64/64/64 66/66/66 62/62/62
f 68/68/68 62/62/62 67/67/67
f 64/64/64 70/70/70 69/69/69
f 64/64/64 72/72/72 71/71/71
f 75/75/75 74/74/74 73/73/73
f 75/75/75 77/77/77 76/76/76
f 80/80/80 79/79/79 78/78/78
f 75/75/75 82/82/82 81/81/81
f 81/81/81 84/84/84 83/83/83
f 86/86/86 83/83/83 85/85/85
f 81/81/81 88/88/88 87/87/87
f 81/81/81 90/90/90 89/89/89
f 93/93/93 92/92/92 91/91/91
f 91/91/91 92/92/92 94/94/94
f 97/97/97 96/96/96 95/95/95
f 95/95/95 96/96/96 98/98/98
f 101/101/101 100/100/100 99/99/99
f 99/99/99 100/100/100 102/102/102
f 105/105/105 104/104/104 103/103/103
f 103/103/103 104/104/104 106/106/106
f 109/109/109 108/108/108 107/107/107
f 108/108/108 110/110/110 107/107/107
f 113/113/113 112/112/112 111/111/111
f 112/112/112 114/114/114 111/111/111
f 117/117/117 116/116/116 115/115/115
f 116/116/116 118/118/118 115/115/115
f 121/121/121 120/120/120 119/119/119
f 120/120/120 122/122/122 119/119/119
f 125/125/125 124/124/124 123/123/123
f 126/126/126 125/125/125 123/123/123
f 127/127/127 125/125/125 126/126/126
f 128/128/128 127/127/127 126/126/126
f 129/129/129 127/127/127 128/128/128
f 130/130/130 129/129/129 128/128/128
f 131/131/131 129/129/129 130/130/130
f 132/132/132 131/131/131 130/130/130
f 133/133/133 131/131/131 132/132/132
f 134/134/134 133/133/133 132/132/132
f 135/135/135 133/133/133 134/134/134
f 136/136/136 135/135/135 134/134/134
f 137/137/137 135/135/135 136/136/136
f 138/138/138 137/137/137 136/136/136
f 139/139/139 137/137/137 138/138/138
f 140/140/140 139/139/139 138/138/138
f 143/143/143 142/142/142 141/141/141
f 144/144/144 143/143/143 141/141/141
f 147/147/147 146/146/146 145/145/145
f 148/148/148 147/147/147 145/145/145
f 149/149/149 147/147/147 148/148/148
f 150/150/150 149/149/149 148/148/148
f 151/151/151 149/149/149 150/150/150
f 152/152/152 151/151/151 150/150/150
f 153/153/153 151/151/151 152/152/152
f 154/154/154 153/153/153 152/152/152
f 155/155/155 153/153/153 154/154/154
f 156/156/156 155/155/155 154/154/154
f 157/157/157 155/155/155 156/156/156
f 158/158/158 157/157/157 156/156/156
f 159/159/159 157/157/157 158/158/158
f 160/160/160 159/159/159 158/158/158
f 161/161/161 159/159/159 160/160/160
f 162/162/162 161/161/161 160/160/160
f 163/163/163 161/161/161 162/162/162
f 164/164/164 163/163/163 162/162/162
f 165/165/165 163/163/163 164/164/164
f 166/166/166 165/165/165 164/164/164
f 169/169/169 168/168/168 167/167/167
f 170/170/170 169/169/169 167/167/167
f 173/173/173 172/172/172 171/171/171
f 171/171/171 172/172/172 174/174/174
f 174/174/174 172/172/172 175/175/175
f 175/175/175 172/172/172 176/176/176
f 176/176/176 172/172/172 177/177/177
f 177/177/177 172/172/172 178/178/178
f 178/178/178 172/172/172 179/179/179
f 179/179/179 172/172/172 180/180/180
f 180/180/180 172/172/172 181/181/181
f 181/181/181 172/172/172 182/182/182
f 182/182/182 172/172/172 183/183/183
f 183/183/183 172/172/172 184/184/184
f 184/184/184 172/172/172 185/185/185
f 185/185/185 172/172/172 186/186/186
f 186/186/186 172/172/172 187/187/187
f 187/187/187 172/172/172 188/188/188
f 188/188/188 172/172/172 189/189/189
f 189/189/189 172/172/172 190/190/190
f 190/190/190 172/172/172 191/191/191
f 191/191/191 172/172/172 173/173/173
f 194/194/194 193/193/193 192/192/192
f 195/195/195 193/193/193 194/194/194
f 196/196/196 193/193/193 195/195/195
f 197/197/197 193/193/193 196/196/196
f 198/198/198 193/193/193 197/197/197
f 199/199/199 193/193/193 198/198/198
f 200/200/200 193/193/193 199/199/199
f 201/201/201 193/193/193 200/200/200
f 202/202/202 193/193/193 201/201/201
f 203/203/203 193/193/193 202/202/202
f 204/204/204 193/193/193 203/203/203
f 205/205/205 193/193/193 204/204/204
f 206/206/206 193/193/193 205/205/205
f 207/207/207 193/193/193 206/206/206
f 208/208/208 193/193/193 207/207/207
f 209/209/209 193/193/193 208/208/208
f 210/210/210 193/193/193 209/209/209
f 211/211/211 193/193/193 210/210/210
f 212/212/212 193/193/193 211/211/211
f 192/192/192 193/193/193 212/212/212
