mtllib EGA_Cloud_07.mtl
g default
v -0.7 1.5 0.1
v -0.7 1.1 0.1
v -0.7 1.1 -1.1
v -0.7 1.1 -1.1
v -0.7 1.5 -1.5
v -0.7 1.1 -1.1
v -0.7 -0.1 -1.5
v -0.7 1.1 -1.1
v -0.7 -0.1 -1.1
v -1.9 1.1 0.1
v -1.9 -0.1 0.1
v -1.9 -0.1 -1.1
v -1.9 1.1 -1.1
v -2.3 1.5 1.7
v -2.3 -0.1 1.7
v -2.3 -0.1 0.1
v -2.3 1.5 0.1
v 0.3 0.5 -1.5
v 0.3 -0.1 -1.5
v 0.3 -0.1 -2.7
v 0.3 0.5 -2.7
v 2.5 -0.1 -1.5
v 2.5 -0.1 0.1
v 2.5 1.5 0.1
v 2.5 1.5 -1.5
v 2.1 -0.1 0.1
v 2.1 -0.1 1.3
v 2.1 1.1 1.3
v 2.1 1.1 0.1
v 1.5 -0.1 -2.7
v 1.5 -0.1 -1.5
v 1.5 0.5 -1.5
v 1.5 0.5 -2.7
v 0.9 1.1 1.3
v 0.9 -0.1 1.7
v 0.9 1.5 1.7
v 0.9 -0.1 1.3
v 0.9 1.1 1.3
v 0.9 1.5 0.1
v 0.9 1.1 1.3
v 0.9 1.1 0.1
v 0.9 1.1 1.3
v 2.5 -0.1 0.1
v 2.5 -0.1 -1.5
v 2.1 -0.1 0.1
v 2.1 -0.1 0.1
v 1.5 -0.1 -1.5
v 2.1 -0.1 0.1
v 1.5 -0.1 -1.5
v 0.3 -0.1 -1.5
v 0.9 -0.1 1.3
v 2.1 -0.1 0.1
v 0.3 -0.1 -2.7
v 0.3 -0.1 -1.5
v 1.5 -0.1 -1.5
v 1.5 -0.1 -2.7
v 2.1 -0.1 1.3
v 2.1 -0.1 0.1
v 0.9 -0.1 1.3
v 0.3 -0.1 -1.5
v -0.7 -0.1 -1.1
v 0.9 -0.1 1.3
v -0.7 -0.1 -1.1
v -1.9 -0.1 0.1
v -0.7 -0.1 -1.5
v -0.7 -0.1 -1.1
v 0.3 -0.1 -1.5
v -1.9 -0.1 -1.1
v -1.9 -0.1 0.1
v -0.7 -0.1 -1.1
v 0.9 -0.1 1.3
v -1.9 -0.1 0.1
v -2.3 -0.1 1.7
v -2.3 -0.1 0.1
v -1.9 -0.1 0.1
v 0.9 -0.1 1.7
v 0.9 -0.1 1.3
v 0.9 1.5 0.1
v 2.5 1.5 -1.5
v 2.5 1.5 0.1
v -0.7 1.5 -1.5
v 0.9 1.5 0.1
v 0.9 1.5 0.1
v -0.7 1.5 0.1
v 0.9 1.5 1.7
v -0.7 1.5 0.1
v 0.9 1.5 0.1
v -2.3 1.5 1.7
v -0.7 1.5 0.1
v -0.7 1.5 0.1
v -2.3 1.5 0.1
v 2.1 1.1 1.3
v 0.9 1.1 1.3
v 0.9 1.1 0.1
v 2.1 1.1 0.1
v -0.7 1.1 0.1
v -1.9 1.1 0.1
v -1.9 1.1 -1.1
v -0.7 1.1 -1.1
v 1.5 0.5 -1.5
v 0.3 0.5 -1.5
v 0.3 0.5 -2.7
v 1.5 0.5 -2.7
v 2.5 -0.1 0.1
v 2.1 -0.1 0.1
v 2.1 1.1 0.1
v 2.1 1.1 0.1
v 2.5 1.5 0.1
v 2.1 1.1 0.1
v 0.9 1.5 0.1
v 2.1 1.1 0.1
v 0.9 1.1 0.1
v 2.1 -0.1 1.3
v 0.9 -0.1 1.3
v 0.9 1.1 1.3
v 2.1 1.1 1.3
v 0.9 -0.1 1.7
v -2.3 -0.1 1.7
v -2.3 1.5 1.7
v 0.9 1.5 1.7
v -0.7 1.1 0.1
v -0.7 1.5 0.1
v -1.9 1.1 0.1
v -1.9 1.1 0.1
v -2.3 1.5 0.1
v -1.9 1.1 0.1
v -2.3 -0.1 0.1
v -1.9 -0.1 0.1
v -1.9 1.1 0.1
v 0.3 0.5 -2.7
v 0.3 -0.1 -2.7
v 1.5 -0.1 -2.7
v 1.5 0.5 -2.7
v 1.5 0.5 -1.5
v 1.5 -0.1 -1.5
v 2.5 -0.1 -1.5
v 2.5 1.5 -1.5
v 1.5 0.5 -1.5
v -0.7 1.5 -1.5
v 1.5 0.5 -1.5
v 1.5 0.5 -1.5
v 0.3 0.5 -1.5
v 0.3 0.5 -1.5
v -0.7 -0.1 -1.5
v 0.3 -0.1 -1.5
v 0.3 0.5 -1.5
v -1.9 1.1 -1.1
v -1.9 -0.1 -1.1
v -0.7 -0.1 -1.1
v -0.7 1.1 -1.1
vn -1 0 0
vn -1 0 0
vn -1 0 0
vn -1 0 0
vn -1 0 0
vn -1 0 0
vn -1 0 0
vn -1 0 0
vn -1 0 0
vn -1 0 0
vn -1 0 0
vn -1 0 0
vn -1 0 0
vn -1 0 0
vn -1 0 0
vn -1 0 0
vn -1 0 0
vn -1 0 0
vn -1 0 0
vn -1 0 0
vn -1 0 0
vn 1 0 0
vn 1 0 0
vn 1 0 0
vn 1 0 0
vn 1 0 0
vn 1 0 0
vn 1 0 0
vn 1 0 0
vn 1 0 0
vn 1 0 0
vn 1 0 0
vn 1 0 0
vn 1 0 0
vn 1 0 0
vn 1 0 0
vn 1 0 0
vn 1 0 0
vn 1 0 0
vn 1 0 0
vn 1 0 0
vn 1 0 0
vn 0 -1 0
vn 0 -1 0
vn 0 -1 0
vn 0 -1 0
vn 0 -1 0
vn 0 -1 0
vn 0 -1 0
vn 0 -1 0
vn 0 -1 0
vn 0 -1 0
vn 0 -1 0
vn 0 -1 0
vn 0 -1 0
vn 0 -1 0
vn 0 -1 0
vn 0 -1 0
vn 0 -1 0
vn 0 -1 0
vn 0 -1 0
vn 0 -1 0
vn 0 -1 0
vn 0 -1 0
vn 0 -1 0
vn 0 -1 0
vn 0 -1 0
vn 0 -1 0
vn 0 -1 0
vn 0 -1 0
vn 0 -1 0
vn 0 -1 0
vn 0 -1 0
vn 0 -1 0
vn 0 -1 0
vn 0 -1 0
vn 0 -1 0
vn 0 1 0
vn 0 1 0
vn 0 1 0
vn 0 1 0
vn 0 1 0
vn 0 1 0
vn 0 1 0
vn 0 1 0
vn 0 1 0
vn 0 1 0
vn 0 1 0
vn 0 1 0
vn 0 1 0
vn 0 1 0
vn 0 1 0
vn 0 1 0
vn 0 1 0
vn 0 1 0
vn 0 1 0
vn 0 1 0
vn 0 1 0
vn 0 1 0
vn 0 1 0
vn 0 1 0
vn 0 1 0
vn 0 1 0
vn 0 0 1
vn 0 0 1
vn 0 0 1
vn 0 0 1
vn 0 0 1
vn 0 0 1
vn 0 0 1
vn 0 0 1
vn 0 0 1
vn 0 0 1
vn 0 0 1
vn 0 0 1
vn 0 0 1
vn 0 0 1
vn 0 0 1
vn 0 0 1
vn 0 0 1
vn 0 0 -1
vn 0 0 -1
vn 0 0 -1
vn 0 0 -1
vn 0 0 -1
vn 0 0 -1
vn 0 0 -1
vn 0 0 -1
vn 0 0 -1
vn 0 0 -1
vn 0 0 -1
vn 0 0 -1
vn 0 0 -1
vn 0 0 -1
vn 0 0 -1
vn 0 0 -1
vn 0 0 -1
vn 0 0 -1
vn 0 0 -1
vn 0 0 -1
vn 0 0 -1
vn 0 0 -1
vn 0 0 -1
vn 0 0 -1
vn 0 0 -1
vn 0 0 -1
vn 0 0 -1
vn 0 0 -1
vn 0 0 -1
vn 0 0 -1
vt 0.3338047 0.333569
vt 0.666431 0.333569
vt 0.666431 0.6661953
vt 0.6662502 0.5832292
vt 0.3335416 0.6664064
vt 0.4167708 0.3337498
vt 0.6663023 0.6664584
vt 0.3338047 0.333569
vt 0.666431 0.333569
vt 0.3338047 0.333569
vt 0.666431 0.333569
vt 0.666431 0.6661953
vt 0.333569 0.666431
vt 0.3338047 0.333569
vt 0.666431 0.333569
vt 0.666431 0.6661953
vt 0.333569 0.666431
vt 0.3338047 0.333569
vt 0.666431 0.333569
vt 0.666431 0.6661953
vt 0.333569 0.666431
vt 0.666431 0.6661953
vt 0.666431 0.333569
vt 0.3338047 0.333569
vt 0.333569 0.666431
vt 0.666431 0.6661953
vt 0.666431 0.333569
vt 0.3338047 0.333569
vt 0.333569 0.666431
vt 0.666431 0.6661953
vt 0.666431 0.333569
vt 0.3338047 0.333569
vt 0.333569 0.666431
vt 0.4167708 0.6662502
vt 0.6663023 0.3335416
vt 0.3335936 0.3335416
vt 0.666431 0.666431
vt 0.3338047 0.666431
vt 0.3335416 0.6663023
vt 0.6662502 0.4167708
vt 0.666431 0.666431
vt 0.666431 0.3338047
vt 0.333569 0.333569
vt 0.333569 0.6661953
vt 0.6661953 0.333569
vt 0.4667054 0.3337208
vt 0.6663567 0.6664729
vt 0.333755 0.3339658
vt 0.4445499 0.6663504
vt 0.6661396 0.6663504
vt 0.5554798 0.333658
vt 0.333712 0.4762229
vt 0.666431 0.6661953
vt 0.666431 0.333569
vt 0.3338047 0.333569
vt 0.333569 0.666431
vt 0.333569 0.333569
vt 0.333569 0.6661953
vt 0.6661953 0.333569
vt 0.4584046 0.666341
vt 0.6662037 0.6188441
vt 0.3337251 0.3338625
vt 0.5237762 0.6663167
vt 0.6663333 0.5
vt 0.666431 0.666431
vt 0.666431 0.3338047
vt 0.3338047 0.666431
vt 0.666431 0.666431
vt 0.666431 0.3338047
vt 0.3338047 0.666431
vt 0.333705 0.4167658
vt 0.6248513 0.6663198
vt 0.6664437 0.3335811
vt 0.666431 0.666431
vt 0.3338047 0.666431
vt 0.333569 0.333569
vt 0.333569 0.6661953
vt 0.6661953 0.333569
vt 0.333569 0.6661953
vt 0.333569 0.333569
vt 0.6663893 0.6664818
vt 0.5 0.3337031
vt 0.3338047 0.333569
vt 0.666431 0.333569
vt 0.333569 0.3338047
vt 0.6661953 0.666431
vt 0.333569 0.666431
vt 0.6663893 0.3335182
vt 0.5 0.6662968
vt 0.3338047 0.666431
vt 0.666431 0.666431
vt 0.3338047 0.333569
vt 0.666431 0.333569
vt 0.666431 0.6661953
vt 0.333569 0.666431
vt 0.3338047 0.333569
vt 0.666431 0.333569
vt 0.666431 0.6661953
vt 0.333569 0.666431
vt 0.3338047 0.333569
vt 0.666431 0.333569
vt 0.666431 0.6661953
vt 0.333569 0.666431
vt 0.3338047 0.333569
vt 0.666431 0.333569
vt 0.666431 0.6661953
vt 0.6662502 0.5832292
vt 0.3335416 0.6664064
vt 0.4167708 0.3337498
vt 0.6663023 0.6664584
vt 0.3338047 0.333569
vt 0.666431 0.333569
vt 0.3338047 0.333569
vt 0.666431 0.333569
vt 0.666431 0.6661953
vt 0.333569 0.666431
vt 0.3338047 0.333569
vt 0.666431 0.333569
vt 0.666431 0.6661953
vt 0.333569 0.666431
vt 0.333569 0.333569
vt 0.333569 0.6661953
vt 0.6661953 0.333569
vt 0.5832292 0.3337498
vt 0.6664064 0.6664584
vt 0.3337498 0.5832292
vt 0.6664584 0.3336977
vt 0.333569 0.333569
vt 0.333569 0.6661953
vt 0.666431 0.6661953
vt 0.666431 0.333569
vt 0.3338047 0.333569
vt 0.333569 0.666431
vt 0.666431 0.6661953
vt 0.666431 0.333569
vt 0.3338047 0.333569
vt 0.3335294 0.6663481
vt 0.6662745 0.4583823
vt 0.6663257 0.6664646
vt 0.4375758 0.3337374
vt 0.3338464 0.3336653
vt 0.5151213 0.3336653
vt 0.3337255 0.4583823
vt 0.6664706 0.3336029
vt 0.333569 0.333569
vt 0.333569 0.6661953
vt 0.666431 0.6661953
vt 0.666431 0.333569
vt 0.3338047 0.333569
vt 0.333569 0.666431
usemtl EGA_Cloud_07_texture0
f 3/3/3 2/2/2 1/1/1
f 5/5/5 4/4/4 1/1/1
f 5/5/5 7/7/7 6/6/6
f 7/7/7 9/9/9 8/8/8
f 12/12/12 11/11/11 10/10/10
f 13/13/13 12/12/12 10/10/10
f 16/16/16 15/15/15 14/14/14
f 17/17/17 16/16/16 14/14/14
f 20/20/20 19/19/19 18/18/18
f 21/21/21 20/20/20 18/18/18
f 24/24/24 23/23/23 22/22/22
f 24/24/24 22/22/22 25/25/25
f 28/28/28 27/27/27 26/26/26
f 28/28/28 26/26/26 29/29/29
f 32/32/32 31/31/31 30/30/30
f 32/32/32 30/30/30 33/33/33
f 36/36/36 35/35/35 34/34/34
f 38/38/38 35/35/35 37/37/37
f 36/36/36 40/40/40 39/39/39
f 39/39/39 42/42/42 41/41/41
f 45/45/45 44/44/44 43/43/43
f 47/47/47 44/44/44 46/46/46
f 50/50/50 49/49/49 48/48/48
f 50/50/50 52/52/52 51/51/51
f 55/55/55 54/54/54 53/53/53
f 55/55/55 53/53/53 56/56/56
f 59/59/59 58/58/58 57/57/57
f 62/62/62 61/61/61 60/60/60
f 62/62/62 64/64/64 63/63/63
f 67/67/67 66/66/66 65/65/65
f 70/70/70 69/69/69 68/68/68
f 73/73/73 72/72/72 71/71/71
f 75/75/75 73/73/73 74/74/74
f 73/73/73 77/77/77 76/76/76
f 80/80/80 79/79/79 78/78/78
f 82/82/82 79/79/79 81/81/81
f 81/81/81 84/84/84 83/83/83
f 87/87/87 86/86/86 85/85/85
f 89/89/89 88/88/88 85/85/85
f 91/91/91 88/88/88 90/90/90
f 94/94/94 93/93/93 92/92/92
f 95/95/95 94/94/94 92/92/92
f 98/98/98 97/97/97 96/96/96
f 99/99/99 98/98/98 96/96/96
f 102/102/102 101/101/101 100/100/100
f 103/103/103 102/102/102 100/100/100
f 106/106/106 105/105/105 104/104/104
f 108/108/108 107/107/107 104/104/104
f 108/108/108 110/110/110 109/109/109
f 110/110/110 112/112/112 111/111/111
f 115/115/115 114/114/114 113/113/113
f 116/116/116 115/115/115 113/113/113
f 119/119/119 118/118/118 117/117/117
f 120/120/120 119/119/119 117/117/117
f 123/123/123 122/122/122 121/121/121
f 125/125/125 122/122/122 124/124/124
f 127/127/127 125/125/125 126/126/126
f 127/127/127 129/129/129 128/128/128
f 132/132/132 131/131/131 130/130/130
f 132/132/132 130/130/130 133/133/133
f 136/136/136 135/135/135 134/134/134
f 136/136/136 138/138/138 137/137/137
f 140/140/140 139/139/139 137/137/137
f 142/142/142 139/139/139 141/141/141
f 144/144/144 139/139/139 143/143/143
f 144/144/144 146/146/146 145/145/145
f 149/149/149 148/148/148 147/147/147
f 149/149/149 147/147/147 150/150/150
