mtllib EGA_Building_19_Big_Burger.mtl
g default
v 0.4999999 12.3 0.2999999
v 0.4999999 0.1 0.2999999
v -0.2999999 0.1 0.3
v -0.2999999 12.3 0.3
v 0.8999999 0.1 0.6999998
v 0.8999999 -0.1 0.6999998
v -0.6999998 -0.1 0.7
v -0.6999998 0.1 0.7
v 2.5 15.5 2.299999
v 2.5 14.7 2.299999
v -2.299999 14.7 2.3
v -2.299999 15.5 2.3
v 2.5 14.5 2.299999
v 2.5 13.7 2.299999
v -2.299999 13.7 2.3
v -2.299999 14.5 2.3
v 2.7 16.7 2.499999
v 2.7 15.5 2.499999
v -2.499999 15.5 2.5
v -2.499999 16.7 2.5
v 2.7 13.7 2.499999
v 2.7 13.3 2.499999
v -2.499999 13.3 2.5
v -2.499999 13.7 2.5
v 2.7 13.1 2.499999
v 2.7 12.3 2.499999
v -2.499999 12.3 2.5
v -2.499999 13.1 2.5
v 2.9 14.7 2.699999
v 2.9 14.5 2.699999
v -2.699999 14.5 2.7
v -2.699999 14.7 2.7
v 2.9 13.3 2.699999
v 2.9 13.1 2.699999
v -2.699999 13.1 2.7
v -2.699999 13.3 2.7
v -2.7 14.5 -2.899999
v 2.899999 14.5 -2.9
v 2.899999 14.7 -2.9
v -2.7 14.7 -2.899999
v -2.7 13.1 -2.899999
v 2.899999 13.1 -2.9
v 2.899999 13.3 -2.9
v -2.7 13.3 -2.899999
v -2.5 15.5 -2.699999
v 2.699999 15.5 -2.7
v 2.699999 16.7 -2.7
v -2.5 16.7 -2.699999
v -2.5 13.3 -2.699999
v 2.699999 13.3 -2.7
v 2.699999 13.7 -2.7
v -2.5 13.7 -2.699999
v -2.5 12.3 -2.699999
v 2.699999 12.3 -2.7
v 2.699999 13.1 -2.7
v -2.5 13.1 -2.699999
v -2.3 14.7 -2.499999
v 2.499999 14.7 -2.5
v 2.499999 15.5 -2.5
v -2.3 15.5 -2.499999
v -2.3 13.7 -2.499999
v 2.499999 13.7 -2.5
v 2.499999 14.5 -2.5
v -2.3 14.5 -2.499999
v -0.7 -0.1 -0.8999998
v 0.8999997 -0.1 -0.9
v 0.8999997 0.1 -0.9
v -0.7 0.1 -0.8999998
v -0.3 0.1 -0.4999999
v 0.4999999 0.1 -0.5
v 0.4999999 12.3 -0.5
v -0.3 12.3 -0.4999999
v -0.6999998 -0.1 0.7
v 0.8999999 -0.1 0.6999998
v 0.8999997 -0.1 -0.9
v -0.7 -0.1 -0.8999998
v 0.4999999 12.3 -0.5
v 2.7 12.3 2.499999
v 2.699999 12.3 -2.7
v 0.4999999 12.3 0.2999999
v 0.4999999 12.3 -0.5
v -2.5 12.3 -2.699999
v 0.4999999 12.3 -0.5
v -2.499999 12.3 2.5
v 0.4999999 12.3 0.2999999
v -0.3 12.3 -0.4999999
v -0.3 12.3 -0.4999999
v 0.4999999 12.3 -0.5
v -0.2999999 12.3 0.3
v 0.4999999 12.3 0.2999999
v -0.3 12.3 -0.4999999
v -0.2999999 12.3 0.3
v 2.499999 14.5 -2.5
v 2.9 14.5 2.699999
v 2.899999 14.5 -2.9
v 2.5 14.5 2.299999
v 2.499999 14.5 -2.5
v -2.7 14.5 -2.899999
v 2.499999 14.5 -2.5
v -2.699999 14.5 2.7
v 2.5 14.5 2.299999
v -2.3 14.5 -2.499999
v -2.3 14.5 -2.499999
v 2.499999 14.5 -2.5
v -2.299999 14.5 2.3
v 2.5 14.5 2.299999
v -2.3 14.5 -2.499999
v -2.299999 14.5 2.3
v 2.499999 15.5 -2.5
v 2.7 15.5 2.499999
v 2.699999 15.5 -2.7
v 2.5 15.5 2.299999
v 2.499999 15.5 -2.5
v -2.5 15.5 -2.699999
v 2.499999 15.5 -2.5
v -2.499999 15.5 2.5
v 2.5 15.5 2.299999
v -2.3 15.5 -2.499999
v -2.3 15.5 -2.499999
v 2.499999 15.5 -2.5
v -2.299999 15.5 2.3
v 2.5 15.5 2.299999
v -2.3 15.5 -2.499999
v -2.299999 15.5 2.3
v 2.699999 13.1 -2.7
v 2.9 13.1 2.699999
v 2.899999 13.1 -2.9
v 2.7 13.1 2.499999
v 2.699999 13.1 -2.7
v -2.7 13.1 -2.899999
v 2.699999 13.1 -2.7
v -2.699999 13.1 2.7
v 2.7 13.1 2.499999
v -2.5 13.1 -2.699999
v -2.5 13.1 -2.699999
v 2.699999 13.1 -2.7
v -2.499999 13.1 2.5
v 2.7 13.1 2.499999
v -2.5 13.1 -2.699999
v -2.499999 13.1 2.5
v 0.8999997 0.1 -0.9
v 0.8999999 0.1 0.6999998
v 0.4999999 0.1 -0.5
v 0.4999999 0.1 -0.5
v 0.4999999 0.1 0.2999999
v 0.4999999 0.1 -0.5
v -0.7 0.1 -0.8999998
v 0.4999999 0.1 0.2999999
v -0.6999998 0.1 0.7
v -0.3 0.1 -0.4999999
v 0.4999999 0.1 -0.5
v -0.3 0.1 -0.4999999
v 0.4999999 0.1 0.2999999
v -0.2999999 0.1 0.3
v -0.2999999 0.1 0.3
v -0.3 0.1 -0.4999999
v 2.899999 14.7 -2.9
v 2.9 14.7 2.699999
v 2.499999 14.7 -2.5
v 2.499999 14.7 -2.5
v 2.5 14.7 2.299999
v 2.499999 14.7 -2.5
v -2.7 14.7 -2.899999
v 2.5 14.7 2.299999
v -2.699999 14.7 2.7
v -2.3 14.7 -2.499999
v 2.499999 14.7 -2.5
v -2.3 14.7 -2.499999
v 2.5 14.7 2.299999
v -2.299999 14.7 2.3
v -2.299999 14.7 2.3
v -2.3 14.7 -2.499999
v 2.699999 13.7 -2.7
v 2.7 13.7 2.499999
v 2.499999 13.7 -2.5
v 2.499999 13.7 -2.5
v 2.5 13.7 2.299999
v 2.499999 13.7 -2.5
v -2.5 13.7 -2.699999
v 2.5 13.7 2.299999
v -2.499999 13.7 2.5
v -2.3 13.7 -2.499999
v 2.499999 13.7 -2.5
v -2.3 13.7 -2.499999
v 2.5 13.7 2.299999
v -2.299999 13.7 2.3
v -2.299999 13.7 2.3
v -2.3 13.7 -2.499999
v 2.699999 16.7 -2.7
v 2.7 16.7 2.499999
v -2.499999 16.7 2.5
v -2.5 16.7 -2.699999
v 2.899999 13.3 -2.9
v 2.9 13.3 2.699999
v 2.699999 13.3 -2.7
v 2.699999 13.3 -2.7
v 2.7 13.3 2.499999
v 2.699999 13.3 -2.7
v -2.7 13.3 -2.899999
v 2.7 13.3 2.499999
v -2.699999 13.3 2.7
v -2.5 13.3 -2.699999
v 2.699999 13.3 -2.7
v -2.5 13.3 -2.699999
v 2.7 13.3 2.499999
v -2.499999 13.3 2.5
v -2.499999 13.3 2.5
v -2.5 13.3 -2.699999
v 0.4999999 0.1 -0.5
v 0.4999999 0.1 0.2999999
v 0.4999999 12.3 0.2999999
v 0.4999999 12.3 -0.5
v 0.8999997 -0.1 -0.9
v 0.8999999 -0.1 0.6999998
v 0.8999999 0.1 0.6999998
v 0.8999997 0.1 -0.9
v 2.499999 13.7 -2.5
v 2.5 13.7 2.299999
v 2.5 14.5 2.299999
v 2.499999 14.5 -2.5
v 2.499999 14.7 -2.5
v 2.5 14.7 2.299999
v 2.5 15.5 2.299999
v 2.499999 15.5 -2.5
v 2.699999 12.3 -2.7
v 2.7 12.3 2.499999
v 2.7 13.1 2.499999
v 2.699999 13.1 -2.7
v 2.699999 13.3 -2.7
v 2.7 13.3 2.499999
v 2.7 13.7 2.499999
v 2.699999 13.7 -2.7
v 2.699999 15.5 -2.7
v 2.7 15.5 2.499999
v 2.7 16.7 2.499999
v 2.699999 16.7 -2.7
v 2.899999 13.1 -2.9
v 2.9 13.1 2.699999
v 2.9 13.3 2.699999
v 2.899999 13.3 -2.9
v 2.899999 14.5 -2.9
v 2.9 14.5 2.699999
v 2.9 14.7 2.699999
v 2.899999 14.7 -2.9
v -2.699999 13.3 2.7
v -2.699999 13.1 2.7
v -2.7 13.1 -2.899999
v -2.7 13.3 -2.899999
v -2.699999 14.7 2.7
v -2.699999 14.5 2.7
v -2.7 14.5 -2.899999
v -2.7 14.7 -2.899999
v -2.499999 13.1 2.5
v -2.499999 12.3 2.5
v -2.5 12.3 -2.699999
v -2.5 13.1 -2.699999
v -2.499999 13.7 2.5
v -2.499999 13.3 2.5
v -2.5 13.3 -2.699999
v -2.5 13.7 -2.699999
v -2.499999 16.7 2.5
v -2.499999 15.5 2.5
v -2.5 15.5 -2.699999
v -2.5 16.7 -2.699999
v -2.299999 14.5 2.3
v -2.299999 13.7 2.3
v -2.3 13.7 -2.499999
v -2.3 14.5 -2.499999
v -2.299999 15.5 2.3
v -2.299999 14.7 2.3
v -2.3 14.7 -2.499999
v -2.3 15.5 -2.499999
v -0.6999998 0.1 0.7
v -0.6999998 -0.1 0.7
v -0.7 -0.1 -0.8999998
v -0.7 0.1 -0.8999998
v -0.2999999 12.3 0.3
v -0.2999999 0.1 0.3
v -0.3 0.1 -0.4999999
v -0.3 12.3 -0.4999999
vn 1.192093E-07 0 0.9999999
vn 1.192093E-07 0 0.9999999
vn 1.192093E-07 0 0.9999999
vn 1.192093E-07 0 0.9999999
vn 1.192093E-07 0 0.9999999
vn 1.192093E-07 0 0.9999999
vn 1.192093E-07 0 0.9999999
vn 1.192093E-07 0 0.9999999
vn 1.192093E-07 0 0.9999999
vn 1.192093E-07 0 0.9999999
vn 1.192093E-07 0 0.9999999
vn 1.192093E-07 0 0.9999999
vn 1.192093E-07 0 0.9999999
vn 1.192093E-07 0 0.9999999
vn 1.192093E-07 0 0.9999999
vn 1.192093E-07 0 0.9999999
vn 1.192093E-07 0 0.9999999
vn 1.192093E-07 0 0.9999999
vn 1.192093E-07 0 0.9999999
vn 1.192093E-07 0 0.9999999
vn 1.192093E-07 0 0.9999999
vn 1.192093E-07 0 0.9999999
vn 1.192093E-07 0 0.9999999
vn 1.192093E-07 0 0.9999999
vn 1.192093E-07 0 0.9999999
vn 1.192093E-07 0 0.9999999
vn 1.192093E-07 0 0.9999999
vn 1.192093E-07 0 0.9999999
vn 1.192093E-07 0 0.9999999
vn 1.192093E-07 0 0.9999999
vn 1.192093E-07 0 0.9999999
vn 1.192093E-07 0 0.9999999
vn 1.192093E-07 0 0.9999999
vn 1.192093E-07 0 0.9999999
vn 1.192093E-07 0 0.9999999
vn 1.192093E-07 0 0.9999999
vn -1.192093E-07 0 -0.9999999
vn -1.192093E-07 0 -0.9999999
vn -1.192093E-07 0 -0.9999999
vn -1.192093E-07 0 -0.9999999
vn -1.192093E-07 0 -0.9999999
vn -1.192093E-07 0 -0.9999999
vn -1.192093E-07 0 -0.9999999
vn -1.192093E-07 0 -0.9999999
vn -1.192093E-07 0 -0.9999999
vn -1.192093E-07 0 -0.9999999
vn -1.192093E-07 0 -0.9999999
vn -1.192093E-07 0 -0.9999999
vn -1.192093E-07 0 -0.9999999
vn -1.192093E-07 0 -0.9999999
vn -1.192093E-07 0 -0.9999999
vn -1.192093E-07 0 -0.9999999
vn -1.192093E-07 0 -0.9999999
vn -1.192093E-07 0 -0.9999999
vn -1.192093E-07 0 -0.9999999
vn -1.192093E-07 0 -0.9999999
vn -1.192093E-07 0 -0.9999999
vn -1.192093E-07 0 -0.9999999
vn -1.192093E-07 0 -0.9999999
vn -1.192093E-07 0 -0.9999999
vn -1.192093E-07 0 -0.9999999
vn -1.192093E-07 0 -0.9999999
vn -1.192093E-07 0 -0.9999999
vn -1.192093E-07 0 -0.9999999
vn -1.192093E-07 0 -0.9999999
vn -1.192093E-07 0 -0.9999999
vn -1.192093E-07 0 -0.9999999
vn -1.192093E-07 0 -0.9999999
vn -1.192093E-07 0 -0.9999999
vn -1.192093E-07 0 -0.9999999
vn -1.192093E-07 0 -0.9999999
vn -1.192093E-07 0 -0.9999999
vn 0 -1 0
vn 0 -1 0
vn 0 -1 0
vn 0 -1 0
vn 0 -1 0
vn 0 -1 0
vn 0 -1 0
vn 0 -1 0
vn 0 -1 0
vn 0 -1 0
vn 0 -1 0
vn 0 -1 0
vn 0 -1 0
vn 0 -1 0
vn 0 -1 0
vn 0 -1 0
vn 0 -1 0
vn 0 -1 0
vn 0 -1 0
vn 0 -1 0
vn 0 -1 0
vn 0 -1 0
vn 0 -1 0
vn 0 -1 0
vn 0 -1 0
vn 0 -1 0
vn 0 -1 0
vn 0 -1 0
vn 0 -1 0
vn 0 -1 0
vn 0 -1 0
vn 0 -1 0
vn 0 -1 0
vn 0 -1 0
vn 0 -1 0
vn 0 -1 0
vn 0 -1 0
vn 0 -1 0
vn 0 -1 0
vn 0 -1 0
vn 0 -1 0
vn 0 -1 0
vn 0 -1 0
vn 0 -1 0
vn 0 -1 0
vn 0 -1 0
vn 0 -1 0
vn 0 -1 0
vn 0 -1 0
vn 0 -1 0
vn 0 -1 0
vn 0 -1 0
vn 0 -1 0
vn 0 -1 0
vn 0 -1 0
vn 0 -1 0
vn 0 -1 0
vn 0 -1 0
vn 0 -1 0
vn 0 -1 0
vn 0 -1 0
vn 0 -1 0
vn 0 -1 0
vn 0 -1 0
vn 0 -1 0
vn 0 -1 0
vn 0 -1 0
vn 0 -1 0
vn 0 1 0
vn 0 1 0
vn 0 1 0
vn 0 1 0
vn 0 1 0
vn 0 1 0
vn 0 1 0
vn 0 1 0
vn 0 1 0
vn 0 1 0
vn 0 1 0
vn 0 1 0
vn 0 1 0
vn 0 1 0
vn 0 1 0
vn 0 1 0
vn 0 1 0
vn 0 1 0
vn 0 1 0
vn 0 1 0
vn 0 1 0
vn 0 1 0
vn 0 1 0
vn 0 1 0
vn 0 1 0
vn 0 1 0
vn 0 1 0
vn 0 1 0
vn 0 1 0
vn 0 1 0
vn 0 1 0
vn 0 1 0
vn 0 1 0
vn 0 1 0
vn 0 1 0
vn 0 1 0
vn 0 1 0
vn 0 1 0
vn 0 1 0
vn 0 1 0
vn 0 1 0
vn 0 1 0
vn 0 1 0
vn 0 1 0
vn 0 1 0
vn 0 1 0
vn 0 1 0
vn 0 1 0
vn 0 1 0
vn 0 1 0
vn 0 1 0
vn 0 1 0
vn 0 1 0
vn 0 1 0
vn 0 1 0
vn 0 1 0
vn 0 1 0
vn 0 1 0
vn 0 1 0
vn 0 1 0
vn 0 1 0
vn 0 1 0
vn 0 1 0
vn 0 1 0
vn 0 1 0
vn 0 1 0
vn 0 1 0
vn 0 1 0
vn 0.9999999 0 -1.192093E-07
vn 0.9999999 0 -1.192093E-07
vn 0.9999999 0 -1.192093E-07
vn 0.9999999 0 -1.192093E-07
vn 0.9999999 0 -1.192093E-07
vn 0.9999999 0 -1.192093E-07
vn 0.9999999 0 -1.192093E-07
vn 0.9999999 0 -1.192093E-07
vn 0.9999999 0 -1.192093E-07
vn 0.9999999 0 -1.192093E-07
vn 0.9999999 0 -1.192093E-07
vn 0.9999999 0 -1.192093E-07
vn 0.9999999 0 -1.192093E-07
vn 0.9999999 0 -1.192093E-07
vn 0.9999999 0 -1.192093E-07
vn 0.9999999 0 -1.192093E-07
vn 0.9999999 0 -1.192093E-07
vn 0.9999999 0 -1.192093E-07
vn 0.9999999 0 -1.192093E-07
vn 0.9999999 0 -1.192093E-07
vn 0.9999999 0 -1.192093E-07
vn 0.9999999 0 -1.192093E-07
vn 0.9999999 0 -1.192093E-07
vn 0.9999999 0 -1.192093E-07
vn 0.9999999 0 -1.192093E-07
vn 0.9999999 0 -1.192093E-07
vn 0.9999999 0 -1.192093E-07
vn 0.9999999 0 -1.192093E-07
vn 0.9999999 0 -1.192093E-07
vn 0.9999999 0 -1.192093E-07
vn 0.9999999 0 -1.192093E-07
vn 0.9999999 0 -1.192093E-07
vn 0.9999999 0 -1.192093E-07
vn 0.9999999 0 -1.192093E-07
vn 0.9999999 0 -1.192093E-07
vn 0.9999999 0 -1.192093E-07
vn -0.9999999 0 1.192093E-07
vn -0.9999999 0 1.192093E-07
vn -0.9999999 0 1.192093E-07
vn -0.9999999 0 1.192093E-07
vn -0.9999999 0 1.192093E-07
vn -0.9999999 0 1.192093E-07
vn -0.9999999 0 1.192093E-07
vn -0.9999999 0 1.192093E-07
vn -0.9999999 0 1.192093E-07
vn -0.9999999 0 1.192093E-07
vn -0.9999999 0 1.192093E-07
vn -0.9999999 0 1.192093E-07
vn -0.9999999 0 1.192093E-07
vn -0.9999999 0 1.192093E-07
vn -0.9999999 0 1.192093E-07
vn -0.9999999 0 1.192093E-07
vn -0.9999999 0 1.192093E-07
vn -0.9999999 0 1.192093E-07
vn -0.9999999 0 1.192093E-07
vn -0.9999999 0 1.192093E-07
vn -0.9999999 0 1.192093E-07
vn -0.9999999 0 1.192093E-07
vn -0.9999999 0 1.192093E-07
vn -0.9999999 0 1.192093E-07
vn -0.9999999 0 1.192093E-07
vn -0.9999999 0 1.192093E-07
vn -0.9999999 0 1.192093E-07
vn -0.9999999 0 1.192093E-07
vn -0.9999999 0 1.192093E-07
vn -0.9999999 0 1.192093E-07
vn -0.9999999 0 1.192093E-07
vn -0.9999999 0 1.192093E-07
vn -0.9999999 0 1.192093E-07
vn -0.9999999 0 1.192093E-07
vn -0.9999999 0 1.192093E-07
vn -0.9999999 0 1.192093E-07
vt 0.1112682 0.6667845
vt 0.2221437 0.6667845
vt 0.2221437 0.8330976
vt 0.1111897 0.8332155
vt 0.1112682 0.6667845
vt 0.2221437 0.6667845
vt 0.2221437 0.8330976
vt 0.1111897 0.8332155
vt 0.4446016 0.6667845
vt 0.555477 0.6667845
vt 0.555477 0.8330976
vt 0.444523 0.8332155
vt 0.4446016 0.6667845
vt 0.555477 0.6667845
vt 0.555477 0.8330976
vt 0.444523 0.8332155
vt 0.7779349 0.6667845
vt 0.8888103 0.6667845
vt 0.8888103 0.8330976
vt 0.7778563 0.8332155
vt 0.1112682 0.1667845
vt 0.2221437 0.1667845
vt 0.2221437 0.3330976
vt 0.1111897 0.3332155
vt 0.7779349 0.6667845
vt 0.8888103 0.6667845
vt 0.8888103 0.8330976
vt 0.7778563 0.8332155
vt 0.4446016 0.1667845
vt 0.555477 0.1667845
vt 0.555477 0.3330976
vt 0.444523 0.3332155
vt 0.7779349 0.1667845
vt 0.8888103 0.1667845
vt 0.8888103 0.3330976
vt 0.7778563 0.3332155
vt 0.555477 0.3330976
vt 0.555477 0.1667845
vt 0.4446016 0.1667845
vt 0.444523 0.3332155
vt 0.8888103 0.3330976
vt 0.8888103 0.1667845
vt 0.7779349 0.1667845
vt 0.7778563 0.3332155
vt 0.8888103 0.8330976
vt 0.8888103 0.6667845
vt 0.7779349 0.6667845
vt 0.7778563 0.8332155
vt 0.2221437 0.3330976
vt 0.2221437 0.1667845
vt 0.1112682 0.1667845
vt 0.1111897 0.3332155
vt 0.8888103 0.8330976
vt 0.8888103 0.6667845
vt 0.7779349 0.6667845
vt 0.7778563 0.8332155
vt 0.555477 0.8330976
vt 0.555477 0.6667845
vt 0.4446016 0.6667845
vt 0.444523 0.8332155
vt 0.555477 0.8330976
vt 0.555477 0.6667845
vt 0.4446016 0.6667845
vt 0.444523 0.8332155
vt 0.2221437 0.8330976
vt 0.2221437 0.6667845
vt 0.1112682 0.6667845
vt 0.1111897 0.8332155
vt 0.2221437 0.8330976
vt 0.2221437 0.6667845
vt 0.1112682 0.6667845
vt 0.1111897 0.8332155
vt 0.2221437 0.8330976
vt 0.2221437 0.6667845
vt 0.1112682 0.6667845
vt 0.1111897 0.8332155
vt 0.8247961 0.8331417
vt 0.8887882 0.6667625
vt 0.7778687 0.6667625
vt 0.8074544 0.8331823
vt 0.7779053 0.8331823
vt 0.7778417 0.8331822
vt 0.8887611 0.7371942
vt 0.888825 0.8331822
vt 0.7779055 0.7371942
vt 0.8247961 0.6668583
vt 0.8887882 0.7111816
vt 0.8887882 0.666858
vt 0.7778785 0.7111816
vt 0.7778785 0.666858
vt 0.7779053 0.6668177
vt 0.8074544 0.6668177
vt 0.4524459 0.3331059
vt 0.5554094 0.1667804
vt 0.4445257 0.1667804
vt 0.5469368 0.3332061
vt 0.4446076 0.3332061
vt 0.4445203 0.333114
vt 0.5554039 0.1786689
vt 0.5554798 0.333114
vt 0.4445961 0.1786689
vt 0.4524459 0.1668941
vt 0.5554708 0.3204052
vt 0.5554708 0.1669113
vt 0.4445293 0.3204052
vt 0.4445293 0.1669113
vt 0.4446076 0.1667939
vt 0.5469368 0.1667939
vt 0.7821224 0.8331021
vt 0.8887377 0.6667823
vt 0.7778578 0.6667823
vt 0.8843692 0.8332107
vt 0.7779381 0.8332107
vt 0.7778549 0.8331066
vt 0.8887348 0.6731836
vt 0.8888118 0.8331066
vt 0.7779319 0.6731836
vt 0.7821224 0.6668979
vt 0.8888071 0.8265538
vt 0.8888071 0.6669071
vt 0.7778596 0.8265538
vt 0.7778596 0.6669071
vt 0.7779381 0.6667893
vt 0.8843692 0.6667893
vt 0.7818177 0.3331018
vt 0.8887373 0.1667824
vt 0.7778577 0.1667824
vt 0.8846982 0.333211
vt 0.7779378 0.333211
vt 0.777855 0.3331059
vt 0.8887345 0.1727265
vt 0.8888117 0.3331059
vt 0.7779321 0.1727265
vt 0.7818177 0.1668982
vt 0.8888074 0.3270473
vt 0.8888074 0.1669067
vt 0.7778593 0.3270473
vt 0.7778593 0.1669067
vt 0.7779378 0.166789
vt 0.8846982 0.166789
vt 0.1111979 0.6667708
vt 0.2221007 0.6667708
vt 0.1389236 0.8331251
vt 0.1112868 0.8331752
vt 0.18515 0.8331752
vt 0.2220834 0.7083854
vt 0.1111805 0.8331511
vt 0.1112499 0.7083854
vt 0.2221528 0.8331511
vt 0.1389236 0.6668749
vt 0.2221168 0.6669302
vt 0.2221168 0.7777251
vt 0.1112165 0.6669302
vt 0.1112165 0.7777251
vt 0.18515 0.6668248
vt 0.1112868 0.6668248
vt 0.4445257 0.1667804
vt 0.5554094 0.1667804
vt 0.4524459 0.3331059
vt 0.4446076 0.3332061
vt 0.5469368 0.3332061
vt 0.5554039 0.1786689
vt 0.4445203 0.333114
vt 0.4445961 0.1786689
vt 0.5554798 0.333114
vt 0.4524459 0.1668941
vt 0.5554708 0.1669113
vt 0.5554708 0.3204052
vt 0.4445293 0.1669113
vt 0.4445293 0.3204052
vt 0.5469368 0.1667939
vt 0.4446076 0.1667939
vt 0.1111911 0.1667823
vt 0.222071 0.1667823
vt 0.1154558 0.3331021
vt 0.1112714 0.3332107
vt 0.2177026 0.3332107
vt 0.2220681 0.1731836
vt 0.1111882 0.3331066
vt 0.1112653 0.1731836
vt 0.2221452 0.3331066
vt 0.1154558 0.1668979
vt 0.2221404 0.1669071
vt 0.2221404 0.3265538
vt 0.1111929 0.1669071
vt 0.1111929 0.3265538
vt 0.2177026 0.1667893
vt 0.1112714 0.1667893
vt 0.7779349 0.6667845
vt 0.8888103 0.6667845
vt 0.8888103 0.8330976
vt 0.7778563 0.8332155
vt 0.7778577 0.1667824
vt 0.8887373 0.1667824
vt 0.7818177 0.3331018
vt 0.7779378 0.333211
vt 0.8846982 0.333211
vt 0.8887345 0.1727265
vt 0.777855 0.3331059
vt 0.7779321 0.1727265
vt 0.8888117 0.3331059
vt 0.7818177 0.1668982
vt 0.8888074 0.1669067
vt 0.8888074 0.3270473
vt 0.7778593 0.1669067
vt 0.7778593 0.3270473
vt 0.8846982 0.166789
vt 0.7779378 0.166789
vt 0.1112682 0.6667845
vt 0.2221437 0.6667845
vt 0.2221437 0.8330976
vt 0.1111897 0.8332155
vt 0.1112682 0.6667845
vt 0.2221437 0.6667845
vt 0.2221437 0.8330976
vt 0.1111897 0.8332155
vt 0.4446016 0.6667845
vt 0.555477 0.6667845
vt 0.555477 0.8330976
vt 0.444523 0.8332155
vt 0.4446016 0.6667845
vt 0.555477 0.6667845
vt 0.555477 0.8330976
vt 0.444523 0.8332155
vt 0.7779349 0.6667845
vt 0.8888103 0.6667845
vt 0.8888103 0.8330976
vt 0.7778563 0.8332155
vt 0.1112682 0.1667845
vt 0.2221437 0.1667845
vt 0.2221437 0.3330976
vt 0.1111897 0.3332155
vt 0.7779349 0.6667845
vt 0.8888103 0.6667845
vt 0.8888103 0.8330976
vt 0.7778563 0.8332155
vt 0.7779349 0.1667845
vt 0.8888103 0.1667845
vt 0.8888103 0.3330976
vt 0.7778563 0.3332155
vt 0.4446016 0.1667845
vt 0.555477 0.1667845
vt 0.555477 0.3330976
vt 0.444523 0.3332155
vt 0.8888103 0.3330976
vt 0.8888103 0.1667845
vt 0.7779349 0.1667845
vt 0.7778563 0.3332155
vt 0.555477 0.3330976
vt 0.555477 0.1667845
vt 0.4446016 0.1667845
vt 0.444523 0.3332155
vt 0.8888103 0.8330976
vt 0.8888103 0.6667845
vt 0.7779349 0.6667845
vt 0.7778563 0.8332155
vt 0.2221437 0.3330976
vt 0.2221437 0.1667845
vt 0.1112682 0.1667845
vt 0.1111897 0.3332155
vt 0.8888103 0.8330976
vt 0.8888103 0.6667845
vt 0.7779349 0.6667845
vt 0.7778563 0.8332155
vt 0.555477 0.8330976
vt 0.555477 0.6667845
vt 0.4446016 0.6667845
vt 0.444523 0.8332155
vt 0.555477 0.8330976
vt 0.555477 0.6667845
vt 0.4446016 0.6667845
vt 0.444523 0.8332155
vt 0.2221437 0.8330976
vt 0.2221437 0.6667845
vt 0.1112682 0.6667845
vt 0.1111897 0.8332155
vt 0.2221437 0.8330976
vt 0.2221437 0.6667845
vt 0.1112682 0.6667845
vt 0.1111897 0.8332155
usemtl EGA_Building_19_Big_Burger_texture0
f 3/3/3 2/2/2 1/1/1
f 4/4/4 3/3/3 1/1/1
f 7/7/7 6/6/6 5/5/5
f 8/8/8 7/7/7 5/5/5
f 11/11/11 10/10/10 9/9/9
f 12/12/12 11/11/11 9/9/9
f 15/15/15 14/14/14 13/13/13
f 16/16/16 15/15/15 13/13/13
f 19/19/19 18/18/18 17/17/17
f 20/20/20 19/19/19 17/17/17
f 23/23/23 22/22/22 21/21/21
f 24/24/24 23/23/23 21/21/21
f 27/27/27 26/26/26 25/25/25
f 28/28/28 27/27/27 25/25/25
f 31/31/31 30/30/30 29/29/29
f 32/32/32 31/31/31 29/29/29
f 35/35/35 34/34/34 33/33/33
f 36/36/36 35/35/35 33/33/33
f 39/39/39 38/38/38 37/37/37
f 39/39/39 37/37/37 40/40/40
f 43/43/43 42/42/42 41/41/41
f 43/43/43 41/41/41 44/44/44
f 47/47/47 46/46/46 45/45/45
f 47/47/47 45/45/45 48/48/48
f 51/51/51 50/50/50 49/49/49
f 51/51/51 49/49/49 52/52/52
f 55/55/55 54/54/54 53/53/53
f 55/55/55 53/53/53 56/56/56
f 59/59/59 58/58/58 57/57/57
f 59/59/59 57/57/57 60/60/60
f 63/63/63 62/62/62 61/61/61
f 63/63/63 61/61/61 64/64/64
f 67/67/67 66/66/66 65/65/65
f 67/67/67 65/65/65 68/68/68
f 71/71/71 70/70/70 69/69/69
f 71/71/71 69/69/69 72/72/72
f 75/75/75 74/74/74 73/73/73
f 75/75/75 73/73/73 76/76/76
f 79/79/79 78/78/78 77/77/77
f 81/81/81 78/78/78 80/80/80
f 79/79/79 83/83/83 82/82/82
f 85/85/85 78/78/78 84/84/84
f 86/86/86 84/84/84 82/82/82
f 82/82/82 88/88/88 87/87/87
f 90/90/90 84/84/84 89/89/89
f 92/92/92 84/84/84 91/91/91
f 95/95/95 94/94/94 93/93/93
f 97/97/97 94/94/94 96/96/96
f 95/95/95 99/99/99 98/98/98
f 101/101/101 94/94/94 100/100/100
f 102/102/102 100/100/100 98/98/98
f 98/98/98 104/104/104 103/103/103
f 106/106/106 100/100/100 105/105/105
f 108/108/108 100/100/100 107/107/107
f 111/111/111 110/110/110 109/109/109
f 113/113/113 110/110/110 112/112/112
f 111/111/111 115/115/115 114/114/114
f 117/117/117 110/110/110 116/116/116
f 118/118/118 116/116/116 114/114/114
f 114/114/114 120/120/120 119/119/119
f 122/122/122 116/116/116 121/121/121
f 124/124/124 116/116/116 123/123/123
f 127/127/127 126/126/126 125/125/125
f 129/129/129 126/126/126 128/128/128
f 127/127/127 131/131/131 130/130/130
f 133/133/133 126/126/126 132/132/132
f 134/134/134 132/132/132 130/130/130
f 130/130/130 136/136/136 135/135/135
f 138/138/138 132/132/132 137/137/137
f 140/140/140 132/132/132 139/139/139
f 143/143/143 142/142/142 141/141/141
f 145/145/145 142/142/142 144/144/144
f 147/147/147 146/146/146 141/141/141
f 149/149/149 142/142/142 148/148/148
f 147/147/147 149/149/149 150/150/150
f 152/152/152 151/151/151 147/147/147
f 154/154/154 149/149/149 153/153/153
f 156/156/156 149/149/149 155/155/155
f 159/159/159 158/158/158 157/157/157
f 161/161/161 158/158/158 160/160/160
f 163/163/163 162/162/162 157/157/157
f 165/165/165 158/158/158 164/164/164
f 163/163/163 165/165/165 166/166/166
f 168/168/168 167/167/167 163/163/163
f 170/170/170 165/165/165 169/169/169
f 172/172/172 165/165/165 171/171/171
f 175/175/175 174/174/174 173/173/173
f 177/177/177 174/174/174 176/176/176
f 179/179/179 178/178/178 173/173/173
f 181/181/181 174/174/174 180/180/180
f 179/179/179 181/181/181 182/182/182
f 184/184/184 183/183/183 179/179/179
f 186/186/186 181/181/181 185/185/185
f 188/188/188 181/181/181 187/187/187
f 191/191/191 190/190/190 189/189/189
f 192/192/192 191/191/191 189/189/189
f 195/195/195 194/194/194 193/193/193
f 197/197/197 194/194/194 196/196/196
f 199/199/199 198/198/198 193/193/193
f 201/201/201 194/194/194 200/200/200
f 199/199/199 201/201/201 202/202/202
f 204/204/204 203/203/203 199/199/199
f 206/206/206 201/201/201 205/205/205
f 208/208/208 201/201/201 207/207/207
f 211/211/211 210/210/210 209/209/209
f 212/212/212 211/211/211 209/209/209
f 215/215/215 214/214/214 213/213/213
f 216/216/216 215/215/215 213/213/213
f 219/219/219 218/218/218 217/217/217
f 220/220/220 219/219/219 217/217/217
f 223/223/223 222/222/222 221/221/221
f 224/224/224 223/223/223 221/221/221
f 227/227/227 226/226/226 225/225/225
f 228/228/228 227/227/227 225/225/225
f 231/231/231 230/230/230 229/229/229
f 232/232/232 231/231/231 229/229/229
f 235/235/235 234/234/234 233/233/233
f 236/236/236 235/235/235 233/233/233
f 239/239/239 238/238/238 237/237/237
f 240/240/240 239/239/239 237/237/237
f 243/243/243 242/242/242 241/241/241
f 244/244/244 243/243/243 241/241/241
f 247/247/247 246/246/246 245/245/245
f 247/247/247 245/245/245 248/248/248
f 251/251/251 250/250/250 249/249/249
f 251/251/251 249/249/249 252/252/252
f 255/255/255 254/254/254 253/253/253
f 255/255/255 253/253/253 256/256/256
f 259/259/259 258/258/258 257/257/257
f 259/259/259 257/257/257 260/260/260
f 263/263/263 262/262/262 261/261/261
f 263/263/263 261/261/261 264/264/264
f 267/267/267 266/266/266 265/265/265
f 267/267/267 265/265/265 268/268/268
f 271/271/271 270/270/270 269/269/269
f 271/271/271 269/269/269 272/272/272
f 275/275/275 274/274/274 273/273/273
f 275/275/275 273/273/273 276/276/276
f 279/279/279 278/278/278 277/277/277
f 279/279/279 277/277/277 280/280/280
