mtllib EGA_Cloud_02.mtl
g default
v -2.1 1.5 2.3
v -2.1 -0.1 2.3
v -2.1 -0.1 -2.5
v -2.1 1.5 -2.5
v 2.7 -0.1 -0.9
v 2.7 -0.1 2.3
v 2.7 1.5 2.3
v 2.7 1.5 -0.9
v 1.1 -0.1 -2.5
v 1.1 -0.1 -0.9
v 1.1 1.5 -0.9
v 1.1 1.5 -2.5
v 1.1 -0.1 -0.9
v -2.1 -0.1 2.3
v 2.7 -0.1 2.3
v -2.1 -0.1 -2.5
v 1.1 -0.1 -0.9
v 2.7 -0.1 -0.9
v 1.1 -0.1 -0.9
v 1.1 -0.1 -2.5
v 1.1 -0.1 -0.9
v 2.7 1.5 2.3
v -2.1 1.5 2.3
v 1.1 1.5 -0.9
v 1.1 1.5 -0.9
v -2.1 1.5 -2.5
v 1.1 1.5 -0.9
v 2.7 1.5 -0.9
v 1.1 1.5 -0.9
v 1.1 1.5 -2.5
v 2.7 -0.1 2.3
v -2.1 -0.1 2.3
v -2.1 1.5 2.3
v 2.7 1.5 2.3
v -2.1 1.5 -2.5
v -2.1 -0.1 -2.5
v 1.1 -0.1 -2.5
v 1.1 1.5 -2.5
v 1.1 1.5 -0.9
v 1.1 -0.1 -0.9
v 2.7 -0.1 -0.9
v 2.7 1.5 -0.9
vn -1 0 0
vn -1 0 0
vn -1 0 0
vn -1 0 0
vn 1 0 0
vn 1 0 0
vn 1 0 0
vn 1 0 0
vn 1 0 0
vn 1 0 0
vn 1 0 0
vn 1 0 0
vn 0 -1 0
vn 0 -1 0
vn 0 -1 0
vn 0 -1 0
vn 0 -1 0
vn 0 -1 0
vn 0 -1 0
vn 0 -1 0
vn 0 -1 0
vn 0 1 0
vn 0 1 0
vn 0 1 0
vn 0 1 0
vn 0 1 0
vn 0 1 0
vn 0 1 0
vn 0 1 0
vn 0 1 0
vn 0 0 1
vn 0 0 1
vn 0 0 1
vn 0 0 1
vn 0 0 -1
vn 0 0 -1
vn 0 0 -1
vn 0 0 -1
vn 0 0 -1
vn 0 0 -1
vn 0 0 -1
vn 0 0 -1
vt 0.3338047 0.333569
vt 0.666431 0.333569
vt 0.666431 0.6661953
vt 0.333569 0.666431
vt 0.666431 0.6661953
vt 0.666431 0.333569
vt 0.3338047 0.333569
vt 0.333569 0.666431
vt 0.666431 0.6661953
vt 0.666431 0.333569
vt 0.3338047 0.333569
vt 0.333569 0.666431
vt 0.4445111 0.6662667
vt 0.6663333 0.3335333
vt 0.3336 0.3335333
vt 0.6664667 0.6664
vt 0.3337333 0.5554889
vt 0.333569 0.666431
vt 0.6661953 0.666431
vt 0.333569 0.666431
vt 0.333569 0.3338047
vt 0.3336 0.3335333
vt 0.6663333 0.3335333
vt 0.4445111 0.6662667
vt 0.3337333 0.5554889
vt 0.6664667 0.6664
vt 0.6661953 0.666431
vt 0.333569 0.666431
vt 0.333569 0.3338047
vt 0.333569 0.666431
vt 0.3338047 0.333569
vt 0.666431 0.333569
vt 0.666431 0.6661953
vt 0.333569 0.666431
vt 0.666431 0.6661953
vt 0.666431 0.333569
vt 0.3338047 0.333569
vt 0.333569 0.666431
vt 0.666431 0.6661953
vt 0.666431 0.333569
vt 0.3338047 0.333569
vt 0.333569 0.666431
usemtl EGA_Cloud_02_texture0
f 3/3/3 2/2/2 1/1/1
f 4/4/4 3/3/3 1/1/1
f 7/7/7 6/6/6 5/5/5
f 7/7/7 5/5/5 8/8/8
f 11/11/11 10/10/10 9/9/9
f 11/11/11 9/9/9 12/12/12
f 15/15/15 14/14/14 13/13/13
f 17/17/17 14/14/14 16/16/16
f 15/15/15 19/19/19 18/18/18
f 21/21/21 16/16/16 20/20/20
f 24/24/24 23/23/23 22/22/22
f 26/26/26 23/23/23 25/25/25
f 28/28/28 27/27/27 22/22/22
f 30/30/30 26/26/26 29/29/29
f 33/33/33 32/32/32 31/31/31
f 34/34/34 33/33/33 31/31/31
f 37/37/37 36/36/36 35/35/35
f 37/37/37 35/35/35 38/38/38
f 41/41/41 40/40/40 39/39/39
f 41/41/41 39/39/39 42/42/42
