mtllib EGA_Crane_Game_01_Window.mtl
g default
v -1.125 2.375 0.075
v -1.125 -0.025 0.075
v -1.125 -0.025 -0.025
v -1.125 2.375 -0.025
v 1.175 -0.025 -0.025
v 1.175 -0.025 0.075
v 1.175 2.375 0.075
v 1.175 2.375 -0.025
v -1.125 -0.025 -0.025
v -1.125 -0.025 0.075
v 1.175 -0.025 0.075
v 1.175 -0.025 -0.025
v 1.175 2.375 0.075
v -1.125 2.375 0.075
v -1.125 2.375 -0.025
v 1.175 2.375 -0.025
v 1.175 -0.025 0.075
v -1.125 -0.025 0.075
v -1.125 2.375 0.075
v 1.175 2.375 0.075
v -1.125 2.375 -0.025
v -1.125 -0.025 -0.025
v 1.175 -0.025 -0.025
v 1.175 2.375 -0.025
vn -1 0 0
vn -1 0 0
vn -1 0 0
vn -1 0 0
vn 1 0 0
vn 1 0 0
vn 1 0 0
vn 1 0 0
vn 0 -1 0
vn 0 -1 0
vn 0 -1 0
vn 0 -1 0
vn 0 1 0
vn 0 1 0
vn 0 1 0
vn 0 1 0
vn 0 0 1
vn 0 0 1
vn 0 0 1
vn 0 0 1
vn 0 0 -1
vn 0 0 -1
vn 0 0 -1
vn 0 0 -1
vt 0.3338047 0.333569
vt 0.666431 0.333569
vt 0.666431 0.6661953
vt 0.333569 0.666431
vt 0.666431 0.6661953
vt 0.666431 0.333569
vt 0.3338047 0.333569
vt 0.333569 0.666431
vt 0.666431 0.6661953
vt 0.666431 0.333569
vt 0.3338047 0.333569
vt 0.333569 0.666431
vt 0.3338047 0.333569
vt 0.666431 0.333569
vt 0.666431 0.6661953
vt 0.333569 0.666431
vt 0.3338047 0.333569
vt 0.666431 0.333569
vt 0.666431 0.6661953
vt 0.333569 0.666431
vt 0.666431 0.6661953
vt 0.666431 0.333569
vt 0.3338047 0.333569
vt 0.333569 0.666431
usemtl EGA_Crane_Game_01_Window_texture0
f 3/3/3 2/2/2 1/1/1
f 4/4/4 3/3/3 1/1/1
f 7/7/7 6/6/6 5/5/5
f 7/7/7 5/5/5 8/8/8
f 11/11/11 10/10/10 9/9/9
f 11/11/11 9/9/9 12/12/12
f 15/15/15 14/14/14 13/13/13
f 16/16/16 15/15/15 13/13/13
f 19/19/19 18/18/18 17/17/17
f 20/20/20 19/19/19 17/17/17
f 23/23/23 22/22/22 21/21/21
f 23/23/23 21/21/21 24/24/24
