mtllib EGA_Building_Door_04.mtl
g default
v 0.3000001 3.7 1.3
v 0.3000001 -0.1 1.3
v 0.1000001 -0.1 1.3
v 0.1000001 3.7 1.3
v 0.09999994 1.9 -0.3
v 0.09999994 1.7 -0.3
v -0.1 1.7 -0.3
v -0.1 1.9 -0.3
v 0.09999982 -0.1 -1.3
v 0.2999998 -0.1 -1.3
v 0.2999998 3.7 -1.3
v 0.09999982 3.7 -1.3
v -0.1000001 1.7 -0.8999999
v 0.09999987 1.7 -0.8999999
v 0.09999987 1.9 -0.8999999
v -0.1000001 1.9 -0.8999999
v 0.1000001 -0.1 1.3
v 0.3000001 -0.1 1.3
v 0.2999998 -0.1 -1.3
v 0.09999982 -0.1 -1.3
v -0.1 1.7 -0.3
v 0.09999994 1.7 -0.3
v 0.09999987 1.7 -0.8999999
v -0.1000001 1.7 -0.8999999
v 0.09999987 1.9 -0.8999999
v 0.09999994 1.9 -0.3
v -0.1 1.9 -0.3
v -0.1000001 1.9 -0.8999999
v 0.2999998 3.7 -1.3
v 0.3000001 3.7 1.3
v 0.1000001 3.7 1.3
v 0.09999982 3.7 -1.3
v 0.2999998 -0.1 -1.3
v 0.3000001 -0.1 1.3
v 0.3000001 3.7 1.3
v 0.2999998 -0.1 -1.3
v 0.3000001 3.7 1.3
v 0.2999998 3.7 -1.3
v -0.1 1.9 -0.3
v -0.1 1.7 -0.3
v -0.1000001 1.7 -0.8999999
v -0.1000001 1.9 -0.8999999
v 0.09999982 -0.1 -1.3
v 0.09999994 1.7 -0.3
v 0.1000001 -0.1 1.3
v 0.09999987 1.7 -0.8999999
v 0.09999994 1.7 -0.3
v 0.09999982 -0.1 -1.3
v 0.1000001 3.7 1.3
v 0.1000001 -0.1 1.3
v 0.09999994 1.7 -0.3
v 0.09999994 1.9 -0.3
v 0.09999994 1.7 -0.3
v 0.09999982 -0.1 -1.3
v 0.09999987 1.9 -0.8999999
v 0.09999987 1.7 -0.8999999
v 0.09999982 3.7 -1.3
v 0.09999987 1.9 -0.8999999
v 0.09999994 1.9 -0.3
v 0.09999982 3.7 -1.3
v 0.1000001 3.7 1.3
v 0.09999987 1.9 -0.8999999
v 0.09999982 3.7 -1.3
v 0.09999994 1.9 -0.3
vn 1.192093E-07 0 0.9999999
vn 1.192093E-07 0 0.9999999
vn 1.192093E-07 0 0.9999999
vn 1.192093E-07 0 0.9999999
vn 1.192093E-07 0 0.9999999
vn 1.192093E-07 0 0.9999999
vn 1.192093E-07 0 0.9999999
vn 1.192093E-07 0 0.9999999
vn -1.192093E-07 0 -0.9999999
vn -1.192093E-07 0 -0.9999999
vn -1.192093E-07 0 -0.9999999
vn -1.192093E-07 0 -0.9999999
vn -1.192093E-07 0 -0.9999999
vn -1.192093E-07 0 -0.9999999
vn -1.192093E-07 0 -0.9999999
vn -1.192093E-07 0 -0.9999999
vn 0 -1 0
vn 0 -1 0
vn 0 -1 0
vn 0 -1 0
vn 0 -1 0
vn 0 -1 0
vn 0 -1 0
vn 0 -1 0
vn 0 1 0
vn 0 1 0
vn 0 1 0
vn 0 1 0
vn 0 1 0
vn 0 1 0
vn 0 1 0
vn 0 1 0
vn 0.9999999 0 -1.192093E-07
vn 0.9999999 0 -1.192093E-07
vn 0.9999999 0 -1.192093E-07
vn 0.9999999 0 -1.192093E-07
vn 0.9999999 0 -1.192093E-07
vn 0.9999999 0 -1.192093E-07
vn -0.9999999 0 1.192093E-07
vn -0.9999999 0 1.192093E-07
vn -0.9999999 0 1.192093E-07
vn -0.9999999 0 1.192093E-07
vn -0.9999999 0 1.192093E-07
vn -0.9999999 0 1.192093E-07
vn -0.9999999 0 1.192093E-07
vn -0.9999999 0 1.192093E-07
vn -0.9999999 0 1.192093E-07
vn -0.9999999 0 1.192093E-07
vn -0.9999999 0 1.192093E-07
vn -0.9999999 0 1.192093E-07
vn -0.9999999 0 1.192093E-07
vn -0.9999999 0 1.192093E-07
vn -0.9999999 0 1.192093E-07
vn -0.9999999 0 1.192093E-07
vn -0.9999999 0 1.192093E-07
vn -0.9999999 0 1.192093E-07
vn -0.9999999 0 1.192093E-07
vn -0.9999999 0 1.192093E-07
vn -0.9999999 0 1.192093E-07
vn -0.9999999 0 1.192093E-07
vn -0.9999999 0 1.192093E-07
vn -0.9999999 0 1.192093E-07
vn -0.9999999 0 1.192093E-07
vn -0.9999999 0 1.192093E-07
vt 0.6000943 0.09527177
vt 0.6666195 0.09527177
vt 0.6666195 0.1427898
vt 0.6000471 0.1428235
vt 0.6000943 0.09527177
vt 0.6666195 0.09527177
vt 0.6666195 0.1427898
vt 0.6000471 0.1428235
vt 0.6666195 0.1427898
vt 0.6666195 0.09527177
vt 0.6000943 0.09527177
vt 0.6000471 0.1428235
vt 0.6666195 0.1427898
vt 0.6666195 0.09527177
vt 0.6000943 0.09527177
vt 0.6000471 0.1428235
vt 0.6666195 0.1427898
vt 0.6666195 0.09527177
vt 0.6000943 0.09527177
vt 0.6000471 0.1428235
vt 0.6666195 0.1427898
vt 0.6666195 0.09527177
vt 0.6000943 0.09527177
vt 0.6000471 0.1428235
vt 0.6000943 0.09527177
vt 0.6666195 0.09527177
vt 0.6666195 0.1427898
vt 0.6000471 0.1428235
vt 0.6000943 0.09527177
vt 0.6666195 0.09527177
vt 0.6666195 0.1427898
vt 0.6000471 0.1428235
vt 0.460695 0.09262806
vt 0.5393494 0.09262806
vt 0.5393494 0.1427862
vt 0.06671278 0.04768782
vt 0.9332411 0.9523466
vt 0.06671278 0.9523466
vt 0.6666195 0.1427898
vt 0.6666195 0.09527177
vt 0.6000943 0.09527177
vt 0.6000471 0.1428235
vt 0.4606566 0.08931675
vt 0.4909175 0.1427951
vt 0.539335 0.08931675
vt 0.1500123 0.8570961
vt 0.1999017 0.8570961
vt 0.1167527 0.8096174
vt 0.123843 0.8571002
vt 0.123843 0.8095649
vt 0.199933 0.8320817
vt 0.1999513 0.8143182
vt 0.1999513 0.8095685
vt 0.06678431 0.809577
vt 0.1999412 0.8571121
vt 0.1999412 0.8523585
vt 0.06671422 0.8571095
vt 0.1999049 0.8345852
vt 0.5090825 0.1427951
vt 0.5393434 0.08931675
vt 0.460665 0.08931675
vt 0.1500123 0.8095706
vt 0.1167527 0.8570492
vt 0.1999017 0.8095706
usemtl EGA_Building_Door_04_texture0
f 3/3/3 2/2/2 1/1/1
f 4/4/4 3/3/3 1/1/1
f 7/7/7 6/6/6 5/5/5
f 8/8/8 7/7/7 5/5/5
f 11/11/11 10/10/10 9/9/9
f 11/11/11 9/9/9 12/12/12
f 15/15/15 14/14/14 13/13/13
f 15/15/15 13/13/13 16/16/16
f 19/19/19 18/18/18 17/17/17
f 19/19/19 17/17/17 20/20/20
f 23/23/23 22/22/22 21/21/21
f 23/23/23 21/21/21 24/24/24
f 27/27/27 26/26/26 25/25/25
f 28/28/28 27/27/27 25/25/25
f 31/31/31 30/30/30 29/29/29
f 32/32/32 31/31/31 29/29/29
f 35/35/35 34/34/34 33/33/33
f 38/38/38 37/37/37 36/36/36
f 41/41/41 40/40/40 39/39/39
f 41/41/41 39/39/39 42/42/42
f 45/45/45 44/44/44 43/43/43
f 48/48/48 47/47/47 46/46/46
f 51/51/51 50/50/50 49/49/49
f 53/53/53 49/49/49 52/52/52
f 56/56/56 55/55/55 54/54/54
f 54/54/54 58/58/58 57/57/57
f 61/61/61 60/60/60 59/59/59
f 64/64/64 63/63/63 62/62/62
