mtllib EGA_Shop_Door_02.mtl
g default
v 0.1000001 3.3 0.8999999
v 0.1000001 2.3 0.8999999
v -0.09999987 2.3 0.8999999
v -0.09999987 3.3 0.8999999
v 0.1000001 1.9 0.8999999
v 0.1000001 1.7 0.8999999
v -0.09999987 1.7 0.8999999
v -0.09999987 1.9 0.8999999
v 0.3000001 3.9 1.1
v 0.3000001 -0.1 1.1
v 0.1000001 -0.1 1.1
v 0.1000001 3.9 1.1
v 0.09999985 3.1 -1.1
v 0.09999985 2.5 -1.1
v -0.1000001 2.5 -1.1
v -0.1000001 3.1 -1.1
v -0.0999999 2.5 0.6999999
v 0.1000001 2.5 0.6999999
v 0.1000001 3.1 0.6999999
v -0.0999999 3.1 0.6999999
v -0.0999999 1.7 0.6999999
v 0.1000001 1.7 0.6999999
v 0.1000001 1.9 0.6999999
v -0.0999999 1.9 0.6999999
v 0.0999998 -0.1 -1.5
v 0.2999998 -0.1 -1.5
v 0.2999998 3.9 -1.5
v 0.0999998 3.9 -1.5
v -0.1000001 2.3 -1.3
v 0.09999982 2.3 -1.3
v 0.09999982 3.3 -1.3
v -0.1000001 3.3 -1.3
v 0.1000001 -0.1 1.1
v 0.3000001 -0.1 1.1
v 0.2999998 -0.1 -1.5
v 0.0999998 -0.1 -1.5
v -0.0999999 3.1 0.6999999
v 0.1000001 3.1 0.6999999
v 0.09999985 3.1 -1.1
v -0.1000001 3.1 -1.1
v -0.09999987 2.3 0.8999999
v 0.1000001 2.3 0.8999999
v 0.09999982 2.3 -1.3
v -0.1000001 2.3 -1.3
v -0.09999987 1.7 0.8999999
v 0.1000001 1.7 0.8999999
v 0.1000001 1.7 0.6999999
v -0.0999999 1.7 0.6999999
v 0.09999982 3.3 -1.3
v 0.1000001 3.3 0.8999999
v -0.09999987 3.3 0.8999999
v -0.1000001 3.3 -1.3
v 0.09999985 2.5 -1.1
v 0.1000001 2.5 0.6999999
v -0.0999999 2.5 0.6999999
v -0.1000001 2.5 -1.1
v 0.1000001 1.9 0.6999999
v 0.1000001 1.9 0.8999999
v -0.09999987 1.9 0.8999999
v -0.0999999 1.9 0.6999999
v 0.2999998 3.9 -1.5
v 0.3000001 3.9 1.1
v 0.1000001 3.9 1.1
v 0.0999998 3.9 -1.5
v 0.2999998 -0.1 -1.5
v 0.3000001 -0.1 1.1
v 0.3000001 3.9 1.1
v 0.2999998 -0.1 -1.5
v 0.3000001 3.9 1.1
v 0.2999998 3.9 -1.5
v -0.1000001 2.5 -1.1
v -0.09999987 2.3 0.8999999
v -0.1000001 2.3 -1.3
v -0.0999999 2.5 0.6999999
v -0.1000001 2.5 -1.1
v -0.1000001 3.3 -1.3
v -0.1000001 2.5 -1.1
v -0.09999987 3.3 0.8999999
v -0.0999999 2.5 0.6999999
v -0.1000001 3.1 -1.1
v -0.1000001 3.1 -1.1
v -0.1000001 2.5 -1.1
v -0.0999999 3.1 0.6999999
v -0.0999999 2.5 0.6999999
v -0.1000001 3.1 -1.1
v -0.0999999 3.1 0.6999999
v -0.09999987 1.9 0.8999999
v -0.09999987 1.7 0.8999999
v -0.0999999 1.7 0.6999999
v -0.0999999 1.9 0.6999999
v 0.1000001 1.7 0.6999999
v 0.1000001 -0.1 1.1
v 0.0999998 -0.1 -1.5
v 0.1000001 1.7 0.8999999
v 0.1000001 1.7 0.6999999
v 0.09999982 2.3 -1.3
v 0.1000001 1.7 0.6999999
v 0.1000001 1.7 0.8999999
v 0.1000001 1.9 0.8999999
v 0.0999998 3.9 -1.5
v 0.09999982 2.3 -1.3
v 0.1000001 3.9 1.1
v 0.1000001 1.9 0.8999999
v 0.09999982 3.3 -1.3
v 0.09999982 3.3 -1.3
v 0.09999982 2.3 -1.3
v 0.1000001 1.9 0.8999999
v 0.1000001 2.3 0.8999999
v 0.1000001 3.3 0.8999999
v 0.1000001 2.3 0.8999999
v 0.09999982 3.3 -1.3
v 0.1000001 3.3 0.8999999
v 0.1000001 1.9 0.6999999
v 0.1000001 1.7 0.6999999
v 0.09999982 2.3 -1.3
v 0.1000001 2.3 0.8999999
v 0.1000001 1.9 0.6999999
v 0.1000001 1.9 0.8999999
v 0.1000001 1.9 0.6999999
v 0.1000001 3.1 0.6999999
v 0.1000001 2.5 0.6999999
v 0.09999985 2.5 -1.1
v 0.09999985 3.1 -1.1
vn 1.192093E-07 0 0.9999999
vn 1.192093E-07 0 0.9999999
vn 1.192093E-07 0 0.9999999
vn 1.192093E-07 0 0.9999999
vn 1.192093E-07 0 0.9999999
vn 1.192093E-07 0 0.9999999
vn 1.192093E-07 0 0.9999999
vn 1.192093E-07 0 0.9999999
vn 1.192093E-07 0 0.9999999
vn 1.192093E-07 0 0.9999999
vn 1.192093E-07 0 0.9999999
vn 1.192093E-07 0 0.9999999
vn 1.192093E-07 0 0.9999999
vn 1.192093E-07 0 0.9999999
vn 1.192093E-07 0 0.9999999
vn 1.192093E-07 0 0.9999999
vn -1.192093E-07 0 -0.9999999
vn -1.192093E-07 0 -0.9999999
vn -1.192093E-07 0 -0.9999999
vn -1.192093E-07 0 -0.9999999
vn -1.192093E-07 0 -0.9999999
vn -1.192093E-07 0 -0.9999999
vn -1.192093E-07 0 -0.9999999
vn -1.192093E-07 0 -0.9999999
vn -1.192093E-07 0 -0.9999999
vn -1.192093E-07 0 -0.9999999
vn -1.192093E-07 0 -0.9999999
vn -1.192093E-07 0 -0.9999999
vn -1.192093E-07 0 -0.9999999
vn -1.192093E-07 0 -0.9999999
vn -1.192093E-07 0 -0.9999999
vn -1.192093E-07 0 -0.9999999
vn 0 -1 0
vn 0 -1 0
vn 0 -1 0
vn 0 -1 0
vn 0 -1 0
vn 0 -1 0
vn 0 -1 0
vn 0 -1 0
vn 0 -1 0
vn 0 -1 0
vn 0 -1 0
vn 0 -1 0
vn 0 -1 0
vn 0 -1 0
vn 0 -1 0
vn 0 -1 0
vn 0 1 0
vn 0 1 0
vn 0 1 0
vn 0 1 0
vn 0 1 0
vn 0 1 0
vn 0 1 0
vn 0 1 0
vn 0 1 0
vn 0 1 0
vn 0 1 0
vn 0 1 0
vn 0 1 0
vn 0 1 0
vn 0 1 0
vn 0 1 0
vn 0.9999999 0 -1.192093E-07
vn 0.9999999 0 -1.192093E-07
vn 0.9999999 0 -1.192093E-07
vn 0.9999999 0 -1.192093E-07
vn 0.9999999 0 -1.192093E-07
vn 0.9999999 0 -1.192093E-07
vn -0.9999999 0 1.192093E-07
vn -0.9999999 0 1.192093E-07
vn -0.9999999 0 1.192093E-07
vn -0.9999999 0 1.192093E-07
vn -0.9999999 0 1.192093E-07
vn -0.9999999 0 1.192093E-07
vn -0.9999999 0 1.192093E-07
vn -0.9999999 0 1.192093E-07
vn -0.9999999 0 1.192093E-07
vn -0.9999999 0 1.192093E-07
vn -0.9999999 0 1.192093E-07
vn -0.9999999 0 1.192093E-07
vn -0.9999999 0 1.192093E-07
vn -0.9999999 0 1.192093E-07
vn -0.9999999 0 1.192093E-07
vn -0.9999999 0 1.192093E-07
vn -0.9999999 0 1.192093E-07
vn -0.9999999 0 1.192093E-07
vn -0.9999999 0 1.192093E-07
vn -0.9999999 0 1.192093E-07
vn -0.9999999 0 1.192093E-07
vn -0.9999999 0 1.192093E-07
vn -0.9999999 0 1.192093E-07
vn -0.9999999 0 1.192093E-07
vn -0.9999999 0 1.192093E-07
vn -0.9999999 0 1.192093E-07
vn -0.9999999 0 1.192093E-07
vn -0.9999999 0 1.192093E-07
vn -0.9999999 0 1.192093E-07
vn -0.9999999 0 1.192093E-07
vn -0.9999999 0 1.192093E-07
vn -0.9999999 0 1.192093E-07
vn -0.9999999 0 1.192093E-07
vn -0.9999999 0 1.192093E-07
vn -0.9999999 0 1.192093E-07
vn -0.9999999 0 1.192093E-07
vn -0.9999999 0 1.192093E-07
vn -0.9999999 0 1.192093E-07
vn -0.9999999 0 1.192093E-07
vn -0.9999999 0 1.192093E-07
vn -0.9999999 0 1.192093E-07
vn -0.9999999 0 1.192093E-07
vn -0.9999999 0 1.192093E-07
vn -0.9999999 0 1.192093E-07
vn -0.9999999 0 1.192093E-07
vn -0.9999999 0 1.192093E-07
vn -0.9999999 0 1.192093E-07
vn -0.9999999 0 1.192093E-07
vn -0.9999999 0 1.192093E-07
vn -0.9999999 0 1.192093E-07
vn -0.9999999 0 1.192093E-07
vn -0.9999999 0 1.192093E-07
vn -0.9999999 0 1.192093E-07
vt 0.1430592 0.2858153
vt 0.2856133 0.2858153
vt 0.2856133 0.4283694
vt 0.1429582 0.4284704
vt 0.7144877 0.2858153
vt 0.8570418 0.2858153
vt 0.8570418 0.4283694
vt 0.7143867 0.4284704
vt 0.1430592 0.2858153
vt 0.2856133 0.2858153
vt 0.2856133 0.4283694
vt 0.1429582 0.4284704
vt 0.1430592 0.2858153
vt 0.2856133 0.2858153
vt 0.2856133 0.4283694
vt 0.1429582 0.4284704
vt 0.2856133 0.4283694
vt 0.2856133 0.2858153
vt 0.1430592 0.2858153
vt 0.1429582 0.4284704
vt 0.8570418 0.4283694
vt 0.8570418 0.2858153
vt 0.7144877 0.2858153
vt 0.7143867 0.4284704
vt 0.2856133 0.4283694
vt 0.2856133 0.2858153
vt 0.1430592 0.2858153
vt 0.1429582 0.4284704
vt 0.2856133 0.4283694
vt 0.2856133 0.2858153
vt 0.1430592 0.2858153
vt 0.1429582 0.4284704
vt 0.2856133 0.4283694
vt 0.2856133 0.2858153
vt 0.1430592 0.2858153
vt 0.1429582 0.4284704
vt 0.2856133 0.4283694
vt 0.2856133 0.2858153
vt 0.1430592 0.2858153
vt 0.1429582 0.4284704
vt 0.2856133 0.4283694
vt 0.2856133 0.2858153
vt 0.1430592 0.2858153
vt 0.1429582 0.4284704
vt 0.8570418 0.4283694
vt 0.8570418 0.2858153
vt 0.7144877 0.2858153
vt 0.7143867 0.4284704
vt 0.1430592 0.2858153
vt 0.2856133 0.2858153
vt 0.2856133 0.4283694
vt 0.1429582 0.4284704
vt 0.1430592 0.2858153
vt 0.2856133 0.2858153
vt 0.2856133 0.4283694
vt 0.1429582 0.4284704
vt 0.7144877 0.2858153
vt 0.8570418 0.2858153
vt 0.8570418 0.4283694
vt 0.7143867 0.4284704
vt 0.1430592 0.2858153
vt 0.2856133 0.2858153
vt 0.2856133 0.4283694
vt 0.1429582 0.4284704
vt 0.1429663 0.1429892
vt 0.3116337 0.1429892
vt 0.3116337 0.8568788
vt 0.3116337 0.1431212
vt 0.1429663 0.8570108
vt 0.3116337 0.8570108
vt 0.1559231 0.4283784
vt 0.28553 0.2858108
vt 0.1429625 0.2858108
vt 0.2713393 0.4284599
vt 0.1430691 0.4284599
vt 0.1429486 0.4284068
vt 0.2855314 0.3143406
vt 0.2856228 0.4284068
vt 0.14304 0.3143406
vt 0.1559231 0.2859074
vt 0.2855865 0.3927933
vt 0.2855865 0.2859379
vt 0.1429849 0.3927933
vt 0.1429849 0.2859379
vt 0.1430691 0.2858258
vt 0.2713393 0.2858258
vt 0.8570418 0.4283694
vt 0.8570418 0.2858153
vt 0.7144877 0.2858153
vt 0.7143867 0.4284704
vt 0.2636715 0.4283843
vt 0.2856063 0.2858078
vt 0.1430299 0.2858078
vt 0.2142857 0.4284286
vt 0.1430714 0.4284286
vt 0.1559224 0.4284519
vt 0.2855317 0.3928093
vt 0.1429687 0.4141965
vt 0.1429687 0.4284487
vt 0.1429402 0.4284552
vt 0.2855482 0.371412
vt 0.2856351 0.4284526
vt 0.1430156 0.3571429
vt 0.1539284 0.2859087
vt 0.2855757 0.3749653
vt 0.2855757 0.2859395
vt 0.1429796 0.2858613
vt 0.1429796 0.3143592
vt 0.1429957 0.3749653
vt 0.1429957 0.2859395
vt 0.1430675 0.285824
vt 0.2737181 0.285824
vt 0.2855788 0.3333785
vt 0.2855788 0.285895
vt 0.1431282 0.4283456
vt 0.285609 0.4284749
vt 0.2726483 0.2859074
vt 0.2856133 0.2858153
vt 0.1430592 0.2858153
vt 0.8570418 0.8569408
vt 0.8570418 0.7143867
vt 0.7144877 0.7143867
vt 0.7143867 0.8570418
usemtl EGA_Shop_Door_02_texture0
f 3/3/3 2/2/2 1/1/1
f 4/4/4 3/3/3 1/1/1
f 7/7/7 6/6/6 5/5/5
f 8/8/8 7/7/7 5/5/5
f 11/11/11 10/10/10 9/9/9
f 12/12/12 11/11/11 9/9/9
f 15/15/15 14/14/14 13/13/13
f 16/16/16 15/15/15 13/13/13
f 19/19/19 18/18/18 17/17/17
f 19/19/19 17/17/17 20/20/20
f 23/23/23 22/22/22 21/21/21
f 23/23/23 21/21/21 24/24/24
f 27/27/27 26/26/26 25/25/25
f 27/27/27 25/25/25 28/28/28
f 31/31/31 30/30/30 29/29/29
f 31/31/31 29/29/29 32/32/32
f 35/35/35 34/34/34 33/33/33
f 35/35/35 33/33/33 36/36/36
f 39/39/39 38/38/38 37/37/37
f 39/39/39 37/37/37 40/40/40
f 43/43/43 42/42/42 41/41/41
f 43/43/43 41/41/41 44/44/44
f 47/47/47 46/46/46 45/45/45
f 47/47/47 45/45/45 48/48/48
f 51/51/51 50/50/50 49/49/49
f 52/52/52 51/51/51 49/49/49
f 55/55/55 54/54/54 53/53/53
f 56/56/56 55/55/55 53/53/53
f 59/59/59 58/58/58 57/57/57
f 60/60/60 59/59/59 57/57/57
f 63/63/63 62/62/62 61/61/61
f 64/64/64 63/63/63 61/61/61
f 67/67/67 66/66/66 65/65/65
f 70/70/70 69/69/69 68/68/68
f 73/73/73 72/72/72 71/71/71
f 75/75/75 72/72/72 74/74/74
f 73/73/73 77/77/77 76/76/76
f 79/79/79 72/72/72 78/78/78
f 80/80/80 78/78/78 76/76/76
f 76/76/76 82/82/82 81/81/81
f 84/84/84 78/78/78 83/83/83
f 86/86/86 78/78/78 85/85/85
f 89/89/89 88/88/88 87/87/87
f 89/89/89 87/87/87 90/90/90
f 93/93/93 92/92/92 91/91/91
f 95/95/95 92/92/92 94/94/94
f 93/93/93 97/97/97 96/96/96
f 99/99/99 98/98/98 92/92/92
f 101/101/101 100/100/100 93/93/93
f 103/103/103 92/92/92 102/102/102
f 104/104/104 102/102/102 100/100/100
f 100/100/100 106/106/106 105/105/105
f 102/102/102 108/108/108 107/107/107
f 110/110/110 102/102/102 109/109/109
f 112/112/112 102/102/102 111/111/111
f 115/115/115 114/114/114 113/113/113
f 117/117/117 116/116/116 115/115/115
f 119/119/119 118/118/118 116/116/116
f 122/122/122 121/121/121 120/120/120
f 122/122/122 120/120/120 123/123/123
