mtllib EGA_Building_Door_05.mtl
g default
v 0.1000001 1.9 0.6999999
v 0.1000001 1.7 0.6999999
v -0.0999999 1.7 0.6999999
v -0.0999999 1.9 0.6999999
v 0.3000001 3.7 1.1
v 0.3000001 -0.1 1.1
v 0.1000001 -0.1 1.1
v 0.1000001 3.7 1.1
v -0.09999997 1.7 0.09999999
v 0.09999999 1.7 0.09999997
v 0.09999999 1.9 0.09999997
v -0.09999997 1.9 0.09999999
v 0.0999998 -0.1 -1.5
v 0.2999998 -0.1 -1.5
v 0.2999998 3.7 -1.5
v 0.0999998 3.7 -1.5
v 0.1000001 -0.1 1.1
v 0.3000001 -0.1 1.1
v 0.2999998 -0.1 -1.5
v 0.0999998 -0.1 -1.5
v -0.0999999 1.7 0.6999999
v 0.1000001 1.7 0.6999999
v 0.09999999 1.7 0.09999997
v -0.09999997 1.7 0.09999999
v 0.09999999 1.9 0.09999997
v 0.1000001 1.9 0.6999999
v -0.0999999 1.9 0.6999999
v -0.09999997 1.9 0.09999999
v 0.2999998 3.7 -1.5
v 0.3000001 3.7 1.1
v 0.1000001 3.7 1.1
v 0.0999998 3.7 -1.5
v 0.2999998 -0.1 -1.5
v 0.3000001 -0.1 1.1
v 0.3000001 3.7 1.1
v 0.2999998 -0.1 -1.5
v 0.3000001 3.7 1.1
v 0.2999998 3.7 -1.5
v -0.0999999 1.9 0.6999999
v -0.0999999 1.7 0.6999999
v -0.09999997 1.7 0.09999999
v -0.09999997 1.9 0.09999999
v 0.09999999 1.7 0.09999997
v 0.1000001 -0.1 1.1
v 0.0999998 -0.1 -1.5
v 0.1000001 1.7 0.6999999
v 0.1000001 -0.1 1.1
v 0.09999999 1.7 0.09999997
v 0.0999998 3.7 -1.5
v 0.09999999 1.7 0.09999997
v 0.0999998 -0.1 -1.5
v 0.1000001 -0.1 1.1
v 0.1000001 1.7 0.6999999
v 0.1000001 1.9 0.6999999
v 0.09999999 1.9 0.09999997
v 0.09999999 1.7 0.09999997
v 0.0999998 3.7 -1.5
v 0.1000001 3.7 1.1
v 0.1000001 -0.1 1.1
v 0.1000001 1.9 0.6999999
v 0.0999998 3.7 -1.5
v 0.1000001 3.7 1.1
v 0.09999999 1.9 0.09999997
v 0.09999999 1.9 0.09999997
v 0.1000001 3.7 1.1
v 0.1000001 1.9 0.6999999
vn 1.192093E-07 0 0.9999999
vn 1.192093E-07 0 0.9999999
vn 1.192093E-07 0 0.9999999
vn 1.192093E-07 0 0.9999999
vn 1.192093E-07 0 0.9999999
vn 1.192093E-07 0 0.9999999
vn 1.192093E-07 0 0.9999999
vn 1.192093E-07 0 0.9999999
vn -1.192093E-07 0 -0.9999999
vn -1.192093E-07 0 -0.9999999
vn -1.192093E-07 0 -0.9999999
vn -1.192093E-07 0 -0.9999999
vn -1.192093E-07 0 -0.9999999
vn -1.192093E-07 0 -0.9999999
vn -1.192093E-07 0 -0.9999999
vn -1.192093E-07 0 -0.9999999
vn 0 -1 0
vn 0 -1 0
vn 0 -1 0
vn 0 -1 0
vn 0 -1 0
vn 0 -1 0
vn 0 -1 0
vn 0 -1 0
vn 0 1 0
vn 0 1 0
vn 0 1 0
vn 0 1 0
vn 0 1 0
vn 0 1 0
vn 0 1 0
vn 0 1 0
vn 0.9999999 0 -1.192093E-07
vn 0.9999999 0 -1.192093E-07
vn 0.9999999 0 -1.192093E-07
vn 0.9999999 0 -1.192093E-07
vn 0.9999999 0 -1.192093E-07
vn 0.9999999 0 -1.192093E-07
vn -0.9999999 0 1.192093E-07
vn -0.9999999 0 1.192093E-07
vn -0.9999999 0 1.192093E-07
vn -0.9999999 0 1.192093E-07
vn -0.9999999 0 1.192093E-07
vn -0.9999999 0 1.192093E-07
vn -0.9999999 0 1.192093E-07
vn -0.9999999 0 1.192093E-07
vn -0.9999999 0 1.192093E-07
vn -0.9999999 0 1.192093E-07
vn -0.9999999 0 1.192093E-07
vn -0.9999999 0 1.192093E-07
vn -0.9999999 0 1.192093E-07
vn -0.9999999 0 1.192093E-07
vn -0.9999999 0 1.192093E-07
vn -0.9999999 0 1.192093E-07
vn -0.9999999 0 1.192093E-07
vn -0.9999999 0 1.192093E-07
vn -0.9999999 0 1.192093E-07
vn -0.9999999 0 1.192093E-07
vn -0.9999999 0 1.192093E-07
vn -0.9999999 0 1.192093E-07
vn -0.9999999 0 1.192093E-07
vn -0.9999999 0 1.192093E-07
vn -0.9999999 0 1.192093E-07
vn -0.9999999 0 1.192093E-07
vn -0.9999999 0 1.192093E-07
vn -0.9999999 0 1.192093E-07
vt 0.9046946 0.7499706
vt 0.8571765 0.7499706
vt 0.8571765 0.7083923
vt 0.9047282 0.7083628
vt 0.9046946 0.7499706
vt 0.8571765 0.7499706
vt 0.8571765 0.7083923
vt 0.9047282 0.7083628
vt 0.8571765 0.7083923
vt 0.8571765 0.7499706
vt 0.9046946 0.7499706
vt 0.9047282 0.7083628
vt 0.8571765 0.7083923
vt 0.8571765 0.7499706
vt 0.9046946 0.7499706
vt 0.9047282 0.7083628
vt 0.4328729 0.9165987
vt 0.4328729 0.875034
vt 0.3766785 0.875034
vt 0.3766509 0.9166327
vt 0.8571765 0.7083923
vt 0.8571765 0.7499706
vt 0.9046946 0.7499706
vt 0.9047282 0.7083628
vt 0.9046946 0.7499706
vt 0.8571765 0.7499706
vt 0.8571765 0.7083923
vt 0.9047282 0.7083628
vt 0.9046946 0.7499706
vt 0.8571765 0.7499706
vt 0.8571765 0.7083923
vt 0.9047282 0.7083628
vt 0.1905421 0.04169676
vt 0.8094909 0.04169676
vt 0.8094909 0.8332732
vt 0.1861592 0.08341396
vt 0.2424002 0.8749597
vt 0.1861592 0.8749597
vt 0.8571765 0.7083923
vt 0.8571765 0.7499706
vt 0.9046946 0.7499706
vt 0.9047282 0.7083628
vt 0.3982714 0.5000774
vt 0.3766411 0.8749613
vt 0.4328798 0.8749613
vt 0.9047144 0.9270865
vt 0.4762854 0.9062722
vt 0.9047144 0.9583079
vt 0.1020171 0.08343368
vt 0.0476665 0.4999965
vt 0.1020171 0.8749031
vt 0.8572 0.8332542
vt 0.9523524 0.4583667
vt 0.9523524 0.4167125
vt 0.7143205 0.7125284
vt 0.7143205 0.7083724
vt 0.7686378 0.7499325
vt 0.8095476 0.04172216
vt 0.8095476 0.8332759
vt 0.9047143 0.4166687
vt 0.1947631 0.9114855
vt 0.1385643 0.9114855
vt 0.1601792 0.958279
vt 0.7143559 0.7083743
vt 0.7737481 0.7499181
vt 0.7499912 0.7083743
usemtl EGA_Building_Door_05_texture0
f 3/3/3 2/2/2 1/1/1
f 4/4/4 3/3/3 1/1/1
f 7/7/7 6/6/6 5/5/5
f 8/8/8 7/7/7 5/5/5
f 11/11/11 10/10/10 9/9/9
f 11/11/11 9/9/9 12/12/12
f 15/15/15 14/14/14 13/13/13
f 15/15/15 13/13/13 16/16/16
f 19/19/19 18/18/18 17/17/17
f 19/19/19 17/17/17 20/20/20
f 23/23/23 22/22/22 21/21/21
f 23/23/23 21/21/21 24/24/24
f 27/27/27 26/26/26 25/25/25
f 28/28/28 27/27/27 25/25/25
f 31/31/31 30/30/30 29/29/29
f 32/32/32 31/31/31 29/29/29
f 35/35/35 34/34/34 33/33/33
f 38/38/38 37/37/37 36/36/36
f 41/41/41 40/40/40 39/39/39
f 41/41/41 39/39/39 42/42/42
f 45/45/45 44/44/44 43/43/43
f 48/48/48 47/47/47 46/46/46
f 51/51/51 50/50/50 49/49/49
f 54/54/54 53/53/53 52/52/52
f 57/57/57 56/56/56 55/55/55
f 60/60/60 59/59/59 58/58/58
f 63/63/63 62/62/62 61/61/61
f 66/66/66 65/65/65 64/64/64
