mtllib EGA_Cloud_08.mtl
g default
v 4.9 1.5 -3.7
v 4.9 1.1 -3.7
v 4.9 1.1 -4.9
v 4.9 1.1 -4.9
v 4.9 1.5 -5.3
v 4.9 1.1 -4.9
v 4.9 -0.1 -5.3
v 4.9 1.1 -4.9
v 4.9 -0.1 -4.9
v -4.7 1.5 1.1
v -4.7 1.1 1.1
v -4.7 1.1 -0.1
v -4.7 1.1 -0.1
v -4.7 1.5 -0.5
v -4.7 1.1 -0.1
v -4.7 -0.1 -0.5
v -4.7 1.1 -0.1
v -4.7 -0.1 -0.1
v -7.5 1.1 4.3
v -7.5 -0.1 4.3
v -7.5 -0.1 3.1
v -7.5 1.1 3.1
v -1.5 1.5 -0.5
v -1.5 1.1 -0.5
v -1.5 1.1 -1.7
v -1.5 1.1 -1.7
v -1.5 1.5 -2.1
v -1.5 1.1 -1.7
v -1.5 -0.1 -2.1
v -1.5 1.1 -1.7
v -1.5 -0.1 -1.7
v 1.7 1.5 -2.1
v 1.7 1.1 -2.1
v 1.7 1.1 -3.3
v 1.7 1.1 -3.3
v 1.7 1.5 -3.7
v 1.7 1.1 -3.3
v 1.7 -0.1 -3.7
v 1.7 1.1 -3.3
v 1.7 -0.1 -3.3
v 3.7 1.1 -3.7
v 3.7 -0.1 -3.7
v 3.7 -0.1 -4.9
v 3.7 1.1 -4.9
v -5.9 1.1 1.1
v -5.9 -0.1 1.1
v -5.9 -0.1 -0.1
v -5.9 1.1 -0.1
v -2.7 1.1 -0.5
v -2.7 -0.1 -0.5
v -2.7 -0.1 -1.7
v -2.7 1.1 -1.7
v 0.5 1.1 -2.1
v 0.5 -0.1 -2.1
v 0.5 -0.1 -3.3
v 0.5 1.1 -3.3
v -6.3 1.5 4.3
v -6.3 1.1 4.3
v -6.3 1.1 3.1
v -6.3 1.1 3.1
v -6.3 1.5 1.1
v -6.3 1.1 3.1
v -6.3 -0.1 1.1
v -6.3 1.1 3.1
v -6.3 -0.1 3.1
v 3.3 1.1 0.7
v 3.3 -0.1 2.7
v 3.3 1.5 2.7
v 3.3 -0.1 0.7
v 3.3 1.1 0.7
v 3.3 1.5 -0.5
v 3.3 1.1 0.7
v 3.3 1.1 -0.5
v 3.3 1.1 0.7
v 6.5 -0.1 -5.3
v 6.5 -0.1 -2.1
v 6.5 1.5 -2.1
v 6.5 1.5 -5.3
v -0.3 -0.1 2.7
v -0.3 -0.1 3.9
v -0.3 1.1 3.9
v -0.3 1.1 2.7
v 6.1 -0.1 -2.1
v 6.1 -0.1 -0.9
v 6.1 1.1 -0.9
v 6.1 1.1 -2.1
v -1.5 1.1 3.9
v -1.5 -0.1 4.3
v -1.5 1.5 4.3
v -1.5 -0.1 3.9
v -1.5 1.1 3.9
v -1.5 1.5 2.7
v -1.5 1.1 3.9
v -1.5 1.1 2.7
v -1.5 1.1 3.9
v 4.9 1.1 -0.9
v 4.9 -0.1 -0.5
v 4.9 1.5 -0.5
v 4.9 -0.1 -0.9
v 4.9 1.1 -0.9
v 4.9 1.5 -2.1
v 4.9 1.1 -0.9
v 4.9 1.1 -2.1
v 4.9 1.1 -0.9
v 4.5 -0.1 -0.5
v 4.5 -0.1 0.7
v 4.5 1.1 0.7
v 4.5 1.1 -0.5
v 6.5 -0.1 -2.1
v 6.5 -0.1 -5.3
v 6.1 -0.1 -2.1
v 6.1 -0.1 -2.1
v 4.9 -0.1 -4.9
v 4.9 -0.1 -5.3
v 4.9 -0.1 -4.9
v 6.1 -0.1 -2.1
v 4.9 -0.1 -4.9
v 3.7 -0.1 -3.7
v 3.7 -0.1 -4.9
v 3.7 -0.1 -3.7
v 4.9 -0.1 -4.9
v 4.9 -0.1 -0.9
v 6.1 -0.1 -2.1
v 3.7 -0.1 -3.7
v 4.5 -0.1 -0.5
v 4.9 -0.1 -0.9
v 6.1 -0.1 -0.9
v 6.1 -0.1 -2.1
v 4.9 -0.1 -0.9
v 4.9 -0.1 -0.5
v 4.9 -0.1 -0.9
v 4.5 -0.1 -0.5
v 4.5 -0.1 -0.5
v 3.7 -0.1 -3.7
v 1.7 -0.1 -3.3
v 1.7 -0.1 -3.3
v 0.5 -0.1 -2.1
v 1.7 -0.1 -3.7
v 1.7 -0.1 -3.3
v 3.7 -0.1 -3.7
v 0.5 -0.1 -3.3
v 0.5 -0.1 -2.1
v 1.7 -0.1 -3.3
v 3.3 -0.1 0.7
v 4.5 -0.1 -0.5
v 0.5 -0.1 -2.1
v 4.5 -0.1 -0.5
v 3.3 -0.1 0.7
v 4.5 -0.1 0.7
v 3.3 -0.1 0.7
v 0.5 -0.1 -2.1
v -0.3 -0.1 2.7
v 3.3 -0.1 2.7
v 3.3 -0.1 0.7
v 0.5 -0.1 -2.1
v -1.5 -0.1 -1.7
v -0.3 -0.1 2.7
v -1.5 -0.1 -2.1
v -1.5 -0.1 -1.7
v -1.5 -0.1 -1.7
v -2.7 -0.1 -0.5
v -0.3 -0.1 2.7
v -2.7 -0.1 -1.7
v -2.7 -0.1 -0.5
v -1.5 -0.1 -1.7
v -1.5 -0.1 3.9
v -0.3 -0.1 2.7
v -2.7 -0.1 -0.5
v -0.3 -0.1 3.9
v -0.3 -0.1 2.7
v -1.5 -0.1 3.9
v -1.5 -0.1 3.9
v -2.7 -0.1 -0.5
v -4.7 -0.1 -0.1
v -4.7 -0.1 -0.1
v -5.9 -0.1 1.1
v -4.7 -0.1 -0.5
v -4.7 -0.1 -0.1
v -2.7 -0.1 -0.5
v -5.9 -0.1 -0.1
v -5.9 -0.1 1.1
v -4.7 -0.1 -0.1
v -5.9 -0.1 1.1
v -1.5 -0.1 4.3
v -1.5 -0.1 3.9
v -5.9 -0.1 1.1
v -6.3 -0.1 3.1
v -6.3 -0.1 3.1
v -7.5 -0.1 4.3
v -7.5 -0.1 3.1
v -6.3 -0.1 3.1
v -6.3 -0.1 1.1
v -6.3 -0.1 3.1
v -5.9 -0.1 1.1
v 6.5 1.5 -2.1
v 4.9 1.5 -2.1
v 4.9 1.5 -3.7
v 4.9 1.5 -3.7
v 6.5 1.5 -5.3
v 4.9 1.5 -3.7
v 4.9 1.5 -5.3
v 4.9 1.5 -2.1
v 1.7 1.5 -3.7
v 4.9 1.5 -3.7
v 1.7 1.5 -2.1
v 1.7 1.5 -2.1
v 4.9 1.5 -2.1
v 3.3 1.5 -0.5
v 3.3 1.5 -0.5
v 4.9 1.5 -0.5
v -1.5 1.5 -0.5
v 1.7 1.5 -2.1
v 3.3 1.5 -0.5
v 1.7 1.5 -2.1
v -1.5 1.5 -2.1
v -1.5 1.5 -0.5
v 3.3 1.5 -0.5
v 3.3 1.5 2.7
v -1.5 1.5 2.7
v -1.5 1.5 2.7
v -4.7 1.5 1.1
v -1.5 1.5 -0.5
v -4.7 1.5 1.1
v -4.7 1.5 -0.5
v -1.5 1.5 4.3
v -4.7 1.5 1.1
v -1.5 1.5 2.7
v -6.3 1.5 4.3
v -4.7 1.5 1.1
v -4.7 1.5 1.1
v -6.3 1.5 1.1
v 6.1 1.1 -0.9
v 4.9 1.1 -0.9
v 4.9 1.1 -2.1
v 6.1 1.1 -2.1
v 4.9 1.1 -3.7
v 3.7 1.1 -3.7
v 3.7 1.1 -4.9
v 4.9 1.1 -4.9
v 4.5 1.1 0.7
v 3.3 1.1 0.7
v 3.3 1.1 -0.5
v 4.5 1.1 -0.5
v 1.7 1.1 -2.1
v 0.5 1.1 -2.1
v 0.5 1.1 -3.3
v 1.7 1.1 -3.3
v -0.3 1.1 3.9
v -1.5 1.1 3.9
v -1.5 1.1 2.7
v -0.3 1.1 2.7
v -1.5 1.1 -0.5
v -2.7 1.1 -0.5
v -2.7 1.1 -1.7
v -1.5 1.1 -1.7
v -4.7 1.1 1.1
v -5.9 1.1 1.1
v -5.9 1.1 -0.1
v -4.7 1.1 -0.1
v -6.3 1.1 4.3
v -7.5 1.1 4.3
v -7.5 1.1 3.1
v -6.3 1.1 3.1
v -0.3 -0.1 3.9
v -1.5 -0.1 3.9
v -1.5 1.1 3.9
v -0.3 1.1 3.9
v 4.5 -0.1 0.7
v 3.3 -0.1 0.7
v 3.3 1.1 0.7
v 4.5 1.1 0.7
v -1.5 -0.1 4.3
v -7.5 -0.1 4.3
v -6.3 1.1 4.3
v -6.3 1.1 4.3
v -7.5 1.1 4.3
v -6.3 1.1 4.3
v -1.5 1.5 4.3
v -6.3 1.1 4.3
v -6.3 1.5 4.3
v 6.5 -0.1 -2.1
v 6.1 -0.1 -2.1
v 6.1 1.1 -2.1
v 6.1 1.1 -2.1
v 6.5 1.5 -2.1
v 6.1 1.1 -2.1
v 4.9 1.5 -2.1
v 6.1 1.1 -2.1
v 4.9 1.1 -2.1
v 6.1 -0.1 -0.9
v 4.9 -0.1 -0.9
v 4.9 1.1 -0.9
v 6.1 1.1 -0.9
v 3.3 -0.1 2.7
v -0.3 -0.1 2.7
v -0.3 1.1 2.7
v -0.3 1.1 2.7
v 3.3 1.5 2.7
v -0.3 1.1 2.7
v -1.5 1.5 2.7
v -0.3 1.1 2.7
v -1.5 1.1 2.7
v 4.9 -0.1 -0.5
v 4.5 -0.1 -0.5
v 4.5 1.1 -0.5
v 4.5 1.1 -0.5
v 4.9 1.5 -0.5
v 4.5 1.1 -0.5
v 3.3 1.5 -0.5
v 4.5 1.1 -0.5
v 3.3 1.1 -0.5
v 0.5 1.1 -3.3
v 0.5 -0.1 -3.3
v 1.7 -0.1 -3.3
v 1.7 1.1 -3.3
v -5.9 1.1 -0.1
v -5.9 -0.1 -0.1
v -4.7 -0.1 -0.1
v -4.7 1.1 -0.1
v -7.5 1.1 3.1
v -7.5 -0.1 3.1
v -6.3 -0.1 3.1
v -6.3 1.1 3.1
v 1.7 1.1 -2.1
v 1.7 1.5 -2.1
v 0.5 1.1 -2.1
v 0.5 1.1 -2.1
v -1.5 1.5 -2.1
v 0.5 1.1 -2.1
v -1.5 -0.1 -2.1
v 0.5 -0.1 -2.1
v 0.5 1.1 -2.1
v -4.7 1.1 1.1
v -4.7 1.5 1.1
v -5.9 1.1 1.1
v -5.9 1.1 1.1
v -6.3 1.5 1.1
v -5.9 1.1 1.1
v -6.3 -0.1 1.1
v -5.9 -0.1 1.1
v -5.9 1.1 1.1
v 4.9 1.5 -5.3
v 4.9 -0.1 -5.3
v 6.5 -0.1 -5.3
v 6.5 1.5 -5.3
v -2.7 1.1 -1.7
v -2.7 -0.1 -1.7
v -1.5 -0.1 -1.7
v -1.5 1.1 -1.7
v 3.7 1.1 -4.9
v 3.7 -0.1 -4.9
v 4.9 -0.1 -4.9
v 4.9 1.1 -4.9
v -1.5 1.1 -0.5
v -1.5 1.5 -0.5
v -2.7 1.1 -0.5
v -2.7 1.1 -0.5
v -4.7 1.5 -0.5
v -2.7 1.1 -0.5
v -4.7 -0.1 -0.5
v -2.7 -0.1 -0.5
v -2.7 1.1 -0.5
v 4.9 1.1 -3.7
v 4.9 1.5 -3.7
v 3.7 1.1 -3.7
v 3.7 1.1 -3.7
v 1.7 1.5 -3.7
v 3.7 1.1 -3.7
v 1.7 -0.1 -3.7
v 3.7 -0.1 -3.7
v 3.7 1.1 -3.7
vn -1 0 0
vn -1 0 0
vn -1 0 0
vn -1 0 0
vn -1 0 0
vn -1 0 0
vn -1 0 0
vn -1 0 0
vn -1 0 0
vn -1 0 0
vn -1 0 0
vn -1 0 0
vn -1 0 0
vn -1 0 0
vn -1 0 0
vn -1 0 0
vn -1 0 0
vn -1 0 0
vn -1 0 0
vn -1 0 0
vn -1 0 0
vn -1 0 0
vn -1 0 0
vn -1 0 0
vn -1 0 0
vn -1 0 0
vn -1 0 0
vn -1 0 0
vn -1 0 0
vn -1 0 0
vn -1 0 0
vn -1 0 0
vn -1 0 0
vn -1 0 0
vn -1 0 0
vn -1 0 0
vn -1 0 0
vn -1 0 0
vn -1 0 0
vn -1 0 0
vn -1 0 0
vn -1 0 0
vn -1 0 0
vn -1 0 0
vn -1 0 0
vn -1 0 0
vn -1 0 0
vn -1 0 0
vn -1 0 0
vn -1 0 0
vn -1 0 0
vn -1 0 0
vn -1 0 0
vn -1 0 0
vn -1 0 0
vn -1 0 0
vn -1 0 0
vn -1 0 0
vn -1 0 0
vn -1 0 0
vn -1 0 0
vn -1 0 0
vn -1 0 0
vn -1 0 0
vn -1 0 0
vn 1 0 0
vn 1 0 0
vn 1 0 0
vn 1 0 0
vn 1 0 0
vn 1 0 0
vn 1 0 0
vn 1 0 0
vn 1 0 0
vn 1 0 0
vn 1 0 0
vn 1 0 0
vn 1 0 0
vn 1 0 0
vn 1 0 0
vn 1 0 0
vn 1 0 0
vn 1 0 0
vn 1 0 0
vn 1 0 0
vn 1 0 0
vn 1 0 0
vn 1 0 0
vn 1 0 0
vn 1 0 0
vn 1 0 0
vn 1 0 0
vn 1 0 0
vn 1 0 0
vn 1 0 0
vn 1 0 0
vn 1 0 0
vn 1 0 0
vn 1 0 0
vn 1 0 0
vn 1 0 0
vn 1 0 0
vn 1 0 0
vn 1 0 0
vn 1 0 0
vn 1 0 0
vn 1 0 0
vn 1 0 0
vn 0 -1 0
vn 0 -1 0
vn 0 -1 0
vn 0 -1 0
vn 0 -1 0
vn 0 -1 0
vn 0 -1 0
vn 0 -1 0
vn 0 -1 0
vn 0 -1 0
vn 0 -1 0
vn 0 -1 0
vn 0 -1 0
vn 0 -1 0
vn 0 -1 0
vn 0 -1 0
vn 0 -1 0
vn 0 -1 0
vn 0 -1 0
vn 0 -1 0
vn 0 -1 0
vn 0 -1 0
vn 0 -1 0
vn 0 -1 0
vn 0 -1 0
vn 0 -1 0
vn 0 -1 0
vn 0 -1 0
vn 0 -1 0
vn 0 -1 0
vn 0 -1 0
vn 0 -1 0
vn 0 -1 0
vn 0 -1 0
vn 0 -1 0
vn 0 -1 0
vn 0 -1 0
vn 0 -1 0
vn 0 -1 0
vn 0 -1 0
vn 0 -1 0
vn 0 -1 0
vn 0 -1 0
vn 0 -1 0
vn 0 -1 0
vn 0 -1 0
vn 0 -1 0
vn 0 -1 0
vn 0 -1 0
vn 0 -1 0
vn 0 -1 0
vn 0 -1 0
vn 0 -1 0
vn 0 -1 0
vn 0 -1 0
vn 0 -1 0
vn 0 -1 0
vn 0 -1 0
vn 0 -1 0
vn 0 -1 0
vn 0 -1 0
vn 0 -1 0
vn 0 -1 0
vn 0 -1 0
vn 0 -1 0
vn 0 -1 0
vn 0 -1 0
vn 0 -1 0
vn 0 -1 0
vn 0 -1 0
vn 0 -1 0
vn 0 -1 0
vn 0 -1 0
vn 0 -1 0
vn 0 -1 0
vn 0 -1 0
vn 0 -1 0
vn 0 -1 0
vn 0 -1 0
vn 0 -1 0
vn 0 -1 0
vn 0 -1 0
vn 0 -1 0
vn 0 -1 0
vn 0 -1 0
vn 0 -1 0
vn 0 1 0
vn 0 1 0
vn 0 1 0
vn 0 1 0
vn 0 1 0
vn 0 1 0
vn 0 1 0
vn 0 1 0
vn 0 1 0
vn 0 1 0
vn 0 1 0
vn 0 1 0
vn 0 1 0
vn 0 1 0
vn 0 1 0
vn 0 1 0
vn 0 1 0
vn 0 1 0
vn 0 1 0
vn 0 1 0
vn 0 1 0
vn 0 1 0
vn 0 1 0
vn 0 1 0
vn 0 1 0
vn 0 1 0
vn 0 1 0
vn 0 1 0
vn 0 1 0
vn 0 1 0
vn 0 1 0
vn 0 1 0
vn 0 1 0
vn 0 1 0
vn 0 1 0
vn 0 1 0
vn 0 1 0
vn 0 1 0
vn 0 1 0
vn 0 1 0
vn 0 1 0
vn 0 1 0
vn 0 1 0
vn 0 1 0
vn 0 1 0
vn 0 1 0
vn 0 1 0
vn 0 1 0
vn 0 1 0
vn 0 1 0
vn 0 1 0
vn 0 1 0
vn 0 1 0
vn 0 1 0
vn 0 1 0
vn 0 1 0
vn 0 1 0
vn 0 1 0
vn 0 1 0
vn 0 1 0
vn 0 1 0
vn 0 1 0
vn 0 1 0
vn 0 1 0
vn 0 1 0
vn 0 1 0
vn 0 1 0
vn 0 1 0
vn 0 1 0
vn 0 0 1
vn 0 0 1
vn 0 0 1
vn 0 0 1
vn 0 0 1
vn 0 0 1
vn 0 0 1
vn 0 0 1
vn 0 0 1
vn 0 0 1
vn 0 0 1
vn 0 0 1
vn 0 0 1
vn 0 0 1
vn 0 0 1
vn 0 0 1
vn 0 0 1
vn 0 0 1
vn 0 0 1
vn 0 0 1
vn 0 0 1
vn 0 0 1
vn 0 0 1
vn 0 0 1
vn 0 0 1
vn 0 0 1
vn 0 0 1
vn 0 0 1
vn 0 0 1
vn 0 0 1
vn 0 0 1
vn 0 0 1
vn 0 0 1
vn 0 0 1
vn 0 0 1
vn 0 0 1
vn 0 0 1
vn 0 0 1
vn 0 0 1
vn 0 0 1
vn 0 0 1
vn 0 0 1
vn 0 0 1
vn 0 0 1
vn 0 0 1
vn 0 0 1
vn 0 0 1
vn 0 0 1
vn 0 0 -1
vn 0 0 -1
vn 0 0 -1
vn 0 0 -1
vn 0 0 -1
vn 0 0 -1
vn 0 0 -1
vn 0 0 -1
vn 0 0 -1
vn 0 0 -1
vn 0 0 -1
vn 0 0 -1
vn 0 0 -1
vn 0 0 -1
vn 0 0 -1
vn 0 0 -1
vn 0 0 -1
vn 0 0 -1
vn 0 0 -1
vn 0 0 -1
vn 0 0 -1
vn 0 0 -1
vn 0 0 -1
vn 0 0 -1
vn 0 0 -1
vn 0 0 -1
vn 0 0 -1
vn 0 0 -1
vn 0 0 -1
vn 0 0 -1
vn 0 0 -1
vn 0 0 -1
vn 0 0 -1
vn 0 0 -1
vn 0 0 -1
vn 0 0 -1
vn 0 0 -1
vn 0 0 -1
vn 0 0 -1
vn 0 0 -1
vn 0 0 -1
vn 0 0 -1
vn 0 0 -1
vn 0 0 -1
vn 0 0 -1
vn 0 0 -1
vn 0 0 -1
vn 0 0 -1
vn 0 0 -1
vn 0 0 -1
vn 0 0 -1
vn 0 0 -1
vn 0 0 -1
vn 0 0 -1
vn 0 0 -1
vn 0 0 -1
vn 0 0 -1
vn 0 0 -1
vn 0 0 -1
vn 0 0 -1
vt 0.3338047 0.333569
vt 0.666431 0.333569
vt 0.666431 0.6661953
vt 0.6662502 0.5832292
vt 0.3335416 0.6664064
vt 0.4167708 0.3337498
vt 0.6663023 0.6664584
vt 0.3338047 0.333569
vt 0.666431 0.333569
vt 0.3338047 0.333569
vt 0.666431 0.333569
vt 0.666431 0.6661953
vt 0.6662502 0.5832292
vt 0.3335416 0.6664064
vt 0.4167708 0.3337498
vt 0.6663023 0.6664584
vt 0.3338047 0.333569
vt 0.666431 0.333569
vt 0.3338047 0.333569
vt 0.666431 0.333569
vt 0.666431 0.6661953
vt 0.333569 0.666431
vt 0.3338047 0.333569
vt 0.666431 0.333569
vt 0.666431 0.6661953
vt 0.6662502 0.5832292
vt 0.3335416 0.6664064
vt 0.4167708 0.3337498
vt 0.6663023 0.6664584
vt 0.3338047 0.333569
vt 0.666431 0.333569
vt 0.3338047 0.333569
vt 0.666431 0.333569
vt 0.666431 0.6661953
vt 0.6662502 0.5832292
vt 0.3335416 0.6664064
vt 0.4167708 0.3337498
vt 0.6663023 0.6664584
vt 0.3338047 0.333569
vt 0.666431 0.333569
vt 0.3338047 0.333569
vt 0.666431 0.333569
vt 0.666431 0.6661953
vt 0.333569 0.666431
vt 0.3338047 0.333569
vt 0.666431 0.333569
vt 0.666431 0.6661953
vt 0.333569 0.666431
vt 0.3338047 0.333569
vt 0.666431 0.333569
vt 0.666431 0.6661953
vt 0.333569 0.666431
vt 0.3338047 0.333569
vt 0.666431 0.333569
vt 0.666431 0.6661953
vt 0.333569 0.666431
vt 0.3338047 0.333569
vt 0.666431 0.333569
vt 0.666431 0.6661953
vt 0.6662745 0.4583823
vt 0.3335294 0.6663481
vt 0.4167708 0.3337498
vt 0.6663023 0.6664584
vt 0.3338047 0.333569
vt 0.666431 0.333569
vt 0.4167708 0.6662502
vt 0.6663023 0.3335416
vt 0.3335936 0.3335416
vt 0.666431 0.666431
vt 0.3338047 0.666431
vt 0.3335294 0.6663971
vt 0.6662745 0.5416176
vt 0.666431 0.666431
vt 0.666431 0.3338047
vt 0.666431 0.6661953
vt 0.666431 0.333569
vt 0.3338047 0.333569
vt 0.333569 0.666431
vt 0.666431 0.6661953
vt 0.666431 0.333569
vt 0.3338047 0.333569
vt 0.333569 0.666431
vt 0.666431 0.6661953
vt 0.666431 0.333569
vt 0.3338047 0.333569
vt 0.333569 0.666431
vt 0.4167708 0.6662502
vt 0.6663023 0.3335416
vt 0.3335936 0.3335416
vt 0.666431 0.666431
vt 0.3338047 0.666431
vt 0.3335416 0.6663023
vt 0.6662502 0.4167708
vt 0.666431 0.666431
vt 0.666431 0.3338047
vt 0.4167708 0.6662502
vt 0.6663023 0.3335416
vt 0.3335936 0.3335416
vt 0.666431 0.666431
vt 0.3338047 0.666431
vt 0.3335416 0.6663023
vt 0.6662502 0.4167708
vt 0.666431 0.666431
vt 0.666431 0.3338047
vt 0.666431 0.6661953
vt 0.666431 0.333569
vt 0.3338047 0.333569
vt 0.333569 0.666431
vt 0.333569 0.333569
vt 0.333569 0.6661953
vt 0.6661953 0.333569
vt 0.4167658 0.333705
vt 0.6663198 0.6248513
vt 0.666431 0.666431
vt 0.666431 0.3338047
vt 0.3336833 0.3337
vt 0.5 0.6663333
vt 0.6663167 0.5237762
vt 0.666431 0.666431
vt 0.666431 0.3338047
vt 0.3338047 0.666431
vt 0.5 0.3336667
vt 0.3336833 0.4762238
vt 0.6663167 0.6663
vt 0.4445391 0.3336529
vt 0.3337121 0.3752131
vt 0.333569 0.333569
vt 0.333569 0.6661953
vt 0.6661953 0.333569
vt 0.333569 0.333569
vt 0.333569 0.6661953
vt 0.6661953 0.333569
vt 0.3336893 0.3338525
vt 0.4286901 0.6663552
vt 0.666192 0.6247923
vt 0.5665647 0.6663026
vt 0.6663353 0.5237731
vt 0.666431 0.666431
vt 0.666431 0.3338047
vt 0.3338047 0.666431
vt 0.666431 0.666431
vt 0.666431 0.3338047
vt 0.3338047 0.666431
vt 0.4334353 0.3336974
vt 0.3336647 0.4762269
vt 0.6662334 0.6662661
vt 0.333569 0.6661953
vt 0.6661953 0.333569
vt 0.333569 0.333569
vt 0.3336865 0.4722553
vt 0.5924822 0.6663522
vt 0.6664239 0.3336148
vt 0.333569 0.333569
vt 0.333569 0.6661953
vt 0.3335969 0.6664627
vt 0.6663654 0.638732
vt 0.4667043 0.3336942
vt 0.666431 0.666431
vt 0.666431 0.3338047
vt 0.5 0.6663333
vt 0.6662738 0.5756385
vt 0.3337262 0.3337857
vt 0.666431 0.666431
vt 0.666431 0.3338047
vt 0.3338047 0.666431
vt 0.5 0.3336667
vt 0.3337262 0.4243615
vt 0.6662738 0.6662143
vt 0.333569 0.333569
vt 0.333569 0.6661953
vt 0.6661953 0.333569
vt 0.3337429 0.3339019
vt 0.4584078 0.6663418
vt 0.6661827 0.63612
vt 0.575644 0.6663418
vt 0.6663487 0.5665667
vt 0.666431 0.666431
vt 0.666431 0.3338047
vt 0.3338047 0.666431
vt 0.666431 0.666431
vt 0.666431 0.3338047
vt 0.3338047 0.666431
vt 0.6661333 0.6661667
vt 0.3336 0.3336333
vt 0.3336 0.3752
vt 0.638639 0.6661795
vt 0.6663418 0.4584083
vt 0.5998719 0.6662399
vt 0.6664106 0.3335467
vt 0.666431 0.666431
vt 0.3338047 0.666431
vt 0.666431 0.666431
vt 0.666431 0.3338047
vt 0.3338047 0.666431
vt 0.3338047 0.333569
vt 0.666431 0.333569
vt 0.666431 0.6661953
vt 0.6662968 0.5
vt 0.3335182 0.6663893
vt 0.666431 0.3338047
vt 0.666431 0.666431
vt 0.333569 0.3338047
vt 0.6661953 0.666431
vt 0.333569 0.666431
vt 0.666431 0.333569
vt 0.6663893 0.6664818
vt 0.3336107 0.6664818
vt 0.5 0.3337031
vt 0.6661953 0.333569
vt 0.333569 0.333569
vt 0.6663333 0.3335333
vt 0.4445111 0.6662667
vt 0.3336 0.3335333
vt 0.3338047 0.666431
vt 0.666431 0.666431
vt 0.6661953 0.666431
vt 0.333569 0.666431
vt 0.333569 0.3338047
vt 0.666431 0.333569
vt 0.3335182 0.3336107
vt 0.6662968 0.5
vt 0.3335182 0.6663893
vt 0.666431 0.3338047
vt 0.666431 0.666431
vt 0.3336667 0.3338333
vt 0.666 0.6661667
vt 0.3336667 0.5
vt 0.6664 0.3335333
vt 0.5554889 0.6662667
vt 0.3338047 0.666431
vt 0.666431 0.666431
vt 0.3338047 0.333569
vt 0.666431 0.333569
vt 0.666431 0.6661953
vt 0.333569 0.666431
vt 0.3338047 0.333569
vt 0.666431 0.333569
vt 0.666431 0.6661953
vt 0.333569 0.666431
vt 0.3338047 0.333569
vt 0.666431 0.333569
vt 0.666431 0.6661953
vt 0.333569 0.666431
vt 0.3338047 0.333569
vt 0.666431 0.333569
vt 0.666431 0.6661953
vt 0.333569 0.666431
vt 0.3338047 0.333569
vt 0.666431 0.333569
vt 0.666431 0.6661953
vt 0.333569 0.666431
vt 0.3338047 0.333569
vt 0.666431 0.333569
vt 0.666431 0.6661953
vt 0.333569 0.666431
vt 0.3338047 0.333569
vt 0.666431 0.333569
vt 0.666431 0.6661953
vt 0.333569 0.666431
vt 0.3338047 0.333569
vt 0.666431 0.333569
vt 0.666431 0.6661953
vt 0.333569 0.666431
vt 0.3338047 0.333569
vt 0.666431 0.333569
vt 0.666431 0.6661953
vt 0.333569 0.666431
vt 0.3338047 0.333569
vt 0.666431 0.333569
vt 0.666431 0.6661953
vt 0.333569 0.666431
vt 0.3337174 0.3335467
vt 0.6664106 0.3335467
vt 0.5998719 0.6662399
vt 0.3338047 0.666431
vt 0.666431 0.666431
vt 0.6662502 0.5832292
vt 0.3335416 0.6664064
vt 0.666431 0.3338047
vt 0.666431 0.666431
vt 0.3338047 0.333569
vt 0.666431 0.333569
vt 0.666431 0.6661953
vt 0.6662502 0.5832292
vt 0.3335416 0.6664064
vt 0.4167708 0.3337498
vt 0.6663023 0.6664584
vt 0.3338047 0.333569
vt 0.666431 0.333569
vt 0.3338047 0.333569
vt 0.666431 0.333569
vt 0.666431 0.6661953
vt 0.333569 0.666431
vt 0.3338047 0.333569
vt 0.666431 0.333569
vt 0.666431 0.6661953
vt 0.6662502 0.5832292
vt 0.3335416 0.6664064
vt 0.5832292 0.3337498
vt 0.6664064 0.6664584
vt 0.3338047 0.333569
vt 0.666431 0.333569
vt 0.3338047 0.333569
vt 0.666431 0.333569
vt 0.666431 0.6661953
vt 0.6662502 0.5832292
vt 0.3335416 0.6664064
vt 0.4167708 0.3337498
vt 0.6663023 0.6664584
vt 0.3338047 0.333569
vt 0.666431 0.333569
vt 0.666431 0.6661953
vt 0.666431 0.333569
vt 0.3338047 0.333569
vt 0.333569 0.666431
vt 0.666431 0.6661953
vt 0.666431 0.333569
vt 0.3338047 0.333569
vt 0.333569 0.666431
vt 0.666431 0.6661953
vt 0.666431 0.333569
vt 0.3338047 0.333569
vt 0.333569 0.666431
vt 0.333569 0.333569
vt 0.333569 0.6661953
vt 0.6661953 0.333569
vt 0.4583823 0.3337255
vt 0.6663481 0.6664706
vt 0.3337498 0.5832292
vt 0.6664584 0.3336977
vt 0.333569 0.333569
vt 0.333569 0.6661953
vt 0.333569 0.333569
vt 0.333569 0.6661953
vt 0.6661953 0.333569
vt 0.5832292 0.3337498
vt 0.6664064 0.6664584
vt 0.3337498 0.5832292
vt 0.6664584 0.3336977
vt 0.333569 0.333569
vt 0.333569 0.6661953
vt 0.666431 0.6661953
vt 0.666431 0.333569
vt 0.3338047 0.333569
vt 0.333569 0.666431
vt 0.666431 0.6661953
vt 0.666431 0.333569
vt 0.3338047 0.333569
vt 0.333569 0.666431
vt 0.666431 0.6661953
vt 0.666431 0.333569
vt 0.3338047 0.333569
vt 0.333569 0.666431
vt 0.333569 0.333569
vt 0.333569 0.6661953
vt 0.6661953 0.333569
vt 0.4583823 0.3337255
vt 0.6663481 0.6664706
vt 0.3337498 0.5832292
vt 0.6664584 0.3336977
vt 0.333569 0.333569
vt 0.333569 0.6661953
vt 0.333569 0.333569
vt 0.333569 0.6661953
vt 0.6661953 0.333569
vt 0.4583823 0.3337255
vt 0.6663481 0.6664706
vt 0.3337498 0.5832292
vt 0.6664584 0.3336977
vt 0.333569 0.333569
vt 0.333569 0.6661953
usemtl EGA_Cloud_08_texture0
f 3/3/3 2/2/2 1/1/1
f 5/5/5 4/4/4 1/1/1
f 5/5/5 7/7/7 6/6/6
f 7/7/7 9/9/9 8/8/8
f 12/12/12 11/11/11 10/10/10
f 14/14/14 13/13/13 10/10/10
f 14/14/14 16/16/16 15/15/15
f 16/16/16 18/18/18 17/17/17
f 21/21/21 20/20/20 19/19/19
f 22/22/22 21/21/21 19/19/19
f 25/25/25 24/24/24 23/23/23
f 27/27/27 26/26/26 23/23/23
f 27/27/27 29/29/29 28/28/28
f 29/29/29 31/31/31 30/30/30
f 34/34/34 33/33/33 32/32/32
f 36/36/36 35/35/35 32/32/32
f 36/36/36 38/38/38 37/37/37
f 38/38/38 40/40/40 39/39/39
f 43/43/43 42/42/42 41/41/41
f 44/44/44 43/43/43 41/41/41
f 47/47/47 46/46/46 45/45/45
f 48/48/48 47/47/47 45/45/45
f 51/51/51 50/50/50 49/49/49
f 52/52/52 51/51/51 49/49/49
f 55/55/55 54/54/54 53/53/53
f 56/56/56 55/55/55 53/53/53
f 59/59/59 58/58/58 57/57/57
f 61/61/61 60/60/60 57/57/57
f 61/61/61 63/63/63 62/62/62
f 63/63/63 65/65/65 64/64/64
f 68/68/68 67/67/67 66/66/66
f 70/70/70 67/67/67 69/69/69
f 68/68/68 72/72/72 71/71/71
f 71/71/71 74/74/74 73/73/73
f 77/77/77 76/76/76 75/75/75
f 77/77/77 75/75/75 78/78/78
f 81/81/81 80/80/80 79/79/79
f 81/81/81 79/79/79 82/82/82
f 85/85/85 84/84/84 83/83/83
f 85/85/85 83/83/83 86/86/86
f 89/89/89 88/88/88 87/87/87
f 91/91/91 88/88/88 90/90/90
f 89/89/89 93/93/93 92/92/92
f 92/92/92 95/95/95 94/94/94
f 98/98/98 97/97/97 96/96/96
f 100/100/100 97/97/97 99/99/99
f 98/98/98 102/102/102 101/101/101
f 101/101/101 104/104/104 103/103/103
f 107/107/107 106/106/106 105/105/105
f 107/107/107 105/105/105 108/108/108
f 111/111/111 110/110/110 109/109/109
f 113/113/113 110/110/110 112/112/112
f 110/110/110 115/115/115 114/114/114
f 118/118/118 117/117/117 116/116/116
f 121/121/121 120/120/120 119/119/119
f 124/124/124 123/123/123 122/122/122
f 124/124/124 126/126/126 125/125/125
f 129/129/129 128/128/128 127/127/127
f 132/132/132 131/131/131 130/130/130
f 135/135/135 134/134/134 133/133/133
f 137/137/137 136/136/136 133/133/133
f 140/140/140 139/139/139 138/138/138
f 143/143/143 142/142/142 141/141/141
f 146/146/146 145/145/145 144/144/144
f 149/149/149 148/148/148 147/147/147
f 152/152/152 151/151/151 150/150/150
f 152/152/152 154/154/154 153/153/153
f 157/157/157 156/156/156 155/155/155
f 155/155/155 159/159/159 158/158/158
f 162/162/162 161/161/161 160/160/160
f 165/165/165 164/164/164 163/163/163
f 168/168/168 167/167/167 166/166/166
f 171/171/171 170/170/170 169/169/169
f 174/174/174 173/173/173 172/172/172
f 176/176/176 175/175/175 172/172/172
f 179/179/179 178/178/178 177/177/177
f 182/182/182 181/181/181 180/180/180
f 185/185/185 184/184/184 183/183/183
f 187/187/187 186/186/186 184/184/184
f 184/184/184 189/189/189 188/188/188
f 191/191/191 189/189/189 190/190/190
f 194/194/194 193/193/193 192/192/192
f 197/197/197 196/196/196 195/195/195
f 199/199/199 198/198/198 195/195/195
f 201/201/201 200/200/200 199/199/199
f 204/204/204 203/203/203 202/202/202
f 203/203/203 205/205/205 202/202/202
f 208/208/208 207/207/207 206/206/206
f 210/210/210 207/207/207 209/209/209
f 213/213/213 212/212/212 211/211/211
f 215/215/215 211/211/211 214/214/214
f 218/218/218 217/217/217 216/216/216
f 216/216/216 219/219/219 218/218/218
f 222/222/222 221/221/221 220/220/220
f 224/224/224 223/223/223 222/222/222
f 227/227/227 226/226/226 225/225/225
f 229/229/229 228/228/228 225/225/225
f 231/231/231 228/228/228 230/230/230
f 234/234/234 233/233/233 232/232/232
f 235/235/235 234/234/234 232/232/232
f 238/238/238 237/237/237 236/236/236
f 239/239/239 238/238/238 236/236/236
f 242/242/242 241/241/241 240/240/240
f 243/243/243 242/242/242 240/240/240
f 246/246/246 245/245/245 244/244/244
f 247/247/247 246/246/246 244/244/244
f 250/250/250 249/249/249 248/248/248
f 251/251/251 250/250/250 248/248/248
f 254/254/254 253/253/253 252/252/252
f 255/255/255 254/254/254 252/252/252
f 258/258/258 257/257/257 256/256/256
f 259/259/259 258/258/258 256/256/256
f 262/262/262 261/261/261 260/260/260
f 263/263/263 262/262/262 260/260/260
f 266/266/266 265/265/265 264/264/264
f 267/267/267 266/266/266 264/264/264
f 270/270/270 269/269/269 268/268/268
f 271/271/271 270/270/270 268/268/268
f 274/274/274 273/273/273 272/272/272
f 276/276/276 273/273/273 275/275/275
f 278/278/278 277/277/277 272/272/272
f 280/280/280 279/279/279 278/278/278
f 283/283/283 282/282/282 281/281/281
f 285/285/285 284/284/284 281/281/281
f 285/285/285 287/287/287 286/286/286
f 287/287/287 289/289/289 288/288/288
f 292/292/292 291/291/291 290/290/290
f 293/293/293 292/292/292 290/290/290
f 296/296/296 295/295/295 294/294/294
f 298/298/298 297/297/297 294/294/294
f 298/298/298 300/300/300 299/299/299
f 300/300/300 302/302/302 301/301/301
f 305/305/305 304/304/304 303/303/303
f 307/307/307 306/306/306 303/303/303
f 307/307/307 309/309/309 308/308/308
f 309/309/309 311/311/311 310/310/310
f 314/314/314 313/313/313 312/312/312
f 314/314/314 312/312/312 315/315/315
f 318/318/318 317/317/317 316/316/316
f 318/318/318 316/316/316 319/319/319
f 322/322/322 321/321/321 320/320/320
f 322/322/322 320/320/320 323/323/323
f 326/326/326 325/325/325 324/324/324
f 328/328/328 325/325/325 327/327/327
f 330/330/330 328/328/328 329/329/329
f 330/330/330 332/332/332 331/331/331
f 335/335/335 334/334/334 333/333/333
f 337/337/337 334/334/334 336/336/336
f 339/339/339 337/337/337 338/338/338
f 339/339/339 341/341/341 340/340/340
f 344/344/344 343/343/343 342/342/342
f 344/344/344 342/342/342 345/345/345
f 348/348/348 347/347/347 346/346/346
f 348/348/348 346/346/346 349/349/349
f 352/352/352 351/351/351 350/350/350
f 352/352/352 350/350/350 353/353/353
f 356/356/356 355/355/355 354/354/354
f 358/358/358 355/355/355 357/357/357
f 360/360/360 358/358/358 359/359/359
f 360/360/360 362/362/362 361/361/361
f 365/365/365 364/364/364 363/363/363
f 367/367/367 364/364/364 366/366/366
f 369/369/369 367/367/367 368/368/368
f 369/369/369 371/371/371 370/370/370
