mtllib EGA_Advertising_03.mtl
g default
v -0.09999998 0.2774595 0.09999998
v 0.3 1.1 0.09999994
v 0.3 0.2774595 0.09999993
v -0.09999997 1.1 0.09999999
v -0.09999994 1.1 0.3
v 0.3000001 1.3 0.9002731
v 0.3 1.1 0.2999999
v -0.09999989 1.3 0.9002731
v -0.2999999 -0.1 0.3
v 0.4999999 0.1 0.2999999
v 0.4999999 -0.1 0.2999999
v -0.2999999 0.1 0.3
v -0.09999987 1.3 0.8999999
v 0.3000001 1.5 0.8999999
v 0.3000001 1.3 0.8999999
v -0.09999987 1.5 0.8999999
v -0.1840795 1.5 1.1
v 0.3765469 5.1 1.1
v 0.3765469 1.5 1.1
v -0.1840795 5.1 1.1
v 0.2999998 1.7 -1.1
v 0.3765467 4.9 -1.1
v 0.3765467 1.7 -1.1
v 0.2999998 4.9 -1.1
v -0.1840798 1.7 -1.1
v -0.1000001 4.9 -1.1
v -0.1000001 1.7 -1.1
v -0.1840798 4.9 -1.1
v 0.3765469 4.9 0.8999997
v 0.3000001 1.7 0.8999999
v 0.3765469 1.7 0.8999997
v 0.3000001 4.9 0.8999999
v -0.09999987 4.9 0.8999999
v -0.1840795 1.7 0.8999998
v -0.09999987 1.7 0.8999999
v -0.1840795 4.9 0.8999998
v 0.3765467 5.1 -1.3
v -0.1840798 1.5 -1.3
v 0.3765467 1.5 -1.3
v -0.1840798 5.1 -1.3
v 0.2999998 1.5 -1.1
v -0.1000001 1.3 -1.1
v 0.2999998 1.3 -1.1
v -0.1000001 1.5 -1.1
v 0.2999998 1.3 -1.099572
v -0.1 1.1 -0.4999999
v 0.2999999 1.1 -0.4999999
v -0.1000001 1.3 -1.099571
v 0.4999999 0.1 -0.5
v -0.3 -0.1 -0.4999999
v 0.4999999 -0.1 -0.5
v -0.3 0.1 -0.4999999
v 0.2999999 1.1 -0.3
v -0.1 0.2774595 -0.3
v 0.2999999 0.2774595 -0.3
v -0.1 1.1 -0.3
v 0.4999999 -0.1 -0.5
v -0.2999999 -0.1 0.3
v 0.4999999 -0.1 0.2999999
v -0.3 -0.1 -0.4999999
v 0.3765467 4.9 -1.1
v 0.3000001 4.9 0.8999999
v 0.3765469 4.9 0.8999997
v 0.2999998 4.9 -1.1
v -0.1000001 4.9 -1.1
v -0.1840795 4.9 0.8999998
v -0.09999987 4.9 0.8999999
v -0.1840798 4.9 -1.1
v 0.3765467 1.5 -1.3
v 0.2999998 1.5 -1.1
v 0.3765469 1.5 1.1
v 0.2999998 1.5 -1.1
v 0.3000001 1.5 0.8999999
v 0.3765467 1.5 -1.3
v -0.1840798 1.5 -1.3
v 0.2999998 1.5 -1.1
v 0.3000001 1.5 0.8999999
v -0.1840795 1.5 1.1
v 0.3765469 1.5 1.1
v -0.1000001 1.5 -1.1
v -0.1840798 1.5 -1.3
v -0.1840795 1.5 1.1
v -0.09999987 1.5 0.8999999
v -0.1000001 1.5 -1.1
v -0.1840798 1.5 -1.3
v -0.1000001 1.5 -1.1
v 0.2999998 1.5 -1.1
v 0.3000001 1.5 0.8999999
v -0.09999987 1.5 0.8999999
v -0.1840795 1.5 1.1
v 0.2999998 1.3 -1.1
v -0.1000001 1.3 -1.099571
v 0.2999998 1.3 -1.099572
v -0.1000001 1.3 -1.1
v 0.3000001 1.3 0.9002731
v -0.09999987 1.3 0.8999999
v 0.3000001 1.3 0.8999999
v -0.09999989 1.3 0.9002731
v 0.2999999 1.1 -0.4999999
v -0.1 1.1 -0.3
v 0.2999999 1.1 -0.3
v -0.1 1.1 -0.4999999
v 0.3 1.1 0.09999994
v -0.09999994 1.1 0.3
v 0.3 1.1 0.2999999
v -0.09999997 1.1 0.09999999
v 0.2999999 0.2774595 -0.3
v 0.4999999 0.1 -0.5
v 0.4999999 0.1 0.2999999
v 0.3 0.2774595 0.09999993
v 0.2999999 0.2774595 -0.3
v -0.3 0.1 -0.4999999
v 0.2999999 0.2774595 -0.3
v -0.2999999 0.1 0.3
v 0.3 0.2774595 0.09999993
v -0.1 0.2774595 -0.3
v -0.1 0.2774595 -0.3
v 0.2999999 0.2774595 -0.3
v -0.09999998 0.2774595 0.09999998
v 0.3 0.2774595 0.09999993
v -0.1 0.2774595 -0.3
v -0.09999998 0.2774595 0.09999998
v -0.1840795 5.1 1.1
v 0.3765467 5.1 -1.3
v 0.3765469 5.1 1.1
v -0.1840798 5.1 -1.3
v 0.3000001 1.7 0.8999999
v 0.3765467 1.7 -1.1
v 0.3765469 1.7 0.8999997
v 0.2999998 1.7 -1.1
v -0.1840795 1.7 0.8999998
v -0.1000001 1.7 -1.1
v -0.09999987 1.7 0.8999999
v -0.1840798 1.7 -1.1
v 0.2999998 1.3 -1.1
v 0.2999998 1.3 -1.099572
v 0.2999998 1.5 -1.1
v 0.2999998 1.3 -1.099572
v 0.3000001 1.5 0.8999999
v 0.2999998 1.3 -1.099572
v 0.3000001 1.3 0.9002731
v 0.3000001 1.5 0.8999999
v 0.3000001 1.3 0.9002731
v 0.3000001 1.3 0.8999999
v 0.2999999 1.1 -0.3
v 0.3000001 1.3 0.9002731
v 0.2999998 1.3 -1.099572
v 0.2999999 1.1 -0.4999999
v 0.2999999 1.1 -0.3
v 0.2999999 1.1 -0.3
v 0.3 1.1 0.09999994
v 0.3 1.1 0.09999994
v 0.3 1.1 0.2999999
v 0.2999999 1.1 -0.3
v 0.2999999 0.2774595 -0.3
v 0.3 1.1 0.09999994
v 0.3 0.2774595 0.09999993
v 0.3000001 4.9 0.8999999
v 0.2999998 1.7 -1.1
v 0.3000001 1.7 0.8999999
v 0.2999998 4.9 -1.1
v 0.3765467 1.7 -1.1
v 0.3765467 1.5 -1.3
v 0.3765469 1.5 1.1
v 0.3765469 1.7 0.8999997
v 0.3765467 1.7 -1.1
v 0.3765467 5.1 -1.3
v 0.3765467 1.7 -1.1
v 0.3765469 5.1 1.1
v 0.3765469 1.7 0.8999997
v 0.3765467 4.9 -1.1
v 0.3765467 4.9 -1.1
v 0.3765467 1.7 -1.1
v 0.3765469 4.9 0.8999997
v 0.3765469 1.7 0.8999997
v 0.3765467 4.9 -1.1
v 0.3765469 4.9 0.8999997
v 0.4999999 0.1 0.2999999
v 0.4999999 -0.1 -0.5
v 0.4999999 -0.1 0.2999999
v 0.4999999 0.1 -0.5
v -0.1000001 1.3 -1.099571
v -0.1000001 1.3 -1.1
v -0.1000001 1.5 -1.1
v -0.09999987 1.5 0.8999999
v -0.1000001 1.3 -1.099571
v -0.09999989 1.3 0.9002731
v -0.1000001 1.3 -1.099571
v -0.09999989 1.3 0.9002731
v -0.09999987 1.5 0.8999999
v -0.09999987 1.3 0.8999999
v -0.09999989 1.3 0.9002731
v -0.1 1.1 -0.3
v -0.1000001 1.3 -1.099571
v -0.1 1.1 -0.3
v -0.1 1.1 -0.4999999
v -0.09999997 1.1 0.09999999
v -0.1 1.1 -0.3
v -0.09999997 1.1 0.09999999
v -0.09999994 1.1 0.3
v -0.1 0.2774595 -0.3
v -0.1 1.1 -0.3
v -0.09999997 1.1 0.09999999
v -0.09999998 0.2774595 0.09999998
v -0.1000001 1.7 -1.1
v -0.09999987 4.9 0.8999999
v -0.09999987 1.7 0.8999999
v -0.1000001 4.9 -1.1
v -0.1840798 1.5 -1.3
v -0.1840798 1.7 -1.1
v -0.1840795 1.5 1.1
v -0.1840798 1.7 -1.1
v -0.1840795 1.7 0.8999998
v -0.1840798 5.1 -1.3
v -0.1840798 1.7 -1.1
v -0.1840795 1.7 0.8999998
v -0.1840795 5.1 1.1
v -0.1840798 4.9 -1.1
v -0.1840798 4.9 -1.1
v -0.1840798 1.7 -1.1
v -0.1840795 1.7 0.8999998
v -0.1840795 4.9 0.8999998
v -0.1840795 4.9 0.8999998
v -0.1840798 4.9 -1.1
v -0.3 -0.1 -0.4999999
v -0.2999999 0.1 0.3
v -0.2999999 -0.1 0.3
v -0.3 0.1 -0.4999999
vn 1.210719E-07 -1.358701E-08 0.9999999
vn 1.210719E-07 -1.358701E-08 0.9999999
vn 1.303852E-07 -1.811602E-08 0.9999999
vn 1.117587E-07 -9.058012E-09 0.9999999
vn 4.71023E-08 -0.9487265 0.3160982
vn 4.71023E-08 -0.9487265 0.3160982
vn 9.42046E-08 -0.9487265 0.3160982
vn 0 -0.9487265 0.3160982
vn 1.490117E-07 0 1
vn 1.490117E-07 0 1
vn 1.490117E-07 0 1
vn 1.490117E-07 0 1
vn 0 0 1
vn 0 0 1
vn 0 0 1
vn 0 0 1
vn 0 0 1
vn 0 0 1
vn 0 0 1
vn 0 0 1
vn 0 0 1
vn 0 0 1
vn 0 0 1
vn 0 0 1
vn 0 0 1
vn 0 0 1
vn 0 0 1
vn 0 0 1
vn -3.114678E-06 0 -1
vn -3.114678E-06 0 -1
vn -3.114678E-06 0 -1
vn -3.114678E-06 0 -1
vn 1.417814E-06 0 -1
vn 1.417814E-06 0 -1
vn 1.417814E-06 0 -1
vn 1.417814E-06 0 -1
vn 0 0 -1
vn 0 0 -1
vn 0 0 -1
vn 0 0 -1
vn 0 0 -1
vn 0 0 -1
vn 0 0 -1
vn 0 0 -1
vn -3.772153E-07 -0.9486156 -0.316431
vn -3.772153E-07 -0.9486156 -0.316431
vn 0 -0.9486157 -0.3164308
vn -7.54431E-07 -0.9486154 -0.3164312
vn -1.117587E-07 0 -1
vn -1.117587E-07 0 -1
vn -1.117587E-07 0 -1
vn -1.117587E-07 0 -1
vn 0 0 -1
vn 0 0 -1
vn 0 0 -1
vn 0 0 -1
vn 0 -1 0
vn 0 -1 0
vn 0 -1 0
vn 0 -1 0
vn 0 -1 0
vn 0 -1 0
vn 0 -1 0
vn 0 -1 0
vn 0 -1 0
vn 0 -1 0
vn 0 -1 0
vn 0 -1 0
vn 0 -1 0
vn 0 -1 0
vn 0 -0.9999999 0
vn 0 -1 0
vn 0 -1 0
vn 0 -0.9999999 0
vn 0 -0.9999999 0
vn 0 -0.9999999 0
vn 0 -1 0
vn 0 -1 0
vn 0 -1 0
vn 0 -1 0
vn 0 -1 0
vn 0 -1 0
vn 0 -1 0
vn 0 -1 0
vn 0 -1 0
vn 0 -1 0
vn 0 -1 0
vn 0 -1 0
vn 0 -1 0
vn 0 -1 0
vn 0 -1 0
vn 0 -1 0
vn 0 -0.9999999 0
vn 0 -1 0
vn 0 1 0
vn 0 1 0
vn 0 1 0
vn 0 1 0
vn 0 -1 0
vn 0 -1 0
vn 0 -1 0
vn 0 -1 0
vn 0 -1 0
vn 0 -1 0
vn 0 -1 0
vn 0 -1 0
vn 0.6636986 0.7480001 0
vn 0.3758051 0.8470779 -0.3758051
vn 0.44844 0.8423327 0.2989599
vn 0.663699 0.7479998 -1.977977E-07
vn 0.663699 0.7479998 -1.977977E-07
vn -0.29896 0.8423327 -0.4484399
vn -7.417412E-08 0.748 -0.6636987
vn -0.3758051 0.847078 0.3758052
vn 9.889882E-08 0.748 0.6636987
vn -0.6636987 0.7480001 9.889882E-08
vn 0 0.748 -0.6636989
vn 0 0.748 -0.6636989
vn 8.653646E-08 0.7480001 0.6636986
vn 8.653646E-08 0.7480001 0.6636986
vn -0.6636987 0.748 3.708706E-08
vn -0.6636987 0.748 3.708706E-08
vn 0 1 0
vn 0 1 0
vn 0 1 0
vn 0 1 0
vn 0 1 0
vn 0 1 0
vn 0 1 0
vn 0 1 0
vn 0 1 0
vn 0 1 0
vn 0 1 0
vn 0 1 0
vn 0.9999999 0 0
vn 0.9999999 0 0
vn 1 -3.188766E-10 -1.489797E-07
vn 1 -3.189448E-10 -1.490116E-07
vn 1 -2.613033E-10 -1.490174E-07
vn 1 -2.036573E-10 -1.490232E-07
vn 1 -2.036573E-10 -1.490232E-07
vn -1 0 0
vn -1 0 0
vn -1 0 0
vn 0.9999999 -1.487389E-07 -1.490232E-07
vn 1 -3.410803E-08 -1.604836E-07
vn 1 -9.457386E-08 -1.354747E-07
vn 1 4.470349E-07 0
vn 1 4.470349E-07 0
vn 0.9999999 7.454653E-07 -2.980233E-07
vn 0.9999999 7.454653E-07 -2.980233E-07
vn 1 -4.470349E-07 0
vn 1 -4.470349E-07 0
vn 0.9999999 0 -2.980233E-07
vn 0.9999999 2.699498E-15 -2.980233E-07
vn 0.9999999 2.699498E-15 -2.980233E-07
vn 0.9999999 5.398995E-15 -2.980233E-07
vn 1 0 -1.490116E-07
vn 1 0 -1.490116E-07
vn 1 0 -1.490116E-07
vn 1 0 -1.490116E-07
vn 0.9999999 7.450576E-08 -7.450581E-08
vn 1 2.980232E-08 -2.980234E-08
vn 1 -4.662933E-14 -4.470346E-08
vn 1 -8.940712E-08 -8.940698E-08
vn 1 -8.940712E-08 -8.940698E-08
vn 1 -1.94363E-08 -1.943629E-08
vn 1 0 0
vn 1 4.123683E-14 -3.193101E-08
vn 1 0 0
vn 1 -7.450584E-08 -7.45058E-08
vn 1 0 0
vn 1 0 0
vn 1 0 0
vn 1 0 0
vn 1 8.940727E-08 -8.940698E-08
vn 1 8.940727E-08 -8.940698E-08
vn 1 0 0
vn 1 0 0
vn 1 0 0
vn 1 0 0
vn -1 0 0
vn -1 0 0
vn -1 2.477841E-10 1.154592E-07
vn -1 5.607232E-08 1.099003E-07
vn -1 2.478373E-10 1.15484E-07
vn -1 1.119012E-07 1.043163E-07
vn -1 1.119012E-07 1.043163E-07
vn 1 0 8.182413E-05
vn 1 0 8.182413E-05
vn 1 0 8.182413E-05
vn -1 -4.88926E-08 1.031681E-07
vn -1 -6.724641E-08 1.043163E-07
vn -0.9999999 -1.051619E-07 9.483229E-08
vn -1 -4.842879E-07 0
vn -1 -4.842879E-07 0
vn -1 1.11657E-07 7.45058E-08
vn -1 1.11657E-07 7.45058E-08
vn -1 -1.86468E-07 1.490116E-07
vn -1 -1.86468E-07 1.490116E-07
vn -1 4.529003E-09 6.519258E-08
vn -1 0 7.450581E-08
vn -1 4.529003E-09 6.519258E-08
vn -0.9999999 9.058008E-09 5.587936E-08
vn -1 0 1.15484E-07
vn -1 0 1.15484E-07
vn -1 0 1.15484E-07
vn -1 0 1.15484E-07
vn -1 -4.967053E-08 4.967056E-08
vn -1 -1.241763E-07 1.241763E-07
vn -1 4.884979E-14 7.450578E-08
vn -1 1.490117E-07 1.490116E-07
vn -1 1.490117E-07 1.490116E-07
vn -1 3.239384E-08 3.239381E-08
vn -1 0 0
vn -0.9999999 0 0
vn -1 -4.123684E-14 5.321836E-08
vn -1 1.241764E-07 1.241764E-07
vn -1 0 0
vn -1 0 0
vn -0.9999999 0 0
vn -0.9999999 0 0
vn -1 -1.49012E-07 1.490116E-07
vn -1 -1.49012E-07 1.490116E-07
vn -1 0 1.490116E-07
vn -1 0 1.490116E-07
vn -1 0 1.490116E-07
vn -1 0 1.490116E-07
vt 0.2221437 0.6661953
vt 0.1112682 0.333569
vt 0.2221437 0.333569
vt 0.1111897 0.666431
vt 0.2221437 0.6661953
vt 0.1112682 0.333569
vt 0.2221437 0.333569
vt 0.1111897 0.666431
vt 0.2221437 0.6661953
vt 0.1112682 0.333569
vt 0.2221437 0.333569
vt 0.1111897 0.666431
vt 0.2221437 0.6661953
vt 0.1112682 0.333569
vt 0.2221437 0.333569
vt 0.1111897 0.666431
vt 0.555477 0.6661953
vt 0.4446016 0.333569
vt 0.555477 0.333569
vt 0.444523 0.666431
vt 0.555477 0.6661953
vt 0.4446016 0.333569
vt 0.555477 0.333569
vt 0.444523 0.666431
vt 0.555477 0.6661953
vt 0.4446016 0.333569
vt 0.555477 0.333569
vt 0.444523 0.666431
vt 0.4446016 0.333569
vt 0.555477 0.6661953
vt 0.555477 0.333569
vt 0.444523 0.666431
vt 0.4446016 0.333569
vt 0.555477 0.6661953
vt 0.555477 0.333569
vt 0.444523 0.666431
vt 0.4446016 0.333569
vt 0.555477 0.6661953
vt 0.555477 0.333569
vt 0.444523 0.666431
vt 0.1112682 0.333569
vt 0.2221437 0.6661953
vt 0.2221437 0.333569
vt 0.1111897 0.666431
vt 0.1112682 0.333569
vt 0.2221437 0.6661953
vt 0.2221437 0.333569
vt 0.1111897 0.666431
vt 0.1112682 0.333569
vt 0.2221437 0.6661953
vt 0.2221437 0.333569
vt 0.1111897 0.666431
vt 0.1112682 0.333569
vt 0.2221437 0.6661953
vt 0.2221437 0.333569
vt 0.1111897 0.666431
vt 0.1112682 0.333569
vt 0.2221437 0.6661953
vt 0.2221437 0.333569
vt 0.1111897 0.666431
vt 0.4446016 0.333569
vt 0.555477 0.6661953
vt 0.555477 0.333569
vt 0.444523 0.666431
vt 0.4446016 0.333569
vt 0.555477 0.6661953
vt 0.555477 0.333569
vt 0.444523 0.666431
vt 0.4445261 0.3335594
vt 0.4537665 0.6662145
vt 0.5554111 0.3335594
vt 0.4446086 0.6664087
vt 0.5453842 0.6664087
vt 0.4445261 0.3335594
vt 0.4445139 0.6663023
vt 0.5554168 0.4167708
vt 0.4445833 0.4167708
vt 0.5554861 0.6663023
vt 0.5554111 0.3335594
vt 0.4537665 0.3337855
vt 0.4445139 0.6663023
vt 0.5554861 0.6663023
vt 0.5453842 0.3335913
vt 0.4446086 0.3335913
vt 0.4445139 0.6663023
vt 0.5554501 0.5554501
vt 0.5554501 0.3338604
vt 0.4445499 0.3338604
vt 0.4445499 0.5554501
vt 0.5554861 0.6663023
vt 0.1112682 0.333569
vt 0.2221437 0.6661953
vt 0.2221437 0.333569
vt 0.1111897 0.666431
vt 0.1112682 0.333569
vt 0.2221437 0.6661953
vt 0.2221437 0.333569
vt 0.1111897 0.666431
vt 0.1112682 0.333569
vt 0.2221437 0.6661953
vt 0.2221437 0.333569
vt 0.1111897 0.666431
vt 0.1112682 0.333569
vt 0.2221437 0.6661953
vt 0.2221437 0.333569
vt 0.1111897 0.666431
vt 0.1389236 0.6662502
vt 0.1111979 0.3335416
vt 0.2221007 0.3335416
vt 0.18515 0.6663504
vt 0.1112868 0.6663504
vt 0.1111805 0.6663023
vt 0.2220834 0.4167708
vt 0.2221528 0.6663023
vt 0.1112499 0.4167708
vt 0.1389236 0.3337498
vt 0.2221168 0.5554501
vt 0.2221168 0.3338604
vt 0.1112165 0.5554501
vt 0.1112165 0.3338604
vt 0.1112868 0.3336496
vt 0.18515 0.3336496
vt 0.555477 0.6661953
vt 0.4446016 0.333569
vt 0.555477 0.333569
vt 0.444523 0.666431
vt 0.555477 0.6661953
vt 0.4446016 0.333569
vt 0.555477 0.333569
vt 0.444523 0.666431
vt 0.555477 0.6661953
vt 0.4446016 0.333569
vt 0.555477 0.333569
vt 0.444523 0.666431
vt 0.1111897 0.333569
vt 0.2220651 0.333569
vt 0.1111897 0.6661953
vt 0.1444715 0.3337398
vt 0.2221071 0.6664634
vt 0.111284 0.3336633
vt 0.1745875 0.3336633
vt 0.2221071 0.6664634
vt 0.1112682 0.333569
vt 0.2221437 0.333569
vt 0.1389236 0.3337498
vt 0.2221007 0.6664584
vt 0.1111979 0.6664584
vt 0.1111897 0.333569
vt 0.2220651 0.333569
vt 0.1112868 0.3336496
vt 0.18515 0.3336496
vt 0.1112682 0.333569
vt 0.2221437 0.333569
vt 0.1111897 0.666431
vt 0.1111897 0.3338047
vt 0.2220651 0.666431
vt 0.2221437 0.333569
vt 0.8888103 0.6661953
vt 0.7779349 0.333569
vt 0.8888103 0.333569
vt 0.7778563 0.666431
vt 0.4537665 0.6662145
vt 0.4445261 0.3335594
vt 0.5554111 0.3335594
vt 0.5453842 0.6664087
vt 0.4446086 0.6664087
vt 0.4445209 0.6662209
vt 0.5554027 0.3520556
vt 0.5554792 0.6662209
vt 0.4445973 0.3520556
vt 0.4537665 0.3337855
vt 0.5554723 0.6468383
vt 0.5554723 0.3338185
vt 0.4445277 0.6468383
vt 0.4445277 0.3338185
vt 0.4446086 0.3335913
vt 0.5453842 0.3335913
vt 0.2221437 0.6661953
vt 0.1112682 0.333569
vt 0.2221437 0.333569
vt 0.1111897 0.666431
vt 0.2220651 0.333569
vt 0.1111897 0.333569
vt 0.1111897 0.6661953
vt 0.2221071 0.6664634
vt 0.1444715 0.3337398
vt 0.1745875 0.3336633
vt 0.111284 0.3336633
vt 0.1112682 0.333569
vt 0.2221071 0.6664634
vt 0.2221437 0.333569
vt 0.2221007 0.6664584
vt 0.1389236 0.3337498
vt 0.1111979 0.6664584
vt 0.2220651 0.333569
vt 0.1111897 0.333569
vt 0.18515 0.3336496
vt 0.1112868 0.3336496
vt 0.1112682 0.333569
vt 0.2221437 0.333569
vt 0.1111897 0.3338047
vt 0.1111897 0.666431
vt 0.2220651 0.666431
vt 0.2221437 0.333569
vt 0.7779349 0.333569
vt 0.8888103 0.6661953
vt 0.8888103 0.333569
vt 0.7778563 0.666431
vt 0.4445261 0.3335594
vt 0.4537665 0.6662145
vt 0.5554111 0.3335594
vt 0.4446086 0.6664087
vt 0.5453842 0.6664087
vt 0.4445209 0.6662209
vt 0.5554027 0.3520556
vt 0.4445973 0.3520556
vt 0.5554792 0.6662209
vt 0.4537665 0.3337855
vt 0.5554723 0.6468383
vt 0.5554723 0.3338185
vt 0.4445277 0.3338185
vt 0.4445277 0.6468383
vt 0.5453842 0.3335913
vt 0.4446086 0.3335913
vt 0.1112682 0.333569
vt 0.2221437 0.6661953
vt 0.2221437 0.333569
vt 0.1111897 0.666431
usemtl EGA_Advertising_03-defaultMat
f 3/3/3 2/2/2 1/1/1
f 1/1/1 2/2/2 4/4/4
f 7/7/7 6/6/6 5/5/5
f 5/5/5 6/6/6 8/8/8
f 11/11/11 10/10/10 9/9/9
f 9/9/9 10/10/10 12/12/12
f 15/15/15 14/14/14 13/13/13
f 13/13/13 14/14/14 16/16/16
f 19/19/19 18/18/18 17/17/17
f 17/17/17 18/18/18 20/20/20
f 23/23/23 22/22/22 21/21/21
f 21/21/21 22/22/22 24/24/24
f 27/27/27 26/26/26 25/25/25
f 25/25/25 26/26/26 28/28/28
f 31/31/31 30/30/30 29/29/29
f 30/30/30 32/32/32 29/29/29
f 35/35/35 34/34/34 33/33/33
f 34/34/34 36/36/36 33/33/33
f 39/39/39 38/38/38 37/37/37
f 38/38/38 40/40/40 37/37/37
f 43/43/43 42/42/42 41/41/41
f 42/42/42 44/44/44 41/41/41
f 47/47/47 46/46/46 45/45/45
f 46/46/46 48/48/48 45/45/45
f 51/51/51 50/50/50 49/49/49
f 50/50/50 52/52/52 49/49/49
f 55/55/55 54/54/54 53/53/53
f 54/54/54 56/56/56 53/53/53
f 59/59/59 58/58/58 57/57/57
f 58/58/58 60/60/60 57/57/57
f 63/63/63 62/62/62 61/61/61
f 62/62/62 64/64/64 61/61/61
f 67/67/67 66/66/66 65/65/65
f 66/66/66 68/68/68 65/65/65
f 71/71/71 70/70/70 69/69/69
f 71/71/71 73/73/73 72/72/72
f 76/76/76 75/75/75 74/74/74
f 79/79/79 78/78/78 77/77/77
f 82/82/82 81/81/81 80/80/80
f 82/82/82 84/84/84 83/83/83
f 87/87/87 86/86/86 85/85/85
f 90/90/90 89/89/89 88/88/88
f 93/93/93 92/92/92 91/91/91
f 92/92/92 94/94/94 91/91/91
f 97/97/97 96/96/96 95/95/95
f 96/96/96 98/98/98 95/95/95
f 101/101/101 100/100/100 99/99/99
f 100/100/100 102/102/102 99/99/99
f 105/105/105 104/104/104 103/103/103
f 104/104/104 106/106/106 103/103/103
f 109/109/109 108/108/108 107/107/107
f 109/109/109 111/111/111 110/110/110
f 113/113/113 108/108/108 112/112/112
f 109/109/109 115/115/115 114/114/114
f 114/114/114 116/116/116 112/112/112
f 118/118/118 112/112/112 117/117/117
f 114/114/114 120/120/120 119/119/119
f 114/114/114 122/122/122 121/121/121
f 125/125/125 124/124/124 123/123/123
f 123/123/123 124/124/124 126/126/126
f 129/129/129 128/128/128 127/127/127
f 127/127/127 128/128/128 130/130/130
f 133/133/133 132/132/132 131/131/131
f 131/131/131 132/132/132 134/134/134
f 137/137/137 136/136/136 135/135/135
f 137/137/137 139/139/139 138/138/138
f 139/139/139 141/141/141 140/140/140
f 144/144/144 143/143/143 142/142/142
f 147/147/147 146/146/146 145/145/145
f 147/147/147 149/149/149 148/148/148
f 146/146/146 151/151/151 150/150/150
f 153/153/153 152/152/152 146/146/146
f 156/156/156 155/155/155 154/154/154
f 157/157/157 155/155/155 156/156/156
f 160/160/160 159/159/159 158/158/158
f 158/158/158 159/159/159 161/161/161
f 164/164/164 163/163/163 162/162/162
f 164/164/164 166/166/166 165/165/165
f 168/168/168 163/163/163 167/167/167
f 164/164/164 170/170/170 169/169/169
f 169/169/169 171/171/171 167/167/167
f 173/173/173 167/167/167 172/172/172
f 169/169/169 175/175/175 174/174/174
f 169/169/169 177/177/177 176/176/176
f 180/180/180 179/179/179 178/178/178
f 178/178/178 179/179/179 181/181/181
f 184/184/184 183/183/183 182/182/182
f 184/184/184 186/186/186 185/185/185
f 185/185/185 188/188/188 187/187/187
f 191/191/191 190/190/190 189/189/189
f 194/194/194 193/193/193 192/192/192
f 194/194/194 196/196/196 195/195/195
f 192/192/192 198/198/198 197/197/197
f 200/200/200 192/192/192 199/199/199
f 203/203/203 202/202/202 201/201/201
f 204/204/204 203/203/203 201/201/201
f 207/207/207 206/206/206 205/205/205
f 206/206/206 208/208/208 205/205/205
f 211/211/211 210/210/210 209/209/209
f 211/211/211 213/213/213 212/212/212
f 215/215/215 214/214/214 209/209/209
f 211/211/211 217/217/217 216/216/216
f 217/217/217 214/214/214 218/218/218
f 220/220/220 219/219/219 214/214/214
f 217/217/217 222/222/222 221/221/221
f 217/217/217 224/224/224 223/223/223
f 227/227/227 226/226/226 225/225/225
f 226/226/226 228/228/228 225/225/225
