mtllib EGA_Bar_01.mtl
g default
v -0.275 0.075 2.525
v -0.275 -0.025 2.525
v -0.275 -0.025 -2.475
v -0.275 0.075 -2.475
v -0.325 1.525 2.575
v -0.325 0.075 2.575
v -0.325 0.075 -2.525
v -0.325 1.525 -2.525
v 0.425 0.075 2.575
v 0.425 0.025 2.575
v 0.425 0.025 2.525
v 0.425 0.075 2.525
v 0.425 0.075 -2.475
v 0.425 0.025 -2.475
v 0.425 0.025 -2.525
v 0.425 0.075 -2.525
v -0.275 1.075 -2.475
v -0.275 1.075 2.525
v -0.275 1.475 2.525
v -0.275 1.475 -2.475
v -0.275 0.575 -2.475
v -0.275 0.575 2.525
v -0.275 0.975 2.525
v -0.275 0.975 -2.475
v -0.275 0.075 -2.475
v -0.275 0.075 2.525
v -0.275 0.475 2.525
v -0.275 0.475 -2.475
v 0.475 1.475 2.525
v 0.475 0.025 2.575
v 0.475 1.525 2.575
v 0.475 0.075 2.525
v 0.475 1.475 2.525
v 0.475 1.525 -2.525
v 0.475 1.475 2.525
v 0.475 0.025 -2.525
v 0.475 0.075 2.525
v 0.475 1.475 -2.475
v 0.475 1.475 -2.475
v 0.475 1.475 2.525
v 0.475 0.075 -2.475
v 0.475 0.075 2.525
v 0.475 1.475 -2.475
v 0.475 0.075 -2.475
v 0.425 0.975 -2.475
v 0.425 0.975 2.525
v 0.425 1.075 2.525
v 0.425 1.075 -2.475
v 0.425 0.475 -2.475
v 0.425 0.475 2.525
v 0.425 0.575 2.525
v 0.425 0.575 -2.475
v 0.425 -0.025 -2.475
v 0.425 -0.025 2.525
v 0.425 0.025 2.525
v 0.425 0.025 -2.475
v -0.275 -0.025 -2.475
v -0.275 -0.025 2.525
v 0.425 -0.025 2.525
v 0.425 -0.025 -2.475
v -0.275 1.475 -2.475
v -0.275 1.475 2.525
v 0.475 1.475 2.525
v 0.475 1.475 -2.475
v -0.275 0.475 -2.475
v -0.275 0.475 2.525
v 0.425 0.475 2.525
v 0.425 0.475 -2.475
v -0.275 0.975 -2.475
v -0.275 0.975 2.525
v 0.425 0.975 2.525
v 0.425 0.975 -2.475
v -0.275 0.075 2.525
v -0.325 0.075 2.575
v 0.425 0.075 2.575
v -0.325 0.075 -2.525
v -0.275 0.075 2.525
v 0.425 0.075 2.525
v -0.275 0.075 2.525
v -0.275 0.075 -2.475
v -0.275 0.075 2.525
v -0.275 0.075 -2.475
v 0.425 0.075 -2.525
v 0.425 0.075 -2.475
v -0.275 0.075 -2.475
v 0.425 0.025 2.525
v 0.425 0.025 2.575
v 0.475 0.025 2.575
v 0.475 0.025 -2.525
v 0.425 0.025 2.525
v 0.425 0.025 -2.475
v 0.425 0.025 2.525
v 0.425 0.025 -2.525
v 0.425 0.025 -2.475
v 0.475 1.525 2.575
v -0.325 1.525 2.575
v -0.325 1.525 -2.525
v 0.475 1.525 -2.525
v 0.425 0.575 2.525
v -0.275 0.575 2.525
v -0.275 0.575 -2.475
v 0.425 0.575 -2.475
v 0.425 1.075 2.525
v -0.275 1.075 2.525
v -0.275 1.075 -2.475
v 0.425 1.075 -2.475
v 0.475 0.075 2.525
v -0.275 0.075 2.525
v -0.275 0.075 -2.475
v 0.475 0.075 -2.475
v 0.475 0.025 2.575
v 0.425 0.025 2.575
v 0.425 0.075 2.575
v 0.425 0.075 2.575
v 0.475 1.525 2.575
v 0.425 0.075 2.575
v -0.325 1.525 2.575
v 0.425 0.075 2.575
v -0.325 0.075 2.575
v -0.275 -0.025 2.525
v 0.425 0.025 2.525
v 0.425 -0.025 2.525
v -0.275 0.075 2.525
v 0.425 0.025 2.525
v 0.425 0.025 2.525
v 0.425 0.075 2.525
v 0.475 0.075 -2.475
v -0.275 0.075 -2.475
v 0.425 0.475 -2.475
v 0.425 0.475 -2.475
v -0.275 0.475 -2.475
v 0.425 0.475 -2.475
v 0.425 0.575 -2.475
v 0.425 0.575 -2.475
v 0.425 0.975 -2.475
v 0.425 0.975 -2.475
v 0.425 1.075 -2.475
v 0.475 1.475 -2.475
v 0.425 1.075 -2.475
v 0.425 1.075 -2.475
v -0.275 1.475 -2.475
v 0.425 1.075 -2.475
v -0.275 1.075 -2.475
v 0.425 0.575 -2.475
v -0.275 0.975 -2.475
v 0.425 0.975 -2.475
v -0.275 0.575 -2.475
v 0.425 0.475 2.525
v -0.275 0.075 2.525
v 0.475 0.075 2.525
v -0.275 0.475 2.525
v 0.425 0.475 2.525
v 0.425 0.575 2.525
v 0.425 0.475 2.525
v 0.425 0.975 2.525
v 0.425 0.575 2.525
v 0.425 1.075 2.525
v 0.425 0.975 2.525
v 0.425 1.075 2.525
v 0.475 1.475 2.525
v -0.275 1.475 2.525
v 0.425 1.075 2.525
v -0.275 1.075 2.525
v 0.425 1.075 2.525
v 0.425 0.975 2.525
v -0.275 0.975 2.525
v 0.425 0.575 2.525
v -0.275 0.575 2.525
v 0.425 -0.025 -2.475
v 0.425 0.025 -2.475
v -0.275 -0.025 -2.475
v 0.425 0.025 -2.475
v -0.275 0.075 -2.475
v 0.425 0.075 -2.475
v 0.425 0.025 -2.475
v 0.425 0.075 -2.525
v 0.425 0.025 -2.525
v 0.475 0.025 -2.525
v 0.475 1.525 -2.525
v 0.425 0.075 -2.525
v -0.325 1.525 -2.525
v 0.425 0.075 -2.525
v -0.325 0.075 -2.525
v 0.425 0.075 -2.525
vn -1 0 0
vn -1 0 0
vn -1 0 0
vn -1 0 0
vn -1 0 0
vn -1 0 0
vn -1 0 0
vn -1 0 0
vn -1 0 0
vn -1 0 0
vn -1 0 0
vn -1 0 0
vn -1 0 0
vn -1 0 0
vn -1 0 0
vn -1 0 0
vn 1 0 0
vn 1 0 0
vn 1 0 0
vn 1 0 0
vn 1 0 0
vn 1 0 0
vn 1 0 0
vn 1 0 0
vn 1 0 0
vn 1 0 0
vn 1 0 0
vn 1 0 0
vn 1 0 0
vn 1 0 0
vn 1 0 0
vn 1 0 0
vn 1 0 0
vn 1 0 0
vn 1 0 0
vn 1 0 0
vn 1 0 0
vn 1 0 0
vn 1 0 0
vn 1 0 0
vn 1 0 0
vn 1 0 0
vn 1 0 0
vn 1 0 0
vn 1 0 0
vn 1 0 0
vn 1 0 0
vn 1 0 0
vn 1 0 0
vn 1 0 0
vn 1 0 0
vn 1 0 0
vn 1 0 0
vn 1 0 0
vn 1 0 0
vn 1 0 0
vn 0 -1 0
vn 0 -1 0
vn 0 -1 0
vn 0 -1 0
vn 0 -1 0
vn 0 -1 0
vn 0 -1 0
vn 0 -1 0
vn 0 -1 0
vn 0 -1 0
vn 0 -1 0
vn 0 -1 0
vn 0 -1 0
vn 0 -1 0
vn 0 -1 0
vn 0 -1 0
vn 0 -1 0
vn 0 -1 0
vn 0 -1 0
vn 0 -1 0
vn 0 -1 0
vn 0 -1 0
vn 0 -1 0
vn 0 -1 0
vn 0 -1 0
vn 0 -1 0
vn 0 -1 0
vn 0 -1 0
vn 0 -1 0
vn 0 -1 0
vn 0 -1 0
vn 0 -1 0
vn 0 -1 0
vn 0 -1 0
vn 0 -1 0
vn 0 -1 0
vn 0 -1 0
vn 0 -1 0
vn 0 1 0
vn 0 1 0
vn 0 1 0
vn 0 1 0
vn 0 1 0
vn 0 1 0
vn 0 1 0
vn 0 1 0
vn 0 1 0
vn 0 1 0
vn 0 1 0
vn 0 1 0
vn 0 1 0
vn 0 1 0
vn 0 1 0
vn 0 1 0
vn 0 0 1
vn 0 0 1
vn 0 0 1
vn 0 0 1
vn 0 0 1
vn 0 0 1
vn 0 0 1
vn 0 0 1
vn 0 0 1
vn 0 0 1
vn 0 0 1
vn 0 0 1
vn 0 0 1
vn 0 0 1
vn 0 0 1
vn 0 0 1
vn 0 0 1
vn 0 0 1
vn 0 0 1
vn 0 0 1
vn 0 0 1
vn 0 0 1
vn 0 0 1
vn 0 0 1
vn 0 0 1
vn 0 0 1
vn 0 0 1
vn 0 0 1
vn 0 0 1
vn 0 0 1
vn 0 0 1
vn 0 0 1
vn 0 0 1
vn 0 0 1
vn 0 0 1
vn 0 0 1
vn 0 0 1
vn 0 0 -1
vn 0 0 -1
vn 0 0 -1
vn 0 0 -1
vn 0 0 -1
vn 0 0 -1
vn 0 0 -1
vn 0 0 -1
vn 0 0 -1
vn 0 0 -1
vn 0 0 -1
vn 0 0 -1
vn 0 0 -1
vn 0 0 -1
vn 0 0 -1
vn 0 0 -1
vn 0 0 -1
vn 0 0 -1
vn 0 0 -1
vn 0 0 -1
vn 0 0 -1
vn 0 0 -1
vn 0 0 -1
vn 0 0 -1
vn 0 0 -1
vn 0 0 -1
vn 0 0 -1
vn 0 0 -1
vn 0 0 -1
vn 0 0 -1
vn 0 0 -1
vn 0 0 -1
vn 0 0 -1
vn 0 0 -1
vn 0 0 -1
vn 0 0 -1
vn 0 0 -1
vt 0.3338047 0.333569
vt 0.666431 0.333569
vt 0.666431 0.6661953
vt 0.333569 0.666431
vt 0.3338047 0.333569
vt 0.666431 0.333569
vt 0.666431 0.6661953
vt 0.333569 0.666431
vt 0.3338047 0.333569
vt 0.666431 0.333569
vt 0.666431 0.6661953
vt 0.333569 0.666431
vt 0.3338047 0.333569
vt 0.666431 0.333569
vt 0.666431 0.6661953
vt 0.333569 0.666431
vt 0.666431 0.6661953
vt 0.666431 0.333569
vt 0.3338047 0.333569
vt 0.333569 0.666431
vt 0.666431 0.6661953
vt 0.666431 0.333569
vt 0.3338047 0.333569
vt 0.333569 0.666431
vt 0.666431 0.6661953
vt 0.666431 0.333569
vt 0.3338047 0.333569
vt 0.333569 0.666431
vt 0.3446608 0.6662031
vt 0.6662108 0.3335651
vt 0.3335729 0.3335651
vt 0.6549453 0.6664227
vt 0.3338129 0.6664227
vt 0.3335679 0.6661999
vt 0.6661975 0.3368313
vt 0.6664321 0.6661999
vt 0.3338024 0.3368313
vt 0.3446608 0.3337969
vt 0.6664286 0.663133
vt 0.6664286 0.3338071
vt 0.3335714 0.663133
vt 0.3335714 0.3338071
vt 0.3338129 0.3335773
vt 0.6549453 0.3335773
vt 0.666431 0.6661953
vt 0.666431 0.333569
vt 0.3338047 0.333569
vt 0.333569 0.666431
vt 0.666431 0.6661953
vt 0.666431 0.333569
vt 0.3338047 0.333569
vt 0.333569 0.666431
vt 0.666431 0.6661953
vt 0.666431 0.333569
vt 0.3338047 0.333569
vt 0.333569 0.666431
vt 0.666431 0.6661953
vt 0.666431 0.333569
vt 0.3338047 0.333569
vt 0.333569 0.666431
vt 0.666431 0.6661953
vt 0.666431 0.333569
vt 0.3338047 0.333569
vt 0.333569 0.666431
vt 0.666431 0.6661953
vt 0.666431 0.333569
vt 0.3338047 0.333569
vt 0.333569 0.666431
vt 0.666431 0.6661953
vt 0.666431 0.333569
vt 0.3338047 0.333569
vt 0.333569 0.666431
vt 0.6442469 0.6662107
vt 0.6664235 0.3335613
vt 0.3337741 0.3335613
vt 0.6664321 0.6661999
vt 0.3338024 0.3368313
vt 0.333569 0.666431
vt 0.6661953 0.666431
vt 0.3335714 0.663133
vt 0.3335714 0.3338071
vt 0.6442469 0.3337893
vt 0.3337741 0.6664387
vt 0.333569 0.333569
vt 0.6661953 0.333569
vt 0.666431 0.6661953
vt 0.666431 0.333569
vt 0.3338047 0.333569
vt 0.3335679 0.6661999
vt 0.6661975 0.3368313
vt 0.6664286 0.663133
vt 0.6664286 0.3338071
vt 0.666431 0.666431
vt 0.666431 0.3338047
vt 0.3338047 0.333569
vt 0.666431 0.333569
vt 0.666431 0.6661953
vt 0.333569 0.666431
vt 0.3338047 0.333569
vt 0.666431 0.333569
vt 0.666431 0.6661953
vt 0.333569 0.666431
vt 0.3338047 0.333569
vt 0.666431 0.333569
vt 0.666431 0.6661953
vt 0.333569 0.666431
vt 0.3338047 0.333569
vt 0.666431 0.333569
vt 0.666431 0.6661953
vt 0.333569 0.666431
vt 0.3338047 0.333569
vt 0.666431 0.333569
vt 0.666431 0.6661953
vt 0.6662031 0.3446608
vt 0.3335651 0.6662108
vt 0.3543666 0.3337902
vt 0.6662241 0.6664382
vt 0.3338047 0.333569
vt 0.666431 0.333569
vt 0.6661953 0.333569
vt 0.333569 0.6661953
vt 0.333569 0.333569
vt 0.6664818 0.6663893
vt 0.3337031 0.5
vt 0.333569 0.3338047
vt 0.333569 0.666431
vt 0.3335765 0.3335613
vt 0.6662259 0.3335613
vt 0.3557531 0.6662107
vt 0.3338047 0.666431
vt 0.666431 0.666431
vt 0.6663808 0.5998285
vt 0.6663808 0.6663237
vt 0.6663353 0.5184817
vt 0.6663353 0.6661881
vt 0.6664064 0.6331251
vt 0.6664064 0.6663803
vt 0.333538 0.6664035
vt 0.6662574 0.5713409
vt 0.3557531 0.3337893
vt 0.6662259 0.6664387
vt 0.3338047 0.333569
vt 0.666431 0.333569
vt 0.333569 0.3338047
vt 0.6661953 0.666431
vt 0.333569 0.666431
vt 0.666431 0.333569
vt 0.3557531 0.6662107
vt 0.6662259 0.3335613
vt 0.3335765 0.3335613
vt 0.666431 0.666431
vt 0.3338047 0.666431
vt 0.6663808 0.6663237
vt 0.6663808 0.5998285
vt 0.6663353 0.6661881
vt 0.6663353 0.5184817
vt 0.6664064 0.6663803
vt 0.6664064 0.6331251
vt 0.6662574 0.5713409
vt 0.333538 0.6664035
vt 0.6662259 0.6664387
vt 0.3557531 0.3337893
vt 0.666431 0.333569
vt 0.3338047 0.333569
vt 0.333569 0.666431
vt 0.6661953 0.666431
vt 0.333569 0.3338047
vt 0.666431 0.333569
vt 0.333569 0.333569
vt 0.333569 0.6661953
vt 0.6661953 0.333569
vt 0.3337031 0.5
vt 0.6664818 0.6663893
vt 0.333569 0.666431
vt 0.333569 0.3338047
vt 0.666431 0.6661953
vt 0.666431 0.333569
vt 0.3338047 0.333569
vt 0.3335651 0.6662108
vt 0.6662031 0.3446608
vt 0.6662241 0.6664382
vt 0.3543666 0.3337902
vt 0.666431 0.333569
vt 0.3338047 0.333569
usemtl EGA_Bar_01_texture0
f 3/3/3 2/2/2 1/1/1
f 4/4/4 3/3/3 1/1/1
f 7/7/7 6/6/6 5/5/5
f 8/8/8 7/7/7 5/5/5
f 11/11/11 10/10/10 9/9/9
f 12/12/12 11/11/11 9/9/9
f 15/15/15 14/14/14 13/13/13
f 16/16/16 15/15/15 13/13/13
f 19/19/19 18/18/18 17/17/17
f 19/19/19 17/17/17 20/20/20
f 23/23/23 22/22/22 21/21/21
f 23/23/23 21/21/21 24/24/24
f 27/27/27 26/26/26 25/25/25
f 27/27/27 25/25/25 28/28/28
f 31/31/31 30/30/30 29/29/29
f 33/33/33 30/30/30 32/32/32
f 31/31/31 35/35/35 34/34/34
f 37/37/37 30/30/30 36/36/36
f 38/38/38 36/36/36 34/34/34
f 34/34/34 40/40/40 39/39/39
f 42/42/42 36/36/36 41/41/41
f 44/44/44 36/36/36 43/43/43
f 47/47/47 46/46/46 45/45/45
f 47/47/47 45/45/45 48/48/48
f 51/51/51 50/50/50 49/49/49
f 51/51/51 49/49/49 52/52/52
f 55/55/55 54/54/54 53/53/53
f 55/55/55 53/53/53 56/56/56
f 59/59/59 58/58/58 57/57/57
f 59/59/59 57/57/57 60/60/60
f 63/63/63 62/62/62 61/61/61
f 63/63/63 61/61/61 64/64/64
f 67/67/67 66/66/66 65/65/65
f 67/67/67 65/65/65 68/68/68
f 71/71/71 70/70/70 69/69/69
f 71/71/71 69/69/69 72/72/72
f 75/75/75 74/74/74 73/73/73
f 77/77/77 74/74/74 76/76/76
f 75/75/75 79/79/79 78/78/78
f 81/81/81 76/76/76 80/80/80
f 76/76/76 83/83/83 82/82/82
f 85/85/85 83/83/83 84/84/84
f 88/88/88 87/87/87 86/86/86
f 88/88/88 90/90/90 89/89/89
f 89/89/89 92/92/92 91/91/91
f 89/89/89 94/94/94 93/93/93
f 97/97/97 96/96/96 95/95/95
f 98/98/98 97/97/97 95/95/95
f 101/101/101 100/100/100 99/99/99
f 102/102/102 101/101/101 99/99/99
f 105/105/105 104/104/104 103/103/103
f 106/106/106 105/105/105 103/103/103
f 109/109/109 108/108/108 107/107/107
f 110/110/110 109/109/109 107/107/107
f 113/113/113 112/112/112 111/111/111
f 115/115/115 114/114/114 111/111/111
f 115/115/115 117/117/117 116/116/116
f 117/117/117 119/119/119 118/118/118
f 122/122/122 121/121/121 120/120/120
f 124/124/124 123/123/123 120/120/120
f 126/126/126 123/123/123 125/125/125
f 129/129/129 128/128/128 127/127/127
f 131/131/131 128/128/128 130/130/130
f 127/127/127 133/133/133 132/132/132
f 127/127/127 135/135/135 134/134/134
f 137/137/137 136/136/136 127/127/127
f 139/139/139 127/127/127 138/138/138
f 138/138/138 141/141/141 140/140/140
f 141/141/141 143/143/143 142/142/142
f 146/146/146 145/145/145 144/144/144
f 145/145/145 147/147/147 144/144/144
f 150/150/150 149/149/149 148/148/148
f 152/152/152 149/149/149 151/151/151
f 154/154/154 153/153/153 150/150/150
f 156/156/156 155/155/155 150/150/150
f 150/150/150 158/158/158 157/157/157
f 160/160/160 150/150/150 159/159/159
f 162/162/162 161/161/161 160/160/160
f 164/164/164 163/163/163 161/161/161
f 167/167/167 166/166/166 165/165/165
f 167/167/167 168/168/168 166/166/166
f 171/171/171 170/170/170 169/169/169
f 171/171/171 173/173/173 172/172/172
f 175/175/175 173/173/173 174/174/174
f 178/178/178 177/177/177 176/176/176
f 178/178/178 180/180/180 179/179/179
f 182/182/182 181/181/181 179/179/179
f 184/184/184 183/183/183 181/181/181
