mtllib EGA_Cloud_05.mtl
g default
v -1.1 3.1 0.9
v -1.1 1.5 0.9
v -1.1 1.5 -0.7
v -1.1 3.1 -0.7
v -2.7 1.5 2.5
v -2.7 -0.1 2.5
v -2.7 -0.1 -0.7
v -2.7 1.5 -0.7
v 0.5 1.5 -0.7
v 0.5 -0.1 -0.7
v 0.5 -0.1 -3.9
v 0.5 1.5 -3.9
v 2.1 -0.1 -3.9
v 2.1 -0.1 2.5
v 2.1 1.5 2.5
v 2.1 1.5 -3.9
v 0.5 1.5 -0.7
v 0.5 1.5 0.9
v 0.5 3.1 0.9
v 0.5 3.1 -0.7
v 0.5 -0.1 -0.7
v -2.7 -0.1 2.5
v 2.1 -0.1 2.5
v -2.7 -0.1 -0.7
v 0.5 -0.1 -0.7
v 2.1 -0.1 -3.9
v 0.5 -0.1 -0.7
v 0.5 -0.1 -3.9
v 0.5 -0.1 -0.7
v 0.5 3.1 0.9
v -1.1 3.1 0.9
v -1.1 3.1 -0.7
v 0.5 3.1 -0.7
v 2.1 1.5 2.5
v -2.7 1.5 2.5
v 0.5 1.5 0.9
v 0.5 1.5 0.9
v -1.1 1.5 0.9
v 0.5 1.5 0.9
v 0.5 1.5 -0.7
v -1.1 1.5 0.9
v -2.7 1.5 -0.7
v 0.5 1.5 -0.7
v 2.1 1.5 -3.9
v -1.1 1.5 0.9
v -1.1 1.5 -0.7
v 0.5 1.5 -0.7
v 0.5 1.5 -3.9
v 0.5 1.5 0.9
v -1.1 1.5 0.9
v -1.1 3.1 0.9
v 0.5 3.1 0.9
v 2.1 -0.1 2.5
v -2.7 -0.1 2.5
v -2.7 1.5 2.5
v 2.1 1.5 2.5
v 0.5 1.5 -3.9
v 0.5 -0.1 -3.9
v 2.1 -0.1 -3.9
v 2.1 1.5 -3.9
v -1.1 1.5 -0.7
v -2.7 -0.1 -0.7
v 0.5 -0.1 -0.7
v -2.7 1.5 -0.7
v -1.1 1.5 -0.7
v 0.5 1.5 -0.7
v -1.1 1.5 -0.7
v -1.1 3.1 -0.7
v -1.1 1.5 -0.7
v 0.5 1.5 -0.7
v 0.5 3.1 -0.7
vn -1 0 0
vn -1 0 0
vn -1 0 0
vn -1 0 0
vn -1 0 0
vn -1 0 0
vn -1 0 0
vn -1 0 0
vn -1 0 0
vn -1 0 0
vn -1 0 0
vn -1 0 0
vn 1 0 0
vn 1 0 0
vn 1 0 0
vn 1 0 0
vn 1 0 0
vn 1 0 0
vn 1 0 0
vn 1 0 0
vn 0 -1 0
vn 0 -1 0
vn 0 -1 0
vn 0 -1 0
vn 0 -1 0
vn 0 -1 0
vn 0 -1 0
vn 0 -1 0
vn 0 -1 0
vn 0 1 0
vn 0 1 0
vn 0 1 0
vn 0 1 0
vn 0 1 0
vn 0 1 0
vn 0 1 0
vn 0 1 0
vn 0 1 0
vn 0 1 0
vn 0 1 0
vn 0 1 0
vn 0 1 0
vn 0 1 0
vn 0 1 0
vn 0 1 0
vn 0 1 0
vn 0 1 0
vn 0 1 0
vn 0 0 1
vn 0 0 1
vn 0 0 1
vn 0 0 1
vn 0 0 1
vn 0 0 1
vn 0 0 1
vn 0 0 1
vn 0 0 -1
vn 0 0 -1
vn 0 0 -1
vn 0 0 -1
vn 0 0 -1
vn 0 0 -1
vn 0 0 -1
vn 0 0 -1
vn 0 0 -1
vn 0 0 -1
vn 0 0 -1
vn 0 0 -1
vn 0 0 -1
vn 0 0 -1
vn 0 0 -1
vt 0.3338047 0.333569
vt 0.666431 0.333569
vt 0.666431 0.6661953
vt 0.333569 0.666431
vt 0.3338047 0.333569
vt 0.666431 0.333569
vt 0.666431 0.6661953
vt 0.333569 0.666431
vt 0.3338047 0.333569
vt 0.666431 0.333569
vt 0.666431 0.6661953
vt 0.333569 0.666431
vt 0.666431 0.6661953
vt 0.666431 0.333569
vt 0.3338047 0.333569
vt 0.333569 0.666431
vt 0.666431 0.6661953
vt 0.666431 0.333569
vt 0.3338047 0.333569
vt 0.333569 0.666431
vt 0.4445111 0.6662667
vt 0.6663333 0.3335333
vt 0.3336 0.3335333
vt 0.666431 0.666431
vt 0.3338047 0.666431
vt 0.3335182 0.6663893
vt 0.6662968 0.5
vt 0.666431 0.666431
vt 0.666431 0.3338047
vt 0.3338047 0.333569
vt 0.666431 0.333569
vt 0.666431 0.6661953
vt 0.333569 0.666431
vt 0.3336 0.3335333
vt 0.6663333 0.3335333
vt 0.4445111 0.6662667
vt 0.3338333 0.6663333
vt 0.5 0.6663333
vt 0.6663333 0.5
vt 0.6663333 0.6661667
vt 0.3337031 0.5
vt 0.6664818 0.6663893
vt 0.6662968 0.5
vt 0.3335182 0.6663893
vt 0.333569 0.3338047
vt 0.333569 0.666431
vt 0.666431 0.3338047
vt 0.666431 0.666431
vt 0.3338047 0.333569
vt 0.666431 0.333569
vt 0.666431 0.6661953
vt 0.333569 0.666431
vt 0.3338047 0.333569
vt 0.666431 0.333569
vt 0.666431 0.6661953
vt 0.333569 0.666431
vt 0.666431 0.6661953
vt 0.666431 0.333569
vt 0.3338047 0.333569
vt 0.333569 0.666431
vt 0.5 0.6662968
vt 0.6663893 0.3335182
vt 0.3336107 0.3335182
vt 0.666431 0.666431
vt 0.3338047 0.666431
vt 0.333569 0.666431
vt 0.6661953 0.666431
vt 0.666431 0.6661953
vt 0.666431 0.333569
vt 0.3338047 0.333569
vt 0.333569 0.666431
usemtl EGA_Cloud_05_texture0
f 3/3/3 2/2/2 1/1/1
f 4/4/4 3/3/3 1/1/1
f 7/7/7 6/6/6 5/5/5
f 8/8/8 7/7/7 5/5/5
f 11/11/11 10/10/10 9/9/9
f 12/12/12 11/11/11 9/9/9
f 15/15/15 14/14/14 13/13/13
f 15/15/15 13/13/13 16/16/16
f 19/19/19 18/18/18 17/17/17
f 19/19/19 17/17/17 20/20/20
f 23/23/23 22/22/22 21/21/21
f 25/25/25 22/22/22 24/24/24
f 23/23/23 27/27/27 26/26/26
f 26/26/26 29/29/29 28/28/28
f 32/32/32 31/31/31 30/30/30
f 33/33/33 32/32/32 30/30/30
f 36/36/36 35/35/35 34/34/34
f 38/38/38 35/35/35 37/37/37
f 34/34/34 40/40/40 39/39/39
f 42/42/42 35/35/35 41/41/41
f 44/44/44 43/43/43 34/34/34
f 46/46/46 42/42/42 45/45/45
f 48/48/48 47/47/47 44/44/44
f 51/51/51 50/50/50 49/49/49
f 52/52/52 51/51/51 49/49/49
f 55/55/55 54/54/54 53/53/53
f 56/56/56 55/55/55 53/53/53
f 59/59/59 58/58/58 57/57/57
f 59/59/59 57/57/57 60/60/60
f 63/63/63 62/62/62 61/61/61
f 65/65/65 62/62/62 64/64/64
f 63/63/63 67/67/67 66/66/66
f 70/70/70 69/69/69 68/68/68
f 70/70/70 68/68/68 71/71/71
