mtllib EGA_Cloud_10.mtl
g default
v -0.5 2.5 -0.3
v -0.5 -0.1 -0.3
v -0.5 -0.1 -1.5
v -0.5 2.5 -1.5
v -1.5 1.3 1.1
v -1.5 2.5 -0.3
v -1.5 2.5 1.1
v -1.5 -0.1 -0.3
v -1.5 1.3 1.1
v -1.5 -0.1 2.5
v -1.5 1.3 1.1
v -1.5 1.3 1.1
v -1.5 1.3 2.5
v -0.3 2.3 0.9
v -0.3 1.3 1.1
v -0.3 2.5 1.1
v -0.3 2.5 -0.3
v -0.3 2.3 0.9
v -0.3 2.3 -0.3
v -0.3 2.3 0.9
v -0.3 2.3 0.9
v -0.3 1.1 0.9
v -0.3 1.3 1.1
v -0.3 1.1 2.1
v -0.3 1.3 1.1
v -0.3 1.3 2.5
v -0.3 1.3 1.1
v -0.3 1.1 2.1
v -0.3 1.1 2.1
v -0.3 -0.1 2.5
v -0.3 -0.1 2.1
v -0.3 1.1 2.1
v 2.3 -0.1 -1.5
v 2.3 -0.1 -0.3
v 2.3 1.3 -0.3
v 2.3 1.3 -1.5
v 2.1 -0.1 -0.3
v 2.1 -0.1 0.9
v 2.1 1.1 0.9
v 2.1 1.1 -0.3
v 1.1 1.3 -1.5
v 1.1 1.3 -0.3
v 1.1 2.5 -0.3
v 1.1 2.5 -1.5
v 0.9 1.1 -0.3
v 0.9 1.1 0.9
v 0.9 2.3 0.9
v 0.9 2.3 -0.3
v 0.9 -0.1 0.9
v 0.9 -0.1 2.1
v 0.9 1.1 2.1
v 0.9 1.1 0.9
v 2.3 -0.1 -0.3
v 2.3 -0.1 -1.5
v 2.1 -0.1 -0.3
v 2.1 -0.1 -0.3
v -0.5 -0.1 -1.5
v -0.5 -0.1 -0.3
v 2.1 -0.1 -0.3
v 0.9 -0.1 0.9
v 2.1 -0.1 -0.3
v -0.5 -0.1 -0.3
v 2.1 -0.1 0.9
v 0.9 -0.1 0.9
v -0.3 -0.1 2.1
v 0.9 -0.1 0.9
v 0.9 -0.1 2.1
v 0.9 -0.1 0.9
v -0.3 -0.1 2.1
v -0.5 -0.1 -0.3
v -1.5 -0.1 -0.3
v -0.3 -0.1 2.1
v -1.5 -0.1 2.5
v -0.3 -0.1 2.1
v -0.3 -0.1 2.5
v -0.3 -0.1 2.1
v -0.3 2.5 -0.3
v 1.1 2.5 -1.5
v 1.1 2.5 -0.3
v -0.5 2.5 -1.5
v -0.3 2.5 -0.3
v -0.3 2.5 -0.3
v -0.5 2.5 -0.3
v -0.3 2.5 1.1
v -0.5 2.5 -0.3
v -0.3 2.5 -0.3
v -1.5 2.5 1.1
v -0.5 2.5 -0.3
v -0.5 2.5 -0.3
v -1.5 2.5 -0.3
v 0.9 2.3 0.9
v -0.3 2.3 0.9
v -0.3 2.3 -0.3
v 0.9 2.3 -0.3
v 2.3 1.3 -0.3
v 1.1 1.3 -0.3
v 1.1 1.3 -1.5
v 2.3 1.3 -1.5
v -0.3 1.3 2.5
v -1.5 1.3 2.5
v -1.5 1.3 1.1
v -0.3 1.3 1.1
v 2.1 1.1 0.9
v 0.9 1.1 0.9
v 0.9 1.1 -0.3
v 2.1 1.1 -0.3
v 0.9 1.1 2.1
v -0.3 1.1 2.1
v -0.3 1.1 0.9
v 0.9 1.1 0.9
v 2.1 -0.1 0.9
v 0.9 -0.1 0.9
v 0.9 1.1 0.9
v 2.1 1.1 0.9
v 0.9 1.1 0.9
v -0.3 1.1 0.9
v -0.3 2.3 0.9
v 0.9 2.3 0.9
v -0.3 1.3 1.1
v -1.5 1.3 1.1
v -1.5 2.5 1.1
v -0.3 2.5 1.1
v 0.9 -0.1 2.1
v -0.3 -0.1 2.1
v -0.3 1.1 2.1
v 0.9 1.1 2.1
v -0.3 -0.1 2.5
v -1.5 -0.1 2.5
v -1.5 1.3 2.5
v -0.3 1.3 2.5
v 2.3 -0.1 -0.3
v 2.1 -0.1 -0.3
v 2.1 1.1 -0.3
v 2.1 1.1 -0.3
v 2.3 1.3 -0.3
v 2.1 1.1 -0.3
v 1.1 1.3 -0.3
v 2.1 1.1 -0.3
v 0.9 1.1 -0.3
v 1.1 1.3 -0.3
v 1.1 1.3 -0.3
v 0.9 2.3 -0.3
v 0.9 2.3 -0.3
v 1.1 2.5 -0.3
v 1.1 1.3 -0.3
v 0.9 2.3 -0.3
v -0.3 2.5 -0.3
v 0.9 2.3 -0.3
v -0.3 2.3 -0.3
v 1.1 1.3 -1.5
v -0.5 -0.1 -1.5
v 2.3 -0.1 -1.5
v -0.5 2.5 -1.5
v 1.1 1.3 -1.5
v 2.3 1.3 -1.5
v 1.1 1.3 -1.5
v 1.1 2.5 -1.5
v 1.1 1.3 -1.5
v -1.5 2.5 -0.3
v -1.5 -0.1 -0.3
v -0.5 -0.1 -0.3
v -0.5 2.5 -0.3
vn -1 0 0
vn -1 0 0
vn -1 0 0
vn -1 0 0
vn -1 0 0
vn -1 0 0
vn -1 0 0
vn -1 0 0
vn -1 0 0
vn -1 0 0
vn -1 0 0
vn -1 0 0
vn -1 0 0
vn 1 0 0
vn 1 0 0
vn 1 0 0
vn 1 0 0
vn 1 0 0
vn 1 0 0
vn 1 0 0
vn 1 0 0
vn 1 0 0
vn 1 0 0
vn 1 0 0
vn 1 0 0
vn 1 0 0
vn 1 0 0
vn 1 0 0
vn 1 0 0
vn 1 0 0
vn 1 0 0
vn 1 0 0
vn 1 0 0
vn 1 0 0
vn 1 0 0
vn 1 0 0
vn 1 0 0
vn 1 0 0
vn 1 0 0
vn 1 0 0
vn 1 0 0
vn 1 0 0
vn 1 0 0
vn 1 0 0
vn 1 0 0
vn 1 0 0
vn 1 0 0
vn 1 0 0
vn 1 0 0
vn 1 0 0
vn 1 0 0
vn 1 0 0
vn 0 -1 0
vn 0 -1 0
vn 0 -1 0
vn 0 -1 0
vn 0 -1 0
vn 0 -1 0
vn 0 -1 0
vn 0 -1 0
vn 0 -1 0
vn 0 -1 0
vn 0 -1 0
vn 0 -1 0
vn 0 -1 0
vn 0 -1 0
vn 0 -1 0
vn 0 -1 0
vn 0 -1 0
vn 0 -1 0
vn 0 -1 0
vn 0 -1 0
vn 0 -1 0
vn 0 -1 0
vn 0 -1 0
vn 0 -1 0
vn 0 1 0
vn 0 1 0
vn 0 1 0
vn 0 1 0
vn 0 1 0
vn 0 1 0
vn 0 1 0
vn 0 1 0
vn 0 1 0
vn 0 1 0
vn 0 1 0
vn 0 1 0
vn 0 1 0
vn 0 1 0
vn 0 1 0
vn 0 1 0
vn 0 1 0
vn 0 1 0
vn 0 1 0
vn 0 1 0
vn 0 1 0
vn 0 1 0
vn 0 1 0
vn 0 1 0
vn 0 1 0
vn 0 1 0
vn 0 1 0
vn 0 1 0
vn 0 1 0
vn 0 1 0
vn 0 1 0
vn 0 1 0
vn 0 1 0
vn 0 1 0
vn 0 0 1
vn 0 0 1
vn 0 0 1
vn 0 0 1
vn 0 0 1
vn 0 0 1
vn 0 0 1
vn 0 0 1
vn 0 0 1
vn 0 0 1
vn 0 0 1
vn 0 0 1
vn 0 0 1
vn 0 0 1
vn 0 0 1
vn 0 0 1
vn 0 0 1
vn 0 0 1
vn 0 0 1
vn 0 0 1
vn 0 0 1
vn 0 0 1
vn 0 0 1
vn 0 0 1
vn 0 0 1
vn 0 0 1
vn 0 0 1
vn 0 0 1
vn 0 0 1
vn 0 0 1
vn 0 0 1
vn 0 0 1
vn 0 0 1
vn 0 0 1
vn 0 0 1
vn 0 0 1
vn 0 0 1
vn 0 0 1
vn 0 0 1
vn 0 0 -1
vn 0 0 -1
vn 0 0 -1
vn 0 0 -1
vn 0 0 -1
vn 0 0 -1
vn 0 0 -1
vn 0 0 -1
vn 0 0 -1
vn 0 0 -1
vn 0 0 -1
vn 0 0 -1
vn 0 0 -1
vt 0.3338047 0.333569
vt 0.666431 0.333569
vt 0.666431 0.6661953
vt 0.333569 0.666431
vt 0.6661953 0.333569
vt 0.333569 0.6661953
vt 0.333569 0.333569
vt 0.6663771 0.6664785
vt 0.487194 0.3337098
vt 0.6664818 0.3336107
vt 0.3337031 0.5
vt 0.333569 0.6661953
vt 0.333569 0.333569
vt 0.3890335 0.6662328
vt 0.6662689 0.3335503
vt 0.3335864 0.3335503
vt 0.3335528 0.6662591
vt 0.6662276 0.3811092
vt 0.666431 0.666431
vt 0.666431 0.3338047
vt 0.333731 0.6664497
vt 0.6664136 0.6664497
vt 0.6109665 0.3337672
vt 0.6664497 0.333731
vt 0.3337672 0.6109665
vt 0.333538 0.3335964
vt 0.333538 0.6663159
vt 0.6662574 0.4286591
vt 0.3811092 0.6662276
vt 0.6662591 0.3335528
vt 0.666431 0.666431
vt 0.3338047 0.666431
vt 0.666431 0.6661953
vt 0.666431 0.333569
vt 0.3338047 0.333569
vt 0.333569 0.666431
vt 0.666431 0.6661953
vt 0.666431 0.333569
vt 0.3338047 0.333569
vt 0.333569 0.666431
vt 0.666431 0.6661953
vt 0.666431 0.333569
vt 0.3338047 0.333569
vt 0.333569 0.666431
vt 0.666431 0.6661953
vt 0.666431 0.333569
vt 0.3338047 0.333569
vt 0.333569 0.666431
vt 0.666431 0.6661953
vt 0.666431 0.333569
vt 0.3338047 0.333569
vt 0.333569 0.666431
vt 0.333569 0.333569
vt 0.333569 0.6661953
vt 0.6661953 0.333569
vt 0.3573378 0.3337882
vt 0.6662281 0.6664392
vt 0.666431 0.333569
vt 0.3338047 0.333569
vt 0.487194 0.3337098
vt 0.3336084 0.6664785
vt 0.6663771 0.6664785
vt 0.333569 0.333569
vt 0.6661953 0.333569
vt 0.6189043 0.3336343
vt 0.3337059 0.5
vt 0.333569 0.333569
vt 0.333569 0.6661953
vt 0.6661953 0.333569
vt 0.3890738 0.6663893
vt 0.6661582 0.6663893
vt 0.3336569 0.333888
vt 0.6664472 0.3335842
vt 0.3337723 0.3811092
vt 0.333569 0.333569
vt 0.333569 0.6661953
vt 0.6661953 0.333569
vt 0.333569 0.6661953
vt 0.333569 0.333569
vt 0.6664175 0.6664452
vt 0.6248339 0.3337762
vt 0.3338047 0.333569
vt 0.666431 0.333569
vt 0.333569 0.3338047
vt 0.6661953 0.666431
vt 0.333569 0.666431
vt 0.6662689 0.3335503
vt 0.3890335 0.6662328
vt 0.3338047 0.666431
vt 0.666431 0.666431
vt 0.3338047 0.333569
vt 0.666431 0.333569
vt 0.666431 0.6661953
vt 0.333569 0.666431
vt 0.3338047 0.333569
vt 0.666431 0.333569
vt 0.666431 0.6661953
vt 0.333569 0.666431
vt 0.3338047 0.333569
vt 0.666431 0.333569
vt 0.666431 0.6661953
vt 0.333569 0.666431
vt 0.3338047 0.333569
vt 0.666431 0.333569
vt 0.666431 0.6661953
vt 0.333569 0.666431
vt 0.3338047 0.333569
vt 0.666431 0.333569
vt 0.666431 0.6661953
vt 0.333569 0.666431
vt 0.3338047 0.333569
vt 0.666431 0.333569
vt 0.666431 0.6661953
vt 0.333569 0.666431
vt 0.3338047 0.333569
vt 0.666431 0.333569
vt 0.666431 0.6661953
vt 0.333569 0.666431
vt 0.3338047 0.333569
vt 0.666431 0.333569
vt 0.666431 0.6661953
vt 0.333569 0.666431
vt 0.3338047 0.333569
vt 0.666431 0.333569
vt 0.666431 0.6661953
vt 0.333569 0.666431
vt 0.3338047 0.333569
vt 0.666431 0.333569
vt 0.666431 0.6661953
vt 0.333569 0.666431
vt 0.3338047 0.333569
vt 0.666431 0.333569
vt 0.666431 0.6661953
vt 0.6662276 0.6188908
vt 0.3335528 0.6664158
vt 0.3890335 0.3337672
vt 0.6662689 0.6664497
vt 0.333731 0.3335503
vt 0.6664136 0.3335503
vt 0.6109665 0.6662328
vt 0.3337672 0.3890335
vt 0.6664497 0.6662689
vt 0.6662328 0.6109665
vt 0.3335503 0.6664136
vt 0.3335503 0.333731
vt 0.3811092 0.3337723
vt 0.6662591 0.6664472
vt 0.3338047 0.333569
vt 0.666431 0.333569
vt 0.4762178 0.6662844
vt 0.6663663 0.3335245
vt 0.3336064 0.3335245
vt 0.6664785 0.6663916
vt 0.3337098 0.5128061
vt 0.333569 0.666431
vt 0.6661953 0.666431
vt 0.333569 0.666431
vt 0.333569 0.3338047
vt 0.666431 0.6661953
vt 0.666431 0.333569
vt 0.3338047 0.333569
vt 0.333569 0.666431
usemtl EGA_Cloud_10_texture0
f 3/3/3 2/2/2 1/1/1
f 4/4/4 3/3/3 1/1/1
f 7/7/7 6/6/6 5/5/5
f 9/9/9 6/6/6 8/8/8
f 11/11/11 8/8/8 10/10/10
f 13/13/13 12/12/12 10/10/10
f 16/16/16 15/15/15 14/14/14
f 16/16/16 18/18/18 17/17/17
f 17/17/17 20/20/20 19/19/19
f 23/23/23 22/22/22 21/21/21
f 25/25/25 24/24/24 22/22/22
f 28/28/28 27/27/27 26/26/26
f 26/26/26 30/30/30 29/29/29
f 32/32/32 30/30/30 31/31/31
f 35/35/35 34/34/34 33/33/33
f 35/35/35 33/33/33 36/36/36
f 39/39/39 38/38/38 37/37/37
f 39/39/39 37/37/37 40/40/40
f 43/43/43 42/42/42 41/41/41
f 43/43/43 41/41/41 44/44/44
f 47/47/47 46/46/46 45/45/45
f 47/47/47 45/45/45 48/48/48
f 51/51/51 50/50/50 49/49/49
f 51/51/51 49/49/49 52/52/52
f 55/55/55 54/54/54 53/53/53
f 57/57/57 54/54/54 56/56/56
f 59/59/59 58/58/58 57/57/57
f 62/62/62 61/61/61 60/60/60
f 64/64/64 61/61/61 63/63/63
f 62/62/62 66/66/66 65/65/65
f 69/69/69 68/68/68 67/67/67
f 72/72/72 71/71/71 70/70/70
f 71/71/71 74/74/74 73/73/73
f 73/73/73 76/76/76 75/75/75
f 79/79/79 78/78/78 77/77/77
f 81/81/81 78/78/78 80/80/80
f 80/80/80 83/83/83 82/82/82
f 86/86/86 85/85/85 84/84/84
f 88/88/88 87/87/87 84/84/84
f 90/90/90 87/87/87 89/89/89
f 93/93/93 92/92/92 91/91/91
f 94/94/94 93/93/93 91/91/91
f 97/97/97 96/96/96 95/95/95
f 98/98/98 97/97/97 95/95/95
f 101/101/101 100/100/100 99/99/99
f 102/102/102 101/101/101 99/99/99
f 105/105/105 104/104/104 103/103/103
f 106/106/106 105/105/105 103/103/103
f 109/109/109 108/108/108 107/107/107
f 110/110/110 109/109/109 107/107/107
f 113/113/113 112/112/112 111/111/111
f 114/114/114 113/113/113 111/111/111
f 117/117/117 116/116/116 115/115/115
f 118/118/118 117/117/117 115/115/115
f 121/121/121 120/120/120 119/119/119
f 122/122/122 121/121/121 119/119/119
f 125/125/125 124/124/124 123/123/123
f 126/126/126 125/125/125 123/123/123
f 129/129/129 128/128/128 127/127/127
f 130/130/130 129/129/129 127/127/127
f 133/133/133 132/132/132 131/131/131
f 135/135/135 134/134/134 131/131/131
f 135/135/135 137/137/137 136/136/136
f 140/140/140 139/139/139 138/138/138
f 142/142/142 139/139/139 141/141/141
f 145/145/145 144/144/144 143/143/143
f 144/144/144 147/147/147 146/146/146
f 147/147/147 149/149/149 148/148/148
f 152/152/152 151/151/151 150/150/150
f 154/154/154 151/151/151 153/153/153
f 152/152/152 156/156/156 155/155/155
f 158/158/158 153/153/153 157/157/157
f 161/161/161 160/160/160 159/159/159
f 161/161/161 159/159/159 162/162/162
