mtllib EGA_Building_Door_10.mtl
g default
v 0.1 3.3 0.4999999
v 0.1 2.3 0.4999999
v -0.09999992 2.3 0.4999999
v -0.09999992 3.3 0.4999999
v 0.1000001 2.1 1.1
v 0.1000001 1.5 1.1
v -0.09999985 1.5 1.1
v -0.09999985 2.1 1.1
v 0.3000001 3.9 1.3
v 0.3000001 -0.1 1.3
v 0.1000001 -0.1 1.3
v 0.1000001 3.9 1.3
v 0.09999992 3.1 -0.4999999
v 0.09999992 2.5 -0.4999999
v -0.1 2.5 -0.4999999
v -0.1 3.1 -0.4999999
v -0.09999994 2.5 0.3
v 0.1 2.5 0.3
v 0.1 3.1 0.3
v -0.09999994 3.1 0.3
v -0.09999987 1.5 0.8999999
v 0.1000001 1.5 0.8999999
v 0.1000001 2.1 0.8999999
v -0.09999987 2.1 0.8999999
v 0.0999998 -0.1 -1.5
v 0.2999998 -0.1 -1.5
v 0.2999998 3.9 -1.5
v 0.0999998 3.9 -1.5
v -0.1000001 2.3 -0.6999999
v 0.0999999 2.3 -0.6999999
v 0.0999999 3.3 -0.6999999
v -0.1000001 3.3 -0.6999999
v -0.09999994 3.1 0.3
v 0.1 3.1 0.3
v 0.09999992 3.1 -0.4999999
v -0.1 3.1 -0.4999999
v 0.1000001 -0.1 1.3
v 0.3000001 -0.1 1.3
v 0.2999998 -0.1 -1.5
v 0.0999998 -0.1 -1.5
v -0.09999992 2.3 0.4999999
v 0.1 2.3 0.4999999
v 0.0999999 2.3 -0.6999999
v -0.1000001 2.3 -0.6999999
v -0.09999985 1.5 1.1
v 0.1000001 1.5 1.1
v 0.1000001 1.5 0.8999999
v -0.09999987 1.5 0.8999999
v 0.0999999 3.3 -0.6999999
v 0.1 3.3 0.4999999
v -0.09999992 3.3 0.4999999
v -0.1000001 3.3 -0.6999999
v 0.09999992 2.5 -0.4999999
v 0.1 2.5 0.3
v -0.09999994 2.5 0.3
v -0.1 2.5 -0.4999999
v 0.1000001 2.1 0.8999999
v 0.1000001 2.1 1.1
v -0.09999985 2.1 1.1
v -0.09999987 2.1 0.8999999
v 0.2999998 3.9 -1.5
v 0.3000001 3.9 1.3
v 0.1000001 3.9 1.3
v 0.0999998 3.9 -1.5
v 0.2999998 -0.1 -1.5
v 0.3000001 -0.1 1.3
v 0.3000001 3.9 1.3
v 0.2999998 -0.1 -1.5
v 0.3000001 3.9 1.3
v 0.2999998 3.9 -1.5
v -0.1 2.5 -0.4999999
v -0.09999992 2.3 0.4999999
v -0.1000001 2.3 -0.6999999
v -0.09999994 2.5 0.3
v -0.1 2.5 -0.4999999
v -0.1000001 3.3 -0.6999999
v -0.1 2.5 -0.4999999
v -0.09999992 3.3 0.4999999
v -0.09999994 2.5 0.3
v -0.1 3.1 -0.4999999
v -0.1 3.1 -0.4999999
v -0.1 2.5 -0.4999999
v -0.09999994 3.1 0.3
v -0.09999994 2.5 0.3
v -0.1 3.1 -0.4999999
v -0.09999994 3.1 0.3
v -0.09999985 2.1 1.1
v -0.09999985 1.5 1.1
v -0.09999987 1.5 0.8999999
v -0.09999987 2.1 0.8999999
v 0.1000001 1.5 0.8999999
v 0.1000001 -0.1 1.3
v 0.0999998 -0.1 -1.5
v 0.1000001 1.5 1.1
v 0.1000001 1.5 0.8999999
v 0.0999999 2.3 -0.6999999
v 0.1000001 1.5 0.8999999
v 0.1000001 1.5 1.1
v 0.1000001 2.1 1.1
v 0.0999998 3.9 -1.5
v 0.0999999 2.3 -0.6999999
v 0.1000001 3.9 1.3
v 0.1000001 2.1 1.1
v 0.0999999 3.3 -0.6999999
v 0.0999999 3.3 -0.6999999
v 0.0999999 2.3 -0.6999999
v 0.1000001 2.1 1.1
v 0.1 3.3 0.4999999
v 0.0999999 3.3 -0.6999999
v 0.1 3.3 0.4999999
v 0.1 2.3 0.4999999
v 0.1000001 1.5 0.8999999
v 0.0999999 2.3 -0.6999999
v 0.1000001 2.1 0.8999999
v 0.1 2.3 0.4999999
v 0.1 2.3 0.4999999
v 0.1 3.3 0.4999999
v 0.1000001 2.1 0.8999999
v 0.1000001 2.1 1.1
v 0.1000001 2.1 0.8999999
v 0.1 3.1 0.3
v 0.1 2.5 0.3
v 0.09999992 2.5 -0.4999999
v 0.09999992 3.1 -0.4999999
vn 1.192093E-07 0 0.9999999
vn 1.192093E-07 0 0.9999999
vn 1.192093E-07 0 0.9999999
vn 1.192093E-07 0 0.9999999
vn 1.192093E-07 0 0.9999999
vn 1.192093E-07 0 0.9999999
vn 1.192093E-07 0 0.9999999
vn 1.192093E-07 0 0.9999999
vn 1.192093E-07 0 0.9999999
vn 1.192093E-07 0 0.9999999
vn 1.192093E-07 0 0.9999999
vn 1.192093E-07 0 0.9999999
vn 1.192093E-07 0 0.9999999
vn 1.192093E-07 0 0.9999999
vn 1.192093E-07 0 0.9999999
vn 1.192093E-07 0 0.9999999
vn -1.192093E-07 0 -0.9999999
vn -1.192093E-07 0 -0.9999999
vn -1.192093E-07 0 -0.9999999
vn -1.192093E-07 0 -0.9999999
vn -1.192093E-07 0 -0.9999999
vn -1.192093E-07 0 -0.9999999
vn -1.192093E-07 0 -0.9999999
vn -1.192093E-07 0 -0.9999999
vn -1.192093E-07 0 -0.9999999
vn -1.192093E-07 0 -0.9999999
vn -1.192093E-07 0 -0.9999999
vn -1.192093E-07 0 -0.9999999
vn -1.192093E-07 0 -0.9999999
vn -1.192093E-07 0 -0.9999999
vn -1.192093E-07 0 -0.9999999
vn -1.192093E-07 0 -0.9999999
vn 0 -1 0
vn 0 -1 0
vn 0 -1 0
vn 0 -1 0
vn 0 -1 0
vn 0 -1 0
vn 0 -1 0
vn 0 -1 0
vn 0 -1 0
vn 0 -1 0
vn 0 -1 0
vn 0 -1 0
vn 0 -1 0
vn 0 -1 0
vn 0 -1 0
vn 0 -1 0
vn 0 1 0
vn 0 1 0
vn 0 1 0
vn 0 1 0
vn 0 1 0
vn 0 1 0
vn 0 1 0
vn 0 1 0
vn 0 1 0
vn 0 1 0
vn 0 1 0
vn 0 1 0
vn 0 1 0
vn 0 1 0
vn 0 1 0
vn 0 1 0
vn 0.9999999 0 -1.192093E-07
vn 0.9999999 0 -1.192093E-07
vn 0.9999999 0 -1.192093E-07
vn 0.9999999 0 -1.192093E-07
vn 0.9999999 0 -1.192093E-07
vn 0.9999999 0 -1.192093E-07
vn -0.9999999 0 1.192093E-07
vn -0.9999999 0 1.192093E-07
vn -0.9999999 0 1.192093E-07
vn -0.9999999 0 1.192093E-07
vn -0.9999999 0 1.192093E-07
vn -0.9999999 0 1.192093E-07
vn -0.9999999 0 1.192093E-07
vn -0.9999999 0 1.192093E-07
vn -0.9999999 0 1.192093E-07
vn -0.9999999 0 1.192093E-07
vn -0.9999999 0 1.192093E-07
vn -0.9999999 0 1.192093E-07
vn -0.9999999 0 1.192093E-07
vn -0.9999999 0 1.192093E-07
vn -0.9999999 0 1.192093E-07
vn -0.9999999 0 1.192093E-07
vn -0.9999999 0 1.192093E-07
vn -0.9999999 0 1.192093E-07
vn -0.9999999 0 1.192093E-07
vn -0.9999999 0 1.192093E-07
vn -0.9999999 0 1.192093E-07
vn -0.9999999 0 1.192093E-07
vn -0.9999999 0 1.192093E-07
vn -0.9999999 0 1.192093E-07
vn -0.9999999 0 1.192093E-07
vn -0.9999999 0 1.192093E-07
vn -0.9999999 0 1.192093E-07
vn -0.9999999 0 1.192093E-07
vn -0.9999999 0 1.192093E-07
vn -0.9999999 0 1.192093E-07
vn -0.9999999 0 1.192093E-07
vn -0.9999999 0 1.192093E-07
vn -0.9999999 0 1.192093E-07
vn -0.9999999 0 1.192093E-07
vn -0.9999999 0 1.192093E-07
vn -0.9999999 0 1.192093E-07
vn -0.9999999 0 1.192093E-07
vn -0.9999999 0 1.192093E-07
vn -0.9999999 0 1.192093E-07
vn -0.9999999 0 1.192093E-07
vn -0.9999999 0 1.192093E-07
vn -0.9999999 0 1.192093E-07
vn -0.9999999 0 1.192093E-07
vn -0.9999999 0 1.192093E-07
vn -0.9999999 0 1.192093E-07
vn -0.9999999 0 1.192093E-07
vn -0.9999999 0 1.192093E-07
vn -0.9999999 0 1.192093E-07
vn -0.9999999 0 1.192093E-07
vn -0.9999999 0 1.192093E-07
vn -0.9999999 0 1.192093E-07
vn -0.9999999 0 1.192093E-07
vn -0.9999999 0 1.192093E-07
vn -0.9999999 0 1.192093E-07
vt 0.3750884 0.09094124
vt 0.4374558 0.09094124
vt 0.4374558 0.1362994
vt 0.3750442 0.1363315
vt 0.5000884 0.2273049
vt 0.5624558 0.2273049
vt 0.5624558 0.272663
vt 0.5000442 0.2726951
vt 0.06258839 0.9091231
vt 0.1249558 0.9091231
vt 0.1249558 0.9544812
vt 0.0625442 0.9545133
vt 0.3750884 0.09094124
vt 0.4374558 0.09094124
vt 0.4374558 0.1362994
vt 0.3750442 0.1363315
vt 0.4374558 0.1362994
vt 0.4374558 0.09094124
vt 0.3750884 0.09094124
vt 0.3750442 0.1363315
vt 0.5624558 0.272663
vt 0.5624558 0.2273049
vt 0.5000884 0.2273049
vt 0.5000442 0.2726951
vt 0.1249558 0.9544812
vt 0.1249558 0.9091231
vt 0.06258839 0.9091231
vt 0.0625442 0.9545133
vt 0.4374558 0.1362994
vt 0.4374558 0.09094124
vt 0.3750884 0.09094124
vt 0.3750442 0.1363315
vt 0.4374558 0.1362994
vt 0.4374558 0.09094124
vt 0.3750884 0.09094124
vt 0.3750442 0.1363315
vt 0.1249558 0.9544812
vt 0.1249558 0.9091231
vt 0.06258839 0.9091231
vt 0.0625442 0.9545133
vt 0.4374558 0.1362994
vt 0.4374558 0.09094124
vt 0.3750884 0.09094124
vt 0.3750442 0.1363315
vt 0.5624558 0.272663
vt 0.5624558 0.2273049
vt 0.5000884 0.2273049
vt 0.5000442 0.2726951
vt 0.3750884 0.09094124
vt 0.4374558 0.09094124
vt 0.4374558 0.1362994
vt 0.3750442 0.1363315
vt 0.3750884 0.09094124
vt 0.4374558 0.09094124
vt 0.4374558 0.1362994
vt 0.3750442 0.1363315
vt 0.5000884 0.2273049
vt 0.5624558 0.2273049
vt 0.5624558 0.272663
vt 0.5000442 0.2726951
vt 0.06258839 0.9091231
vt 0.1249558 0.9091231
vt 0.1249558 0.9544812
vt 0.0625442 0.9545133
vt 0.3749196 0.2272379
vt 0.2875402 0.2272379
vt 0.2875402 0.1515848
vt 0.06254334 0.04552004
vt 0.9374133 0.9545127
vt 0.06254334 0.9545127
vt 0.3854438 0.1363045
vt 0.4374254 0.09093867
vt 0.3750474 0.09093867
vt 0.4249679 0.1363247
vt 0.3750965 0.1363247
vt 0.37504 0.1363113
vt 0.43742 0.1000175
vt 0.43746 0.1363113
vt 0.37508 0.1000175
vt 0.3854438 0.09096825
vt 0.4374441 0.1249797
vt 0.4374441 0.09098024
vt 0.3750559 0.1249797
vt 0.3750559 0.09098024
vt 0.3750965 0.09094807
vt 0.4249679 0.09094807
vt 0.5624558 0.272663
vt 0.5624558 0.2273049
vt 0.5000884 0.2273049
vt 0.5000442 0.2726951
vt 0.116042 0.9544856
vt 0.124953 0.9091209
vt 0.06257644 0.9091209
vt 0.09375 0.9545
vt 0.06259375 0.9545
vt 0.08334849 0.9545013
vt 0.1249242 0.9393829
vt 0.0625569 0.94213
vt 0.0625569 0.9544928
vt 0.06253633 0.9545085
vt 0.1249273 0.9363583
vt 0.1249645 0.954508
vt 0.06257097 0.9340883
vt 0.08037359 0.9091467
vt 0.1249394 0.937489
vt 0.1249394 0.9091626
vt 0.109357 0.9091344
vt 0.06256286 0.9393852
vt 0.06259806 0.9091355
vt 0.09998775 0.9091355
vt 0.1093471 0.9545048
vt 0.1249301 0.9091722
vt 0.06259783 0.9545048
vt 0.1249441 0.9431615
vt 0.0626118 0.9544947
vt 0.06255201 0.9166919
vt 0.06255201 0.9544761
vt 0.124896 0.909135
vt 0.1249209 0.909134
vt 0.1041469 0.909134
vt 0.4999558 0.7272084
vt 0.4999558 0.6818503
vt 0.4375884 0.6818503
vt 0.4375442 0.7272406
usemtl EGA_Building_Door_10_texture0
f 3/3/3 2/2/2 1/1/1
f 4/4/4 3/3/3 1/1/1
f 7/7/7 6/6/6 5/5/5
f 8/8/8 7/7/7 5/5/5
f 11/11/11 10/10/10 9/9/9
f 12/12/12 11/11/11 9/9/9
f 15/15/15 14/14/14 13/13/13
f 16/16/16 15/15/15 13/13/13
f 19/19/19 18/18/18 17/17/17
f 19/19/19 17/17/17 20/20/20
f 23/23/23 22/22/22 21/21/21
f 23/23/23 21/21/21 24/24/24
f 27/27/27 26/26/26 25/25/25
f 27/27/27 25/25/25 28/28/28
f 31/31/31 30/30/30 29/29/29
f 31/31/31 29/29/29 32/32/32
f 35/35/35 34/34/34 33/33/33
f 35/35/35 33/33/33 36/36/36
f 39/39/39 38/38/38 37/37/37
f 39/39/39 37/37/37 40/40/40
f 43/43/43 42/42/42 41/41/41
f 43/43/43 41/41/41 44/44/44
f 47/47/47 46/46/46 45/45/45
f 47/47/47 45/45/45 48/48/48
f 51/51/51 50/50/50 49/49/49
f 52/52/52 51/51/51 49/49/49
f 55/55/55 54/54/54 53/53/53
f 56/56/56 55/55/55 53/53/53
f 59/59/59 58/58/58 57/57/57
f 60/60/60 59/59/59 57/57/57
f 63/63/63 62/62/62 61/61/61
f 64/64/64 63/63/63 61/61/61
f 67/67/67 66/66/66 65/65/65
f 70/70/70 69/69/69 68/68/68
f 73/73/73 72/72/72 71/71/71
f 75/75/75 72/72/72 74/74/74
f 73/73/73 77/77/77 76/76/76
f 79/79/79 72/72/72 78/78/78
f 80/80/80 78/78/78 76/76/76
f 76/76/76 82/82/82 81/81/81
f 84/84/84 78/78/78 83/83/83
f 86/86/86 78/78/78 85/85/85
f 89/89/89 88/88/88 87/87/87
f 89/89/89 87/87/87 90/90/90
f 93/93/93 92/92/92 91/91/91
f 95/95/95 92/92/92 94/94/94
f 93/93/93 97/97/97 96/96/96
f 99/99/99 98/98/98 92/92/92
f 93/93/93 101/101/101 100/100/100
f 103/103/103 92/92/92 102/102/102
f 104/104/104 102/102/102 100/100/100
f 100/100/100 106/106/106 105/105/105
f 102/102/102 108/108/108 107/107/107
f 110/110/110 102/102/102 109/109/109
f 113/113/113 112/112/112 111/111/111
f 115/115/115 112/112/112 114/114/114
f 118/118/118 117/117/117 116/116/116
f 117/117/117 120/120/120 119/119/119
f 123/123/123 122/122/122 121/121/121
f 123/123/123 121/121/121 124/124/124
