mtllib EGA_Fence_02.mtl
g default
v -2.15 1.55 0.35
v -2.15 1.45 0.35
v -2.15 1.45 -0.25
v -2.15 1.55 -0.25
v -2.05 1.45 0.25
v -2.05 -0.05 0.25
v -2.05 -0.05 -0.15
v -2.05 1.45 -0.15
v 1.65 1.55 0.35
v 1.65 1.45 0.35
v 1.65 1.45 -0.25
v 1.65 1.55 -0.25
v 1.75 -0.05 0.25
v 1.75 0.85 0.15
v 1.75 1.45 0.25
v 1.75 0.85 0.15
v 1.75 1.15 0.15
v 1.75 0.85 0.15
v 1.75 0.55 0.15
v 1.75 1.15 0.15
v 1.75 1.45 -0.15
v 1.75 0.55 0.15
v 1.75 0.25 0.15
v 1.75 1.15 0.15
v 1.75 1.15 -0.05
v 1.75 0.25 0.15
v 1.75 -0.05 -0.15
v 1.75 0.85 -0.05
v 1.75 0.85 -0.05
v 1.75 1.15 -0.05
v 1.75 0.25 0.15
v 1.75 0.25 -0.05
v 1.75 0.55 -0.05
v 1.75 0.85 -0.05
v 1.75 0.25 -0.05
v 1.75 0.55 -0.05
v 1.75 0.85 0.15
v 1.75 0.55 0.15
v 1.75 0.55 -0.05
v 1.75 0.85 -0.05
v -1.65 1.45 0.25
v -1.65 0.85 0.15
v -1.65 -0.05 0.25
v -1.65 1.15 0.15
v -1.65 0.85 0.15
v -1.65 0.55 0.15
v -1.65 0.85 0.15
v -1.65 1.45 -0.15
v -1.65 1.15 0.15
v -1.65 0.25 0.15
v -1.65 0.55 0.15
v -1.65 1.15 -0.05
v -1.65 1.15 0.15
v -1.65 -0.05 -0.15
v -1.65 0.25 0.15
v -1.65 0.85 -0.05
v -1.65 1.15 -0.05
v -1.65 0.85 -0.05
v -1.65 0.25 -0.05
v -1.65 0.25 0.15
v -1.65 0.85 -0.05
v -1.65 0.55 -0.05
v -1.65 0.55 -0.05
v -1.65 0.25 -0.05
v -1.65 0.55 -0.05
v -1.65 0.55 0.15
v -1.65 0.85 0.15
v -1.65 0.85 -0.05
v -1.55 1.45 -0.25
v -1.55 1.45 0.35
v -1.55 1.55 0.35
v -1.55 1.55 -0.25
v 2.15 -0.05 -0.15
v 2.15 -0.05 0.25
v 2.15 1.45 0.25
v 2.15 1.45 -0.15
v 2.25 1.45 -0.25
v 2.25 1.45 0.35
v 2.25 1.55 0.35
v 2.25 1.55 -0.25
v 1.75 -0.05 -0.15
v 1.75 -0.05 0.25
v 2.15 -0.05 0.25
v 2.15 -0.05 -0.15
v -2.05 -0.05 -0.15
v -2.05 -0.05 0.25
v -1.65 -0.05 0.25
v -1.65 -0.05 -0.15
v 2.15 1.45 0.25
v 1.65 1.45 0.35
v 2.25 1.45 0.35
v 1.75 1.45 0.25
v 2.15 1.45 0.25
v 2.25 1.45 -0.25
v 2.15 1.45 0.25
v 1.65 1.45 -0.25
v 1.75 1.45 0.25
v 2.15 1.45 -0.15
v 2.15 1.45 -0.15
v 2.15 1.45 0.25
v 1.75 1.45 -0.15
v 1.75 1.45 0.25
v 2.15 1.45 -0.15
v 1.75 1.45 -0.15
v -1.65 1.45 0.25
v -2.15 1.45 0.35
v -1.55 1.45 0.35
v -2.05 1.45 0.25
v -1.65 1.45 0.25
v -1.55 1.45 -0.25
v -1.65 1.45 0.25
v -2.15 1.45 -0.25
v -2.05 1.45 0.25
v -1.65 1.45 -0.15
v -1.65 1.45 -0.15
v -1.65 1.45 0.25
v -2.05 1.45 -0.15
v -2.05 1.45 0.25
v -1.65 1.45 -0.15
v -2.05 1.45 -0.15
v -1.65 0.85 -0.05
v -1.65 0.85 0.15
v 1.75 0.85 0.15
v 1.75 0.85 -0.05
v -1.65 0.25 -0.05
v -1.65 0.25 0.15
v 1.75 0.25 0.15
v 1.75 0.25 -0.05
v 2.25 1.55 0.35
v 1.65 1.55 0.35
v 1.65 1.55 -0.25
v 2.25 1.55 -0.25
v -1.55 1.55 0.35
v -2.15 1.55 0.35
v -2.15 1.55 -0.25
v -1.55 1.55 -0.25
v 1.75 1.15 0.15
v -1.65 1.15 0.15
v -1.65 1.15 -0.05
v 1.75 1.15 -0.05
v 1.75 0.55 0.15
v -1.65 0.55 0.15
v -1.65 0.55 -0.05
v 1.75 0.55 -0.05
v 1.75 0.25 0.15
v -1.65 0.25 0.15
v -1.65 0.55 0.15
v 1.75 0.55 0.15
v 1.75 0.85 0.15
v -1.65 0.85 0.15
v -1.65 1.15 0.15
v 1.75 1.15 0.15
v 2.15 -0.05 0.25
v 1.75 -0.05 0.25
v 1.75 1.45 0.25
v 2.15 1.45 0.25
v -1.65 -0.05 0.25
v -2.05 -0.05 0.25
v -2.05 1.45 0.25
v -1.65 1.45 0.25
v 2.25 1.45 0.35
v 1.65 1.45 0.35
v 1.65 1.55 0.35
v 2.25 1.55 0.35
v -1.55 1.45 0.35
v -2.15 1.45 0.35
v -2.15 1.55 0.35
v -1.55 1.55 0.35
v -1.65 0.55 -0.05
v -1.65 0.25 -0.05
v 1.75 0.25 -0.05
v 1.75 0.55 -0.05
v -1.65 1.15 -0.05
v -1.65 0.85 -0.05
v 1.75 0.85 -0.05
v 1.75 1.15 -0.05
v 1.65 1.55 -0.25
v 1.65 1.45 -0.25
v 2.25 1.45 -0.25
v 2.25 1.55 -0.25
v -2.15 1.55 -0.25
v -2.15 1.45 -0.25
v -1.55 1.45 -0.25
v -1.55 1.55 -0.25
v 1.75 1.45 -0.15
v 1.75 -0.05 -0.15
v 2.15 -0.05 -0.15
v 2.15 1.45 -0.15
v -2.05 1.45 -0.15
v -2.05 -0.05 -0.15
v -1.65 -0.05 -0.15
v -1.65 1.45 -0.15
vn -1 0 0
vn -1 0 0
vn -1 0 0
vn -1 0 0
vn -1 0 0
vn -1 0 0
vn -1 0 0
vn -1 0 0
vn -1 0 0
vn -1 0 0
vn -1 0 0
vn -1 0 0
vn -1 0 0
vn -1 0 0
vn -1 0 0
vn -1 0 0
vn -1 0 0
vn -1 0 0
vn -1 0 0
vn -1 0 0
vn -1 0 0
vn -1 0 0
vn -1 0 0
vn -1 0 0
vn -1 0 0
vn -1 0 0
vn -1 0 0
vn -1 0 0
vn -1 0 0
vn -1 0 0
vn -1 0 0
vn -1 0 0
vn -1 0 0
vn -1 0 0
vn -1 0 0
vn -1 0 0
vn -1 0 0
vn -1 0 0
vn -1 0 0
vn -1 0 0
vn 1 0 0
vn 1 0 0
vn 1 0 0
vn 1 0 0
vn 1 0 0
vn 1 0 0
vn 1 0 0
vn 1 0 0
vn 1 0 0
vn 1 0 0
vn 1 0 0
vn 1 0 0
vn 1 0 0
vn 1 0 0
vn 1 0 0
vn 1 0 0
vn 1 0 0
vn 1 0 0
vn 1 0 0
vn 1 0 0
vn 1 0 0
vn 1 0 0
vn 1 0 0
vn 1 0 0
vn 1 0 0
vn 1 0 0
vn 1 0 0
vn 1 0 0
vn 1 0 0
vn 1 0 0
vn 1 0 0
vn 1 0 0
vn 1 0 0
vn 1 0 0
vn 1 0 0
vn 1 0 0
vn 1 0 0
vn 1 0 0
vn 1 0 0
vn 1 0 0
vn 0 -1 0
vn 0 -1 0
vn 0 -1 0
vn 0 -1 0
vn 0 -1 0
vn 0 -1 0
vn 0 -1 0
vn 0 -1 0
vn 0 -1 0
vn 0 -1 0
vn 0 -1 0
vn 0 -1 0
vn 0 -1 0
vn 0 -1 0
vn 0 -1 0
vn 0 -1 0
vn 0 -1 0
vn 0 -1 0
vn 0 -1 0
vn 0 -1 0
vn 0 -1 0
vn 0 -1 0
vn 0 -1 0
vn 0 -1 0
vn 0 -1 0
vn 0 -1 0
vn 0 -1 0
vn 0 -1 0
vn 0 -1 0
vn 0 -1 0
vn 0 -1 0
vn 0 -1 0
vn 0 -1 0
vn 0 -1 0
vn 0 -1 0
vn 0 -1 0
vn 0 -1 0
vn 0 -1 0
vn 0 -1 0
vn 0 -1 0
vn 0 -1 0
vn 0 -1 0
vn 0 -1 0
vn 0 -1 0
vn 0 -1 0
vn 0 -1 0
vn 0 -1 0
vn 0 -1 0
vn 0 1 0
vn 0 1 0
vn 0 1 0
vn 0 1 0
vn 0 1 0
vn 0 1 0
vn 0 1 0
vn 0 1 0
vn 0 1 0
vn 0 1 0
vn 0 1 0
vn 0 1 0
vn 0 1 0
vn 0 1 0
vn 0 1 0
vn 0 1 0
vn 0 0 1
vn 0 0 1
vn 0 0 1
vn 0 0 1
vn 0 0 1
vn 0 0 1
vn 0 0 1
vn 0 0 1
vn 0 0 1
vn 0 0 1
vn 0 0 1
vn 0 0 1
vn 0 0 1
vn 0 0 1
vn 0 0 1
vn 0 0 1
vn 0 0 1
vn 0 0 1
vn 0 0 1
vn 0 0 1
vn 0 0 1
vn 0 0 1
vn 0 0 1
vn 0 0 1
vn 0 0 -1
vn 0 0 -1
vn 0 0 -1
vn 0 0 -1
vn 0 0 -1
vn 0 0 -1
vn 0 0 -1
vn 0 0 -1
vn 0 0 -1
vn 0 0 -1
vn 0 0 -1
vn 0 0 -1
vn 0 0 -1
vn 0 0 -1
vn 0 0 -1
vn 0 0 -1
vn 0 0 -1
vn 0 0 -1
vn 0 0 -1
vn 0 0 -1
vn 0 0 -1
vn 0 0 -1
vn 0 0 -1
vn 0 0 -1
vt 0.3338047 0.333569
vt 0.666431 0.333569
vt 0.666431 0.6661953
vt 0.333569 0.666431
vt 0.3338047 0.333569
vt 0.666431 0.333569
vt 0.666431 0.6661953
vt 0.333569 0.666431
vt 0.3338047 0.333569
vt 0.666431 0.333569
vt 0.666431 0.6661953
vt 0.333569 0.666431
vt 0.6663567 0.3335271
vt 0.4667054 0.6662792
vt 0.3336046 0.3335271
vt 0.6661667 0.6663333
vt 0.5 0.6663333
vt 0.333755 0.6663504
vt 0.4445499 0.6663504
vt 0.6662502 0.4167708
vt 0.3335416 0.6663023
vt 0.3338333 0.6663333
vt 0.5 0.6663333
vt 0.6663504 0.3338604
vt 0.6663504 0.5554501
vt 0.3337498 0.4167708
vt 0.6664584 0.6663023
vt 0.4667054 0.3337208
vt 0.6661667 0.3336667
vt 0.5 0.3336667
vt 0.3336496 0.3338604
vt 0.3336496 0.5554501
vt 0.4445499 0.3336496
vt 0.333755 0.3336496
vt 0.5 0.3336667
vt 0.3338333 0.3336667
vt 0.3338047 0.333569
vt 0.666431 0.333569
vt 0.666431 0.6661953
vt 0.333569 0.666431
vt 0.3336046 0.3335271
vt 0.4667054 0.6662792
vt 0.6663567 0.3335271
vt 0.5 0.6663333
vt 0.6661667 0.6663333
vt 0.4445499 0.6663504
vt 0.333755 0.6663504
vt 0.3335416 0.6663023
vt 0.6662502 0.4167708
vt 0.5 0.6663333
vt 0.3338333 0.6663333
vt 0.6663504 0.5554501
vt 0.6663504 0.3338604
vt 0.6664584 0.6663023
vt 0.3337498 0.4167708
vt 0.4667054 0.3337208
vt 0.5 0.3336667
vt 0.6661667 0.3336667
vt 0.3336496 0.5554501
vt 0.3336496 0.3338604
vt 0.333755 0.3336496
vt 0.4445499 0.3336496
vt 0.3338333 0.3336667
vt 0.5 0.3336667
vt 0.666431 0.6661953
vt 0.666431 0.333569
vt 0.3338047 0.333569
vt 0.333569 0.666431
vt 0.666431 0.6661953
vt 0.666431 0.333569
vt 0.3338047 0.333569
vt 0.333569 0.666431
vt 0.666431 0.6661953
vt 0.666431 0.333569
vt 0.3338047 0.333569
vt 0.333569 0.666431
vt 0.666431 0.6661953
vt 0.666431 0.333569
vt 0.3338047 0.333569
vt 0.333569 0.666431
vt 0.666431 0.6661953
vt 0.666431 0.333569
vt 0.3338047 0.333569
vt 0.333569 0.666431
vt 0.666431 0.6661953
vt 0.666431 0.333569
vt 0.3338047 0.333569
vt 0.333569 0.666431
vt 0.3890335 0.6662328
vt 0.6662689 0.3335503
vt 0.3335864 0.3335503
vt 0.5998285 0.6663808
vt 0.3338478 0.6663808
vt 0.3335503 0.6662689
vt 0.6662328 0.3890335
vt 0.6664497 0.6662689
vt 0.3337672 0.3890335
vt 0.3890335 0.3337672
vt 0.6663808 0.5998285
vt 0.6663808 0.3338478
vt 0.3336192 0.5998285
vt 0.3336192 0.3338478
vt 0.3338478 0.3336192
vt 0.5998285 0.3336192
vt 0.3890335 0.6662328
vt 0.6662689 0.3335503
vt 0.3335864 0.3335503
vt 0.5998285 0.6663808
vt 0.3338478 0.6663808
vt 0.3335503 0.6662689
vt 0.6662328 0.3890335
vt 0.6664497 0.6662689
vt 0.3337672 0.3890335
vt 0.3890335 0.3337672
vt 0.6663808 0.5998285
vt 0.6663808 0.3338478
vt 0.3336192 0.5998285
vt 0.3336192 0.3338478
vt 0.3338478 0.3336192
vt 0.5998285 0.3336192
vt 0.666431 0.6661953
vt 0.666431 0.333569
vt 0.3338047 0.333569
vt 0.333569 0.666431
vt 0.666431 0.6661953
vt 0.666431 0.333569
vt 0.3338047 0.333569
vt 0.333569 0.666431
vt 0.3338047 0.333569
vt 0.666431 0.333569
vt 0.666431 0.6661953
vt 0.333569 0.666431
vt 0.3338047 0.333569
vt 0.666431 0.333569
vt 0.666431 0.6661953
vt 0.333569 0.666431
vt 0.3338047 0.333569
vt 0.666431 0.333569
vt 0.666431 0.6661953
vt 0.333569 0.666431
vt 0.3338047 0.333569
vt 0.666431 0.333569
vt 0.666431 0.6661953
vt 0.333569 0.666431
vt 0.3338047 0.333569
vt 0.666431 0.333569
vt 0.666431 0.6661953
vt 0.333569 0.666431
vt 0.3338047 0.333569
vt 0.666431 0.333569
vt 0.666431 0.6661953
vt 0.333569 0.666431
vt 0.3338047 0.333569
vt 0.666431 0.333569
vt 0.666431 0.6661953
vt 0.333569 0.666431
vt 0.3338047 0.333569
vt 0.666431 0.333569
vt 0.666431 0.6661953
vt 0.333569 0.666431
vt 0.3338047 0.333569
vt 0.666431 0.333569
vt 0.666431 0.6661953
vt 0.333569 0.666431
vt 0.3338047 0.333569
vt 0.666431 0.333569
vt 0.666431 0.6661953
vt 0.333569 0.666431
vt 0.666431 0.6661953
vt 0.666431 0.333569
vt 0.3338047 0.333569
vt 0.333569 0.666431
vt 0.666431 0.6661953
vt 0.666431 0.333569
vt 0.3338047 0.333569
vt 0.333569 0.666431
vt 0.666431 0.6661953
vt 0.666431 0.333569
vt 0.3338047 0.333569
vt 0.333569 0.666431
vt 0.666431 0.6661953
vt 0.666431 0.333569
vt 0.3338047 0.333569
vt 0.333569 0.666431
vt 0.666431 0.6661953
vt 0.666431 0.333569
vt 0.3338047 0.333569
vt 0.333569 0.666431
vt 0.666431 0.6661953
vt 0.666431 0.333569
vt 0.3338047 0.333569
vt 0.333569 0.666431
usemtl EGA_Fence_02_texture0
f 3/3/3 2/2/2 1/1/1
f 4/4/4 3/3/3 1/1/1
f 7/7/7 6/6/6 5/5/5
f 8/8/8 7/7/7 5/5/5
f 11/11/11 10/10/10 9/9/9
f 12/12/12 11/11/11 9/9/9
f 15/15/15 14/14/14 13/13/13
f 17/17/17 16/16/16 15/15/15
f 19/19/19 13/13/13 18/18/18
f 21/21/21 20/20/20 15/15/15
f 23/23/23 13/13/13 22/22/22
f 25/25/25 24/24/24 21/21/21
f 27/27/27 13/13/13 26/26/26
f 28/28/28 21/21/21 27/27/27
f 30/30/30 21/21/21 29/29/29
f 32/32/32 27/27/27 31/31/31
f 34/34/34 27/27/27 33/33/33
f 36/36/36 27/27/27 35/35/35
f 39/39/39 38/38/38 37/37/37
f 40/40/40 39/39/39 37/37/37
f 43/43/43 42/42/42 41/41/41
f 41/41/41 45/45/45 44/44/44
f 47/47/47 43/43/43 46/46/46
f 41/41/41 49/49/49 48/48/48
f 51/51/51 43/43/43 50/50/50
f 48/48/48 53/53/53 52/52/52
f 55/55/55 43/43/43 54/54/54
f 54/54/54 48/48/48 56/56/56
f 58/58/58 48/48/48 57/57/57
f 60/60/60 54/54/54 59/59/59
f 62/62/62 54/54/54 61/61/61
f 64/64/64 54/54/54 63/63/63
f 67/67/67 66/66/66 65/65/65
f 67/67/67 65/65/65 68/68/68
f 71/71/71 70/70/70 69/69/69
f 71/71/71 69/69/69 72/72/72
f 75/75/75 74/74/74 73/73/73
f 75/75/75 73/73/73 76/76/76
f 79/79/79 78/78/78 77/77/77
f 79/79/79 77/77/77 80/80/80
f 83/83/83 82/82/82 81/81/81
f 83/83/83 81/81/81 84/84/84
f 87/87/87 86/86/86 85/85/85
f 87/87/87 85/85/85 88/88/88
f 91/91/91 90/90/90 89/89/89
f 93/93/93 90/90/90 92/92/92
f 91/91/91 95/95/95 94/94/94
f 97/97/97 90/90/90 96/96/96
f 98/98/98 96/96/96 94/94/94
f 94/94/94 100/100/100 99/99/99
f 102/102/102 96/96/96 101/101/101
f 104/104/104 96/96/96 103/103/103
f 107/107/107 106/106/106 105/105/105
f 109/109/109 106/106/106 108/108/108
f 107/107/107 111/111/111 110/110/110
f 113/113/113 106/106/106 112/112/112
f 114/114/114 112/112/112 110/110/110
f 110/110/110 116/116/116 115/115/115
f 118/118/118 112/112/112 117/117/117
f 120/120/120 112/112/112 119/119/119
f 123/123/123 122/122/122 121/121/121
f 123/123/123 121/121/121 124/124/124
f 127/127/127 126/126/126 125/125/125
f 127/127/127 125/125/125 128/128/128
f 131/131/131 130/130/130 129/129/129
f 132/132/132 131/131/131 129/129/129
f 135/135/135 134/134/134 133/133/133
f 136/136/136 135/135/135 133/133/133
f 139/139/139 138/138/138 137/137/137
f 140/140/140 139/139/139 137/137/137
f 143/143/143 142/142/142 141/141/141
f 144/144/144 143/143/143 141/141/141
f 147/147/147 146/146/146 145/145/145
f 148/148/148 147/147/147 145/145/145
f 151/151/151 150/150/150 149/149/149
f 152/152/152 151/151/151 149/149/149
f 155/155/155 154/154/154 153/153/153
f 156/156/156 155/155/155 153/153/153
f 159/159/159 158/158/158 157/157/157
f 160/160/160 159/159/159 157/157/157
f 163/163/163 162/162/162 161/161/161
f 164/164/164 163/163/163 161/161/161
f 167/167/167 166/166/166 165/165/165
f 168/168/168 167/167/167 165/165/165
f 171/171/171 170/170/170 169/169/169
f 171/171/171 169/169/169 172/172/172
f 175/175/175 174/174/174 173/173/173
f 175/175/175 173/173/173 176/176/176
f 179/179/179 178/178/178 177/177/177
f 179/179/179 177/177/177 180/180/180
f 183/183/183 182/182/182 181/181/181
f 183/183/183 181/181/181 184/184/184
f 187/187/187 186/186/186 185/185/185
f 187/187/187 185/185/185 188/188/188
f 191/191/191 190/190/190 189/189/189
f 191/191/191 189/189/189 192/192/192
