mtllib EGA_Building_16_Cup.mtl
g default
v -4.57588 1.945786 2.175878
v -4.029605 1.625786 2.269604
v -2.109605 4.341076 0.3496046
v -2.65588 4.661077 0.2558786
v -4.176568 -0.3159801 -3.503432
v -1.308629 -1.99598 -3.011371
v -0.8286287 -1.317157 -3.491371
v -3.696568 0.3628424 -3.983432
v -1.384609 -2.680488 -0.5353913
v -3.509117 0.3240201 -1.930884
v -5.345097 -0.3604879 -1.214904
v -3.509117 0.3240201 -1.930884
v -3.918822 0.56402 -2.001178
v -3.509117 0.3240201 -1.930884
v -1.460589 -0.8759798 -1.579412
v -3.918822 0.56402 -2.001178
v -3.105097 2.807351 -3.454904
v -1.460589 -0.8759798 -1.579412
v -1.050883 -1.11598 -1.509117
v -3.918822 0.56402 -2.001178
v -3.438823 1.242842 -2.481178
v -1.050883 -1.11598 -1.509117
v 0.8553913 0.4873506 -2.775391
v -3.029117 1.002843 -2.410883
v -3.029117 1.002843 -2.410883
v -3.438823 1.242842 -2.481178
v -1.050883 -1.11598 -1.509117
v -0.5708829 -0.4371573 -1.989117
v -0.9805886 -0.1971573 -2.059411
v -3.029117 1.002843 -2.410883
v -0.5708829 -0.4371573 -1.989117
v -0.9805886 -0.1971573 -2.059411
v -3.509117 0.3240201 -1.930884
v -1.460589 -0.8759798 -1.579412
v -0.9805886 -0.1971573 -2.059411
v -3.029117 1.002843 -2.410883
v 1.511472 2.727351 1.048529
v -0.7285284 -0.4404877 3.288528
v -4.689017 1.879512 2.609015
v -2.449017 5.047351 0.3690159
v -1.16804 -0.8371573 -3.15196
v -1.64804 -1.51598 -2.67196
v -3.696568 -0.3159798 -3.023432
v -3.216568 0.3628426 -3.503432
v -2.67196 2.421076 -2.928041
v -4.591959 -0.2942139 -1.008041
v -5.138234 0.02578624 -1.101767
v -3.218234 2.741076 -3.021767
v 0.8553913 0.4873506 -2.775391
v -1.384609 -2.680488 -0.5353913
v -0.7285284 -0.4404877 3.288528
v 1.511472 2.727351 1.048529
v -3.216568 0.3628426 -3.503432
v -3.696568 -0.3159798 -3.023432
v -3.509117 0.3240201 -1.930884
v -3.029117 1.002843 -2.410883
v -0.8286287 -1.317157 -3.491371
v -1.308629 -1.99598 -3.011371
v -1.050883 -1.11598 -1.509117
v -0.5708829 -0.4371573 -1.989117
v -4.689017 1.879512 2.609015
v -5.345097 -0.3604879 -1.214904
v -4.57588 1.945786 2.175878
v -4.57588 1.945786 2.175878
v -5.138234 0.02578624 -1.101767
v -4.57588 1.945786 2.175878
v -2.449017 5.047351 0.3690159
v -5.138234 0.02578624 -1.101767
v -3.105097 2.807351 -3.454904
v -2.65588 4.661077 0.2558786
v -4.57588 1.945786 2.175878
v -2.65588 4.661077 0.2558786
v -5.138234 0.02578624 -1.101767
v -3.218234 2.741076 -3.021767
v -3.218234 2.741076 -3.021767
v -2.65588 4.661077 0.2558786
v -4.029605 1.625786 2.269604
v -4.591959 -0.2942139 -1.008041
v -2.67196 2.421076 -2.928041
v -2.109605 4.341076 0.3496046
v -3.918822 0.56402 -2.001178
v -4.176568 -0.3159801 -3.503432
v -3.696568 0.3628424 -3.983432
v -3.438823 1.242842 -2.481178
v -1.460589 -0.8759798 -1.579412
v -1.64804 -1.51598 -2.67196
v -1.16804 -0.8371573 -3.15196
v -0.9805886 -0.1971573 -2.059411
v -1.050883 -1.11598 -1.509117
v -1.308629 -1.99598 -3.011371
v -1.64804 -1.51598 -2.67196
v -1.64804 -1.51598 -2.67196
v -4.176568 -0.3159801 -3.503432
v -1.64804 -1.51598 -2.67196
v -1.460589 -0.8759798 -1.579412
v -1.64804 -1.51598 -2.67196
v -3.696568 -0.3159798 -3.023432
v -3.918822 0.56402 -2.001178
v -3.696568 -0.3159798 -3.023432
v -3.696568 -0.3159798 -3.023432
v -3.509117 0.3240201 -1.930884
v -2.109605 4.341076 0.3496046
v -2.67196 2.421076 -2.928041
v -3.218234 2.741076 -3.021767
v -2.65588 4.661077 0.2558786
v -0.7285284 -0.4404877 3.288528
v -1.384609 -2.680488 -0.5353913
v -5.345097 -0.3604879 -1.214904
v -4.689017 1.879512 2.609015
v -3.105097 2.807351 -3.454904
v 0.8553913 0.4873506 -2.775391
v 1.511472 2.727351 1.048529
v -2.449017 5.047351 0.3690159
v -5.138234 0.02578624 -1.101767
v -4.591959 -0.2942139 -1.008041
v -4.029605 1.625786 2.269604
v -4.57588 1.945786 2.175878
v -1.16804 -0.8371573 -3.15196
v -0.8286287 -1.317157 -3.491371
v -0.5708829 -0.4371573 -1.989117
v -3.696568 0.3628424 -3.983432
v -1.16804 -0.8371573 -3.15196
v -0.9805886 -0.1971573 -2.059411
v -1.16804 -0.8371573 -3.15196
v -3.216568 0.3628426 -3.503432
v -1.16804 -0.8371573 -3.15196
v -3.216568 0.3628426 -3.503432
v -3.438823 1.242842 -2.481178
v -3.029117 1.002843 -2.410883
v -3.216568 0.3628426 -3.503432
vn -0.1464465 -0.5 -0.8535534
vn -0.1464465 -0.5 -0.8535534
vn -0.1464465 -0.5 -0.8535534
vn -0.1464465 -0.5 -0.8535534
vn -0.1464465 -0.5 -0.8535534
vn -0.1464465 -0.5 -0.8535534
vn -0.1464465 -0.5 -0.8535534
vn -0.1464465 -0.5 -0.8535534
vn -0.1464465 -0.5 -0.8535534
vn -0.1464465 -0.5 -0.8535534
vn -0.1464465 -0.5 -0.8535534
vn -0.1464465 -0.5 -0.8535534
vn -0.1464465 -0.5 -0.8535534
vn -0.1464465 -0.5 -0.8535534
vn -0.1464465 -0.5 -0.8535534
vn -0.1464465 -0.5 -0.8535534
vn -0.1464465 -0.5 -0.8535534
vn -0.1464465 -0.5 -0.8535534
vn -0.1464465 -0.5 -0.8535534
vn -0.1464465 -0.5 -0.8535534
vn -0.1464465 -0.5 -0.8535534
vn -0.1464465 -0.5 -0.8535534
vn -0.1464465 -0.5 -0.8535534
vn -0.1464465 -0.5 -0.8535534
vn -0.1464465 -0.5 -0.8535534
vn -0.1464465 -0.5 -0.8535534
vn -0.1464465 -0.5 -0.8535534
vn -0.1464465 -0.5 -0.8535534
vn -0.1464465 -0.5 -0.8535534
vn -0.1464465 -0.5 -0.8535534
vn -0.1464465 -0.5 -0.8535534
vn -0.1464465 -0.5 -0.8535534
vn -0.1464465 -0.5 -0.8535534
vn -0.1464465 -0.5 -0.8535534
vn -0.1464465 -0.5 -0.8535534
vn -0.1464465 -0.5 -0.8535534
vn 0.1464465 0.5 0.8535534
vn 0.1464465 0.5 0.8535534
vn 0.1464465 0.5 0.8535534
vn 0.1464465 0.5 0.8535534
vn 0.1464465 0.5 0.8535534
vn 0.1464465 0.5 0.8535534
vn 0.1464465 0.5 0.8535534
vn 0.1464465 0.5 0.8535534
vn 0.1464465 0.5 0.8535534
vn 0.1464465 0.5 0.8535534
vn 0.1464465 0.5 0.8535534
vn 0.1464465 0.5 0.8535534
vn 0.8535534 -0.4999999 0.1464467
vn 0.8535534 -0.4999999 0.1464467
vn 0.8535534 -0.4999999 0.1464467
vn 0.8535534 -0.4999999 0.1464467
vn 0.8535534 -0.4999999 0.1464467
vn 0.8535534 -0.4999999 0.1464467
vn 0.8535534 -0.4999999 0.1464467
vn 0.8535534 -0.4999999 0.1464467
vn 0.8535534 -0.4999999 0.1464467
vn 0.8535534 -0.4999999 0.1464467
vn 0.8535534 -0.4999999 0.1464467
vn 0.8535534 -0.4999999 0.1464467
vn -0.8535534 0.4999999 -0.1464467
vn -0.8535534 0.4999999 -0.1464467
vn -0.8535534 0.4999999 -0.1464467
vn -0.8535534 0.4999999 -0.1464467
vn -0.8535534 0.4999999 -0.1464467
vn -0.8535534 0.4999999 -0.1464467
vn -0.8535534 0.4999999 -0.1464467
vn -0.8535534 0.4999999 -0.1464467
vn -0.8535534 0.4999999 -0.1464467
vn -0.8535534 0.4999999 -0.1464467
vn -0.8535534 0.4999999 -0.1464467
vn -0.8535534 0.4999999 -0.1464467
vn -0.8535534 0.4999999 -0.1464467
vn -0.8535534 0.4999999 -0.1464467
vn -0.8535534 0.4999999 -0.1464467
vn -0.8535534 0.4999999 -0.1464467
vn -0.8535534 0.4999999 -0.1464467
vn -0.8535534 0.4999999 -0.1464467
vn -0.8535534 0.4999999 -0.1464467
vn -0.8535534 0.4999999 -0.1464467
vn -0.8535534 0.4999999 -0.1464467
vn -0.8535534 0.4999999 -0.1464467
vn -0.8535534 0.4999999 -0.1464467
vn -0.8535534 0.4999999 -0.1464467
vn -0.8535534 0.4999999 -0.1464467
vn -0.8535534 0.4999999 -0.1464467
vn -0.8535534 0.4999999 -0.1464467
vn -0.8535534 0.4999999 -0.1464467
vn -0.5 -0.7071068 0.4999999
vn -0.5 -0.7071068 0.4999999
vn -0.5 -0.7071068 0.4999999
vn -0.5 -0.7071068 0.4999999
vn -0.5 -0.7071068 0.4999999
vn -0.5 -0.7071068 0.4999999
vn -0.5 -0.7071068 0.4999999
vn -0.5 -0.7071068 0.4999999
vn -0.5 -0.7071068 0.4999999
vn -0.5 -0.7071068 0.4999999
vn -0.5 -0.7071068 0.4999999
vn -0.5 -0.7071068 0.4999999
vn -0.5 -0.7071068 0.4999999
vn -0.5 -0.7071068 0.4999999
vn -0.5 -0.7071068 0.4999999
vn -0.5 -0.7071068 0.4999999
vn -0.5 -0.7071068 0.4999999
vn -0.5 -0.7071068 0.4999999
vn -0.5 -0.7071068 0.4999999
vn -0.5 -0.7071068 0.4999999
vn -0.5 -0.7071068 0.4999999
vn 0.5 0.7071068 -0.4999999
vn 0.5 0.7071068 -0.4999999
vn 0.5 0.7071068 -0.4999999
vn 0.5 0.7071068 -0.4999999
vn 0.5 0.7071068 -0.4999999
vn 0.5 0.7071068 -0.4999999
vn 0.5 0.7071068 -0.4999999
vn 0.5 0.7071068 -0.4999999
vn 0.5 0.7071068 -0.4999999
vn 0.5 0.7071068 -0.4999999
vn 0.5 0.7071068 -0.4999999
vn 0.5 0.7071068 -0.4999999
vn 0.5 0.7071068 -0.4999999
vn 0.5 0.7071068 -0.4999999
vn 0.5 0.7071068 -0.4999999
vn 0.5 0.7071068 -0.4999999
vn 0.5 0.7071068 -0.4999999
vn 0.5 0.7071068 -0.4999999
vn 0.5 0.7071068 -0.4999999
vn 0.5 0.7071068 -0.4999999
vn 0.5 0.7071068 -0.4999999
vt 0.1669024 0.333569
vt 0.3332155 0.333569
vt 0.3332155 0.6661953
vt 0.1667845 0.666431
vt 0.1669024 0.333569
vt 0.3332155 0.333569
vt 0.3332155 0.6661953
vt 0.1667845 0.666431
vt 0.3331495 0.3335424
vt 0.2069506 0.6662484
vt 0.1667965 0.3335424
vt 0.3330976 0.6663367
vt 0.2618812 0.6663367
vt 0.1669301 0.6663534
vt 0.2802461 0.6663534
vt 0.3331389 0.4643274
vt 0.1667639 0.6663542
vt 0.1669024 0.6663367
vt 0.2381188 0.6663367
vt 0.3331735 0.333766
vt 0.3331735 0.4510745
vt 0.1668611 0.4643274
vt 0.3332361 0.6663542
vt 0.2069506 0.3337516
vt 0.3330976 0.3336633
vt 0.2618812 0.3336633
vt 0.1668266 0.333766
vt 0.1668266 0.4510745
vt 0.2802461 0.3336466
vt 0.1669301 0.3336466
vt 0.2381188 0.3336633
vt 0.1669024 0.3336633
vt 0.1669024 0.333569
vt 0.3332155 0.333569
vt 0.3332155 0.6661953
vt 0.1667845 0.666431
vt 0.3332155 0.6661953
vt 0.3332155 0.333569
vt 0.1669024 0.333569
vt 0.1667845 0.666431
vt 0.3332155 0.6661953
vt 0.3332155 0.333569
vt 0.1669024 0.333569
vt 0.1667845 0.666431
vt 0.3332155 0.6661953
vt 0.3332155 0.333569
vt 0.1669024 0.333569
vt 0.1667845 0.666431
vt 0.3332155 0.6661953
vt 0.3332155 0.333569
vt 0.1669024 0.333569
vt 0.1667845 0.666431
vt 0.3332155 0.6661953
vt 0.3332155 0.333569
vt 0.1669024 0.333569
vt 0.1667845 0.666431
vt 0.3332155 0.6661953
vt 0.3332155 0.333569
vt 0.1669024 0.333569
vt 0.1667845 0.666431
vt 0.1667885 0.3335608
vt 0.333114 0.3335608
vt 0.1786689 0.6662118
vt 0.1669113 0.6664122
vt 0.3204052 0.6664122
vt 0.3331059 0.3573378
vt 0.1667804 0.6662281
vt 0.1668941 0.3573378
vt 0.3332196 0.6662281
vt 0.1786689 0.3337882
vt 0.3332061 0.3338227
vt 0.3332061 0.6408103
vt 0.1667939 0.3338227
vt 0.1667939 0.6408103
vt 0.3204052 0.3335878
vt 0.1669113 0.3335878
vt 0.6669024 0.333569
vt 0.8332155 0.333569
vt 0.8332155 0.6661953
vt 0.6667845 0.666431
vt 0.1669024 0.333569
vt 0.3332155 0.333569
vt 0.3332155 0.6661953
vt 0.1667845 0.666431
vt 0.1669024 0.333569
vt 0.3332155 0.333569
vt 0.3332155 0.6661953
vt 0.1667845 0.666431
vt 0.1668445 0.3335393
vt 0.3332023 0.3335393
vt 0.287832 0.6662548
vt 0.1668862 0.3811092
vt 0.3332236 0.6662591
vt 0.3330976 0.666431
vt 0.1667845 0.666431
vt 0.1668053 0.3338418
vt 0.1668053 0.6109262
vt 0.1668445 0.6664608
vt 0.287832 0.3337452
vt 0.3330976 0.333569
vt 0.1667845 0.333569
vt 0.1669024 0.333569
vt 0.3332155 0.333569
vt 0.3332155 0.6661953
vt 0.1667845 0.666431
vt 0.1669024 0.333569
vt 0.3332155 0.333569
vt 0.3332155 0.6661953
vt 0.1667845 0.666431
vt 0.3332155 0.6661953
vt 0.3332155 0.333569
vt 0.1669024 0.333569
vt 0.1667845 0.666431
vt 0.3332155 0.6661953
vt 0.3332155 0.333569
vt 0.1669024 0.333569
vt 0.1667845 0.666431
vt 0.287832 0.6662548
vt 0.3332023 0.3335393
vt 0.1668445 0.3335393
vt 0.3332236 0.6662591
vt 0.1668862 0.3811092
vt 0.1667845 0.666431
vt 0.3330976 0.666431
vt 0.1668053 0.6109262
vt 0.1668053 0.3338418
vt 0.287832 0.3337452
vt 0.1668445 0.6664608
vt 0.1667845 0.333569
vt 0.3330976 0.333569
usemtl EGA_Building_16_Cup_texture0
f 3/3/3 2/2/2 1/1/1
f 4/4/4 3/3/3 1/1/1
f 7/7/7 6/6/6 5/5/5
f 8/8/8 7/7/7 5/5/5
f 11/11/11 10/10/10 9/9/9
f 13/13/13 12/12/12 11/11/11
f 15/15/15 9/9/9 14/14/14
f 17/17/17 16/16/16 11/11/11
f 19/19/19 9/9/9 18/18/18
f 21/21/21 20/20/20 17/17/17
f 23/23/23 9/9/9 22/22/22
f 24/24/24 17/17/17 23/23/23
f 26/26/26 17/17/17 25/25/25
f 28/28/28 23/23/23 27/27/27
f 30/30/30 23/23/23 29/29/29
f 32/32/32 23/23/23 31/31/31
f 35/35/35 34/34/34 33/33/33
f 36/36/36 35/35/35 33/33/33
f 39/39/39 38/38/38 37/37/37
f 39/39/39 37/37/37 40/40/40
f 43/43/43 42/42/42 41/41/41
f 43/43/43 41/41/41 44/44/44
f 47/47/47 46/46/46 45/45/45
f 47/47/47 45/45/45 48/48/48
f 51/51/51 50/50/50 49/49/49
f 51/51/51 49/49/49 52/52/52
f 55/55/55 54/54/54 53/53/53
f 55/55/55 53/53/53 56/56/56
f 59/59/59 58/58/58 57/57/57
f 59/59/59 57/57/57 60/60/60
f 63/63/63 62/62/62 61/61/61
f 65/65/65 62/62/62 64/64/64
f 67/67/67 66/66/66 61/61/61
f 69/69/69 62/62/62 68/68/68
f 67/67/67 69/69/69 70/70/70
f 72/72/72 71/71/71 67/67/67
f 74/74/74 69/69/69 73/73/73
f 76/76/76 69/69/69 75/75/75
f 79/79/79 78/78/78 77/77/77
f 80/80/80 79/79/79 77/77/77
f 83/83/83 82/82/82 81/81/81
f 84/84/84 83/83/83 81/81/81
f 87/87/87 86/86/86 85/85/85
f 88/88/88 87/87/87 85/85/85
f 91/91/91 90/90/90 89/89/89
f 93/93/93 90/90/90 92/92/92
f 95/95/95 94/94/94 89/89/89
f 97/97/97 93/93/93 96/96/96
f 99/99/99 98/98/98 93/93/93
f 101/101/101 98/98/98 100/100/100
f 104/104/104 103/103/103 102/102/102
f 105/105/105 104/104/104 102/102/102
f 108/108/108 107/107/107 106/106/106
f 109/109/109 108/108/108 106/106/106
f 112/112/112 111/111/111 110/110/110
f 112/112/112 110/110/110 113/113/113
f 116/116/116 115/115/115 114/114/114
f 116/116/116 114/114/114 117/117/117
f 120/120/120 119/119/119 118/118/118
f 122/122/122 119/119/119 121/121/121
f 120/120/120 124/124/124 123/123/123
f 126/126/126 121/121/121 125/125/125
f 121/121/121 128/128/128 127/127/127
f 130/130/130 128/128/128 129/129/129
