mtllib EGA_Fence_05.mtl
g default
v -0.15 -0.05 0.25
v -0.15 0.85 0.15
v -0.15 1.45 0.25
v -0.15 0.85 0.15
v -0.15 1.15 0.15
v -0.15 0.85 0.15
v -0.15 0.55 0.15
v -0.15 1.15 0.15
v -0.15 1.45 -0.15
v -0.15 0.55 0.15
v -0.15 0.25 0.15
v -0.15 1.15 0.15
v -0.15 1.15 -0.05
v -0.15 0.25 0.15
v -0.15 -0.05 -0.15
v -0.15 0.85 -0.05
v -0.15 0.85 -0.05
v -0.15 1.15 -0.05
v -0.15 0.25 0.15
v -0.15 0.25 -0.05
v -0.15 0.55 -0.05
v -0.15 0.85 -0.05
v -0.15 0.25 -0.05
v -0.15 0.55 -0.05
v -0.15 0.85 0.15
v -0.15 0.55 0.15
v -0.15 0.55 -0.05
v -0.15 0.85 -0.05
v -0.25 1.55 0.35
v -0.25 1.45 0.35
v -0.25 1.45 -0.25
v -0.25 1.55 -0.25
v -3.95 1.45 0.25
v -3.95 -0.05 0.25
v -3.95 -0.05 -0.15
v -3.95 1.45 -0.15
v 3.65 -0.05 0.25
v 3.65 0.85 0.15
v 3.65 1.45 0.25
v 3.65 0.85 0.15
v 3.65 1.15 0.15
v 3.65 0.85 0.15
v 3.65 0.55 0.15
v 3.65 1.15 0.15
v 3.65 1.45 -0.15
v 3.65 0.55 0.15
v 3.65 0.25 0.15
v 3.65 1.15 0.15
v 3.65 1.15 -0.05
v 3.65 0.25 0.15
v 3.65 -0.05 -0.15
v 3.65 0.85 -0.05
v 3.65 0.85 -0.05
v 3.65 1.15 -0.05
v 3.65 0.25 0.15
v 3.65 0.25 -0.05
v 3.65 0.55 -0.05
v 3.65 0.85 -0.05
v 3.65 0.25 -0.05
v 3.65 0.55 -0.05
v 3.65 0.85 0.15
v 3.65 0.55 0.15
v 3.65 0.55 -0.05
v 3.65 0.85 -0.05
v -4.05 1.55 0.35
v -4.05 1.45 0.35
v -4.05 1.45 -0.25
v -4.05 1.55 -0.25
v 3.55 1.55 0.35
v 3.55 1.45 0.35
v 3.55 1.45 -0.25
v 3.55 1.55 -0.25
v -3.45 1.45 -0.25
v -3.45 1.45 0.35
v -3.45 1.55 0.35
v -3.45 1.55 -0.25
v 4.15 1.45 -0.25
v 4.15 1.45 0.35
v 4.15 1.55 0.35
v 4.15 1.55 -0.25
v -3.55 1.45 0.25
v -3.55 0.85 0.15
v -3.55 -0.05 0.25
v -3.55 1.15 0.15
v -3.55 0.85 0.15
v -3.55 0.55 0.15
v -3.55 0.85 0.15
v -3.55 1.45 -0.15
v -3.55 1.15 0.15
v -3.55 0.25 0.15
v -3.55 0.55 0.15
v -3.55 1.15 -0.05
v -3.55 1.15 0.15
v -3.55 -0.05 -0.15
v -3.55 0.25 0.15
v -3.55 0.85 -0.05
v -3.55 1.15 -0.05
v -3.55 0.85 -0.05
v -3.55 0.25 -0.05
v -3.55 0.25 0.15
v -3.55 0.85 -0.05
v -3.55 0.55 -0.05
v -3.55 0.55 -0.05
v -3.55 0.25 -0.05
v -3.55 0.55 -0.05
v -3.55 0.55 0.15
v -3.55 0.85 0.15
v -3.55 0.85 -0.05
v 4.05 -0.05 -0.15
v 4.05 -0.05 0.25
v 4.05 1.45 0.25
v 4.05 1.45 -0.15
v 0.35 1.45 -0.25
v 0.35 1.45 0.35
v 0.35 1.55 0.35
v 0.35 1.55 -0.25
v 0.25 1.45 0.25
v 0.25 0.85 0.15
v 0.25 -0.05 0.25
v 0.25 1.15 0.15
v 0.25 0.85 0.15
v 0.25 0.55 0.15
v 0.25 0.85 0.15
v 0.25 1.45 -0.15
v 0.25 1.15 0.15
v 0.25 0.25 0.15
v 0.25 0.55 0.15
v 0.25 1.15 -0.05
v 0.25 1.15 0.15
v 0.25 -0.05 -0.15
v 0.25 0.25 0.15
v 0.25 0.85 -0.05
v 0.25 1.15 -0.05
v 0.25 0.85 -0.05
v 0.25 0.25 -0.05
v 0.25 0.25 0.15
v 0.25 0.85 -0.05
v 0.25 0.55 -0.05
v 0.25 0.55 -0.05
v 0.25 0.25 -0.05
v 0.25 0.55 -0.05
v 0.25 0.55 0.15
v 0.25 0.85 0.15
v 0.25 0.85 -0.05
v 3.65 -0.05 -0.15
v 3.65 -0.05 0.25
v 4.05 -0.05 0.25
v 4.05 -0.05 -0.15
v -0.15 -0.05 -0.15
v -0.15 -0.05 0.25
v 0.25 -0.05 0.25
v 0.25 -0.05 -0.15
v -3.95 -0.05 -0.15
v -3.95 -0.05 0.25
v -3.55 -0.05 0.25
v -3.55 -0.05 -0.15
v 4.05 1.45 0.25
v 3.55 1.45 0.35
v 4.15 1.45 0.35
v 3.65 1.45 0.25
v 4.05 1.45 0.25
v 4.15 1.45 -0.25
v 4.05 1.45 0.25
v 3.55 1.45 -0.25
v 3.65 1.45 0.25
v 4.05 1.45 -0.15
v 4.05 1.45 -0.15
v 4.05 1.45 0.25
v 3.65 1.45 -0.15
v 3.65 1.45 0.25
v 4.05 1.45 -0.15
v 3.65 1.45 -0.15
v 0.25 1.45 0.25
v -0.25 1.45 0.35
v 0.35 1.45 0.35
v -0.15 1.45 0.25
v 0.25 1.45 0.25
v 0.35 1.45 -0.25
v 0.25 1.45 0.25
v -0.25 1.45 -0.25
v -0.15 1.45 0.25
v 0.25 1.45 -0.15
v 0.25 1.45 -0.15
v 0.25 1.45 0.25
v -0.15 1.45 -0.15
v -0.15 1.45 0.25
v 0.25 1.45 -0.15
v -0.15 1.45 -0.15
v -3.55 1.45 0.25
v -4.05 1.45 0.35
v -3.45 1.45 0.35
v -3.95 1.45 0.25
v -3.55 1.45 0.25
v -3.45 1.45 -0.25
v -3.55 1.45 0.25
v -4.05 1.45 -0.25
v -3.95 1.45 0.25
v -3.55 1.45 -0.15
v -3.55 1.45 -0.15
v -3.55 1.45 0.25
v -3.95 1.45 -0.15
v -3.95 1.45 0.25
v -3.55 1.45 -0.15
v -3.95 1.45 -0.15
v 0.25 0.85 -0.05
v 0.25 0.85 0.15
v 3.65 0.85 0.15
v 3.65 0.85 -0.05
v -3.55 0.85 -0.05
v -3.55 0.85 0.15
v -0.15 0.85 0.15
v -0.15 0.85 -0.05
v 0.25 0.25 -0.05
v 0.25 0.25 0.15
v 3.65 0.25 0.15
v 3.65 0.25 -0.05
v -3.55 0.25 -0.05
v -3.55 0.25 0.15
v -0.15 0.25 0.15
v -0.15 0.25 -0.05
v 4.15 1.55 0.35
v 3.55 1.55 0.35
v 3.55 1.55 -0.25
v 4.15 1.55 -0.25
v 0.35 1.55 0.35
v -0.25 1.55 0.35
v -0.25 1.55 -0.25
v 0.35 1.55 -0.25
v -3.45 1.55 0.35
v -4.05 1.55 0.35
v -4.05 1.55 -0.25
v -3.45 1.55 -0.25
v 3.65 1.15 0.15
v 0.25 1.15 0.15
v 0.25 1.15 -0.05
v 3.65 1.15 -0.05
v -0.15 1.15 0.15
v -3.55 1.15 0.15
v -3.55 1.15 -0.05
v -0.15 1.15 -0.05
v 3.65 0.55 0.15
v 0.25 0.55 0.15
v 0.25 0.55 -0.05
v 3.65 0.55 -0.05
v -0.15 0.55 0.15
v -3.55 0.55 0.15
v -3.55 0.55 -0.05
v -0.15 0.55 -0.05
v 3.65 0.25 0.15
v 0.25 0.25 0.15
v 0.25 0.55 0.15
v 3.65 0.55 0.15
v 3.65 0.85 0.15
v 0.25 0.85 0.15
v 0.25 1.15 0.15
v 3.65 1.15 0.15
v -0.15 0.85 0.15
v -3.55 0.85 0.15
v -3.55 1.15 0.15
v -0.15 1.15 0.15
v -0.15 0.25 0.15
v -3.55 0.25 0.15
v -3.55 0.55 0.15
v -0.15 0.55 0.15
v 4.05 -0.05 0.25
v 3.65 -0.05 0.25
v 3.65 1.45 0.25
v 4.05 1.45 0.25
v 0.25 -0.05 0.25
v -0.15 -0.05 0.25
v -0.15 1.45 0.25
v 0.25 1.45 0.25
v -3.55 -0.05 0.25
v -3.95 -0.05 0.25
v -3.95 1.45 0.25
v -3.55 1.45 0.25
v 4.15 1.45 0.35
v 3.55 1.45 0.35
v 3.55 1.55 0.35
v 4.15 1.55 0.35
v 0.35 1.45 0.35
v -0.25 1.45 0.35
v -0.25 1.55 0.35
v 0.35 1.55 0.35
v -3.45 1.45 0.35
v -4.05 1.45 0.35
v -4.05 1.55 0.35
v -3.45 1.55 0.35
v 0.25 0.55 -0.05
v 0.25 0.25 -0.05
v 3.65 0.25 -0.05
v 3.65 0.55 -0.05
v 0.25 1.15 -0.05
v 0.25 0.85 -0.05
v 3.65 0.85 -0.05
v 3.65 1.15 -0.05
v -3.55 1.15 -0.05
v -3.55 0.85 -0.05
v -0.15 0.85 -0.05
v -0.15 1.15 -0.05
v -3.55 0.55 -0.05
v -3.55 0.25 -0.05
v -0.15 0.25 -0.05
v -0.15 0.55 -0.05
v 3.55 1.55 -0.25
v 3.55 1.45 -0.25
v 4.15 1.45 -0.25
v 4.15 1.55 -0.25
v -0.25 1.55 -0.25
v -0.25 1.45 -0.25
v 0.35 1.45 -0.25
v 0.35 1.55 -0.25
v -4.05 1.55 -0.25
v -4.05 1.45 -0.25
v -3.45 1.45 -0.25
v -3.45 1.55 -0.25
v 3.65 1.45 -0.15
v 3.65 -0.05 -0.15
v 4.05 -0.05 -0.15
v 4.05 1.45 -0.15
v -0.15 1.45 -0.15
v -0.15 -0.05 -0.15
v 0.25 -0.05 -0.15
v 0.25 1.45 -0.15
v -3.95 1.45 -0.15
v -3.95 -0.05 -0.15
v -3.55 -0.05 -0.15
v -3.55 1.45 -0.15
vn -1 0 0
vn -1 0 0
vn -1 0 0
vn -1 0 0
vn -1 0 0
vn -1 0 0
vn -1 0 0
vn -1 0 0
vn -1 0 0
vn -1 0 0
vn -1 0 0
vn -1 0 0
vn -1 0 0
vn -1 0 0
vn -1 0 0
vn -1 0 0
vn -1 0 0
vn -1 0 0
vn -1 0 0
vn -1 0 0
vn -1 0 0
vn -1 0 0
vn -1 0 0
vn -1 0 0
vn -1 0 0
vn -1 0 0
vn -1 0 0
vn -1 0 0
vn -1 0 0
vn -1 0 0
vn -1 0 0
vn -1 0 0
vn -1 0 0
vn -1 0 0
vn -1 0 0
vn -1 0 0
vn -1 0 0
vn -1 0 0
vn -1 0 0
vn -1 0 0
vn -1 0 0
vn -1 0 0
vn -1 0 0
vn -1 0 0
vn -1 0 0
vn -1 0 0
vn -1 0 0
vn -1 0 0
vn -1 0 0
vn -1 0 0
vn -1 0 0
vn -1 0 0
vn -1 0 0
vn -1 0 0
vn -1 0 0
vn -1 0 0
vn -1 0 0
vn -1 0 0
vn -1 0 0
vn -1 0 0
vn -1 0 0
vn -1 0 0
vn -1 0 0
vn -1 0 0
vn -1 0 0
vn -1 0 0
vn -1 0 0
vn -1 0 0
vn -1 0 0
vn -1 0 0
vn -1 0 0
vn -1 0 0
vn 1 0 0
vn 1 0 0
vn 1 0 0
vn 1 0 0
vn 1 0 0
vn 1 0 0
vn 1 0 0
vn 1 0 0
vn 1 0 0
vn 1 0 0
vn 1 0 0
vn 1 0 0
vn 1 0 0
vn 1 0 0
vn 1 0 0
vn 1 0 0
vn 1 0 0
vn 1 0 0
vn 1 0 0
vn 1 0 0
vn 1 0 0
vn 1 0 0
vn 1 0 0
vn 1 0 0
vn 1 0 0
vn 1 0 0
vn 1 0 0
vn 1 0 0
vn 1 0 0
vn 1 0 0
vn 1 0 0
vn 1 0 0
vn 1 0 0
vn 1 0 0
vn 1 0 0
vn 1 0 0
vn 1 0 0
vn 1 0 0
vn 1 0 0
vn 1 0 0
vn 1 0 0
vn 1 0 0
vn 1 0 0
vn 1 0 0
vn 1 0 0
vn 1 0 0
vn 1 0 0
vn 1 0 0
vn 1 0 0
vn 1 0 0
vn 1 0 0
vn 1 0 0
vn 1 0 0
vn 1 0 0
vn 1 0 0
vn 1 0 0
vn 1 0 0
vn 1 0 0
vn 1 0 0
vn 1 0 0
vn 1 0 0
vn 1 0 0
vn 1 0 0
vn 1 0 0
vn 1 0 0
vn 1 0 0
vn 1 0 0
vn 1 0 0
vn 1 0 0
vn 1 0 0
vn 1 0 0
vn 1 0 0
vn 0 -1 0
vn 0 -1 0
vn 0 -1 0
vn 0 -1 0
vn 0 -1 0
vn 0 -1 0
vn 0 -1 0
vn 0 -1 0
vn 0 -1 0
vn 0 -1 0
vn 0 -1 0
vn 0 -1 0
vn 0 -1 0
vn 0 -1 0
vn 0 -1 0
vn 0 -1 0
vn 0 -1 0
vn 0 -1 0
vn 0 -1 0
vn 0 -1 0
vn 0 -1 0
vn 0 -1 0
vn 0 -1 0
vn 0 -1 0
vn 0 -1 0
vn 0 -1 0
vn 0 -1 0
vn 0 -1 0
vn 0 -1 0
vn 0 -1 0
vn 0 -1 0
vn 0 -1 0
vn 0 -1 0
vn 0 -1 0
vn 0 -1 0
vn 0 -1 0
vn 0 -1 0
vn 0 -1 0
vn 0 -1 0
vn 0 -1 0
vn 0 -1 0
vn 0 -1 0
vn 0 -1 0
vn 0 -1 0
vn 0 -1 0
vn 0 -1 0
vn 0 -1 0
vn 0 -1 0
vn 0 -1 0
vn 0 -1 0
vn 0 -1 0
vn 0 -1 0
vn 0 -1 0
vn 0 -1 0
vn 0 -1 0
vn 0 -1 0
vn 0 -1 0
vn 0 -1 0
vn 0 -1 0
vn 0 -1 0
vn 0 -1 0
vn 0 -1 0
vn 0 -1 0
vn 0 -1 0
vn 0 -1 0
vn 0 -1 0
vn 0 -1 0
vn 0 -1 0
vn 0 -1 0
vn 0 -1 0
vn 0 -1 0
vn 0 -1 0
vn 0 -1 0
vn 0 -1 0
vn 0 -1 0
vn 0 -1 0
vn 0 1 0
vn 0 1 0
vn 0 1 0
vn 0 1 0
vn 0 1 0
vn 0 1 0
vn 0 1 0
vn 0 1 0
vn 0 1 0
vn 0 1 0
vn 0 1 0
vn 0 1 0
vn 0 1 0
vn 0 1 0
vn 0 1 0
vn 0 1 0
vn 0 1 0
vn 0 1 0
vn 0 1 0
vn 0 1 0
vn 0 1 0
vn 0 1 0
vn 0 1 0
vn 0 1 0
vn 0 1 0
vn 0 1 0
vn 0 1 0
vn 0 1 0
vn 0 0 1
vn 0 0 1
vn 0 0 1
vn 0 0 1
vn 0 0 1
vn 0 0 1
vn 0 0 1
vn 0 0 1
vn 0 0 1
vn 0 0 1
vn 0 0 1
vn 0 0 1
vn 0 0 1
vn 0 0 1
vn 0 0 1
vn 0 0 1
vn 0 0 1
vn 0 0 1
vn 0 0 1
vn 0 0 1
vn 0 0 1
vn 0 0 1
vn 0 0 1
vn 0 0 1
vn 0 0 1
vn 0 0 1
vn 0 0 1
vn 0 0 1
vn 0 0 1
vn 0 0 1
vn 0 0 1
vn 0 0 1
vn 0 0 1
vn 0 0 1
vn 0 0 1
vn 0 0 1
vn 0 0 1
vn 0 0 1
vn 0 0 1
vn 0 0 1
vn 0 0 -1
vn 0 0 -1
vn 0 0 -1
vn 0 0 -1
vn 0 0 -1
vn 0 0 -1
vn 0 0 -1
vn 0 0 -1
vn 0 0 -1
vn 0 0 -1
vn 0 0 -1
vn 0 0 -1
vn 0 0 -1
vn 0 0 -1
vn 0 0 -1
vn 0 0 -1
vn 0 0 -1
vn 0 0 -1
vn 0 0 -1
vn 0 0 -1
vn 0 0 -1
vn 0 0 -1
vn 0 0 -1
vn 0 0 -1
vn 0 0 -1
vn 0 0 -1
vn 0 0 -1
vn 0 0 -1
vn 0 0 -1
vn 0 0 -1
vn 0 0 -1
vn 0 0 -1
vn 0 0 -1
vn 0 0 -1
vn 0 0 -1
vn 0 0 -1
vn 0 0 -1
vn 0 0 -1
vn 0 0 -1
vn 0 0 -1
vt 0.6663567 0.3335271
vt 0.4667054 0.6662792
vt 0.3336046 0.3335271
vt 0.6661667 0.6663333
vt 0.5 0.6663333
vt 0.333755 0.6663504
vt 0.4445499 0.6663504
vt 0.6662502 0.4167708
vt 0.3335416 0.6663023
vt 0.3338333 0.6663333
vt 0.5 0.6663333
vt 0.6663504 0.3338604
vt 0.6663504 0.5554501
vt 0.3337498 0.4167708
vt 0.6664584 0.6663023
vt 0.4667054 0.3337208
vt 0.6661667 0.3336667
vt 0.5 0.3336667
vt 0.3336496 0.3338604
vt 0.3336496 0.5554501
vt 0.4445499 0.3336496
vt 0.333755 0.3336496
vt 0.5 0.3336667
vt 0.3338333 0.3336667
vt 0.3338047 0.333569
vt 0.666431 0.333569
vt 0.666431 0.6661953
vt 0.333569 0.666431
vt 0.3338047 0.333569
vt 0.666431 0.333569
vt 0.666431 0.6661953
vt 0.333569 0.666431
vt 0.3338047 0.333569
vt 0.666431 0.333569
vt 0.666431 0.6661953
vt 0.333569 0.666431
vt 0.6663567 0.3335271
vt 0.4667054 0.6662792
vt 0.3336046 0.3335271
vt 0.6661667 0.6663333
vt 0.5 0.6663333
vt 0.333755 0.6663504
vt 0.4445499 0.6663504
vt 0.6662502 0.4167708
vt 0.3335416 0.6663023
vt 0.3338333 0.6663333
vt 0.5 0.6663333
vt 0.6663504 0.3338604
vt 0.6663504 0.5554501
vt 0.3337498 0.4167708
vt 0.6664584 0.6663023
vt 0.4667054 0.3337208
vt 0.6661667 0.3336667
vt 0.5 0.3336667
vt 0.3336496 0.3338604
vt 0.3336496 0.5554501
vt 0.4445499 0.3336496
vt 0.333755 0.3336496
vt 0.5 0.3336667
vt 0.3338333 0.3336667
vt 0.3338047 0.333569
vt 0.666431 0.333569
vt 0.666431 0.6661953
vt 0.333569 0.666431
vt 0.3338047 0.333569
vt 0.666431 0.333569
vt 0.666431 0.6661953
vt 0.333569 0.666431
vt 0.3338047 0.333569
vt 0.666431 0.333569
vt 0.666431 0.6661953
vt 0.333569 0.666431
vt 0.666431 0.6661953
vt 0.666431 0.333569
vt 0.3338047 0.333569
vt 0.333569 0.666431
vt 0.666431 0.6661953
vt 0.666431 0.333569
vt 0.3338047 0.333569
vt 0.333569 0.666431
vt 0.3336046 0.3335271
vt 0.4667054 0.6662792
vt 0.6663567 0.3335271
vt 0.5 0.6663333
vt 0.6661667 0.6663333
vt 0.4445499 0.6663504
vt 0.333755 0.6663504
vt 0.3335416 0.6663023
vt 0.6662502 0.4167708
vt 0.5 0.6663333
vt 0.3338333 0.6663333
vt 0.6663504 0.5554501
vt 0.6663504 0.3338604
vt 0.6664584 0.6663023
vt 0.3337498 0.4167708
vt 0.4667054 0.3337208
vt 0.5 0.3336667
vt 0.6661667 0.3336667
vt 0.3336496 0.5554501
vt 0.3336496 0.3338604
vt 0.333755 0.3336496
vt 0.4445499 0.3336496
vt 0.3338333 0.3336667
vt 0.5 0.3336667
vt 0.666431 0.6661953
vt 0.666431 0.333569
vt 0.3338047 0.333569
vt 0.333569 0.666431
vt 0.666431 0.6661953
vt 0.666431 0.333569
vt 0.3338047 0.333569
vt 0.333569 0.666431
vt 0.666431 0.6661953
vt 0.666431 0.333569
vt 0.3338047 0.333569
vt 0.333569 0.666431
vt 0.3336046 0.3335271
vt 0.4667054 0.6662792
vt 0.6663567 0.3335271
vt 0.5 0.6663333
vt 0.6661667 0.6663333
vt 0.4445499 0.6663504
vt 0.333755 0.6663504
vt 0.3335416 0.6663023
vt 0.6662502 0.4167708
vt 0.5 0.6663333
vt 0.3338333 0.6663333
vt 0.6663504 0.5554501
vt 0.6663504 0.3338604
vt 0.6664584 0.6663023
vt 0.3337498 0.4167708
vt 0.4667054 0.3337208
vt 0.5 0.3336667
vt 0.6661667 0.3336667
vt 0.3336496 0.5554501
vt 0.3336496 0.3338604
vt 0.333755 0.3336496
vt 0.4445499 0.3336496
vt 0.3338333 0.3336667
vt 0.5 0.3336667
vt 0.666431 0.6661953
vt 0.666431 0.333569
vt 0.3338047 0.333569
vt 0.333569 0.666431
vt 0.666431 0.6661953
vt 0.666431 0.333569
vt 0.3338047 0.333569
vt 0.333569 0.666431
vt 0.666431 0.6661953
vt 0.666431 0.333569
vt 0.3338047 0.333569
vt 0.333569 0.666431
vt 0.666431 0.6661953
vt 0.666431 0.333569
vt 0.3338047 0.333569
vt 0.333569 0.666431
vt 0.3890335 0.6662328
vt 0.6662689 0.3335503
vt 0.3335864 0.3335503
vt 0.5998285 0.6663808
vt 0.3338478 0.6663808
vt 0.3335503 0.6662689
vt 0.6662328 0.3890335
vt 0.6664497 0.6662689
vt 0.3337672 0.3890335
vt 0.3890335 0.3337672
vt 0.6663808 0.5998285
vt 0.6663808 0.3338478
vt 0.3336192 0.5998285
vt 0.3336192 0.3338478
vt 0.3338478 0.3336192
vt 0.5998285 0.3336192
vt 0.3890335 0.6662328
vt 0.6662689 0.3335503
vt 0.3335864 0.3335503
vt 0.5998285 0.6663808
vt 0.3338478 0.6663808
vt 0.3335503 0.6662689
vt 0.6662328 0.3890335
vt 0.6664497 0.6662689
vt 0.3337672 0.3890335
vt 0.3890335 0.3337672
vt 0.6663808 0.5998285
vt 0.6663808 0.3338478
vt 0.3336192 0.5998285
vt 0.3336192 0.3338478
vt 0.3338478 0.3336192
vt 0.5998285 0.3336192
vt 0.3890335 0.6662328
vt 0.6662689 0.3335503
vt 0.3335864 0.3335503
vt 0.5998285 0.6663808
vt 0.3338478 0.6663808
vt 0.3335503 0.6662689
vt 0.6662328 0.3890335
vt 0.6664497 0.6662689
vt 0.3337672 0.3890335
vt 0.3890335 0.3337672
vt 0.6663808 0.5998285
vt 0.6663808 0.3338478
vt 0.3336192 0.5998285
vt 0.3336192 0.3338478
vt 0.3338478 0.3336192
vt 0.5998285 0.3336192
vt 0.666431 0.6661953
vt 0.666431 0.333569
vt 0.3338047 0.333569
vt 0.333569 0.666431
vt 0.666431 0.6661953
vt 0.666431 0.333569
vt 0.3338047 0.333569
vt 0.333569 0.666431
vt 0.666431 0.6661953
vt 0.666431 0.333569
vt 0.3338047 0.333569
vt 0.333569 0.666431
vt 0.666431 0.6661953
vt 0.666431 0.333569
vt 0.3338047 0.333569
vt 0.333569 0.666431
vt 0.3338047 0.333569
vt 0.666431 0.333569
vt 0.666431 0.6661953
vt 0.333569 0.666431
vt 0.3338047 0.333569
vt 0.666431 0.333569
vt 0.666431 0.6661953
vt 0.333569 0.666431
vt 0.3338047 0.333569
vt 0.666431 0.333569
vt 0.666431 0.6661953
vt 0.333569 0.666431
vt 0.3338047 0.333569
vt 0.666431 0.333569
vt 0.666431 0.6661953
vt 0.333569 0.666431
vt 0.3338047 0.333569
vt 0.666431 0.333569
vt 0.666431 0.6661953
vt 0.333569 0.666431
vt 0.3338047 0.333569
vt 0.666431 0.333569
vt 0.666431 0.6661953
vt 0.333569 0.666431
vt 0.3338047 0.333569
vt 0.666431 0.333569
vt 0.666431 0.6661953
vt 0.333569 0.666431
vt 0.3338047 0.333569
vt 0.666431 0.333569
vt 0.666431 0.6661953
vt 0.333569 0.666431
vt 0.3338047 0.333569
vt 0.666431 0.333569
vt 0.666431 0.6661953
vt 0.333569 0.666431
vt 0.3338047 0.333569
vt 0.666431 0.333569
vt 0.666431 0.6661953
vt 0.333569 0.666431
vt 0.3338047 0.333569
vt 0.666431 0.333569
vt 0.666431 0.6661953
vt 0.333569 0.666431
vt 0.3338047 0.333569
vt 0.666431 0.333569
vt 0.666431 0.6661953
vt 0.333569 0.666431
vt 0.3338047 0.333569
vt 0.666431 0.333569
vt 0.666431 0.6661953
vt 0.333569 0.666431
vt 0.3338047 0.333569
vt 0.666431 0.333569
vt 0.666431 0.6661953
vt 0.333569 0.666431
vt 0.3338047 0.333569
vt 0.666431 0.333569
vt 0.666431 0.6661953
vt 0.333569 0.666431
vt 0.3338047 0.333569
vt 0.666431 0.333569
vt 0.666431 0.6661953
vt 0.333569 0.666431
vt 0.3338047 0.333569
vt 0.666431 0.333569
vt 0.666431 0.6661953
vt 0.333569 0.666431
vt 0.666431 0.6661953
vt 0.666431 0.333569
vt 0.3338047 0.333569
vt 0.333569 0.666431
vt 0.666431 0.6661953
vt 0.666431 0.333569
vt 0.3338047 0.333569
vt 0.333569 0.666431
vt 0.666431 0.6661953
vt 0.666431 0.333569
vt 0.3338047 0.333569
vt 0.333569 0.666431
vt 0.666431 0.6661953
vt 0.666431 0.333569
vt 0.3338047 0.333569
vt 0.333569 0.666431
vt 0.666431 0.6661953
vt 0.666431 0.333569
vt 0.3338047 0.333569
vt 0.333569 0.666431
vt 0.666431 0.6661953
vt 0.666431 0.333569
vt 0.3338047 0.333569
vt 0.333569 0.666431
vt 0.666431 0.6661953
vt 0.666431 0.333569
vt 0.3338047 0.333569
vt 0.333569 0.666431
vt 0.666431 0.6661953
vt 0.666431 0.333569
vt 0.3338047 0.333569
vt 0.333569 0.666431
vt 0.666431 0.6661953
vt 0.666431 0.333569
vt 0.3338047 0.333569
vt 0.333569 0.666431
vt 0.666431 0.6661953
vt 0.666431 0.333569
vt 0.3338047 0.333569
vt 0.333569 0.666431
usemtl EGA_Fence_05_texture0
f 3/3/3 2/2/2 1/1/1
f 5/5/5 4/4/4 3/3/3
f 7/7/7 1/1/1 6/6/6
f 9/9/9 8/8/8 3/3/3
f 11/11/11 1/1/1 10/10/10
f 13/13/13 12/12/12 9/9/9
f 15/15/15 1/1/1 14/14/14
f 16/16/16 9/9/9 15/15/15
f 18/18/18 9/9/9 17/17/17
f 20/20/20 15/15/15 19/19/19
f 22/22/22 15/15/15 21/21/21
f 24/24/24 15/15/15 23/23/23
f 27/27/27 26/26/26 25/25/25
f 28/28/28 27/27/27 25/25/25
f 31/31/31 30/30/30 29/29/29
f 32/32/32 31/31/31 29/29/29
f 35/35/35 34/34/34 33/33/33
f 36/36/36 35/35/35 33/33/33
f 39/39/39 38/38/38 37/37/37
f 41/41/41 40/40/40 39/39/39
f 43/43/43 37/37/37 42/42/42
f 45/45/45 44/44/44 39/39/39
f 47/47/47 37/37/37 46/46/46
f 49/49/49 48/48/48 45/45/45
f 51/51/51 37/37/37 50/50/50
f 52/52/52 45/45/45 51/51/51
f 54/54/54 45/45/45 53/53/53
f 56/56/56 51/51/51 55/55/55
f 58/58/58 51/51/51 57/57/57
f 60/60/60 51/51/51 59/59/59
f 63/63/63 62/62/62 61/61/61
f 64/64/64 63/63/63 61/61/61
f 67/67/67 66/66/66 65/65/65
f 68/68/68 67/67/67 65/65/65
f 71/71/71 70/70/70 69/69/69
f 72/72/72 71/71/71 69/69/69
f 75/75/75 74/74/74 73/73/73
f 75/75/75 73/73/73 76/76/76
f 79/79/79 78/78/78 77/77/77
f 79/79/79 77/77/77 80/80/80
f 83/83/83 82/82/82 81/81/81
f 81/81/81 85/85/85 84/84/84
f 87/87/87 83/83/83 86/86/86
f 81/81/81 89/89/89 88/88/88
f 91/91/91 83/83/83 90/90/90
f 88/88/88 93/93/93 92/92/92
f 95/95/95 83/83/83 94/94/94
f 94/94/94 88/88/88 96/96/96
f 98/98/98 88/88/88 97/97/97
f 100/100/100 94/94/94 99/99/99
f 102/102/102 94/94/94 101/101/101
f 104/104/104 94/94/94 103/103/103
f 107/107/107 106/106/106 105/105/105
f 107/107/107 105/105/105 108/108/108
f 111/111/111 110/110/110 109/109/109
f 111/111/111 109/109/109 112/112/112
f 115/115/115 114/114/114 113/113/113
f 115/115/115 113/113/113 116/116/116
f 119/119/119 118/118/118 117/117/117
f 117/117/117 121/121/121 120/120/120
f 123/123/123 119/119/119 122/122/122
f 117/117/117 125/125/125 124/124/124
f 127/127/127 119/119/119 126/126/126
f 124/124/124 129/129/129 128/128/128
f 131/131/131 119/119/119 130/130/130
f 130/130/130 124/124/124 132/132/132
f 134/134/134 124/124/124 133/133/133
f 136/136/136 130/130/130 135/135/135
f 138/138/138 130/130/130 137/137/137
f 140/140/140 130/130/130 139/139/139
f 143/143/143 142/142/142 141/141/141
f 143/143/143 141/141/141 144/144/144
f 147/147/147 146/146/146 145/145/145
f 147/147/147 145/145/145 148/148/148
f 151/151/151 150/150/150 149/149/149
f 151/151/151 149/149/149 152/152/152
f 155/155/155 154/154/154 153/153/153
f 155/155/155 153/153/153 156/156/156
f 159/159/159 158/158/158 157/157/157
f 161/161/161 158/158/158 160/160/160
f 159/159/159 163/163/163 162/162/162
f 165/165/165 158/158/158 164/164/164
f 166/166/166 164/164/164 162/162/162
f 162/162/162 168/168/168 167/167/167
f 170/170/170 164/164/164 169/169/169
f 172/172/172 164/164/164 171/171/171
f 175/175/175 174/174/174 173/173/173
f 177/177/177 174/174/174 176/176/176
f 175/175/175 179/179/179 178/178/178
f 181/181/181 174/174/174 180/180/180
f 182/182/182 180/180/180 178/178/178
f 178/178/178 184/184/184 183/183/183
f 186/186/186 180/180/180 185/185/185
f 188/188/188 180/180/180 187/187/187
f 191/191/191 190/190/190 189/189/189
f 193/193/193 190/190/190 192/192/192
f 191/191/191 195/195/195 194/194/194
f 197/197/197 190/190/190 196/196/196
f 198/198/198 196/196/196 194/194/194
f 194/194/194 200/200/200 199/199/199
f 202/202/202 196/196/196 201/201/201
f 204/204/204 196/196/196 203/203/203
f 207/207/207 206/206/206 205/205/205
f 207/207/207 205/205/205 208/208/208
f 211/211/211 210/210/210 209/209/209
f 211/211/211 209/209/209 212/212/212
f 215/215/215 214/214/214 213/213/213
f 215/215/215 213/213/213 216/216/216
f 219/219/219 218/218/218 217/217/217
f 219/219/219 217/217/217 220/220/220
f 223/223/223 222/222/222 221/221/221
f 224/224/224 223/223/223 221/221/221
f 227/227/227 226/226/226 225/225/225
f 228/228/228 227/227/227 225/225/225
f 231/231/231 230/230/230 229/229/229
f 232/232/232 231/231/231 229/229/229
f 235/235/235 234/234/234 233/233/233
f 236/236/236 235/235/235 233/233/233
f 239/239/239 238/238/238 237/237/237
f 240/240/240 239/239/239 237/237/237
f 243/243/243 242/242/242 241/241/241
f 244/244/244 243/243/243 241/241/241
f 247/247/247 246/246/246 245/245/245
f 248/248/248 247/247/247 245/245/245
f 251/251/251 250/250/250 249/249/249
f 252/252/252 251/251/251 249/249/249
f 255/255/255 254/254/254 253/253/253
f 256/256/256 255/255/255 253/253/253
f 259/259/259 258/258/258 257/257/257
f 260/260/260 259/259/259 257/257/257
f 263/263/263 262/262/262 261/261/261
f 264/264/264 263/263/263 261/261/261
f 267/267/267 266/266/266 265/265/265
f 268/268/268 267/267/267 265/265/265
f 271/271/271 270/270/270 269/269/269
f 272/272/272 271/271/271 269/269/269
f 275/275/275 274/274/274 273/273/273
f 276/276/276 275/275/275 273/273/273
f 279/279/279 278/278/278 277/277/277
f 280/280/280 279/279/279 277/277/277
f 283/283/283 282/282/282 281/281/281
f 284/284/284 283/283/283 281/281/281
f 287/287/287 286/286/286 285/285/285
f 288/288/288 287/287/287 285/285/285
f 291/291/291 290/290/290 289/289/289
f 291/291/291 289/289/289 292/292/292
f 295/295/295 294/294/294 293/293/293
f 295/295/295 293/293/293 296/296/296
f 299/299/299 298/298/298 297/297/297
f 299/299/299 297/297/297 300/300/300
f 303/303/303 302/302/302 301/301/301
f 303/303/303 301/301/301 304/304/304
f 307/307/307 306/306/306 305/305/305
f 307/307/307 305/305/305 308/308/308
f 311/311/311 310/310/310 309/309/309
f 311/311/311 309/309/309 312/312/312
f 315/315/315 314/314/314 313/313/313
f 315/315/315 313/313/313 316/316/316
f 319/319/319 318/318/318 317/317/317
f 319/319/319 317/317/317 320/320/320
f 323/323/323 322/322/322 321/321/321
f 323/323/323 321/321/321 324/324/324
f 327/327/327 326/326/326 325/325/325
f 327/327/327 325/325/325 328/328/328
