mtllib EGA_Donut_02.mtl
g default
v 0.06500001 0.095 0.045
v 0.06500001 -0.005 0.045
v 0.06500001 -0.005 -0.035
v 0.06500001 0.095 -0.035
v 0.045 0.095 0.06500001
v 0.045 -0.005 0.06500001
v 0.045 -0.004999998 0.0649915
v 0.045 0.095 0.0649915
v 0.045 0.095 -0.05499149
v 0.045 -0.004999998 -0.05499149
v 0.045 -0.005 -0.055
v 0.045 0.095 -0.055
v -0.135 0.095 0.165
v -0.135 -0.005 0.165
v -0.1550072 -0.005000001 0.145
v -0.1550072 0.095 0.145
v -0.1550072 0.095 -0.135
v -0.1550072 -0.005000001 -0.135
v -0.135 -0.005 -0.155
v -0.135 0.095 -0.155
v -0.155 0.095 0.145
v -0.155 -0.005 0.145
v -0.155 -0.005 -0.135
v -0.155 0.095 -0.135
v 0.165 -0.005 -0.135
v 0.165 -0.005 0.145
v 0.165 0.095 0.145
v 0.165 0.095 -0.135
v 0.1649957 -0.005000001 0.145
v 0.145 -0.005 0.165
v 0.145 0.095 0.165
v 0.1649957 0.095 0.145
v 0.145 -0.005 -0.155
v 0.1649957 -0.005000001 -0.135
v 0.1649957 0.095 -0.135
v 0.145 0.095 -0.155
v -0.035 -0.004999998 0.0649915
v -0.035 -0.005 0.06500001
v -0.035 0.095 0.06500001
v -0.035 0.095 0.0649915
v -0.035 -0.005 -0.055
v -0.035 -0.004999998 -0.05499149
v -0.035 0.095 -0.05499149
v -0.035 0.095 -0.055
v -0.055 -0.005 -0.035
v -0.055 -0.005 0.045
v -0.055 0.095 0.045
v -0.055 0.095 -0.035
v 0.165 -0.005 0.145
v 0.06500001 -0.005 0.045
v 0.1649957 -0.005000001 0.145
v 0.06500001 -0.005 -0.035
v 0.06500001 -0.005 0.045
v 0.165 -0.005 -0.135
v 0.06500001 -0.005 -0.035
v 0.1649957 -0.005000001 -0.135
v 0.06500001 -0.005 -0.035
v 0.1649957 -0.005000001 0.145
v 0.06500001 -0.005 0.045
v 0.045 -0.005 0.06500001
v 0.045 -0.004999998 0.0649915
v 0.045 -0.005 0.06500001
v 0.06500001 -0.005 0.045
v 0.1649957 -0.005000001 0.145
v 0.045 -0.005 0.06500001
v 0.145 -0.005 0.165
v 0.045 -0.005 0.06500001
v -0.135 -0.005 0.165
v -0.035 -0.005 0.06500001
v 0.045 -0.005 0.06500001
v -0.1550072 -0.005000001 0.145
v -0.035 -0.005 0.06500001
v 0.1649957 -0.005000001 -0.135
v 0.045 -0.005 -0.055
v 0.06500001 -0.005 -0.035
v 0.1649957 -0.005000001 -0.135
v 0.145 -0.005 -0.155
v 0.045 -0.005 -0.055
v 0.045 -0.005 -0.055
v -0.135 -0.005 -0.155
v -0.035 -0.005 -0.055
v 0.045 -0.005 -0.055
v -0.035 -0.005 -0.055
v -0.1550072 -0.005000001 -0.135
v 0.045 -0.005 -0.055
v 0.045 -0.004999998 -0.05499149
v 0.06500001 -0.005 -0.035
v -0.055 -0.005 0.045
v -0.1550072 -0.005000001 0.145
v -0.035 -0.005 0.06500001
v -0.1550072 -0.005000001 0.145
v -0.055 -0.005 0.045
v -0.155 -0.005 0.145
v -0.055 -0.005 0.045
v -0.155 -0.005 -0.135
v -0.055 -0.005 0.045
v -0.055 -0.005 -0.035
v -0.055 -0.005 -0.035
v -0.1550072 -0.005000001 -0.135
v -0.035 -0.004999998 0.0649915
v -0.055 -0.005 0.045
v -0.035 -0.005 0.06500001
v -0.055 -0.005 -0.035
v -0.035 -0.005 -0.055
v -0.1550072 -0.005000001 -0.135
v -0.035 -0.004999998 -0.05499149
v -0.035 -0.005 -0.055
v -0.055 -0.005 -0.035
v 0.1649957 0.095 0.145
v 0.06500001 0.095 0.045
v 0.165 0.095 0.145
v 0.06500001 0.095 0.045
v 0.06500001 0.095 -0.035
v 0.06500001 0.095 -0.035
v 0.165 0.095 -0.135
v 0.06500001 0.095 -0.035
v 0.1649957 0.095 -0.135
v 0.045 0.095 0.06500001
v 0.06500001 0.095 0.045
v 0.1649957 0.095 0.145
v 0.06500001 0.095 0.045
v 0.045 0.095 0.06500001
v 0.045 0.095 0.0649915
v 0.145 0.095 0.165
v 0.045 0.095 0.06500001
v 0.1649957 0.095 0.145
v -0.135 0.095 0.165
v 0.045 0.095 0.06500001
v 0.045 0.095 0.06500001
v -0.035 0.095 0.06500001
v -0.035 0.095 0.06500001
v -0.1550072 0.095 0.145
v 0.06500001 0.095 -0.035
v 0.045 0.095 -0.055
v 0.1649957 0.095 -0.135
v 0.045 0.095 -0.055
v 0.145 0.095 -0.155
v 0.1649957 0.095 -0.135
v -0.135 0.095 -0.155
v 0.045 0.095 -0.055
v 0.045 0.095 -0.055
v -0.035 0.095 -0.055
v -0.1550072 0.095 -0.135
v -0.035 0.095 -0.055
v 0.06500001 0.095 -0.035
v 0.045 0.095 -0.05499149
v 0.045 0.095 -0.055
v -0.035 0.095 0.06500001
v -0.1550072 0.095 0.145
v -0.055 0.095 0.045
v -0.155 0.095 0.145
v -0.055 0.095 0.045
v -0.1550072 0.095 0.145
v -0.155 0.095 -0.135
v -0.055 0.095 0.045
v -0.055 0.095 -0.035
v -0.055 0.095 0.045
v -0.1550072 0.095 -0.135
v -0.055 0.095 -0.035
v -0.035 0.095 0.06500001
v -0.055 0.095 0.045
v -0.035 0.095 0.0649915
v -0.1550072 0.095 -0.135
v -0.035 0.095 -0.055
v -0.055 0.095 -0.035
v -0.055 0.095 -0.035
v -0.035 0.095 -0.055
v -0.035 0.095 -0.05499149
v 0.145 -0.005 0.165
v -0.135 -0.005 0.165
v -0.135 0.095 0.165
v 0.145 0.095 0.165
v 0.045 -0.005 -0.055
v -0.035 -0.005 -0.055
v -0.035 0.095 -0.055
v 0.045 0.095 -0.055
v 0.06500001 -0.005 -0.035
v 0.045 -0.004999998 -0.05499149
v 0.045 0.095 -0.05499149
v 0.06500001 0.095 -0.035
v -0.035 -0.004999998 -0.05499149
v -0.055 -0.005 -0.035
v -0.055 0.095 -0.035
v -0.035 0.095 -0.05499149
v 0.165 -0.005 0.145
v 0.1649957 -0.005000001 0.145
v 0.1649957 0.095 0.145
v 0.165 0.095 0.145
v -0.1550072 -0.005000001 0.145
v -0.155 -0.005 0.145
v -0.155 0.095 0.145
v -0.1550072 0.095 0.145
v -0.135 0.095 -0.155
v -0.135 -0.005 -0.155
v 0.145 -0.005 -0.155
v 0.145 0.095 -0.155
v 0.1649957 0.095 -0.135
v 0.1649957 -0.005000001 -0.135
v 0.165 -0.005 -0.135
v 0.165 0.095 -0.135
v -0.155 0.095 -0.135
v -0.155 -0.005 -0.135
v -0.1550072 -0.005000001 -0.135
v -0.1550072 0.095 -0.135
v 0.045 0.095 0.0649915
v 0.045 -0.004999998 0.0649915
v 0.06500001 -0.005 0.045
v 0.06500001 0.095 0.045
v -0.055 0.095 0.045
v -0.055 -0.005 0.045
v -0.035 -0.004999998 0.0649915
v -0.035 0.095 0.0649915
v -0.035 0.095 0.06500001
v -0.035 -0.005 0.06500001
v 0.045 -0.005 0.06500001
v 0.045 0.095 0.06500001
vn -1 0 0
vn -1 0 0
vn -1 0 0
vn -1 0 0
vn -1 0 0
vn -1 0 0
vn -1 0 0
vn -1 0 0
vn -1 0 0
vn -1 0 0
vn -1 0 0
vn -1 0 0
vn -0.7069803 0 0.7072331
vn -0.7069803 0 0.7072331
vn -0.7069803 0 0.7072331
vn -0.7069803 0 0.7072331
vn -0.7069803 0 -0.7072331
vn -0.7069803 0 -0.7072331
vn -0.7069803 0 -0.7072331
vn -0.7069803 0 -0.7072331
vn -1 0 0
vn -1 0 0
vn -1 0 0
vn -1 0 0
vn 1 0 0
vn 1 0 0
vn 1 0 0
vn 1 0 0
vn 0.7071829 0 0.7070307
vn 0.7071829 0 0.7070307
vn 0.7071829 0 0.7070307
vn 0.7071829 0 0.7070307
vn 0.7071829 0 -0.7070307
vn 0.7071829 0 -0.7070307
vn 0.7071829 0 -0.7070307
vn 0.7071829 0 -0.7070307
vn 1 0 0
vn 1 0 0
vn 1 0 0
vn 1 0 0
vn 1 0 0
vn 1 0 0
vn 1 0 0
vn 1 0 0
vn 1 0 0
vn 1 0 0
vn 1 0 0
vn 1 0 0
vn 3.104371E-09 -1 -3.104371E-09
vn 0.0002596953 -0.9999999 -0.0002596953
vn 0.0002596953 -0.9999999 -0.0002596953
vn 0 -1 0
vn 0 -1 0
vn 3.991321E-09 -1 3.991321E-09
vn 0 -1 0
vn 0.0002589779 -0.9999999 0.0002589779
vn 0.0002589779 -0.9999999 0.0002589779
vn -5.588055E-09 -1 -5.588055E-09
vn -5.588055E-09 -1 -5.588055E-09
vn -5.588055E-09 -1 -5.588055E-09
vn -0.0002188375 -0.9999999 -0.0002188375
vn -0.0002188375 -0.9999999 -0.0002188375
vn -0.0002188375 -0.9999999 -0.0002188375
vn -2.794269E-08 -1 2.794269E-08
vn -2.794269E-08 -1 2.794269E-08
vn -3.492507E-09 -1 3.492507E-09
vn 0 -1 0
vn 2.793918E-09 -1 2.793918E-09
vn 0 -1 0
vn 0 -1 0
vn 2.793469E-08 -1 2.793469E-08
vn 2.793469E-08 -1 2.793469E-08
vn -5.588058E-09 -1 5.588055E-09
vn -5.588058E-09 -1 5.588055E-09
vn -5.588058E-09 -1 5.588055E-09
vn -2.794269E-08 -1 -2.794269E-08
vn -3.492507E-09 -1 -3.492507E-09
vn -2.794269E-08 -1 -2.794269E-08
vn 0 -1 0
vn 2.793918E-09 -1 -2.793918E-09
vn 0 -1 0
vn 0 -1 0
vn 2.79347E-08 -1 -2.79347E-08
vn 2.79347E-08 -1 -2.79347E-08
vn -0.0002188375 -0.9999999 0.0002188375
vn -0.0002188375 -0.9999999 0.0002188375
vn -0.0002188375 -0.9999999 0.0002188375
vn 5.587735E-09 -1 -5.587735E-09
vn 5.587735E-09 -1 -5.587735E-09
vn 5.587735E-09 -1 -5.587735E-09
vn -0.0001565109 1 -0.0001565109
vn -0.0001565109 1 -0.0001565109
vn -3.991484E-09 -1 -3.991485E-09
vn 0 -1 0
vn -3.10447E-09 -1 3.10447E-09
vn 0 -1 0
vn 0 -1 0
vn -0.0001567726 1 0.0001567726
vn -0.0001567726 1 0.0001567726
vn 0.0002188375 -0.9999999 -0.0002188375
vn 0.0002188375 -0.9999999 -0.0002188375
vn 0.0002188375 -0.9999999 -0.0002188375
vn 5.587735E-09 -1 5.587735E-09
vn 5.587735E-09 -1 5.587735E-09
vn 5.587735E-09 -1 5.587735E-09
vn 0.0002188375 -0.9999999 0.0002188375
vn 0.0002188375 -0.9999999 0.0002188375
vn 0.0002188375 -0.9999999 0.0002188375
vn 0 1 0
vn 0 1 0
vn 0 1 0
vn 0 1 0
vn 0 1 0
vn 0 1 0
vn 0 1 0
vn 0 1 0
vn 0 1 0
vn 0 1 0
vn 0 1 0
vn 0 1 0
vn 0 1 0
vn 0 1 0
vn 0 1 0
vn 0 1 0
vn 0 1 0
vn 0 1 0
vn 0 1 0
vn 0 1 0
vn 0 1 0
vn 0 1 0
vn 0 1 0
vn 0 1 0
vn 0 1 0
vn 0 1 0
vn 0 1 0
vn 0 1 0
vn 0 1 0
vn 0 1 0
vn 0 1 0
vn 0 1 0
vn 0 1 0
vn 0 1 0
vn 0 1 0
vn 0 1 0
vn 0 1 0
vn 0 1 0
vn 0 1 0
vn 0 1 0
vn 0 1 0
vn 0 1 0
vn 0 1 0
vn 0 -1 0
vn 0 -1 0
vn 0 1 0
vn 0 1 0
vn 0 1 0
vn 0 1 0
vn 0 -1 0
vn 0 -1 0
vn 0 1 0
vn 0 1 0
vn 0 1 0
vn 0 1 0
vn 0 1 0
vn 0 1 0
vn 0 1 0
vn 0 1 0
vn 0 1 0
vn 0 0 1
vn 0 0 1
vn 0 0 1
vn 0 0 1
vn 0 0 1
vn 0 0 1
vn 0 0 1
vn 0 0 1
vn -0.7069563 0 0.7072573
vn -0.7069563 0 0.7072573
vn -0.7069563 0 0.7072573
vn -0.7069563 0 0.7072573
vn 0.7069563 0 0.7072573
vn 0.7069563 0 0.7072573
vn 0.7069563 0 0.7072573
vn 0.7069563 0 0.7072573
vn 0 0 1
vn 0 0 1
vn 0 0 1
vn 0 0 1
vn 0 0 -1
vn 0 0 -1
vn 0 0 -1
vn 0 0 -1
vn 0 0 -1
vn 0 0 -1
vn 0 0 -1
vn 0 0 -1
vn 0.002770073 0 -0.9999962
vn 0.002770073 0 -0.9999962
vn 0.002770073 0 -0.9999962
vn 0.002770073 0 -0.9999962
vn -0.001669447 0 0.9999986
vn -0.001669447 0 0.9999986
vn -0.001669447 0 0.9999986
vn -0.001669447 0 0.9999986
vn -0.7069563 0 -0.7072573
vn -0.7069563 0 -0.7072573
vn -0.7069563 0 -0.7072573
vn -0.7069563 0 -0.7072573
vn 0.7069563 0 -0.7072573
vn 0.7069563 0 -0.7072573
vn 0.7069563 0 -0.7072573
vn 0.7069563 0 -0.7072573
vn 0 0 -1
vn 0 0 -1
vn 0 0 -1
vn 0 0 -1
vt 0.1251768 0.7500884
vt 0.2499116 0.7500884
vt 0.2499116 0.8748232
vt 0.1250884 0.8749116
vt 0.1251768 0.7500884
vt 0.2499116 0.7500884
vt 0.2499116 0.8748232
vt 0.1250884 0.8749116
vt 0.1251768 0.7500884
vt 0.2499116 0.7500884
vt 0.2499116 0.8748232
vt 0.1250884 0.8749116
vt 0.1251768 0.7500884
vt 0.2499116 0.7500884
vt 0.2499116 0.8748232
vt 0.1250884 0.8749116
vt 0.1251768 0.7500884
vt 0.2499116 0.7500884
vt 0.2499116 0.8748232
vt 0.1250884 0.8749116
vt 0.1251768 0.7500884
vt 0.2499116 0.7500884
vt 0.2499116 0.8748232
vt 0.1250884 0.8749116
vt 0.2499116 0.8748232
vt 0.2499116 0.7500884
vt 0.1251768 0.7500884
vt 0.1250884 0.8749116
vt 0.2499116 0.8748232
vt 0.2499116 0.7500884
vt 0.1251768 0.7500884
vt 0.1250884 0.8749116
vt 0.2499116 0.8748232
vt 0.2499116 0.7500884
vt 0.1251768 0.7500884
vt 0.1250884 0.8749116
vt 0.2499116 0.8748232
vt 0.2499116 0.7500884
vt 0.1251768 0.7500884
vt 0.1250884 0.8749116
vt 0.2499116 0.8748232
vt 0.2499116 0.7500884
vt 0.1251768 0.7500884
vt 0.1250884 0.8749116
vt 0.2499116 0.8748232
vt 0.2499116 0.7500884
vt 0.1251768 0.7500884
vt 0.1250884 0.8749116
vt 0.1251286 0.7501072
vt 0.2498071 0.8747856
vt 0.1500643 0.7501072
vt 0.2498758 0.8748205
vt 0.2498758 0.8194306
vt 0.1250741 0.8748994
vt 0.2498517 0.830336
vt 0.1500643 0.8748928
vt 0.2498071 0.7502144
vt 0.1251677 0.7501677
vt 0.2249441 0.8748882
vt 0.2498882 0.8499441
vt 0.2499116 0.8749116
vt 0.2499116 0.7501768
vt 0.1251768 0.8749116
vt 0.1251072 0.7750643
vt 0.2497856 0.8748071
vt 0.1251072 0.7501286
vt 0.169664 0.8748517
vt 0.2498782 0.7500741
vt 0.1805694 0.8748758
vt 0.1251795 0.8748758
vt 0.2498928 0.7750643
vt 0.1252144 0.8748071
vt 0.1251677 0.8748323
vt 0.2498882 0.7750559
vt 0.2249441 0.7501118
vt 0.1251072 0.8499357
vt 0.1251072 0.8748714
vt 0.2497856 0.7501929
vt 0.169664 0.7501483
vt 0.2498782 0.8749259
vt 0.1805694 0.7501242
vt 0.1251795 0.7501242
vt 0.1252144 0.7501929
vt 0.2498928 0.8499357
vt 0.2499116 0.8748232
vt 0.2499116 0.7500884
vt 0.1251768 0.7500884
vt 0.1500559 0.8748882
vt 0.2498323 0.7501677
vt 0.1251118 0.8499441
vt 0.2249357 0.7501072
vt 0.1251929 0.8747856
vt 0.2498714 0.7501072
vt 0.1251483 0.794664
vt 0.2499259 0.8748782
vt 0.1251242 0.7501795
vt 0.1251242 0.8055694
vt 0.1251929 0.7502144
vt 0.2249357 0.8748928
vt 0.1250884 0.8749116
vt 0.2498232 0.8749116
vt 0.1250884 0.7501768
vt 0.1500559 0.7501118
vt 0.1251118 0.7750559
vt 0.2498323 0.8748323
vt 0.1250884 0.7500884
vt 0.1250884 0.8748232
vt 0.2498232 0.7500884
vt 0.1500643 0.7501072
vt 0.2498071 0.8747856
vt 0.1251286 0.7501072
vt 0.2498758 0.8194306
vt 0.2498758 0.8748205
vt 0.2498517 0.830336
vt 0.1250741 0.8748994
vt 0.2498071 0.7502144
vt 0.1500643 0.8748928
vt 0.2498882 0.8499441
vt 0.2249441 0.8748882
vt 0.1251677 0.7501677
vt 0.1251768 0.8749116
vt 0.2499116 0.7501768
vt 0.2499116 0.8749116
vt 0.1251072 0.7501286
vt 0.2497856 0.8748071
vt 0.1251072 0.7750643
vt 0.2498782 0.7500741
vt 0.169664 0.8748517
vt 0.1251795 0.8748758
vt 0.1805694 0.8748758
vt 0.1252144 0.8748071
vt 0.2498928 0.7750643
vt 0.2249441 0.7501118
vt 0.2498882 0.7750559
vt 0.1251677 0.8748323
vt 0.2497856 0.7501929
vt 0.1251072 0.8748714
vt 0.1251072 0.8499357
vt 0.2498782 0.8749259
vt 0.169664 0.7501483
vt 0.1251795 0.7501242
vt 0.1805694 0.7501242
vt 0.2498928 0.8499357
vt 0.1252144 0.7501929
vt 0.1251768 0.7500884
vt 0.2499116 0.7500884
vt 0.2499116 0.8748232
vt 0.1251118 0.8499441
vt 0.2498323 0.7501677
vt 0.1500559 0.8748882
vt 0.2498714 0.7501072
vt 0.1251929 0.8747856
vt 0.2249357 0.7501072
vt 0.2499259 0.8748782
vt 0.1251483 0.794664
vt 0.1251242 0.8055694
vt 0.1251242 0.7501795
vt 0.2249357 0.8748928
vt 0.1251929 0.7502144
vt 0.1250884 0.7501768
vt 0.2498232 0.8749116
vt 0.1250884 0.8749116
vt 0.2498323 0.8748323
vt 0.1251118 0.7750559
vt 0.1500559 0.7501118
vt 0.2498232 0.7500884
vt 0.1250884 0.8748232
vt 0.1250884 0.7500884
vt 0.1251768 0.7500884
vt 0.2499116 0.7500884
vt 0.2499116 0.8748232
vt 0.1250884 0.8749116
vt 0.1251768 0.7500884
vt 0.2499116 0.7500884
vt 0.2499116 0.8748232
vt 0.1250884 0.8749116
vt 0.1251768 0.7500884
vt 0.2499116 0.7500884
vt 0.2499116 0.8748232
vt 0.1250884 0.8749116
vt 0.1251768 0.7500884
vt 0.2499116 0.7500884
vt 0.2499116 0.8748232
vt 0.1250884 0.8749116
vt 0.1251768 0.7500884
vt 0.2499116 0.7500884
vt 0.2499116 0.8748232
vt 0.1250884 0.8749116
vt 0.1251768 0.7500884
vt 0.2499116 0.7500884
vt 0.2499116 0.8748232
vt 0.1250884 0.8749116
vt 0.2499116 0.8748232
vt 0.2499116 0.7500884
vt 0.1251768 0.7500884
vt 0.1250884 0.8749116
vt 0.2499116 0.8748232
vt 0.2499116 0.7500884
vt 0.1251768 0.7500884
vt 0.1250884 0.8749116
vt 0.2499116 0.8748232
vt 0.2499116 0.7500884
vt 0.1251768 0.7500884
vt 0.1250884 0.8749116
vt 0.2499116 0.8748232
vt 0.2499116 0.7500884
vt 0.1251768 0.7500884
vt 0.1250884 0.8749116
vt 0.2499116 0.8748232
vt 0.2499116 0.7500884
vt 0.1251768 0.7500884
vt 0.1250884 0.8749116
vt 0.2499116 0.8748232
vt 0.2499116 0.7500884
vt 0.1251768 0.7500884
vt 0.1250884 0.8749116
usemtl EGA_Donut_02_texture0
f 3/3/3 2/2/2 1/1/1
f 4/4/4 3/3/3 1/1/1
f 7/7/7 6/6/6 5/5/5
f 8/8/8 7/7/7 5/5/5
f 11/11/11 10/10/10 9/9/9
f 12/12/12 11/11/11 9/9/9
f 15/15/15 14/14/14 13/13/13
f 16/16/16 15/15/15 13/13/13
f 19/19/19 18/18/18 17/17/17
f 20/20/20 19/19/19 17/17/17
f 23/23/23 22/22/22 21/21/21
f 24/24/24 23/23/23 21/21/21
f 27/27/27 26/26/26 25/25/25
f 27/27/27 25/25/25 28/28/28
f 31/31/31 30/30/30 29/29/29
f 31/31/31 29/29/29 32/32/32
f 35/35/35 34/34/34 33/33/33
f 35/35/35 33/33/33 36/36/36
f 39/39/39 38/38/38 37/37/37
f 39/39/39 37/37/37 40/40/40
f 43/43/43 42/42/42 41/41/41
f 43/43/43 41/41/41 44/44/44
f 47/47/47 46/46/46 45/45/45
f 47/47/47 45/45/45 48/48/48
f 51/51/51 50/50/50 49/49/49
f 53/53/53 52/52/52 49/49/49
f 55/55/55 54/54/54 49/49/49
f 57/57/57 56/56/56 54/54/54
f 60/60/60 59/59/59 58/58/58
f 63/63/63 62/62/62 61/61/61
f 66/66/66 65/65/65 64/64/64
f 66/66/66 68/68/68 67/67/67
f 70/70/70 68/68/68 69/69/69
f 72/72/72 68/68/68 71/71/71
f 75/75/75 74/74/74 73/73/73
f 78/78/78 77/77/77 76/76/76
f 80/80/80 77/77/77 79/79/79
f 80/80/80 82/82/82 81/81/81
f 84/84/84 80/80/80 83/83/83
f 87/87/87 86/86/86 85/85/85
f 90/90/90 89/89/89 88/88/88
f 93/93/93 92/92/92 91/91/91
f 93/93/93 95/95/95 94/94/94
f 95/95/95 97/97/97 96/96/96
f 99/99/99 98/98/98 95/95/95
f 102/102/102 101/101/101 100/100/100
f 105/105/105 104/104/104 103/103/103
f 108/108/108 107/107/107 106/106/106
f 111/111/111 110/110/110 109/109/109
f 111/111/111 113/113/113 112/112/112
f 111/111/111 115/115/115 114/114/114
f 115/115/115 117/117/117 116/116/116
f 120/120/120 119/119/119 118/118/118
f 123/123/123 122/122/122 121/121/121
f 126/126/126 125/125/125 124/124/124
f 128/128/128 127/127/127 124/124/124
f 130/130/130 127/127/127 129/129/129
f 132/132/132 127/127/127 131/131/131
f 135/135/135 134/134/134 133/133/133
f 138/138/138 137/137/137 136/136/136
f 140/140/140 137/137/137 139/139/139
f 142/142/142 141/141/141 139/139/139
f 144/144/144 139/139/139 143/143/143
f 147/147/147 146/146/146 145/145/145
f 150/150/150 149/149/149 148/148/148
f 153/153/153 152/152/152 151/151/151
f 155/155/155 154/154/154 151/151/151
f 157/157/157 156/156/156 154/154/154
f 154/154/154 159/159/159 158/158/158
f 162/162/162 161/161/161 160/160/160
f 165/165/165 164/164/164 163/163/163
f 168/168/168 167/167/167 166/166/166
f 171/171/171 170/170/170 169/169/169
f 172/172/172 171/171/171 169/169/169
f 175/175/175 174/174/174 173/173/173
f 176/176/176 175/175/175 173/173/173
f 179/179/179 178/178/178 177/177/177
f 180/180/180 179/179/179 177/177/177
f 183/183/183 182/182/182 181/181/181
f 184/184/184 183/183/183 181/181/181
f 187/187/187 186/186/186 185/185/185
f 188/188/188 187/187/187 185/185/185
f 191/191/191 190/190/190 189/189/189
f 192/192/192 191/191/191 189/189/189
f 195/195/195 194/194/194 193/193/193
f 195/195/195 193/193/193 196/196/196
f 199/199/199 198/198/198 197/197/197
f 199/199/199 197/197/197 200/200/200
f 203/203/203 202/202/202 201/201/201
f 203/203/203 201/201/201 204/204/204
f 207/207/207 206/206/206 205/205/205
f 207/207/207 205/205/205 208/208/208
f 211/211/211 210/210/210 209/209/209
f 211/211/211 209/209/209 212/212/212
f 215/215/215 214/214/214 213/213/213
f 215/215/215 213/213/213 216/216/216
