mtllib EGA_Shop_Door_07.mtl
g default
v 0.3000001 2.1 1.1
v 0.3000001 1.9 1.1
v 0.1000001 1.9 1.1
v 0.1000001 2.1 1.1
v -0.09999985 2.1 1.1
v -0.09999985 1.9 1.1
v -0.2999998 1.9 1.1
v -0.2999998 2.1 1.1
v 0.1000001 3.9 1.3
v 0.1000001 -0.1 1.3
v -0.09999982 -0.1 1.3
v -0.09999982 3.9 1.3
v 0.1000001 1.9 0.8999999
v 0.3000001 1.9 0.8999999
v 0.3000001 2.1 0.8999999
v 0.1000001 2.1 0.8999999
v -0.2999999 1.9 0.8999999
v -0.09999987 1.9 0.8999999
v -0.09999987 2.1 0.8999999
v -0.2999999 2.1 0.8999999
v -0.1000002 -0.1 -1.7
v 0.09999978 -0.1 -1.7
v 0.09999978 3.9 -1.7
v -0.1000002 3.9 -1.7
v -0.09999982 -0.1 1.3
v 0.1000001 -0.1 1.3
v 0.09999978 -0.1 -1.7
v -0.1000002 -0.1 -1.7
v 0.1000001 1.9 1.1
v 0.3000001 1.9 1.1
v 0.3000001 1.9 0.8999999
v 0.1000001 1.9 0.8999999
v -0.2999998 1.9 1.1
v -0.09999985 1.9 1.1
v -0.09999987 1.9 0.8999999
v -0.2999999 1.9 0.8999999
v 0.3000001 2.1 0.8999999
v 0.3000001 2.1 1.1
v 0.1000001 2.1 1.1
v 0.1000001 2.1 0.8999999
v -0.09999987 2.1 0.8999999
v -0.09999985 2.1 1.1
v -0.2999998 2.1 1.1
v -0.2999999 2.1 0.8999999
v 0.09999978 3.9 -1.7
v 0.1000001 3.9 1.3
v -0.09999982 3.9 1.3
v -0.1000002 3.9 -1.7
v 0.09999978 -0.1 -1.7
v 0.1000001 -0.1 1.3
v 0.1000001 1.9 0.8999999
v 0.1000001 1.9 0.8999999
v 0.1000001 1.9 1.1
v 0.1000001 1.9 0.8999999
v 0.09999978 3.9 -1.7
v 0.1000001 1.9 1.1
v 0.1000001 3.9 1.3
v 0.1000001 2.1 0.8999999
v 0.1000001 1.9 0.8999999
v 0.1000001 2.1 0.8999999
v 0.1000001 1.9 1.1
v 0.1000001 2.1 1.1
v 0.1000001 2.1 1.1
v 0.1000001 2.1 0.8999999
v 0.3000001 1.9 0.8999999
v 0.3000001 1.9 1.1
v 0.3000001 2.1 1.1
v 0.3000001 2.1 0.8999999
v -0.09999987 1.9 0.8999999
v -0.09999982 -0.1 1.3
v -0.1000002 -0.1 -1.7
v -0.09999985 1.9 1.1
v -0.09999987 1.9 0.8999999
v -0.1000002 3.9 -1.7
v -0.09999987 1.9 0.8999999
v -0.09999982 3.9 1.3
v -0.09999985 1.9 1.1
v -0.09999987 2.1 0.8999999
v -0.09999987 2.1 0.8999999
v -0.09999987 1.9 0.8999999
v -0.09999985 2.1 1.1
v -0.09999985 1.9 1.1
v -0.09999987 2.1 0.8999999
v -0.09999985 2.1 1.1
v -0.2999998 2.1 1.1
v -0.2999998 1.9 1.1
v -0.2999999 1.9 0.8999999
v -0.2999999 2.1 0.8999999
vn 1.192093E-07 0 0.9999999
vn 1.192093E-07 0 0.9999999
vn 1.192093E-07 0 0.9999999
vn 1.192093E-07 0 0.9999999
vn 1.192093E-07 0 0.9999999
vn 1.192093E-07 0 0.9999999
vn 1.192093E-07 0 0.9999999
vn 1.192093E-07 0 0.9999999
vn 1.192093E-07 0 0.9999999
vn 1.192093E-07 0 0.9999999
vn 1.192093E-07 0 0.9999999
vn 1.192093E-07 0 0.9999999
vn -1.192093E-07 0 -0.9999999
vn -1.192093E-07 0 -0.9999999
vn -1.192093E-07 0 -0.9999999
vn -1.192093E-07 0 -0.9999999
vn -1.192093E-07 0 -0.9999999
vn -1.192093E-07 0 -0.9999999
vn -1.192093E-07 0 -0.9999999
vn -1.192093E-07 0 -0.9999999
vn -1.192093E-07 0 -0.9999999
vn -1.192093E-07 0 -0.9999999
vn -1.192093E-07 0 -0.9999999
vn -1.192093E-07 0 -0.9999999
vn 0 -1 0
vn 0 -1 0
vn 0 -1 0
vn 0 -1 0
vn 0 -1 0
vn 0 -1 0
vn 0 -1 0
vn 0 -1 0
vn 0 -1 0
vn 0 -1 0
vn 0 -1 0
vn 0 -1 0
vn 0 1 0
vn 0 1 0
vn 0 1 0
vn 0 1 0
vn 0 1 0
vn 0 1 0
vn 0 1 0
vn 0 1 0
vn 0 1 0
vn 0 1 0
vn 0 1 0
vn 0 1 0
vn 0.9999999 0 -1.192093E-07
vn 0.9999999 0 -1.192093E-07
vn 0.9999999 0 -1.192093E-07
vn 0.9999999 0 -1.192093E-07
vn 0.9999999 0 -1.192093E-07
vn 0.9999999 0 -1.192093E-07
vn 0.9999999 0 -1.192093E-07
vn 0.9999999 0 -1.192093E-07
vn 0.9999999 0 -1.192093E-07
vn 0.9999999 0 -1.192093E-07
vn 0.9999999 0 -1.192093E-07
vn 0.9999999 0 -1.192093E-07
vn 0.9999999 0 -1.192093E-07
vn 0.9999999 0 -1.192093E-07
vn 0.9999999 0 -1.192093E-07
vn 0.9999999 0 -1.192093E-07
vn 0.9999999 0 -1.192093E-07
vn 0.9999999 0 -1.192093E-07
vn 0.9999999 0 -1.192093E-07
vn 0.9999999 0 -1.192093E-07
vn -0.9999999 0 1.192093E-07
vn -0.9999999 0 1.192093E-07
vn -0.9999999 0 1.192093E-07
vn -0.9999999 0 1.192093E-07
vn -0.9999999 0 1.192093E-07
vn -0.9999999 0 1.192093E-07
vn -0.9999999 0 1.192093E-07
vn -0.9999999 0 1.192093E-07
vn -0.9999999 0 1.192093E-07
vn -0.9999999 0 1.192093E-07
vn -0.9999999 0 1.192093E-07
vn -0.9999999 0 1.192093E-07
vn -0.9999999 0 1.192093E-07
vn -0.9999999 0 1.192093E-07
vn -0.9999999 0 1.192093E-07
vn -0.9999999 0 1.192093E-07
vn -0.9999999 0 1.192093E-07
vn -0.9999999 0 1.192093E-07
vn -0.9999999 0 1.192093E-07
vn -0.9999999 0 1.192093E-07
vt 0.1669024 0.333569
vt 0.3332155 0.333569
vt 0.3332155 0.6661953
vt 0.1667845 0.666431
vt 0.1669024 0.333569
vt 0.3332155 0.333569
vt 0.3332155 0.6661953
vt 0.1667845 0.666431
vt 0.6669024 0.333569
vt 0.8332155 0.333569
vt 0.8332155 0.6661953
vt 0.6667845 0.666431
vt 0.3332155 0.6661953
vt 0.3332155 0.333569
vt 0.1669024 0.333569
vt 0.1667845 0.666431
vt 0.3332155 0.6661953
vt 0.3332155 0.333569
vt 0.1669024 0.333569
vt 0.1667845 0.666431
vt 0.8332155 0.6661953
vt 0.8332155 0.333569
vt 0.6669024 0.333569
vt 0.6667845 0.666431
vt 0.8332155 0.6661953
vt 0.8332155 0.333569
vt 0.6669024 0.333569
vt 0.6667845 0.666431
vt 0.3332155 0.6661953
vt 0.3332155 0.333569
vt 0.1669024 0.333569
vt 0.1667845 0.666431
vt 0.3332155 0.6661953
vt 0.3332155 0.333569
vt 0.1669024 0.333569
vt 0.1667845 0.666431
vt 0.1669024 0.333569
vt 0.3332155 0.333569
vt 0.3332155 0.6661953
vt 0.1667845 0.666431
vt 0.1669024 0.333569
vt 0.3332155 0.333569
vt 0.3332155 0.6661953
vt 0.1667845 0.666431
vt 0.6669024 0.333569
vt 0.8332155 0.333569
vt 0.8332155 0.6661953
vt 0.6667845 0.666431
vt 0.6668725 0.3335539
vt 0.8332084 0.3335539
vt 0.8110303 0.6662256
vt 0.6669167 0.6663333
vt 0.75 0.6663333
vt 0.8331484 0.5
vt 0.6667591 0.6663893
vt 0.6668516 0.5
vt 0.8332409 0.6663893
vt 0.8110303 0.3337744
vt 0.8332032 0.3336197
vt 0.8332032 0.3668749
vt 0.6667968 0.3336197
vt 0.6667968 0.3668749
vt 0.75 0.3336667
vt 0.6669167 0.3336667
vt 0.1669024 0.333569
vt 0.3332155 0.333569
vt 0.3332155 0.6661953
vt 0.1667845 0.666431
vt 0.8110303 0.6662256
vt 0.8332084 0.3335539
vt 0.6668725 0.3335539
vt 0.75 0.6663333
vt 0.6669167 0.6663333
vt 0.6667591 0.6663893
vt 0.8331484 0.5
vt 0.8332409 0.6663893
vt 0.6668516 0.5
vt 0.8110303 0.3337744
vt 0.8332032 0.3668749
vt 0.8332032 0.3336197
vt 0.6667968 0.3668749
vt 0.6667968 0.3336197
vt 0.6669167 0.3336667
vt 0.75 0.3336667
vt 0.3332155 0.6661953
vt 0.3332155 0.333569
vt 0.1669024 0.333569
vt 0.1667845 0.666431
usemtl EGA_Shop_Door_07_texture0
f 3/3/3 2/2/2 1/1/1
f 4/4/4 3/3/3 1/1/1
f 7/7/7 6/6/6 5/5/5
f 8/8/8 7/7/7 5/5/5
f 11/11/11 10/10/10 9/9/9
f 12/12/12 11/11/11 9/9/9
f 15/15/15 14/14/14 13/13/13
f 15/15/15 13/13/13 16/16/16
f 19/19/19 18/18/18 17/17/17
f 19/19/19 17/17/17 20/20/20
f 23/23/23 22/22/22 21/21/21
f 23/23/23 21/21/21 24/24/24
f 27/27/27 26/26/26 25/25/25
f 27/27/27 25/25/25 28/28/28
f 31/31/31 30/30/30 29/29/29
f 31/31/31 29/29/29 32/32/32
f 35/35/35 34/34/34 33/33/33
f 35/35/35 33/33/33 36/36/36
f 39/39/39 38/38/38 37/37/37
f 40/40/40 39/39/39 37/37/37
f 43/43/43 42/42/42 41/41/41
f 44/44/44 43/43/43 41/41/41
f 47/47/47 46/46/46 45/45/45
f 48/48/48 47/47/47 45/45/45
f 51/51/51 50/50/50 49/49/49
f 53/53/53 50/50/50 52/52/52
f 55/55/55 54/54/54 49/49/49
f 57/57/57 50/50/50 56/56/56
f 55/55/55 57/57/57 58/58/58
f 60/60/60 59/59/59 55/55/55
f 62/62/62 57/57/57 61/61/61
f 64/64/64 57/57/57 63/63/63
f 67/67/67 66/66/66 65/65/65
f 68/68/68 67/67/67 65/65/65
f 71/71/71 70/70/70 69/69/69
f 73/73/73 70/70/70 72/72/72
f 71/71/71 75/75/75 74/74/74
f 77/77/77 70/70/70 76/76/76
f 78/78/78 76/76/76 74/74/74
f 74/74/74 80/80/80 79/79/79
f 82/82/82 76/76/76 81/81/81
f 84/84/84 76/76/76 83/83/83
f 87/87/87 86/86/86 85/85/85
f 87/87/87 85/85/85 88/88/88
