mtllib EGA_Game_Case_02.mtl
g default
v -0.033 0.477 0.195
v -0.033 -0.003 0.195
v -0.033 -0.003 -0.189
v -0.033 0.477 0.195
v -0.033 -0.003 -0.189
v -0.033 0.477 -0.189
v 0.021 0.297 0.195
v 0.021 0.195 0.195
v 0.021 0.195 0.189
v 0.021 0.297 0.189
v -0.015 0.195 0.189
v -0.015 0.195 0.195
v -0.015 0.297 0.195
v -0.015 0.297 0.189
v 0.039 -0.003 -0.189
v 0.039 -0.003 0.195
v 0.039 0.477 0.195
v 0.039 0.477 -0.189
v 0.039 -0.003 -0.189
v 0.039 0.477 0.195
v -0.033 -0.003 -0.189
v -0.033 -0.003 0.195
v 0.039 -0.003 0.195
v 0.039 -0.003 -0.189
v -0.015 0.297 0.189
v -0.015 0.297 0.195
v 0.021 0.297 0.195
v 0.021 0.297 0.189
v 0.021 0.195 0.195
v -0.015 0.195 0.195
v -0.015 0.195 0.189
v 0.021 0.195 0.189
v 0.039 0.477 0.195
v -0.033 0.477 0.195
v -0.033 0.477 -0.189
v 0.039 0.477 -0.189
v 0.039 -0.003 0.195
v -0.033 -0.003 0.195
v 0.021 0.195 0.195
v -0.015 0.195 0.195
v 0.039 -0.003 0.195
v 0.021 0.195 0.195
v 0.039 0.477 0.195
v 0.021 0.195 0.195
v 0.021 0.297 0.195
v -0.015 0.195 0.195
v -0.033 -0.003 0.195
v -0.033 0.477 0.195
v -0.015 0.195 0.195
v -0.015 0.297 0.195
v 0.021 0.297 0.195
v -0.033 0.477 0.195
v 0.039 0.477 0.195
v -0.015 0.297 0.195
v 0.021 0.195 0.189
v -0.015 0.195 0.189
v -0.015 0.297 0.189
v 0.021 0.297 0.189
v -0.033 0.477 -0.189
v -0.033 -0.003 -0.189
v 0.039 -0.003 -0.189
v 0.039 0.477 -0.189
v -0.033 0.477 -0.189
v 0.039 -0.003 -0.189
vn -1 0 0
vn -1 0 0
vn -1 0 0
vn -1 0 0
vn -1 0 0
vn -1 0 0
vn -1 0 0
vn -1 0 0
vn -1 0 0
vn -1 0 0
vn 1 0 0
vn 1 0 0
vn 1 0 0
vn 1 0 0
vn 1 0 0
vn 1 0 0
vn 1 0 0
vn 1 0 0
vn 1 0 0
vn 1 0 0
vn 0 -1 0
vn 0 -1 0
vn 0 -1 0
vn 0 -1 0
vn 0 -1 0
vn 0 -1 0
vn 0 -1 0
vn 0 -1 0
vn 0 1 0
vn 0 1 0
vn 0 1 0
vn 0 1 0
vn 0 1 0
vn 0 1 0
vn 0 1 0
vn 0 1 0
vn 0 0 1
vn 0 0 1
vn 0 0 1
vn 0 0 1
vn 0 0 1
vn 0 0 1
vn 0 0 1
vn 0 0 1
vn 0 0 1
vn 0 0 1
vn 0 0 1
vn 0 0 1
vn 0 0 1
vn 0 0 1
vn 0 0 1
vn 0 0 1
vn 0 0 1
vn 0 0 1
vn 0 0 1
vn 0 0 1
vn 0 0 1
vn 0 0 1
vn 0 0 -1
vn 0 0 -1
vn 0 0 -1
vn 0 0 -1
vn 0 0 -1
vn 0 0 -1
vt 0.03907358 0.4531305
vt 0.664057 0.4531305
vt 0.664057 0.953114
vt 0.007818041 0.468761
vt 0.6328014 0.9687445
vt 0.007818041 0.9687445
vt 0.625011 0.9843805
vt 0.632807 0.9843805
vt 0.632807 0.9921765
vt 0.6250055 0.992182
vt 0.632807 0.9921765
vt 0.632807 0.9843805
vt 0.625011 0.9843805
vt 0.6250055 0.992182
vt 0.6563434 0.4687389
vt 0.6563434 0.460819
vt 0.6484485 0.460819
vt 0.01552975 0.4531311
vt 0.02352784 0.4531311
vt 0.01552975 0.4610493
vt 0.6367118 0.9921805
vt 0.6367118 0.9843785
vt 0.5898577 0.9843785
vt 0.5898507 0.992184
vt 0.6249931 0.9921799
vt 0.6249931 0.9843788
vt 0.6015761 0.9843788
vt 0.6015694 0.9921837
vt 0.6015761 0.9843788
vt 0.6249931 0.9843788
vt 0.6249931 0.9921799
vt 0.6015694 0.9921837
vt 0.5898577 0.9843785
vt 0.6367118 0.9843785
vt 0.6367118 0.9921805
vt 0.5898507 0.992184
vt 0.5898525 0.9843785
vt 0.6367065 0.9843785
vt 0.601566 0.9921805
vt 0.6249958 0.9921809
vt 0.6250045 0.9843814
vt 0.6328035 0.9875984
vt 0.6250045 0.9921803
vt 0.632805 0.9843853
vt 0.632805 0.9872029
vt 0.625009 0.9875984
vt 0.632808 0.9843814
vt 0.632808 0.9921803
vt 0.6250075 0.9843853
vt 0.6250075 0.9872029
vt 0.601566 0.984382
vt 0.6367065 0.992184
vt 0.5898525 0.992184
vt 0.6249958 0.9843816
vt 0.007823548 0.9843805
vt 0.01561948 0.9843805
vt 0.01561948 0.9921765
vt 0.007818025 0.992182
vt 0.648342 0.9882738
vt 0.6563479 0.9882738
vt 0.6563479 0.9414212
vt 0.6563479 0.9882738
vt 0.6563479 0.9414212
vt 0.648342 0.9882738
usemtl EGA_Game_Case_02_texture0
f 3/3/3 2/2/2 1/1/1
f 6/6/6 5/5/5 4/4/4
f 9/9/9 8/8/8 7/7/7
f 10/10/10 9/9/9 7/7/7
f 13/13/13 12/12/12 11/11/11
f 13/13/13 11/11/11 14/14/14
f 17/17/17 16/16/16 15/15/15
f 20/20/20 19/19/19 18/18/18
f 23/23/23 22/22/22 21/21/21
f 23/23/23 21/21/21 24/24/24
f 27/27/27 26/26/26 25/25/25
f 27/27/27 25/25/25 28/28/28
f 31/31/31 30/30/30 29/29/29
f 32/32/32 31/31/31 29/29/29
f 35/35/35 34/34/34 33/33/33
f 36/36/36 35/35/35 33/33/33
f 39/39/39 38/38/38 37/37/37
f 40/40/40 38/38/38 39/39/39
f 43/43/43 42/42/42 41/41/41
f 45/45/45 44/44/44 43/43/43
f 48/48/48 47/47/47 46/46/46
f 50/50/50 48/48/48 49/49/49
f 53/53/53 52/52/52 51/51/51
f 51/51/51 52/52/52 54/54/54
f 57/57/57 56/56/56 55/55/55
f 58/58/58 57/57/57 55/55/55
f 61/61/61 60/60/60 59/59/59
f 64/64/64 63/63/63 62/62/62
