mtllib EGA_Seaport_05.mtl
g default
v -2.45 0.15 2.55
v -2.45 -0.05 2.55
v -2.45 -0.05 -2.45
v -2.45 0.15 -2.45
v -1.05 0.15 2.55
v -1.05 -0.05 2.55
v -1.05 -0.05 2.45
v -1.05 0.15 2.45
v -1.05 0.15 -2.35
v -1.05 -0.05 -2.35
v -1.05 -0.05 -2.45
v -1.05 0.15 -2.45
v 0.35 0.15 2.55
v 0.35 -0.05 2.55
v 0.35 -0.05 2.45
v 0.35 0.15 2.45
v 0.35 0.15 -2.35
v 0.35 -0.05 -2.35
v 0.35 -0.05 -2.45
v 0.35 0.15 -2.45
v 1.75 0.15 2.55
v 1.75 -0.05 2.55
v 1.75 -0.05 2.45
v 1.75 0.15 2.45
v 1.75 0.15 -2.35
v 1.75 -0.05 -2.35
v 1.75 -0.05 -2.45
v 1.75 0.15 -2.45
v -1.85 -0.05 2.45
v -1.85 -0.05 2.55
v -1.85 0.15 2.55
v -1.85 0.15 2.45
v -1.85 -0.05 -2.45
v -1.85 -0.05 -2.35
v -1.85 0.15 -2.35
v -1.85 0.15 -2.45
v -0.45 -0.05 2.45
v -0.45 -0.05 2.55
v -0.45 0.15 2.55
v -0.45 0.15 2.45
v -0.45 -0.05 -2.45
v -0.45 -0.05 -2.35
v -0.45 0.15 -2.35
v -0.45 0.15 -2.45
v 0.95 -0.05 2.45
v 0.95 -0.05 2.55
v 0.95 0.15 2.55
v 0.95 0.15 2.45
v 0.95 -0.05 -2.45
v 0.95 -0.05 -2.35
v 0.95 0.15 -2.35
v 0.95 0.15 -2.45
v 2.45 -0.05 -2.45
v 2.45 -0.05 2.55
v 2.45 0.15 2.55
v 2.45 0.15 -2.45
v 1.75 -0.05 2.45
v 1.75 -0.05 2.55
v 2.45 -0.05 2.55
v 2.45 -0.05 -2.45
v 1.75 -0.05 2.45
v 2.45 -0.05 2.55
v 1.75 -0.05 -2.35
v 1.75 -0.05 2.45
v 2.45 -0.05 -2.45
v 1.75 -0.05 -2.35
v 0.95 -0.05 -2.35
v 1.75 -0.05 2.45
v 1.75 -0.05 -2.45
v 1.75 -0.05 -2.35
v 2.45 -0.05 -2.45
v 0.95 -0.05 -2.35
v 0.95 -0.05 2.45
v 1.75 -0.05 2.45
v 0.95 -0.05 -2.35
v 0.35 -0.05 -2.35
v 0.95 -0.05 2.45
v 0.35 -0.05 -2.45
v 0.35 -0.05 -2.35
v 0.95 -0.05 -2.35
v 0.95 -0.05 -2.45
v 0.35 -0.05 -2.35
v 0.35 -0.05 2.45
v 0.95 -0.05 2.45
v 0.35 -0.05 -2.35
v -0.45 -0.05 -2.35
v 0.35 -0.05 2.45
v 0.95 -0.05 2.45
v 0.35 -0.05 2.45
v 0.95 -0.05 2.55
v 0.35 -0.05 2.55
v -0.45 -0.05 -2.35
v -0.45 -0.05 2.45
v 0.35 -0.05 2.45
v -0.45 -0.05 -2.35
v -1.05 -0.05 -2.35
v -0.45 -0.05 2.45
v -1.05 -0.05 -2.45
v -1.05 -0.05 -2.35
v -0.45 -0.05 -2.35
v -0.45 -0.05 -2.45
v -1.05 -0.05 -2.35
v -1.05 -0.05 2.45
v -0.45 -0.05 2.45
v -1.05 -0.05 -2.35
v -1.85 -0.05 -2.35
v -1.05 -0.05 2.45
v -0.45 -0.05 2.45
v -1.05 -0.05 2.45
v -0.45 -0.05 2.55
v -1.05 -0.05 2.55
v -1.85 -0.05 -2.35
v -1.85 -0.05 2.45
v -1.05 -0.05 2.45
v -1.85 -0.05 -2.35
v -2.45 -0.05 -2.45
v -1.85 -0.05 2.45
v -1.85 -0.05 -2.45
v -2.45 -0.05 -2.45
v -1.85 -0.05 -2.35
v -1.85 -0.05 2.45
v -2.45 -0.05 -2.45
v -2.45 -0.05 2.55
v -1.85 -0.05 2.55
v -1.85 -0.05 2.45
v -2.45 -0.05 2.55
v 2.45 0.15 2.55
v 1.75 0.15 2.55
v 1.75 0.15 2.45
v 2.45 0.15 2.55
v 1.75 0.15 2.45
v 2.45 0.15 -2.45
v 2.45 0.15 -2.45
v 1.75 0.15 2.45
v 1.75 0.15 -2.35
v 1.75 0.15 2.45
v 0.95 0.15 -2.35
v 1.75 0.15 -2.35
v 2.45 0.15 -2.45
v 1.75 0.15 -2.35
v 1.75 0.15 -2.45
v 1.75 0.15 2.45
v 0.95 0.15 2.45
v 0.95 0.15 -2.35
v 0.95 0.15 2.45
v 0.35 0.15 -2.35
v 0.95 0.15 -2.35
v 0.95 0.15 -2.35
v 0.35 0.15 -2.35
v 0.35 0.15 -2.45
v 0.95 0.15 -2.45
v 0.95 0.15 2.45
v 0.35 0.15 2.45
v 0.35 0.15 -2.35
v 0.35 0.15 2.45
v -0.45 0.15 -2.35
v 0.35 0.15 -2.35
v 0.95 0.15 2.55
v 0.35 0.15 2.45
v 0.95 0.15 2.45
v 0.35 0.15 2.55
v 0.35 0.15 2.45
v -0.45 0.15 2.45
v -0.45 0.15 -2.35
v -0.45 0.15 2.45
v -1.05 0.15 -2.35
v -0.45 0.15 -2.35
v -0.45 0.15 -2.35
v -1.05 0.15 -2.35
v -1.05 0.15 -2.45
v -0.45 0.15 -2.45
v -0.45 0.15 2.45
v -1.05 0.15 2.45
v -1.05 0.15 -2.35
v -1.05 0.15 2.45
v -1.85 0.15 -2.35
v -1.05 0.15 -2.35
v -0.45 0.15 2.55
v -1.05 0.15 2.45
v -0.45 0.15 2.45
v -1.05 0.15 2.55
v -1.05 0.15 2.45
v -1.85 0.15 2.45
v -1.85 0.15 -2.35
v -1.85 0.15 2.45
v -2.45 0.15 -2.45
v -1.85 0.15 -2.35
v -1.85 0.15 -2.35
v -2.45 0.15 -2.45
v -1.85 0.15 -2.45
v -2.45 0.15 2.55
v -2.45 0.15 -2.45
v -1.85 0.15 2.45
v -2.45 0.15 2.55
v -1.85 0.15 2.45
v -1.85 0.15 2.55
v 2.45 -0.05 2.55
v 1.75 -0.05 2.55
v 1.75 0.15 2.55
v 2.45 0.15 2.55
v 0.95 -0.05 2.55
v 0.35 -0.05 2.55
v 0.35 0.15 2.55
v 0.95 0.15 2.55
v -0.45 -0.05 2.55
v -1.05 -0.05 2.55
v -1.05 0.15 2.55
v -0.45 0.15 2.55
v -1.85 -0.05 2.55
v -2.45 -0.05 2.55
v -2.45 0.15 2.55
v -1.85 0.15 2.55
v 1.75 -0.05 2.45
v 0.95 -0.05 2.45
v 0.95 0.15 2.45
v 1.75 0.15 2.45
v 0.35 -0.05 2.45
v -0.45 -0.05 2.45
v -0.45 0.15 2.45
v 0.35 0.15 2.45
v -1.05 -0.05 2.45
v -1.85 -0.05 2.45
v -1.85 0.15 2.45
v -1.05 0.15 2.45
v 0.95 0.15 -2.35
v 0.95 -0.05 -2.35
v 1.75 -0.05 -2.35
v 1.75 0.15 -2.35
v -0.45 0.15 -2.35
v -0.45 -0.05 -2.35
v 0.35 -0.05 -2.35
v 0.35 0.15 -2.35
v -1.85 0.15 -2.35
v -1.85 -0.05 -2.35
v -1.05 -0.05 -2.35
v -1.05 0.15 -2.35
v 1.75 0.15 -2.45
v 1.75 -0.05 -2.45
v 2.45 -0.05 -2.45
v 2.45 0.15 -2.45
v 0.35 0.15 -2.45
v 0.35 -0.05 -2.45
v 0.95 -0.05 -2.45
v 0.95 0.15 -2.45
v -1.05 0.15 -2.45
v -1.05 -0.05 -2.45
v -0.45 -0.05 -2.45
v -0.45 0.15 -2.45
v -2.45 0.15 -2.45
v -2.45 -0.05 -2.45
v -1.85 -0.05 -2.45
v -1.85 0.15 -2.45
vn -1 0 0
vn -1 0 0
vn -1 0 0
vn -1 0 0
vn -1 0 0
vn -1 0 0
vn -1 0 0
vn -1 0 0
vn -1 0 0
vn -1 0 0
vn -1 0 0
vn -1 0 0
vn -1 0 0
vn -1 0 0
vn -1 0 0
vn -1 0 0
vn -1 0 0
vn -1 0 0
vn -1 0 0
vn -1 0 0
vn -1 0 0
vn -1 0 0
vn -1 0 0
vn -1 0 0
vn -1 0 0
vn -1 0 0
vn -1 0 0
vn -1 0 0
vn 1 0 0
vn 1 0 0
vn 1 0 0
vn 1 0 0
vn 1 0 0
vn 1 0 0
vn 1 0 0
vn 1 0 0
vn 1 0 0
vn 1 0 0
vn 1 0 0
vn 1 0 0
vn 1 0 0
vn 1 0 0
vn 1 0 0
vn 1 0 0
vn 1 0 0
vn 1 0 0
vn 1 0 0
vn 1 0 0
vn 1 0 0
vn 1 0 0
vn 1 0 0
vn 1 0 0
vn 1 0 0
vn 1 0 0
vn 1 0 0
vn 1 0 0
vn 0 -1 0
vn 0 -1 0
vn 0 -1 0
vn 0 -1 0
vn 0 -1 0
vn 0 -1 0
vn 0 -1 0
vn 0 -1 0
vn 0 -1 0
vn 0 -1 0
vn 0 -1 0
vn 0 -1 0
vn 0 -1 0
vn 0 -1 0
vn 0 -1 0
vn 0 -1 0
vn 0 -1 0
vn 0 -1 0
vn 0 -1 0
vn 0 -1 0
vn 0 -1 0
vn 0 -1 0
vn 0 -1 0
vn 0 -1 0
vn 0 -1 0
vn 0 -1 0
vn 0 -1 0
vn 0 -1 0
vn 0 -1 0
vn 0 -1 0
vn 0 -1 0
vn 0 -1 0
vn 0 -1 0
vn 0 -1 0
vn 0 -1 0
vn 0 -1 0
vn 0 -1 0
vn 0 -1 0
vn 0 -1 0
vn 0 -1 0
vn 0 -1 0
vn 0 -1 0
vn 0 -1 0
vn 0 -1 0
vn 0 -1 0
vn 0 -1 0
vn 0 -1 0
vn 0 -1 0
vn 0 -1 0
vn 0 -1 0
vn 0 -1 0
vn 0 -1 0
vn 0 -1 0
vn 0 -1 0
vn 0 -1 0
vn 0 -1 0
vn 0 -1 0
vn 0 -1 0
vn 0 -1 0
vn 0 -1 0
vn 0 -1 0
vn 0 -1 0
vn 0 -1 0
vn 0 -1 0
vn 0 -1 0
vn 0 -1 0
vn 0 -1 0
vn 0 -1 0
vn 0 -1 0
vn 0 -1 0
vn 0 1 0
vn 0 1 0
vn 0 1 0
vn 0 1 0
vn 0 1 0
vn 0 1 0
vn 0 1 0
vn 0 1 0
vn 0 1 0
vn 0 1 0
vn 0 1 0
vn 0 1 0
vn 0 1 0
vn 0 1 0
vn 0 1 0
vn 0 1 0
vn 0 1 0
vn 0 1 0
vn 0 1 0
vn 0 1 0
vn 0 1 0
vn 0 1 0
vn 0 1 0
vn 0 1 0
vn 0 1 0
vn 0 1 0
vn 0 1 0
vn 0 1 0
vn 0 1 0
vn 0 1 0
vn 0 1 0
vn 0 1 0
vn 0 1 0
vn 0 1 0
vn 0 1 0
vn 0 1 0
vn 0 1 0
vn 0 1 0
vn 0 1 0
vn 0 1 0
vn 0 1 0
vn 0 1 0
vn 0 1 0
vn 0 1 0
vn 0 1 0
vn 0 1 0
vn 0 1 0
vn 0 1 0
vn 0 1 0
vn 0 1 0
vn 0 1 0
vn 0 1 0
vn 0 1 0
vn 0 1 0
vn 0 1 0
vn 0 1 0
vn 0 1 0
vn 0 1 0
vn 0 1 0
vn 0 1 0
vn 0 1 0
vn 0 1 0
vn 0 1 0
vn 0 1 0
vn 0 1 0
vn 0 1 0
vn 0 1 0
vn 0 1 0
vn 0 1 0
vn 0 1 0
vn 0 0 1
vn 0 0 1
vn 0 0 1
vn 0 0 1
vn 0 0 1
vn 0 0 1
vn 0 0 1
vn 0 0 1
vn 0 0 1
vn 0 0 1
vn 0 0 1
vn 0 0 1
vn 0 0 1
vn 0 0 1
vn 0 0 1
vn 0 0 1
vn 0 0 1
vn 0 0 1
vn 0 0 1
vn 0 0 1
vn 0 0 1
vn 0 0 1
vn 0 0 1
vn 0 0 1
vn 0 0 1
vn 0 0 1
vn 0 0 1
vn 0 0 1
vn 0 0 -1
vn 0 0 -1
vn 0 0 -1
vn 0 0 -1
vn 0 0 -1
vn 0 0 -1
vn 0 0 -1
vn 0 0 -1
vn 0 0 -1
vn 0 0 -1
vn 0 0 -1
vn 0 0 -1
vn 0 0 -1
vn 0 0 -1
vn 0 0 -1
vn 0 0 -1
vn 0 0 -1
vn 0 0 -1
vn 0 0 -1
vn 0 0 -1
vn 0 0 -1
vn 0 0 -1
vn 0 0 -1
vn 0 0 -1
vn 0 0 -1
vn 0 0 -1
vn 0 0 -1
vn 0 0 -1
vt 0.4000262 0.1500157
vt 0.4399869 0.1500157
vt 0.4399869 0.9833018
vt 0.4000131 0.9833176
vt 0.8799434 0.08332155
vt 0.8400283 0.08332155
vt 0.8400283 0.06669024
vt 0.8799717 0.06667845
vt 0.8799434 0.08332155
vt 0.8400283 0.08332155
vt 0.8400283 0.06669024
vt 0.8799717 0.06667845
vt 0.8799434 0.08332155
vt 0.8400283 0.08332155
vt 0.8400283 0.06669024
vt 0.8799717 0.06667845
vt 0.8799434 0.08332155
vt 0.8400283 0.08332155
vt 0.8400283 0.06669024
vt 0.8799717 0.06667845
vt 0.8799434 0.08332155
vt 0.8400283 0.08332155
vt 0.8400283 0.06669024
vt 0.8799717 0.06667845
vt 0.8799434 0.08332155
vt 0.8400283 0.08332155
vt 0.8400283 0.06669024
vt 0.8799717 0.06667845
vt 0.8400283 0.06669024
vt 0.8400283 0.08332155
vt 0.8799434 0.08332155
vt 0.8799717 0.06667845
vt 0.8400283 0.06669024
vt 0.8400283 0.08332155
vt 0.8799434 0.08332155
vt 0.8799717 0.06667845
vt 0.8400283 0.06669024
vt 0.8400283 0.08332155
vt 0.8799434 0.08332155
vt 0.8799717 0.06667845
vt 0.8400283 0.06669024
vt 0.8400283 0.08332155
vt 0.8799434 0.08332155
vt 0.8799717 0.06667845
vt 0.8400283 0.06669024
vt 0.8400283 0.08332155
vt 0.8799434 0.08332155
vt 0.8799717 0.06667845
vt 0.8400283 0.06669024
vt 0.8400283 0.08332155
vt 0.8799434 0.08332155
vt 0.8799717 0.06667845
vt 0.9200283 0.7333569
vt 0.9200283 0.7499882
vt 0.9599434 0.7499882
vt 0.9599717 0.7333451
vt 0.8800263 0.06669176
vt 0.8800263 0.08332079
vt 0.926614 0.08332079
vt 0.04002485 0.983308
vt 0.3199503 0.166679
vt 0.04002485 0.1500131
vt 0.2400258 0.9666539
vt 0.2400258 0.166693
vt 0.5199484 0.9833198
vt 0.9599744 0.01667947
vt 0.6400512 0.01667947
vt 0.9599744 0.816641
vt 0.8800263 0.06667921
vt 0.8800263 0.08330825
vt 0.926614 0.06667921
vt 0.6066417 0.09997397
vt 0.6066417 0.08334634
vt 0.5533833 0.08334634
vt 0.6400246 0.1666798
vt 0.8799508 0.1666798
vt 0.6400246 0.9666404
vt 0.8400283 0.06669024
vt 0.8400283 0.08332155
vt 0.8799434 0.08332155
vt 0.8799717 0.06667845
vt 0.7599754 0.9833071
vt 0.7599754 0.1833465
vt 0.5200493 0.1833465
vt 0.9599744 0.01667947
vt 0.6400512 0.01667947
vt 0.9599744 0.816641
vt 0.8799717 0.06667845
vt 0.8400566 0.06667845
vt 0.8799717 0.08330976
vt 0.8400283 0.08332155
vt 0.6066417 0.09997397
vt 0.6066417 0.08334634
vt 0.5533833 0.08334634
vt 0.6400246 0.1666798
vt 0.8799508 0.1666798
vt 0.6400246 0.9666404
vt 0.8400283 0.06669024
vt 0.8400283 0.08332155
vt 0.8799434 0.08332155
vt 0.8799717 0.06667845
vt 0.7599754 0.9833071
vt 0.7599754 0.1833465
vt 0.5200493 0.1833465
vt 0.9599744 0.01667947
vt 0.6400512 0.01667947
vt 0.9599744 0.816641
vt 0.8799717 0.06667845
vt 0.8400566 0.06667845
vt 0.8799717 0.08330976
vt 0.8400283 0.08332155
vt 0.6066417 0.09997397
vt 0.6066417 0.08334634
vt 0.5533833 0.08334634
vt 0.6400253 0.1666796
vt 0.8799495 0.1500137
vt 0.6400253 0.96664
vt 0.8799717 0.06667845
vt 0.8400566 0.06667845
vt 0.8799717 0.08330976
vt 0.1200486 0.1666791
vt 0.3599757 0.9833077
vt 0.3599757 0.1500132
vt 0.8799717 0.08332155
vt 0.8799717 0.06669024
vt 0.8400566 0.08332155
vt 0.926614 0.08332079
vt 0.8800263 0.08332079
vt 0.8800263 0.06669176
vt 0.04002485 0.1500131
vt 0.3199503 0.166679
vt 0.04002485 0.983308
vt 0.5199484 0.9833198
vt 0.2400258 0.166693
vt 0.2400258 0.9666539
vt 0.9599744 0.816641
vt 0.6400512 0.01667947
vt 0.9599744 0.01667947
vt 0.926614 0.06667921
vt 0.8800263 0.08330825
vt 0.8800263 0.06667921
vt 0.6400512 0.01667947
vt 0.9599744 0.01667947
vt 0.9599744 0.816641
vt 0.6400246 0.9666404
vt 0.8799508 0.1666798
vt 0.6400246 0.1666798
vt 0.8799434 0.08332155
vt 0.8400283 0.08332155
vt 0.8400283 0.06669024
vt 0.8799717 0.06667845
vt 0.5200493 0.1833465
vt 0.7599754 0.1833465
vt 0.7599754 0.9833071
vt 0.9599744 0.816641
vt 0.6400512 0.01667947
vt 0.9599744 0.01667947
vt 0.8799717 0.08330976
vt 0.8400566 0.06667845
vt 0.8799717 0.06667845
vt 0.8400283 0.08332155
vt 0.6400512 0.01667947
vt 0.9599744 0.01667947
vt 0.9599744 0.816641
vt 0.6400246 0.9666404
vt 0.8799508 0.1666798
vt 0.6400246 0.1666798
vt 0.8799434 0.08332155
vt 0.8400283 0.08332155
vt 0.8400283 0.06669024
vt 0.8799717 0.06667845
vt 0.5200493 0.1833465
vt 0.7599754 0.1833465
vt 0.7599754 0.9833071
vt 0.9599744 0.816641
vt 0.6400512 0.01667947
vt 0.9599744 0.01667947
vt 0.8799717 0.08330976
vt 0.8400566 0.06667845
vt 0.8799717 0.06667845
vt 0.8400283 0.08332155
vt 0.6400512 0.01667947
vt 0.9599744 0.01667947
vt 0.9599744 0.816641
vt 0.6400253 0.96664
vt 0.8799495 0.1500137
vt 0.6400253 0.1666796
vt 0.8799717 0.08330976
vt 0.8400566 0.06667845
vt 0.8799717 0.06667845
vt 0.3599757 0.1500132
vt 0.3599757 0.9833077
vt 0.1200486 0.1666791
vt 0.8400566 0.08332155
vt 0.8799717 0.06669024
vt 0.8799717 0.08332155
vt 0.926614 0.08332079
vt 0.8800263 0.08332079
vt 0.8800263 0.06669176
vt 0.9266403 0.06667921
vt 0.8799434 0.08332155
vt 0.8400283 0.08332155
vt 0.8400283 0.06669024
vt 0.8799717 0.06667845
vt 0.8799434 0.08332155
vt 0.8400283 0.08332155
vt 0.8400283 0.06669024
vt 0.8799717 0.06667845
vt 0.8799434 0.08332155
vt 0.8400283 0.08332155
vt 0.8400283 0.06669024
vt 0.8799717 0.06667845
vt 0.5533833 0.08334634
vt 0.6066417 0.08334634
vt 0.6066417 0.09997397
vt 0.5533583 0.09998699
vt 0.5533833 0.08334634
vt 0.6066417 0.08334634
vt 0.6066417 0.09997397
vt 0.5533583 0.09998699
vt 0.5533833 0.08334634
vt 0.6066417 0.08334634
vt 0.6066417 0.09997397
vt 0.5533583 0.09998699
vt 0.6066417 0.09997397
vt 0.6066417 0.08334634
vt 0.5533833 0.08334634
vt 0.5533583 0.09998699
vt 0.6066417 0.09997397
vt 0.6066417 0.08334634
vt 0.5533833 0.08334634
vt 0.5533583 0.09998699
vt 0.6066417 0.09997397
vt 0.6066417 0.08334634
vt 0.5533833 0.08334634
vt 0.5533583 0.09998699
vt 0.8800263 0.06669176
vt 0.8800263 0.08332079
vt 0.926614 0.08332079
vt 0.9266403 0.06667921
vt 0.8400283 0.06669024
vt 0.8400283 0.08332155
vt 0.8799434 0.08332155
vt 0.8799717 0.06667845
vt 0.8400283 0.06669024
vt 0.8400283 0.08332155
vt 0.8799434 0.08332155
vt 0.8799717 0.06667845
vt 0.8400283 0.06669024
vt 0.8400283 0.08332155
vt 0.8799434 0.08332155
vt 0.8799717 0.06667845
usemtl EGA_Seaport_05_texture0
f 3/3/3 2/2/2 1/1/1
f 4/4/4 3/3/3 1/1/1
f 7/7/7 6/6/6 5/5/5
f 8/8/8 7/7/7 5/5/5
f 11/11/11 10/10/10 9/9/9
f 12/12/12 11/11/11 9/9/9
f 15/15/15 14/14/14 13/13/13
f 16/16/16 15/15/15 13/13/13
f 19/19/19 18/18/18 17/17/17
f 20/20/20 19/19/19 17/17/17
f 23/23/23 22/22/22 21/21/21
f 24/24/24 23/23/23 21/21/21
f 27/27/27 26/26/26 25/25/25
f 28/28/28 27/27/27 25/25/25
f 31/31/31 30/30/30 29/29/29
f 31/31/31 29/29/29 32/32/32
f 35/35/35 34/34/34 33/33/33
f 35/35/35 33/33/33 36/36/36
f 39/39/39 38/38/38 37/37/37
f 39/39/39 37/37/37 40/40/40
f 43/43/43 42/42/42 41/41/41
f 43/43/43 41/41/41 44/44/44
f 47/47/47 46/46/46 45/45/45
f 47/47/47 45/45/45 48/48/48
f 51/51/51 50/50/50 49/49/49
f 51/51/51 49/49/49 52/52/52
f 55/55/55 54/54/54 53/53/53
f 55/55/55 53/53/53 56/56/56
f 59/59/59 58/58/58 57/57/57
f 62/62/62 61/61/61 60/60/60
f 65/65/65 64/64/64 63/63/63
f 68/68/68 67/67/67 66/66/66
f 71/71/71 70/70/70 69/69/69
f 74/74/74 73/73/73 72/72/72
f 77/77/77 76/76/76 75/75/75
f 80/80/80 79/79/79 78/78/78
f 80/80/80 78/78/78 81/81/81
f 84/84/84 83/83/83 82/82/82
f 87/87/87 86/86/86 85/85/85
f 90/90/90 89/89/89 88/88/88
f 90/90/90 91/91/91 89/89/89
f 94/94/94 93/93/93 92/92/92
f 97/97/97 96/96/96 95/95/95
f 100/100/100 99/99/99 98/98/98
f 100/100/100 98/98/98 101/101/101
f 104/104/104 103/103/103 102/102/102
f 107/107/107 106/106/106 105/105/105
f 110/110/110 109/109/109 108/108/108
f 110/110/110 111/111/111 109/109/109
f 114/114/114 113/113/113 112/112/112
f 117/117/117 116/116/116 115/115/115
f 120/120/120 119/119/119 118/118/118
f 123/123/123 122/122/122 121/121/121
f 126/126/126 125/125/125 124/124/124
f 129/129/129 128/128/128 127/127/127
f 132/132/132 131/131/131 130/130/130
f 135/135/135 134/134/134 133/133/133
f 138/138/138 137/137/137 136/136/136
f 141/141/141 140/140/140 139/139/139
f 144/144/144 143/143/143 142/142/142
f 147/147/147 146/146/146 145/145/145
f 150/150/150 149/149/149 148/148/148
f 151/151/151 150/150/150 148/148/148
f 154/154/154 153/153/153 152/152/152
f 157/157/157 156/156/156 155/155/155
f 160/160/160 159/159/159 158/158/158
f 159/159/159 161/161/161 158/158/158
f 164/164/164 163/163/163 162/162/162
f 167/167/167 166/166/166 165/165/165
f 170/170/170 169/169/169 168/168/168
f 171/171/171 170/170/170 168/168/168
f 174/174/174 173/173/173 172/172/172
f 177/177/177 176/176/176 175/175/175
f 180/180/180 179/179/179 178/178/178
f 179/179/179 181/181/181 178/178/178
f 184/184/184 183/183/183 182/182/182
f 187/187/187 186/186/186 185/185/185
f 190/190/190 189/189/189 188/188/188
f 193/193/193 192/192/192 191/191/191
f 196/196/196 195/195/195 194/194/194
f 199/199/199 198/198/198 197/197/197
f 200/200/200 199/199/199 197/197/197
f 203/203/203 202/202/202 201/201/201
f 204/204/204 203/203/203 201/201/201
f 207/207/207 206/206/206 205/205/205
f 208/208/208 207/207/207 205/205/205
f 211/211/211 210/210/210 209/209/209
f 212/212/212 211/211/211 209/209/209
f 215/215/215 214/214/214 213/213/213
f 216/216/216 215/215/215 213/213/213
f 219/219/219 218/218/218 217/217/217
f 220/220/220 219/219/219 217/217/217
f 223/223/223 222/222/222 221/221/221
f 224/224/224 223/223/223 221/221/221
f 227/227/227 226/226/226 225/225/225
f 227/227/227 225/225/225 228/228/228
f 231/231/231 230/230/230 229/229/229
f 231/231/231 229/229/229 232/232/232
f 235/235/235 234/234/234 233/233/233
f 235/235/235 233/233/233 236/236/236
f 239/239/239 238/238/238 237/237/237
f 239/239/239 237/237/237 240/240/240
f 243/243/243 242/242/242 241/241/241
f 243/243/243 241/241/241 244/244/244
f 247/247/247 246/246/246 245/245/245
f 247/247/247 245/245/245 248/248/248
f 251/251/251 250/250/250 249/249/249
f 251/251/251 249/249/249 252/252/252
