mtllib EGA_Cloud_06.mtl
g default
v -0.1 3.1 -0.7
v -0.1 2.7 -0.7
v -0.1 2.7 -1.9
v -0.1 2.7 -1.9
v -0.1 3.1 -2.3
v -0.1 1.5 -1.9
v -0.1 2.7 -1.9
v -0.1 -0.1 -2.3
v -0.1 1.5 -1.9
v -0.1 -0.1 -0.7
v -0.1 1.5 -1.9
v -0.1 1.5 -1.9
v -0.1 1.5 -0.7
v -3.3 3.1 2.5
v -3.3 1.5 2.5
v -3.3 1.5 0.9
v -3.3 3.1 0.9
v -1.3 2.7 -0.7
v -1.3 1.5 -0.7
v -1.3 1.5 -1.9
v -1.3 2.7 -1.9
v 1.5 0.9 -3.5
v 1.5 1.5 -3.9
v 1.5 1.5 -3.5
v 1.5 -0.1 -3.9
v 1.5 0.9 -3.5
v 1.5 -0.1 -2.3
v 1.5 0.9 -3.5
v 1.5 0.9 -3.5
v 1.5 0.9 -2.3
v -1.7 3.1 0.9
v -1.7 1.5 0.9
v -1.7 1.5 -0.3
v -1.7 1.5 -0.3
v -1.7 3.1 -0.7
v -1.7 1.5 -0.3
v -1.7 -0.1 -0.7
v -1.7 0.3 -0.3
v -1.7 1.5 -0.3
v -1.7 -0.1 0.9
v -1.7 0.3 -0.3
v -1.7 0.3 -0.3
v -1.7 0.3 0.9
v -4.9 1.5 2.5
v -4.9 -0.1 2.5
v -4.9 -0.1 0.9
v -4.9 1.5 0.9
v 0.9 2.1 -2.3
v 0.9 0.9 -2.3
v 0.9 0.9 -3.5
v 0.9 2.1 -3.5
v -2.9 1.5 0.9
v -2.9 0.3 0.9
v -2.9 0.3 -0.3
v -2.9 1.5 -0.3
v 3.1 1.5 -2.3
v 3.1 1.5 -0.7
v 3.1 3.1 -0.7
v 3.1 3.1 -2.3
v 3.1 1.5 -2.3
v 3.1 -0.1 -3.9
v 3.1 1.5 -0.7
v 3.1 1.5 -3.9
v 3.1 1.5 -2.3
v 3.1 1.5 -0.7
v 3.1 -0.1 2.5
v 3.1 1.5 2.5
v 3.1 1.5 -0.7
v 2.7 1.5 -0.7
v 2.7 1.5 0.5
v 2.7 2.7 0.5
v 2.7 2.7 -0.7
v 2.1 1.5 -3.5
v 2.1 1.5 -2.3
v 2.1 2.1 -2.3
v 2.1 2.1 -3.5
v 1.5 2.7 0.5
v 1.5 1.5 2.5
v 1.5 3.1 2.5
v 1.5 1.5 0.5
v 1.5 2.7 0.5
v 1.5 3.1 -0.7
v 1.5 2.7 0.5
v 1.5 2.7 -0.7
v 1.5 2.7 0.5
v -1.7 -0.1 0.9
v -4.9 -0.1 2.5
v 3.1 -0.1 2.5
v -4.9 -0.1 0.9
v -1.7 -0.1 0.9
v -0.1 -0.1 -0.7
v -1.7 -0.1 0.9
v 1.5 -0.1 -2.3
v -0.1 -0.1 -0.7
v 3.1 -0.1 -3.9
v 1.5 -0.1 -2.3
v 1.5 -0.1 -3.9
v 1.5 -0.1 -2.3
v -1.7 -0.1 -0.7
v -1.7 -0.1 0.9
v -0.1 -0.1 -0.7
v -0.1 -0.1 -2.3
v -0.1 -0.1 -0.7
v 1.5 -0.1 -2.3
v -1.3 1.5 -1.9
v -1.3 1.5 -0.7
v -0.1 1.5 -0.7
v -0.1 1.5 -1.9
v 0.9 0.9 -3.5
v 0.9 0.9 -2.3
v 1.5 0.9 -2.3
v 1.5 0.9 -3.5
v -2.9 0.3 -0.3
v -2.9 0.3 0.9
v -1.7 0.3 0.9
v -1.7 0.3 -0.3
v 1.5 3.1 -0.7
v 3.1 3.1 -2.3
v 3.1 3.1 -0.7
v -0.1 3.1 -2.3
v 1.5 3.1 -0.7
v 1.5 3.1 -0.7
v -0.1 3.1 -0.7
v 1.5 3.1 2.5
v -0.1 3.1 -0.7
v 1.5 3.1 -0.7
v -1.7 3.1 0.9
v -0.1 3.1 -0.7
v -3.3 3.1 2.5
v -1.7 3.1 0.9
v -1.7 3.1 0.9
v -3.3 3.1 0.9
v -0.1 3.1 -0.7
v -1.7 3.1 0.9
v -1.7 3.1 -0.7
v 2.7 2.7 0.5
v 1.5 2.7 0.5
v 1.5 2.7 -0.7
v 2.7 2.7 -0.7
v -0.1 2.7 -0.7
v -1.3 2.7 -0.7
v -1.3 2.7 -1.9
v -0.1 2.7 -1.9
v 2.1 2.1 -2.3
v 0.9 2.1 -2.3
v 0.9 2.1 -3.5
v 2.1 2.1 -3.5
v 3.1 1.5 2.5
v 1.5 1.5 2.5
v 2.7 1.5 0.5
v 2.7 1.5 0.5
v 1.5 1.5 0.5
v 2.7 1.5 0.5
v 3.1 1.5 -0.7
v 2.7 1.5 0.5
v 2.7 1.5 -0.7
v 3.1 1.5 -2.3
v 2.1 1.5 -2.3
v 2.1 1.5 -3.5
v 2.1 1.5 -3.5
v 3.1 1.5 -3.9
v 2.1 1.5 -3.5
v 1.5 1.5 -3.9
v 2.1 1.5 -3.5
v 1.5 1.5 -3.5
v -1.7 1.5 0.9
v -2.9 1.5 0.9
v -2.9 1.5 -0.3
v -1.7 1.5 -0.3
v -3.3 1.5 2.5
v -4.9 1.5 2.5
v -4.9 1.5 0.9
v -3.3 1.5 0.9
v 2.7 1.5 0.5
v 1.5 1.5 0.5
v 1.5 2.7 0.5
v 2.7 2.7 0.5
v 3.1 -0.1 2.5
v -4.9 -0.1 2.5
v 1.5 1.5 2.5
v 1.5 1.5 2.5
v -3.3 1.5 2.5
v 1.5 1.5 2.5
v 3.1 1.5 2.5
v -3.3 1.5 2.5
v -4.9 1.5 2.5
v 1.5 1.5 2.5
v -3.3 1.5 2.5
v -3.3 3.1 2.5
v 1.5 3.1 2.5
v 3.1 1.5 -0.7
v 2.7 1.5 -0.7
v 2.7 2.7 -0.7
v 2.7 2.7 -0.7
v 3.1 3.1 -0.7
v 2.7 2.7 -0.7
v 1.5 3.1 -0.7
v 2.7 2.7 -0.7
v 1.5 2.7 -0.7
v -2.9 0.3 0.9
v -4.9 -0.1 0.9
v -1.7 -0.1 0.9
v -3.3 1.5 0.9
v -2.9 0.3 0.9
v -1.7 0.3 0.9
v -2.9 0.3 0.9
v -4.9 1.5 0.9
v -3.3 1.5 0.9
v -2.9 1.5 0.9
v -3.3 1.5 0.9
v -2.9 0.3 0.9
v -3.3 3.1 0.9
v -3.3 1.5 0.9
v -2.9 1.5 0.9
v -2.9 1.5 0.9
v -1.7 3.1 0.9
v -1.7 1.5 0.9
v -2.9 1.5 0.9
v 2.1 2.1 -2.3
v 2.1 1.5 -2.3
v 3.1 1.5 -2.3
v 3.1 3.1 -2.3
v 2.1 2.1 -2.3
v -0.1 3.1 -2.3
v 2.1 2.1 -2.3
v 2.1 2.1 -2.3
v 0.9 2.1 -2.3
v 0.9 2.1 -2.3
v 0.9 0.9 -2.3
v -0.1 -0.1 -2.3
v 0.9 0.9 -2.3
v 0.9 0.9 -2.3
v 1.5 -0.1 -2.3
v 1.5 0.9 -2.3
v 0.9 0.9 -2.3
v -1.3 2.7 -1.9
v -1.3 1.5 -1.9
v -0.1 1.5 -1.9
v -0.1 2.7 -1.9
v 1.5 1.5 -3.9
v 1.5 -0.1 -3.9
v 3.1 -0.1 -3.9
v 3.1 1.5 -3.9
v -1.3 1.5 -0.7
v -1.7 -0.1 -0.7
v -0.1 -0.1 -0.7
v -1.7 3.1 -0.7
v -1.3 1.5 -0.7
v -0.1 1.5 -0.7
v -1.3 1.5 -0.7
v -1.3 2.7 -0.7
v -1.3 1.5 -0.7
v -1.3 2.7 -0.7
v -0.1 3.1 -0.7
v -0.1 2.7 -0.7
v -1.3 2.7 -0.7
v 2.1 1.5 -3.5
v 2.1 2.1 -3.5
v 1.5 1.5 -3.5
v 1.5 1.5 -3.5
v 0.9 2.1 -3.5
v 1.5 1.5 -3.5
v 0.9 0.9 -3.5
v 1.5 0.9 -3.5
v 1.5 1.5 -3.5
v -2.9 1.5 -0.3
v -2.9 0.3 -0.3
v -1.7 0.3 -0.3
v -1.7 1.5 -0.3
vn -1 0 0
vn -1 0 0
vn -1 0 0
vn -1 0 0
vn -1 0 0
vn -1 0 0
vn -1 0 0
vn -1 0 0
vn -1 0 0
vn -1 0 0
vn -1 0 0
vn -1 0 0
vn -1 0 0
vn -1 0 0
vn -1 0 0
vn -1 0 0
vn -1 0 0
vn -1 0 0
vn -1 0 0
vn -1 0 0
vn -1 0 0
vn -1 0 0
vn -1 0 0
vn -1 0 0
vn -1 0 0
vn -1 0 0
vn -1 0 0
vn -1 0 0
vn -1 0 0
vn -1 0 0
vn -1 0 0
vn -1 0 0
vn -1 0 0
vn -1 0 0
vn -1 0 0
vn -1 0 0
vn -1 0 0
vn -1 0 0
vn -1 0 0
vn -1 0 0
vn -1 0 0
vn -1 0 0
vn -1 0 0
vn -1 0 0
vn -1 0 0
vn -1 0 0
vn -1 0 0
vn -1 0 0
vn -1 0 0
vn -1 0 0
vn -1 0 0
vn -1 0 0
vn -1 0 0
vn -1 0 0
vn -1 0 0
vn 1 0 0
vn 1 0 0
vn 1 0 0
vn 1 0 0
vn 1 0 0
vn 1 0 0
vn 1 0 0
vn 1 0 0
vn 1 0 0
vn 1 0 0
vn 1 0 0
vn 1 0 0
vn 1 0 0
vn 1 0 0
vn 1 0 0
vn 1 0 0
vn 1 0 0
vn 1 0 0
vn 1 0 0
vn 1 0 0
vn 1 0 0
vn 1 0 0
vn 1 0 0
vn 1 0 0
vn 1 0 0
vn 1 0 0
vn 1 0 0
vn 1 0 0
vn 1 0 0
vn 1 0 0
vn 0 -1 0
vn 0 -1 0
vn 0 -1 0
vn 0 -1 0
vn 0 -1 0
vn 0 -1 0
vn 0 -1 0
vn 0 -1 0
vn 0 -1 0
vn 0 -1 0
vn 0 -1 0
vn 0 -1 0
vn 0 -1 0
vn 0 -1 0
vn 0 -1 0
vn 0 -1 0
vn 0 -1 0
vn 0 -1 0
vn 0 -1 0
vn 0 -1 0
vn 0 -1 0
vn 0 -1 0
vn 0 -1 0
vn 0 -1 0
vn 0 -1 0
vn 0 -1 0
vn 0 -1 0
vn 0 -1 0
vn 0 -1 0
vn 0 -1 0
vn 0 -1 0
vn 0 1 0
vn 0 1 0
vn 0 1 0
vn 0 1 0
vn 0 1 0
vn 0 1 0
vn 0 1 0
vn 0 1 0
vn 0 1 0
vn 0 1 0
vn 0 1 0
vn 0 1 0
vn 0 1 0
vn 0 1 0
vn 0 1 0
vn 0 1 0
vn 0 1 0
vn 0 1 0
vn 0 1 0
vn 0 1 0
vn 0 1 0
vn 0 1 0
vn 0 1 0
vn 0 1 0
vn 0 1 0
vn 0 1 0
vn 0 1 0
vn 0 1 0
vn 0 1 0
vn 0 1 0
vn 0 1 0
vn 0 1 0
vn 0 1 0
vn 0 1 0
vn 0 1 0
vn 0 1 0
vn 0 1 0
vn 0 1 0
vn 0 1 0
vn 0 1 0
vn 0 1 0
vn 0 1 0
vn 0 1 0
vn 0 1 0
vn 0 1 0
vn 0 1 0
vn 0 1 0
vn 0 1 0
vn 0 1 0
vn 0 1 0
vn 0 1 0
vn 0 1 0
vn 0 1 0
vn 0 1 0
vn 0 1 0
vn 0 1 0
vn 0 1 0
vn 0 0 1
vn 0 0 1
vn 0 0 1
vn 0 0 1
vn 0 0 1
vn 0 0 1
vn 0 0 1
vn 0 0 1
vn 0 0 1
vn 0 0 1
vn 0 0 1
vn 0 0 1
vn 0 0 1
vn 0 0 1
vn 0 0 1
vn 0 0 1
vn 0 0 1
vn 0 0 1
vn 0 0 1
vn 0 0 1
vn 0 0 1
vn 0 0 1
vn 0 0 1
vn 0 0 1
vn 0 0 1
vn 0 0 1
vn 0 0 -1
vn 0 0 -1
vn 0 0 -1
vn 0 0 -1
vn 0 0 -1
vn 0 0 -1
vn 0 0 -1
vn 0 0 -1
vn 0 0 -1
vn 0 0 -1
vn 0 0 -1
vn 0 0 -1
vn 0 0 -1
vn 0 0 -1
vn 0 0 -1
vn 0 0 -1
vn 0 0 -1
vn 0 0 -1
vn 0 0 -1
vn 0 0 -1
vn 0 0 -1
vn 0 0 -1
vn 0 0 -1
vn 0 0 -1
vn 0 0 -1
vn 0 0 -1
vn 0 0 -1
vn 0 0 -1
vn 0 0 -1
vn 0 0 -1
vn 0 0 -1
vn 0 0 -1
vn 0 0 -1
vn 0 0 -1
vn 0 0 -1
vn 0 0 -1
vn 0 0 -1
vn 0 0 -1
vn 0 0 -1
vn 0 0 -1
vn 0 0 -1
vn 0 0 -1
vn 0 0 -1
vn 0 0 -1
vn 0 0 -1
vn 0 0 -1
vn 0 0 -1
vn 0 0 -1
vn 0 0 -1
vn 0 0 -1
vn 0 0 -1
vn 0 0 -1
vn 0 0 -1
vn 0 0 -1
vn 0 0 -1
vn 0 0 -1
vn 0 0 -1
vn 0 0 -1
vn 0 0 -1
vn 0 0 -1
vn 0 0 -1
vn 0 0 -1
vn 0 0 -1
vn 0 0 -1
vn 0 0 -1
vn 0 0 -1
vn 0 0 -1
vn 0 0 -1
vn 0 0 -1
vn 0 0 -1
vt 0.3338047 0.333569
vt 0.666431 0.333569
vt 0.666431 0.6661953
vt 0.6662502 0.5832292
vt 0.3335416 0.6664064
vt 0.6661449 0.3336315
vt 0.4168157 0.3336315
vt 0.6663893 0.6664818
vt 0.5 0.3337031
vt 0.6664584 0.3336977
vt 0.3337498 0.5832292
vt 0.333569 0.6661953
vt 0.333569 0.333569
vt 0.3338047 0.333569
vt 0.666431 0.333569
vt 0.666431 0.6661953
vt 0.333569 0.666431
vt 0.3338047 0.333569
vt 0.666431 0.333569
vt 0.666431 0.6661953
vt 0.333569 0.666431
vt 0.6661953 0.333569
vt 0.333569 0.6661953
vt 0.333569 0.333569
vt 0.6663481 0.6664706
vt 0.4583823 0.3337255
vt 0.6664584 0.3336977
vt 0.3337498 0.5832292
vt 0.333569 0.6661953
vt 0.333569 0.333569
vt 0.3338047 0.333569
vt 0.666431 0.333569
vt 0.666431 0.6661953
vt 0.6662502 0.5832292
vt 0.3335416 0.6664064
vt 0.5 0.3337031
vt 0.6663893 0.6664818
vt 0.5831842 0.3336315
vt 0.3338551 0.3336315
vt 0.6664584 0.3336977
vt 0.3337498 0.5832292
vt 0.333569 0.6661953
vt 0.333569 0.333569
vt 0.3338047 0.333569
vt 0.666431 0.333569
vt 0.666431 0.6661953
vt 0.333569 0.666431
vt 0.3338047 0.333569
vt 0.666431 0.333569
vt 0.666431 0.6661953
vt 0.333569 0.666431
vt 0.3338047 0.333569
vt 0.666431 0.333569
vt 0.666431 0.6661953
vt 0.333569 0.666431
vt 0.666431 0.6661953
vt 0.666431 0.333569
vt 0.3338047 0.333569
vt 0.333569 0.666431
vt 0.3336667 0.5
vt 0.666 0.6661667
vt 0.3336667 0.3338333
vt 0.333569 0.666431
vt 0.333569 0.3338047
vt 0.3337031 0.5
vt 0.6664818 0.3336107
vt 0.333569 0.333569
vt 0.333569 0.6661953
vt 0.666431 0.6661953
vt 0.666431 0.333569
vt 0.3338047 0.333569
vt 0.333569 0.666431
vt 0.666431 0.6661953
vt 0.666431 0.333569
vt 0.3338047 0.333569
vt 0.333569 0.666431
vt 0.4167708 0.6662502
vt 0.6663023 0.3335416
vt 0.3335936 0.3335416
vt 0.666431 0.666431
vt 0.3338047 0.666431
vt 0.3335294 0.6663971
vt 0.6662745 0.5416176
vt 0.666431 0.666431
vt 0.666431 0.3338047
vt 0.5332946 0.6662792
vt 0.6663954 0.3335271
vt 0.3336433 0.3335271
vt 0.666431 0.666431
vt 0.3338047 0.666431
vt 0.5554722 0.6662917
vt 0.6663333 0.5
vt 0.5 0.6663333
vt 0.6662917 0.5554722
vt 0.3335416 0.6664064
vt 0.6662502 0.5832292
vt 0.666431 0.666431
vt 0.666431 0.3338047
vt 0.666431 0.666431
vt 0.666431 0.3338047
vt 0.3338047 0.666431
vt 0.666431 0.666431
vt 0.666431 0.3338047
vt 0.3338047 0.666431
vt 0.666431 0.6661953
vt 0.666431 0.333569
vt 0.3338047 0.333569
vt 0.333569 0.666431
vt 0.666431 0.6661953
vt 0.666431 0.333569
vt 0.3338047 0.333569
vt 0.333569 0.666431
vt 0.666431 0.6661953
vt 0.666431 0.333569
vt 0.3338047 0.333569
vt 0.333569 0.666431
vt 0.6661953 0.333569
vt 0.333569 0.6661953
vt 0.333569 0.333569
vt 0.6663893 0.6664818
vt 0.5 0.3337031
vt 0.3338047 0.333569
vt 0.666431 0.333569
vt 0.333569 0.3338047
vt 0.6661953 0.666431
vt 0.333569 0.666431
vt 0.6663333 0.5
vt 0.5 0.6663333
vt 0.6664 0.3335333
vt 0.5554889 0.6662667
vt 0.3338047 0.666431
vt 0.666431 0.666431
vt 0.3338047 0.666431
vt 0.666431 0.3338047
vt 0.666431 0.666431
vt 0.3338047 0.333569
vt 0.666431 0.333569
vt 0.666431 0.6661953
vt 0.333569 0.666431
vt 0.3338047 0.333569
vt 0.666431 0.333569
vt 0.666431 0.6661953
vt 0.333569 0.666431
vt 0.3338047 0.333569
vt 0.666431 0.333569
vt 0.666431 0.6661953
vt 0.333569 0.666431
vt 0.3335936 0.3335416
vt 0.6663023 0.3335416
vt 0.4167708 0.6662502
vt 0.3338047 0.666431
vt 0.666431 0.666431
vt 0.6662745 0.5416176
vt 0.3335294 0.6663971
vt 0.666431 0.3338047
vt 0.666431 0.666431
vt 0.3338047 0.333569
vt 0.666431 0.333569
vt 0.666431 0.6661953
vt 0.6662502 0.5832292
vt 0.3335416 0.6664064
vt 0.5416176 0.3337255
vt 0.6663971 0.6664706
vt 0.3338047 0.333569
vt 0.666431 0.333569
vt 0.3338047 0.333569
vt 0.666431 0.333569
vt 0.666431 0.6661953
vt 0.333569 0.666431
vt 0.3338047 0.333569
vt 0.666431 0.333569
vt 0.666431 0.6661953
vt 0.333569 0.666431
vt 0.3338047 0.333569
vt 0.666431 0.333569
vt 0.666431 0.6661953
vt 0.333569 0.666431
vt 0.3335894 0.3335467
vt 0.6662825 0.3335467
vt 0.400128 0.6662399
vt 0.3338551 0.6663685
vt 0.5831842 0.6663685
vt 0.6661953 0.666431
vt 0.333569 0.666431
vt 0.3338047 0.666431
vt 0.666431 0.666431
vt 0.3338047 0.333569
vt 0.666431 0.333569
vt 0.666431 0.6661953
vt 0.333569 0.666431
vt 0.3338047 0.333569
vt 0.666431 0.333569
vt 0.666431 0.6661953
vt 0.6662502 0.5832292
vt 0.3335416 0.6664064
vt 0.4167708 0.3337498
vt 0.6663023 0.6664584
vt 0.3338047 0.333569
vt 0.666431 0.333569
vt 0.4583823 0.6662745
vt 0.6663481 0.3335294
vt 0.3336029 0.3335294
vt 0.4001538 0.6662179
vt 0.333641 0.4167949
vt 0.333569 0.666431
vt 0.6661953 0.666431
vt 0.666431 0.666431
vt 0.3338047 0.666431
vt 0.333569 0.666431
vt 0.6661953 0.666431
vt 0.333569 0.3338047
vt 0.666431 0.6661953
vt 0.666431 0.333569
vt 0.3338047 0.333569
vt 0.5832292 0.3337498
vt 0.3336977 0.6664584
vt 0.333569 0.333569
vt 0.6661953 0.333569
vt 0.666431 0.6661953
vt 0.666431 0.333569
vt 0.3338047 0.333569
vt 0.3335294 0.6663481
vt 0.6662745 0.4583823
vt 0.6663257 0.6664646
vt 0.4375758 0.3337374
vt 0.3338464 0.3336653
vt 0.5151213 0.3336653
vt 0.3336653 0.5151213
vt 0.3336653 0.3338464
vt 0.6664646 0.3335985
vt 0.3337374 0.4375758
vt 0.4583823 0.6662745
vt 0.3336029 0.3335294
vt 0.333569 0.666431
vt 0.6661953 0.666431
vt 0.666431 0.6661953
vt 0.666431 0.333569
vt 0.3338047 0.333569
vt 0.333569 0.666431
vt 0.666431 0.6661953
vt 0.666431 0.333569
vt 0.3338047 0.333569
vt 0.333569 0.666431
vt 0.5832292 0.6662502
vt 0.6664064 0.3335416
vt 0.3336977 0.3335416
vt 0.6664818 0.6663893
vt 0.3337031 0.5
vt 0.333569 0.666431
vt 0.6661953 0.666431
vt 0.3336315 0.5831842
vt 0.3336315 0.3338551
vt 0.5832292 0.3337498
vt 0.3336977 0.6664584
vt 0.333569 0.333569
vt 0.6661953 0.333569
vt 0.333569 0.333569
vt 0.333569 0.6661953
vt 0.6661953 0.333569
vt 0.5 0.3337031
vt 0.6663893 0.6664818
vt 0.3337031 0.5
vt 0.6664818 0.3336107
vt 0.333569 0.333569
vt 0.333569 0.6661953
vt 0.666431 0.6661953
vt 0.666431 0.333569
vt 0.3338047 0.333569
vt 0.333569 0.666431
usemtl EGA_Cloud_06_texture0
f 3/3/3 2/2/2 1/1/1
f 5/5/5 4/4/4 1/1/1
f 7/7/7 5/5/5 6/6/6
f 9/9/9 5/5/5 8/8/8
f 11/11/11 8/8/8 10/10/10
f 13/13/13 12/12/12 10/10/10
f 16/16/16 15/15/15 14/14/14
f 17/17/17 16/16/16 14/14/14
f 20/20/20 19/19/19 18/18/18
f 21/21/21 20/20/20 18/18/18
f 24/24/24 23/23/23 22/22/22
f 26/26/26 23/23/23 25/25/25
f 28/28/28 25/25/25 27/27/27
f 30/30/30 29/29/29 27/27/27
f 33/33/33 32/32/32 31/31/31
f 35/35/35 34/34/34 31/31/31
f 35/35/35 37/37/37 36/36/36
f 39/39/39 37/37/37 38/38/38
f 41/41/41 37/37/37 40/40/40
f 43/43/43 42/42/42 40/40/40
f 46/46/46 45/45/45 44/44/44
f 47/47/47 46/46/46 44/44/44
f 50/50/50 49/49/49 48/48/48
f 51/51/51 50/50/50 48/48/48
f 54/54/54 53/53/53 52/52/52
f 55/55/55 54/54/54 52/52/52
f 58/58/58 57/57/57 56/56/56
f 58/58/58 56/56/56 59/59/59
f 62/62/62 61/61/61 60/60/60
f 64/64/64 61/61/61 63/63/63
f 66/66/66 61/61/61 65/65/65
f 66/66/66 68/68/68 67/67/67
f 71/71/71 70/70/70 69/69/69
f 71/71/71 69/69/69 72/72/72
f 75/75/75 74/74/74 73/73/73
f 75/75/75 73/73/73 76/76/76
f 79/79/79 78/78/78 77/77/77
f 81/81/81 78/78/78 80/80/80
f 79/79/79 83/83/83 82/82/82
f 82/82/82 85/85/85 84/84/84
f 88/88/88 87/87/87 86/86/86
f 90/90/90 87/87/87 89/89/89
f 88/88/88 92/92/92 91/91/91
f 88/88/88 94/94/94 93/93/93
f 88/88/88 96/96/96 95/95/95
f 95/95/95 98/98/98 97/97/97
f 101/101/101 100/100/100 99/99/99
f 104/104/104 103/103/103 102/102/102
f 107/107/107 106/106/106 105/105/105
f 107/107/107 105/105/105 108/108/108
f 111/111/111 110/110/110 109/109/109
f 111/111/111 109/109/109 112/112/112
f 115/115/115 114/114/114 113/113/113
f 115/115/115 113/113/113 116/116/116
f 119/119/119 118/118/118 117/117/117
f 121/121/121 118/118/118 120/120/120
f 120/120/120 123/123/123 122/122/122
f 126/126/126 125/125/125 124/124/124
f 128/128/128 127/127/127 124/124/124
f 130/130/130 129/129/129 124/124/124
f 132/132/132 129/129/129 131/131/131
f 135/135/135 134/134/134 133/133/133
f 138/138/138 137/137/137 136/136/136
f 139/139/139 138/138/138 136/136/136
f 142/142/142 141/141/141 140/140/140
f 143/143/143 142/142/142 140/140/140
f 146/146/146 145/145/145 144/144/144
f 147/147/147 146/146/146 144/144/144
f 150/150/150 149/149/149 148/148/148
f 152/152/152 149/149/149 151/151/151
f 154/154/154 153/153/153 148/148/148
f 156/156/156 155/155/155 154/154/154
f 159/159/159 158/158/158 157/157/157
f 161/161/161 160/160/160 157/157/157
f 161/161/161 163/163/163 162/162/162
f 163/163/163 165/165/165 164/164/164
f 168/168/168 167/167/167 166/166/166
f 169/169/169 168/168/168 166/166/166
f 172/172/172 171/171/171 170/170/170
f 173/173/173 172/172/172 170/170/170
f 176/176/176 175/175/175 174/174/174
f 177/177/177 176/176/176 174/174/174
f 180/180/180 179/179/179 178/178/178
f 182/182/182 179/179/179 181/181/181
f 184/184/184 183/183/183 178/178/178
f 186/186/186 179/179/179 185/185/185
f 189/189/189 188/188/188 187/187/187
f 190/190/190 189/189/189 187/187/187
f 193/193/193 192/192/192 191/191/191
f 195/195/195 194/194/194 191/191/191
f 195/195/195 197/197/197 196/196/196
f 197/197/197 199/199/199 198/198/198
f 202/202/202 201/201/201 200/200/200
f 204/204/204 201/201/201 203/203/203
f 202/202/202 206/206/206 205/205/205
f 208/208/208 201/201/201 207/207/207
f 211/211/211 210/210/210 209/209/209
f 214/214/214 213/213/213 212/212/212
f 212/212/212 216/216/216 215/215/215
f 218/218/218 216/216/216 217/217/217
f 221/221/221 220/220/220 219/219/219
f 221/221/221 223/223/223 222/222/222
f 225/225/225 224/224/224 222/222/222
f 227/227/227 224/224/224 226/226/226
f 229/229/229 224/224/224 228/228/228
f 231/231/231 230/230/230 224/224/224
f 233/233/233 230/230/230 232/232/232
f 233/233/233 235/235/235 234/234/234
f 238/238/238 237/237/237 236/236/236
f 238/238/238 236/236/236 239/239/239
f 242/242/242 241/241/241 240/240/240
f 242/242/242 240/240/240 243/243/243
f 246/246/246 245/245/245 244/244/244
f 248/248/248 245/245/245 247/247/247
f 246/246/246 250/250/250 249/249/249
f 252/252/252 247/247/247 251/251/251
f 247/247/247 254/254/254 253/253/253
f 256/256/256 254/254/254 255/255/255
f 259/259/259 258/258/258 257/257/257
f 261/261/261 258/258/258 260/260/260
f 263/263/263 261/261/261 262/262/262
f 263/263/263 265/265/265 264/264/264
f 268/268/268 267/267/267 266/266/266
f 268/268/268 266/266/266 269/269/269
