mtllib EGA_Building_Door_12.mtl
g default
v 0.3000001 3.7 1.3
v 0.3000001 -0.1 1.3
v 0.1000001 -0.1 1.3
v 0.1000001 3.7 1.3
v 0.09999994 1.9 -0.3
v 0.09999994 1.7 -0.3
v -0.1 1.7 -0.3
v -0.1 1.9 -0.3
v 0.09999982 -0.1 -1.3
v 0.2999998 -0.1 -1.3
v 0.2999998 3.7 -1.3
v 0.09999982 3.7 -1.3
v -0.1000001 1.7 -0.8999999
v 0.09999987 1.7 -0.8999999
v 0.09999987 1.9 -0.8999999
v -0.1000001 1.9 -0.8999999
v 0.1000001 -0.1 1.3
v 0.3000001 -0.1 1.3
v 0.2999998 -0.1 -1.3
v 0.09999982 -0.1 -1.3
v -0.1 1.7 -0.3
v 0.09999994 1.7 -0.3
v 0.09999987 1.7 -0.8999999
v -0.1000001 1.7 -0.8999999
v 0.09999987 1.9 -0.8999999
v 0.09999994 1.9 -0.3
v -0.1 1.9 -0.3
v -0.1000001 1.9 -0.8999999
v 0.2999998 3.7 -1.3
v 0.3000001 3.7 1.3
v 0.1000001 3.7 1.3
v 0.09999982 3.7 -1.3
v 0.2999998 -0.1 -1.3
v 0.3000001 -0.1 1.3
v 0.3000001 3.7 1.3
v 0.2999998 -0.1 -1.3
v 0.3000001 3.7 1.3
v 0.2999998 3.7 -1.3
v -0.1 1.9 -0.3
v -0.1 1.7 -0.3
v -0.1000001 1.7 -0.8999999
v -0.1000001 1.9 -0.8999999
v 0.09999982 -0.1 -1.3
v 0.09999994 1.7 -0.3
v 0.1000001 -0.1 1.3
v 0.09999987 1.7 -0.8999999
v 0.09999994 1.7 -0.3
v 0.09999982 -0.1 -1.3
v 0.1000001 3.7 1.3
v 0.1000001 -0.1 1.3
v 0.09999994 1.7 -0.3
v 0.09999982 -0.1 -1.3
v 0.09999987 1.9 -0.8999999
v 0.09999987 1.7 -0.8999999
v 0.09999994 1.9 -0.3
v 0.1000001 3.7 1.3
v 0.09999994 1.7 -0.3
v 0.09999982 3.7 -1.3
v 0.09999987 1.9 -0.8999999
v 0.09999982 -0.1 -1.3
v 0.09999994 1.9 -0.3
v 0.09999982 3.7 -1.3
v 0.1000001 3.7 1.3
v 0.09999987 1.9 -0.8999999
v 0.09999982 3.7 -1.3
v 0.09999994 1.9 -0.3
vn 1.192093E-07 0 0.9999999
vn 1.192093E-07 0 0.9999999
vn 1.192093E-07 0 0.9999999
vn 1.192093E-07 0 0.9999999
vn 1.192093E-07 0 0.9999999
vn 1.192093E-07 0 0.9999999
vn 1.192093E-07 0 0.9999999
vn 1.192093E-07 0 0.9999999
vn -1.192093E-07 0 -0.9999999
vn -1.192093E-07 0 -0.9999999
vn -1.192093E-07 0 -0.9999999
vn -1.192093E-07 0 -0.9999999
vn -1.192093E-07 0 -0.9999999
vn -1.192093E-07 0 -0.9999999
vn -1.192093E-07 0 -0.9999999
vn -1.192093E-07 0 -0.9999999
vn 0 -1 0
vn 0 -1 0
vn 0 -1 0
vn 0 -1 0
vn 0 -1 0
vn 0 -1 0
vn 0 -1 0
vn 0 -1 0
vn 0 1 0
vn 0 1 0
vn 0 1 0
vn 0 1 0
vn 0 1 0
vn 0 1 0
vn 0 1 0
vn 0 1 0
vn 0.9999999 0 -1.192093E-07
vn 0.9999999 0 -1.192093E-07
vn 0.9999999 0 -1.192093E-07
vn 0.9999999 0 -1.192093E-07
vn 0.9999999 0 -1.192093E-07
vn 0.9999999 0 -1.192093E-07
vn -0.9999999 0 1.192093E-07
vn -0.9999999 0 1.192093E-07
vn -0.9999999 0 1.192093E-07
vn -0.9999999 0 1.192093E-07
vn -0.9999999 0 1.192093E-07
vn -0.9999999 0 1.192093E-07
vn -0.9999999 0 1.192093E-07
vn -0.9999999 0 1.192093E-07
vn -0.9999999 0 1.192093E-07
vn -0.9999999 0 1.192093E-07
vn -0.9999999 0 1.192093E-07
vn -0.9999999 0 1.192093E-07
vn -0.9999999 0 1.192093E-07
vn -0.9999999 0 1.192093E-07
vn -0.9999999 0 1.192093E-07
vn -0.9999999 0 1.192093E-07
vn -0.9999999 0 1.192093E-07
vn -0.9999999 0 1.192093E-07
vn -0.9999999 0 1.192093E-07
vn -0.9999999 0 1.192093E-07
vn -0.9999999 0 1.192093E-07
vn -0.9999999 0 1.192093E-07
vn -0.9999999 0 1.192093E-07
vn -0.9999999 0 1.192093E-07
vn -0.9999999 0 1.192093E-07
vn -0.9999999 0 1.192093E-07
vn -0.9999999 0 1.192093E-07
vn -0.9999999 0 1.192093E-07
vt 0.1362994 0.8399717
vt 0.09094124 0.8399717
vt 0.09094124 0.8000566
vt 0.1363315 0.8000283
vt 0.1362994 0.8399717
vt 0.09094124 0.8399717
vt 0.09094124 0.8000566
vt 0.1363315 0.8000283
vt 0.09094124 0.8000566
vt 0.09094124 0.8399717
vt 0.1362994 0.8399717
vt 0.1363315 0.8000283
vt 0.09094124 0.8000566
vt 0.09094124 0.8399717
vt 0.1362994 0.8399717
vt 0.1363315 0.8000283
vt 0.595015 0.1199347
vt 0.595015 0.08003263
vt 0.5413749 0.08003263
vt 0.5413486 0.1199674
vt 0.09094124 0.8000566
vt 0.09094124 0.8399717
vt 0.1362994 0.8399717
vt 0.1363315 0.8000283
vt 0.1362994 0.8399717
vt 0.09094124 0.8399717
vt 0.09094124 0.8000566
vt 0.1363315 0.8000283
vt 0.1362994 0.8399717
vt 0.09094124 0.8399717
vt 0.09094124 0.8000566
vt 0.1363315 0.8000283
vt 0.7231635 0.1200387
vt 0.776848 0.1200387
vt 0.776848 0.8799226
vt 0.1818496 0.1600578
vt 0.7726644 0.9199711
vt 0.1818496 0.9199711
vt 0.09094124 0.8000566
vt 0.09094124 0.8399717
vt 0.1362994 0.8399717
vt 0.1363315 0.8000283
vt 0.5413392 0.1200371
vt 0.5619863 0.4799257
vt 0.5950216 0.1200371
vt 0.09095442 0.06999695
vt 0.09095442 0.04002437
vt 0.4999093 0.08997867
vt 0.9026201 0.1200963
vt 0.9026201 0.879907
vt 0.9545001 0.5199967
vt 0.1363091 0.919924
vt 0.04548182 0.520044
vt 0.04548182 0.560032
vt 0.7273059 0.7640273
vt 0.7791543 0.7999352
vt 0.7273059 0.7600375
vt 0.1817955 0.1600533
vt 0.0909545 0.5200019
vt 0.1817955 0.9199448
vt 0.8471017 0.9599479
vt 0.8677341 0.9150261
vt 0.8140898 0.9150261
vt 0.7613553 0.7600393
vt 0.7840323 0.7999214
vt 0.7273397 0.7600393
usemtl EGA_Building_Door_12_texture0
f 3/3/3 2/2/2 1/1/1
f 4/4/4 3/3/3 1/1/1
f 7/7/7 6/6/6 5/5/5
f 8/8/8 7/7/7 5/5/5
f 11/11/11 10/10/10 9/9/9
f 11/11/11 9/9/9 12/12/12
f 15/15/15 14/14/14 13/13/13
f 15/15/15 13/13/13 16/16/16
f 19/19/19 18/18/18 17/17/17
f 19/19/19 17/17/17 20/20/20
f 23/23/23 22/22/22 21/21/21
f 23/23/23 21/21/21 24/24/24
f 27/27/27 26/26/26 25/25/25
f 28/28/28 27/27/27 25/25/25
f 31/31/31 30/30/30 29/29/29
f 32/32/32 31/31/31 29/29/29
f 35/35/35 34/34/34 33/33/33
f 38/38/38 37/37/37 36/36/36
f 41/41/41 40/40/40 39/39/39
f 41/41/41 39/39/39 42/42/42
f 45/45/45 44/44/44 43/43/43
f 48/48/48 47/47/47 46/46/46
f 51/51/51 50/50/50 49/49/49
f 54/54/54 53/53/53 52/52/52
f 57/57/57 56/56/56 55/55/55
f 60/60/60 59/59/59 58/58/58
f 63/63/63 62/62/62 61/61/61
f 66/66/66 65/65/65 64/64/64
