mtllib EGA_Lamp_01.mtl
g default
v 0.98 0.14 0.06
v 0.98 0.18 0.14
v 0.98 -0.02 0.14
v 0.98 0.02 0.06
v 0.98 0.14 0.06
v 0.98 0.18 -0.14
v 0.98 0.14 0.06
v 0.98 -0.02 -0.14
v 0.98 0.02 0.06
v 0.98 0.14 -0.06
v 0.98 0.14 -0.06
v 0.98 0.14 0.06
v 0.98 0.02 -0.06
v 0.98 0.02 0.06
v 0.98 0.14 -0.06
v 0.98 0.02 -0.06
v 0.94 0.02 -0.06
v 0.94 0.14 0.06
v 0.94 0.02 0.06
v 0.94 0.14 -0.06
v -1.072708 0.01999989 -0.1
v -1.072708 0.2199998 0.1
v -1.072708 0.01999989 0.1
v -1.072708 0.2199998 -0.1
v -1.06 0.22 0.1
v -1.06 0.26 0.14
v -1.06 -0.02 0.14
v -1.06 0.02 0.1
v -1.06 0.22 0.1
v -1.06 0.26 -0.14
v -1.06 0.22 0.1
v -1.06 -0.02 -0.14
v -1.06 0.02 0.1
v -1.06 0.22 -0.1
v -1.06 0.22 -0.1
v -1.06 0.22 0.1
v -1.06 0.02 -0.1
v -1.06 0.02 0.1
v -1.06 0.22 -0.1
v -1.06 0.02 -0.1
v 1.1 0.26 0.14
v 1.1 0.22 0.1
v 1.1 -0.02 0.14
v 1.1 0.22 0.1
v 1.1 0.02 0.1
v 1.1 0.26 -0.14
v 1.1 0.22 0.1
v 1.1 0.02 0.1
v 1.1 -0.02 -0.14
v 1.1 0.22 -0.1
v 1.1 0.22 -0.1
v 1.1 0.22 0.1
v 1.1 0.02 0.1
v 1.1 0.02 -0.1
v 1.1 0.02 -0.1
v 1.1 0.22 -0.1
v 1.115997 0.2199998 0.1
v 1.115997 0.01999987 -0.1
v 1.115997 0.01999987 0.1
v 1.115997 0.2199998 -0.1
v -0.9 0.14 0.06
v -0.9 0.02 -0.06
v -0.9 0.02 0.06
v -0.9 0.14 -0.06
v -0.94 0.18 0.14
v -0.94 0.14 0.06
v -0.94 -0.02 0.14
v -0.94 0.14 0.06
v -0.94 0.02 0.06
v -0.94 0.18 -0.14
v -0.94 0.14 0.06
v -0.94 0.02 0.06
v -0.94 -0.02 -0.14
v -0.94 0.14 -0.06
v -0.94 0.14 -0.06
v -0.94 0.14 0.06
v -0.94 0.02 0.06
v -0.94 0.02 -0.06
v -0.94 0.02 -0.06
v -0.94 0.14 -0.06
v 1.1 -0.02 0.14
v 0.98 -0.02 -0.14
v 0.98 -0.02 0.14
v 1.1 -0.02 -0.14
v -0.94 -0.02 0.14
v -1.06 -0.02 -0.14
v -1.06 -0.02 0.14
v -0.94 -0.02 -0.14
v 0.98 0.18 0.14
v -0.94 0.18 -0.14
v -0.94 0.18 0.14
v 0.98 0.18 -0.14
v 1.115997 0.01999987 0.1
v 1.1 0.02 -0.1
v 1.1 0.02 0.1
v 1.115997 0.01999987 -0.1
v 0.98 0.02 0.06
v 0.94 0.02 -0.06
v 0.94 0.02 0.06
v 0.98 0.02 -0.06
v -0.9 0.02 0.06
v -0.94 0.02 -0.06
v -0.94 0.02 0.06
v -0.9 0.02 -0.06
v -1.06 0.02 0.1
v -1.072708 0.01999989 -0.1
v -1.072708 0.01999989 0.1
v -1.06 0.02 -0.1
v -1.06 0.26 -0.14
v 1.1 0.26 0.14
v -1.06 0.26 0.14
v 1.1 0.26 -0.14
v 1.1 0.22 -0.1
v 1.115997 0.2199998 0.1
v 1.1 0.22 0.1
v 1.115997 0.2199998 -0.1
v -1.072708 0.2199998 -0.1
v -1.06 0.22 0.1
v -1.072708 0.2199998 0.1
v -1.06 0.22 -0.1
v 0.94 0.14 -0.06
v 0.98 0.14 0.06
v 0.94 0.14 0.06
v 0.98 0.14 -0.06
v -0.94 0.14 -0.06
v -0.9 0.14 0.06
v -0.94 0.14 0.06
v -0.9 0.14 -0.06
v 0.94 0.14 0.06
v 0.98 0.02 0.06
v 0.94 0.02 0.06
v 0.98 0.14 0.06
v -0.94 0.14 0.06
v -0.9 0.02 0.06
v -0.94 0.02 0.06
v -0.9 0.14 0.06
v 1.1 0.22 0.1
v 1.115997 0.01999987 0.1
v 1.1 0.02 0.1
v 1.115997 0.2199998 0.1
v -1.072708 0.2199998 0.1
v -1.06 0.02 0.1
v -1.072708 0.01999989 0.1
v -1.06 0.22 0.1
v 0.98 0.18 0.14
v 1.1 -0.02 0.14
v 0.98 -0.02 0.14
v 1.1 0.26 0.14
v 0.98 0.18 0.14
v 0.98 0.18 0.14
v -1.06 0.26 0.14
v 0.98 0.18 0.14
v -0.94 0.18 0.14
v -0.94 0.18 0.14
v -1.06 -0.02 0.14
v -0.94 -0.02 0.14
v -0.94 0.18 0.14
v 1.1 -0.02 -0.14
v 0.98 0.18 -0.14
v 0.98 -0.02 -0.14
v 1.1 0.26 -0.14
v 0.98 0.18 -0.14
v 0.98 0.18 -0.14
v -1.06 0.26 -0.14
v -0.94 0.18 -0.14
v 0.98 0.18 -0.14
v -1.06 -0.02 -0.14
v -0.94 0.18 -0.14
v -0.94 -0.02 -0.14
v -0.94 0.18 -0.14
v 1.115997 0.01999987 -0.1
v 1.1 0.22 -0.1
v 1.1 0.02 -0.1
v 1.115997 0.2199998 -0.1
v -1.06 0.02 -0.1
v -1.072708 0.2199998 -0.1
v -1.072708 0.01999989 -0.1
v -1.06 0.22 -0.1
v 0.98 0.02 -0.06
v 0.94 0.14 -0.06
v 0.94 0.02 -0.06
v 0.98 0.14 -0.06
v -0.9 0.02 -0.06
v -0.94 0.14 -0.06
v -0.94 0.02 -0.06
v -0.9 0.14 -0.06
vn -1 0 0
vn -1 0 0
vn -1 0 0
vn -1 0 0
vn -1 0 0
vn -1 0 0
vn -1 0 0
vn -1 0 0
vn -1 0 0
vn -1 0 0
vn -1 0 0
vn -1 0 0
vn -1 0 0
vn -1 0 0
vn -1 0 0
vn -1 0 0
vn -1 0 0
vn -1 0 0
vn -1 0 0
vn -1 0 0
vn -1 0 0
vn -1 0 0
vn -1 0 0
vn -1 0 0
vn -1 0 0
vn -1 0 0
vn -1 0 0
vn -1 0 0
vn -1 0 0
vn -1 0 0
vn -1 0 0
vn -1 0 0
vn -1 0 0
vn -1 0 0
vn -1 0 0
vn -1 0 0
vn -1 0 0
vn -1 0 0
vn -1 0 0
vn -1 0 0
vn 1 0 0
vn 1 0 0
vn 1 0 0
vn 1 0 0
vn 1 0 0
vn 1 0 0
vn 1 0 0
vn 1 0 0
vn 1 0 0
vn 1 0 0
vn 1 0 0
vn 1 0 0
vn 1 0 0
vn 1 0 0
vn 1 0 0
vn 1 0 0
vn 1 0 0
vn 1 0 0
vn 1 0 0
vn 1 0 0
vn 1 0 0
vn 1 0 0
vn 1 0 0
vn 1 0 0
vn 1 0 0
vn 1 0 0
vn 1 0 0
vn 1 0 0
vn 1 0 0
vn 1 0 0
vn 1 0 0
vn 1 0 0
vn 1 0 0
vn 1 0 0
vn 1 0 0
vn 1 0 0
vn 1 0 0
vn 1 0 0
vn 1 0 0
vn 1 0 0
vn 0 -1 0
vn 0 -1 0
vn 0 -1 0
vn 0 -1 0
vn 0 -1 0
vn 0 -1 0
vn 0 -1 0
vn 0 -1 0
vn 0 -1 0
vn 0 -1 0
vn 0 -1 0
vn 0 -1 0
vn 0 -1 0
vn 0 -1 0
vn 0 -1 0
vn 0 -1 0
vn 0 -1 0
vn 0 -1 0
vn 0 -1 0
vn 0 -1 0
vn 0 -1 0
vn 0 -1 0
vn 0 -1 0
vn 0 -1 0
vn 0 -1 0
vn 0 -1 0
vn 0 -1 0
vn 0 -1 0
vn 0 1 0
vn 0 1 0
vn 0 1 0
vn 0 1 0
vn 0 1 0
vn 0 1 0
vn 0 1 0
vn 0 1 0
vn 0 1 0
vn 0 1 0
vn 0 1 0
vn 0 1 0
vn 0 1 0
vn 0 1 0
vn 0 1 0
vn 0 1 0
vn 0 1 0
vn 0 1 0
vn 0 1 0
vn 0 1 0
vn 0 0 1
vn 0 0 1
vn 0 0 1
vn 0 0 1
vn 0 0 1
vn 0 0 1
vn 0 0 1
vn 0 0 1
vn 0 0 1
vn 0 0 1
vn 0 0 1
vn 0 0 1
vn 0 0 1
vn 0 0 1
vn 0 0 1
vn 0 0 1
vn 0 0 1
vn 0 0 1
vn 0 0 1
vn 0 0 1
vn 0 0 1
vn 0 0 1
vn 0 0 1
vn 0 0 1
vn 0 0 1
vn 0 0 1
vn 0 0 1
vn 0 0 1
vn 0 0 1
vn 0 0 -1
vn 0 0 -1
vn 0 0 -1
vn 0 0 -1
vn 0 0 -1
vn 0 0 -1
vn 0 0 -1
vn 0 0 -1
vn 0 0 -1
vn 0 0 -1
vn 0 0 -1
vn 0 0 -1
vn 0 0 -1
vn 0 0 -1
vn 0 0 -1
vn 0 0 -1
vn 0 0 -1
vn 0 0 -1
vn 0 0 -1
vn 0 0 -1
vn 0 0 -1
vn 0 0 -1
vn 0 0 -1
vn 0 0 -1
vn 0 0 -1
vn 0 0 -1
vn 0 0 -1
vn 0 0 -1
vn 0 0 -1
vt 0.200064 0.6662399
vt 0.1667947 0.3335467
vt 0.3331413 0.3335467
vt 0.2915921 0.6663685
vt 0.1669275 0.6663685
vt 0.166769 0.6663159
vt 0.3331287 0.4286591
vt 0.333231 0.6663159
vt 0.1668713 0.4286591
vt 0.200064 0.3337601
vt 0.3331699 0.533268
vt 0.3331699 0.3338563
vt 0.1668301 0.533268
vt 0.1668301 0.3338563
vt 0.1669275 0.3336315
vt 0.2915921 0.3336315
vt 0.8332155 0.6661953
vt 0.6669024 0.333569
vt 0.8332155 0.333569
vt 0.6667845 0.666431
vt 0.3332155 0.6661953
vt 0.1669024 0.333569
vt 0.3332155 0.333569
vt 0.1667845 0.666431
vt 0.1905546 0.6662276
vt 0.1667921 0.3335528
vt 0.3331295 0.3335528
vt 0.3054631 0.6663893
vt 0.1669209 0.6663893
vt 0.1667764 0.6662591
vt 0.3331138 0.3811092
vt 0.3332236 0.6662591
vt 0.1668862 0.3811092
vt 0.1905546 0.3337723
vt 0.3331947 0.6109262
vt 0.3331947 0.3338418
vt 0.1668053 0.6109262
vt 0.1668053 0.3338418
vt 0.1669209 0.3336107
vt 0.3054631 0.3336107
vt 0.1667921 0.3335528
vt 0.1905546 0.6662276
vt 0.3331295 0.3335528
vt 0.1669209 0.6663893
vt 0.3054631 0.6663893
vt 0.1667764 0.6662591
vt 0.3331138 0.3811092
vt 0.1668862 0.3811092
vt 0.3332236 0.6662591
vt 0.1905546 0.3337723
vt 0.3331947 0.6109262
vt 0.3331947 0.3338418
vt 0.1668053 0.3338418
vt 0.1668053 0.6109262
vt 0.3054631 0.3336107
vt 0.1669209 0.3336107
vt 0.1669024 0.333569
vt 0.3332155 0.6661953
vt 0.3332155 0.333569
vt 0.1667845 0.666431
vt 0.6669024 0.333569
vt 0.8332155 0.6661953
vt 0.8332155 0.333569
vt 0.6667845 0.666431
vt 0.1667947 0.3335467
vt 0.200064 0.6662399
vt 0.3331413 0.3335467
vt 0.1669275 0.6663685
vt 0.2915921 0.6663685
vt 0.166769 0.6663159
vt 0.3331287 0.4286591
vt 0.1668713 0.4286591
vt 0.333231 0.6663159
vt 0.200064 0.3337601
vt 0.3331699 0.533268
vt 0.3331699 0.3338563
vt 0.1668301 0.3338563
vt 0.1668301 0.533268
vt 0.2915921 0.3336315
vt 0.1669275 0.3336315
vt 0.1669024 0.333569
vt 0.3332155 0.6661953
vt 0.3332155 0.333569
vt 0.1667845 0.666431
vt 0.1669024 0.333569
vt 0.3332155 0.6661953
vt 0.3332155 0.333569
vt 0.1667845 0.666431
vt 0.1669024 0.333569
vt 0.3332155 0.6661953
vt 0.3332155 0.333569
vt 0.1667845 0.666431
vt 0.1669024 0.333569
vt 0.3332155 0.6661953
vt 0.3332155 0.333569
vt 0.1667845 0.666431
vt 0.6669024 0.333569
vt 0.8332155 0.6661953
vt 0.8332155 0.333569
vt 0.6667845 0.666431
vt 0.6669024 0.333569
vt 0.8332155 0.6661953
vt 0.8332155 0.333569
vt 0.6667845 0.666431
vt 0.1669024 0.333569
vt 0.3332155 0.6661953
vt 0.3332155 0.333569
vt 0.1667845 0.666431
vt 0.3332155 0.6661953
vt 0.1669024 0.333569
vt 0.3332155 0.333569
vt 0.1667845 0.666431
vt 0.3332155 0.6661953
vt 0.1669024 0.333569
vt 0.3332155 0.333569
vt 0.1667845 0.666431
vt 0.3332155 0.6661953
vt 0.1669024 0.333569
vt 0.3332155 0.333569
vt 0.1667845 0.666431
vt 0.8332155 0.6661953
vt 0.6669024 0.333569
vt 0.8332155 0.333569
vt 0.6667845 0.666431
vt 0.8332155 0.6661953
vt 0.6669024 0.333569
vt 0.8332155 0.333569
vt 0.6667845 0.666431
vt 0.8332155 0.6661953
vt 0.6669024 0.333569
vt 0.8332155 0.333569
vt 0.6667845 0.666431
vt 0.8332155 0.6661953
vt 0.6669024 0.333569
vt 0.8332155 0.333569
vt 0.6667845 0.666431
vt 0.3332155 0.6661953
vt 0.1669024 0.333569
vt 0.3332155 0.333569
vt 0.1667845 0.666431
vt 0.3332155 0.6661953
vt 0.1669024 0.333569
vt 0.3332155 0.333569
vt 0.1667845 0.666431
vt 0.3332155 0.6661953
vt 0.1669024 0.333569
vt 0.3332155 0.333569
vt 0.166769 0.6664035
vt 0.3331287 0.5713409
vt 0.1760278 0.3337918
vt 0.3331105 0.6664374
vt 0.1669093 0.3335833
vt 0.3234192 0.3335833
vt 0.1668713 0.5713409
vt 0.333231 0.3336841
vt 0.1667845 0.333569
vt 0.1667845 0.6661953
vt 0.1669024 0.333569
vt 0.3332155 0.6661953
vt 0.3332155 0.333569
vt 0.166769 0.6664035
vt 0.3331287 0.5713409
vt 0.1760278 0.3337918
vt 0.3331105 0.6664374
vt 0.3234192 0.3335833
vt 0.1669093 0.3335833
vt 0.333231 0.3336841
vt 0.1668713 0.5713409
vt 0.1667845 0.333569
vt 0.1667845 0.6661953
vt 0.1669024 0.333569
vt 0.3332155 0.6661953
vt 0.3332155 0.333569
vt 0.1667845 0.666431
vt 0.1669024 0.333569
vt 0.3332155 0.6661953
vt 0.3332155 0.333569
vt 0.1667845 0.666431
vt 0.6669024 0.333569
vt 0.8332155 0.6661953
vt 0.8332155 0.333569
vt 0.6667845 0.666431
vt 0.6669024 0.333569
vt 0.8332155 0.6661953
vt 0.8332155 0.333569
vt 0.6667845 0.666431
usemtl EGA_Lamp_01-defaultMat
f 3/3/3 2/2/2 1/1/1
f 3/3/3 5/5/5 4/4/4
f 7/7/7 2/2/2 6/6/6
f 3/3/3 9/9/9 8/8/8
f 8/8/8 10/10/10 6/6/6
f 12/12/12 6/6/6 11/11/11
f 8/8/8 14/14/14 13/13/13
f 8/8/8 16/16/16 15/15/15
f 19/19/19 18/18/18 17/17/17
f 17/17/17 18/18/18 20/20/20
f 23/23/23 22/22/22 21/21/21
f 21/21/21 22/22/22 24/24/24
f 27/27/27 26/26/26 25/25/25
f 27/27/27 29/29/29 28/28/28
f 31/31/31 26/26/26 30/30/30
f 27/27/27 33/33/33 32/32/32
f 32/32/32 34/34/34 30/30/30
f 36/36/36 30/30/30 35/35/35
f 32/32/32 38/38/38 37/37/37
f 32/32/32 40/40/40 39/39/39
f 43/43/43 42/42/42 41/41/41
f 43/43/43 45/45/45 44/44/44
f 47/47/47 46/46/46 41/41/41
f 43/43/43 49/49/49 48/48/48
f 49/49/49 46/46/46 50/50/50
f 52/52/52 51/51/51 46/46/46
f 49/49/49 54/54/54 53/53/53
f 49/49/49 56/56/56 55/55/55
f 59/59/59 58/58/58 57/57/57
f 58/58/58 60/60/60 57/57/57
f 63/63/63 62/62/62 61/61/61
f 62/62/62 64/64/64 61/61/61
f 67/67/67 66/66/66 65/65/65
f 67/67/67 69/69/69 68/68/68
f 71/71/71 70/70/70 65/65/65
f 67/67/67 73/73/73 72/72/72
f 73/73/73 70/70/70 74/74/74
f 76/76/76 75/75/75 70/70/70
f 73/73/73 78/78/78 77/77/77
f 73/73/73 80/80/80 79/79/79
f 83/83/83 82/82/82 81/81/81
f 82/82/82 84/84/84 81/81/81
f 87/87/87 86/86/86 85/85/85
f 86/86/86 88/88/88 85/85/85
f 91/91/91 90/90/90 89/89/89
f 90/90/90 92/92/92 89/89/89
f 95/95/95 94/94/94 93/93/93
f 94/94/94 96/96/96 93/93/93
f 99/99/99 98/98/98 97/97/97
f 98/98/98 100/100/100 97/97/97
f 103/103/103 102/102/102 101/101/101
f 102/102/102 104/104/104 101/101/101
f 107/107/107 106/106/106 105/105/105
f 106/106/106 108/108/108 105/105/105
f 111/111/111 110/110/110 109/109/109
f 109/109/109 110/110/110 112/112/112
f 115/115/115 114/114/114 113/113/113
f 113/113/113 114/114/114 116/116/116
f 119/119/119 118/118/118 117/117/117
f 117/117/117 118/118/118 120/120/120
f 123/123/123 122/122/122 121/121/121
f 121/121/121 122/122/122 124/124/124
f 127/127/127 126/126/126 125/125/125
f 125/125/125 126/126/126 128/128/128
f 131/131/131 130/130/130 129/129/129
f 129/129/129 130/130/130 132/132/132
f 135/135/135 134/134/134 133/133/133
f 133/133/133 134/134/134 136/136/136
f 139/139/139 138/138/138 137/137/137
f 137/137/137 138/138/138 140/140/140
f 143/143/143 142/142/142 141/141/141
f 141/141/141 142/142/142 144/144/144
f 147/147/147 146/146/146 145/145/145
f 149/149/149 146/146/146 148/148/148
f 151/151/151 150/150/150 148/148/148
f 151/151/151 153/153/153 152/152/152
f 151/151/151 155/155/155 154/154/154
f 157/157/157 155/155/155 156/156/156
f 160/160/160 159/159/159 158/158/158
f 162/162/162 161/161/161 158/158/158
f 164/164/164 161/161/161 163/163/163
f 164/164/164 166/166/166 165/165/165
f 164/164/164 168/168/168 167/167/167
f 170/170/170 169/169/169 167/167/167
f 173/173/173 172/172/172 171/171/171
f 172/172/172 174/174/174 171/171/171
f 177/177/177 176/176/176 175/175/175
f 176/176/176 178/178/178 175/175/175
f 181/181/181 180/180/180 179/179/179
f 180/180/180 182/182/182 179/179/179
f 185/185/185 184/184/184 183/183/183
f 184/184/184 186/186/186 183/183/183
