mtllib EGA_Hotel_Door_01.mtl
g default
v 0.1000001 1.9 0.6999999
v 0.1000001 1.7 0.6999999
v -0.0999999 1.7 0.6999999
v -0.0999999 1.9 0.6999999
v 0.3000001 3.3 1.1
v 0.3000001 -0.1 1.1
v 0.1000001 -0.1 1.1
v 0.1000001 3.3 1.1
v -0.09999997 1.7 0.09999999
v 0.09999999 1.7 0.09999997
v 0.09999999 1.9 0.09999997
v -0.09999997 1.9 0.09999999
v 0.09999982 -0.1 -1.3
v 0.2999998 -0.1 -1.3
v 0.2999998 3.3 -1.3
v 0.09999982 3.3 -1.3
v 0.1000001 -0.1 1.1
v 0.3000001 -0.1 1.1
v 0.2999998 -0.1 -1.3
v 0.09999982 -0.1 -1.3
v -0.0999999 1.7 0.6999999
v 0.1000001 1.7 0.6999999
v 0.09999999 1.7 0.09999997
v -0.09999997 1.7 0.09999999
v 0.2999998 3.3 -1.3
v 0.3000001 3.3 1.1
v 0.1000001 3.3 1.1
v 0.09999982 3.3 -1.3
v 0.09999999 1.9 0.09999997
v 0.1000001 1.9 0.6999999
v -0.0999999 1.9 0.6999999
v -0.09999997 1.9 0.09999999
v 0.2999998 -0.1 -1.3
v 0.3000001 -0.1 1.1
v 0.3000001 3.3 1.1
v 0.2999998 -0.1 -1.3
v 0.3000001 3.3 1.1
v 0.2999998 3.3 -1.3
v -0.0999999 1.9 0.6999999
v -0.0999999 1.7 0.6999999
v -0.09999997 1.7 0.09999999
v -0.09999997 1.9 0.09999999
v 0.09999999 1.7 0.09999997
v 0.1000001 -0.1 1.1
v 0.09999982 -0.1 -1.3
v 0.1000001 1.7 0.6999999
v 0.09999999 1.7 0.09999997
v 0.09999982 3.3 -1.3
v 0.09999999 1.7 0.09999997
v 0.1000001 3.3 1.1
v 0.1000001 1.7 0.6999999
v 0.09999999 1.9 0.09999997
v 0.09999999 1.9 0.09999997
v 0.09999999 1.7 0.09999997
v 0.1000001 1.9 0.6999999
v 0.1000001 1.7 0.6999999
v 0.09999999 1.9 0.09999997
v 0.1000001 1.9 0.6999999
vn 1.192093E-07 0 0.9999999
vn 1.192093E-07 0 0.9999999
vn 1.192093E-07 0 0.9999999
vn 1.192093E-07 0 0.9999999
vn 1.192093E-07 0 0.9999999
vn 1.192093E-07 0 0.9999999
vn 1.192093E-07 0 0.9999999
vn 1.192093E-07 0 0.9999999
vn -1.192093E-07 0 -0.9999999
vn -1.192093E-07 0 -0.9999999
vn -1.192093E-07 0 -0.9999999
vn -1.192093E-07 0 -0.9999999
vn -1.192093E-07 0 -0.9999999
vn -1.192093E-07 0 -0.9999999
vn -1.192093E-07 0 -0.9999999
vn -1.192093E-07 0 -0.9999999
vn 0 -1 0
vn 0 -1 0
vn 0 -1 0
vn 0 -1 0
vn 0 -1 0
vn 0 -1 0
vn 0 -1 0
vn 0 -1 0
vn 0 1 0
vn 0 1 0
vn 0 1 0
vn 0 1 0
vn 0 1 0
vn 0 1 0
vn 0 1 0
vn 0 1 0
vn 0.9999999 0 -1.192093E-07
vn 0.9999999 0 -1.192093E-07
vn 0.9999999 0 -1.192093E-07
vn 0.9999999 0 -1.192093E-07
vn 0.9999999 0 -1.192093E-07
vn 0.9999999 0 -1.192093E-07
vn -0.9999999 0 1.192093E-07
vn -0.9999999 0 1.192093E-07
vn -0.9999999 0 1.192093E-07
vn -0.9999999 0 1.192093E-07
vn -0.9999999 0 1.192093E-07
vn -0.9999999 0 1.192093E-07
vn -0.9999999 0 1.192093E-07
vn -0.9999999 0 1.192093E-07
vn -0.9999999 0 1.192093E-07
vn -0.9999999 0 1.192093E-07
vn -0.9999999 0 1.192093E-07
vn -0.9999999 0 1.192093E-07
vn -0.9999999 0 1.192093E-07
vn -0.9999999 0 1.192093E-07
vn -0.9999999 0 1.192093E-07
vn -0.9999999 0 1.192093E-07
vn -0.9999999 0 1.192093E-07
vn -0.9999999 0 1.192093E-07
vn -0.9999999 0 1.192093E-07
vn -0.9999999 0 1.192093E-07
vt 0.1430592 0.8947741
vt 0.2856133 0.8947741
vt 0.2856133 0.947294
vt 0.1429582 0.9473312
vt 0.1430592 0.1053004
vt 0.2856133 0.1053004
vt 0.2856133 0.1578203
vt 0.1429582 0.1578575
vt 0.2856133 0.947294
vt 0.2856133 0.8947741
vt 0.1430592 0.8947741
vt 0.1429582 0.9473312
vt 0.2856133 0.1578203
vt 0.2856133 0.1053004
vt 0.1430592 0.1053004
vt 0.1429582 0.1578575
vt 0.2856133 0.1578203
vt 0.2856133 0.1053004
vt 0.1430592 0.1053004
vt 0.1429582 0.1578575
vt 0.2856133 0.947294
vt 0.2856133 0.8947741
vt 0.1430592 0.8947741
vt 0.1429582 0.9473312
vt 0.1430592 0.1053004
vt 0.2856133 0.1053004
vt 0.2856133 0.1578203
vt 0.1429582 0.1578575
vt 0.1430592 0.8947741
vt 0.2856133 0.8947741
vt 0.2856133 0.947294
vt 0.1429582 0.9473312
vt 0.238249 0.05267594
vt 0.8094469 0.05267594
vt 0.8094469 0.9472797
vt 0.42847 0.4736101
vt 0.1838764 0.3842476
vt 0.42847 0.3842476
vt 0.2856133 0.947294
vt 0.2856133 0.8947741
vt 0.1430592 0.8947741
vt 0.1429582 0.9473312
vt 0.2261767 0.157834
vt 0.2855976 0.1052935
vt 0.1429876 0.1052935
vt 0.2285434 0.1578431
vt 0.1430813 0.1578431
vt 0.1429375 0.1578512
vt 0.2855536 0.1331252
vt 0.285634 0.1578512
vt 0.1430178 0.1331252
vt 0.2261767 0.1053239
vt 0.2856 0.1118737
vt 0.2856 0.1053105
vt 0.1429714 0.1118737
vt 0.1429714 0.1053105
vt 0.1430813 0.1053148
vt 0.2285434 0.1053148
usemtl EGA_Hotel_Door_01_texture0
f 3/3/3 2/2/2 1/1/1
f 4/4/4 3/3/3 1/1/1
f 7/7/7 6/6/6 5/5/5
f 8/8/8 7/7/7 5/5/5
f 11/11/11 10/10/10 9/9/9
f 11/11/11 9/9/9 12/12/12
f 15/15/15 14/14/14 13/13/13
f 15/15/15 13/13/13 16/16/16
f 19/19/19 18/18/18 17/17/17
f 19/19/19 17/17/17 20/20/20
f 23/23/23 22/22/22 21/21/21
f 23/23/23 21/21/21 24/24/24
f 27/27/27 26/26/26 25/25/25
f 28/28/28 27/27/27 25/25/25
f 31/31/31 30/30/30 29/29/29
f 32/32/32 31/31/31 29/29/29
f 35/35/35 34/34/34 33/33/33
f 38/38/38 37/37/37 36/36/36
f 41/41/41 40/40/40 39/39/39
f 41/41/41 39/39/39 42/42/42
f 45/45/45 44/44/44 43/43/43
f 47/47/47 44/44/44 46/46/46
f 45/45/45 49/49/49 48/48/48
f 51/51/51 44/44/44 50/50/50
f 52/52/52 50/50/50 48/48/48
f 48/48/48 54/54/54 53/53/53
f 56/56/56 50/50/50 55/55/55
f 58/58/58 50/50/50 57/57/57
