mtllib EGA_Shop_Door_05.mtl
g default
v 0.3000001 3.7 1.1
v 0.3000001 0.1 1.1
v 0.1000001 0.1 1.1
v 0.1000001 3.7 1.1
v 0.1000001 3.9 1.3
v 0.1000001 -0.1 1.3
v -0.09999982 -0.1 1.3
v -0.09999982 3.9 1.3
v 0.09999985 3.7 -1.1
v 0.09999985 2.3 -1.1
v -0.1000001 2.3 -1.1
v -0.1000001 3.7 -1.1
v 0.09999985 1.9 -1.1
v 0.09999985 0.1 -1.1
v -0.1000001 0.1 -1.1
v -0.1000001 1.9 -1.1
v -0.09999985 2.3 1.1
v 0.1000001 2.3 1.1
v 0.1000001 3.7 1.1
v -0.09999985 3.7 1.1
v -0.09999985 0.1 1.1
v 0.1000001 0.1 1.1
v 0.1000001 1.9 1.1
v -0.09999985 1.9 1.1
v -0.1000001 -0.1 -1.3
v 0.09999982 -0.1 -1.3
v 0.09999982 3.9 -1.3
v -0.1000001 3.9 -1.3
v 0.09999985 0.1 -1.1
v 0.2999998 0.1 -1.1
v 0.2999998 3.7 -1.1
v 0.09999985 3.7 -1.1
v -0.09999982 -0.1 1.3
v 0.1000001 -0.1 1.3
v 0.09999982 -0.1 -1.3
v -0.1000001 -0.1 -1.3
v -0.09999985 1.9 1.1
v 0.1000001 1.9 1.1
v 0.09999985 1.9 -1.1
v -0.1000001 1.9 -1.1
v -0.09999985 3.7 1.1
v 0.1000001 3.7 1.1
v 0.09999985 3.7 -1.1
v -0.1000001 3.7 -1.1
v 0.1000001 0.1 1.1
v 0.3000001 0.1 1.1
v 0.2999998 0.1 -1.1
v 0.09999985 0.1 -1.1
v 0.09999985 0.1 -1.1
v 0.1000001 0.1 1.1
v -0.09999985 0.1 1.1
v -0.1000001 0.1 -1.1
v 0.09999985 2.3 -1.1
v 0.1000001 2.3 1.1
v -0.09999985 2.3 1.1
v -0.1000001 2.3 -1.1
v 0.09999982 3.9 -1.3
v 0.1000001 3.9 1.3
v -0.09999982 3.9 1.3
v -0.1000001 3.9 -1.3
v 0.2999998 3.7 -1.1
v 0.3000001 3.7 1.1
v 0.1000001 3.7 1.1
v 0.09999985 3.7 -1.1
v 0.09999982 -0.1 -1.3
v 0.1000001 -0.1 1.3
v 0.09999985 0.1 -1.1
v 0.09999985 0.1 -1.1
v 0.1000001 0.1 1.1
v 0.09999985 0.1 -1.1
v 0.09999982 3.9 -1.3
v 0.1000001 0.1 1.1
v 0.1000001 3.9 1.3
v 0.09999985 3.7 -1.1
v 0.09999985 0.1 -1.1
v 0.09999985 3.7 -1.1
v 0.1000001 0.1 1.1
v 0.1000001 3.7 1.1
v 0.1000001 3.7 1.1
v 0.09999985 3.7 -1.1
v 0.2999998 0.1 -1.1
v 0.3000001 0.1 1.1
v 0.3000001 3.7 1.1
v 0.2999998 3.7 -1.1
v -0.1000001 0.1 -1.1
v -0.09999982 -0.1 1.3
v -0.1000001 -0.1 -1.3
v -0.09999985 0.1 1.1
v -0.1000001 0.1 -1.1
v -0.1000001 1.9 -1.1
v -0.1000001 0.1 -1.1
v -0.09999985 0.1 1.1
v -0.09999985 1.9 1.1
v -0.1000001 2.3 -1.1
v -0.1000001 1.9 -1.1
v -0.09999982 3.9 1.3
v -0.09999985 1.9 1.1
v -0.1000001 3.9 -1.3
v -0.1000001 2.3 -1.1
v -0.1000001 3.7 -1.1
v -0.09999985 2.3 1.1
v -0.09999985 1.9 1.1
v -0.1000001 3.7 -1.1
v -0.1000001 2.3 -1.1
v -0.09999985 3.7 1.1
v -0.09999985 2.3 1.1
v -0.1000001 3.7 -1.1
v -0.09999985 3.7 1.1
v -0.1000001 2.3 -1.1
v -0.09999985 2.3 1.1
v -0.1000001 1.9 -1.1
v -0.09999985 1.9 1.1
v 0.1000001 1.9 1.1
v 0.1000001 0.1 1.1
v 0.09999985 0.1 -1.1
v 0.09999985 1.9 -1.1
v 0.1000001 3.7 1.1
v 0.1000001 2.3 1.1
v 0.09999985 2.3 -1.1
v 0.09999985 3.7 -1.1
vn 1.192093E-07 0 0.9999999
vn 1.192093E-07 0 0.9999999
vn 1.192093E-07 0 0.9999999
vn 1.192093E-07 0 0.9999999
vn 1.192093E-07 0 0.9999999
vn 1.192093E-07 0 0.9999999
vn 1.192093E-07 0 0.9999999
vn 1.192093E-07 0 0.9999999
vn 1.192093E-07 0 0.9999999
vn 1.192093E-07 0 0.9999999
vn 1.192093E-07 0 0.9999999
vn 1.192093E-07 0 0.9999999
vn 1.192093E-07 0 0.9999999
vn 1.192093E-07 0 0.9999999
vn 1.192093E-07 0 0.9999999
vn 1.192093E-07 0 0.9999999
vn -1.192093E-07 0 -0.9999999
vn -1.192093E-07 0 -0.9999999
vn -1.192093E-07 0 -0.9999999
vn -1.192093E-07 0 -0.9999999
vn -1.192093E-07 0 -0.9999999
vn -1.192093E-07 0 -0.9999999
vn -1.192093E-07 0 -0.9999999
vn -1.192093E-07 0 -0.9999999
vn -1.192093E-07 0 -0.9999999
vn -1.192093E-07 0 -0.9999999
vn -1.192093E-07 0 -0.9999999
vn -1.192093E-07 0 -0.9999999
vn -1.192093E-07 0 -0.9999999
vn -1.192093E-07 0 -0.9999999
vn -1.192093E-07 0 -0.9999999
vn -1.192093E-07 0 -0.9999999
vn 0 -1 0
vn 0 -1 0
vn 0 -1 0
vn 0 -1 0
vn 0 -1 0
vn 0 -1 0
vn 0 -1 0
vn 0 -1 0
vn 0 -1 0
vn 0 -1 0
vn 0 -1 0
vn 0 -1 0
vn 0 -1 0
vn 0 -1 0
vn 0 -1 0
vn 0 -1 0
vn 0 1 0
vn 0 1 0
vn 0 1 0
vn 0 1 0
vn 0 1 0
vn 0 1 0
vn 0 1 0
vn 0 1 0
vn 0 1 0
vn 0 1 0
vn 0 1 0
vn 0 1 0
vn 0 1 0
vn 0 1 0
vn 0 1 0
vn 0 1 0
vn 0.9999999 0 -1.192093E-07
vn 0.9999999 0 -1.192093E-07
vn 0.9999999 0 -1.192093E-07
vn 0.9999999 0 -1.192093E-07
vn 0.9999999 0 -1.192093E-07
vn 0.9999999 0 -1.192093E-07
vn 0.9999999 0 -1.192093E-07
vn 0.9999999 0 -1.192093E-07
vn 0.9999999 0 -1.192093E-07
vn 0.9999999 0 -1.192093E-07
vn 0.9999999 0 -1.192093E-07
vn 0.9999999 0 -1.192093E-07
vn 0.9999999 0 -1.192093E-07
vn 0.9999999 0 -1.192093E-07
vn 0.9999999 0 -1.192093E-07
vn 0.9999999 0 -1.192093E-07
vn 0.9999999 0 -1.192093E-07
vn 0.9999999 0 -1.192093E-07
vn 0.9999999 0 -1.192093E-07
vn 0.9999999 0 -1.192093E-07
vn -0.9999999 0 1.192093E-07
vn -0.9999999 0 1.192093E-07
vn -0.9999999 0 1.192093E-07
vn -0.9999999 0 1.192093E-07
vn -0.9999999 0 1.192093E-07
vn -0.9999999 0 1.192093E-07
vn -0.9999999 0 1.192093E-07
vn -0.9999999 0 1.192093E-07
vn -0.9999999 0 1.192093E-07
vn -0.9999999 0 1.192093E-07
vn -0.9999999 0 1.192093E-07
vn -0.9999999 0 1.192093E-07
vn -0.9999999 0 1.192093E-07
vn -0.9999999 0 1.192093E-07
vn -0.9999999 0 1.192093E-07
vn -0.9999999 0 1.192093E-07
vn -0.9999999 0 1.192093E-07
vn -0.9999999 0 1.192093E-07
vn -0.9999999 0 1.192093E-07
vn -0.9999999 0 1.192093E-07
vn -0.9999999 0 1.192093E-07
vn -0.9999999 0 1.192093E-07
vn -0.9999999 0 1.192093E-07
vn -0.9999999 0 1.192093E-07
vn -0.9999999 0 1.192093E-07
vn -0.9999999 0 1.192093E-07
vn -0.9999999 0 1.192093E-07
vn -0.9999999 0 1.192093E-07
vn -0.9999999 0 1.192093E-07
vn -0.9999999 0 1.192093E-07
vn -0.9999999 0 1.192093E-07
vn -0.9999999 0 1.192093E-07
vn -0.9999999 0 1.192093E-07
vn -0.9999999 0 1.192093E-07
vn -0.9999999 0 1.192093E-07
vn -0.9999999 0 1.192093E-07
vt 0.1669024 0.333569
vt 0.3332155 0.333569
vt 0.3332155 0.6661953
vt 0.1667845 0.666431
vt 0.6669024 0.333569
vt 0.8332155 0.333569
vt 0.8332155 0.6661953
vt 0.6667845 0.666431
vt 0.6669024 0.333569
vt 0.8332155 0.333569
vt 0.8332155 0.6661953
vt 0.6667845 0.666431
vt 0.6669024 0.333569
vt 0.8332155 0.333569
vt 0.8332155 0.6661953
vt 0.6667845 0.666431
vt 0.8332155 0.6661953
vt 0.8332155 0.333569
vt 0.6669024 0.333569
vt 0.6667845 0.666431
vt 0.8332155 0.6661953
vt 0.8332155 0.333569
vt 0.6669024 0.333569
vt 0.6667845 0.666431
vt 0.8332155 0.6661953
vt 0.8332155 0.333569
vt 0.6669024 0.333569
vt 0.6667845 0.666431
vt 0.3332155 0.6661953
vt 0.3332155 0.333569
vt 0.1669024 0.333569
vt 0.1667845 0.666431
vt 0.8332155 0.6661953
vt 0.8332155 0.333569
vt 0.6669024 0.333569
vt 0.6667845 0.666431
vt 0.8332155 0.6661953
vt 0.8332155 0.333569
vt 0.6669024 0.333569
vt 0.6667845 0.666431
vt 0.8332155 0.6661953
vt 0.8332155 0.333569
vt 0.6669024 0.333569
vt 0.6667845 0.666431
vt 0.3332155 0.6661953
vt 0.3332155 0.333569
vt 0.1669024 0.333569
vt 0.1667845 0.666431
vt 0.6669024 0.333569
vt 0.8332155 0.333569
vt 0.8332155 0.6661953
vt 0.6667845 0.666431
vt 0.6669024 0.333569
vt 0.8332155 0.333569
vt 0.8332155 0.6661953
vt 0.6667845 0.666431
vt 0.6669024 0.333569
vt 0.8332155 0.333569
vt 0.8332155 0.6661953
vt 0.6667845 0.666431
vt 0.1669024 0.333569
vt 0.3332155 0.333569
vt 0.3332155 0.6661953
vt 0.1667845 0.666431
vt 0.6667888 0.3335601
vt 0.8331152 0.3335601
vt 0.6795831 0.666213
vt 0.6669121 0.6664106
vt 0.8193377 0.6664106
vt 0.8331035 0.3502069
vt 0.6667816 0.6662184
vt 0.6668965 0.3502069
vt 0.8332184 0.6662184
vt 0.6795831 0.333787
vt 0.8332091 0.3338171
vt 0.8332091 0.6489006
vt 0.6667909 0.3338171
vt 0.6667909 0.6489006
vt 0.8193377 0.3335894
vt 0.6669121 0.3335894
vt 0.1669024 0.333569
vt 0.3332155 0.333569
vt 0.3332155 0.6661953
vt 0.1667845 0.666431
vt 0.6795831 0.666213
vt 0.8331152 0.3335601
vt 0.6667888 0.3335601
vt 0.8193377 0.6664106
vt 0.6669121 0.6664106
vt 0.8332032 0.6661721
vt 0.8332032 0.3668749
vt 0.6667968 0.3668749
vt 0.6667968 0.6661721
vt 0.8331947 0.6663431
vt 0.8331947 0.6109262
vt 0.8332409 0.6663893
vt 0.6668516 0.5
vt 0.6667635 0.6663954
vt 0.8331396 0.5332946
vt 0.6795831 0.333787
vt 0.6668096 0.4001715
vt 0.6668096 0.3336763
vt 0.8332 0.6248
vt 0.8332 0.3338333
vt 0.6668 0.6248
vt 0.6668 0.3338333
vt 0.6669121 0.3335894
vt 0.8193377 0.3335894
vt 0.6667845 0.666431
vt 0.8330976 0.666431
vt 0.6667845 0.3338047
vt 0.8332155 0.333569
vt 0.3332155 0.6661953
vt 0.3332155 0.333569
vt 0.1669024 0.333569
vt 0.1667845 0.666431
vt 0.3332155 0.6661953
vt 0.3332155 0.333569
vt 0.1669024 0.333569
vt 0.1667845 0.666431
usemtl EGA_Shop_Door_05_texture0
f 3/3/3 2/2/2 1/1/1
f 4/4/4 3/3/3 1/1/1
f 7/7/7 6/6/6 5/5/5
f 8/8/8 7/7/7 5/5/5
f 11/11/11 10/10/10 9/9/9
f 12/12/12 11/11/11 9/9/9
f 15/15/15 14/14/14 13/13/13
f 16/16/16 15/15/15 13/13/13
f 19/19/19 18/18/18 17/17/17
f 19/19/19 17/17/17 20/20/20
f 23/23/23 22/22/22 21/21/21
f 23/23/23 21/21/21 24/24/24
f 27/27/27 26/26/26 25/25/25
f 27/27/27 25/25/25 28/28/28
f 31/31/31 30/30/30 29/29/29
f 31/31/31 29/29/29 32/32/32
f 35/35/35 34/34/34 33/33/33
f 35/35/35 33/33/33 36/36/36
f 39/39/39 38/38/38 37/37/37
f 39/39/39 37/37/37 40/40/40
f 43/43/43 42/42/42 41/41/41
f 43/43/43 41/41/41 44/44/44
f 47/47/47 46/46/46 45/45/45
f 47/47/47 45/45/45 48/48/48
f 51/51/51 50/50/50 49/49/49
f 52/52/52 51/51/51 49/49/49
f 55/55/55 54/54/54 53/53/53
f 56/56/56 55/55/55 53/53/53
f 59/59/59 58/58/58 57/57/57
f 60/60/60 59/59/59 57/57/57
f 63/63/63 62/62/62 61/61/61
f 64/64/64 63/63/63 61/61/61
f 67/67/67 66/66/66 65/65/65
f 69/69/69 66/66/66 68/68/68
f 71/71/71 70/70/70 65/65/65
f 73/73/73 66/66/66 72/72/72
f 71/71/71 73/73/73 74/74/74
f 76/76/76 75/75/75 71/71/71
f 78/78/78 73/73/73 77/77/77
f 80/80/80 73/73/73 79/79/79
f 83/83/83 82/82/82 81/81/81
f 84/84/84 83/83/83 81/81/81
f 87/87/87 86/86/86 85/85/85
f 89/89/89 86/86/86 88/88/88
f 91/91/91 90/90/90 87/87/87
f 86/86/86 93/93/93 92/92/92
f 95/95/95 94/94/94 87/87/87
f 97/97/97 86/86/86 96/96/96
f 87/87/87 99/99/99 98/98/98
f 100/100/100 96/96/96 98/98/98
f 102/102/102 96/96/96 101/101/101
f 98/98/98 104/104/104 103/103/103
f 106/106/106 96/96/96 105/105/105
f 108/108/108 96/96/96 107/107/107
f 111/111/111 110/110/110 109/109/109
f 111/111/111 112/112/112 110/110/110
f 115/115/115 114/114/114 113/113/113
f 115/115/115 113/113/113 116/116/116
f 119/119/119 118/118/118 117/117/117
f 119/119/119 117/117/117 120/120/120
