mtllib EGA_Building_Door_14.mtl
g default
v 0.1000001 3.9 1.3
v 0.1000001 -0.1 1.3
v -0.09999982 -0.1 1.3
v -0.09999982 3.9 1.3
v 0.2999999 2.1 -0.6999999
v 0.2999999 1.9 -0.6999999
v 0.0999999 1.9 -0.6999999
v 0.0999999 2.1 -0.6999999
v -0.1000001 2.1 -0.6999999
v -0.1000001 1.9 -0.6999999
v -0.3 1.9 -0.6999999
v -0.3 2.1 -0.6999999
v -0.1000001 -0.1 -1.3
v 0.09999982 -0.1 -1.3
v 0.09999982 3.9 -1.3
v -0.1000001 3.9 -1.3
v 0.09999987 1.9 -0.8999999
v 0.2999999 1.9 -0.8999999
v 0.2999999 2.1 -0.8999999
v 0.09999987 2.1 -0.8999999
v -0.3000001 1.9 -0.8999999
v -0.1000001 1.9 -0.8999999
v -0.1000001 2.1 -0.8999999
v -0.3000001 2.1 -0.8999999
v -0.09999982 -0.1 1.3
v 0.1000001 -0.1 1.3
v 0.09999982 -0.1 -1.3
v -0.1000001 -0.1 -1.3
v 0.0999999 1.9 -0.6999999
v 0.2999999 1.9 -0.6999999
v 0.2999999 1.9 -0.8999999
v 0.09999987 1.9 -0.8999999
v -0.3 1.9 -0.6999999
v -0.1000001 1.9 -0.6999999
v -0.1000001 1.9 -0.8999999
v -0.3000001 1.9 -0.8999999
v 0.2999999 2.1 -0.8999999
v 0.2999999 2.1 -0.6999999
v 0.0999999 2.1 -0.6999999
v 0.09999987 2.1 -0.8999999
v -0.1000001 2.1 -0.8999999
v -0.1000001 2.1 -0.6999999
v -0.3 2.1 -0.6999999
v -0.3000001 2.1 -0.8999999
v 0.09999982 3.9 -1.3
v 0.1000001 3.9 1.3
v -0.09999982 3.9 1.3
v -0.1000001 3.9 -1.3
v 0.1000001 -0.1 1.3
v 0.0999999 1.9 -0.6999999
v 0.09999982 -0.1 -1.3
v 0.09999982 -0.1 -1.3
v 0.0999999 1.9 -0.6999999
v 0.09999987 1.9 -0.8999999
v 0.0999999 1.9 -0.6999999
v 0.1000001 -0.1 1.3
v 0.1000001 3.9 1.3
v 0.09999987 1.9 -0.8999999
v 0.09999987 2.1 -0.8999999
v 0.09999982 -0.1 -1.3
v 0.09999987 2.1 -0.8999999
v 0.09999982 3.9 -1.3
v 0.0999999 1.9 -0.6999999
v 0.1000001 3.9 1.3
v 0.0999999 2.1 -0.6999999
v 0.1000001 3.9 1.3
v 0.09999982 3.9 -1.3
v 0.0999999 2.1 -0.6999999
v 0.0999999 2.1 -0.6999999
v 0.09999982 3.9 -1.3
v 0.09999987 2.1 -0.8999999
v 0.2999999 1.9 -0.8999999
v 0.2999999 1.9 -0.6999999
v 0.2999999 2.1 -0.6999999
v 0.2999999 2.1 -0.8999999
v -0.1000001 -0.1 -1.3
v -0.1000001 1.9 -0.6999999
v -0.09999982 -0.1 1.3
v -0.1000001 1.9 -0.8999999
v -0.1000001 1.9 -0.6999999
v -0.1000001 -0.1 -1.3
v -0.09999982 3.9 1.3
v -0.09999982 -0.1 1.3
v -0.1000001 1.9 -0.6999999
v -0.1000001 -0.1 -1.3
v -0.1000001 2.1 -0.8999999
v -0.1000001 1.9 -0.8999999
v -0.1000001 3.9 -1.3
v -0.1000001 2.1 -0.8999999
v -0.1000001 2.1 -0.6999999
v -0.09999982 3.9 1.3
v -0.1000001 1.9 -0.6999999
v -0.1000001 2.1 -0.6999999
v -0.1000001 3.9 -1.3
v -0.09999982 3.9 1.3
v -0.1000001 2.1 -0.8999999
v -0.1000001 3.9 -1.3
v -0.1000001 2.1 -0.6999999
v -0.3 2.1 -0.6999999
v -0.3 1.9 -0.6999999
v -0.3000001 1.9 -0.8999999
v -0.3000001 2.1 -0.8999999
vn 1.192093E-07 0 0.9999999
vn 1.192093E-07 0 0.9999999
vn 1.192093E-07 0 0.9999999
vn 1.192093E-07 0 0.9999999
vn 1.192093E-07 0 0.9999999
vn 1.192093E-07 0 0.9999999
vn 1.192093E-07 0 0.9999999
vn 1.192093E-07 0 0.9999999
vn 1.192093E-07 0 0.9999999
vn 1.192093E-07 0 0.9999999
vn 1.192093E-07 0 0.9999999
vn 1.192093E-07 0 0.9999999
vn -1.192093E-07 0 -0.9999999
vn -1.192093E-07 0 -0.9999999
vn -1.192093E-07 0 -0.9999999
vn -1.192093E-07 0 -0.9999999
vn -1.192093E-07 0 -0.9999999
vn -1.192093E-07 0 -0.9999999
vn -1.192093E-07 0 -0.9999999
vn -1.192093E-07 0 -0.9999999
vn -1.192093E-07 0 -0.9999999
vn -1.192093E-07 0 -0.9999999
vn -1.192093E-07 0 -0.9999999
vn -1.192093E-07 0 -0.9999999
vn 0 -1 0
vn 0 -1 0
vn 0 -1 0
vn 0 -1 0
vn 0 -1 0
vn 0 -1 0
vn 0 -1 0
vn 0 -1 0
vn 0 -1 0
vn 0 -1 0
vn 0 -1 0
vn 0 -1 0
vn 0 1 0
vn 0 1 0
vn 0 1 0
vn 0 1 0
vn 0 1 0
vn 0 1 0
vn 0 1 0
vn 0 1 0
vn 0 1 0
vn 0 1 0
vn 0 1 0
vn 0 1 0
vn 0.9999999 0 -1.192093E-07
vn 0.9999999 0 -1.192093E-07
vn 0.9999999 0 -1.192093E-07
vn 0.9999999 0 -1.192093E-07
vn 0.9999999 0 -1.192093E-07
vn 0.9999999 0 -1.192093E-07
vn 0.9999999 0 -1.192093E-07
vn 0.9999999 0 -1.192093E-07
vn 0.9999999 0 -1.192093E-07
vn 0.9999999 0 -1.192093E-07
vn 0.9999999 0 -1.192093E-07
vn 0.9999999 0 -1.192093E-07
vn 0.9999999 0 -1.192093E-07
vn 0.9999999 0 -1.192093E-07
vn 0.9999999 0 -1.192093E-07
vn 0.9999999 0 -1.192093E-07
vn 0.9999999 0 -1.192093E-07
vn 0.9999999 0 -1.192093E-07
vn 0.9999999 0 -1.192093E-07
vn 0.9999999 0 -1.192093E-07
vn 0.9999999 0 -1.192093E-07
vn 0.9999999 0 -1.192093E-07
vn 0.9999999 0 -1.192093E-07
vn 0.9999999 0 -1.192093E-07
vn 0.9999999 0 -1.192093E-07
vn 0.9999999 0 -1.192093E-07
vn 0.9999999 0 -1.192093E-07
vn -0.9999999 0 1.192093E-07
vn -0.9999999 0 1.192093E-07
vn -0.9999999 0 1.192093E-07
vn -0.9999999 0 1.192093E-07
vn -0.9999999 0 1.192093E-07
vn -0.9999999 0 1.192093E-07
vn -0.9999999 0 1.192093E-07
vn -0.9999999 0 1.192093E-07
vn -0.9999999 0 1.192093E-07
vn -0.9999999 0 1.192093E-07
vn -0.9999999 0 1.192093E-07
vn -0.9999999 0 1.192093E-07
vn -0.9999999 0 1.192093E-07
vn -0.9999999 0 1.192093E-07
vn -0.9999999 0 1.192093E-07
vn -0.9999999 0 1.192093E-07
vn -0.9999999 0 1.192093E-07
vn -0.9999999 0 1.192093E-07
vn -0.9999999 0 1.192093E-07
vn -0.9999999 0 1.192093E-07
vn -0.9999999 0 1.192093E-07
vn -0.9999999 0 1.192093E-07
vn -0.9999999 0 1.192093E-07
vn -0.9999999 0 1.192093E-07
vn -0.9999999 0 1.192093E-07
vn -0.9999999 0 1.192093E-07
vn -0.9999999 0 1.192093E-07
vt 0.1112682 0.5001768
vt 0.2221437 0.5001768
vt 0.2221437 0.7496464
vt 0.1111897 0.7498232
vt 0.7779349 0.5001768
vt 0.8888103 0.5001768
vt 0.8888103 0.7496464
vt 0.7778563 0.7498232
vt 0.7779349 0.5001768
vt 0.8888103 0.5001768
vt 0.8888103 0.7496464
vt 0.7778563 0.7498232
vt 0.2221437 0.7496464
vt 0.2221437 0.5001768
vt 0.1112682 0.5001768
vt 0.1111897 0.7498232
vt 0.8888103 0.7496464
vt 0.8888103 0.5001768
vt 0.7779349 0.5001768
vt 0.7778563 0.7498232
vt 0.8888103 0.7496464
vt 0.8888103 0.5001768
vt 0.7779349 0.5001768
vt 0.7778563 0.7498232
vt 0.2221437 0.7496464
vt 0.2221437 0.5001768
vt 0.1112682 0.5001768
vt 0.1111897 0.7498232
vt 0.8888103 0.7496464
vt 0.8888103 0.5001768
vt 0.7779349 0.5001768
vt 0.7778563 0.7498232
vt 0.8888103 0.7496464
vt 0.8888103 0.5001768
vt 0.7779349 0.5001768
vt 0.7778563 0.7498232
vt 0.7779349 0.5001768
vt 0.8888103 0.5001768
vt 0.8888103 0.7496464
vt 0.7778563 0.7498232
vt 0.7779349 0.5001768
vt 0.8888103 0.5001768
vt 0.8888103 0.7496464
vt 0.7778563 0.7498232
vt 0.1112682 0.5001768
vt 0.2221437 0.5001768
vt 0.2221437 0.7496464
vt 0.1111897 0.7498232
vt 0.4443218 0.4723823
vt 0.3518892 0.7496799
vt 0.3241594 0.4723823
vt 0.5553475 0.3754389
vt 0.4445485 0.7496489
vt 0.4445485 0.6249122
vt 0.5 0.74975
vt 0.5554556 0.4723472
vt 0.4445444 0.4723472
vt 0.4545987 0.7497805
vt 0.4445154 0.7497805
vt 0.5554314 0.250439
vt 0.4944498 0.7496405
vt 0.4445217 0.2501797
vt 0.4445369 0.7498093
vt 0.5553706 0.4725516
vt 0.4445369 0.7220836
vt 0.4443224 0.4689112
vt 0.324159 0.4689112
vt 0.351889 0.7496775
vt 0.5554515 0.7496489
vt 0.4446525 0.3754389
vt 0.5554515 0.6249122
vt 0.7779349 0.5001768
vt 0.8888103 0.5001768
vt 0.8888103 0.7496464
vt 0.7778563 0.7498232
vt 0.3241594 0.4723823
vt 0.3518892 0.7496799
vt 0.4443218 0.4723823
vt 0.4445485 0.6249122
vt 0.4445485 0.7496489
vt 0.5553475 0.3754389
vt 0.4445444 0.4723472
vt 0.5554556 0.4723472
vt 0.5 0.74975
vt 0.5554314 0.250439
vt 0.4445154 0.7497805
vt 0.4545987 0.7497805
vt 0.4445217 0.2501797
vt 0.4944498 0.7496405
vt 0.4445369 0.7220836
vt 0.5553706 0.4725516
vt 0.4445369 0.7498093
vt 0.351889 0.7496775
vt 0.324159 0.4689112
vt 0.4443224 0.4689112
vt 0.5554515 0.6249122
vt 0.4446525 0.3754389
vt 0.5554515 0.7496489
vt 0.8888103 0.7496464
vt 0.8888103 0.5001768
vt 0.7779349 0.5001768
vt 0.7778563 0.7498232
usemtl EGA_Building_Door_14_texture0
f 3/3/3 2/2/2 1/1/1
f 4/4/4 3/3/3 1/1/1
f 7/7/7 6/6/6 5/5/5
f 8/8/8 7/7/7 5/5/5
f 11/11/11 10/10/10 9/9/9
f 12/12/12 11/11/11 9/9/9
f 15/15/15 14/14/14 13/13/13
f 15/15/15 13/13/13 16/16/16
f 19/19/19 18/18/18 17/17/17
f 19/19/19 17/17/17 20/20/20
f 23/23/23 22/22/22 21/21/21
f 23/23/23 21/21/21 24/24/24
f 27/27/27 26/26/26 25/25/25
f 27/27/27 25/25/25 28/28/28
f 31/31/31 30/30/30 29/29/29
f 31/31/31 29/29/29 32/32/32
f 35/35/35 34/34/34 33/33/33
f 35/35/35 33/33/33 36/36/36
f 39/39/39 38/38/38 37/37/37
f 40/40/40 39/39/39 37/37/37
f 43/43/43 42/42/42 41/41/41
f 44/44/44 43/43/43 41/41/41
f 47/47/47 46/46/46 45/45/45
f 48/48/48 47/47/47 45/45/45
f 51/51/51 50/50/50 49/49/49
f 54/54/54 53/53/53 52/52/52
f 57/57/57 56/56/56 55/55/55
f 60/60/60 59/59/59 58/58/58
f 62/62/62 61/61/61 60/60/60
f 65/65/65 64/64/64 63/63/63
f 68/68/68 67/67/67 66/66/66
f 71/71/71 70/70/70 69/69/69
f 74/74/74 73/73/73 72/72/72
f 75/75/75 74/74/74 72/72/72
f 78/78/78 77/77/77 76/76/76
f 81/81/81 80/80/80 79/79/79
f 84/84/84 83/83/83 82/82/82
f 87/87/87 86/86/86 85/85/85
f 85/85/85 89/89/89 88/88/88
f 92/92/92 91/91/91 90/90/90
f 95/95/95 94/94/94 93/93/93
f 98/98/98 97/97/97 96/96/96
f 101/101/101 100/100/100 99/99/99
f 101/101/101 99/99/99 102/102/102
