mtllib EGA_BurgerMenuPart_04.mtl
g default
v -0.7920001 -0.008 0.456
v -0.7920001 0.056 0.136
v -0.7920001 0.12 0.456
v -0.7920001 0.056 0.136
v -0.7920001 0.088 0.136
v -0.7920001 0.056 0.136
v -0.7920001 -0.008 -0.44
v -0.7920001 0.088 0.136
v -0.7920001 0.12 -0.44
v -0.7920001 0.056 -0.12
v -0.7920001 0.056 0.136
v -0.7920001 0.056 -0.12
v -0.7920001 0.088 0.136
v -0.7920001 0.088 -0.12
v -0.7920001 0.056 -0.12
v -0.7920001 0.088 -0.12
v 0.776 0.12 0.44
v 0.776 0.024 0.44
v 0.776 0.088 0.136
v 0.776 0.088 0.136
v 0.776 0.056 0.136
v 0.776 0.088 0.136
v 0.776 0.12 -0.424
v 0.776 0.056 0.136
v 0.776 0.024 -0.424
v 0.776 0.088 -0.12
v 0.776 0.088 0.136
v 0.776 0.088 -0.12
v 0.776 0.056 0.136
v 0.776 0.056 -0.12
v 0.776 0.056 -0.12
v 0.776 0.088 -0.12
v -0.776 0.088 0.136
v -0.776 0.024 0.44
v -0.776 0.12 0.44
v -0.776 0.056 0.136
v -0.776 0.088 0.136
v -0.776 0.12 -0.424
v -0.776 0.088 0.136
v -0.776 0.024 -0.424
v -0.776 0.056 0.136
v -0.776 0.088 -0.12
v -0.776 0.088 -0.12
v -0.776 0.088 0.136
v -0.776 0.056 -0.12
v -0.776 0.056 0.136
v -0.776 0.088 -0.12
v -0.776 0.056 -0.12
v 0.7920001 0.12 0.456
v 0.7920001 0.056 0.136
v 0.7920001 -0.008 0.456
v 0.7920001 0.088 0.136
v 0.7920001 0.056 0.136
v 0.7920001 -0.008 -0.44
v 0.7920001 0.056 0.136
v 0.7920001 0.12 -0.44
v 0.7920001 0.088 0.136
v 0.7920001 0.056 -0.12
v 0.7920001 0.056 -0.12
v 0.7920001 0.056 0.136
v 0.7920001 0.088 -0.12
v 0.7920001 0.088 0.136
v 0.7920001 0.088 -0.12
v 0.7920001 0.056 -0.12
v -0.7920001 -0.008 -0.44
v -0.7920001 -0.008 0.456
v 0.7920001 -0.008 0.456
v 0.7920001 -0.008 -0.44
v 0.776 0.088 -0.12
v 0.776 0.088 0.136
v 0.7920001 0.088 0.136
v 0.7920001 0.088 -0.12
v -0.7920001 0.088 -0.12
v -0.7920001 0.088 0.136
v -0.776 0.088 0.136
v -0.776 0.088 -0.12
v 0.7920001 0.12 0.456
v -0.7920001 0.12 0.456
v 0.776 0.12 0.44
v 0.776 0.12 0.44
v -0.776 0.12 0.44
v 0.776 0.12 0.44
v 0.7920001 0.12 -0.44
v -0.776 0.12 0.44
v -0.7920001 0.12 -0.44
v 0.776 0.12 -0.424
v 0.776 0.12 0.44
v 0.776 0.12 -0.424
v -0.776 0.12 0.44
v -0.776 0.12 -0.424
v -0.776 0.12 -0.424
v 0.776 0.12 -0.424
v 0.7920001 0.056 0.136
v 0.776 0.056 0.136
v 0.776 0.056 -0.12
v 0.7920001 0.056 -0.12
v -0.776 0.056 0.136
v -0.7920001 0.056 0.136
v -0.7920001 0.056 -0.12
v -0.776 0.056 -0.12
v 0.776 0.024 0.44
v -0.776 0.024 0.44
v -0.776 0.024 -0.424
v 0.776 0.024 -0.424
v 0.776 0.024 -0.424
v -0.776 0.024 -0.424
v -0.776 0.12 -0.424
v 0.776 0.12 -0.424
v 0.7920001 0.056 -0.12
v 0.776 0.056 -0.12
v 0.776 0.088 -0.12
v 0.7920001 0.088 -0.12
v -0.776 0.056 -0.12
v -0.7920001 0.056 -0.12
v -0.7920001 0.088 -0.12
v -0.776 0.088 -0.12
v 0.7920001 -0.008 0.456
v -0.7920001 -0.008 0.456
v -0.7920001 0.12 0.456
v 0.7920001 0.12 0.456
v -0.7920001 0.12 -0.44
v -0.7920001 -0.008 -0.44
v 0.7920001 -0.008 -0.44
v 0.7920001 0.12 -0.44
v 0.776 0.088 0.136
v 0.776 0.056 0.136
v 0.7920001 0.056 0.136
v 0.7920001 0.088 0.136
v -0.7920001 0.088 0.136
v -0.7920001 0.056 0.136
v -0.776 0.056 0.136
v -0.776 0.088 0.136
v -0.776 0.12 0.44
v -0.776 0.024 0.44
v 0.776 0.024 0.44
v 0.776 0.12 0.44
vn -1 0 0
vn -1 0 0
vn -1 0 0
vn -1 0 0
vn -1 0 0
vn -1 0 0
vn -1 0 0
vn -1 0 0
vn -1 0 0
vn -1 0 0
vn -1 0 0
vn -1 0 0
vn -1 0 0
vn -1 0 0
vn -1 0 0
vn -1 0 0
vn -1 0 0
vn -1 0 0
vn -1 0 0
vn -1 0 0
vn -1 0 0
vn -1 0 0
vn -1 0 0
vn -1 0 0
vn -1 0 0
vn -1 0 0
vn -1 0 0
vn -1 0 0
vn -1 0 0
vn -1 0 0
vn -1 0 0
vn -1 0 0
vn 1 0 0
vn 1 0 0
vn 1 0 0
vn 1 0 0
vn 1 0 0
vn 1 0 0
vn 1 0 0
vn 1 0 0
vn 1 0 0
vn 1 0 0
vn 1 0 0
vn 1 0 0
vn 1 0 0
vn 1 0 0
vn 1 0 0
vn 1 0 0
vn 1 0 0
vn 1 0 0
vn 1 0 0
vn 1 0 0
vn 1 0 0
vn 1 0 0
vn 1 0 0
vn 1 0 0
vn 1 0 0
vn 1 0 0
vn 1 0 0
vn 1 0 0
vn 1 0 0
vn 1 0 0
vn 1 0 0
vn 1 0 0
vn 0 -1 0
vn 0 -1 0
vn 0 -1 0
vn 0 -1 0
vn 0 -1 0
vn 0 -1 0
vn 0 -1 0
vn 0 -1 0
vn 0 -1 0
vn 0 -1 0
vn 0 -1 0
vn 0 -1 0
vn 0 1 0
vn 0 1 0
vn 0 1 0
vn 0 1 0
vn 0 1 0
vn 0 1 0
vn 0 1 0
vn 0 1 0
vn 0 1 0
vn 0 1 0
vn 0 1 0
vn 0 1 0
vn 0 1 0
vn 0 1 0
vn 0 1 0
vn 0 1 0
vn 0 1 0
vn 0 1 0
vn 0 1 0
vn 0 1 0
vn 0 1 0
vn 0 1 0
vn 0 1 0
vn 0 1 0
vn 0 1 0
vn 0 1 0
vn 0 1 0
vn 0 1 0
vn 0 0 1
vn 0 0 1
vn 0 0 1
vn 0 0 1
vn 0 0 1
vn 0 0 1
vn 0 0 1
vn 0 0 1
vn 0 0 1
vn 0 0 1
vn 0 0 1
vn 0 0 1
vn 0 0 1
vn 0 0 1
vn 0 0 1
vn 0 0 1
vn 0 0 -1
vn 0 0 -1
vn 0 0 -1
vn 0 0 -1
vn 0 0 -1
vn 0 0 -1
vn 0 0 -1
vn 0 0 -1
vn 0 0 -1
vn 0 0 -1
vn 0 0 -1
vn 0 0 -1
vn 0 0 -1
vn 0 0 -1
vn 0 0 -1
vn 0 0 -1
vt 0.249896 0.7500693
vt 0.1875 0.8748613
vt 0.125104 0.7500693
vt 0.2498125 0.874875
vt 0.1875 0.874875
vt 0.1251483 0.794664
vt 0.2499259 0.8748782
vt 0.2498517 0.794664
vt 0.1250741 0.8748782
vt 0.1875 0.7501387
vt 0.1251242 0.7501795
vt 0.1251242 0.8055694
vt 0.2498758 0.7501795
vt 0.2498758 0.8055694
vt 0.2498125 0.750125
vt 0.1875 0.750125
vt 0.1251 0.750075
vt 0.249875 0.750075
vt 0.1666917 0.87485
vt 0.1251875 0.874875
vt 0.1875 0.874875
vt 0.2498513 0.7940035
vt 0.1250743 0.8748775
vt 0.1251487 0.7940035
vt 0.2499257 0.8748775
vt 0.1666917 0.75015
vt 0.2498755 0.7501815
vt 0.2498755 0.8071535
vt 0.1251245 0.7501815
vt 0.1251245 0.8071535
vt 0.1875 0.750125
vt 0.1251875 0.750125
vt 0.1666917 0.87485
vt 0.249875 0.750075
vt 0.1251 0.750075
vt 0.1875 0.874875
vt 0.1251875 0.874875
vt 0.1250743 0.8748775
vt 0.2498513 0.7940035
vt 0.2499257 0.8748775
vt 0.1251487 0.7940035
vt 0.1666917 0.75015
vt 0.2498755 0.8071535
vt 0.2498755 0.7501815
vt 0.1251245 0.8071535
vt 0.1251245 0.7501815
vt 0.1251875 0.750125
vt 0.1875 0.750125
vt 0.125104 0.7500693
vt 0.1875 0.8748613
vt 0.249896 0.7500693
vt 0.1875 0.874875
vt 0.2498125 0.874875
vt 0.2499259 0.8748782
vt 0.1251483 0.794664
vt 0.1250741 0.8748782
vt 0.2498517 0.794664
vt 0.1875 0.7501387
vt 0.1251242 0.8055694
vt 0.1251242 0.7501795
vt 0.2498758 0.8055694
vt 0.2498758 0.7501795
vt 0.1875 0.750125
vt 0.2498125 0.750125
vt 0.2499116 0.8748232
vt 0.2499116 0.7500884
vt 0.1251768 0.7500884
vt 0.1250884 0.8749116
vt 0.2499116 0.8748232
vt 0.2499116 0.7500884
vt 0.1251768 0.7500884
vt 0.1250884 0.8749116
vt 0.2499116 0.8748232
vt 0.2499116 0.7500884
vt 0.1251768 0.7500884
vt 0.1250884 0.8749116
vt 0.1250888 0.7500879
vt 0.249825 0.7500879
vt 0.1263488 0.8748241
vt 0.1251777 0.8749107
vt 0.248637 0.8749107
vt 0.2498248 0.7523166
vt 0.1250876 0.8748264
vt 0.1251752 0.7523166
vt 0.2499124 0.8748264
vt 0.1263488 0.7501759
vt 0.24991 0.7501784
vt 0.24991 0.8726406
vt 0.12509 0.7501784
vt 0.12509 0.8726406
vt 0.248637 0.7500893
vt 0.1251777 0.7500893
vt 0.1251768 0.7500884
vt 0.2499116 0.7500884
vt 0.2499116 0.8748232
vt 0.1250884 0.8749116
vt 0.1251768 0.7500884
vt 0.2499116 0.7500884
vt 0.2499116 0.8748232
vt 0.1250884 0.8749116
vt 0.5001768 0.7500884
vt 0.6249116 0.7500884
vt 0.6249116 0.8748232
vt 0.5000884 0.8749116
vt 0.1251768 0.7500884
vt 0.2499116 0.7500884
vt 0.2499116 0.8748232
vt 0.1250884 0.8749116
vt 0.1251768 0.7500884
vt 0.2499116 0.7500884
vt 0.2499116 0.8748232
vt 0.1250884 0.8749116
vt 0.1251768 0.7500884
vt 0.2499116 0.7500884
vt 0.2499116 0.8748232
vt 0.1250884 0.8749116
vt 0.1251768 0.7500884
vt 0.2499116 0.7500884
vt 0.2499116 0.8748232
vt 0.1250884 0.8749116
vt 0.2499116 0.8748232
vt 0.2499116 0.7500884
vt 0.1251768 0.7500884
vt 0.1250884 0.8749116
vt 0.2499116 0.8748232
vt 0.2499116 0.7500884
vt 0.1251768 0.7500884
vt 0.1250884 0.8749116
vt 0.2499116 0.8748232
vt 0.2499116 0.7500884
vt 0.1251768 0.7500884
vt 0.1250884 0.8749116
vt 0.2499116 0.8748232
vt 0.2499116 0.7500884
vt 0.1251768 0.7500884
vt 0.1250884 0.8749116
usemtl EGA_BurgerMenuPart_04_texture0
f 3/3/3 2/2/2 1/1/1
f 5/5/5 4/4/4 3/3/3
f 7/7/7 1/1/1 6/6/6
f 9/9/9 8/8/8 3/3/3
f 10/10/10 9/9/9 7/7/7
f 12/12/12 7/7/7 11/11/11
f 14/14/14 13/13/13 9/9/9
f 16/16/16 9/9/9 15/15/15
f 19/19/19 18/18/18 17/17/17
f 21/21/21 18/18/18 20/20/20
f 23/23/23 22/22/22 17/17/17
f 25/25/25 18/18/18 24/24/24
f 23/23/23 25/25/25 26/26/26
f 28/28/28 27/27/27 23/23/23
f 30/30/30 25/25/25 29/29/29
f 32/32/32 25/25/25 31/31/31
f 35/35/35 34/34/34 33/33/33
f 37/37/37 34/34/34 36/36/36
f 35/35/35 39/39/39 38/38/38
f 41/41/41 34/34/34 40/40/40
f 42/42/42 40/40/40 38/38/38
f 38/38/38 44/44/44 43/43/43
f 46/46/46 40/40/40 45/45/45
f 48/48/48 40/40/40 47/47/47
f 51/51/51 50/50/50 49/49/49
f 49/49/49 53/53/53 52/52/52
f 55/55/55 51/51/51 54/54/54
f 49/49/49 57/57/57 56/56/56
f 54/54/54 56/56/56 58/58/58
f 60/60/60 54/54/54 59/59/59
f 56/56/56 62/62/62 61/61/61
f 64/64/64 56/56/56 63/63/63
f 67/67/67 66/66/66 65/65/65
f 67/67/67 65/65/65 68/68/68
f 71/71/71 70/70/70 69/69/69
f 71/71/71 69/69/69 72/72/72
f 75/75/75 74/74/74 73/73/73
f 75/75/75 73/73/73 76/76/76
f 79/79/79 78/78/78 77/77/77
f 81/81/81 78/78/78 80/80/80
f 83/83/83 82/82/82 77/77/77
f 85/85/85 78/78/78 84/84/84
f 83/83/83 85/85/85 86/86/86
f 88/88/88 87/87/87 83/83/83
f 90/90/90 85/85/85 89/89/89
f 92/92/92 85/85/85 91/91/91
f 95/95/95 94/94/94 93/93/93
f 96/96/96 95/95/95 93/93/93
f 99/99/99 98/98/98 97/97/97
f 100/100/100 99/99/99 97/97/97
f 103/103/103 102/102/102 101/101/101
f 104/104/104 103/103/103 101/101/101
f 107/107/107 106/106/106 105/105/105
f 108/108/108 107/107/107 105/105/105
f 111/111/111 110/110/110 109/109/109
f 112/112/112 111/111/111 109/109/109
f 115/115/115 114/114/114 113/113/113
f 116/116/116 115/115/115 113/113/113
f 119/119/119 118/118/118 117/117/117
f 120/120/120 119/119/119 117/117/117
f 123/123/123 122/122/122 121/121/121
f 123/123/123 121/121/121 124/124/124
f 127/127/127 126/126/126 125/125/125
f 127/127/127 125/125/125 128/128/128
f 131/131/131 130/130/130 129/129/129
f 131/131/131 129/129/129 132/132/132
f 135/135/135 134/134/134 133/133/133
f 135/135/135 133/133/133 136/136/136
