mtllib EGA_Sidewalk_44.mtl
g default
v -2.1 0.3 2.9
v -2.1 -0.1 2.9
v -2.1 -0.1 -3.1
v -2.1 0.3 -3.1
v 1.7 -0.1 -3.1
v 1.7 -0.1 2.1
v 1.7 0.3 2.1
v 1.7 0.3 -3.1
v 3.9 -0.1 2.1
v 3.9 -0.1 2.9
v 3.9 0.3 2.9
v 3.9 0.3 2.1
v 1.7 -0.1 2.1
v -2.1 -0.1 2.9
v 3.9 -0.1 2.9
v -2.1 -0.1 -3.1
v -2.1 -0.1 2.9
v 1.7 -0.1 2.1
v 3.9 -0.1 2.1
v 1.7 -0.1 2.1
v 3.9 -0.1 2.9
v 1.7 -0.1 -3.1
v -2.1 -0.1 -3.1
v 1.7 -0.1 2.1
v 3.9 0.3 2.9
v -2.1 0.3 2.9
v 1.7 0.3 2.1
v 1.7 0.3 2.1
v -2.1 0.3 2.9
v -2.1 0.3 -3.1
v 3.9 0.3 2.9
v 1.7 0.3 2.1
v 3.9 0.3 2.1
v 1.7 0.3 2.1
v -2.1 0.3 -3.1
v 1.7 0.3 -3.1
v 3.9 -0.1 2.9
v -2.1 -0.1 2.9
v -2.1 0.3 2.9
v 3.9 0.3 2.9
v -2.1 0.3 -3.1
v -2.1 -0.1 -3.1
v 1.7 -0.1 -3.1
v 1.7 0.3 -3.1
v 1.7 0.3 2.1
v 1.7 -0.1 2.1
v 3.9 -0.1 2.1
v 3.9 0.3 2.1
vn -1 0 0
vn -1 0 0
vn -1 0 0
vn -1 0 0
vn 1 0 0
vn 1 0 0
vn 1 0 0
vn 1 0 0
vn 1 0 0
vn 1 0 0
vn 1 0 0
vn 1 0 0
vn 0 -1 0
vn 0 -1 0
vn 0 -1 0
vn 0 -1 0
vn 0 -1 0
vn 0 -1 0
vn 0 -1 0
vn 0 -1 0
vn 0 -1 0
vn 0 -1 0
vn 0 -1 0
vn 0 -1 0
vn 0 1 0
vn 0 1 0
vn 0 1 0
vn 0 1 0
vn 0 1 0
vn 0 1 0
vn 0 1 0
vn 0 1 0
vn 0 1 0
vn 0 1 0
vn 0 1 0
vn 0 1 0
vn 0 0 1
vn 0 0 1
vn 0 0 1
vn 0 0 1
vn 0 0 -1
vn 0 0 -1
vn 0 0 -1
vn 0 0 -1
vn 0 0 -1
vn 0 0 -1
vn 0 0 -1
vn 0 0 -1
vt 0.8750209 0.03127944
vt 0.9062395 0.03127944
vt 0.9062395 0.9686911
vt 0.8750105 0.9687206
vt 0.3749779 0.4375442
vt 0.3749779 0.4687279
vt 0.3437942 0.4687279
vt 0.3437721 0.4375221
vt 0.1874779 0.4375442
vt 0.1874779 0.4687279
vt 0.1562942 0.4687279
vt 0.1562721 0.4375221
vt 0.624989 0.9062793
vt 0.03131721 0.947902
vt 0.9686938 0.947902
vt 0.9062392 0.9686929
vt 0.9062392 0.03128467
vt 0.8750218 0.1562724
vt 0.1562791 0.4375114
vt 0.4999419 0.4375114
vt 0.1562791 0.4687271
vt 0.1562724 0.2500218
vt 0.1562724 0.8437064
vt 0.9687052 0.2500218
vt 0.9686938 0.947902
vt 0.03131721 0.947902
vt 0.624989 0.9062793
vt 0.8750218 0.1562724
vt 0.9062392 0.03128467
vt 0.9062392 0.9686929
vt 0.1562791 0.4687271
vt 0.4999419 0.4375114
vt 0.1562791 0.4375114
vt 0.9687052 0.2500218
vt 0.1562724 0.8437064
vt 0.1562724 0.2500218
vt 0.2764832 0.8125236
vt 0.3124796 0.8125236
vt 0.3124796 0.8437027
vt 0.2764628 0.8437264
vt 0.1562716 0.8437207
vt 0.1874892 0.8437207
vt 0.1874892 0.2500587
vt 0.1562608 0.2500293
vt 0.4999709 0.4375229
vt 0.4999709 0.4687386
vt 0.1563081 0.4687386
vt 0.1562791 0.4375114
usemtl EGA_Sidewalk_44_texture0
f 3/3/3 2/2/2 1/1/1
f 4/4/4 3/3/3 1/1/1
f 7/7/7 6/6/6 5/5/5
f 7/7/7 5/5/5 8/8/8
f 11/11/11 10/10/10 9/9/9
f 11/11/11 9/9/9 12/12/12
f 15/15/15 14/14/14 13/13/13
f 18/18/18 17/17/17 16/16/16
f 21/21/21 20/20/20 19/19/19
f 24/24/24 23/23/23 22/22/22
f 27/27/27 26/26/26 25/25/25
f 30/30/30 29/29/29 28/28/28
f 33/33/33 32/32/32 31/31/31
f 36/36/36 35/35/35 34/34/34
f 39/39/39 38/38/38 37/37/37
f 40/40/40 39/39/39 37/37/37
f 43/43/43 42/42/42 41/41/41
f 43/43/43 41/41/41 44/44/44
f 47/47/47 46/46/46 45/45/45
f 47/47/47 45/45/45 48/48/48
