mtllib EGA_Railing_04.mtl
g default
v -1.9 1.9 0.1
v -1.9 -0.1 0.1
v -1.9 -0.1 -0.1
v -1.9 1.9 -0.1
v 0.3 1.7 0.1
v 0.3 1.3 0.1
v 0.3 1.3 -0.1
v 0.3 1.7 -0.1
v 0.3 1.1 0.1
v 0.3 0.7 0.1
v 0.3 0.7 -0.1
v 0.3 1.1 -0.1
v 0.3 0.5 0.1
v 0.3 -0.1 0.1
v 0.3 -0.1 -0.1
v 0.3 0.5 -0.1
v 2.5 1.7 -0.1
v 2.5 1.7 0.1
v 2.5 1.9 0.1
v 2.5 1.9 -0.1
v 2.5 1.1 -0.1
v 2.5 1.1 0.1
v 2.5 1.3 0.1
v 2.5 1.3 -0.1
v 2.5 0.5 -0.1
v 2.5 0.5 0.1
v 2.5 0.7 0.1
v 2.5 0.7 -0.1
v -1.7 1.3 -0.1
v -1.7 1.3 0.1
v -1.7 1.7 0.1
v -1.7 1.7 -0.1
v -1.7 0.7 -0.1
v -1.7 0.7 0.1
v -1.7 1.1 0.1
v -1.7 1.1 -0.1
v -1.7 -0.1 -0.1
v -1.7 -0.1 0.1
v -1.7 0.5 0.1
v -1.7 0.5 -0.1
v 0.5 1.3 -0.1
v 0.5 1.3 0.1
v 0.5 1.7 0.1
v 0.5 1.7 -0.1
v 0.5 0.7 -0.1
v 0.5 0.7 0.1
v 0.5 1.1 0.1
v 0.5 1.1 -0.1
v 0.5 -0.1 -0.1
v 0.5 -0.1 0.1
v 0.5 0.5 0.1
v 0.5 0.5 -0.1
v 0.3 -0.1 -0.1
v 0.3 -0.1 0.1
v 0.5 -0.1 0.1
v 0.5 -0.1 -0.1
v -1.9 -0.1 -0.1
v -1.9 -0.1 0.1
v -1.7 -0.1 0.1
v -1.7 -0.1 -0.1
v 0.5 1.7 -0.1
v 0.5 1.7 0.1
v 2.5 1.7 0.1
v 2.5 1.7 -0.1
v -1.7 1.7 -0.1
v -1.7 1.7 0.1
v 0.3 1.7 0.1
v 0.3 1.7 -0.1
v 0.5 1.1 -0.1
v 0.5 1.1 0.1
v 2.5 1.1 0.1
v 2.5 1.1 -0.1
v -1.7 1.1 -0.1
v -1.7 1.1 0.1
v 0.3 1.1 0.1
v 0.3 1.1 -0.1
v 0.5 0.5 -0.1
v 0.5 0.5 0.1
v 2.5 0.5 0.1
v 2.5 0.5 -0.1
v -1.7 0.5 -0.1
v -1.7 0.5 0.1
v 0.3 0.5 0.1
v 0.3 0.5 -0.1
v 2.5 1.9 0.1
v -1.9 1.9 0.1
v -1.9 1.9 -0.1
v 2.5 1.9 -0.1
v 2.5 1.3 0.1
v 0.5 1.3 0.1
v 0.5 1.3 -0.1
v 2.5 1.3 -0.1
v 0.3 1.3 0.1
v -1.7 1.3 0.1
v -1.7 1.3 -0.1
v 0.3 1.3 -0.1
v 2.5 0.7 0.1
v 0.5 0.7 0.1
v 0.5 0.7 -0.1
v 2.5 0.7 -0.1
v 0.3 0.7 0.1
v -1.7 0.7 0.1
v -1.7 0.7 -0.1
v 0.3 0.7 -0.1
v 2.5 0.5 0.1
v 0.5 0.5 0.1
v 0.5 0.7 0.1
v 2.5 0.7 0.1
v 0.5 0.5 0.1
v 0.3 0.7 0.1
v 0.5 0.7 0.1
v 0.3 0.5 0.1
v 0.5 0.7 0.1
v 0.3 0.7 0.1
v 0.3 1.1 0.1
v 0.5 1.1 0.1
v 0.3 0.5 0.1
v -1.7 0.7 0.1
v 0.3 0.7 0.1
v -1.7 0.5 0.1
v 0.5 -0.1 0.1
v 0.3 0.5 0.1
v 0.5 0.5 0.1
v 0.3 -0.1 0.1
v 0.5 1.1 0.1
v 0.3 1.1 0.1
v 0.3 1.3 0.1
v 0.5 1.3 0.1
v 0.3 1.1 0.1
v -1.7 1.3 0.1
v 0.3 1.3 0.1
v -1.7 1.1 0.1
v -1.9 -0.1 0.1
v -1.7 0.7 0.1
v -1.7 0.5 0.1
v -1.7 1.1 0.1
v -1.7 0.7 0.1
v -1.7 0.5 0.1
v -1.7 -0.1 0.1
v -1.7 1.1 0.1
v -1.9 1.9 0.1
v -1.7 1.1 0.1
v -1.7 1.3 0.1
v -1.7 1.3 0.1
v -1.7 1.7 0.1
v -1.7 1.7 0.1
v 0.3 1.7 0.1
v 2.5 1.9 0.1
v 0.3 1.7 0.1
v 0.5 1.7 0.1
v 0.3 1.7 0.1
v 0.5 1.7 0.1
v 2.5 1.7 0.1
v 0.5 1.3 0.1
v 0.3 1.3 0.1
v 0.3 1.7 0.1
v 0.5 1.7 0.1
v 2.5 1.1 0.1
v 0.5 1.1 0.1
v 0.5 1.3 0.1
v 2.5 1.3 0.1
v 0.5 0.7 -0.1
v 0.5 0.5 -0.1
v 2.5 0.5 -0.1
v 2.5 0.7 -0.1
v 0.5 0.7 -0.1
v 0.3 0.7 -0.1
v 0.5 0.5 -0.1
v 0.3 0.5 -0.1
v 0.3 1.1 -0.1
v 0.3 0.7 -0.1
v 0.5 0.7 -0.1
v 0.5 1.1 -0.1
v 0.3 0.7 -0.1
v -1.7 0.7 -0.1
v 0.3 0.5 -0.1
v -1.7 0.5 -0.1
v 0.5 0.5 -0.1
v 0.3 0.5 -0.1
v 0.5 -0.1 -0.1
v 0.3 -0.1 -0.1
v 0.3 1.3 -0.1
v 0.3 1.1 -0.1
v 0.5 1.1 -0.1
v 0.5 1.3 -0.1
v 0.3 1.3 -0.1
v -1.7 1.3 -0.1
v 0.3 1.1 -0.1
v -1.7 1.1 -0.1
v -1.7 0.5 -0.1
v -1.7 0.7 -0.1
v -1.9 -0.1 -0.1
v -1.7 0.7 -0.1
v -1.7 1.1 -0.1
v -1.7 -0.1 -0.1
v -1.7 0.5 -0.1
v -1.9 1.9 -0.1
v -1.7 1.1 -0.1
v -1.7 1.3 -0.1
v -1.7 1.1 -0.1
v -1.7 1.7 -0.1
v -1.7 1.3 -0.1
v 0.3 1.7 -0.1
v -1.7 1.7 -0.1
v 0.3 1.7 -0.1
v 2.5 1.9 -0.1
v 0.3 1.7 -0.1
v 0.5 1.7 -0.1
v 2.5 1.7 -0.1
v 0.5 1.7 -0.1
v 0.3 1.7 -0.1
v 0.3 1.3 -0.1
v 0.5 1.3 -0.1
v 0.5 1.7 -0.1
v 0.5 1.3 -0.1
v 0.5 1.1 -0.1
v 2.5 1.1 -0.1
v 2.5 1.3 -0.1
vn -1 0 0
vn -1 0 0
vn -1 0 0
vn -1 0 0
vn -1 0 0
vn -1 0 0
vn -1 0 0
vn -1 0 0
vn -1 0 0
vn -1 0 0
vn -1 0 0
vn -1 0 0
vn -1 0 0
vn -1 0 0
vn -1 0 0
vn -1 0 0
vn 1 0 0
vn 1 0 0
vn 1 0 0
vn 1 0 0
vn 1 0 0
vn 1 0 0
vn 1 0 0
vn 1 0 0
vn 1 0 0
vn 1 0 0
vn 1 0 0
vn 1 0 0
vn 1 0 0
vn 1 0 0
vn 1 0 0
vn 1 0 0
vn 1 0 0
vn 1 0 0
vn 1 0 0
vn 1 0 0
vn 1 0 0
vn 1 0 0
vn 1 0 0
vn 1 0 0
vn 1 0 0
vn 1 0 0
vn 1 0 0
vn 1 0 0
vn 1 0 0
vn 1 0 0
vn 1 0 0
vn 1 0 0
vn 1 0 0
vn 1 0 0
vn 1 0 0
vn 1 0 0
vn 0 -1 0
vn 0 -1 0
vn 0 -1 0
vn 0 -1 0
vn 0 -1 0
vn 0 -1 0
vn 0 -1 0
vn 0 -1 0
vn 0 -1 0
vn 0 -1 0
vn 0 -1 0
vn 0 -1 0
vn 0 -1 0
vn 0 -1 0
vn 0 -1 0
vn 0 -1 0
vn 0 -1 0
vn 0 -1 0
vn 0 -1 0
vn 0 -1 0
vn 0 -1 0
vn 0 -1 0
vn 0 -1 0
vn 0 -1 0
vn 0 -1 0
vn 0 -1 0
vn 0 -1 0
vn 0 -1 0
vn 0 -1 0
vn 0 -1 0
vn 0 -1 0
vn 0 -1 0
vn 0 1 0
vn 0 1 0
vn 0 1 0
vn 0 1 0
vn 0 1 0
vn 0 1 0
vn 0 1 0
vn 0 1 0
vn 0 1 0
vn 0 1 0
vn 0 1 0
vn 0 1 0
vn 0 1 0
vn 0 1 0
vn 0 1 0
vn 0 1 0
vn 0 1 0
vn 0 1 0
vn 0 1 0
vn 0 1 0
vn 0 0 1
vn 0 0 1
vn 0 0 1
vn 0 0 1
vn 0 0 1
vn 0 0 1
vn 0 0 1
vn 0 0 1
vn 0 0 1
vn 0 0 1
vn 0 0 1
vn 0 0 1
vn 0 0 1
vn 0 0 1
vn 0 0 1
vn 0 0 1
vn 0 0 1
vn 0 0 1
vn 0 0 1
vn 0 0 1
vn 0 0 1
vn 0 0 1
vn 0 0 1
vn 0 0 1
vn 0 0 1
vn 0 0 1
vn 0 0 1
vn 0 0 1
vn 0 0 1
vn 0 0 1
vn 0 0 1
vn 0 0 1
vn 0 0 1
vn 0 0 1
vn 0 0 1
vn 0 0 1
vn 0 0 1
vn 0 0 1
vn 0 0 1
vn 0 0 1
vn 0 0 1
vn 0 0 1
vn 0 0 1
vn 0 0 1
vn 0 0 1
vn 0 0 1
vn 0 0 1
vn 0 0 1
vn 0 0 1
vn 0 0 1
vn 0 0 1
vn 0 0 1
vn 0 0 1
vn 0 0 1
vn 0 0 1
vn 0 0 1
vn 0 0 1
vn 0 0 -1
vn 0 0 -1
vn 0 0 -1
vn 0 0 -1
vn 0 0 -1
vn 0 0 -1
vn 0 0 -1
vn 0 0 -1
vn 0 0 -1
vn 0 0 -1
vn 0 0 -1
vn 0 0 -1
vn 0 0 -1
vn 0 0 -1
vn 0 0 -1
vn 0 0 -1
vn 0 0 -1
vn 0 0 -1
vn 0 0 -1
vn 0 0 -1
vn 0 0 -1
vn 0 0 -1
vn 0 0 -1
vn 0 0 -1
vn 0 0 -1
vn 0 0 -1
vn 0 0 -1
vn 0 0 -1
vn 0 0 -1
vn 0 0 -1
vn 0 0 -1
vn 0 0 -1
vn 0 0 -1
vn 0 0 -1
vn 0 0 -1
vn 0 0 -1
vn 0 0 -1
vn 0 0 -1
vn 0 0 -1
vn 0 0 -1
vn 0 0 -1
vn 0 0 -1
vn 0 0 -1
vn 0 0 -1
vn 0 0 -1
vn 0 0 -1
vn 0 0 -1
vn 0 0 -1
vn 0 0 -1
vn 0 0 -1
vn 0 0 -1
vn 0 0 -1
vn 0 0 -1
vn 0 0 -1
vn 0 0 -1
vn 0 0 -1
vn 0 0 -1
vt 0.3338047 0.333569
vt 0.666431 0.333569
vt 0.666431 0.6661953
vt 0.333569 0.666431
vt 0.3338047 0.333569
vt 0.666431 0.333569
vt 0.666431 0.6661953
vt 0.333569 0.666431
vt 0.3338047 0.333569
vt 0.666431 0.333569
vt 0.666431 0.6661953
vt 0.333569 0.666431
vt 0.3338047 0.333569
vt 0.666431 0.333569
vt 0.666431 0.6661953
vt 0.333569 0.666431
vt 0.666431 0.6661953
vt 0.666431 0.333569
vt 0.3338047 0.333569
vt 0.333569 0.666431
vt 0.666431 0.6661953
vt 0.666431 0.333569
vt 0.3338047 0.333569
vt 0.333569 0.666431
vt 0.666431 0.6661953
vt 0.666431 0.333569
vt 0.3338047 0.333569
vt 0.333569 0.666431
vt 0.666431 0.6661953
vt 0.666431 0.333569
vt 0.3338047 0.333569
vt 0.333569 0.666431
vt 0.666431 0.6661953
vt 0.666431 0.333569
vt 0.3338047 0.333569
vt 0.333569 0.666431
vt 0.666431 0.6661953
vt 0.666431 0.333569
vt 0.3338047 0.333569
vt 0.333569 0.666431
vt 0.666431 0.6661953
vt 0.666431 0.333569
vt 0.3338047 0.333569
vt 0.333569 0.666431
vt 0.666431 0.6661953
vt 0.666431 0.333569
vt 0.3338047 0.333569
vt 0.333569 0.666431
vt 0.666431 0.6661953
vt 0.666431 0.333569
vt 0.3338047 0.333569
vt 0.333569 0.666431
vt 0.666431 0.6661953
vt 0.666431 0.333569
vt 0.3338047 0.333569
vt 0.333569 0.666431
vt 0.666431 0.6661953
vt 0.666431 0.333569
vt 0.3338047 0.333569
vt 0.333569 0.666431
vt 0.666431 0.6661953
vt 0.666431 0.333569
vt 0.3338047 0.333569
vt 0.333569 0.666431
vt 0.666431 0.6661953
vt 0.666431 0.333569
vt 0.3338047 0.333569
vt 0.333569 0.666431
vt 0.666431 0.6661953
vt 0.666431 0.333569
vt 0.3338047 0.333569
vt 0.333569 0.666431
vt 0.666431 0.6661953
vt 0.666431 0.333569
vt 0.3338047 0.333569
vt 0.333569 0.666431
vt 0.666431 0.6661953
vt 0.666431 0.333569
vt 0.3338047 0.333569
vt 0.333569 0.666431
vt 0.666431 0.6661953
vt 0.666431 0.333569
vt 0.3338047 0.333569
vt 0.333569 0.666431
vt 0.3338047 0.333569
vt 0.666431 0.333569
vt 0.666431 0.6661953
vt 0.333569 0.666431
vt 0.3338047 0.333569
vt 0.666431 0.333569
vt 0.666431 0.6661953
vt 0.333569 0.666431
vt 0.3338047 0.333569
vt 0.666431 0.333569
vt 0.666431 0.6661953
vt 0.333569 0.666431
vt 0.3338047 0.333569
vt 0.666431 0.333569
vt 0.666431 0.6661953
vt 0.333569 0.666431
vt 0.3338047 0.333569
vt 0.666431 0.333569
vt 0.666431 0.6661953
vt 0.333569 0.666431
vt 0.3338047 0.333569
vt 0.666431 0.333569
vt 0.666431 0.6661953
vt 0.333569 0.666431
vt 0.333569 0.3338047
vt 0.6661953 0.666431
vt 0.333569 0.666431
vt 0.666431 0.333569
vt 0.3338047 0.333569
vt 0.666431 0.333569
vt 0.666431 0.6661953
vt 0.333569 0.666431
vt 0.333569 0.3338047
vt 0.6661953 0.666431
vt 0.333569 0.666431
vt 0.666431 0.333569
vt 0.333569 0.3338047
vt 0.6661953 0.666431
vt 0.333569 0.666431
vt 0.666431 0.333569
vt 0.3338047 0.333569
vt 0.666431 0.333569
vt 0.666431 0.6661953
vt 0.333569 0.666431
vt 0.333569 0.3338047
vt 0.6661953 0.666431
vt 0.333569 0.666431
vt 0.666431 0.333569
vt 0.6660704 0.3338551
vt 0.3336315 0.666294
vt 0.3336315 0.5831842
vt 0.3336496 0.666245
vt 0.3336496 0.5554501
vt 0.333569 0.6661953
vt 0.333569 0.333569
vt 0.3337208 0.5332946
vt 0.6660704 0.6661449
vt 0.3336315 0.333706
vt 0.3336315 0.4168157
vt 0.3336496 0.3338604
vt 0.3336496 0.5554501
vt 0.6361526 0.3335913
vt 0.3338259 0.3335913
vt 0.3338259 0.6661507
vt 0.5 0.3337031
vt 0.6361526 0.3335913
vt 0.6663852 0.3335913
vt 0.6661953 0.333569
vt 0.333569 0.333569
vt 0.3338047 0.333569
vt 0.666431 0.333569
vt 0.666431 0.6661953
vt 0.333569 0.666431
vt 0.3338047 0.333569
vt 0.666431 0.333569
vt 0.666431 0.6661953
vt 0.333569 0.666431
vt 0.666431 0.6661953
vt 0.666431 0.333569
vt 0.3338047 0.333569
vt 0.333569 0.666431
vt 0.333569 0.666431
vt 0.6661953 0.666431
vt 0.333569 0.3338047
vt 0.666431 0.333569
vt 0.666431 0.6661953
vt 0.666431 0.333569
vt 0.3338047 0.333569
vt 0.333569 0.666431
vt 0.333569 0.666431
vt 0.6661953 0.666431
vt 0.333569 0.3338047
vt 0.666431 0.333569
vt 0.333569 0.666431
vt 0.6661953 0.666431
vt 0.333569 0.3338047
vt 0.666431 0.333569
vt 0.666431 0.6661953
vt 0.666431 0.333569
vt 0.3338047 0.333569
vt 0.333569 0.666431
vt 0.333569 0.666431
vt 0.6661953 0.666431
vt 0.333569 0.3338047
vt 0.666431 0.333569
vt 0.3336315 0.5831842
vt 0.3336315 0.666294
vt 0.6660704 0.3338551
vt 0.3336496 0.5554501
vt 0.3336496 0.666245
vt 0.333569 0.333569
vt 0.333569 0.6661953
vt 0.6660704 0.6661449
vt 0.3337208 0.5332946
vt 0.3336315 0.4168157
vt 0.3336315 0.333706
vt 0.3336496 0.5554501
vt 0.3336496 0.3338604
vt 0.3338259 0.3335913
vt 0.6361526 0.3335913
vt 0.5 0.3337031
vt 0.3338259 0.6661507
vt 0.6663852 0.3335913
vt 0.6361526 0.3335913
vt 0.333569 0.333569
vt 0.6661953 0.333569
vt 0.666431 0.6661953
vt 0.666431 0.333569
vt 0.3338047 0.333569
vt 0.333569 0.666431
vt 0.666431 0.6661953
vt 0.666431 0.333569
vt 0.3338047 0.333569
vt 0.333569 0.666431
usemtl EGA_Railing_04_texture0
f 3/3/3 2/2/2 1/1/1
f 4/4/4 3/3/3 1/1/1
f 7/7/7 6/6/6 5/5/5
f 8/8/8 7/7/7 5/5/5
f 11/11/11 10/10/10 9/9/9
f 12/12/12 11/11/11 9/9/9
f 15/15/15 14/14/14 13/13/13
f 16/16/16 15/15/15 13/13/13
f 19/19/19 18/18/18 17/17/17
f 19/19/19 17/17/17 20/20/20
f 23/23/23 22/22/22 21/21/21
f 23/23/23 21/21/21 24/24/24
f 27/27/27 26/26/26 25/25/25
f 27/27/27 25/25/25 28/28/28
f 31/31/31 30/30/30 29/29/29
f 31/31/31 29/29/29 32/32/32
f 35/35/35 34/34/34 33/33/33
f 35/35/35 33/33/33 36/36/36
f 39/39/39 38/38/38 37/37/37
f 39/39/39 37/37/37 40/40/40
f 43/43/43 42/42/42 41/41/41
f 43/43/43 41/41/41 44/44/44
f 47/47/47 46/46/46 45/45/45
f 47/47/47 45/45/45 48/48/48
f 51/51/51 50/50/50 49/49/49
f 51/51/51 49/49/49 52/52/52
f 55/55/55 54/54/54 53/53/53
f 55/55/55 53/53/53 56/56/56
f 59/59/59 58/58/58 57/57/57
f 59/59/59 57/57/57 60/60/60
f 63/63/63 62/62/62 61/61/61
f 63/63/63 61/61/61 64/64/64
f 67/67/67 66/66/66 65/65/65
f 67/67/67 65/65/65 68/68/68
f 71/71/71 70/70/70 69/69/69
f 71/71/71 69/69/69 72/72/72
f 75/75/75 74/74/74 73/73/73
f 75/75/75 73/73/73 76/76/76
f 79/79/79 78/78/78 77/77/77
f 79/79/79 77/77/77 80/80/80
f 83/83/83 82/82/82 81/81/81
f 83/83/83 81/81/81 84/84/84
f 87/87/87 86/86/86 85/85/85
f 88/88/88 87/87/87 85/85/85
f 91/91/91 90/90/90 89/89/89
f 92/92/92 91/91/91 89/89/89
f 95/95/95 94/94/94 93/93/93
f 96/96/96 95/95/95 93/93/93
f 99/99/99 98/98/98 97/97/97
f 100/100/100 99/99/99 97/97/97
f 103/103/103 102/102/102 101/101/101
f 104/104/104 103/103/103 101/101/101
f 107/107/107 106/106/106 105/105/105
f 108/108/108 107/107/107 105/105/105
f 111/111/111 110/110/110 109/109/109
f 110/110/110 112/112/112 109/109/109
f 115/115/115 114/114/114 113/113/113
f 116/116/116 115/115/115 113/113/113
f 119/119/119 118/118/118 117/117/117
f 118/118/118 120/120/120 117/117/117
f 123/123/123 122/122/122 121/121/121
f 122/122/122 124/124/124 121/121/121
f 127/127/127 126/126/126 125/125/125
f 128/128/128 127/127/127 125/125/125
f 131/131/131 130/130/130 129/129/129
f 130/130/130 132/132/132 129/129/129
f 135/135/135 134/134/134 133/133/133
f 133/133/133 137/137/137 136/136/136
f 139/139/139 138/138/138 133/133/133
f 141/141/141 133/133/133 140/140/140
f 143/143/143 141/141/141 142/142/142
f 145/145/145 141/141/141 144/144/144
f 147/147/147 141/141/141 146/146/146
f 149/149/149 148/148/148 141/141/141
f 151/151/151 150/150/150 148/148/148
f 153/153/153 148/148/148 152/152/152
f 156/156/156 155/155/155 154/154/154
f 157/157/157 156/156/156 154/154/154
f 160/160/160 159/159/159 158/158/158
f 161/161/161 160/160/160 158/158/158
f 164/164/164 163/163/163 162/162/162
f 164/164/164 162/162/162 165/165/165
f 168/168/168 167/167/167 166/166/166
f 168/168/168 169/169/169 167/167/167
f 172/172/172 171/171/171 170/170/170
f 172/172/172 170/170/170 173/173/173
f 176/176/176 175/175/175 174/174/174
f 176/176/176 177/177/177 175/175/175
f 180/180/180 179/179/179 178/178/178
f 180/180/180 181/181/181 179/179/179
f 184/184/184 183/183/183 182/182/182
f 184/184/184 182/182/182 185/185/185
f 188/188/188 187/187/187 186/186/186
f 188/188/188 189/189/189 187/187/187
f 192/192/192 191/191/191 190/190/190
f 194/194/194 193/193/193 192/192/192
f 192/192/192 196/196/196 195/195/195
f 198/198/198 192/192/192 197/197/197
f 200/200/200 197/197/197 199/199/199
f 202/202/202 197/197/197 201/201/201
f 204/204/204 197/197/197 203/203/203
f 197/197/197 206/206/206 205/205/205
f 206/206/206 208/208/208 207/207/207
f 210/210/210 206/206/206 209/209/209
f 213/213/213 212/212/212 211/211/211
f 213/213/213 211/211/211 214/214/214
f 217/217/217 216/216/216 215/215/215
f 217/217/217 215/215/215 218/218/218
