mtllib EGA_Sidewalk_18.mtl
g default
v -1.1 0.3 3.1
v -1.1 -0.1 3.1
v -1.1 -0.1 -2.9
v -1.1 0.3 -2.9
v 1.3 -0.1 -2.9
v 1.3 -0.1 3.1
v 1.3 0.3 3.1
v 1.3 0.3 -2.9
v -1.1 -0.1 -2.9
v -1.1 -0.1 3.1
v 1.3 -0.1 3.1
v 1.3 -0.1 -2.9
v -1.1 -0.1 -2.9
v 1.3 -0.1 3.1
v 1.3 0.3 3.1
v -1.1 0.3 3.1
v -1.1 0.3 -2.9
v 1.3 0.3 3.1
v -1.1 0.3 -2.9
v 1.3 0.3 -2.9
v 1.3 -0.1 3.1
v -1.1 -0.1 3.1
v -1.1 0.3 3.1
v 1.3 0.3 3.1
v -1.1 0.3 -2.9
v -1.1 -0.1 -2.9
v 1.3 -0.1 -2.9
v 1.3 0.3 -2.9
vn -1 0 0
vn -1 0 0
vn -1 0 0
vn -1 0 0
vn 1 0 0
vn 1 0 0
vn 1 0 0
vn 1 0 0
vn 0 -1 0
vn 0 -1 0
vn 0 -1 0
vn 0 -1 0
vn 0 -1 0
vn 0 -1 0
vn 0 1 0
vn 0 1 0
vn 0 1 0
vn 0 1 0
vn 0 1 0
vn 0 1 0
vn 0 0 1
vn 0 0 1
vn 0 0 1
vn 0 0 1
vn 0 0 -1
vn 0 0 -1
vn 0 0 -1
vn 0 0 -1
vt 0.09097 0.02943948
vt 0.1817877 0.02943948
vt 0.1817877 0.9117093
vt 0.09093954 0.911737
vt 0.09097783 0.9366901
vt 0.09097783 0.970569
vt 0.1816807 0.970569
vt 0.1817494 0.9366708
vt 0.5454292 0.9117082
vt 0.5454292 0.02944001
vt 0.4463318 0.02944001
vt 0.8099427 0.9117365
vt 0.9090401 0.9117365
vt 0.8099427 0.02946825
vt 0.4463318 0.02944001
vt 0.5454292 0.02944001
vt 0.5454292 0.9117082
vt 0.8099427 0.02946825
vt 0.9090401 0.9117365
vt 0.8099427 0.9117365
vt 0.7274013 0.02943256
vt 0.8181176 0.02943256
vt 0.8181176 0.05878193
vt 0.727337 0.05880273
vt 0.1817539 0.9117231
vt 0.1817539 0.8823738
vt 0.09103765 0.8823738
vt 0.09097337 0.9117439
usemtl EGA_Sidewalk_18_texture0
f 3/3/3 2/2/2 1/1/1
f 4/4/4 3/3/3 1/1/1
f 7/7/7 6/6/6 5/5/5
f 7/7/7 5/5/5 8/8/8
f 11/11/11 10/10/10 9/9/9
f 14/14/14 13/13/13 12/12/12
f 17/17/17 16/16/16 15/15/15
f 20/20/20 19/19/19 18/18/18
f 23/23/23 22/22/22 21/21/21
f 24/24/24 23/23/23 21/21/21
f 27/27/27 26/26/26 25/25/25
f 27/27/27 25/25/25 28/28/28
