mtllib EGA_Bench_01.mtl
g default
v 1.7 0.5 0.5
v 1.7 -0.1 0.5
v 1.7 -0.1 -0.3
v 1.7 0.5 -0.3
v -1.9 0.5 0.5
v -1.9 -0.1 0.5
v -1.9 -0.1 -0.3
v -1.9 0.5 -0.3
v -2.3 0.7 0.7
v -2.3 0.5 0.7
v -2.3 0.5 -0.5
v -2.3 0.7 -0.5
v 2.3 0.5 -0.5
v 2.3 0.5 0.7
v 2.3 0.7 0.7
v 2.3 0.7 -0.5
v 1.9 -0.1 -0.3
v 1.9 -0.1 0.5
v 1.9 0.5 0.5
v 1.9 0.5 -0.3
v -1.7 -0.1 -0.3
v -1.7 -0.1 0.5
v -1.7 0.5 0.5
v -1.7 0.5 -0.3
v 1.7 -0.1 -0.3
v 1.7 -0.1 0.5
v 1.9 -0.1 0.5
v 1.9 -0.1 -0.3
v -1.9 -0.1 -0.3
v -1.9 -0.1 0.5
v -1.7 -0.1 0.5
v -1.7 -0.1 -0.3
v 2.3 0.5 0.7
v 1.7 0.5 0.5
v -2.3 0.5 0.7
v 1.9 0.5 0.5
v 1.7 0.5 0.5
v -1.7 0.5 0.5
v 1.7 0.5 0.5
v 2.3 0.5 -0.5
v 1.9 0.5 0.5
v -1.9 0.5 0.5
v -1.7 0.5 0.5
v 1.9 0.5 -0.3
v 1.9 0.5 0.5
v -2.3 0.5 -0.5
v -1.9 0.5 0.5
v 1.7 0.5 -0.3
v 1.9 0.5 -0.3
v 1.7 0.5 -0.3
v -1.9 0.5 -0.3
v -1.9 0.5 0.5
v 1.7 0.5 -0.3
v -1.7 0.5 -0.3
v -1.7 0.5 -0.3
v -1.9 0.5 -0.3
v -1.7 0.5 -0.3
v -1.7 0.5 0.5
v 1.7 0.5 0.5
v 1.7 0.5 -0.3
v 2.3 0.7 0.7
v -2.3 0.7 0.7
v -2.3 0.7 -0.5
v 2.3 0.7 -0.5
v 1.9 -0.1 0.5
v 1.7 -0.1 0.5
v 1.7 0.5 0.5
v 1.9 0.5 0.5
v -1.7 -0.1 0.5
v -1.9 -0.1 0.5
v -1.9 0.5 0.5
v -1.7 0.5 0.5
v 2.3 0.5 0.7
v -2.3 0.5 0.7
v -2.3 0.7 0.7
v 2.3 0.7 0.7
v -2.3 0.7 -0.5
v -2.3 0.5 -0.5
v 2.3 0.5 -0.5
v 2.3 0.7 -0.5
v 1.7 0.5 -0.3
v 1.7 -0.1 -0.3
v 1.9 -0.1 -0.3
v 1.9 0.5 -0.3
v -1.9 0.5 -0.3
v -1.9 -0.1 -0.3
v -1.7 -0.1 -0.3
v -1.7 0.5 -0.3
vn -1 0 0
vn -1 0 0
vn -1 0 0
vn -1 0 0
vn -1 0 0
vn -1 0 0
vn -1 0 0
vn -1 0 0
vn -1 0 0
vn -1 0 0
vn -1 0 0
vn -1 0 0
vn 1 0 0
vn 1 0 0
vn 1 0 0
vn 1 0 0
vn 1 0 0
vn 1 0 0
vn 1 0 0
vn 1 0 0
vn 1 0 0
vn 1 0 0
vn 1 0 0
vn 1 0 0
vn 0 -1 0
vn 0 -1 0
vn 0 -1 0
vn 0 -1 0
vn 0 -1 0
vn 0 -1 0
vn 0 -1 0
vn 0 -1 0
vn 0 -1 0
vn 0 -1 0
vn 0 -1 0
vn 0 -1 0
vn 0 -1 0
vn 0 -1 0
vn 0 -1 0
vn 0 -1 0
vn 0 -1 0
vn 0 -1 0
vn 0 -1 0
vn 0 -1 0
vn 0 -1 0
vn 0 -1 0
vn 0 -1 0
vn 0 -1 0
vn 0 -1 0
vn 0 -1 0
vn 0 -1 0
vn 0 -1 0
vn 0 -1 0
vn 0 -1 0
vn 0 -1 0
vn 0 -1 0
vn 0 -1 0
vn 0 -1 0
vn 0 -1 0
vn 0 -1 0
vn 0 1 0
vn 0 1 0
vn 0 1 0
vn 0 1 0
vn 0 0 1
vn 0 0 1
vn 0 0 1
vn 0 0 1
vn 0 0 1
vn 0 0 1
vn 0 0 1
vn 0 0 1
vn 0 0 1
vn 0 0 1
vn 0 0 1
vn 0 0 1
vn 0 0 -1
vn 0 0 -1
vn 0 0 -1
vn 0 0 -1
vn 0 0 -1
vn 0 0 -1
vn 0 0 -1
vn 0 0 -1
vn 0 0 -1
vn 0 0 -1
vn 0 0 -1
vn 0 0 -1
vt 0.1669024 0.333569
vt 0.3332155 0.333569
vt 0.3332155 0.6661953
vt 0.1667845 0.666431
vt 0.1669024 0.333569
vt 0.3332155 0.333569
vt 0.3332155 0.6661953
vt 0.1667845 0.666431
vt 0.6669024 0.333569
vt 0.8332155 0.333569
vt 0.8332155 0.6661953
vt 0.6667845 0.666431
vt 0.8332155 0.6661953
vt 0.8332155 0.333569
vt 0.6669024 0.333569
vt 0.6667845 0.666431
vt 0.3332155 0.6661953
vt 0.3332155 0.333569
vt 0.1669024 0.333569
vt 0.1667845 0.666431
vt 0.3332155 0.6661953
vt 0.3332155 0.333569
vt 0.1669024 0.333569
vt 0.1667845 0.666431
vt 0.3332155 0.6661953
vt 0.3332155 0.333569
vt 0.1669024 0.333569
vt 0.1667845 0.666431
vt 0.3332155 0.6661953
vt 0.3332155 0.333569
vt 0.1669024 0.333569
vt 0.1667845 0.666431
vt 0.6667915 0.3335542
vt 0.6884874 0.666225
vt 0.8331269 0.3335542
vt 0.7777251 0.6663504
vt 0.8331225 0.6663504
vt 0.8082377 0.6663936
vt 0.6669193 0.6663936
vt 0.6667751 0.6662689
vt 0.8331164 0.3890335
vt 0.7222749 0.6663504
vt 0.6668775 0.6663504
vt 0.8331904 0.5998285
vt 0.8331904 0.3338478
vt 0.8332249 0.6662689
vt 0.6668836 0.3890335
vt 0.6884874 0.333775
vt 0.7777251 0.3336496
vt 0.8331225 0.3336496
vt 0.6668096 0.5998285
vt 0.6668096 0.3338478
vt 0.6669193 0.3336064
vt 0.8082377 0.3336064
vt 0.6668775 0.3336496
vt 0.7222749 0.3336496
vt 0.8332155 0.6661953
vt 0.8332155 0.333569
vt 0.6669024 0.333569
vt 0.6667845 0.666431
vt 0.6669024 0.333569
vt 0.8332155 0.333569
vt 0.8332155 0.6661953
vt 0.6667845 0.666431
vt 0.1669024 0.333569
vt 0.3332155 0.333569
vt 0.3332155 0.6661953
vt 0.1667845 0.666431
vt 0.1669024 0.333569
vt 0.3332155 0.333569
vt 0.3332155 0.6661953
vt 0.1667845 0.666431
vt 0.6669024 0.333569
vt 0.8332155 0.333569
vt 0.8332155 0.6661953
vt 0.6667845 0.666431
vt 0.8332155 0.6661953
vt 0.8332155 0.333569
vt 0.6669024 0.333569
vt 0.6667845 0.666431
vt 0.3332155 0.6661953
vt 0.3332155 0.333569
vt 0.1669024 0.333569
vt 0.1667845 0.666431
vt 0.3332155 0.6661953
vt 0.3332155 0.333569
vt 0.1669024 0.333569
vt 0.1667845 0.666431
usemtl EGA_Bench_01_texture0
f 3/3/3 2/2/2 1/1/1
f 4/4/4 3/3/3 1/1/1
f 7/7/7 6/6/6 5/5/5
f 8/8/8 7/7/7 5/5/5
f 11/11/11 10/10/10 9/9/9
f 12/12/12 11/11/11 9/9/9
f 15/15/15 14/14/14 13/13/13
f 15/15/15 13/13/13 16/16/16
f 19/19/19 18/18/18 17/17/17
f 19/19/19 17/17/17 20/20/20
f 23/23/23 22/22/22 21/21/21
f 23/23/23 21/21/21 24/24/24
f 27/27/27 26/26/26 25/25/25
f 27/27/27 25/25/25 28/28/28
f 31/31/31 30/30/30 29/29/29
f 31/31/31 29/29/29 32/32/32
f 35/35/35 34/34/34 33/33/33
f 33/33/33 37/37/37 36/36/36
f 39/39/39 35/35/35 38/38/38
f 33/33/33 41/41/41 40/40/40
f 43/43/43 35/35/35 42/42/42
f 40/40/40 45/45/45 44/44/44
f 47/47/47 35/35/35 46/46/46
f 46/46/46 40/40/40 48/48/48
f 50/50/50 40/40/40 49/49/49
f 52/52/52 46/46/46 51/51/51
f 54/54/54 46/46/46 53/53/53
f 56/56/56 46/46/46 55/55/55
f 59/59/59 58/58/58 57/57/57
f 59/59/59 57/57/57 60/60/60
f 63/63/63 62/62/62 61/61/61
f 64/64/64 63/63/63 61/61/61
f 67/67/67 66/66/66 65/65/65
f 68/68/68 67/67/67 65/65/65
f 71/71/71 70/70/70 69/69/69
f 72/72/72 71/71/71 69/69/69
f 75/75/75 74/74/74 73/73/73
f 76/76/76 75/75/75 73/73/73
f 79/79/79 78/78/78 77/77/77
f 79/79/79 77/77/77 80/80/80
f 83/83/83 82/82/82 81/81/81
f 83/83/83 81/81/81 84/84/84
f 87/87/87 86/86/86 85/85/85
f 87/87/87 85/85/85 88/88/88
