mtllib EGA_Railing_07.mtl
g default
v -0.3 1.9 0.1
v -0.3 -0.1 0.1
v -0.3 -0.1 -0.1
v -0.3 1.9 -0.1
v -0.1 1.3 -0.1
v -0.1 1.3 0.1
v -0.1 1.7 0.1
v -0.1 1.7 -0.1
v -0.1 0.7 -0.1
v -0.1 0.7 0.1
v -0.1 1.1 0.1
v -0.1 1.1 -0.1
v -0.1 -0.1 -0.1
v -0.1 -0.1 0.1
v -0.1 0.5 0.1
v -0.1 0.5 -0.1
v 0.9 1.7 -0.1
v 0.9 1.7 0.1
v 0.9 1.9 0.1
v 0.9 1.9 -0.1
v 0.9 1.1 -0.1
v 0.9 1.1 0.1
v 0.9 1.3 0.1
v 0.9 1.3 -0.1
v 0.9 0.5 -0.1
v 0.9 0.5 0.1
v 0.9 0.7 0.1
v 0.9 0.7 -0.1
v -0.3 -0.1 -0.1
v -0.3 -0.1 0.1
v -0.1 -0.1 0.1
v -0.1 -0.1 -0.1
v -0.1 1.7 -0.1
v -0.1 1.7 0.1
v 0.9 1.7 0.1
v 0.9 1.7 -0.1
v -0.1 1.1 -0.1
v -0.1 1.1 0.1
v 0.9 1.1 0.1
v 0.9 1.1 -0.1
v -0.1 0.5 -0.1
v -0.1 0.5 0.1
v 0.9 0.5 0.1
v 0.9 0.5 -0.1
v 0.9 1.9 0.1
v -0.3 1.9 0.1
v -0.3 1.9 -0.1
v 0.9 1.9 -0.1
v 0.9 1.3 0.1
v -0.1 1.3 0.1
v -0.1 1.3 -0.1
v 0.9 1.3 -0.1
v 0.9 0.7 0.1
v -0.1 0.7 0.1
v -0.1 0.7 -0.1
v 0.9 0.7 -0.1
v 0.9 0.5 0.1
v -0.1 0.5 0.1
v -0.1 0.7 0.1
v 0.9 0.7 0.1
v -0.3 -0.1 0.1
v -0.1 0.7 0.1
v -0.1 0.5 0.1
v -0.3 1.9 0.1
v -0.1 0.7 0.1
v -0.1 0.5 0.1
v -0.1 -0.1 0.1
v -0.1 0.7 0.1
v -0.1 1.1 0.1
v -0.1 1.1 0.1
v -0.1 1.3 0.1
v -0.1 1.3 0.1
v -0.1 1.7 0.1
v 0.9 1.9 0.1
v -0.1 1.7 0.1
v -0.1 1.7 0.1
v 0.9 1.7 0.1
v 0.9 1.1 0.1
v -0.1 1.1 0.1
v -0.1 1.3 0.1
v 0.9 1.3 0.1
v -0.1 0.7 -0.1
v -0.1 0.5 -0.1
v 0.9 0.5 -0.1
v 0.9 0.7 -0.1
v -0.1 0.5 -0.1
v -0.1 0.7 -0.1
v -0.3 -0.1 -0.1
v -0.1 0.7 -0.1
v -0.3 1.9 -0.1
v -0.1 -0.1 -0.1
v -0.1 0.5 -0.1
v -0.1 1.1 -0.1
v -0.1 0.7 -0.1
v -0.1 1.3 -0.1
v -0.1 1.1 -0.1
v -0.1 1.7 -0.1
v -0.1 1.3 -0.1
v -0.1 1.7 -0.1
v 0.9 1.9 -0.1
v 0.9 1.7 -0.1
v -0.1 1.7 -0.1
v -0.1 1.3 -0.1
v -0.1 1.1 -0.1
v 0.9 1.1 -0.1
v 0.9 1.3 -0.1
vn -1 0 0
vn -1 0 0
vn -1 0 0
vn -1 0 0
vn 1 0 0
vn 1 0 0
vn 1 0 0
vn 1 0 0
vn 1 0 0
vn 1 0 0
vn 1 0 0
vn 1 0 0
vn 1 0 0
vn 1 0 0
vn 1 0 0
vn 1 0 0
vn 1 0 0
vn 1 0 0
vn 1 0 0
vn 1 0 0
vn 1 0 0
vn 1 0 0
vn 1 0 0
vn 1 0 0
vn 1 0 0
vn 1 0 0
vn 1 0 0
vn 1 0 0
vn 0 -1 0
vn 0 -1 0
vn 0 -1 0
vn 0 -1 0
vn 0 -1 0
vn 0 -1 0
vn 0 -1 0
vn 0 -1 0
vn 0 -1 0
vn 0 -1 0
vn 0 -1 0
vn 0 -1 0
vn 0 -1 0
vn 0 -1 0
vn 0 -1 0
vn 0 -1 0
vn 0 1 0
vn 0 1 0
vn 0 1 0
vn 0 1 0
vn 0 1 0
vn 0 1 0
vn 0 1 0
vn 0 1 0
vn 0 1 0
vn 0 1 0
vn 0 1 0
vn 0 1 0
vn 0 0 1
vn 0 0 1
vn 0 0 1
vn 0 0 1
vn 0 0 1
vn 0 0 1
vn 0 0 1
vn 0 0 1
vn 0 0 1
vn 0 0 1
vn 0 0 1
vn 0 0 1
vn 0 0 1
vn 0 0 1
vn 0 0 1
vn 0 0 1
vn 0 0 1
vn 0 0 1
vn 0 0 1
vn 0 0 1
vn 0 0 1
vn 0 0 1
vn 0 0 1
vn 0 0 1
vn 0 0 1
vn 0 0 -1
vn 0 0 -1
vn 0 0 -1
vn 0 0 -1
vn 0 0 -1
vn 0 0 -1
vn 0 0 -1
vn 0 0 -1
vn 0 0 -1
vn 0 0 -1
vn 0 0 -1
vn 0 0 -1
vn 0 0 -1
vn 0 0 -1
vn 0 0 -1
vn 0 0 -1
vn 0 0 -1
vn 0 0 -1
vn 0 0 -1
vn 0 0 -1
vn 0 0 -1
vn 0 0 -1
vn 0 0 -1
vn 0 0 -1
vn 0 0 -1
vt 0.3338047 0.333569
vt 0.666431 0.333569
vt 0.666431 0.6661953
vt 0.333569 0.666431
vt 0.666431 0.6661953
vt 0.666431 0.333569
vt 0.3338047 0.333569
vt 0.333569 0.666431
vt 0.666431 0.6661953
vt 0.666431 0.333569
vt 0.3338047 0.333569
vt 0.333569 0.666431
vt 0.666431 0.6661953
vt 0.666431 0.333569
vt 0.3338047 0.333569
vt 0.333569 0.666431
vt 0.666431 0.6661953
vt 0.666431 0.333569
vt 0.3338047 0.333569
vt 0.333569 0.666431
vt 0.666431 0.6661953
vt 0.666431 0.333569
vt 0.3338047 0.333569
vt 0.333569 0.666431
vt 0.666431 0.6661953
vt 0.666431 0.333569
vt 0.3338047 0.333569
vt 0.333569 0.666431
vt 0.666431 0.6661953
vt 0.666431 0.333569
vt 0.3338047 0.333569
vt 0.333569 0.666431
vt 0.666431 0.6661953
vt 0.666431 0.333569
vt 0.3338047 0.333569
vt 0.333569 0.666431
vt 0.666431 0.6661953
vt 0.666431 0.333569
vt 0.3338047 0.333569
vt 0.333569 0.666431
vt 0.666431 0.6661953
vt 0.666431 0.333569
vt 0.3338047 0.333569
vt 0.333569 0.666431
vt 0.3338047 0.333569
vt 0.666431 0.333569
vt 0.666431 0.6661953
vt 0.333569 0.666431
vt 0.3338047 0.333569
vt 0.666431 0.333569
vt 0.666431 0.6661953
vt 0.333569 0.666431
vt 0.3338047 0.333569
vt 0.666431 0.333569
vt 0.666431 0.6661953
vt 0.333569 0.666431
vt 0.3338047 0.333569
vt 0.666431 0.333569
vt 0.666431 0.6661953
vt 0.333569 0.666431
vt 0.6660704 0.3338551
vt 0.3336315 0.666294
vt 0.3336315 0.5831842
vt 0.6664729 0.6663567
vt 0.3337208 0.4667054
vt 0.333569 0.6661953
vt 0.333569 0.333569
vt 0.3336496 0.333755
vt 0.3336496 0.4445499
vt 0.3336315 0.333706
vt 0.3336315 0.4168157
vt 0.3336496 0.3338604
vt 0.3336496 0.5554501
vt 0.333731 0.6664497
vt 0.6109665 0.3337672
vt 0.6661953 0.333569
vt 0.333569 0.333569
vt 0.3338047 0.333569
vt 0.666431 0.333569
vt 0.666431 0.6661953
vt 0.333569 0.666431
vt 0.666431 0.6661953
vt 0.666431 0.333569
vt 0.3338047 0.333569
vt 0.333569 0.666431
vt 0.3336315 0.5831842
vt 0.3336315 0.666294
vt 0.6660704 0.3338551
vt 0.3337208 0.4667054
vt 0.6664729 0.6663567
vt 0.333569 0.333569
vt 0.333569 0.6661953
vt 0.3336496 0.4445499
vt 0.3336496 0.333755
vt 0.3336315 0.4168157
vt 0.3336315 0.333706
vt 0.3336496 0.5554501
vt 0.3336496 0.3338604
vt 0.6109665 0.3337672
vt 0.333731 0.6664497
vt 0.333569 0.333569
vt 0.6661953 0.333569
vt 0.666431 0.6661953
vt 0.666431 0.333569
vt 0.3338047 0.333569
vt 0.333569 0.666431
usemtl EGA_Railing_07_texture0
f 3/3/3 2/2/2 1/1/1
f 4/4/4 3/3/3 1/1/1
f 7/7/7 6/6/6 5/5/5
f 7/7/7 5/5/5 8/8/8
f 11/11/11 10/10/10 9/9/9
f 11/11/11 9/9/9 12/12/12
f 15/15/15 14/14/14 13/13/13
f 15/15/15 13/13/13 16/16/16
f 19/19/19 18/18/18 17/17/17
f 19/19/19 17/17/17 20/20/20
f 23/23/23 22/22/22 21/21/21
f 23/23/23 21/21/21 24/24/24
f 27/27/27 26/26/26 25/25/25
f 27/27/27 25/25/25 28/28/28
f 31/31/31 30/30/30 29/29/29
f 31/31/31 29/29/29 32/32/32
f 35/35/35 34/34/34 33/33/33
f 35/35/35 33/33/33 36/36/36
f 39/39/39 38/38/38 37/37/37
f 39/39/39 37/37/37 40/40/40
f 43/43/43 42/42/42 41/41/41
f 43/43/43 41/41/41 44/44/44
f 47/47/47 46/46/46 45/45/45
f 48/48/48 47/47/47 45/45/45
f 51/51/51 50/50/50 49/49/49
f 52/52/52 51/51/51 49/49/49
f 55/55/55 54/54/54 53/53/53
f 56/56/56 55/55/55 53/53/53
f 59/59/59 58/58/58 57/57/57
f 60/60/60 59/59/59 57/57/57
f 63/63/63 62/62/62 61/61/61
f 61/61/61 65/65/65 64/64/64
f 67/67/67 66/66/66 61/61/61
f 69/69/69 64/64/64 68/68/68
f 71/71/71 64/64/64 70/70/70
f 73/73/73 64/64/64 72/72/72
f 75/75/75 74/74/74 64/64/64
f 77/77/77 74/74/74 76/76/76
f 80/80/80 79/79/79 78/78/78
f 81/81/81 80/80/80 78/78/78
f 84/84/84 83/83/83 82/82/82
f 84/84/84 82/82/82 85/85/85
f 88/88/88 87/87/87 86/86/86
f 90/90/90 89/89/89 88/88/88
f 88/88/88 92/92/92 91/91/91
f 94/94/94 90/90/90 93/93/93
f 96/96/96 90/90/90 95/95/95
f 98/98/98 90/90/90 97/97/97
f 90/90/90 100/100/100 99/99/99
f 102/102/102 100/100/100 101/101/101
f 105/105/105 104/104/104 103/103/103
f 105/105/105 103/103/103 106/106/106
