mtllib EGA_Sidewalk_14.mtl
g default
v -2.5 0.3 3.1
v -2.5 -0.1 3.1
v -2.5 -0.1 -2.9
v -2.5 0.3 -2.9
v 2.5 -0.1 -2.9
v 2.5 -0.1 3.1
v 2.5 0.3 3.1
v 2.5 0.3 -2.9
v -2.5 -0.1 -2.9
v -2.5 -0.1 3.1
v 2.5 -0.1 3.1
v 2.5 -0.1 -2.9
v -2.5 -0.1 -2.9
v 2.5 -0.1 3.1
v 2.5 0.3 3.1
v -2.5 0.3 3.1
v -2.5 0.3 -2.9
v 2.5 0.3 3.1
v -2.5 0.3 -2.9
v 2.5 0.3 -2.9
v 2.5 -0.1 3.1
v -2.5 -0.1 3.1
v -2.5 0.3 3.1
v 2.5 0.3 3.1
v -2.5 0.3 -2.9
v -2.5 -0.1 -2.9
v 2.5 -0.1 -2.9
v 2.5 0.3 -2.9
vn -1 0 0
vn -1 0 0
vn -1 0 0
vn -1 0 0
vn 1 0 0
vn 1 0 0
vn 1 0 0
vn 1 0 0
vn 0 -1 0
vn 0 -1 0
vn 0 -1 0
vn 0 -1 0
vn 0 -1 0
vn 0 -1 0
vn 0 1 0
vn 0 1 0
vn 0 1 0
vn 0 1 0
vn 0 1 0
vn 0 1 0
vn 0 0 1
vn 0 0 1
vn 0 0 1
vn 0 0 1
vn 0 0 -1
vn 0 0 -1
vn 0 0 -1
vn 0 0 -1
vt 0.09097 0.02859835
vt 0.1817877 0.02859835
vt 0.1817877 0.8856605
vt 0.09093954 0.8856874
vt 0.09097783 0.9099275
vt 0.09097783 0.9428384
vt 0.1816807 0.9428384
vt 0.1817494 0.9099088
vt 0.5454302 0.8856592
vt 0.5454302 0.02859896
vt 0.4508062 0.02859896
vt 0.8144183 0.8856868
vt 0.9090422 0.8856868
vt 0.8144183 0.02862649
vt 0.4508062 0.02859896
vt 0.5454302 0.02859896
vt 0.5454302 0.8856592
vt 0.8144183 0.02862649
vt 0.9090422 0.8856868
vt 0.8144183 0.8856868
vt 0.09103765 0.9428774
vt 0.1817539 0.9428774
vt 0.1817539 0.9713882
vt 0.09097337 0.9714084
vt 0.1817539 0.8856739
vt 0.1817539 0.8571631
vt 0.09103765 0.8571631
vt 0.09097337 0.8856941
usemtl EGA_Sidewalk_14_texture0
f 3/3/3 2/2/2 1/1/1
f 4/4/4 3/3/3 1/1/1
f 7/7/7 6/6/6 5/5/5
f 7/7/7 5/5/5 8/8/8
f 11/11/11 10/10/10 9/9/9
f 14/14/14 13/13/13 12/12/12
f 17/17/17 16/16/16 15/15/15
f 20/20/20 19/19/19 18/18/18
f 23/23/23 22/22/22 21/21/21
f 24/24/24 23/23/23 21/21/21
f 27/27/27 26/26/26 25/25/25
f 27/27/27 25/25/25 28/28/28
