mtllib EGA_Plaza_13.mtl
g default
v -0.3 0.5 -0.3
v -0.3 -0.1 -0.3
v -0.3 -0.1 -0.5
v -0.3 0.5 -0.5
v -0.5 0.7 0.7
v -0.5 0.5 0.7
v -0.5 0.5 0.5
v -0.5 0.5 0.5
v -0.5 0.7 -0.5
v -0.5 0.5 0.5
v -0.5 0.5 -0.3
v -0.5 0.5 -0.3
v -0.5 0.5 -0.5
v -0.5 0.5 0.5
v -0.5 -0.1 -0.3
v -0.5 0.5 -0.3
v -0.5 -0.1 0.5
v 0.7 0.5 -0.5
v 0.7 0.5 0.7
v 0.7 0.7 0.7
v 0.7 0.7 -0.5
v 0.5 -0.1 -0.5
v 0.5 -0.1 0.5
v 0.5 0.5 0.5
v 0.5 0.5 -0.5
v -0.3 -0.1 -0.3
v -0.5 -0.1 0.5
v 0.5 -0.1 0.5
v -0.5 -0.1 -0.3
v -0.3 -0.1 -0.3
v 0.5 -0.1 -0.5
v -0.3 -0.1 -0.3
v -0.3 -0.1 -0.5
v -0.3 -0.1 -0.3
v 0.5 0.5 0.5
v -0.5 0.5 0.7
v 0.7 0.5 0.7
v -0.5 0.5 0.5
v 0.5 0.5 0.5
v 0.7 0.5 -0.5
v 0.5 0.5 0.5
v 0.5 0.5 -0.5
v 0.5 0.5 0.5
v -0.5 0.5 -0.5
v -0.5 0.5 -0.3
v -0.3 0.5 -0.3
v -0.3 0.5 -0.5
v 0.7 0.7 0.7
v -0.5 0.7 0.7
v -0.5 0.7 -0.5
v 0.7 0.7 -0.5
v 0.5 -0.1 0.5
v -0.5 -0.1 0.5
v -0.5 0.5 0.5
v 0.5 0.5 0.5
v 0.7 0.5 0.7
v -0.5 0.5 0.7
v -0.5 0.7 0.7
v 0.7 0.7 0.7
v 0.7 0.5 -0.5
v 0.7 0.7 -0.5
v 0.5 0.5 -0.5
v 0.5 0.5 -0.5
v -0.5 0.7 -0.5
v 0.5 0.5 -0.5
v -0.3 0.5 -0.5
v -0.5 0.5 -0.5
v -0.3 0.5 -0.5
v 0.5 0.5 -0.5
v -0.3 0.5 -0.5
v 0.5 -0.1 -0.5
v -0.3 -0.1 -0.5
v -0.5 0.5 -0.3
v -0.5 -0.1 -0.3
v -0.3 -0.1 -0.3
v -0.3 0.5 -0.3
vn -1 0 0
vn -1 0 0
vn -1 0 0
vn -1 0 0
vn -1 0 0
vn -1 0 0
vn -1 0 0
vn -1 0 0
vn -1 0 0
vn -1 0 0
vn -1 0 0
vn -1 0 0
vn -1 0 0
vn -1 0 0
vn -1 0 0
vn -1 0 0
vn -1 0 0
vn 1 0 0
vn 1 0 0
vn 1 0 0
vn 1 0 0
vn 1 0 0
vn 1 0 0
vn 1 0 0
vn 1 0 0
vn 0 -1 0
vn 0 -1 0
vn 0 -1 0
vn 0 -1 0
vn 0 -1 0
vn 0 -1 0
vn 0 -1 0
vn 0 -1 0
vn 0 -1 0
vn 0 -1 0
vn 0 -1 0
vn 0 -1 0
vn 0 -1 0
vn 0 -1 0
vn 0 -1 0
vn 0 -1 0
vn 0 -1 0
vn 0 -1 0
vn 0 -1 0
vn 0 -1 0
vn 0 -1 0
vn 0 -1 0
vn 0 1 0
vn 0 1 0
vn 0 1 0
vn 0 1 0
vn 0 0 1
vn 0 0 1
vn 0 0 1
vn 0 0 1
vn 0 0 1
vn 0 0 1
vn 0 0 1
vn 0 0 1
vn 0 0 -1
vn 0 0 -1
vn 0 0 -1
vn 0 0 -1
vn 0 0 -1
vn 0 0 -1
vn 0 0 -1
vn 0 0 -1
vn 0 0 -1
vn 0 0 -1
vn 0 0 -1
vn 0 0 -1
vn 0 0 -1
vn 0 0 -1
vn 0 0 -1
vn 0 0 -1
vn 0 0 -1
vt 0.1669024 0.333569
vt 0.3332155 0.333569
vt 0.3332155 0.6661953
vt 0.1667845 0.666431
vt 0.6669024 0.333569
vt 0.8332155 0.333569
vt 0.8332155 0.6661953
vt 0.8331164 0.3890335
vt 0.6667751 0.6662689
vt 0.8331904 0.3338478
vt 0.8331904 0.5998285
vt 0.8332155 0.3338047
vt 0.8332155 0.666431
vt 0.1667845 0.3338047
vt 0.3330976 0.666431
vt 0.1667845 0.666431
vt 0.3332155 0.333569
vt 0.8332155 0.6661953
vt 0.8332155 0.333569
vt 0.6669024 0.333569
vt 0.6667845 0.666431
vt 0.3332155 0.6661953
vt 0.3332155 0.333569
vt 0.1669024 0.333569
vt 0.1667845 0.666431
vt 0.299936 0.6662399
vt 0.3332053 0.3335467
vt 0.1668587 0.3335467
vt 0.3332155 0.666431
vt 0.1669024 0.666431
vt 0.1667734 0.6664106
vt 0.3331199 0.5998719
vt 0.3332155 0.666431
vt 0.3332155 0.3338047
vt 0.6945168 0.6662328
vt 0.8331345 0.3335503
vt 0.6667932 0.3335503
vt 0.8332155 0.666431
vt 0.6669024 0.666431
vt 0.6667751 0.6662689
vt 0.8331164 0.3890335
vt 0.8332155 0.666431
vt 0.8332155 0.3338047
vt 0.8332155 0.6661953
vt 0.8332155 0.333569
vt 0.6669024 0.333569
vt 0.6667845 0.666431
vt 0.6669024 0.333569
vt 0.8332155 0.333569
vt 0.8332155 0.6661953
vt 0.6667845 0.666431
vt 0.1669024 0.333569
vt 0.3332155 0.333569
vt 0.3332155 0.6661953
vt 0.1667845 0.666431
vt 0.6669024 0.333569
vt 0.8332155 0.333569
vt 0.8332155 0.6661953
vt 0.6667845 0.666431
vt 0.6667845 0.333569
vt 0.6667845 0.6661953
vt 0.8330976 0.333569
vt 0.6945168 0.3337672
vt 0.8331345 0.6664497
vt 0.6669239 0.3336192
vt 0.7999142 0.3336192
vt 0.8332155 0.333569
vt 0.6669024 0.333569
vt 0.1667845 0.666431
vt 0.3330976 0.666431
vt 0.1667845 0.3338047
vt 0.3332155 0.333569
vt 0.3332155 0.6661953
vt 0.3332155 0.333569
vt 0.1669024 0.333569
vt 0.1667845 0.666431
usemtl EGA_Plaza_13_texture0
f 3/3/3 2/2/2 1/1/1
f 4/4/4 3/3/3 1/1/1
f 7/7/7 6/6/6 5/5/5
f 9/9/9 8/8/8 5/5/5
f 11/11/11 10/10/10 9/9/9
f 13/13/13 12/12/12 9/9/9
f 16/16/16 15/15/15 14/14/14
f 15/15/15 17/17/17 14/14/14
f 20/20/20 19/19/19 18/18/18
f 20/20/20 18/18/18 21/21/21
f 24/24/24 23/23/23 22/22/22
f 24/24/24 22/22/22 25/25/25
f 28/28/28 27/27/27 26/26/26
f 30/30/30 27/27/27 29/29/29
f 28/28/28 32/32/32 31/31/31
f 31/31/31 34/34/34 33/33/33
f 37/37/37 36/36/36 35/35/35
f 39/39/39 36/36/36 38/38/38
f 37/37/37 41/41/41 40/40/40
f 40/40/40 43/43/43 42/42/42
f 46/46/46 45/45/45 44/44/44
f 46/46/46 44/44/44 47/47/47
f 50/50/50 49/49/49 48/48/48
f 51/51/51 50/50/50 48/48/48
f 54/54/54 53/53/53 52/52/52
f 55/55/55 54/54/54 52/52/52
f 58/58/58 57/57/57 56/56/56
f 59/59/59 58/58/58 56/56/56
f 62/62/62 61/61/61 60/60/60
f 64/64/64 61/61/61 63/63/63
f 66/66/66 64/64/64 65/65/65
f 68/68/68 67/67/67 64/64/64
f 71/71/71 70/70/70 69/69/69
f 71/71/71 72/72/72 70/70/70
f 75/75/75 74/74/74 73/73/73
f 75/75/75 73/73/73 76/76/76
