mtllib EGA_Plaza_02.mtl
g default
v -11.9 1.5 12.1
v -11.9 -0.1 12.1
v -11.9 -0.1 -11.9
v -11.9 1.5 -11.9
v 12.1 -0.1 -11.9
v 12.1 -0.1 12.1
v 12.1 1.5 12.1
v 12.1 1.5 -11.9
v -11.9 -0.1 -11.9
v -11.9 -0.1 12.1
v 12.1 -0.1 12.1
v 12.1 -0.1 -11.9
v -11.9 -0.1 -11.9
v 12.1 -0.1 12.1
v 12.1 1.5 12.1
v -11.9 1.5 12.1
v -11.9 1.5 -11.9
v 12.1 1.5 12.1
v -11.9 1.5 -11.9
v 12.1 1.5 -11.9
v 12.1 -0.1 12.1
v -11.9 -0.1 12.1
v -11.9 1.5 12.1
v 12.1 1.5 12.1
v -11.9 1.5 -11.9
v -11.9 -0.1 -11.9
v 12.1 -0.1 -11.9
v 12.1 1.5 -11.9
vn -1 0 0
vn -1 0 0
vn -1 0 0
vn -1 0 0
vn 1 0 0
vn 1 0 0
vn 1 0 0
vn 1 0 0
vn 0 -1 0
vn 0 -1 0
vn 0 -1 0
vn 0 -1 0
vn 0 -1 0
vn 0 -1 0
vn 0 1 0
vn 0 1 0
vn 0 1 0
vn 0 1 0
vn 0 1 0
vn 0 1 0
vn 0 0 1
vn 0 0 1
vn 0 0 1
vn 0 0 1
vn 0 0 -1
vn 0 0 -1
vn 0 0 -1
vn 0 0 -1
vt 0.6429152 0.1112126
vt 0.7142567 0.1112126
vt 0.7142567 0.7775747
vt 0.6428862 0.7776762
vt 0.9285424 0.7775747
vt 0.9285424 0.1112126
vt 0.8572009 0.1112126
vt 0.8571719 0.7776762
vt 0.6428066 0.7776206
vt 0.6428066 0.1111897
vt 0.2143867 0.1111897
vt 0.07147908 0.8888103
vt 0.499899 0.8888103
vt 0.07147908 0.2223794
vt 0.2143867 0.1111897
vt 0.6428066 0.1111897
vt 0.6428066 0.7776206
vt 0.07147908 0.2223794
vt 0.499899 0.8888103
vt 0.07147908 0.8888103
vt 0.9285424 0.1113142
vt 0.9285424 0.7776762
vt 0.8572009 0.7776762
vt 0.8571719 0.1112126
vt 0.6429152 0.7776762
vt 0.7142567 0.7776762
vt 0.7142567 0.1113142
vt 0.6428862 0.1112126
usemtl EGA_Plaza_02_texture0
f 3/3/3 2/2/2 1/1/1
f 4/4/4 3/3/3 1/1/1
f 7/7/7 6/6/6 5/5/5
f 7/7/7 5/5/5 8/8/8
f 11/11/11 10/10/10 9/9/9
f 14/14/14 13/13/13 12/12/12
f 17/17/17 16/16/16 15/15/15
f 20/20/20 19/19/19 18/18/18
f 23/23/23 22/22/22 21/21/21
f 24/24/24 23/23/23 21/21/21
f 27/27/27 26/26/26 25/25/25
f 27/27/27 25/25/25 28/28/28
