mtllib EGA_Plaza_04.mtl
g default
v -4.7 2.3 4.5
v -4.7 2.1 4.5
v -4.7 2.1 4.3
v -4.7 2.1 4.3
v -4.7 2.3 -1.3
v -4.7 2.1 4.3
v -4.7 -0.1 -1.3
v -4.7 2.3 -1.3
v -4.7 2.1 4.3
v -4.7 -0.1 4.3
v -4.7 -0.1 -1.3
v -11.9 2.3 -1.3
v -11.9 -0.1 -1.3
v -11.9 2.1 -2.1
v -11.9 2.1 -2.1
v -11.9 -0.1 -1.3
v -11.9 -0.1 -2.1
v -11.9 2.3 -1.3
v -11.9 2.1 -2.1
v -11.9 2.3 -2.3
v -11.9 2.1 -2.1
v -11.9 2.1 -2.3
v 4.1 2.1 4.3
v 4.1 1.5 4.3
v 4.1 1.5 4.1
v 4.1 1.5 4.1
v 4.1 2.1 -2.1
v 4.1 1.5 4.1
v 4.1 -0.09957509 -2.1
v 4.1 1.5 4.1
v 4.1 1.500341 4.1
v 3.9 2.3 4.5
v 3.9 2.1 4.5
v 3.9 2.1 -2.3
v 3.9 2.3 -2.3
v -3.7 2.1 -2.3
v -3.7 2.1 4.5
v -3.7 2.3 4.5
v -3.7 2.3 -2.3
v -3.9 1.5 4.1
v -3.9 1.5 4.3
v -3.9 2.1 4.3
v -3.9 2.1 -2.1
v -3.9 1.5 4.1
v -3.9 -0.09957509 -2.1
v -3.9 1.5 4.1
v -3.9 1.500341 4.1
v -3.9 1.5 4.1
v 12.1 2.1 -2.1
v 12.1 -0.1 -1.3
v 12.1 2.3 -1.3
v 12.1 -0.1 -2.1
v 12.1 -0.1 -1.3
v 12.1 2.1 -2.1
v 12.1 2.3 -2.3
v 12.1 2.1 -2.1
v 12.1 2.3 -1.3
v 12.1 2.1 -2.3
v 12.1 2.1 -2.1
v 4.9 2.1 4.3
v 4.9 2.1 4.5
v 4.9 2.3 4.5
v 4.9 2.3 -1.3
v 4.9 2.1 4.3
v 4.9 2.3 -1.3
v 4.9 -0.1 -1.3
v 4.9 2.1 4.3
v 4.9 -0.1 -1.3
v 4.9 -0.1 4.3
v 4.9 2.1 4.3
v 12.1 -0.1 -1.3
v 12.1 -0.1 -2.1
v 4.9 -0.1 -1.3
v 4.9 -0.1 -1.3
v 12.1 -0.1 -2.1
v -11.9 -0.1 -2.1
v -4.7 -0.1 -1.3
v -11.9 -0.1 -2.1
v -11.9 -0.1 -1.3
v -4.7 -0.1 -1.3
v 4.9 -0.1 -1.3
v -4.7 -0.1 -1.3
v 4.9 -0.1 4.3
v -4.7 -0.1 4.3
v 12.1 2.1 -2.1
v 12.1 2.1 -2.3
v 4.1 2.1 -2.1
v 4.1 2.1 -2.1
v 3.9 2.1 -2.3
v 4.1 2.1 -2.1
v 4.1 2.1 4.3
v 3.9 2.1 4.5
v 4.1 2.1 4.3
v 4.1 2.1 4.3
v 4.9 2.1 4.5
v 4.9 2.1 4.3
v 4.1 2.1 4.3
v -3.9 2.1 4.3
v -4.7 2.1 4.5
v -3.7 2.1 4.5
v -4.7 2.1 4.3
v -3.9 2.1 4.3
v -3.7 2.1 -2.3
v -3.9 2.1 4.3
v -3.9 2.1 -2.1
v -3.9 2.1 4.3
v -11.9 2.1 -2.3
v -3.9 2.1 -2.1
v -11.9 2.1 -2.1
v -3.9 2.1 -2.1
v 4.1 1.500341 4.1
v -3.9 1.500341 4.1
v -3.9 -0.09957509 -2.1
v 4.1 -0.09957509 -2.1
v 4.9 2.3 -1.3
v 12.1 2.3 -2.3
v 12.1 2.3 -1.3
v 3.9 2.3 -2.3
v 4.9 2.3 -1.3
v 3.9 2.3 4.5
v 4.9 2.3 -1.3
v 4.9 2.3 -1.3
v 4.9 2.3 4.5
v -3.7 2.3 4.5
v -4.7 2.3 4.5
v -4.7 2.3 -1.3
v -4.7 2.3 -1.3
v -3.7 2.3 -2.3
v -4.7 2.3 -1.3
v -11.9 2.3 -2.3
v -4.7 2.3 -1.3
v -11.9 2.3 -1.3
v 4.1 1.5 4.3
v -3.9 1.5 4.3
v -3.9 1.5 4.1
v 4.1 1.5 4.1
v 4.9 -0.1 4.3
v -4.7 -0.1 4.3
v 4.1 1.5 4.3
v 4.1 1.5 4.3
v -4.7 -0.1 4.3
v -3.9 1.5 4.3
v 4.9 -0.1 4.3
v 4.1 1.5 4.3
v 4.9 2.1 4.3
v 4.1 1.5 4.3
v 4.1 2.1 4.3
v -3.9 1.5 4.3
v -4.7 -0.1 4.3
v -4.7 2.1 4.3
v -3.9 1.5 4.3
v -3.9 2.1 4.3
v 4.9 2.1 4.5
v 3.9 2.1 4.5
v 3.9 2.3 4.5
v 4.9 2.3 4.5
v -3.7 2.1 4.5
v -4.7 2.1 4.5
v -4.7 2.3 4.5
v -3.7 2.3 4.5
v 12.1 -0.1 -1.3
v 4.9 -0.1 -1.3
v 4.9 2.3 -1.3
v 12.1 2.3 -1.3
v -4.7 -0.1 -1.3
v -11.9 -0.1 -1.3
v -11.9 2.3 -1.3
v -4.7 2.3 -1.3
v -3.9 1.5 4.1
v -3.9 1.500341 4.1
v 4.1 1.500341 4.1
v 4.1 1.5 4.1
v 3.9 2.3 -2.3
v 3.9 2.1 -2.3
v 12.1 2.1 -2.3
v 12.1 2.3 -2.3
v -11.9 2.3 -2.3
v -11.9 2.1 -2.3
v -3.7 2.1 -2.3
v -3.7 2.3 -2.3
v 4.1 -0.09957509 -2.1
v -11.9 -0.1 -2.1
v 12.1 -0.1 -2.1
v -3.9 -0.09957509 -2.1
v -11.9 -0.1 -2.1
v 4.1 -0.09957509 -2.1
v 12.1 2.1 -2.1
v 4.1 -0.09957509 -2.1
v 12.1 -0.1 -2.1
v 4.1 2.1 -2.1
v 4.1 -0.09957509 -2.1
v -11.9 2.1 -2.1
v -11.9 -0.1 -2.1
v -3.9 -0.09957509 -2.1
v -3.9 2.1 -2.1
v -3.9 -0.09957509 -2.1
vn -1 0 0
vn -1 0 0
vn -1 0 0
vn -1 0 0
vn -1 0 0
vn -1 0 0
vn -1 0 0
vn -1 0 0
vn -1 0 0
vn -1 0 0
vn -1 0 0
vn -1 0 0
vn -1 0 0
vn -1 0 0
vn -1 0 0
vn -1 0 0
vn -1 0 0
vn -1 0 0
vn -1 0 0
vn -1 0 0
vn -1 0 0
vn -1 0 0
vn -1 0 0
vn -1 0 0
vn -1 0 0
vn -1 0 0
vn -1 0 0
vn -1 0 0
vn -1 0 0
vn -1 0 0
vn -1 0 0
vn -1 0 0
vn -1 0 0
vn -1 0 0
vn -1 0 0
vn 1 0 0
vn 1 0 0
vn 1 0 0
vn 1 0 0
vn 1 0 0
vn 1 0 0
vn 1 0 0
vn 1 0 0
vn 1 0 0
vn 1 0 0
vn 1 0 0
vn 1 0 0
vn 1 0 0
vn 1 0 0
vn 1 0 0
vn 1 0 0
vn 1 0 0
vn 1 0 0
vn 1 0 0
vn 1 0 0
vn 1 0 0
vn 1 0 0
vn 1 0 0
vn 1 0 0
vn 1 0 0
vn 1 0 0
vn 1 0 0
vn 1 0 0
vn 1 0 0
vn 1 0 0
vn 1 0 0
vn 1 0 0
vn 1 0 0
vn 1 0 0
vn 1 0 0
vn 0 -1 0
vn 0 -1 0
vn 0 -1 0
vn 0 -1 0
vn 0 -1 0
vn 0 -1 0
vn 0 -1 0
vn 0 -1 0
vn 0 -1 0
vn 0 -1 0
vn 0 -1 0
vn 0 -1 0
vn 0 -1 0
vn 0 -1 0
vn 0 -1 0
vn 0 -1 0
vn 0 -1 0
vn 0 -1 0
vn 0 -1 0
vn 0 -1 0
vn 0 -1 0
vn 0 -1 0
vn 0 -1 0
vn 0 -1 0
vn 0 -1 0
vn 0 -1 0
vn 0 -1 0
vn 0 -1 0
vn 0 -1 0
vn 0 -1 0
vn 0 -1 0
vn 0 -1 0
vn 0 -1 0
vn 0 -1 0
vn 0 -1 0
vn 0 -1 0
vn 0 -1 0
vn 0 -1 0
vn 0 -1 0
vn 0 -1 0
vn 0 1 0
vn 0 1 0
vn 0 1 0
vn 0 1 0
vn 0 1 0
vn 0 1 0
vn 0 1 0
vn 0 1 0
vn 0 1 0
vn 0 1 0
vn 0 1 0
vn 0 1 0
vn 0 1 0
vn 0 1 0
vn 0 1 0
vn 0 1 0
vn 0 1 0
vn 0 1 0
vn 0 1 0
vn 0 1 0
vn 0 1 0
vn 0 1 0
vn 0 1 0
vn 0 1 0
vn 0 1 0
vn 0 1 0
vn 0 0 1
vn 0 0 1
vn 0 0 1
vn 0 0 1
vn 0 0 1
vn 0 0 1
vn 0 0 1
vn 0 0 1
vn 0 0 1
vn 0 0 1
vn 0 0 1
vn 0 0 1
vn 0 0 1
vn 0 0 1
vn 0 0 1
vn 0 0 1
vn 0 0 1
vn 0 0 1
vn 0 0 1
vn 0 0 1
vn 0 0 1
vn 0 0 1
vn 0 0 1
vn 0 0 1
vn 0 0 1
vn 0 0 1
vn 0 0 1
vn 0 0 1
vn 0 0 1
vn 0 0 1
vn 0 0 1
vn 0 0 1
vn 0 0 -1
vn 0 0 -1
vn 0 0 -1
vn 0 0 -1
vn 0 0 -1
vn 0 0 -1
vn 0 0 -1
vn 0 0 -1
vn 0 0 -1
vn 0 0 -1
vn 0 0 -1
vn 0 0 -1
vn 0 0 -1
vn 0 0 -1
vn 0 0 -1
vn 0 0 -1
vn 0 0 -1
vn 0 0 -1
vn 0 0 -1
vn 0 0 -1
vn 0 0 -1
vn 0 0 -1
vn 0 0 -1
vn 0 0 -1
vn 0 0 -1
vn 0 0 -1
vn 0 0 -1
vn 0 0 -1
vt 0.8334512 0.333569
vt 0.9166077 0.333569
vt 0.9166077 0.6661953
vt 0.9165508 0.3450433
vt 0.8333912 0.6662113
vt 0.7499575 0.3338322
vt 0.6667644 0.6664172
vt 0.7575205 0.6664172
vt 0.3334512 0.333569
vt 0.4166077 0.333569
vt 0.4166077 0.6661953
vt 0.7575205 0.3335828
vt 0.6667644 0.3335828
vt 0.7499575 0.6661678
vt 0.3334512 0.666431
vt 0.4166077 0.3338047
vt 0.4166077 0.666431
vt 0.8333867 0.3337174
vt 0.91656 0.5998719
vt 0.8333867 0.6664106
vt 0.9166077 0.3338047
vt 0.9166077 0.666431
vt 0.3334512 0.333569
vt 0.4166077 0.333569
vt 0.4166077 0.6661953
vt 0.4165506 0.3439676
vt 0.3333913 0.6662098
vt 0.3583536 0.3337398
vt 0.4165803 0.6664634
vt 0.3334512 0.333569
vt 0.4166077 0.333569
vt 0.8334512 0.333569
vt 0.9166077 0.333569
vt 0.9166077 0.6661953
vt 0.8333923 0.666431
vt 0.9166077 0.6661953
vt 0.9166077 0.333569
vt 0.8334512 0.333569
vt 0.8333923 0.666431
vt 0.4166077 0.6661953
vt 0.4166077 0.333569
vt 0.3334512 0.333569
vt 0.3333913 0.6662098
vt 0.4165506 0.3439676
vt 0.4165803 0.6664634
vt 0.3583536 0.3337398
vt 0.4166077 0.333569
vt 0.3334512 0.333569
vt 0.7499575 0.6661678
vt 0.6667644 0.3335828
vt 0.7575205 0.3335828
vt 0.4166077 0.666431
vt 0.4166077 0.3338047
vt 0.3334512 0.666431
vt 0.8333867 0.6664106
vt 0.91656 0.5998719
vt 0.8333867 0.3337174
vt 0.9166077 0.666431
vt 0.9166077 0.3338047
vt 0.9166077 0.6661953
vt 0.9166077 0.333569
vt 0.8334512 0.333569
vt 0.8333912 0.6662113
vt 0.9165508 0.3450433
vt 0.7575205 0.6664172
vt 0.6667644 0.6664172
vt 0.7499575 0.3338322
vt 0.4166077 0.6661953
vt 0.4166077 0.333569
vt 0.3334512 0.333569
vt 0.3333923 0.333569
vt 0.3333923 0.6661953
vt 0.4165488 0.333569
vt 0.4916949 0.333647
vt 0.4167584 0.6665099
vt 0.6665467 0.6665099
vt 0.5916519 0.3336614
vt 0.4166077 0.6661953
vt 0.4166077 0.333569
vt 0.3334512 0.333569
vt 0.4917154 0.6663961
vt 0.5915693 0.6663961
vt 0.4917154 0.3338743
vt 0.591618 0.3336039
vt 0.8333923 0.333569
vt 0.8333923 0.6661953
vt 0.9165488 0.333569
vt 0.9145788 0.333799
vt 0.916607 0.6664338
vt 0.8333941 0.6563374
vt 0.8333941 0.3338119
vt 0.9166086 0.3335724
vt 0.8334495 0.3433559
vt 0.899968 0.6662399
vt 0.8334293 0.3335467
vt 0.8333923 0.666431
vt 0.9165488 0.666431
vt 0.850032 0.6662399
vt 0.9165707 0.3335467
vt 0.8333973 0.3335467
vt 0.9166077 0.666431
vt 0.8334512 0.666431
vt 0.8333914 0.666209
vt 0.9165505 0.3433559
vt 0.9166059 0.6563374
vt 0.9166059 0.3338119
vt 0.9165516 0.6664338
vt 0.8354212 0.333799
vt 0.9166077 0.333569
vt 0.8334512 0.333569
vt 0.08345118 0.333569
vt 0.1666077 0.333569
vt 0.1666077 0.6661953
vt 0.08339226 0.666431
vt 0.9165488 0.333569
vt 0.8333923 0.6661953
vt 0.8333923 0.333569
vt 0.9166045 0.6664449
vt 0.9064621 0.3337769
vt 0.9166119 0.3337392
vt 0.8334429 0.6174924
vt 0.8333923 0.6661953
vt 0.8333923 0.333569
vt 0.8334512 0.333569
vt 0.9166077 0.333569
vt 0.9166077 0.6661953
vt 0.9165571 0.6174924
vt 0.8333881 0.6664154
vt 0.8435379 0.3337769
vt 0.9165626 0.6664449
vt 0.8334512 0.333569
vt 0.9166077 0.333569
vt 0.08345118 0.333569
vt 0.1666077 0.333569
vt 0.1666077 0.6661953
vt 0.08339226 0.666431
vt 0.4917179 0.3335962
vt 0.591576 0.3335962
vt 0.5000394 0.666141
vt 0.1667755 0.6663904
vt 0.2582712 0.3338859
vt 0.2499534 0.6663904
vt 0.3333848 0.333689
vt 0.4165637 0.575664
vt 0.3333848 0.6664045
vt 0.4166077 0.3338047
vt 0.4166077 0.666431
vt 0.3334363 0.575664
vt 0.4166152 0.333689
vt 0.4166152 0.6664045
vt 0.3333923 0.3338047
vt 0.3333923 0.666431
vt 0.8334512 0.333569
vt 0.9166077 0.333569
vt 0.9166077 0.6661953
vt 0.8333923 0.666431
vt 0.8334512 0.333569
vt 0.9166077 0.333569
vt 0.9166077 0.6661953
vt 0.8333923 0.666431
vt 0.6667194 0.6661507
vt 0.6667194 0.3335913
vt 0.7574702 0.3335913
vt 0.757523 0.6664087
vt 0.6667194 0.6661507
vt 0.6667194 0.3335913
vt 0.7574702 0.3335913
vt 0.757523 0.6664087
vt 0.1666077 0.6661953
vt 0.1666077 0.333569
vt 0.08345118 0.333569
vt 0.08339226 0.666431
vt 0.9166077 0.6661953
vt 0.9166077 0.333569
vt 0.8334512 0.333569
vt 0.8333923 0.666431
vt 0.9166077 0.6661953
vt 0.9166077 0.333569
vt 0.8334512 0.333569
vt 0.8333923 0.666431
vt 0.500024 0.6663474
vt 0.6665469 0.333493
vt 0.4167624 0.333493
vt 0.25 0.6663333
vt 0.3331458 0.334
vt 0.1668542 0.6663333
vt 0.3333896 0.6662366
vt 0.416554 0.3638206
vt 0.3333896 0.3335791
vt 0.4166077 0.666431
vt 0.4166077 0.3338047
vt 0.4166104 0.6662366
vt 0.4166104 0.3335791
vt 0.333446 0.3638206
vt 0.3333923 0.666431
vt 0.3333923 0.3338047
usemtl EGA_Plaza_04_texture0
f 3/3/3 2/2/2 1/1/1
f 5/5/5 4/4/4 1/1/1
f 8/8/8 7/7/7 6/6/6
f 11/11/11 10/10/10 9/9/9
f 14/14/14 13/13/13 12/12/12
f 17/17/17 16/16/16 15/15/15
f 20/20/20 19/19/19 18/18/18
f 22/22/22 21/21/21 20/20/20
f 25/25/25 24/24/24 23/23/23
f 27/27/27 26/26/26 23/23/23
f 27/27/27 29/29/29 28/28/28
f 29/29/29 31/31/31 30/30/30
f 34/34/34 33/33/33 32/32/32
f 35/35/35 34/34/34 32/32/32
f 38/38/38 37/37/37 36/36/36
f 38/38/38 36/36/36 39/39/39
f 42/42/42 41/41/41 40/40/40
f 42/42/42 44/44/44 43/43/43
f 46/46/46 45/45/45 43/43/43
f 48/48/48 47/47/47 45/45/45
f 51/51/51 50/50/50 49/49/49
f 54/54/54 53/53/53 52/52/52
f 57/57/57 56/56/56 55/55/55
f 55/55/55 59/59/59 58/58/58
f 62/62/62 61/61/61 60/60/60
f 62/62/62 64/64/64 63/63/63
f 67/67/67 66/66/66 65/65/65
f 70/70/70 69/69/69 68/68/68
f 73/73/73 72/72/72 71/71/71
f 76/76/76 75/75/75 74/74/74
f 77/77/77 76/76/76 74/74/74
f 80/80/80 79/79/79 78/78/78
f 83/83/83 82/82/82 81/81/81
f 83/83/83 84/84/84 82/82/82
f 87/87/87 86/86/86 85/85/85
f 89/89/89 86/86/86 88/88/88
f 91/91/91 89/89/89 90/90/90
f 93/93/93 92/92/92 89/89/89
f 95/95/95 92/92/92 94/94/94
f 95/95/95 97/97/97 96/96/96
f 100/100/100 99/99/99 98/98/98
f 102/102/102 99/99/99 101/101/101
f 100/100/100 104/104/104 103/103/103
f 103/103/103 106/106/106 105/105/105
f 108/108/108 107/107/107 103/103/103
f 110/110/110 109/109/109 107/107/107
f 113/113/113 112/112/112 111/111/111
f 114/114/114 113/113/113 111/111/111
f 117/117/117 116/116/116 115/115/115
f 119/119/119 116/116/116 118/118/118
f 121/121/121 118/118/118 120/120/120
f 123/123/123 122/122/122 120/120/120
f 126/126/126 125/125/125 124/124/124
f 128/128/128 127/127/127 124/124/124
f 128/128/128 130/130/130 129/129/129
f 130/130/130 132/132/132 131/131/131
f 135/135/135 134/134/134 133/133/133
f 136/136/136 135/135/135 133/133/133
f 139/139/139 138/138/138 137/137/137
f 142/142/142 141/141/141 140/140/140
f 145/145/145 144/144/144 143/143/143
f 147/147/147 146/146/146 145/145/145
f 150/150/150 149/149/149 148/148/148
f 152/152/152 150/150/150 151/151/151
f 155/155/155 154/154/154 153/153/153
f 156/156/156 155/155/155 153/153/153
f 159/159/159 158/158/158 157/157/157
f 160/160/160 159/159/159 157/157/157
f 163/163/163 162/162/162 161/161/161
f 164/164/164 163/163/163 161/161/161
f 167/167/167 166/166/166 165/165/165
f 168/168/168 167/167/167 165/165/165
f 171/171/171 170/170/170 169/169/169
f 171/171/171 169/169/169 172/172/172
f 175/175/175 174/174/174 173/173/173
f 175/175/175 173/173/173 176/176/176
f 179/179/179 178/178/178 177/177/177
f 179/179/179 177/177/177 180/180/180
f 183/183/183 182/182/182 181/181/181
f 186/186/186 185/185/185 184/184/184
f 189/189/189 188/188/188 187/187/187
f 187/187/187 191/191/191 190/190/190
f 194/194/194 193/193/193 192/192/192
f 196/196/196 192/192/192 195/195/195
