mtllib EGA_Planter_01.mtl
g default
v -0.9 0.1 1.1
v -0.9 -0.1 1.1
v -0.9 -0.1 -0.9
v -0.9 0.1 -0.9
v 1.1 -0.1 -0.9
v 1.1 -0.1 1.1
v 1.1 0.1 1.1
v 1.1 0.1 -0.9
v -0.9 -0.1 -0.9
v -0.9 -0.1 1.1
v 1.1 -0.1 1.1
v 1.1 -0.1 -0.9
v -0.9 -0.1 -0.9
v 1.1 -0.1 1.1
v 1.1 0.1 1.1
v -0.9 0.1 1.1
v -0.9 0.1 -0.9
v 1.1 0.1 1.1
v -0.9 0.1 -0.9
v 1.1 0.1 -0.9
v 1.1 -0.1 1.1
v -0.9 -0.1 1.1
v -0.9 0.1 1.1
v 1.1 0.1 1.1
v -0.9 0.1 -0.9
v -0.9 -0.1 -0.9
v 1.1 -0.1 -0.9
v 1.1 0.1 -0.9
vn -1 0 0
vn -1 0 0
vn -1 0 0
vn -1 0 0
vn 1 0 0
vn 1 0 0
vn 1 0 0
vn 1 0 0
vn 0 -1 0
vn 0 -1 0
vn 0 -1 0
vn 0 -1 0
vn 0 -1 0
vn 0 -1 0
vn 0 1 0
vn 0 1 0
vn 0 1 0
vn 0 1 0
vn 0 1 0
vn 0 1 0
vn 0 0 1
vn 0 0 1
vn 0 0 1
vn 0 0 1
vn 0 0 -1
vn 0 0 -1
vn 0 0 -1
vn 0 0 -1
vt 0.04766386 0.2778758
vt 0.09521569 0.2778758
vt 0.09521569 0.8331373
vt 0.04764146 0.8332353
vt 0.09521569 0.8331373
vt 0.09521569 0.2778758
vt 0.04766386 0.2778758
vt 0.04764146 0.8332353
vt 0.6666286 0.7220889
vt 0.6666286 0.1667333
vt 0.1905524 0.1667333
vt 0.09527619 0.8332667
vt 0.5713524 0.8332667
vt 0.09527619 0.2779111
vt 0.1905524 0.1667333
vt 0.6666286 0.1667333
vt 0.6666286 0.7220889
vt 0.09527619 0.2779111
vt 0.5713524 0.8332667
vt 0.09527619 0.8332667
vt 0.8095037 0.8886875
vt 0.8095037 0.333434
vt 0.761945 0.333434
vt 0.7619249 0.8887882
vt 0.9048022 0.333434
vt 0.9523608 0.333434
vt 0.9523608 0.8886875
vt 0.9047821 0.8887882
usemtl EGA_Planter_01_texture0
f 3/3/3 2/2/2 1/1/1
f 4/4/4 3/3/3 1/1/1
f 7/7/7 6/6/6 5/5/5
f 7/7/7 5/5/5 8/8/8
f 11/11/11 10/10/10 9/9/9
f 14/14/14 13/13/13 12/12/12
f 17/17/17 16/16/16 15/15/15
f 20/20/20 19/19/19 18/18/18
f 23/23/23 22/22/22 21/21/21
f 24/24/24 23/23/23 21/21/21
f 27/27/27 26/26/26 25/25/25
f 27/27/27 25/25/25 28/28/28
