mtllib EGA_Plaza_08.mtl
g default
v -12.9 1.5 12.1
v -12.9 -0.1 12.1
v -12.9 -0.1 4.9
v -12.9 1.5 4.9
v -12.9 1.5 -4.7
v -12.9 -0.1 -4.7
v -12.9 -0.1 -11.9
v -12.9 1.5 -11.9
v -7.3 1.5 4.9
v -7.3 -0.1 4.9
v -7.3 -0.1 -4.7
v -7.3 1.5 -4.7
v 11.1 -0.1 -11.9
v 11.1 -0.1 12.1
v 11.1 1.5 12.1
v 11.1 1.5 -11.9
v -7.3 -0.1 4.9
v -12.9 -0.1 12.1
v 11.1 -0.1 12.1
v -12.9 -0.1 4.9
v -12.9 -0.1 12.1
v -7.3 -0.1 4.9
v 11.1 -0.1 -11.9
v -7.3 -0.1 4.9
v 11.1 -0.1 12.1
v -7.3 -0.1 -4.7
v -7.3 -0.1 4.9
v 11.1 -0.1 -11.9
v 11.1 -0.1 -11.9
v -12.9 -0.1 -11.9
v -7.3 -0.1 -4.7
v -12.9 -0.1 -11.9
v -12.9 -0.1 -4.7
v -7.3 -0.1 -4.7
v 11.1 1.5 12.1
v -12.9 1.5 12.1
v -7.3 1.5 4.9
v -7.3 1.5 4.9
v -12.9 1.5 12.1
v -12.9 1.5 4.9
v 11.1 1.5 12.1
v -7.3 1.5 4.9
v 11.1 1.5 -11.9
v 11.1 1.5 -11.9
v -7.3 1.5 4.9
v -7.3 1.5 -4.7
v -7.3 1.5 -4.7
v -12.9 1.5 -11.9
v 11.1 1.5 -11.9
v -7.3 1.5 -4.7
v -12.9 1.5 -4.7
v -12.9 1.5 -11.9
v -7.3 -0.1 -4.7
v -12.9 -0.1 -4.7
v -12.9 1.5 -4.7
v -7.3 1.5 -4.7
v 11.1 -0.1 12.1
v -12.9 -0.1 12.1
v -12.9 1.5 12.1
v 11.1 1.5 12.1
v -12.9 1.5 -11.9
v -12.9 -0.1 -11.9
v 11.1 -0.1 -11.9
v 11.1 1.5 -11.9
v -12.9 1.5 4.9
v -12.9 -0.1 4.9
v -7.3 -0.1 4.9
v -7.3 1.5 4.9
vn -1 0 0
vn -1 0 0
vn -1 0 0
vn -1 0 0
vn -1 0 0
vn -1 0 0
vn -1 0 0
vn -1 0 0
vn -1 0 0
vn -1 0 0
vn -1 0 0
vn -1 0 0
vn 1 0 0
vn 1 0 0
vn 1 0 0
vn 1 0 0
vn 0 -1 0
vn 0 -1 0
vn 0 -1 0
vn 0 -1 0
vn 0 -1 0
vn 0 -1 0
vn 0 -1 0
vn 0 -1 0
vn 0 -1 0
vn 0 -1 0
vn 0 -1 0
vn 0 -1 0
vn 0 -1 0
vn 0 -1 0
vn 0 -1 0
vn 0 -1 0
vn 0 -1 0
vn 0 -1 0
vn 0 1 0
vn 0 1 0
vn 0 1 0
vn 0 1 0
vn 0 1 0
vn 0 1 0
vn 0 1 0
vn 0 1 0
vn 0 1 0
vn 0 1 0
vn 0 1 0
vn 0 1 0
vn 0 1 0
vn 0 1 0
vn 0 1 0
vn 0 1 0
vn 0 1 0
vn 0 1 0
vn 0 0 1
vn 0 0 1
vn 0 0 1
vn 0 0 1
vn 0 0 1
vn 0 0 1
vn 0 0 1
vn 0 0 1
vn 0 0 -1
vn 0 0 -1
vn 0 0 -1
vn 0 0 -1
vn 0 0 -1
vn 0 0 -1
vn 0 0 -1
vn 0 0 -1
vt 0.100119 0.3500402
vt 0.1999405 0.3500402
vt 0.1999405 0.4399197
vt 0.1000595 0.4399598
vt 0.6200804 0.9499405
vt 0.6200804 0.9000298
vt 0.7998393 0.9000298
vt 0.7999197 0.9499702
vt 0.199872 0.2599616
vt 0.100064 0.2599616
vt 0.100064 0.1400768
vt 0.199936 0.1400384
vt 0.7999594 0.5999086
vt 0.7999594 0.3000457
vt 0.7000812 0.3000457
vt 0.7000406 0.5999543
vt 0.5799086 0.8299797
vt 0.4000457 0.8999531
vt 0.4000457 0.6000673
vt 0.7999386 0.1899605
vt 0.7999386 0.1000789
vt 0.6601228 0.1899605
vt 0.6999441 0.5999458
vt 0.2401118 0.3900128
vt 0.6999441 0.3000415
vt 0.2400992 0.1400065
vt 0.2400992 0.2599289
vt 0.6998017 0.05006467
vt 0.7999543 0.6000673
vt 0.7999543 0.8999531
vt 0.6200914 0.8299797
vt 0.1000614 0.8500789
vt 0.1000614 0.9399605
vt 0.2398772 0.9399605
vt 0.4000457 0.6000673
vt 0.4000457 0.8999531
vt 0.5799086 0.8299797
vt 0.6601228 0.1899605
vt 0.7999386 0.1000789
vt 0.7999386 0.1899605
vt 0.6999441 0.3000415
vt 0.2401118 0.3900128
vt 0.6999441 0.5999458
vt 0.6998017 0.05006467
vt 0.2400992 0.2599289
vt 0.2400992 0.1400065
vt 0.6200914 0.8299797
vt 0.7999543 0.8999531
vt 0.7999543 0.6000673
vt 0.2398772 0.9399605
vt 0.1000614 0.9399605
vt 0.1000614 0.8500789
vt 0.199931 0.3800724
vt 0.199931 0.4499638
vt 0.1001379 0.4499638
vt 0.100069 0.3800362
vt 0.7999594 0.3000914
vt 0.7999594 0.5999543
vt 0.7000812 0.5999543
vt 0.7000406 0.3000457
vt 0.8000813 0.8999543
vt 0.8999594 0.8999543
vt 0.8999594 0.6000914
vt 0.8000406 0.6000457
vt 0.1001379 0.4499638
vt 0.199931 0.4499638
vt 0.199931 0.3800724
vt 0.100069 0.3800362
usemtl EGA_Plaza_08_texture0
f 3/3/3 2/2/2 1/1/1
f 4/4/4 3/3/3 1/1/1
f 7/7/7 6/6/6 5/5/5
f 8/8/8 7/7/7 5/5/5
f 11/11/11 10/10/10 9/9/9
f 12/12/12 11/11/11 9/9/9
f 15/15/15 14/14/14 13/13/13
f 15/15/15 13/13/13 16/16/16
f 19/19/19 18/18/18 17/17/17
f 22/22/22 21/21/21 20/20/20
f 25/25/25 24/24/24 23/23/23
f 28/28/28 27/27/27 26/26/26
f 31/31/31 30/30/30 29/29/29
f 34/34/34 33/33/33 32/32/32
f 37/37/37 36/36/36 35/35/35
f 40/40/40 39/39/39 38/38/38
f 43/43/43 42/42/42 41/41/41
f 46/46/46 45/45/45 44/44/44
f 49/49/49 48/48/48 47/47/47
f 52/52/52 51/51/51 50/50/50
f 55/55/55 54/54/54 53/53/53
f 56/56/56 55/55/55 53/53/53
f 59/59/59 58/58/58 57/57/57
f 60/60/60 59/59/59 57/57/57
f 63/63/63 62/62/62 61/61/61
f 63/63/63 61/61/61 64/64/64
f 67/67/67 66/66/66 65/65/65
f 67/67/67 65/65/65 68/68/68
