mtllib EGA_Plaza_14.mtl
g default
v -10.46518 1.048932 6.116352
v -3.394113 -5.359634 3.127988
v -3.394113 -1.133451 -5.935089
v -10.46518 5.275115 -2.946725
v -3.39411 6.175781 8.507041
v 2.262742 1.048928 6.11635
v 2.262742 5.27511 -2.946727
v -3.39411 10.40196 -0.5560357
v -3.394113 0.1482615 -5.337416
v -3.394113 -4.077921 3.725661
v -9.050966 1.048932 6.116352
v -9.050966 5.275115 -2.946725
v 3.676956 5.27511 -2.946727
v 3.676956 1.048927 6.11635
v -3.39411 7.457493 9.104713
v -3.39411 11.68368 0.04163686
v -3.394113 -1.133451 -5.935089
v -3.394113 -5.359634 3.127988
v 3.676956 1.048927 6.11635
v 3.676956 5.27511 -2.946727
v -9.050966 5.275115 -2.946725
v -9.050966 1.048932 6.116352
v -3.39411 6.175781 8.507041
v -3.39411 10.40196 -0.5560357
v 2.262742 1.048928 6.11635
v -3.394113 -4.077921 3.725661
v -3.394113 0.1482615 -5.337416
v 2.262742 5.27511 -2.946727
v -3.39411 7.457493 9.104713
v -10.46518 1.048932 6.116352
v -10.46518 5.275115 -2.946725
v -3.39411 11.68368 0.04163686
v 3.676956 1.048927 6.11635
v -3.394113 -5.359634 3.127988
v 2.262742 1.048928 6.11635
v 2.262742 1.048928 6.11635
v -3.394113 -4.077921 3.725661
v 2.262742 1.048928 6.11635
v -3.39411 7.457493 9.104713
v -3.394113 -4.077921 3.725661
v -10.46518 1.048932 6.116352
v -3.39411 6.175781 8.507041
v 2.262742 1.048928 6.11635
v -3.39411 6.175781 8.507041
v -3.394113 -4.077921 3.725661
v -9.050966 1.048932 6.116352
v -9.050966 1.048932 6.116352
v -3.39411 6.175781 8.507041
v 2.262742 5.27511 -2.946727
v -3.394113 -1.133451 -5.935089
v 3.676956 5.27511 -2.946727
v -3.394113 0.1482615 -5.337416
v 2.262742 5.27511 -2.946727
v -3.39411 11.68368 0.04163686
v 2.262742 5.27511 -2.946727
v -10.46518 5.275115 -2.946725
v -3.394113 0.1482615 -5.337416
v -3.39411 10.40196 -0.5560357
v -3.39411 10.40196 -0.5560357
v 2.262742 5.27511 -2.946727
v -9.050966 5.275115 -2.946725
v -3.394113 0.1482615 -5.337416
v -3.39411 10.40196 -0.5560357
v -9.050966 5.275115 -2.946725
vn -0.707107 -0.6408561 -0.2988362
vn -0.707107 -0.6408561 -0.2988362
vn -0.707107 -0.6408561 -0.2988362
vn -0.707107 -0.6408561 -0.2988362
vn -0.707107 -0.6408561 -0.2988362
vn -0.707107 -0.6408561 -0.2988362
vn -0.707107 -0.6408561 -0.2988362
vn -0.707107 -0.6408561 -0.2988362
vn 0.707107 0.6408561 0.2988362
vn 0.707107 0.6408561 0.2988362
vn 0.707107 0.6408561 0.2988362
vn 0.707107 0.6408561 0.2988362
vn 0.707107 0.6408561 0.2988362
vn 0.707107 0.6408561 0.2988362
vn 0.707107 0.6408561 0.2988362
vn 0.707107 0.6408561 0.2988362
vn 0.7071066 -0.6408566 -0.2988364
vn 0.7071066 -0.6408566 -0.2988364
vn 0.7071066 -0.6408566 -0.2988364
vn 0.7071066 -0.6408566 -0.2988364
vn 0.7071066 -0.6408566 -0.2988364
vn 0.7071066 -0.6408566 -0.2988364
vn 0.7071066 -0.6408566 -0.2988364
vn 0.7071066 -0.6408566 -0.2988364
vn -0.7071066 0.6408566 0.2988364
vn -0.7071066 0.6408566 0.2988364
vn -0.7071066 0.6408566 0.2988364
vn -0.7071066 0.6408566 0.2988364
vn -0.7071066 0.6408566 0.2988364
vn -0.7071066 0.6408566 0.2988364
vn -0.7071066 0.6408566 0.2988364
vn -0.7071066 0.6408566 0.2988364
vn 0 -0.4226183 0.9063078
vn 0 -0.4226183 0.9063078
vn 0 -0.4226183 0.9063078
vn 0 -0.4226183 0.9063078
vn 0 -0.4226183 0.9063078
vn 0 -0.4226183 0.9063078
vn 0 -0.4226183 0.9063078
vn 0 -0.4226183 0.9063078
vn 0 -0.4226183 0.9063078
vn 0 -0.4226183 0.9063078
vn 0 -0.4226183 0.9063078
vn 0 -0.4226183 0.9063078
vn 0 -0.4226183 0.9063078
vn 0 -0.4226183 0.9063078
vn 0 -0.4226183 0.9063078
vn 0 -0.4226183 0.9063078
vn 0 0.4226183 -0.9063078
vn 0 0.4226183 -0.9063078
vn 0 0.4226183 -0.9063078
vn 0 0.4226183 -0.9063078
vn 0 0.4226183 -0.9063078
vn 0 0.4226183 -0.9063078
vn 0 0.4226183 -0.9063078
vn 0 0.4226183 -0.9063078
vn 0 0.4226183 -0.9063078
vn 0 0.4226183 -0.9063078
vn 0 0.4226183 -0.9063078
vn 0 0.4226183 -0.9063078
vn 0 0.4226183 -0.9063078
vn 0 0.4226183 -0.9063078
vn 0 0.4226183 -0.9063078
vn 0 0.4226183 -0.9063078
vt 0.3338047 0.333569
vt 0.666431 0.333569
vt 0.666431 0.6661953
vt 0.333569 0.666431
vt 0.3338047 0.333569
vt 0.666431 0.333569
vt 0.666431 0.6661953
vt 0.333569 0.666431
vt 0.666431 0.6661953
vt 0.666431 0.333569
vt 0.3338047 0.333569
vt 0.333569 0.666431
vt 0.666431 0.6661953
vt 0.666431 0.333569
vt 0.3338047 0.333569
vt 0.333569 0.666431
vt 0.666431 0.6661953
vt 0.666431 0.333569
vt 0.3338047 0.333569
vt 0.333569 0.666431
vt 0.666431 0.6661953
vt 0.666431 0.333569
vt 0.3338047 0.333569
vt 0.333569 0.666431
vt 0.3338047 0.333569
vt 0.666431 0.333569
vt 0.666431 0.6661953
vt 0.333569 0.666431
vt 0.3338047 0.333569
vt 0.666431 0.333569
vt 0.666431 0.6661953
vt 0.333569 0.666431
vt 0.33358 0.3335575
vt 0.6662406 0.3335575
vt 0.3668461 0.6662182
vt 0.3338303 0.6664035
vt 0.629425 0.6664035
vt 0.6662182 0.3668461
vt 0.3335575 0.6662406
vt 0.3337818 0.3668461
vt 0.6664425 0.6662406
vt 0.3668461 0.3337818
vt 0.6664035 0.3338303
vt 0.6664035 0.629425
vt 0.3335964 0.3338303
vt 0.3335964 0.629425
vt 0.629425 0.3335964
vt 0.3338303 0.3335964
vt 0.3668461 0.6662182
vt 0.6662406 0.3335575
vt 0.33358 0.3335575
vt 0.629425 0.6664035
vt 0.3338303 0.6664035
vt 0.3335575 0.6662406
vt 0.6662182 0.3668461
vt 0.6664425 0.6662406
vt 0.3337818 0.3668461
vt 0.3668461 0.3337818
vt 0.6664035 0.629425
vt 0.6664035 0.3338303
vt 0.3335964 0.629425
vt 0.3335964 0.3338303
vt 0.3338303 0.3335964
vt 0.629425 0.3335964
usemtl EGA_Plaza_14_texture0
f 3/3/3 2/2/2 1/1/1
f 4/4/4 3/3/3 1/1/1
f 7/7/7 6/6/6 5/5/5
f 8/8/8 7/7/7 5/5/5
f 11/11/11 10/10/10 9/9/9
f 11/11/11 9/9/9 12/12/12
f 15/15/15 14/14/14 13/13/13
f 15/15/15 13/13/13 16/16/16
f 19/19/19 18/18/18 17/17/17
f 19/19/19 17/17/17 20/20/20
f 23/23/23 22/22/22 21/21/21
f 23/23/23 21/21/21 24/24/24
f 27/27/27 26/26/26 25/25/25
f 28/28/28 27/27/27 25/25/25
f 31/31/31 30/30/30 29/29/29
f 32/32/32 31/31/31 29/29/29
f 35/35/35 34/34/34 33/33/33
f 37/37/37 34/34/34 36/36/36
f 39/39/39 38/38/38 33/33/33
f 41/41/41 34/34/34 40/40/40
f 39/39/39 41/41/41 42/42/42
f 44/44/44 43/43/43 39/39/39
f 46/46/46 41/41/41 45/45/45
f 48/48/48 41/41/41 47/47/47
f 51/51/51 50/50/50 49/49/49
f 53/53/53 50/50/50 52/52/52
f 51/51/51 55/55/55 54/54/54
f 57/57/57 50/50/50 56/56/56
f 58/58/58 56/56/56 54/54/54
f 54/54/54 60/60/60 59/59/59
f 62/62/62 56/56/56 61/61/61
f 64/64/64 56/56/56 63/63/63
