mtllib EGA_Sidewalk_42.mtl
g default
v -1.5 0.3 3.1
v -1.5 -0.1 3.1
v -1.5 -0.1 -2.9
v -1.5 0.3 -2.9
v 1.5 -0.1 -2.9
v 1.5 -0.1 3.1
v 1.5 0.3 3.1
v 1.5 0.3 -2.9
v -1.5 -0.1 -2.9
v -1.5 -0.1 3.1
v 1.5 -0.1 3.1
v 1.5 -0.1 -2.9
v -1.5 -0.1 -2.9
v 1.5 -0.1 3.1
v 1.5 0.3 3.1
v -1.5 0.3 3.1
v -1.5 0.3 -2.9
v 1.5 0.3 3.1
v -1.5 0.3 -2.9
v 1.5 0.3 -2.9
v 1.5 -0.1 3.1
v -1.5 -0.1 3.1
v -1.5 0.3 3.1
v 1.5 0.3 3.1
v -1.5 0.3 -2.9
v -1.5 -0.1 -2.9
v 1.5 -0.1 -2.9
v 1.5 0.3 -2.9
vn -1 0 0
vn -1 0 0
vn -1 0 0
vn -1 0 0
vn 1 0 0
vn 1 0 0
vn 1 0 0
vn 1 0 0
vn 0 -1 0
vn 0 -1 0
vn 0 -1 0
vn 0 -1 0
vn 0 -1 0
vn 0 -1 0
vn 0 1 0
vn 0 1 0
vn 0 1 0
vn 0 1 0
vn 0 1 0
vn 0 1 0
vn 0 0 1
vn 0 0 1
vn 0 0 1
vn 0 0 1
vn 0 0 -1
vn 0 0 -1
vn 0 0 -1
vn 0 0 -1
vt 0.764789 0.0625221
vt 0.8234878 0.0625221
vt 0.8234878 0.0937058
vt 0.7647475 0.0937279
vt 0.1176274 0.9686911
vt 0.1176274 0.03127944
vt 0.05886294 0.03127944
vt 0.05884324 0.9687206
vt 0.94112 0.09373242
vt 0.94112 0.0614312
vt 0.05893643 0.0614312
vt 0.05886384 0.9687272
vt 0.9410958 0.9687272
vt 0.05886384 0.03129551
vt 0.05893643 0.0614312
vt 0.94112 0.0614312
vt 0.94112 0.09373242
vt 0.05886384 0.03129551
vt 0.9410958 0.9687272
vt 0.05886384 0.9687272
vt 0.8234883 0.1562053
vt 0.8234883 0.1136587
vt 0.7647882 0.1136587
vt 0.764747 0.1562277
vt 0.8234878 0.0937058
vt 0.8234878 0.0625221
vt 0.764789 0.0625221
vt 0.7647475 0.0937279
usemtl EGA_Sidewalk_42_texture0
f 3/3/3 2/2/2 1/1/1
f 4/4/4 3/3/3 1/1/1
f 7/7/7 6/6/6 5/5/5
f 7/7/7 5/5/5 8/8/8
f 11/11/11 10/10/10 9/9/9
f 14/14/14 13/13/13 12/12/12
f 17/17/17 16/16/16 15/15/15
f 20/20/20 19/19/19 18/18/18
f 23/23/23 22/22/22 21/21/21
f 24/24/24 23/23/23 21/21/21
f 27/27/27 26/26/26 25/25/25
f 27/27/27 25/25/25 28/28/28
