mtllib EGA_WrongWay_Sign_01.mtl
g default
v 0.175 4.375 0.125
v 0.175 -0.025 0.125
v 0.02500001 2.925 0.125
v 0.02500001 2.925 0.125
v 0.02500001 -0.025 0.125
v 0.02500001 2.925 0.125
v 0.02500001 4.375 0.125
v 0.02500013 4.425 1.175
v 0.02500013 2.925 1.175
v -0.07499985 2.925 1.175
v -0.07499985 4.425 1.175
v -0.07500013 2.925 -1.175
v 0.02499986 2.925 -1.175
v 0.02499986 4.425 -1.175
v -0.07500013 4.425 -1.175
v 0.02499998 2.925 -0.125
v 0.175 -0.025 -0.125
v 0.175 4.375 -0.125
v 0.02499998 -0.025 -0.125
v 0.02499998 2.925 -0.125
v 0.02499998 4.375 -0.125
v 0.02499998 2.925 -0.125
v 0.02500001 -0.025 0.125
v 0.175 -0.025 0.125
v 0.175 -0.025 -0.125
v 0.02499998 -0.025 -0.125
v 0.02499986 2.925 -1.175
v -0.07500013 2.925 -1.175
v 0.02499998 2.925 -0.125
v 0.02499998 2.925 -0.125
v -0.07499985 2.925 1.175
v 0.02499998 2.925 -0.125
v 0.02500001 2.925 0.125
v 0.02500013 2.925 1.175
v 0.02500001 2.925 0.125
v 0.175 4.375 -0.125
v 0.175 4.375 0.125
v 0.02500001 4.375 0.125
v 0.02499998 4.375 -0.125
v 0.02499986 4.425 -1.175
v 0.02500013 4.425 1.175
v -0.07499985 4.425 1.175
v -0.07500013 4.425 -1.175
v 0.02499986 2.925 -1.175
v 0.02499998 2.925 -0.125
v 0.02499998 4.375 -0.125
v 0.02499998 4.375 -0.125
v 0.02499986 4.425 -1.175
v 0.02499998 4.375 -0.125
v 0.02500013 4.425 1.175
v 0.02500001 4.375 0.125
v 0.02499998 4.375 -0.125
v 0.02500013 2.925 1.175
v 0.02500001 4.375 0.125
v 0.02500001 4.375 0.125
v 0.02500001 2.925 0.125
v 0.175 -0.025 -0.125
v 0.175 -0.025 0.125
v 0.175 4.375 0.125
v 0.175 4.375 -0.125
v 0.02500001 2.925 0.125
v 0.02500001 -0.025 0.125
v 0.02499998 -0.025 -0.125
v 0.02499998 2.925 -0.125
v -0.07499985 4.425 1.175
v -0.07499985 2.925 1.175
v -0.07500013 2.925 -1.175
v -0.07500013 4.425 -1.175
vn 1.192093E-07 0 0.9999999
vn 1.192093E-07 0 0.9999999
vn 1.192093E-07 0 0.9999999
vn 1.192093E-07 0 0.9999999
vn 1.192093E-07 0 0.9999999
vn 1.192093E-07 0 0.9999999
vn 1.192093E-07 0 0.9999999
vn 1.192093E-07 0 0.9999999
vn 1.192093E-07 0 0.9999999
vn 1.192093E-07 0 0.9999999
vn 1.192093E-07 0 0.9999999
vn -1.192093E-07 0 -0.9999999
vn -1.192093E-07 0 -0.9999999
vn -1.192093E-07 0 -0.9999999
vn -1.192093E-07 0 -0.9999999
vn -1.192093E-07 0 -0.9999999
vn -1.192093E-07 0 -0.9999999
vn -1.192093E-07 0 -0.9999999
vn -1.192093E-07 0 -0.9999999
vn -1.192093E-07 0 -0.9999999
vn -1.192093E-07 0 -0.9999999
vn -1.192093E-07 0 -0.9999999
vn 0 -1 0
vn 0 -1 0
vn 0 -1 0
vn 0 -1 0
vn 0 -1 0
vn 0 -1 0
vn 0 -1 0
vn 0 -1 0
vn 0 -1 0
vn 0 -1 0
vn 0 -1 0
vn 0 -1 0
vn 0 -1 0
vn 0 1 0
vn 0 1 0
vn 0 1 0
vn 0 1 0
vn 0 1 0
vn 0 1 0
vn 0 1 0
vn 0 1 0
vn 0.9999999 0 -1.192093E-07
vn 0.9999999 0 -1.192093E-07
vn 0.9999999 0 -1.192093E-07
vn 0.9999999 0 -1.192093E-07
vn 0.9999999 0 -1.192093E-07
vn 0.9999999 0 -1.192093E-07
vn 0.9999999 0 -1.192093E-07
vn 0.9999999 0 -1.192093E-07
vn 0.9999999 0 -1.192093E-07
vn 0.9999999 0 -1.192093E-07
vn 0.9999999 0 -1.192093E-07
vn 0.9999999 0 -1.192093E-07
vn 0.9999999 0 -1.192093E-07
vn 0.9999999 0 -1.192093E-07
vn 0.9999999 0 -1.192093E-07
vn 0.9999999 0 -1.192093E-07
vn 0.9999999 0 -1.192093E-07
vn -0.9999999 0 1.192093E-07
vn -0.9999999 0 1.192093E-07
vn -0.9999999 0 1.192093E-07
vn -0.9999999 0 1.192093E-07
vn -0.9999999 0 1.192093E-07
vn -0.9999999 0 1.192093E-07
vn -0.9999999 0 1.192093E-07
vn -0.9999999 0 1.192093E-07
vt 0.6667998 0.6667668
vt 0.833166 0.6667668
vt 0.7216251 0.833133
vt 0.6669024 0.8332155
vt 0.8332155 0.8332155
vt 0.8330976 0.8332155
vt 0.6667845 0.8332155
vt 0.1668516 0.333472
vt 0.3332409 0.333472
vt 0.3332409 0.6663893
vt 0.1667591 0.666528
vt 0.3332409 0.6663893
vt 0.3332409 0.333472
vt 0.1668516 0.333472
vt 0.1667591 0.666528
vt 0.7216251 0.833133
vt 0.833166 0.6667668
vt 0.6667998 0.6667668
vt 0.8332155 0.8332155
vt 0.6669024 0.8332155
vt 0.6667845 0.8332155
vt 0.8330976 0.8332155
vt 0.8332155 0.8330976
vt 0.8332155 0.6667845
vt 0.6669024 0.6667845
vt 0.6667845 0.8332155
vt 0.1667591 0.333472
vt 0.1667591 0.6663893
vt 0.3331484 0.333472
vt 0.2411433 0.3335733
vt 0.3332091 0.6665467
vt 0.1667892 0.3334875
vt 0.1987812 0.3334875
vt 0.3332409 0.333472
vt 0.1668516 0.333472
vt 0.6669024 0.6667845
vt 0.8332155 0.6667845
vt 0.8332155 0.8330976
vt 0.6667845 0.8332155
vt 0.1668516 0.333472
vt 0.3332409 0.333472
vt 0.3332409 0.6663893
vt 0.1667591 0.666528
vt 0.1669024 0.1667845
vt 0.3332155 0.1667845
vt 0.3332155 0.3330976
vt 0.3331015 0.3276696
vt 0.1667826 0.3332136
vt 0.2411448 0.1668562
vt 0.3331861 0.3332386
vt 0.1988053 0.1668086
vt 0.1668359 0.1668086
vt 0.3332174 0.1668946
vt 0.1668985 0.3276696
vt 0.1667845 0.3330976
vt 0.1667845 0.1667845
vt 0.6669024 0.6667845
vt 0.8332155 0.6667845
vt 0.8332155 0.8330976
vt 0.6667845 0.8332155
vt 0.8332155 0.8330976
vt 0.8332155 0.6667845
vt 0.6669024 0.6667845
vt 0.6667845 0.8332155
vt 0.3332155 0.8330976
vt 0.3332155 0.6667845
vt 0.1669024 0.6667845
vt 0.1667845 0.8332155
usemtl EGA_WrongWay_Sign_01_texture0
f 3/3/3 2/2/2 1/1/1
f 5/5/5 2/2/2 4/4/4
f 7/7/7 6/6/6 1/1/1
f 10/10/10 9/9/9 8/8/8
f 11/11/11 10/10/10 8/8/8
f 14/14/14 13/13/13 12/12/12
f 14/14/14 12/12/12 15/15/15
f 18/18/18 17/17/17 16/16/16
f 20/20/20 17/17/17 19/19/19
f 18/18/18 22/22/22 21/21/21
f 25/25/25 24/24/24 23/23/23
f 25/25/25 23/23/23 26/26/26
f 29/29/29 28/28/28 27/27/27
f 31/31/31 28/28/28 30/30/30
f 33/33/33 31/31/31 32/32/32
f 35/35/35 34/34/34 31/31/31
f 38/38/38 37/37/37 36/36/36
f 39/39/39 38/38/38 36/36/36
f 42/42/42 41/41/41 40/40/40
f 43/43/43 42/42/42 40/40/40
f 46/46/46 45/45/45 44/44/44
f 48/48/48 47/47/47 44/44/44
f 48/48/48 50/50/50 49/49/49
f 52/52/52 50/50/50 51/51/51
f 54/54/54 50/50/50 53/53/53
f 56/56/56 55/55/55 53/53/53
f 59/59/59 58/58/58 57/57/57
f 60/60/60 59/59/59 57/57/57
f 63/63/63 62/62/62 61/61/61
f 63/63/63 61/61/61 64/64/64
f 67/67/67 66/66/66 65/65/65
f 67/67/67 65/65/65 68/68/68
