mtllib EGA_Plaza_05.mtl
g default
v -4.7 2.3 3.9
v -4.7 2.1 3.9
v -4.7 2.1 3.7
v -4.7 2.1 3.7
v -4.7 2.3 -1.9
v -4.7 2.1 3.7
v -4.7 -0.1 -1.9
v -4.7 2.3 -1.9
v -4.7 2.1 3.7
v -4.7 -0.1 3.7
v -4.7 -0.1 -1.9
v -11.9 2.3 -1.9
v -11.9 -0.1 -1.9
v -11.9 2.1 -2.7
v -11.9 2.1 -2.7
v -11.9 -0.1 -1.9
v -11.9 -0.1 -2.7
v -11.9 2.3 -1.9
v -11.9 2.1 -2.7
v -11.9 2.3 -2.9
v -11.9 2.1 -2.7
v -11.9 2.1 -2.9
v 4.1 2.1 3.7
v 4.1 1.5 3.7
v 4.1 1.5 2.9
v 4.1 1.5 2.9
v 4.1 1.3 2.1
v 4.1 1.3 2.1
v 4.1 2.1 -2.7
v 4.1 1.5 2.9
v 4.1 1.3 2.9
v 4.1 1.3 2.1
v 4.1 1.1 1.3
v 4.1 1.1 1.3
v 4.1 0.9 0.5
v 4.1 0.9 0.5
v 4.1 0.7 -0.3
v 4.1 0.7 -0.3
v 4.1 0.5 -1.1
v 4.1 0.5 -1.1
v 4.1 0.3 -1.9
v 4.1 0.3 -1.9
v 4.1 0.1 -2.7
v 4.1 0.3 -1.9
v 4.1 0.1 -1.9
v 4.1 1.3 2.1
v 4.1 1.1 2.1
v 4.1 1.1 1.3
v 4.1 1.1 1.3
v 4.1 0.9 1.3
v 4.1 0.9 0.5
v 4.1 0.9 0.5
v 4.1 0.7 0.5
v 4.1 0.7 -0.3
v 4.1 0.7 -0.3
v 4.1 0.5 -0.3
v 4.1 0.5 -1.1
v 4.1 0.5 -1.1
v 4.1 0.3 -1.1
v 4.1 0.3 -1.9
v 3.9 2.3 3.9
v 3.9 2.1 3.9
v 3.9 2.1 -2.9
v 3.9 2.3 -2.9
v -3.7 2.1 -2.9
v -3.7 2.1 3.9
v -3.7 2.3 3.9
v -3.7 2.3 -2.9
v -3.9 1.5 2.9
v -3.9 1.5 3.7
v -3.9 2.1 3.7
v -3.9 1.3 2.1
v -3.9 1.5 2.9
v -3.9 2.1 -2.7
v -3.9 1.3 2.1
v -3.9 1.3 2.9
v -3.9 1.5 2.9
v -3.9 1.1 1.3
v -3.9 1.3 2.1
v -3.9 0.9 0.5
v -3.9 1.1 1.3
v -3.9 0.7 -0.3
v -3.9 0.9 0.5
v -3.9 0.5 -1.1
v -3.9 0.7 -0.3
v -3.9 0.3 -1.9
v -3.9 0.5 -1.1
v -3.9 0.1 -2.7
v -3.9 0.3 -1.9
v -3.9 0.1 -1.9
v -3.9 0.3 -1.9
v -3.9 1.1 1.3
v -3.9 1.1 2.1
v -3.9 1.3 2.1
v -3.9 0.9 0.5
v -3.9 0.9 1.3
v -3.9 1.1 1.3
v -3.9 0.7 -0.3
v -3.9 0.7 0.5
v -3.9 0.9 0.5
v -3.9 0.5 -1.1
v -3.9 0.5 -0.3
v -3.9 0.7 -0.3
v -3.9 0.3 -1.9
v -3.9 0.3 -1.1
v -3.9 0.5 -1.1
v 12.1 2.1 -2.7
v 12.1 -0.1 -1.9
v 12.1 2.3 -1.9
v 12.1 -0.1 -2.7
v 12.1 -0.1 -1.9
v 12.1 2.1 -2.7
v 12.1 2.3 -2.9
v 12.1 2.1 -2.7
v 12.1 2.3 -1.9
v 12.1 2.1 -2.9
v 12.1 2.1 -2.7
v 4.9 2.1 3.7
v 4.9 2.1 3.9
v 4.9 2.3 3.9
v 4.9 2.3 -1.9
v 4.9 2.1 3.7
v 4.9 2.3 -1.9
v 4.9 -0.1 -1.9
v 4.9 2.1 3.7
v 4.9 -0.1 -1.9
v 4.9 -0.1 3.7
v 4.9 2.1 3.7
v 12.1 -0.1 -1.9
v 12.1 -0.1 -2.7
v 4.9 -0.1 -1.9
v 4.9 -0.1 -1.9
v 12.1 -0.1 -2.7
v -11.9 -0.1 -2.7
v -4.7 -0.1 -1.9
v -11.9 -0.1 -2.7
v -11.9 -0.1 -1.9
v -4.7 -0.1 -1.9
v 4.9 -0.1 -1.9
v -4.7 -0.1 -1.9
v 4.9 -0.1 3.7
v -4.7 -0.1 3.7
v 12.1 2.1 -2.7
v 12.1 2.1 -2.9
v 4.1 2.1 -2.7
v 4.1 2.1 -2.7
v 3.9 2.1 -2.9
v 4.1 2.1 -2.7
v 4.1 2.1 3.7
v 3.9 2.1 3.9
v 4.1 2.1 3.7
v 4.1 2.1 3.7
v 4.9 2.1 3.9
v 4.9 2.1 3.7
v 4.1 2.1 3.7
v -3.9 2.1 3.7
v -4.7 2.1 3.9
v -3.7 2.1 3.9
v -4.7 2.1 3.7
v -3.9 2.1 3.7
v -3.7 2.1 -2.9
v -3.9 2.1 3.7
v -3.9 2.1 -2.7
v -3.9 2.1 3.7
v -11.9 2.1 -2.9
v -3.9 2.1 -2.7
v -11.9 2.1 -2.7
v -3.9 2.1 -2.7
v 4.1 0.1 -1.9
v -3.9 0.1 -1.9
v -3.9 0.1 -2.7
v 4.1 0.1 -2.7
v 4.9 2.3 -1.9
v 12.1 2.3 -2.9
v 12.1 2.3 -1.9
v 3.9 2.3 -2.9
v 4.9 2.3 -1.9
v 3.9 2.3 3.9
v 4.9 2.3 -1.9
v 4.9 2.3 -1.9
v 4.9 2.3 3.9
v -3.7 2.3 3.9
v -4.7 2.3 3.9
v -4.7 2.3 -1.9
v -4.7 2.3 -1.9
v -3.7 2.3 -2.9
v -4.7 2.3 -1.9
v -11.9 2.3 -2.9
v -4.7 2.3 -1.9
v -11.9 2.3 -1.9
v 4.1 1.5 3.7
v -3.9 1.5 3.7
v -3.9 1.5 2.9
v 4.1 1.5 2.9
v 4.1 1.3 2.9
v -3.9 1.3 2.9
v -3.9 1.3 2.1
v 4.1 1.3 2.1
v 4.1 1.1 2.1
v -3.9 1.1 2.1
v -3.9 1.1 1.3
v 4.1 1.1 1.3
v 4.1 0.9 1.3
v -3.9 0.9 1.3
v -3.9 0.9 0.5
v 4.1 0.9 0.5
v 4.1 0.7 0.5
v -3.9 0.7 0.5
v -3.9 0.7 -0.3
v 4.1 0.7 -0.3
v 4.1 0.5 -0.3
v -3.9 0.5 -0.3
v -3.9 0.5 -1.1
v 4.1 0.5 -1.1
v 4.1 0.3 -1.1
v -3.9 0.3 -1.1
v -3.9 0.3 -1.9
v 4.1 0.3 -1.9
v 4.9 2.1 3.9
v 3.9 2.1 3.9
v 3.9 2.3 3.9
v 4.9 2.3 3.9
v -3.7 2.1 3.9
v -4.7 2.1 3.9
v -4.7 2.3 3.9
v -3.7 2.3 3.9
v 4.9 -0.1 3.7
v -4.7 -0.1 3.7
v 4.1 1.5 3.7
v 4.1 1.5 3.7
v -4.7 -0.1 3.7
v -3.9 1.5 3.7
v 4.9 -0.1 3.7
v 4.1 1.5 3.7
v 4.9 2.1 3.7
v 4.1 1.5 3.7
v 4.1 2.1 3.7
v -3.9 1.5 3.7
v -4.7 -0.1 3.7
v -4.7 2.1 3.7
v -3.9 1.5 3.7
v -3.9 2.1 3.7
v 12.1 -0.1 -1.9
v 4.9 -0.1 -1.9
v 4.9 2.3 -1.9
v 12.1 2.3 -1.9
v -4.7 -0.1 -1.9
v -11.9 -0.1 -1.9
v -11.9 2.3 -1.9
v -4.7 2.3 -1.9
v 3.9 2.3 -2.9
v 3.9 2.1 -2.9
v 12.1 2.1 -2.9
v 12.1 2.3 -2.9
v -11.9 2.3 -2.9
v -11.9 2.1 -2.9
v -3.7 2.1 -2.9
v -3.7 2.3 -2.9
v -3.9 0.9 0.5
v -3.9 0.7 0.5
v 4.1 0.7 0.5
v 4.1 0.9 0.5
v 4.1 0.1 -2.7
v -11.9 -0.1 -2.7
v 12.1 -0.1 -2.7
v -3.9 0.1 -2.7
v -11.9 -0.1 -2.7
v 4.1 0.1 -2.7
v 12.1 2.1 -2.7
v 4.1 0.1 -2.7
v 12.1 -0.1 -2.7
v 4.1 2.1 -2.7
v 4.1 0.1 -2.7
v -11.9 2.1 -2.7
v -11.9 -0.1 -2.7
v -3.9 0.1 -2.7
v -3.9 2.1 -2.7
v -3.9 0.1 -2.7
v -3.9 0.3 -1.9
v -3.9 0.1 -1.9
v 4.1 0.1 -1.9
v 4.1 0.3 -1.9
v -3.9 1.1 1.3
v -3.9 0.9 1.3
v 4.1 0.9 1.3
v 4.1 1.1 1.3
v -3.9 1.3 2.1
v -3.9 1.1 2.1
v 4.1 1.1 2.1
v 4.1 1.3 2.1
v -3.9 0.5 -1.1
v -3.9 0.3 -1.1
v 4.1 0.3 -1.1
v 4.1 0.5 -1.1
v -3.9 0.7 -0.3
v -3.9 0.5 -0.3
v 4.1 0.5 -0.3
v 4.1 0.7 -0.3
v -3.9 1.5 2.9
v -3.9 1.3 2.9
v 4.1 1.3 2.9
v 4.1 1.5 2.9
vn -1 0 0
vn -1 0 0
vn -1 0 0
vn -1 0 0
vn -1 0 0
vn -1 0 0
vn -1 0 0
vn -1 0 0
vn -1 0 0
vn -1 0 0
vn -1 0 0
vn -1 0 0
vn -1 0 0
vn -1 0 0
vn -1 0 0
vn -1 0 0
vn -1 0 0
vn -1 0 0
vn -1 0 0
vn -1 0 0
vn -1 0 0
vn -1 0 0
vn -1 0 0
vn -1 0 0
vn -1 0 0
vn -1 0 0
vn -1 0 0
vn -1 0 0
vn -1 0 0
vn -1 0 0
vn -1 0 0
vn -1 0 0
vn -1 0 0
vn -1 0 0
vn -1 0 0
vn -1 0 0
vn -1 0 0
vn -1 0 0
vn -1 0 0
vn -1 0 0
vn -1 0 0
vn -1 0 0
vn -1 0 0
vn -1 0 0
vn -1 0 0
vn -1 0 0
vn -1 0 0
vn -1 0 0
vn -1 0 0
vn -1 0 0
vn -1 0 0
vn -1 0 0
vn -1 0 0
vn -1 0 0
vn -1 0 0
vn -1 0 0
vn -1 0 0
vn -1 0 0
vn -1 0 0
vn -1 0 0
vn -1 0 0
vn -1 0 0
vn -1 0 0
vn -1 0 0
vn 1 0 0
vn 1 0 0
vn 1 0 0
vn 1 0 0
vn 1 0 0
vn 1 0 0
vn 1 0 0
vn 1 0 0
vn 1 0 0
vn 1 0 0
vn 1 0 0
vn 1 0 0
vn 1 0 0
vn 1 0 0
vn 1 0 0
vn 1 0 0
vn 1 0 0
vn 1 0 0
vn 1 0 0
vn 1 0 0
vn 1 0 0
vn 1 0 0
vn 1 0 0
vn 1 0 0
vn 1 0 0
vn 1 0 0
vn 1 0 0
vn 1 0 0
vn 1 0 0
vn 1 0 0
vn 1 0 0
vn 1 0 0
vn 1 0 0
vn 1 0 0
vn 1 0 0
vn 1 0 0
vn 1 0 0
vn 1 0 0
vn 1 0 0
vn 1 0 0
vn 1 0 0
vn 1 0 0
vn 1 0 0
vn 1 0 0
vn 1 0 0
vn 1 0 0
vn 1 0 0
vn 1 0 0
vn 1 0 0
vn 1 0 0
vn 1 0 0
vn 1 0 0
vn 1 0 0
vn 1 0 0
vn 1 0 0
vn 1 0 0
vn 1 0 0
vn 1 0 0
vn 1 0 0
vn 1 0 0
vn 1 0 0
vn 1 0 0
vn 1 0 0
vn 1 0 0
vn 0 -1 0
vn 0 -1 0
vn 0 -1 0
vn 0 -1 0
vn 0 -1 0
vn 0 -1 0
vn 0 -1 0
vn 0 -1 0
vn 0 -1 0
vn 0 -1 0
vn 0 -1 0
vn 0 -1 0
vn 0 -1 0
vn 0 -1 0
vn 0 -1 0
vn 0 -1 0
vn 0 -1 0
vn 0 -1 0
vn 0 -1 0
vn 0 -1 0
vn 0 -1 0
vn 0 -1 0
vn 0 -1 0
vn 0 -1 0
vn 0 -1 0
vn 0 -1 0
vn 0 -1 0
vn 0 -1 0
vn 0 -1 0
vn 0 -1 0
vn 0 -1 0
vn 0 -1 0
vn 0 -1 0
vn 0 -1 0
vn 0 -1 0
vn 0 -1 0
vn 0 -1 0
vn 0 -1 0
vn 0 -1 0
vn 0 -1 0
vn 0 1 0
vn 0 1 0
vn 0 1 0
vn 0 1 0
vn 0 1 0
vn 0 1 0
vn 0 1 0
vn 0 1 0
vn 0 1 0
vn 0 1 0
vn 0 1 0
vn 0 1 0
vn 0 1 0
vn 0 1 0
vn 0 1 0
vn 0 1 0
vn 0 1 0
vn 0 1 0
vn 0 1 0
vn 0 1 0
vn 0 1 0
vn 0 1 0
vn 0 1 0
vn 0 1 0
vn 0 1 0
vn 0 1 0
vn 0 1 0
vn 0 1 0
vn 0 1 0
vn 0 1 0
vn 0 1 0
vn 0 1 0
vn 0 1 0
vn 0 1 0
vn 0 1 0
vn 0 1 0
vn 0 1 0
vn 0 1 0
vn 0 1 0
vn 0 1 0
vn 0 1 0
vn 0 1 0
vn 0 1 0
vn 0 1 0
vn 0 1 0
vn 0 1 0
vn 0 1 0
vn 0 1 0
vn 0 1 0
vn 0 1 0
vn 0 0 1
vn 0 0 1
vn 0 0 1
vn 0 0 1
vn 0 0 1
vn 0 0 1
vn 0 0 1
vn 0 0 1
vn 0 0 1
vn 0 0 1
vn 0 0 1
vn 0 0 1
vn 0 0 1
vn 0 0 1
vn 0 0 1
vn 0 0 1
vn 0 0 1
vn 0 0 1
vn 0 0 1
vn 0 0 1
vn 0 0 1
vn 0 0 1
vn 0 0 1
vn 0 0 1
vn 0 0 1
vn 0 0 1
vn 0 0 1
vn 0 0 1
vn 0 0 1
vn 0 0 1
vn 0 0 1
vn 0 0 1
vn 0 0 -1
vn 0 0 -1
vn 0 0 -1
vn 0 0 -1
vn 0 0 -1
vn 0 0 -1
vn 0 0 -1
vn 0 0 -1
vn 0 0 -1
vn 0 0 -1
vn 0 0 -1
vn 0 0 -1
vn 0 0 -1
vn 0 0 -1
vn 0 0 -1
vn 0 0 -1
vn 0 0 -1
vn 0 0 -1
vn 0 0 -1
vn 0 0 -1
vn 0 0 -1
vn 0 0 -1
vn 0 0 -1
vn 0 0 -1
vn 0 0 -1
vn 0 0 -1
vn 0 0 -1
vn 0 0 -1
vn 0 0 -1
vn 0 0 -1
vn 0 0 -1
vn 0 0 -1
vn 0 0 -1
vn 0 0 -1
vn 0 0 -1
vn 0 0 -1
vn 0 0 -1
vn 0 0 -1
vn 0 0 -1
vn 0 0 -1
vn 0 0 -1
vn 0 0 -1
vn 0 0 -1
vn 0 0 -1
vn 0 0 -1
vn 0 0 -1
vn 0 0 -1
vn 0 0 -1
vn 0 0 -1
vn 0 0 -1
vn 0 0 -1
vn 0 0 -1
vt 0.8334512 0.333569
vt 0.9166077 0.333569
vt 0.9166077 0.6661953
vt 0.9165508 0.3450433
vt 0.8333912 0.6662113
vt 0.7499575 0.3338322
vt 0.6667644 0.6664172
vt 0.7575205 0.6664172
vt 0.3334512 0.333569
vt 0.4166077 0.333569
vt 0.4166077 0.6661953
vt 0.7575205 0.3335828
vt 0.6667644 0.3335828
vt 0.7499575 0.6661678
vt 0.3334512 0.666431
vt 0.4166077 0.3338047
vt 0.4166077 0.666431
vt 0.8333867 0.3337174
vt 0.91656 0.5998719
vt 0.8333867 0.6664106
vt 0.9166077 0.3338047
vt 0.9166077 0.666431
vt 0.3334512 0.333569
vt 0.4166077 0.333569
vt 0.4166077 0.6661953
vt 0.39575 0.5
vt 0.4164583 0.6656666
vt 0.4165626 0.4167708
vt 0.3333854 0.6663023
vt 0.3334512 0.333569
vt 0.4166077 0.333569
vt 0.3999619 0.3336298
vt 0.4165905 0.3890583
vt 0.4027354 0.3336382
vt 0.4165926 0.4001524
vt 0.4047142 0.3336673
vt 0.4165903 0.4168003
vt 0.4061967 0.3337121
vt 0.4165868 0.4445391
vt 0.4073491 0.3337833
vt 0.4165833 0.5
vt 0.4082885 0.3337818
vt 0.416605 0.6664425
vt 0.3334512 0.333569
vt 0.4166077 0.333569
vt 0.3334512 0.333569
vt 0.4166077 0.333569
vt 0.4166077 0.6661953
vt 0.3334512 0.333569
vt 0.4166077 0.333569
vt 0.4166077 0.6661953
vt 0.3334512 0.333569
vt 0.4166077 0.333569
vt 0.4166077 0.6661953
vt 0.3334512 0.333569
vt 0.4166077 0.333569
vt 0.4166077 0.6661953
vt 0.3334512 0.333569
vt 0.4166077 0.333569
vt 0.4166077 0.6661953
vt 0.8334512 0.333569
vt 0.9166077 0.333569
vt 0.9166077 0.6661953
vt 0.8333923 0.666431
vt 0.9166077 0.6661953
vt 0.9166077 0.333569
vt 0.8334512 0.333569
vt 0.8333923 0.666431
vt 0.4166077 0.6661953
vt 0.4166077 0.333569
vt 0.3334512 0.333569
vt 0.4164583 0.6656666
vt 0.39575 0.5
vt 0.3333854 0.6663023
vt 0.4165626 0.4167708
vt 0.4166077 0.333569
vt 0.3334512 0.333569
vt 0.4165905 0.3890583
vt 0.3999619 0.3336298
vt 0.4165926 0.4001524
vt 0.4027354 0.3336382
vt 0.4165903 0.4168003
vt 0.4047142 0.3336673
vt 0.4165868 0.4445391
vt 0.4061967 0.3337121
vt 0.4165833 0.5
vt 0.4073491 0.3337833
vt 0.416605 0.6664425
vt 0.4082885 0.3337818
vt 0.4166077 0.333569
vt 0.3334512 0.333569
vt 0.4166077 0.6661953
vt 0.4166077 0.333569
vt 0.3334512 0.333569
vt 0.4166077 0.6661953
vt 0.4166077 0.333569
vt 0.3334512 0.333569
vt 0.4166077 0.6661953
vt 0.4166077 0.333569
vt 0.3334512 0.333569
vt 0.4166077 0.6661953
vt 0.4166077 0.333569
vt 0.3334512 0.333569
vt 0.4166077 0.6661953
vt 0.4166077 0.333569
vt 0.3334512 0.333569
vt 0.7499575 0.6661678
vt 0.6667644 0.3335828
vt 0.7575205 0.3335828
vt 0.4166077 0.666431
vt 0.4166077 0.3338047
vt 0.3334512 0.666431
vt 0.8333867 0.6664106
vt 0.91656 0.5998719
vt 0.8333867 0.3337174
vt 0.9166077 0.666431
vt 0.9166077 0.3338047
vt 0.9166077 0.6661953
vt 0.9166077 0.333569
vt 0.8334512 0.333569
vt 0.8333912 0.6662113
vt 0.9165508 0.3450433
vt 0.7575205 0.6664172
vt 0.6667644 0.6664172
vt 0.7499575 0.3338322
vt 0.4166077 0.6661953
vt 0.4166077 0.333569
vt 0.3334512 0.333569
vt 0.3333923 0.333569
vt 0.3333923 0.6661953
vt 0.4165488 0.333569
vt 0.4916949 0.333647
vt 0.4167584 0.6665099
vt 0.6665467 0.6665099
vt 0.5916519 0.3336614
vt 0.4166077 0.6661953
vt 0.4166077 0.333569
vt 0.3334512 0.333569
vt 0.4917154 0.6663961
vt 0.5915693 0.6663961
vt 0.4917154 0.3338743
vt 0.591618 0.3336039
vt 0.8333923 0.333569
vt 0.8333923 0.6661953
vt 0.9165488 0.333569
vt 0.9145788 0.333799
vt 0.916607 0.6664338
vt 0.8333941 0.6563374
vt 0.8333941 0.3338119
vt 0.9166086 0.3335724
vt 0.8334495 0.3433559
vt 0.899968 0.6662399
vt 0.8334293 0.3335467
vt 0.8333923 0.666431
vt 0.9165488 0.666431
vt 0.850032 0.6662399
vt 0.9165707 0.3335467
vt 0.8333973 0.3335467
vt 0.9166077 0.666431
vt 0.8334512 0.666431
vt 0.8333914 0.666209
vt 0.9165505 0.3433559
vt 0.9166059 0.6563374
vt 0.9166059 0.3338119
vt 0.9165516 0.6664338
vt 0.8354212 0.333799
vt 0.9166077 0.333569
vt 0.8334512 0.333569
vt 0.08345118 0.333569
vt 0.1666077 0.333569
vt 0.1666077 0.6661953
vt 0.08339226 0.666431
vt 0.9165488 0.333569
vt 0.8333923 0.6661953
vt 0.8333923 0.333569
vt 0.9166045 0.6664449
vt 0.9064621 0.3337769
vt 0.9166119 0.3337392
vt 0.8334429 0.6174924
vt 0.8333923 0.6661953
vt 0.8333923 0.333569
vt 0.8334512 0.333569
vt 0.9166077 0.333569
vt 0.9166077 0.6661953
vt 0.9165571 0.6174924
vt 0.8333881 0.6664154
vt 0.8435379 0.3337769
vt 0.9165626 0.6664449
vt 0.8334512 0.333569
vt 0.9166077 0.333569
vt 0.08345118 0.333569
vt 0.1666077 0.333569
vt 0.1666077 0.6661953
vt 0.08339226 0.666431
vt 0.08345118 0.333569
vt 0.1666077 0.333569
vt 0.1666077 0.6661953
vt 0.08339226 0.666431
vt 0.08345118 0.333569
vt 0.1666077 0.333569
vt 0.1666077 0.6661953
vt 0.08339226 0.666431
vt 0.08345118 0.333569
vt 0.1666077 0.333569
vt 0.1666077 0.6661953
vt 0.08339226 0.666431
vt 0.08345118 0.333569
vt 0.1666077 0.333569
vt 0.1666077 0.6661953
vt 0.08339226 0.666431
vt 0.08345118 0.333569
vt 0.1666077 0.333569
vt 0.1666077 0.6661953
vt 0.08339226 0.666431
vt 0.08345118 0.333569
vt 0.1666077 0.333569
vt 0.1666077 0.6661953
vt 0.08339226 0.666431
vt 0.8334512 0.333569
vt 0.9166077 0.333569
vt 0.9166077 0.6661953
vt 0.8333923 0.666431
vt 0.8334512 0.333569
vt 0.9166077 0.333569
vt 0.9166077 0.6661953
vt 0.8333923 0.666431
vt 0.4917179 0.3335962
vt 0.591576 0.3335962
vt 0.5000394 0.666141
vt 0.1667755 0.6663904
vt 0.2582712 0.3338859
vt 0.2499534 0.6663904
vt 0.3333848 0.333689
vt 0.4165637 0.575664
vt 0.3333848 0.6664045
vt 0.4166077 0.3338047
vt 0.4166077 0.666431
vt 0.3334363 0.575664
vt 0.4166152 0.333689
vt 0.4166152 0.6664045
vt 0.3333923 0.3338047
vt 0.3333923 0.666431
vt 0.6667194 0.6661507
vt 0.6667194 0.3335913
vt 0.7574702 0.3335913
vt 0.757523 0.6664087
vt 0.6667194 0.6661507
vt 0.6667194 0.3335913
vt 0.7574702 0.3335913
vt 0.757523 0.6664087
vt 0.9166077 0.6661953
vt 0.9166077 0.333569
vt 0.8334512 0.333569
vt 0.8333923 0.666431
vt 0.9166077 0.6661953
vt 0.9166077 0.333569
vt 0.8334512 0.333569
vt 0.8333923 0.666431
vt 0.1666077 0.6661953
vt 0.1666077 0.333569
vt 0.08345118 0.333569
vt 0.08339226 0.666431
vt 0.500024 0.6663474
vt 0.6665469 0.333493
vt 0.4167624 0.333493
vt 0.25 0.6663333
vt 0.3331458 0.334
vt 0.1668542 0.6663333
vt 0.3333896 0.6662366
vt 0.416554 0.3638206
vt 0.3333896 0.3335791
vt 0.4166077 0.666431
vt 0.4166077 0.3338047
vt 0.4166104 0.6662366
vt 0.4166104 0.3335791
vt 0.333446 0.3638206
vt 0.3333923 0.666431
vt 0.3333923 0.3338047
vt 0.1666077 0.6661953
vt 0.1666077 0.333569
vt 0.08345118 0.333569
vt 0.08339226 0.666431
vt 0.1666077 0.6661953
vt 0.1666077 0.333569
vt 0.08345118 0.333569
vt 0.08339226 0.666431
vt 0.1666077 0.6661953
vt 0.1666077 0.333569
vt 0.08345118 0.333569
vt 0.08339226 0.666431
vt 0.1666077 0.6661953
vt 0.1666077 0.333569
vt 0.08345118 0.333569
vt 0.08339226 0.666431
vt 0.1666077 0.6661953
vt 0.1666077 0.333569
vt 0.08345118 0.333569
vt 0.08339226 0.666431
vt 0.1666077 0.6661953
vt 0.1666077 0.333569
vt 0.08345118 0.333569
vt 0.08339226 0.666431
usemtl EGA_Plaza_05_texture0
f 3/3/3 2/2/2 1/1/1
f 5/5/5 4/4/4 1/1/1
f 8/8/8 7/7/7 6/6/6
f 11/11/11 10/10/10 9/9/9
f 14/14/14 13/13/13 12/12/12
f 17/17/17 16/16/16 15/15/15
f 20/20/20 19/19/19 18/18/18
f 22/22/22 21/21/21 20/20/20
f 25/25/25 24/24/24 23/23/23
f 23/23/23 27/27/27 26/26/26
f 23/23/23 29/29/29 28/28/28
f 27/27/27 31/31/31 30/30/30
f 29/29/29 33/33/33 32/32/32
f 29/29/29 35/35/35 34/34/34
f 29/29/29 37/37/37 36/36/36
f 29/29/29 39/39/39 38/38/38
f 29/29/29 41/41/41 40/40/40
f 29/29/29 43/43/43 42/42/42
f 43/43/43 45/45/45 44/44/44
f 48/48/48 47/47/47 46/46/46
f 51/51/51 50/50/50 49/49/49
f 54/54/54 53/53/53 52/52/52
f 57/57/57 56/56/56 55/55/55
f 60/60/60 59/59/59 58/58/58
f 63/63/63 62/62/62 61/61/61
f 64/64/64 63/63/63 61/61/61
f 67/67/67 66/66/66 65/65/65
f 67/67/67 65/65/65 68/68/68
f 71/71/71 70/70/70 69/69/69
f 73/73/73 72/72/72 71/71/71
f 75/75/75 74/74/74 71/71/71
f 77/77/77 76/76/76 72/72/72
f 79/79/79 78/78/78 74/74/74
f 81/81/81 80/80/80 74/74/74
f 83/83/83 82/82/82 74/74/74
f 85/85/85 84/84/84 74/74/74
f 87/87/87 86/86/86 74/74/74
f 89/89/89 88/88/88 74/74/74
f 91/91/91 90/90/90 88/88/88
f 94/94/94 93/93/93 92/92/92
f 97/97/97 96/96/96 95/95/95
f 100/100/100 99/99/99 98/98/98
f 103/103/103 102/102/102 101/101/101
f 106/106/106 105/105/105 104/104/104
f 109/109/109 108/108/108 107/107/107
f 112/112/112 111/111/111 110/110/110
f 115/115/115 114/114/114 113/113/113
f 113/113/113 117/117/117 116/116/116
f 120/120/120 119/119/119 118/118/118
f 120/120/120 122/122/122 121/121/121
f 125/125/125 124/124/124 123/123/123
f 128/128/128 127/127/127 126/126/126
f 131/131/131 130/130/130 129/129/129
f 134/134/134 133/133/133 132/132/132
f 135/135/135 134/134/134 132/132/132
f 138/138/138 137/137/137 136/136/136
f 141/141/141 140/140/140 139/139/139
f 141/141/141 142/142/142 140/140/140
f 145/145/145 144/144/144 143/143/143
f 147/147/147 144/144/144 146/146/146
f 149/149/149 147/147/147 148/148/148
f 151/151/151 150/150/150 147/147/147
f 153/153/153 150/150/150 152/152/152
f 153/153/153 155/155/155 154/154/154
f 158/158/158 157/157/157 156/156/156
f 160/160/160 157/157/157 159/159/159
f 158/158/158 162/162/162 161/161/161
f 161/161/161 164/164/164 163/163/163
f 166/166/166 165/165/165 161/161/161
f 168/168/168 167/167/167 165/165/165
f 171/171/171 170/170/170 169/169/169
f 172/172/172 171/171/171 169/169/169
f 175/175/175 174/174/174 173/173/173
f 177/177/177 174/174/174 176/176/176
f 179/179/179 176/176/176 178/178/178
f 181/181/181 180/180/180 178/178/178
f 184/184/184 183/183/183 182/182/182
f 186/186/186 185/185/185 182/182/182
f 186/186/186 188/188/188 187/187/187
f 188/188/188 190/190/190 189/189/189
f 193/193/193 192/192/192 191/191/191
f 194/194/194 193/193/193 191/191/191
f 197/197/197 196/196/196 195/195/195
f 198/198/198 197/197/197 195/195/195
f 201/201/201 200/200/200 199/199/199
f 202/202/202 201/201/201 199/199/199
f 205/205/205 204/204/204 203/203/203
f 206/206/206 205/205/205 203/203/203
f 209/209/209 208/208/208 207/207/207
f 210/210/210 209/209/209 207/207/207
f 213/213/213 212/212/212 211/211/211
f 214/214/214 213/213/213 211/211/211
f 217/217/217 216/216/216 215/215/215
f 218/218/218 217/217/217 215/215/215
f 221/221/221 220/220/220 219/219/219
f 222/222/222 221/221/221 219/219/219
f 225/225/225 224/224/224 223/223/223
f 226/226/226 225/225/225 223/223/223
f 229/229/229 228/228/228 227/227/227
f 232/232/232 231/231/231 230/230/230
f 235/235/235 234/234/234 233/233/233
f 237/237/237 236/236/236 235/235/235
f 240/240/240 239/239/239 238/238/238
f 242/242/242 240/240/240 241/241/241
f 245/245/245 244/244/244 243/243/243
f 246/246/246 245/245/245 243/243/243
f 249/249/249 248/248/248 247/247/247
f 250/250/250 249/249/249 247/247/247
f 253/253/253 252/252/252 251/251/251
f 253/253/253 251/251/251 254/254/254
f 257/257/257 256/256/256 255/255/255
f 257/257/257 255/255/255 258/258/258
f 261/261/261 260/260/260 259/259/259
f 261/261/261 259/259/259 262/262/262
f 265/265/265 264/264/264 263/263/263
f 268/268/268 267/267/267 266/266/266
f 271/271/271 270/270/270 269/269/269
f 269/269/269 273/273/273 272/272/272
f 276/276/276 275/275/275 274/274/274
f 278/278/278 274/274/274 277/277/277
f 281/281/281 280/280/280 279/279/279
f 281/281/281 279/279/279 282/282/282
f 285/285/285 284/284/284 283/283/283
f 285/285/285 283/283/283 286/286/286
f 289/289/289 288/288/288 287/287/287
f 289/289/289 287/287/287 290/290/290
f 293/293/293 292/292/292 291/291/291
f 293/293/293 291/291/291 294/294/294
f 297/297/297 296/296/296 295/295/295
f 297/297/297 295/295/295 298/298/298
f 301/301/301 300/300/300 299/299/299
f 301/301/301 299/299/299 302/302/302
