mtllib EGA_Parking_13.mtl
g default
v -3.9 0.1 10.1
v -3.9 -0.1 10.1
v -3.9 -0.1 -9.900001
v -3.9 0.1 -9.900001
v 3.9 -0.1 -9.900001
v 3.9 -0.1 10.1
v 3.9 0.1 10.1
v 3.9 0.1 -9.900001
v -3.9 -0.1 -9.900001
v -3.9 -0.1 10.1
v 3.9 -0.1 10.1
v 3.9 -0.1 -9.900001
v -3.9 -0.1 -9.900001
v 3.9 -0.1 10.1
v 3.9 0.1 10.1
v -3.9 0.1 10.1
v -3.9 0.1 -9.900001
v 3.9 0.1 10.1
v -3.9 0.1 -9.900001
v 3.9 0.1 -9.900001
v 3.9 -0.1 10.1
v -3.9 -0.1 10.1
v -3.9 0.1 10.1
v 3.9 0.1 10.1
v -3.9 0.1 -9.900001
v -3.9 -0.1 -9.900001
v 3.9 -0.1 -9.900001
v 3.9 0.1 -9.900001
vn -1 0 0
vn -1 0 0
vn -1 0 0
vn -1 0 0
vn 1 0 0
vn 1 0 0
vn 1 0 0
vn 1 0 0
vn 0 -1 0
vn 0 -1 0
vn 0 -1 0
vn 0 -1 0
vn 0 -1 0
vn 0 -1 0
vn 0 1 0
vn 0 1 0
vn 0 1 0
vn 0 1 0
vn 0 1 0
vn 0 1 0
vn 0 0 1
vn 0 0 1
vn 0 0 1
vn 0 0 1
vn 0 0 -1
vn 0 0 -1
vn 0 0 -1
vn 0 0 -1
vt 0.06980033 0.02830856
vt 0.09300681 0.02830856
vt 0.09300681 0.03772251
vt 0.06978389 0.03772918
vt 0.09300681 0.03772251
vt 0.09300681 0.02830856
vt 0.06980033 0.02830856
vt 0.06978389 0.03772918
vt 0.976728 0.9528167
vt 0.976728 0.009440733
vt 0.06979983 0.009440733
vt 0.02327201 0.9905593
vt 0.9302002 0.9905593
vt 0.02327201 0.04718335
vt 0.06979983 0.009440733
vt 0.976728 0.009440733
vt 0.976728 0.9528167
vt 0.02327201 0.04718335
vt 0.9302002 0.9905593
vt 0.02327201 0.9905593
vt 0.06980033 0.02830856
vt 0.09300681 0.02830856
vt 0.09300681 0.03772251
vt 0.06978389 0.03772918
vt 0.09300681 0.03772251
vt 0.09300681 0.02830856
vt 0.06980033 0.02830856
vt 0.06978389 0.03772918
usemtl EGA_Parking_13_texture0
f 3/3/3 2/2/2 1/1/1
f 4/4/4 3/3/3 1/1/1
f 7/7/7 6/6/6 5/5/5
f 7/7/7 5/5/5 8/8/8
f 11/11/11 10/10/10 9/9/9
f 14/14/14 13/13/13 12/12/12
f 17/17/17 16/16/16 15/15/15
f 20/20/20 19/19/19 18/18/18
f 23/23/23 22/22/22 21/21/21
f 24/24/24 23/23/23 21/21/21
f 27/27/27 26/26/26 25/25/25
f 27/27/27 25/25/25 28/28/28
