mtllib EGA_Streetlight_14.mtl
g default
v -1.3 8.7 0.3
v -1.3 8.825117 0.2055326
v -1.3 8.825117 -0.1944674
v -1.3 8.7 -0.1
v -1.398376 9.1 0.4055326
v -1.398376 8.7 0.4055326
v -1.398376 8.7 -0.2044566
v -1.398376 9.1 -0.2044566
v 0.3 8.7 0.3
v 0.3 0.3 0.3
v 0.3 0.3 -0.1
v 0.3 8.7 -0.1
v 0.09999999 -0.01685649 0.5
v 0.1 -0.1 0.5
v 0.1 -0.1 -0.3
v 0.09999999 -0.01685649 -0.3
v -0.1897226 8.7 0.3
v -0.1897227 8.7 0.4055326
v -0.1897227 9.1 0.4055326
v -0.1897226 9.1 0.3
v -0.1897227 8.7 -0.2044566
v -0.1897226 8.7 -0.09999999
v -0.1897226 9.1 -0.09999999
v -0.1897227 9.1 -0.2044566
v -0.3 8.825117 -0.1944674
v -0.3 8.825117 0.2055326
v -0.3 8.7 0.3
v -0.3 8.7 -0.1
v 0.9 -0.1 -0.3
v 0.9 -0.1 0.5
v 0.9 -0.01685649 0.5
v 0.9 -0.01685649 -0.3
v 0.7 0.3 -0.1
v 0.7 0.3 0.3
v 0.7 9.1 0.3
v 0.7 9.1 -0.1
v 0.1 -0.1 -0.3
v 0.1 -0.1 0.5
v 0.9 -0.1 0.5
v 0.9 -0.1 -0.3
v -0.1897226 8.7 -0.09999999
v -0.1897226 8.7 0.3
v 0.3 8.7 0.3
v 0.3 8.7 -0.1
v -0.1897226 8.7 -0.09999999
v -0.3 8.7 -0.1
v -0.1897226 8.7 0.3
v -0.3 8.7 0.3
v -0.1897226 8.7 -0.09999999
v -0.1897227 8.7 -0.2044566
v -0.3 8.7 -0.1
v -0.3 8.7 -0.1
v -1.398376 8.7 -0.2044566
v -0.3 8.7 -0.1
v -1.3 8.7 -0.1
v -1.3 8.7 -0.1
v -1.3 8.7 0.3
v -1.398376 8.7 0.4055326
v -1.3 8.7 0.3
v -0.3 8.7 0.3
v -0.1897227 8.7 0.4055326
v -0.1897226 8.7 0.3
v -0.3 8.7 0.3
v -1.3 8.7 0.3
v -0.3 8.7 0.3
v -1.3 8.825117 -0.1944674
v -1.3 8.825117 0.2055326
v -0.3 8.825117 0.2055326
v -0.3 8.825117 -0.1944674
v 0.7 9.1 0.3
v -0.1897226 9.1 0.3
v -0.1897226 9.1 -0.09999999
v 0.7 9.1 -0.1
v -0.1897226 9.1 0.3
v -1.398376 9.1 -0.2044566
v -0.1897226 9.1 -0.09999999
v -0.1897226 9.1 -0.09999999
v -0.1897227 9.1 -0.2044566
v -1.398376 9.1 0.4055326
v -0.1897226 9.1 0.3
v -0.1897226 9.1 0.3
v -0.1897227 9.1 0.4055326
v 0.9 -0.01685649 0.5
v 0.09999999 -0.01685649 0.5
v 0.7 0.3 0.3
v 0.7 0.3 0.3
v 0.3 0.3 0.3
v 0.9 -0.01685649 0.5
v 0.7 0.3 0.3
v 0.9 -0.01685649 -0.3
v 0.3 0.3 0.3
v 0.09999999 -0.01685649 0.5
v 0.09999999 -0.01685649 -0.3
v 0.7 0.3 -0.1
v 0.09999999 -0.01685649 -0.3
v 0.9 -0.01685649 -0.3
v 0.7 0.3 0.3
v 0.7 0.3 -0.1
v 0.3 0.3 0.3
v 0.3 0.3 -0.1
v 0.3 0.3 -0.1
v 0.7 0.3 -0.1
v 0.7 0.3 0.3
v 0.3 0.3 0.3
v 0.3 8.7 0.3
v 0.3 8.7 0.3
v 0.7 9.1 0.3
v 0.3 8.7 0.3
v -0.1897226 9.1 0.3
v 0.3 8.7 0.3
v -0.1897226 8.7 0.3
v -0.3 8.825117 0.2055326
v -1.3 8.825117 0.2055326
v -1.3 8.7 0.3
v -0.3 8.7 0.3
v 0.9 -0.1 0.5
v 0.1 -0.1 0.5
v 0.09999999 -0.01685649 0.5
v 0.9 -0.01685649 0.5
v -0.1897227 8.7 0.4055326
v -1.398376 8.7 0.4055326
v -1.398376 9.1 0.4055326
v -0.1897227 9.1 0.4055326
v 0.3 8.7 -0.1
v 0.3 0.3 -0.1
v 0.7 0.3 -0.1
v 0.7 9.1 -0.1
v 0.3 8.7 -0.1
v -0.1897226 9.1 -0.09999999
v 0.3 8.7 -0.1
v -0.1897226 8.7 -0.09999999
v 0.3 8.7 -0.1
v -1.3 8.7 -0.1
v -1.3 8.825117 -0.1944674
v -0.3 8.825117 -0.1944674
v -0.3 8.7 -0.1
v 0.09999999 -0.01685649 -0.3
v 0.1 -0.1 -0.3
v 0.9 -0.1 -0.3
v 0.9 -0.01685649 -0.3
v -1.398376 9.1 -0.2044566
v -1.398376 8.7 -0.2044566
v -0.1897227 8.7 -0.2044566
v -0.1897227 9.1 -0.2044566
vn 1 0 0
vn 1 0 0
vn 1 0 0
vn 1 0 0
vn -1 0 0
vn -1 0 0
vn -1 0 0
vn -1 0 0
vn -0.9999999 0 0
vn -0.9999999 0 0
vn -0.9999999 0 0
vn -0.9999999 0 0
vn -1 -8.961108E-08 0
vn -1 -8.961108E-08 0
vn -1 -8.961108E-08 0
vn -1 -8.961108E-08 0
vn 1 0 1.411996E-07
vn 1 0 1.411996E-07
vn 1 0 1.411996E-07
vn 1 0 1.411996E-07
vn 1 0 -1.42654E-07
vn 1 0 -1.42654E-07
vn 1 0 -1.42654E-07
vn 1 0 -1.42654E-07
vn -1 0 0
vn -1 0 0
vn -1 0 0
vn -1 0 0
vn 1 0 0
vn 1 0 0
vn 1 0 0
vn 1 0 0
vn 0.9999999 0 0
vn 0.9999999 0 0
vn 0.9999999 0 0
vn 0.9999999 0 0
vn 0 -1 0
vn 0 -1 0
vn 0 -1 0
vn 0 -1 0
vn 0 -1 0
vn 0 -1 0
vn 0 -1 0
vn 0 -1 0
vn 0 -1 0
vn 0 -1 0
vn 0 -1 0
vn 0 -1 0
vn 0 -1 0
vn 0 -1 0
vn 0 -1 0
vn 0 -1 0
vn 0 -1 0
vn 0 -1 0
vn 0 -1 0
vn 0 -1 0
vn 0 -1 0
vn 0 -1 0
vn 0 -1 0
vn 0 -1 0
vn 0 -1 0
vn 0 -1 0
vn 0 -1 0
vn 0 -1 0
vn 0 -1 0
vn 0 -1 0
vn 0 -1 0
vn 0 -1 0
vn 0 -1 0
vn 0 1 0
vn 0 1 0
vn 0 1 0
vn 0 1 0
vn 0 1 0
vn 0 1 0
vn 0 1 0
vn 0 1 0
vn 0 1 0
vn 0 1 0
vn 0 1 0
vn 0 1 0
vn 0 1 0
vn 0 0.5337642 0.8456334
vn 0 0.5337642 0.8456333
vn 0 0.5337642 0.8456334
vn 0 0.5337642 0.8456333
vn 0 0.5337642 0.8456333
vn 0.8456333 0.5337643 0
vn 0.8456333 0.5337643 0
vn 0.8456333 0.5337643 0
vn -0.8456333 0.5337642 0
vn -0.8456333 0.5337642 0
vn -0.8456333 0.5337642 0
vn 0 0.5337643 -0.8456334
vn 0 0.5337642 -0.8456333
vn 0 0.5337643 -0.8456334
vn 0.8456333 0.5337643 0
vn 0.8456333 0.5337643 0
vn -0.8456333 0.5337642 0
vn -0.8456333 0.5337642 0
vn 0 0.5337644 -0.8456333
vn 0 0.5337644 -0.8456333
vn 0 0 1
vn 0 0 1
vn 0 0 1
vn 0 0 1
vn 0 0 1
vn 0 0 1
vn 0 0 1
vn 0 0 1
vn 0 0 1
vn 0 -0.6025664 -0.7980688
vn 0 -0.6025664 -0.7980688
vn 0 -0.6025664 -0.7980688
vn 0 -0.6025664 -0.7980688
vn 0 0 1
vn 0 0 1
vn 0 0 1
vn 0 0 1
vn 0 0 1
vn 0 0 1
vn 0 0 1
vn 0 0 1
vn 0 0 -1
vn 0 0 -1
vn 0 0 -1
vn -7.689168E-10 7.689157E-10 -1
vn 0 0 -1
vn -1.080229E-08 5.401135E-09 -1
vn -8.374049E-09 8.374037E-09 -1
vn -1.521388E-08 0 -1
vn -1.521388E-08 0 -1
vn 0 0.6025664 0.7980688
vn 0 0.6025664 0.7980688
vn 0 0.6025664 0.7980688
vn 0 0.6025664 0.7980688
vn 0 0 -1
vn 0 0 -1
vn 0 0 -1
vn 0 0 -1
vn 0 0 -1
vn 0 0 -1
vn 0 0 -1
vn 0 0 -1
vt 0.1669024 0.333569
vt 0.3332155 0.333569
vt 0.3332155 0.6661953
vt 0.1667845 0.666431
vt 0.6669024 0.333569
vt 0.8332155 0.333569
vt 0.8332155 0.6661953
vt 0.6667845 0.666431
vt 0.6669024 0.333569
vt 0.8332155 0.333569
vt 0.8332155 0.6661953
vt 0.6667845 0.666431
vt 0.6669024 0.333569
vt 0.8332155 0.333569
vt 0.8332155 0.6661953
vt 0.6667845 0.666431
vt 0.8332155 0.6661953
vt 0.8332155 0.333569
vt 0.6669024 0.333569
vt 0.6667845 0.666431
vt 0.8332155 0.6661953
vt 0.8332155 0.333569
vt 0.6669024 0.333569
vt 0.6667845 0.666431
vt 0.3332155 0.6661953
vt 0.3332155 0.333569
vt 0.1669024 0.333569
vt 0.1667845 0.666431
vt 0.8332155 0.6661953
vt 0.8332155 0.333569
vt 0.6669024 0.333569
vt 0.6667845 0.666431
vt 0.8332155 0.6661953
vt 0.8332155 0.333569
vt 0.6669024 0.333569
vt 0.6667845 0.666431
vt 0.8332155 0.6661953
vt 0.8332155 0.333569
vt 0.6669024 0.333569
vt 0.6667845 0.666431
vt 0.8332155 0.6661953
vt 0.8332155 0.333569
vt 0.6669024 0.333569
vt 0.6667845 0.666431
vt 0.6667845 0.666431
vt 0.8330976 0.666431
vt 0.6667845 0.3338047
vt 0.8332155 0.333569
vt 0.6667845 0.333569
vt 0.6667845 0.6661953
vt 0.8330976 0.333569
vt 0.6905546 0.3337723
vt 0.8331295 0.6664472
vt 0.6669209 0.3336107
vt 0.8054631 0.3336107
vt 0.6668248 0.5554501
vt 0.6668248 0.3338604
vt 0.8331295 0.3335528
vt 0.6668749 0.4167708
vt 0.6905546 0.6662276
vt 0.6667845 0.3338047
vt 0.6667845 0.666431
vt 0.8330976 0.666431
vt 0.8054631 0.6663893
vt 0.6669209 0.6663893
vt 0.3332155 0.6661953
vt 0.3332155 0.333569
vt 0.1669024 0.333569
vt 0.1667845 0.666431
vt 0.6669024 0.333569
vt 0.8332155 0.333569
vt 0.8332155 0.6661953
vt 0.6667845 0.666431
vt 0.6668248 0.3338604
vt 0.8330171 0.666245
vt 0.6668248 0.5554501
vt 0.6667845 0.3338047
vt 0.6667845 0.666431
vt 0.8332292 0.3335936
vt 0.6668749 0.4167708
vt 0.6667845 0.6661953
vt 0.6667845 0.333569
vt 0.6667968 0.3335416
vt 0.8331511 0.3335416
vt 0.7083854 0.6662502
vt 0.6669302 0.6663504
vt 0.7777251 0.6663504
vt 0.6667968 0.3335416
vt 0.8331251 0.4167708
vt 0.6667708 0.6663023
vt 0.6668749 0.4167708
vt 0.8331511 0.3335416
vt 0.8332292 0.6663023
vt 0.7083854 0.3337498
vt 0.8332292 0.6663023
vt 0.6667708 0.6663023
vt 0.8331752 0.3338604
vt 0.8331752 0.5554501
vt 0.6668248 0.3338604
vt 0.6668248 0.5554501
vt 0.7777251 0.3336496
vt 0.6669302 0.3336496
vt 0.6669024 0.333569
vt 0.8332155 0.333569
vt 0.8332155 0.6661953
vt 0.8331029 0.6513057
vt 0.6667818 0.6664258
vt 0.75 0.3337031
vt 0.8331947 0.6664818
vt 0.6669024 0.333569
vt 0.8332155 0.333569
vt 0.1669024 0.333569
vt 0.3332155 0.333569
vt 0.3332155 0.6661953
vt 0.1667845 0.666431
vt 0.6669024 0.333569
vt 0.8332155 0.333569
vt 0.8332155 0.6661953
vt 0.6667845 0.666431
vt 0.6669024 0.333569
vt 0.8332155 0.333569
vt 0.8332155 0.6661953
vt 0.6667845 0.666431
vt 0.8332155 0.6661953
vt 0.8332155 0.333569
vt 0.6669024 0.333569
vt 0.6667818 0.6664258
vt 0.8331029 0.6513057
vt 0.8331947 0.6664818
vt 0.75 0.3337031
vt 0.8332155 0.333569
vt 0.6669024 0.333569
vt 0.3332155 0.6661953
vt 0.3332155 0.333569
vt 0.1669024 0.333569
vt 0.1667845 0.666431
vt 0.8332155 0.6661953
vt 0.8332155 0.333569
vt 0.6669024 0.333569
vt 0.6667845 0.666431
vt 0.8332155 0.6661953
vt 0.8332155 0.333569
vt 0.6669024 0.333569
vt 0.6667845 0.666431
usemtl EGA_Streetlight_14_texture0
f 3/3/3 2/2/2 1/1/1
f 4/4/4 3/3/3 1/1/1
f 7/7/7 6/6/6 5/5/5
f 8/8/8 7/7/7 5/5/5
f 11/11/11 10/10/10 9/9/9
f 12/12/12 11/11/11 9/9/9
f 15/15/15 14/14/14 13/13/13
f 16/16/16 15/15/15 13/13/13
f 19/19/19 18/18/18 17/17/17
f 19/19/19 17/17/17 20/20/20
f 23/23/23 22/22/22 21/21/21
f 23/23/23 21/21/21 24/24/24
f 27/27/27 26/26/26 25/25/25
f 27/27/27 25/25/25 28/28/28
f 31/31/31 30/30/30 29/29/29
f 31/31/31 29/29/29 32/32/32
f 35/35/35 34/34/34 33/33/33
f 35/35/35 33/33/33 36/36/36
f 39/39/39 38/38/38 37/37/37
f 39/39/39 37/37/37 40/40/40
f 43/43/43 42/42/42 41/41/41
f 43/43/43 41/41/41 44/44/44
f 47/47/47 46/46/46 45/45/45
f 47/47/47 48/48/48 46/46/46
f 51/51/51 50/50/50 49/49/49
f 53/53/53 50/50/50 52/52/52
f 55/55/55 53/53/53 54/54/54
f 57/57/57 53/53/53 56/56/56
f 59/59/59 58/58/58 53/53/53
f 61/61/61 58/58/58 60/60/60
f 61/61/61 63/63/63 62/62/62
f 65/65/65 58/58/58 64/64/64
f 68/68/68 67/67/67 66/66/66
f 68/68/68 66/66/66 69/69/69
f 72/72/72 71/71/71 70/70/70
f 73/73/73 72/72/72 70/70/70
f 76/76/76 75/75/75 74/74/74
f 78/78/78 75/75/75 77/77/77
f 80/80/80 75/75/75 79/79/79
f 82/82/82 81/81/81 79/79/79
f 85/85/85 84/84/84 83/83/83
f 87/87/87 84/84/84 86/86/86
f 90/90/90 89/89/89 88/88/88
f 93/93/93 92/92/92 91/91/91
f 96/96/96 95/95/95 94/94/94
f 98/98/98 97/97/97 90/90/90
f 100/100/100 93/93/93 99/99/99
f 102/102/102 95/95/95 101/101/101
f 105/105/105 104/104/104 103/103/103
f 107/107/107 106/106/106 103/103/103
f 107/107/107 109/109/109 108/108/108
f 109/109/109 111/111/111 110/110/110
f 114/114/114 113/113/113 112/112/112
f 115/115/115 114/114/114 112/112/112
f 118/118/118 117/117/117 116/116/116
f 119/119/119 118/118/118 116/116/116
f 122/122/122 121/121/121 120/120/120
f 123/123/123 122/122/122 120/120/120
f 126/126/126 125/125/125 124/124/124
f 126/126/126 128/128/128 127/127/127
f 130/130/130 129/129/129 127/127/127
f 132/132/132 131/131/131 129/129/129
f 135/135/135 134/134/134 133/133/133
f 135/135/135 133/133/133 136/136/136
f 139/139/139 138/138/138 137/137/137
f 139/139/139 137/137/137 140/140/140
f 143/143/143 142/142/142 141/141/141
f 143/143/143 141/141/141 144/144/144
