mtllib EGA_Wall_05.mtl
g default
v -4.1 4.3 0.1860867
v -4.1 2.1 0.1860867
v -4.1 2.1 -0.01262187
v -4.1 4.3 -0.01262187
v 2.1 4.9 0.7
v 2.1 -0.1 0.7
v 2.1 2.1 0.5
v 2.1 2.1 0.5
v 2.1 1.9 0.5
v 2.1 2.1 0.5
v 2.1 4.3 0.1860867
v 2.1 1.9 0.5
v 2.1 0.7 0.5
v 2.1 4.3 0.1860867
v 2.1 4.5 0.1860867
v 2.1 0.7 0.5
v 2.1 -0.1 0.5
v 2.1 4.5 0.1860867
v 2.1 4.9 -0.5
v 2.1 4.5 0.1860867
v 2.1 4.5 -0.01262187
v 2.1 2.1 -0.3
v 2.1 4.3 -0.01262187
v 2.1 4.3 -0.01262187
v 2.1 4.5 -0.01262187
v 2.1 2.1 -0.3
v 2.1 -0.1 -0.5
v 2.1 1.9 -0.3
v 2.1 2.1 -0.3
v 2.1 0.7 -0.3
v 2.1 1.9 -0.3
v 2.1 0.7 -0.3
v 2.1 -0.1 -0.3
v 2.1 4.3 0.1860867
v 2.1 2.1 0.5
v 2.1 2.1 -0.3
v 2.1 4.3 0.1860867
v 2.1 4.3 -0.01262187
v 2.1 1.9 0.5
v 2.1 0.7 0.5
v 2.1 0.7 0.3
v 2.1 1.9 0.3
v 2.1 1.9 -0.1
v 2.1 0.7 -0.3
v 2.1 1.9 -0.3
v 2.1 0.7 -0.1
v 1.9 5.3 0.9
v 1.9 4.9 0.9
v 1.9 4.9 -0.7
v 1.9 5.3 -0.7
v -2.027355 4.3 0.1860871
v -2.027355 2.1 0.1860871
v -2.027355 2.1 -0.0126214
v -2.027355 4.3 -0.0126214
v -5.9 4.5 0.1860867
v -5.9 4.3 0.1860867
v -5.9 4.3 -0.01262187
v -5.9 4.5 -0.01262187
v -5.9 2.1 0.5
v -5.9 1.9 0.5
v -5.9 1.9 0.3
v -5.9 1.9 0.3
v -5.9 2.1 -0.3
v -5.9 1.9 0.3
v -5.9 1.9 -0.1
v -5.9 1.9 -0.1
v -5.9 1.9 -0.3
v -5.9 1.9 0.3
v -5.9 0.7 -0.1
v -5.9 1.9 -0.1
v -5.9 0.7 0.3
v -5.9 0.7 0.3
v -5.9 -0.1 -0.3
v -5.9 0.7 -0.1
v -5.9 0.7 -0.1
v -5.9 0.7 -0.3
v -5.9 -0.1 0.5
v -5.9 0.7 0.3
v -5.9 0.7 0.3
v -5.9 0.7 0.5
v 0.0999999 4.3 0.1860867
v 0.0999999 2.1 0.1860867
v 0.0999999 2.1 -0.01262187
v 0.0999999 4.3 -0.01262187
v 3.3 -0.1 -0.5
v 3.3 -0.1 0.7
v 3.3 4.9 0.7
v 3.3 4.9 -0.5
v -3.9 2.1 -0.01262187
v -3.9 2.1 0.1860867
v -3.9 4.3 0.1860867
v -3.9 4.3 -0.01262187
v -1.824802 2.1 -0.0126214
v -1.824802 2.1 0.1860871
v -1.824802 4.3 0.1860871
v -1.824802 4.3 -0.0126214
v 3.5 4.9 -0.7
v 3.5 4.9 0.9
v 3.5 5.3 0.9
v 3.5 5.3 -0.7
v 0.3 2.1 -0.01262187
v 0.3 2.1 0.1860867
v 0.3 4.3 0.1860867
v 0.3 4.3 -0.01262187
v 2.1 -0.1 0.5
v 2.1 -0.1 0.7
v 3.3 -0.1 0.7
v 3.3 -0.1 -0.5
v 2.1 -0.1 0.5
v 2.1 -0.1 -0.3
v 2.1 -0.1 0.5
v 2.1 -0.1 -0.5
v 2.1 -0.1 -0.3
v 2.1 -0.1 -0.3
v -5.9 -0.1 -0.3
v 2.1 -0.1 0.5
v -5.9 -0.1 -0.3
v -5.9 -0.1 0.5
v 2.1 -0.1 0.5
v 3.3 4.9 0.7
v 1.9 4.9 0.9
v 3.5 4.9 0.9
v 2.1 4.9 0.7
v 3.3 4.9 0.7
v 3.5 4.9 -0.7
v 3.3 4.9 0.7
v 1.9 4.9 -0.7
v 2.1 4.9 0.7
v 3.3 4.9 -0.5
v 3.3 4.9 -0.5
v 3.3 4.9 0.7
v 2.1 4.9 -0.5
v 2.1 4.9 0.7
v 3.3 4.9 -0.5
v 2.1 4.9 -0.5
v -5.9 1.9 0.3
v -5.9 1.9 0.5
v 2.1 1.9 0.5
v 2.1 1.9 0.3
v -5.9 1.9 -0.3
v -5.9 1.9 -0.1
v 2.1 1.9 -0.1
v 2.1 1.9 -0.3
v 0.3 4.3 -0.01262187
v 0.3 4.3 0.1860867
v 2.1 4.3 0.1860867
v 2.1 4.3 -0.01262187
v -1.824802 4.3 -0.0126214
v -1.824802 4.3 0.1860871
v 0.0999999 4.3 0.1860867
v 0.0999999 4.3 -0.01262187
v -3.9 4.3 -0.01262187
v -3.9 4.3 0.1860867
v -2.027355 4.3 0.1860871
v -2.027355 4.3 -0.0126214
v -5.9 4.3 -0.01262187
v -5.9 4.3 0.1860867
v -4.1 4.3 0.1860867
v -4.1 4.3 -0.01262187
v -1.824802 2.1 0.1860871
v 2.1 2.1 0.5
v -5.9 2.1 0.5
v -1.824802 2.1 0.1860871
v 0.0999999 2.1 0.1860867
v -1.824802 2.1 0.1860871
v -2.027355 2.1 0.1860871
v 0.0999999 2.1 0.1860867
v 0.3 2.1 0.1860867
v -2.027355 2.1 0.1860871
v -3.9 2.1 0.1860867
v 0.3 2.1 0.1860867
v 2.1 2.1 -0.3
v -3.9 2.1 0.1860867
v -4.1 2.1 0.1860867
v 0.0999999 2.1 -0.01262187
v -1.824802 2.1 -0.0126214
v 0.3 2.1 0.1860867
v 0.3 2.1 -0.01262187
v 0.0999999 2.1 -0.01262187
v 0.3 2.1 -0.01262187
v -5.9 2.1 -0.3
v -1.824802 2.1 -0.0126214
v -4.1 2.1 0.1860867
v -4.1 2.1 0.1860867
v -4.1 2.1 -0.01262187
v -3.9 2.1 -0.01262187
v -2.027355 2.1 -0.0126214
v -2.027355 2.1 -0.0126214
v -1.824802 2.1 -0.0126214
v -4.1 2.1 -0.01262187
v -3.9 2.1 -0.01262187
v 0.0999999 2.1 0.1860867
v -1.824802 2.1 0.1860871
v -1.824802 2.1 -0.0126214
v 0.0999999 2.1 -0.01262187
v -2.027355 2.1 0.1860871
v -3.9 2.1 0.1860867
v -3.9 2.1 -0.01262187
v -2.027355 2.1 -0.0126214
v 3.5 5.3 0.9
v 1.9 5.3 0.9
v 1.9 5.3 -0.7
v 3.5 5.3 -0.7
v 2.1 4.5 0.1860867
v -5.9 4.5 0.1860867
v -5.9 4.5 -0.01262187
v 2.1 4.5 -0.01262187
v 2.1 0.7 0.5
v -5.9 0.7 0.5
v -5.9 0.7 0.3
v 2.1 0.7 0.3
v 2.1 0.7 -0.1
v -5.9 0.7 -0.1
v -5.9 0.7 -0.3
v 2.1 0.7 -0.3
v 2.1 0.7 0.3
v -5.9 0.7 0.3
v -5.9 1.9 0.3
v 2.1 1.9 0.3
v 0.3 4.3 0.1860867
v 2.1 4.5 0.1860867
v 2.1 4.3 0.1860867
v 0.3 4.3 0.1860867
v 0.0999999 4.3 0.1860867
v 0.0999999 4.3 0.1860867
v -1.824802 4.3 0.1860871
v -5.9 4.5 0.1860867
v -1.824802 4.3 0.1860871
v -2.027355 4.3 0.1860871
v -1.824802 4.3 0.1860871
v -3.9 4.3 0.1860867
v -2.027355 4.3 0.1860871
v -4.1 4.3 0.1860867
v -3.9 4.3 0.1860867
v -4.1 4.3 0.1860867
v -5.9 4.3 0.1860867
v 0.3 2.1 0.1860867
v 0.0999999 4.3 0.1860867
v 0.3 4.3 0.1860867
v 0.0999999 2.1 0.1860867
v -1.824802 2.1 0.1860871
v -2.027355 4.3 0.1860871
v -1.824802 4.3 0.1860871
v -2.027355 2.1 0.1860871
v -3.9 2.1 0.1860867
v -4.1 4.3 0.1860867
v -3.9 4.3 0.1860867
v -4.1 2.1 0.1860867
v 2.1 -0.1 0.5
v -5.9 -0.1 0.5
v -5.9 0.7 0.5
v 2.1 0.7 0.5
v 2.1 1.9 0.5
v -5.9 1.9 0.5
v -5.9 2.1 0.5
v 2.1 2.1 0.5
v 3.3 -0.1 0.7
v 2.1 -0.1 0.7
v 2.1 4.9 0.7
v 3.3 4.9 0.7
v 3.5 4.9 0.9
v 1.9 4.9 0.9
v 1.9 5.3 0.9
v 3.5 5.3 0.9
v -5.9 1.9 -0.1
v -5.9 0.7 -0.1
v 2.1 0.7 -0.1
v 2.1 1.9 -0.1
v 2.1 4.3 -0.01262187
v 2.1 4.5 -0.01262187
v 0.3 4.3 -0.01262187
v 0.0999999 4.3 -0.01262187
v 0.3 4.3 -0.01262187
v -1.824802 4.3 -0.0126214
v 0.0999999 4.3 -0.01262187
v -1.824802 4.3 -0.0126214
v -5.9 4.5 -0.01262187
v -1.824802 4.3 -0.0126214
v -2.027355 4.3 -0.0126214
v -2.027355 4.3 -0.0126214
v -3.9 4.3 -0.01262187
v -3.9 4.3 -0.01262187
v -4.1 4.3 -0.01262187
v -5.9 4.3 -0.01262187
v -4.1 4.3 -0.01262187
v 0.3 4.3 -0.01262187
v 0.0999999 4.3 -0.01262187
v 0.3 2.1 -0.01262187
v 0.0999999 2.1 -0.01262187
v -1.824802 4.3 -0.0126214
v -2.027355 4.3 -0.0126214
v -1.824802 2.1 -0.0126214
v -2.027355 2.1 -0.0126214
v -3.9 4.3 -0.01262187
v -4.1 4.3 -0.01262187
v -3.9 2.1 -0.01262187
v -4.1 2.1 -0.01262187
v 1.9 5.3 -0.7
v 1.9 4.9 -0.7
v 3.5 4.9 -0.7
v 3.5 5.3 -0.7
v 2.1 4.9 -0.5
v 2.1 -0.1 -0.5
v 3.3 -0.1 -0.5
v 3.3 4.9 -0.5
v -5.9 0.7 -0.3
v -5.9 -0.1 -0.3
v 2.1 -0.1 -0.3
v 2.1 0.7 -0.3
v -5.9 2.1 -0.3
v -5.9 1.9 -0.3
v 2.1 1.9 -0.3
v 2.1 2.1 -0.3
vn -1 0 0
vn -1 0 0
vn -1 0 0
vn -1 0 0
vn -1 0 0
vn -1 0 0
vn -1 0 0
vn -1 0 0
vn -1 0 0
vn -1 0 0
vn -1 0 0
vn -1 0 0
vn -1 0 0
vn -1 0 0
vn -1 0 0
vn -1 0 0
vn -1 0 0
vn -1 0 0
vn -1 0 0
vn -1 0 0
vn -1 0 0
vn -1 0 0
vn -1 0 0
vn -1 0 0
vn -1 0 0
vn -1 0 0
vn -1 0 0
vn -1 0 0
vn -1 0 0
vn -1 0 0
vn -1 0 0
vn -1 0 0
vn -1 0 0
vn -1 0 0
vn -1 0 0
vn -1 0 0
vn -1 0 0
vn -1 0 0
vn -1 0 0
vn -1 0 0
vn -1 0 0
vn -1 0 0
vn -1 0 0
vn -1 0 0
vn -1 0 0
vn -1 0 0
vn -1 0 0
vn -1 0 0
vn -1 0 0
vn -1 0 0
vn -1 0 0
vn -1 0 0
vn -1 0 0
vn -1 0 0
vn -1 0 0
vn -1 0 0
vn -1 0 0
vn -1 0 0
vn -1 0 0
vn -1 0 0
vn -1 0 0
vn -1 0 0
vn -1 0 0
vn -1 0 0
vn -1 0 0
vn -1 0 0
vn -1 0 0
vn -1 0 0
vn -1 0 0
vn -1 0 0
vn -1 0 0
vn -1 0 0
vn -1 0 0
vn -1 0 0
vn -1 0 0
vn -1 0 0
vn -1 0 0
vn -1 0 0
vn -1 0 0
vn -1 0 0
vn -1 0 0
vn -1 0 0
vn -1 0 0
vn -1 0 0
vn 1 0 0
vn 1 0 0
vn 1 0 0
vn 1 0 0
vn 1 0 0
vn 1 0 0
vn 1 0 0
vn 1 0 0
vn 1 0 0
vn 1 0 0
vn 1 0 0
vn 1 0 0
vn 1 0 0
vn 1 0 0
vn 1 0 0
vn 1 0 0
vn 1 0 0
vn 1 0 0
vn 1 0 0
vn 1 0 0
vn 0 -1 0
vn 0 -1 0
vn 0 -1 0
vn 0 -1 0
vn 0 -1 0
vn 0 -1 0
vn 0 -1 0
vn 0 -1 0
vn 0 -1 0
vn 0 -1 0
vn 0 -1 0
vn 0 -1 0
vn 0 -1 0
vn 0 -1 0
vn 0 -1 0
vn 0 -1 0
vn 0 -1 0
vn 0 -1 0
vn 0 -1 0
vn 0 -1 0
vn 0 -1 0
vn 0 -1 0
vn 0 -1 0
vn 0 -1 0
vn 0 -1 0
vn 0 -1 0
vn 0 -1 0
vn 0 -1 0
vn 0 -1 0
vn 0 -1 0
vn 0 -1 0
vn 0 -1 0
vn 0 -1 0
vn 0 -1 0
vn 0 -1 0
vn 0 -1 0
vn 0 -1 0
vn 0 -1 0
vn 0 -1 0
vn 0 -1 0
vn 0 -1 0
vn 0 -1 0
vn 0 -1 0
vn 0 -1 0
vn 0 -1 0
vn 0 -1 0
vn 0 -1 0
vn 0 -1 0
vn 0 -1 0
vn 0 -1 0
vn 0 -1 0
vn 0 -1 0
vn 0 -1 0
vn 0 -1 0
vn 0 -1 0
vn 0 1 0
vn 0 1 0
vn 0 1 0
vn 0 1 0
vn 0 1 0
vn 0 1 0
vn 0 1 0
vn 0 1 0
vn 0 1 0
vn 0 1 0
vn 0 1 0
vn 0 1 0
vn 0 1 0
vn 0 1 0
vn 0 1 0
vn 0 1 0
vn 0 1 0
vn 0 1 0
vn 0 1 0
vn 0 1 0
vn 0 1 0
vn 0 1 0
vn 0 1 0
vn 0 1 0
vn 0 1 0
vn 0 1 0
vn 0 1 0
vn 0 1 0
vn 0 1 0
vn 0 1 0
vn 0 1 0
vn 0 1 0
vn 0 1 0
vn 0 1 0
vn 0 1 0
vn 0 1 0
vn 0 1 0
vn 0 1 0
vn 0 1 0
vn 0 1 0
vn 0 1 0
vn 0 1 0
vn 0 1 0
vn 0 1 0
vn 0 1 0
vn 0 1 0
vn 0 1 0
vn 0 1 0
vn 0 1 0
vn 0 1 0
vn 0 1 0
vn 0 1 0
vn 0 1 0
vn 0 1 0
vn 0 1 0
vn 0 1 0
vn 0 0 1
vn 0 0 1
vn 0 0 1
vn 0 0 1
vn 0 0 1
vn 0 0 1
vn 0 0 1
vn 0 0 1
vn 0 0 1
vn 0 0 1
vn 0 0 1
vn 0 0 1
vn 0 0 1
vn 0 0 1
vn 0 0 1
vn 0 0 1
vn 0 0 1
vn 0 0 1
vn 0 0 1
vn 0 0 1
vn 0 0 1
vn 0 0 1
vn 0 0 1
vn 0 0 1
vn 0 0 1
vn 0 0 1
vn 0 0 1
vn 0 0 1
vn 0 0 1
vn 0 0 1
vn 0 0 1
vn 0 0 1
vn 0 0 1
vn 0 0 1
vn 0 0 1
vn 0 0 1
vn 0 0 1
vn 0 0 1
vn 0 0 1
vn 0 0 1
vn 0 0 1
vn 0 0 1
vn 0 0 1
vn 0 0 1
vn 0 0 1
vn 0 0 1
vn 0 0 1
vn 0 0 1
vn 0 0 1
vn 0 0 -1
vn 0 0 -1
vn 0 0 -1
vn 0 0 -1
vn 0 0 -1
vn 0 0 -1
vn 0 0 -1
vn 0 0 -1
vn 0 0 -1
vn 0 0 -1
vn 0 0 -1
vn 0 0 -1
vn 0 0 -1
vn 0 0 -1
vn 0 0 -1
vn 0 0 -1
vn 0 0 -1
vn 0 0 -1
vn 0 0 -1
vn 0 0 -1
vn 0 0 -1
vn 0 0 -1
vn 0 0 -1
vn 0 0 -1
vn 0 0 -1
vn 0 0 -1
vn 0 0 -1
vn 0 0 -1
vn 0 0 -1
vn 0 0 -1
vn 0 0 -1
vn 0 0 -1
vn 0 0 -1
vn 0 0 -1
vn 0 0 -1
vn 0 0 -1
vn 0 0 -1
vn 0 0 -1
vn 0 0 -1
vn 0 0 -1
vn 0 0 -1
vn 0 0 -1
vn 0 0 -1
vn 0 0 -1
vn 0 0 -1
vn 0 0 -1
vn 0 0 -1
vn 0 0 -1
vn 0 0 -1
vt 0.7779349 0.1667845
vt 0.8888103 0.1667845
vt 0.8888103 0.3330976
vt 0.7778563 0.3332155
vt 0.7778767 0.6667618
vt 0.8887976 0.6667618
vt 0.8399924 0.8331432
vt 0.7778716 0.8332043
vt 0.7879491 0.8332043
vt 0.8887653 0.75
vt 0.8016269 0.8331776
vt 0.7779521 0.8331699
vt 0.8444226 0.8331699
vt 0.8887483 0.8331752
vt 0.8518167 0.8331752
vt 0.7779349 0.8332155
vt 0.8888103 0.8332155
vt 0.8887556 0.7222555
vt 0.7778444 0.8331667
vt 0.8887778 0.6669167
vt 0.8887778 0.75
vt 0.8887653 0.75
vt 0.8016269 0.6668224
vt 0.8887483 0.6668248
vt 0.8518167 0.6668248
vt 0.8399924 0.6668568
vt 0.8887976 0.8332382
vt 0.7879491 0.6667957
vt 0.7778716 0.6667957
vt 0.8444226 0.6668301
vt 0.7779521 0.6668301
vt 0.7779349 0.6667845
vt 0.8888103 0.6667845
vt 0.7779166 0.7083854
vt 0.8888195 0.6667968
vt 0.8888195 0.8331511
vt 0.7778832 0.6669302
vt 0.7778832 0.7777251
vt 0.7779349 0.6667845
vt 0.8888103 0.6667845
vt 0.8888103 0.8330976
vt 0.7778563 0.8332155
vt 0.7778563 0.6669024
vt 0.8887318 0.8332155
vt 0.7778563 0.8332155
vt 0.8888103 0.6667845
vt 0.1112682 0.6667845
vt 0.2221437 0.6667845
vt 0.2221437 0.8330976
vt 0.1111897 0.8332155
vt 0.7779349 0.1667845
vt 0.8888103 0.1667845
vt 0.8888103 0.3330976
vt 0.7778563 0.3332155
vt 0.7779349 0.1667845
vt 0.8888103 0.1667845
vt 0.8888103 0.3330976
vt 0.7778563 0.3332155
vt 0.1112682 0.6667845
vt 0.2221437 0.6667845
vt 0.2221437 0.8330976
vt 0.2220834 0.7083854
vt 0.1111805 0.8331511
vt 0.2221168 0.6669302
vt 0.2221168 0.7777251
vt 0.2221437 0.6669024
vt 0.2221437 0.8332155
vt 0.7778563 0.6669024
vt 0.8887318 0.8332155
vt 0.7778563 0.8332155
vt 0.8888103 0.6667845
vt 0.1112165 0.6669302
vt 0.2220114 0.8331225
vt 0.1112165 0.7777251
vt 0.1111897 0.6669024
vt 0.1111897 0.8332155
vt 0.2221528 0.6667968
vt 0.1112499 0.7083854
vt 0.1111897 0.8330976
vt 0.1111897 0.6667845
vt 0.7779349 0.1667845
vt 0.8888103 0.1667845
vt 0.8888103 0.3330976
vt 0.7778563 0.3332155
vt 0.8888103 0.8330976
vt 0.8888103 0.6667845
vt 0.7779349 0.6667845
vt 0.7778563 0.8332155
vt 0.8888103 0.3330976
vt 0.8888103 0.1667845
vt 0.7779349 0.1667845
vt 0.7778563 0.3332155
vt 0.8888103 0.3330976
vt 0.8888103 0.1667845
vt 0.7779349 0.1667845
vt 0.7778563 0.3332155
vt 0.2221437 0.8330976
vt 0.2221437 0.6667845
vt 0.1112682 0.6667845
vt 0.1111897 0.8332155
vt 0.8888103 0.3330976
vt 0.8888103 0.1667845
vt 0.7779349 0.1667845
vt 0.7778563 0.3332155
vt 0.8888103 0.8330976
vt 0.8888103 0.6667845
vt 0.7779349 0.6667845
vt 0.7778501 0.8331345
vt 0.8887443 0.6945168
vt 0.8887936 0.7999142
vt 0.8887936 0.6669239
vt 0.8888103 0.8332155
vt 0.8888103 0.6669024
vt 0.4445156 0.749872
vt 0.5554133 0.749872
vt 0.4445156 0.4169227
vt 0.3305443 0.7497194
vt 0.3305443 0.416807
vt 0.4443245 0.416807
vt 0.1250554 0.8331119
vt 0.2220838 0.6667774
vt 0.1111942 0.6667774
vt 0.2062846 0.8331977
vt 0.111279 0.8331977
vt 0.1111849 0.8331257
vt 0.2220746 0.687583
vt 0.2221484 0.8331257
vt 0.1112587 0.687583
vt 0.1250554 0.6668881
vt 0.2221318 0.809427
vt 0.2221318 0.6669185
vt 0.1112015 0.809427
vt 0.1112015 0.6669185
vt 0.111279 0.6668023
vt 0.2062846 0.6668023
vt 0.2221437 0.8330976
vt 0.2221437 0.6667845
vt 0.1112682 0.6667845
vt 0.1111897 0.8332155
vt 0.2221437 0.8330976
vt 0.2221437 0.6667845
vt 0.1112682 0.6667845
vt 0.1111897 0.8332155
vt 0.8888103 0.3330976
vt 0.8888103 0.1667845
vt 0.7779349 0.1667845
vt 0.7778563 0.3332155
vt 0.8888103 0.3330976
vt 0.8888103 0.1667845
vt 0.7779349 0.1667845
vt 0.7778563 0.3332155
vt 0.8888103 0.3330976
vt 0.8888103 0.1667845
vt 0.7779349 0.1667845
vt 0.7778563 0.3332155
vt 0.8888103 0.3330976
vt 0.8888103 0.1667845
vt 0.7779349 0.1667845
vt 0.7778563 0.3332155
vt 0.163892 0.8331463
vt 0.1112031 0.6667602
vt 0.2221271 0.6667602
vt 0.2220587 0.8331669
vt 0.1695848 0.8331669
vt 0.1112057 0.8332038
vt 0.121763 0.8332038
vt 0.2221268 0.8332032
vt 0.2110417 0.8332032
vt 0.1112746 0.8331669
vt 0.1637485 0.8331669
vt 0.2220834 0.7083854
vt 0.1111805 0.8331511
vt 0.1112066 0.8332032
vt 0.1222916 0.8332032
vt 0.1695848 0.6668331
vt 0.2220587 0.6668331
vt 0.2221168 0.6669302
vt 0.2221168 0.7777251
vt 0.2221268 0.6667968
vt 0.2110417 0.6667968
vt 0.2221528 0.8331511
vt 0.163892 0.6668537
vt 0.1112499 0.7083854
vt 0.1112165 0.6669302
vt 0.1112165 0.7777251
vt 0.1637485 0.6668331
vt 0.1112746 0.6668331
vt 0.121763 0.6667962
vt 0.1112057 0.6667962
vt 0.1222916 0.6667968
vt 0.1112066 0.6667968
vt 0.1112682 0.6667845
vt 0.2221437 0.6667845
vt 0.2221437 0.8330976
vt 0.1111897 0.8332155
vt 0.1112682 0.6667845
vt 0.2221437 0.6667845
vt 0.2221437 0.8330976
vt 0.1111897 0.8332155
vt 0.1112682 0.6667845
vt 0.2221437 0.6667845
vt 0.2221437 0.8330976
vt 0.1111897 0.8332155
vt 0.7779349 0.1667845
vt 0.8888103 0.1667845
vt 0.8888103 0.3330976
vt 0.7778563 0.3332155
vt 0.1112682 0.6667845
vt 0.2221437 0.6667845
vt 0.2221437 0.8330976
vt 0.1111897 0.8332155
vt 0.1112682 0.6667845
vt 0.2221437 0.6667845
vt 0.2221437 0.8330976
vt 0.1111897 0.8332155
vt 0.7779349 0.6667845
vt 0.8888103 0.6667845
vt 0.8888103 0.8330976
vt 0.7778563 0.8332155
vt 0.8887318 0.1667845
vt 0.7778563 0.3330976
vt 0.7778563 0.1667845
vt 0.8777084 0.1667968
vt 0.8887935 0.1667968
vt 0.8362515 0.1668331
vt 0.8887254 0.1668331
vt 0.8887938 0.3332398
vt 0.8305587 0.1668537
vt 0.7884297 0.1667962
vt 0.7778724 0.1667962
vt 0.8304152 0.1668331
vt 0.7779413 0.1668331
vt 0.7889583 0.1667968
vt 0.7778732 0.1667968
vt 0.7779349 0.1667845
vt 0.8888103 0.1667845
vt 0.7778563 0.1669024
vt 0.8887318 0.3332155
vt 0.7778563 0.3332155
vt 0.8888103 0.1667845
vt 0.7778563 0.1669024
vt 0.8887318 0.3332155
vt 0.7778563 0.3332155
vt 0.8888103 0.1667845
vt 0.7778563 0.1669024
vt 0.8887318 0.3332155
vt 0.7778563 0.3332155
vt 0.8888103 0.1667845
vt 0.1112682 0.6667845
vt 0.2221437 0.6667845
vt 0.2221437 0.8330976
vt 0.1111897 0.8332155
vt 0.1112682 0.6667845
vt 0.2221437 0.6667845
vt 0.2221437 0.8330976
vt 0.1111897 0.8332155
vt 0.7779349 0.6667845
vt 0.8888103 0.6667845
vt 0.8888103 0.8330976
vt 0.7778563 0.8332155
vt 0.1112682 0.6667845
vt 0.2221437 0.6667845
vt 0.2221437 0.8330976
vt 0.1111897 0.8332155
vt 0.8888103 0.8330976
vt 0.8888103 0.6667845
vt 0.7779349 0.6667845
vt 0.7778563 0.8332155
vt 0.7778563 0.1667845
vt 0.7778563 0.3330976
vt 0.8887318 0.1667845
vt 0.8887935 0.1667968
vt 0.8777084 0.1667968
vt 0.8887254 0.1668331
vt 0.8362515 0.1668331
vt 0.8305587 0.1668537
vt 0.8887938 0.3332398
vt 0.7778724 0.1667962
vt 0.7884297 0.1667962
vt 0.7779413 0.1668331
vt 0.8304152 0.1668331
vt 0.7778732 0.1667968
vt 0.7889583 0.1667968
vt 0.8888103 0.1667845
vt 0.7779349 0.1667845
vt 0.7778563 0.3332155
vt 0.8887318 0.3332155
vt 0.7778563 0.1669024
vt 0.8888103 0.1667845
vt 0.7778563 0.3332155
vt 0.8887318 0.3332155
vt 0.7778563 0.1669024
vt 0.8888103 0.1667845
vt 0.7778563 0.3332155
vt 0.8887318 0.3332155
vt 0.7778563 0.1669024
vt 0.8888103 0.1667845
vt 0.2221437 0.8330976
vt 0.2221437 0.6667845
vt 0.1112682 0.6667845
vt 0.1111897 0.8332155
vt 0.8888103 0.8330976
vt 0.8888103 0.6667845
vt 0.7779349 0.6667845
vt 0.7778563 0.8332155
vt 0.2221437 0.8330976
vt 0.2221437 0.6667845
vt 0.1112682 0.6667845
vt 0.1111897 0.8332155
vt 0.2221437 0.8330976
vt 0.2221437 0.6667845
vt 0.1112682 0.6667845
vt 0.1111897 0.8332155
usemtl EGA_Wall_05_texture0
f 3/3/3 2/2/2 1/1/1
f 4/4/4 3/3/3 1/1/1
f 7/7/7 6/6/6 5/5/5
f 9/9/9 6/6/6 8/8/8
f 5/5/5 11/11/11 10/10/10
f 13/13/13 6/6/6 12/12/12
f 15/15/15 14/14/14 5/5/5
f 17/17/17 6/6/6 16/16/16
f 19/19/19 18/18/18 5/5/5
f 21/21/21 20/20/20 19/19/19
f 23/23/23 19/19/19 22/22/22
f 25/25/25 19/19/19 24/24/24
f 19/19/19 27/27/27 26/26/26
f 29/29/29 27/27/27 28/28/28
f 31/31/31 27/27/27 30/30/30
f 27/27/27 33/33/33 32/32/32
f 36/36/36 35/35/35 34/34/34
f 38/38/38 36/36/36 37/37/37
f 41/41/41 40/40/40 39/39/39
f 42/42/42 41/41/41 39/39/39
f 45/45/45 44/44/44 43/43/43
f 44/44/44 46/46/46 43/43/43
f 49/49/49 48/48/48 47/47/47
f 50/50/50 49/49/49 47/47/47
f 53/53/53 52/52/52 51/51/51
f 54/54/54 53/53/53 51/51/51
f 57/57/57 56/56/56 55/55/55
f 58/58/58 57/57/57 55/55/55
f 61/61/61 60/60/60 59/59/59
f 63/63/63 62/62/62 59/59/59
f 65/65/65 64/64/64 63/63/63
f 67/67/67 66/66/66 63/63/63
f 70/70/70 69/69/69 68/68/68
f 69/69/69 71/71/71 68/68/68
f 74/74/74 73/73/73 72/72/72
f 76/76/76 73/73/73 75/75/75
f 78/78/78 73/73/73 77/77/77
f 80/80/80 79/79/79 77/77/77
f 83/83/83 82/82/82 81/81/81
f 84/84/84 83/83/83 81/81/81
f 87/87/87 86/86/86 85/85/85
f 87/87/87 85/85/85 88/88/88
f 91/91/91 90/90/90 89/89/89
f 91/91/91 89/89/89 92/92/92
f 95/95/95 94/94/94 93/93/93
f 95/95/95 93/93/93 96/96/96
f 99/99/99 98/98/98 97/97/97
f 99/99/99 97/97/97 100/100/100
f 103/103/103 102/102/102 101/101/101
f 103/103/103 101/101/101 104/104/104
f 107/107/107 106/106/106 105/105/105
f 107/107/107 109/109/109 108/108/108
f 108/108/108 111/111/111 110/110/110
f 108/108/108 113/113/113 112/112/112
f 116/116/116 115/115/115 114/114/114
f 119/119/119 118/118/118 117/117/117
f 122/122/122 121/121/121 120/120/120
f 124/124/124 121/121/121 123/123/123
f 122/122/122 126/126/126 125/125/125
f 128/128/128 121/121/121 127/127/127
f 129/129/129 127/127/127 125/125/125
f 125/125/125 131/131/131 130/130/130
f 133/133/133 127/127/127 132/132/132
f 135/135/135 127/127/127 134/134/134
f 138/138/138 137/137/137 136/136/136
f 138/138/138 136/136/136 139/139/139
f 142/142/142 141/141/141 140/140/140
f 142/142/142 140/140/140 143/143/143
f 146/146/146 145/145/145 144/144/144
f 146/146/146 144/144/144 147/147/147
f 150/150/150 149/149/149 148/148/148
f 150/150/150 148/148/148 151/151/151
f 154/154/154 153/153/153 152/152/152
f 154/154/154 152/152/152 155/155/155
f 158/158/158 157/157/157 156/156/156
f 158/158/158 156/156/156 159/159/159
f 162/162/162 161/161/161 160/160/160
f 164/164/164 163/163/163 161/161/161
f 166/166/166 162/162/162 165/165/165
f 168/168/168 167/167/167 161/161/161
f 170/170/170 162/162/162 169/169/169
f 172/172/172 171/171/171 161/161/161
f 174/174/174 162/162/162 173/173/173
f 176/176/176 175/175/175 172/172/172
f 178/178/178 177/177/177 172/172/172
f 180/180/180 172/172/172 179/179/179
f 182/182/182 172/172/172 181/181/181
f 181/181/181 162/162/162 183/183/183
f 185/185/185 181/181/181 184/184/184
f 187/187/187 181/181/181 186/186/186
f 189/189/189 181/181/181 188/188/188
f 191/191/191 181/181/181 190/190/190
f 194/194/194 193/193/193 192/192/192
f 195/195/195 194/194/194 192/192/192
f 198/198/198 197/197/197 196/196/196
f 199/199/199 198/198/198 196/196/196
f 202/202/202 201/201/201 200/200/200
f 203/203/203 202/202/202 200/200/200
f 206/206/206 205/205/205 204/204/204
f 207/207/207 206/206/206 204/204/204
f 210/210/210 209/209/209 208/208/208
f 211/211/211 210/210/210 208/208/208
f 214/214/214 213/213/213 212/212/212
f 215/215/215 214/214/214 212/212/212
f 218/218/218 217/217/217 216/216/216
f 219/219/219 218/218/218 216/216/216
f 222/222/222 221/221/221 220/220/220
f 224/224/224 223/223/223 221/221/221
f 226/226/226 225/225/225 221/221/221
f 228/228/228 221/221/221 227/227/227
f 230/230/230 227/227/227 229/229/229
f 232/232/232 227/227/227 231/231/231
f 234/234/234 227/227/227 233/233/233
f 227/227/227 236/236/236 235/235/235
f 239/239/239 238/238/238 237/237/237
f 238/238/238 240/240/240 237/237/237
f 243/243/243 242/242/242 241/241/241
f 242/242/242 244/244/244 241/241/241
f 247/247/247 246/246/246 245/245/245
f 246/246/246 248/248/248 245/245/245
f 251/251/251 250/250/250 249/249/249
f 252/252/252 251/251/251 249/249/249
f 255/255/255 254/254/254 253/253/253
f 256/256/256 255/255/255 253/253/253
f 259/259/259 258/258/258 257/257/257
f 260/260/260 259/259/259 257/257/257
f 263/263/263 262/262/262 261/261/261
f 264/264/264 263/263/263 261/261/261
f 267/267/267 266/266/266 265/265/265
f 267/267/267 265/265/265 268/268/268
f 271/271/271 270/270/270 269/269/269
f 270/270/270 273/273/273 272/272/272
f 270/270/270 275/275/275 274/274/274
f 277/277/277 270/270/270 276/276/276
f 279/279/279 277/277/277 278/278/278
f 281/281/281 277/277/277 280/280/280
f 283/283/283 277/277/277 282/282/282
f 285/285/285 284/284/284 277/277/277
f 288/288/288 287/287/287 286/286/286
f 288/288/288 289/289/289 287/287/287
f 292/292/292 291/291/291 290/290/290
f 292/292/292 293/293/293 291/291/291
f 296/296/296 295/295/295 294/294/294
f 296/296/296 297/297/297 295/295/295
f 300/300/300 299/299/299 298/298/298
f 300/300/300 298/298/298 301/301/301
f 304/304/304 303/303/303 302/302/302
f 304/304/304 302/302/302 305/305/305
f 308/308/308 307/307/307 306/306/306
f 308/308/308 306/306/306 309/309/309
f 312/312/312 311/311/311 310/310/310
f 312/312/312 310/310/310 313/313/313
