mtllib EGA_Plaza_10.mtl
g default
v -12.5 0.7 0.5
v -12.5 -0.1 0.5
v -12.5 0.5 -0.3
v -12.5 0.5 -0.3
v -12.5 -0.1 0.5
v -12.5 -0.1 -0.3
v -12.5 0.7 0.5
v -12.5 0.5 -0.3
v -12.5 0.7 -0.5
v -12.5 0.5 -0.3
v -12.5 0.5 -0.5
v 12.7 0.5 -0.3
v 12.7 -0.1 0.5
v 12.7 0.7 0.5
v 12.7 -0.1 -0.3
v 12.7 -0.1 0.5
v 12.7 0.5 -0.3
v 12.7 0.7 -0.5
v 12.7 0.5 -0.3
v 12.7 0.7 0.5
v 12.7 0.5 -0.5
v 12.7 0.5 -0.3
v -12.5 -0.1 -0.3
v -12.5 -0.1 0.5
v 12.7 -0.1 0.5
v 12.7 -0.1 -0.3
v -12.5 0.5 -0.5
v -12.5 0.5 -0.3
v 12.7 0.5 -0.3
v 12.7 0.5 -0.5
v 12.7 0.7 0.5
v -12.5 0.7 0.5
v -12.5 0.7 -0.5
v 12.7 0.7 -0.5
v 12.7 -0.1 0.5
v -12.5 -0.1 0.5
v -12.5 0.7 0.5
v 12.7 0.7 0.5
v -12.5 0.7 -0.5
v -12.5 0.5 -0.5
v 12.7 0.5 -0.5
v 12.7 0.7 -0.5
v -12.5 0.5 -0.3
v -12.5 -0.1 -0.3
v 12.7 -0.1 -0.3
v 12.7 0.5 -0.3
vn -1 0 0
vn -1 0 0
vn -1 0 0
vn -1 0 0
vn -1 0 0
vn -1 0 0
vn -1 0 0
vn -1 0 0
vn -1 0 0
vn -1 0 0
vn -1 0 0
vn 1 0 0
vn 1 0 0
vn 1 0 0
vn 1 0 0
vn 1 0 0
vn 1 0 0
vn 1 0 0
vn 1 0 0
vn 1 0 0
vn 1 0 0
vn 1 0 0
vn 0 -1 0
vn 0 -1 0
vn 0 -1 0
vn 0 -1 0
vn 0 -1 0
vn 0 -1 0
vn 0 -1 0
vn 0 -1 0
vn 0 1 0
vn 0 1 0
vn 0 1 0
vn 0 1 0
vn 0 0 1
vn 0 0 1
vn 0 0 1
vn 0 0 1
vn 0 0 -1
vn 0 0 -1
vn 0 0 -1
vn 0 0 -1
vn 0 0 -1
vn 0 0 -1
vn 0 0 -1
vn 0 0 -1
vt 0.4445746 0.3335416
vt 0.6664845 0.3335416
vt 0.500052 0.6662502
vt 0.6669024 0.666431
vt 0.8332155 0.3338047
vt 0.8332155 0.666431
vt 0.1667734 0.3337174
vt 0.3331199 0.5998719
vt 0.1667734 0.6664106
vt 0.3332155 0.3338047
vt 0.3332155 0.666431
vt 0.500052 0.6662502
vt 0.6664845 0.3335416
vt 0.4445746 0.3335416
vt 0.8332155 0.666431
vt 0.8332155 0.3338047
vt 0.6669024 0.666431
vt 0.1667734 0.6664106
vt 0.3331199 0.5998719
vt 0.1667734 0.3337174
vt 0.3332155 0.666431
vt 0.3332155 0.3338047
vt 0.8332155 0.6661953
vt 0.8332155 0.333569
vt 0.6669024 0.333569
vt 0.6667845 0.666431
vt 0.3332155 0.6661953
vt 0.3332155 0.333569
vt 0.1669024 0.333569
vt 0.1667845 0.666431
vt 0.1669024 0.333569
vt 0.3332155 0.333569
vt 0.3332155 0.6661953
vt 0.1667845 0.666431
vt 0.6665488 0.6661953
vt 0.6665488 0.333569
vt 0.4446802 0.333569
vt 0.4445623 0.666431
vt 0.3332155 0.6661953
vt 0.3332155 0.333569
vt 0.1669024 0.333569
vt 0.1667845 0.666431
vt 0.8332155 0.6661953
vt 0.8332155 0.333569
vt 0.6669024 0.333569
vt 0.6667845 0.666431
usemtl EGA_Plaza_10_texture0
f 3/3/3 2/2/2 1/1/1
f 6/6/6 5/5/5 4/4/4
f 9/9/9 8/8/8 7/7/7
f 11/11/11 10/10/10 9/9/9
f 14/14/14 13/13/13 12/12/12
f 17/17/17 16/16/16 15/15/15
f 20/20/20 19/19/19 18/18/18
f 18/18/18 22/22/22 21/21/21
f 25/25/25 24/24/24 23/23/23
f 25/25/25 23/23/23 26/26/26
f 29/29/29 28/28/28 27/27/27
f 29/29/29 27/27/27 30/30/30
f 33/33/33 32/32/32 31/31/31
f 34/34/34 33/33/33 31/31/31
f 37/37/37 36/36/36 35/35/35
f 38/38/38 37/37/37 35/35/35
f 41/41/41 40/40/40 39/39/39
f 41/41/41 39/39/39 42/42/42
f 45/45/45 44/44/44 43/43/43
f 45/45/45 43/43/43 46/46/46
