mtllib EGA_Wall_02.mtl
g default
v 2.7 0.7 0.5
v 2.7 4.9 0.7
v 2.7 -0.1 0.7
v 2.7 0.7 0.5
v 2.7 4.3 0.5
v 2.7 0.7 0.5
v 2.7 -0.1 0.5
v 2.7 4.3 0.5
v 2.7 4.7 0.5
v 2.7 4.7 0.5
v 2.7 4.9 -0.5
v 2.7 4.7 0.5
v 2.7 4.7 -0.3
v 2.7 4.3 -0.3
v 2.7 4.7 -0.3
v 2.7 4.3 -0.3
v 2.7 0.7 -0.3
v 2.7 -0.1 -0.5
v 2.7 0.7 -0.3
v 2.7 0.7 -0.3
v 2.7 -0.1 -0.3
v 2.7 4.3 0.5
v 2.7 0.7 0.5
v 2.7 0.7 0.3
v 2.7 4.3 0.3
v 2.7 4.3 -0.1
v 2.7 0.7 -0.3
v 2.7 4.3 -0.3
v 2.7 0.7 -0.1
v 2.5 5.3 0.9
v 2.5 4.9 0.9
v 2.5 4.9 -0.7
v 2.5 5.3 -0.7
v -5.3 4.7 0.5
v -5.3 4.3 0.5
v -5.3 4.3 0.3
v -5.3 4.3 0.3
v -5.3 4.7 -0.3
v -5.3 4.3 0.3
v -5.3 4.3 -0.1
v -5.3 4.3 -0.1
v -5.3 4.3 -0.3
v -5.3 4.3 0.3
v -5.3 0.7 -0.1
v -5.3 4.3 -0.1
v -5.3 0.7 0.3
v -5.3 0.7 0.3
v -5.3 -0.1 -0.3
v -5.3 0.7 -0.1
v -5.3 0.7 -0.1
v -5.3 0.7 -0.3
v -5.3 -0.1 0.5
v -5.3 0.7 0.3
v -5.3 0.7 0.3
v -5.3 0.7 0.5
v 3.9 -0.1 -0.5
v 3.9 -0.1 0.7
v 3.9 4.9 0.7
v 3.9 4.9 -0.5
v 4.1 4.9 -0.7
v 4.1 4.9 0.9
v 4.1 5.3 0.9
v 4.1 5.3 -0.7
v 2.7 -0.1 0.5
v 2.7 -0.1 0.7
v 3.9 -0.1 0.7
v 3.9 -0.1 -0.5
v 2.7 -0.1 0.5
v 2.7 -0.1 -0.3
v 2.7 -0.1 0.5
v 2.7 -0.1 -0.5
v 2.7 -0.1 -0.3
v 2.7 -0.1 -0.3
v -5.3 -0.1 -0.3
v 2.7 -0.1 0.5
v -5.3 -0.1 -0.3
v -5.3 -0.1 0.5
v 2.7 -0.1 0.5
v 3.9 4.9 0.7
v 2.5 4.9 0.9
v 4.1 4.9 0.9
v 2.7 4.9 0.7
v 3.9 4.9 0.7
v 4.1 4.9 -0.7
v 3.9 4.9 0.7
v 2.5 4.9 -0.7
v 2.7 4.9 0.7
v 3.9 4.9 -0.5
v 3.9 4.9 -0.5
v 3.9 4.9 0.7
v 2.7 4.9 -0.5
v 2.7 4.9 0.7
v 3.9 4.9 -0.5
v 2.7 4.9 -0.5
v -5.3 4.3 0.3
v -5.3 4.3 0.5
v 2.7 4.3 0.5
v 2.7 4.3 0.3
v -5.3 4.3 -0.3
v -5.3 4.3 -0.1
v 2.7 4.3 -0.1
v 2.7 4.3 -0.3
v 4.1 5.3 0.9
v 2.5 5.3 0.9
v 2.5 5.3 -0.7
v 4.1 5.3 -0.7
v 2.7 4.7 0.5
v -5.3 4.7 0.5
v -5.3 4.7 -0.3
v 2.7 4.7 -0.3
v 2.7 0.7 0.5
v -5.3 0.7 0.5
v -5.3 0.7 0.3
v 2.7 0.7 0.3
v 2.7 0.7 -0.1
v -5.3 0.7 -0.1
v -5.3 0.7 -0.3
v 2.7 0.7 -0.3
v 2.7 0.7 0.3
v -5.3 0.7 0.3
v -5.3 4.3 0.3
v 2.7 4.3 0.3
v 2.7 -0.1 0.5
v -5.3 -0.1 0.5
v -5.3 0.7 0.5
v 2.7 0.7 0.5
v 2.7 4.3 0.5
v -5.3 4.3 0.5
v -5.3 4.7 0.5
v 2.7 4.7 0.5
v 3.9 -0.1 0.7
v 2.7 -0.1 0.7
v 2.7 4.9 0.7
v 3.9 4.9 0.7
v 4.1 4.9 0.9
v 2.5 4.9 0.9
v 2.5 5.3 0.9
v 4.1 5.3 0.9
v -5.3 4.3 -0.1
v -5.3 0.7 -0.1
v 2.7 0.7 -0.1
v 2.7 4.3 -0.1
v 2.5 5.3 -0.7
v 2.5 4.9 -0.7
v 4.1 4.9 -0.7
v 4.1 5.3 -0.7
v 2.7 4.9 -0.5
v 2.7 -0.1 -0.5
v 3.9 -0.1 -0.5
v 3.9 4.9 -0.5
v -5.3 0.7 -0.3
v -5.3 -0.1 -0.3
v 2.7 -0.1 -0.3
v 2.7 0.7 -0.3
v -5.3 4.7 -0.3
v -5.3 4.3 -0.3
v 2.7 4.3 -0.3
v 2.7 4.7 -0.3
vn -1 0 0
vn -1 0 0
vn -1 0 0
vn -1 0 0
vn -1 0 0
vn -1 0 0
vn -1 0 0
vn -1 0 0
vn -1 0 0
vn -1 0 0
vn -1 0 0
vn -1 0 0
vn -1 0 0
vn -1 0 0
vn -1 0 0
vn -1 0 0
vn -1 0 0
vn -1 0 0
vn -1 0 0
vn -1 0 0
vn -1 0 0
vn -1 0 0
vn -1 0 0
vn -1 0 0
vn -1 0 0
vn -1 0 0
vn -1 0 0
vn -1 0 0
vn -1 0 0
vn -1 0 0
vn -1 0 0
vn -1 0 0
vn -1 0 0
vn -1 0 0
vn -1 0 0
vn -1 0 0
vn -1 0 0
vn -1 0 0
vn -1 0 0
vn -1 0 0
vn -1 0 0
vn -1 0 0
vn -1 0 0
vn -1 0 0
vn -1 0 0
vn -1 0 0
vn -1 0 0
vn -1 0 0
vn -1 0 0
vn -1 0 0
vn -1 0 0
vn -1 0 0
vn -1 0 0
vn -1 0 0
vn -1 0 0
vn 1 0 0
vn 1 0 0
vn 1 0 0
vn 1 0 0
vn 1 0 0
vn 1 0 0
vn 1 0 0
vn 1 0 0
vn 0 -1 0
vn 0 -1 0
vn 0 -1 0
vn 0 -1 0
vn 0 -1 0
vn 0 -1 0
vn 0 -1 0
vn 0 -1 0
vn 0 -1 0
vn 0 -1 0
vn 0 -1 0
vn 0 -1 0
vn 0 -1 0
vn 0 -1 0
vn 0 -1 0
vn 0 -1 0
vn 0 -1 0
vn 0 -1 0
vn 0 -1 0
vn 0 -1 0
vn 0 -1 0
vn 0 -1 0
vn 0 -1 0
vn 0 -1 0
vn 0 -1 0
vn 0 -1 0
vn 0 -1 0
vn 0 -1 0
vn 0 -1 0
vn 0 -1 0
vn 0 -1 0
vn 0 -1 0
vn 0 -1 0
vn 0 -1 0
vn 0 -1 0
vn 0 -1 0
vn 0 -1 0
vn 0 -1 0
vn 0 -1 0
vn 0 1 0
vn 0 1 0
vn 0 1 0
vn 0 1 0
vn 0 1 0
vn 0 1 0
vn 0 1 0
vn 0 1 0
vn 0 1 0
vn 0 1 0
vn 0 1 0
vn 0 1 0
vn 0 1 0
vn 0 1 0
vn 0 1 0
vn 0 1 0
vn 0 0 1
vn 0 0 1
vn 0 0 1
vn 0 0 1
vn 0 0 1
vn 0 0 1
vn 0 0 1
vn 0 0 1
vn 0 0 1
vn 0 0 1
vn 0 0 1
vn 0 0 1
vn 0 0 1
vn 0 0 1
vn 0 0 1
vn 0 0 1
vn 0 0 1
vn 0 0 1
vn 0 0 1
vn 0 0 1
vn 0 0 -1
vn 0 0 -1
vn 0 0 -1
vn 0 0 -1
vn 0 0 -1
vn 0 0 -1
vn 0 0 -1
vn 0 0 -1
vn 0 0 -1
vn 0 0 -1
vn 0 0 -1
vn 0 0 -1
vn 0 0 -1
vn 0 0 -1
vn 0 0 -1
vn 0 0 -1
vn 0 0 -1
vn 0 0 -1
vn 0 0 -1
vn 0 0 -1
vt 0.8710618 0.7997388
vt 0.7779112 0.6001306
vt 0.8888047 0.6001306
vt 0.888721 0.7998372
vt 0.7937154 0.7998372
vt 0.7779349 0.7998586
vt 0.8888103 0.7998586
vt 0.8887132 0.7998103
vt 0.81485 0.7998103
vt 0.8887443 0.6334201
vt 0.7778501 0.7997614
vt 0.8887936 0.6003087
vt 0.8887936 0.7598971
vt 0.8887132 0.6001897
vt 0.81485 0.6001897
vt 0.7937154 0.6001627
vt 0.888721 0.6001627
vt 0.8888047 0.7998694
vt 0.8710618 0.6002612
vt 0.7779349 0.6001414
vt 0.8888103 0.6001414
vt 0.7779349 0.6001414
vt 0.8888103 0.6001414
vt 0.8888103 0.7997171
vt 0.7778563 0.7998586
vt 0.7778563 0.6002828
vt 0.8887318 0.7998586
vt 0.7778563 0.7998586
vt 0.8888103 0.6001414
vt 0.1112682 0.6001414
vt 0.2221437 0.6001414
vt 0.2221437 0.7997171
vt 0.1111897 0.7998586
vt 0.1112682 0.6001414
vt 0.2221437 0.6001414
vt 0.2221437 0.7997171
vt 0.2220834 0.6500624
vt 0.1111805 0.7997814
vt 0.2221168 0.6003162
vt 0.2221168 0.7332701
vt 0.2221437 0.6002828
vt 0.2221437 0.7998586
vt 0.7778563 0.6002828
vt 0.8887318 0.7998586
vt 0.7778563 0.7998586
vt 0.8888103 0.6001414
vt 0.1112165 0.6003162
vt 0.2220114 0.799747
vt 0.1112165 0.7332701
vt 0.1111897 0.6002828
vt 0.1111897 0.7998586
vt 0.2221528 0.6001562
vt 0.1112499 0.6500624
vt 0.1111897 0.7997171
vt 0.1111897 0.6001414
vt 0.8888103 0.7997171
vt 0.8888103 0.6001414
vt 0.7779349 0.6001414
vt 0.7778563 0.7998586
vt 0.2221437 0.7997171
vt 0.2221437 0.6001414
vt 0.1112682 0.6001414
vt 0.1111897 0.7998586
vt 0.8888103 0.7997171
vt 0.8888103 0.6001414
vt 0.7779349 0.6001414
vt 0.7778501 0.7997614
vt 0.8887443 0.6334201
vt 0.8887936 0.7598971
vt 0.8887936 0.6003087
vt 0.8888103 0.7998586
vt 0.8888103 0.6002828
vt 0.4445156 0.6998463
vt 0.5554133 0.6998463
vt 0.4445156 0.3003073
vt 0.3305443 0.6996632
vt 0.3305443 0.3001684
vt 0.4443245 0.3001684
vt 0.1250554 0.7997342
vt 0.2220838 0.6001329
vt 0.1111942 0.6001329
vt 0.2062846 0.7998372
vt 0.111279 0.7998372
vt 0.1111849 0.7997509
vt 0.2220746 0.6250997
vt 0.2221484 0.7997509
vt 0.1112587 0.6250997
vt 0.1250554 0.6002657
vt 0.2221318 0.7713123
vt 0.2221318 0.6003022
vt 0.1112015 0.7713123
vt 0.1112015 0.6003022
vt 0.111279 0.6001627
vt 0.2062846 0.6001627
vt 0.2221437 0.7997171
vt 0.2221437 0.6001414
vt 0.1112682 0.6001414
vt 0.1111897 0.7998586
vt 0.2221437 0.7997171
vt 0.2221437 0.6001414
vt 0.1112682 0.6001414
vt 0.1111897 0.7998586
vt 0.1112682 0.6001414
vt 0.2221437 0.6001414
vt 0.2221437 0.7997171
vt 0.1111897 0.7998586
vt 0.1112682 0.6001414
vt 0.2221437 0.6001414
vt 0.2221437 0.7997171
vt 0.1111897 0.7998586
vt 0.1112682 0.6001414
vt 0.2221437 0.6001414
vt 0.2221437 0.7997171
vt 0.1111897 0.7998586
vt 0.1112682 0.6001414
vt 0.2221437 0.6001414
vt 0.2221437 0.7997171
vt 0.1111897 0.7998586
vt 0.7779349 0.6001414
vt 0.8888103 0.6001414
vt 0.8888103 0.7997171
vt 0.7778563 0.7998586
vt 0.1112682 0.6001414
vt 0.2221437 0.6001414
vt 0.2221437 0.7997171
vt 0.1111897 0.7998586
vt 0.1112682 0.6001414
vt 0.2221437 0.6001414
vt 0.2221437 0.7997171
vt 0.1111897 0.7998586
vt 0.7779349 0.6001414
vt 0.8888103 0.6001414
vt 0.8888103 0.7997171
vt 0.7778563 0.7998586
vt 0.1112682 0.6001414
vt 0.2221437 0.6001414
vt 0.2221437 0.7997171
vt 0.1111897 0.7998586
vt 0.8888103 0.7997171
vt 0.8888103 0.6001414
vt 0.7779349 0.6001414
vt 0.7778563 0.7998586
vt 0.2221437 0.7997171
vt 0.2221437 0.6001414
vt 0.1112682 0.6001414
vt 0.1111897 0.7998586
vt 0.8888103 0.7997171
vt 0.8888103 0.6001414
vt 0.7779349 0.6001414
vt 0.7778563 0.7998586
vt 0.2221437 0.7997171
vt 0.2221437 0.6001414
vt 0.1112682 0.6001414
vt 0.1111897 0.7998586
vt 0.2221437 0.7997171
vt 0.2221437 0.6001414
vt 0.1112682 0.6001414
vt 0.1111897 0.7998586
usemtl EGA_Wall_02_texture0
f 3/3/3 2/2/2 1/1/1
f 5/5/5 4/4/4 2/2/2
f 7/7/7 3/3/3 6/6/6
f 9/9/9 8/8/8 2/2/2
f 11/11/11 10/10/10 2/2/2
f 13/13/13 12/12/12 11/11/11
f 15/15/15 11/11/11 14/14/14
f 17/17/17 16/16/16 11/11/11
f 19/19/19 11/11/11 18/18/18
f 18/18/18 21/21/21 20/20/20
f 24/24/24 23/23/23 22/22/22
f 25/25/25 24/24/24 22/22/22
f 28/28/28 27/27/27 26/26/26
f 27/27/27 29/29/29 26/26/26
f 32/32/32 31/31/31 30/30/30
f 33/33/33 32/32/32 30/30/30
f 36/36/36 35/35/35 34/34/34
f 38/38/38 37/37/37 34/34/34
f 40/40/40 39/39/39 38/38/38
f 42/42/42 41/41/41 38/38/38
f 45/45/45 44/44/44 43/43/43
f 44/44/44 46/46/46 43/43/43
f 49/49/49 48/48/48 47/47/47
f 51/51/51 48/48/48 50/50/50
f 53/53/53 48/48/48 52/52/52
f 55/55/55 54/54/54 52/52/52
f 58/58/58 57/57/57 56/56/56
f 58/58/58 56/56/56 59/59/59
f 62/62/62 61/61/61 60/60/60
f 62/62/62 60/60/60 63/63/63
f 66/66/66 65/65/65 64/64/64
f 66/66/66 68/68/68 67/67/67
f 67/67/67 70/70/70 69/69/69
f 67/67/67 72/72/72 71/71/71
f 75/75/75 74/74/74 73/73/73
f 78/78/78 77/77/77 76/76/76
f 81/81/81 80/80/80 79/79/79
f 83/83/83 80/80/80 82/82/82
f 81/81/81 85/85/85 84/84/84
f 87/87/87 80/80/80 86/86/86
f 88/88/88 86/86/86 84/84/84
f 84/84/84 90/90/90 89/89/89
f 92/92/92 86/86/86 91/91/91
f 94/94/94 86/86/86 93/93/93
f 97/97/97 96/96/96 95/95/95
f 97/97/97 95/95/95 98/98/98
f 101/101/101 100/100/100 99/99/99
f 101/101/101 99/99/99 102/102/102
f 105/105/105 104/104/104 103/103/103
f 106/106/106 105/105/105 103/103/103
f 109/109/109 108/108/108 107/107/107
f 110/110/110 109/109/109 107/107/107
f 113/113/113 112/112/112 111/111/111
f 114/114/114 113/113/113 111/111/111
f 117/117/117 116/116/116 115/115/115
f 118/118/118 117/117/117 115/115/115
f 121/121/121 120/120/120 119/119/119
f 122/122/122 121/121/121 119/119/119
f 125/125/125 124/124/124 123/123/123
f 126/126/126 125/125/125 123/123/123
f 129/129/129 128/128/128 127/127/127
f 130/130/130 129/129/129 127/127/127
f 133/133/133 132/132/132 131/131/131
f 134/134/134 133/133/133 131/131/131
f 137/137/137 136/136/136 135/135/135
f 138/138/138 137/137/137 135/135/135
f 141/141/141 140/140/140 139/139/139
f 141/141/141 139/139/139 142/142/142
f 145/145/145 144/144/144 143/143/143
f 145/145/145 143/143/143 146/146/146
f 149/149/149 148/148/148 147/147/147
f 149/149/149 147/147/147 150/150/150
f 153/153/153 152/152/152 151/151/151
f 153/153/153 151/151/151 154/154/154
f 157/157/157 156/156/156 155/155/155
f 157/157/157 155/155/155 158/158/158
