mtllib EGA_Plaza_11.mtl
g default
v -0.1 0.5 -0.1
v -0.1 -0.1 -0.1
v -0.1 -0.1 -0.5
v -0.1 0.5 -0.5
v -0.3 0.7 -0.3
v -0.3 0.5 -0.3
v -0.3 0.5 -0.5
v -0.3 0.7 -0.5
v -0.5 0.7 0.7
v -0.5 -0.1 0.7
v -0.5 0.5 -0.1
v -0.5 0.5 -0.1
v -0.5 -0.1 0.7
v -0.5 -0.1 -0.1
v -0.5 0.7 0.7
v -0.5 0.5 -0.1
v -0.5 0.7 -0.3
v -0.5 0.5 -0.1
v -0.5 0.5 -0.3
v 0.7 -0.1 -0.5
v 0.7 -0.1 0.7
v 0.7 0.7 0.7
v 0.7 0.7 -0.5
v -0.1 -0.1 -0.1
v -0.5 -0.1 0.7
v 0.7 -0.1 0.7
v -0.5 -0.1 -0.1
v -0.1 -0.1 -0.1
v 0.7 -0.1 -0.5
v -0.1 -0.1 -0.1
v -0.1 -0.1 -0.5
v -0.1 -0.1 -0.1
v -0.3 0.5 -0.3
v -0.5 0.5 -0.1
v -0.1 0.5 -0.1
v -0.5 0.5 -0.3
v -0.3 0.5 -0.3
v -0.1 0.5 -0.5
v -0.3 0.5 -0.3
v -0.3 0.5 -0.5
v -0.3 0.5 -0.3
v 0.7 0.7 0.7
v -0.5 0.7 0.7
v -0.3 0.7 -0.3
v -0.3 0.7 -0.3
v -0.5 0.7 -0.3
v -0.3 0.7 -0.3
v 0.7 0.7 -0.5
v -0.3 0.7 -0.3
v -0.3 0.7 -0.5
v 0.7 -0.1 0.7
v -0.5 -0.1 0.7
v -0.5 0.7 0.7
v 0.7 0.7 0.7
v -0.5 0.5 -0.1
v -0.5 -0.1 -0.1
v -0.1 -0.1 -0.1
v -0.1 0.5 -0.1
v -0.1 0.5 -0.5
v -0.1 -0.1 -0.5
v 0.7 -0.1 -0.5
v 0.7 0.7 -0.5
v -0.1 0.5 -0.5
v 0.7 -0.1 -0.5
v 0.7 0.7 -0.5
v -0.3 0.7 -0.5
v -0.1 0.5 -0.5
v -0.3 0.5 -0.5
v -0.1 0.5 -0.5
v -0.5 0.7 -0.3
v -0.5 0.5 -0.3
v -0.3 0.5 -0.3
v -0.3 0.7 -0.3
vn -1 0 0
vn -1 0 0
vn -1 0 0
vn -1 0 0
vn -1 0 0
vn -1 0 0
vn -1 0 0
vn -1 0 0
vn -1 0 0
vn -1 0 0
vn -1 0 0
vn -1 0 0
vn -1 0 0
vn -1 0 0
vn -1 0 0
vn -1 0 0
vn -1 0 0
vn -1 0 0
vn -1 0 0
vn 1 0 0
vn 1 0 0
vn 1 0 0
vn 1 0 0
vn 0 -1 0
vn 0 -1 0
vn 0 -1 0
vn 0 -1 0
vn 0 -1 0
vn 0 -1 0
vn 0 -1 0
vn 0 -1 0
vn 0 -1 0
vn 0 -1 0
vn 0 -1 0
vn 0 -1 0
vn 0 -1 0
vn 0 -1 0
vn 0 -1 0
vn 0 -1 0
vn 0 -1 0
vn 0 -1 0
vn 0 1 0
vn 0 1 0
vn 0 1 0
vn 0 1 0
vn 0 1 0
vn 0 1 0
vn 0 1 0
vn 0 1 0
vn 0 1 0
vn 0 0 1
vn 0 0 1
vn 0 0 1
vn 0 0 1
vn 0 0 -1
vn 0 0 -1
vn 0 0 -1
vn 0 0 -1
vn 0 0 -1
vn 0 0 -1
vn 0 0 -1
vn 0 0 -1
vn 0 0 -1
vn 0 0 -1
vn 0 0 -1
vn 0 0 -1
vn 0 0 -1
vn 0 0 -1
vn 0 0 -1
vn 0 0 -1
vn 0 0 -1
vn 0 0 -1
vn 0 0 -1
vt 0.6669024 0.333569
vt 0.8332155 0.333569
vt 0.8332155 0.6661953
vt 0.6667845 0.666431
vt 0.1669024 0.333569
vt 0.3332155 0.333569
vt 0.3332155 0.6661953
vt 0.1667845 0.666431
vt 0.4445746 0.3335416
vt 0.6664845 0.3335416
vt 0.500052 0.6662502
vt 0.6669024 0.666431
vt 0.8332155 0.3338047
vt 0.8332155 0.666431
vt 0.1667734 0.3337174
vt 0.3331199 0.5998719
vt 0.1667734 0.6664106
vt 0.3332155 0.3338047
vt 0.3332155 0.666431
vt 0.6665488 0.6661953
vt 0.6665488 0.333569
vt 0.4446802 0.333569
vt 0.4445623 0.666431
vt 0.7777445 0.6662667
vt 0.8332 0.3335333
vt 0.6668333 0.3335333
vt 0.8332155 0.666431
vt 0.6669024 0.666431
vt 0.6667666 0.6664
vt 0.8331333 0.5554889
vt 0.8332155 0.666431
vt 0.8332155 0.3338047
vt 0.25 0.6662968
vt 0.3331947 0.3335182
vt 0.1668053 0.3335182
vt 0.3332155 0.666431
vt 0.1669024 0.666431
vt 0.1667591 0.6663893
vt 0.3331484 0.5
vt 0.3332155 0.666431
vt 0.3332155 0.3338047
vt 0.1668655 0.3335503
vt 0.3332068 0.3335503
vt 0.3054833 0.6662328
vt 0.1669024 0.666431
vt 0.3332155 0.666431
vt 0.3331164 0.6109665
vt 0.1667751 0.6664136
vt 0.3332155 0.3338047
vt 0.3332155 0.666431
vt 0.6665488 0.6661953
vt 0.6665488 0.333569
vt 0.4446802 0.333569
vt 0.4445623 0.666431
vt 0.8332155 0.6661953
vt 0.8332155 0.333569
vt 0.6669024 0.333569
vt 0.6667845 0.666431
vt 0.8332155 0.6661953
vt 0.8332155 0.333569
vt 0.6669024 0.333569
vt 0.4445746 0.6664584
vt 0.500052 0.3337498
vt 0.6664845 0.6664584
vt 0.1668587 0.6664532
vt 0.3332053 0.6664532
vt 0.299936 0.3337601
vt 0.3332155 0.333569
vt 0.1669024 0.333569
vt 0.3332155 0.6661953
vt 0.3332155 0.333569
vt 0.1669024 0.333569
vt 0.1667845 0.666431
usemtl EGA_Plaza_11_texture0
f 3/3/3 2/2/2 1/1/1
f 4/4/4 3/3/3 1/1/1
f 7/7/7 6/6/6 5/5/5
f 8/8/8 7/7/7 5/5/5
f 11/11/11 10/10/10 9/9/9
f 14/14/14 13/13/13 12/12/12
f 17/17/17 16/16/16 15/15/15
f 19/19/19 18/18/18 17/17/17
f 22/22/22 21/21/21 20/20/20
f 22/22/22 20/20/20 23/23/23
f 26/26/26 25/25/25 24/24/24
f 28/28/28 25/25/25 27/27/27
f 26/26/26 30/30/30 29/29/29
f 29/29/29 32/32/32 31/31/31
f 35/35/35 34/34/34 33/33/33
f 37/37/37 34/34/34 36/36/36
f 35/35/35 39/39/39 38/38/38
f 38/38/38 41/41/41 40/40/40
f 44/44/44 43/43/43 42/42/42
f 46/46/46 43/43/43 45/45/45
f 48/48/48 47/47/47 42/42/42
f 50/50/50 49/49/49 48/48/48
f 53/53/53 52/52/52 51/51/51
f 54/54/54 53/53/53 51/51/51
f 57/57/57 56/56/56 55/55/55
f 57/57/57 55/55/55 58/58/58
f 61/61/61 60/60/60 59/59/59
f 64/64/64 63/63/63 62/62/62
f 67/67/67 66/66/66 65/65/65
f 69/69/69 68/68/68 66/66/66
f 72/72/72 71/71/71 70/70/70
f 72/72/72 70/70/70 73/73/73
