mtllib EGA_Sidewalk_37.mtl
g default
v -2.9 0.3 2.9
v -2.9 -0.1 2.9
v -2.9 -0.1 -2.9
v -2.9 0.3 -2.9
v 2.9 -0.1 -2.9
v 2.9 -0.1 2.9
v 2.9 0.3 2.9
v 2.9 0.3 -2.9
v -2.9 -0.1 -2.9
v -2.9 -0.1 2.9
v 2.9 -0.1 2.9
v 2.9 -0.1 -2.9
v -2.9 -0.1 -2.9
v 2.9 -0.1 2.9
v 2.9 0.3 2.9
v -2.9 0.3 2.9
v -2.9 0.3 -2.9
v 2.9 0.3 2.9
v -2.9 0.3 -2.9
v 2.9 0.3 -2.9
v 2.9 -0.1 2.9
v -2.9 -0.1 2.9
v -2.9 0.3 2.9
v 2.9 0.3 2.9
v -2.9 0.3 -2.9
v -2.9 -0.1 -2.9
v 2.9 -0.1 -2.9
v 2.9 0.3 -2.9
vn -1 0 0
vn -1 0 0
vn -1 0 0
vn -1 0 0
vn 1 0 0
vn 1 0 0
vn 1 0 0
vn 1 0 0
vn 0 -1 0
vn 0 -1 0
vn 0 -1 0
vn 0 -1 0
vn 0 -1 0
vn 0 -1 0
vn 0 1 0
vn 0 1 0
vn 0 1 0
vn 0 1 0
vn 0 1 0
vn 0 1 0
vn 0 0 1
vn 0 0 1
vn 0 0 1
vn 0 0 1
vn 0 0 -1
vn 0 0 -1
vn 0 0 -1
vn 0 0 -1
vt 0.937521 0.06063461
vt 0.9687395 0.06063461
vt 0.9687395 0.9393368
vt 0.9375105 0.9393654
vt 0.9687279 0.9393511
vt 0.9687279 0.9091123
vt 0.9375442 0.9091123
vt 0.9375221 0.9393725
vt 0.9687279 0.9393511
vt 0.9687279 0.06062749
vt 0.0625442 0.06062749
vt 0.0312721 0.9696755
vt 0.0312721 0.09095195
vt 0.9374558 0.9696755
vt 0.0625442 0.06062749
vt 0.9687279 0.06062749
vt 0.9687279 0.9393511
vt 0.9374558 0.9696755
vt 0.0312721 0.09095195
vt 0.0312721 0.9696755
vt 0.182541 0.03032589
vt 0.2187295 0.03032589
vt 0.2187295 0.06056034
vt 0.1825205 0.0605832
vt 0.9687279 0.9393511
vt 0.9687279 0.9091123
vt 0.9375442 0.9091123
vt 0.9375221 0.9393725
usemtl EGA_Sidewalk_37_texture0
f 3/3/3 2/2/2 1/1/1
f 4/4/4 3/3/3 1/1/1
f 7/7/7 6/6/6 5/5/5
f 7/7/7 5/5/5 8/8/8
f 11/11/11 10/10/10 9/9/9
f 14/14/14 13/13/13 12/12/12
f 17/17/17 16/16/16 15/15/15
f 20/20/20 19/19/19 18/18/18
f 23/23/23 22/22/22 21/21/21
f 24/24/24 23/23/23 21/21/21
f 27/27/27 26/26/26 25/25/25
f 27/27/27 25/25/25 28/28/28
