mtllib EGA_Ramp_01.mtl
g default
v -9.900001 0.3 3.1
v -9.900001 -0.1 3.1
v -9.900001 0.1 -2.7
v -9.900001 0.1 -2.7
v -9.900001 -0.1 -2.9
v -9.900001 0.1 -2.7
v -9.900001 0.0997408 -2.899852
v -9.900001 0.1 -2.7
v -9.900001 0.1 -2.9
v 9.900001 0.1 -2.7
v 9.900001 -0.1 3.1
v 9.900001 0.3 3.1
v 9.900001 -0.1 -2.9
v 9.900001 0.1 -2.7
v 9.900001 0.09964648 -2.899829
v 9.900001 0.1 -2.7
v 9.900001 0.1 -2.9
v 9.900001 0.1 -2.7
v -9.900001 -0.1 -2.9
v -9.900001 -0.1 3.1
v 9.900001 -0.1 3.1
v 9.900001 -0.1 -2.9
v 9.900001 0.1 -2.7
v -9.900001 0.1 -2.7
v -9.900001 0.1 -2.9
v 9.900001 0.1 -2.9
v 9.900001 0.3 3.1
v -9.900001 0.3 3.1
v -9.900001 0.0997408 -2.899852
v 9.900001 0.09964648 -2.899829
v 9.900001 -0.1 3.1
v -9.900001 -0.1 3.1
v -9.900001 0.3 3.1
v 9.900001 0.3 3.1
v -9.900001 0.1 -2.9
v -9.900001 -0.1 -2.9
v 9.900001 -0.1 -2.9
v 9.900001 0.1 -2.9
v -9.900001 0.0997408 -2.899852
v -9.900001 0.1 -2.7
v 9.900001 0.1 -2.7
v 9.900001 0.09964648 -2.899829
vn -1 0 0
vn -1 0 0
vn -1 0 0
vn -1 0 0
vn -1 0 0
vn -1 0 0
vn -1 0 0
vn -1 0 0
vn -1 0 0
vn 1 0 0
vn 1 0 0
vn 1 0 0
vn 1 0 0
vn 1 0 0
vn 1 0 0
vn 1 0 0
vn 1 0 0
vn 1 0 0
vn 0 -1 0
vn 0 -1 0
vn 0 -1 0
vn 0 -1 0
vn 0 1 0
vn 0 1 0
vn 0 1 0
vn 0 1 0
vn 0 1 0
vn 0 1 0
vn 0 1 0
vn 0 1 0
vn 0 0 1
vn 0 0 1
vn 0 0 1
vn 0 0 1
vn 0 0 -1
vn 0 0 -1
vn 0 0 -1
vn 0 0 -1
vn 0 0 -1
vn 0 0 -1
vn 0 0 -1
vn 0 0 -1
vt 0.3336107 0.3335182
vt 0.6663893 0.3335182
vt 0.5 0.6662968
vt 0.3337969 0.6553392
vt 0.6664349 0.6664271
vt 0.6661953 0.666431
vt 0.333569 0.666431
vt 0.333569 0.3338047
vt 0.333569 0.666431
vt 0.5 0.6662968
vt 0.6663893 0.3335182
vt 0.3336107 0.3335182
vt 0.6664349 0.6664271
vt 0.3337969 0.6553392
vt 0.333569 0.666431
vt 0.6661953 0.666431
vt 0.333569 0.666431
vt 0.333569 0.3338047
vt 0.666431 0.6661953
vt 0.666431 0.333569
vt 0.3338047 0.333569
vt 0.333569 0.666431
vt 0.3338047 0.333569
vt 0.666431 0.333569
vt 0.666431 0.6661953
vt 0.333569 0.666431
vt 0.3338047 0.333569
vt 0.666431 0.333569
vt 0.666431 0.6661953
vt 0.333569 0.666431
vt 0.3338047 0.333569
vt 0.666431 0.333569
vt 0.666431 0.6661953
vt 0.333569 0.666431
vt 0.666431 0.6661953
vt 0.666431 0.333569
vt 0.3338047 0.333569
vt 0.333569 0.666431
vt 0.666431 0.6661953
vt 0.666431 0.333569
vt 0.3338047 0.333569
vt 0.333569 0.666431
usemtl EGA_Ramp_01_texture0
f 3/3/3 2/2/2 1/1/1
f 5/5/5 2/2/2 4/4/4
f 7/7/7 6/6/6 1/1/1
f 9/9/9 5/5/5 8/8/8
f 12/12/12 11/11/11 10/10/10
f 14/14/14 11/11/11 13/13/13
f 12/12/12 16/16/16 15/15/15
f 18/18/18 13/13/13 17/17/17
f 21/21/21 20/20/20 19/19/19
f 21/21/21 19/19/19 22/22/22
f 25/25/25 24/24/24 23/23/23
f 26/26/26 25/25/25 23/23/23
f 29/29/29 28/28/28 27/27/27
f 30/30/30 29/29/29 27/27/27
f 33/33/33 32/32/32 31/31/31
f 34/34/34 33/33/33 31/31/31
f 37/37/37 36/36/36 35/35/35
f 37/37/37 35/35/35 38/38/38
f 41/41/41 40/40/40 39/39/39
f 41/41/41 39/39/39 42/42/42
