mtllib EGA_Sidewalk_17.mtl
g default
v -4.9 0.3 3.1
v -4.9 -0.1 3.1
v -4.9 -0.1 -2.9
v -4.9 0.3 -2.9
v 4.9 -0.1 -2.9
v 4.9 -0.1 3.1
v 4.9 0.3 3.1
v 4.9 0.3 -2.9
v -4.9 -0.1 -2.9
v -4.9 -0.1 3.1
v 4.9 -0.1 3.1
v 4.9 -0.1 -2.9
v -4.9 -0.1 -2.9
v 4.9 -0.1 3.1
v 4.9 0.3 3.1
v -4.9 0.3 3.1
v -4.9 0.3 -2.9
v 4.9 0.3 3.1
v -4.9 0.3 -2.9
v 4.9 0.3 -2.9
v 4.9 -0.1 3.1
v -4.9 -0.1 3.1
v -4.9 0.3 3.1
v 4.9 0.3 3.1
v -4.9 0.3 -2.9
v -4.9 -0.1 -2.9
v 4.9 -0.1 -2.9
v 4.9 0.3 -2.9
vn -1 0 0
vn -1 0 0
vn -1 0 0
vn -1 0 0
vn 1 0 0
vn 1 0 0
vn 1 0 0
vn 1 0 0
vn 0 -1 0
vn 0 -1 0
vn 0 -1 0
vn 0 -1 0
vn 0 -1 0
vn 0 -1 0
vn 0 1 0
vn 0 1 0
vn 0 1 0
vn 0 1 0
vn 0 1 0
vn 0 1 0
vn 0 0 1
vn 0 0 1
vn 0 0 1
vn 0 0 1
vn 0 0 -1
vn 0 0 -1
vn 0 0 -1
vn 0 0 -1
vt 0.9423206 0.02705249
vt 0.961532 0.02705249
vt 0.961532 0.8377869
vt 0.9423141 0.8378124
vt 0.038447 0.8689875
vt 0.038447 0.8378555
vt 0.01925985 0.8378555
vt 0.01924531 0.8690052
vt 0.9807554 0.8378001
vt 0.9807554 0.0270459
vt 0.03848907 0.0270459
vt 0.0384753 0.9729541
vt 0.9807417 0.9729541
vt 0.0384753 0.1621999
vt 0.03848907 0.0270459
vt 0.9807554 0.0270459
vt 0.9807554 0.8378001
vt 0.0384753 0.1621999
vt 0.9807417 0.9729541
vt 0.0384753 0.9729541
vt 0.01925797 0.8108299
vt 0.03844794 0.8108299
vt 0.03844794 0.8377996
vt 0.01924437 0.8378187
vt 0.9615248 0.8377996
vt 0.9615248 0.8108299
vt 0.9423349 0.8108299
vt 0.9423213 0.8378187
usemtl EGA_Sidewalk_17_texture0
f 3/3/3 2/2/2 1/1/1
f 4/4/4 3/3/3 1/1/1
f 7/7/7 6/6/6 5/5/5
f 7/7/7 5/5/5 8/8/8
f 11/11/11 10/10/10 9/9/9
f 14/14/14 13/13/13 12/12/12
f 17/17/17 16/16/16 15/15/15
f 20/20/20 19/19/19 18/18/18
f 23/23/23 22/22/22 21/21/21
f 24/24/24 23/23/23 21/21/21
f 27/27/27 26/26/26 25/25/25
f 27/27/27 25/25/25 28/28/28
