mtllib EGA_Sidewalk_20.mtl
g default
v -2.9 0.3 3.1
v -2.9 -0.1 3.1
v -2.9 -0.1 -2.9
v -2.9 0.3 -2.9
v 3.1 -0.1 -2.9
v 3.1 -0.1 3.1
v 3.1 0.3 3.1
v 3.1 0.3 -2.9
v -2.9 -0.1 -2.9
v -2.9 -0.1 3.1
v 3.1 -0.1 3.1
v 3.1 -0.1 -2.9
v -2.9 -0.1 -2.9
v 3.1 -0.1 3.1
v 3.1 0.3 3.1
v -2.9 0.3 3.1
v -2.9 0.3 -2.9
v 3.1 0.3 3.1
v -2.9 0.3 -2.9
v 3.1 0.3 -2.9
v 3.1 -0.1 3.1
v -2.9 -0.1 3.1
v -2.9 0.3 3.1
v 3.1 0.3 3.1
v -2.9 0.3 -2.9
v -2.9 -0.1 -2.9
v 3.1 -0.1 -2.9
v 3.1 0.3 -2.9
vn -1 0 0
vn -1 0 0
vn -1 0 0
vn -1 0 0
vn 1 0 0
vn 1 0 0
vn 1 0 0
vn 1 0 0
vn 0 -1 0
vn 0 -1 0
vn 0 -1 0
vn 0 -1 0
vn 0 -1 0
vn 0 -1 0
vn 0 1 0
vn 0 1 0
vn 0 1 0
vn 0 1 0
vn 0 1 0
vn 0 1 0
vn 0 0 1
vn 0 0 1
vn 0 0 1
vn 0 0 1
vn 0 0 -1
vn 0 0 -1
vn 0 0 -1
vn 0 0 -1
vt 0.2187942 0.0625221
vt 0.2499779 0.0625221
vt 0.2499779 0.0937058
vt 0.2187721 0.0937279
vt 0.9062264 0.6610168
vt 0.9062264 0.6250204
vt 0.8750473 0.6250204
vt 0.8750236 0.6610373
vt 0.1885555 0.0937058
vt 0.1885555 0.06144451
vt 0.1562942 0.06144451
vt 0.0312721 0.9687279
vt 0.9687058 0.9687279
vt 0.0312721 0.03129419
vt 0.1562942 0.06144451
vt 0.1885555 0.06144451
vt 0.1885555 0.0937058
vt 0.0312721 0.03129419
vt 0.9687058 0.9687279
vt 0.0312721 0.9687279
vt 0.2187942 0.0625221
vt 0.2499779 0.0625221
vt 0.2499779 0.0937058
vt 0.2187721 0.0937279
vt 0.03127944 0.7187291
vt 0.03127944 0.6875105
vt 0.9686911 0.6875105
vt 0.9687206 0.7187395
usemtl EGA_Sidewalk_20_texture0
f 3/3/3 2/2/2 1/1/1
f 4/4/4 3/3/3 1/1/1
f 7/7/7 6/6/6 5/5/5
f 7/7/7 5/5/5 8/8/8
f 11/11/11 10/10/10 9/9/9
f 14/14/14 13/13/13 12/12/12
f 17/17/17 16/16/16 15/15/15
f 20/20/20 19/19/19 18/18/18
f 23/23/23 22/22/22 21/21/21
f 24/24/24 23/23/23 21/21/21
f 27/27/27 26/26/26 25/25/25
f 27/27/27 25/25/25 28/28/28
