mtllib EGA_Sidewalk_36.mtl
g default
v -7.5 0.3 3.1
v -7.5 -0.1 3.1
v -7.5 -0.1 -2.9
v -7.5 0.3 -2.9
v 7.7 -0.1 -2.9
v 7.7 -0.1 3.1
v 7.7 0.3 3.1
v 7.7 0.3 -2.9
v -7.5 -0.1 -2.9
v -7.5 -0.1 3.1
v 7.7 -0.1 3.1
v 7.7 -0.1 -2.9
v -7.5 -0.1 -2.9
v 7.7 -0.1 3.1
v 7.7 0.3 3.1
v -7.5 0.3 3.1
v -7.5 0.3 -2.9
v 7.7 0.3 3.1
v -7.5 0.3 -2.9
v 7.7 0.3 -2.9
v 7.7 -0.1 3.1
v -7.5 -0.1 3.1
v -7.5 0.3 3.1
v 7.7 0.3 3.1
v -7.5 0.3 -2.9
v -7.5 -0.1 -2.9
v 7.7 -0.1 -2.9
v 7.7 0.3 -2.9
vn -1 0 0
vn -1 0 0
vn -1 0 0
vn -1 0 0
vn 1 0 0
vn 1 0 0
vn 1 0 0
vn 1 0 0
vn 0 -1 0
vn 0 -1 0
vn 0 -1 0
vn 0 -1 0
vn 0 -1 0
vn 0 -1 0
vn 0 1 0
vn 0 1 0
vn 0 1 0
vn 0 1 0
vn 0 1 0
vn 0 1 0
vn 0 0 1
vn 0 0 1
vn 0 0 1
vn 0 0 1
vn 0 0 -1
vn 0 0 -1
vn 0 0 -1
vn 0 0 -1
vt 0.9512277 0.02943948
vt 0.9634106 0.02943948
vt 0.9634106 0.9117093
vt 0.9512236 0.911737
vt 0.01220434 0.05433714
vt 0.01220434 0.08821605
vt 0.0243718 0.08821605
vt 0.02438102 0.05431789
vt 0.9877961 0.9117239
vt 0.9877961 0.02943216
vt 0.06099319 0.02943216
vt 0.01220391 0.9705678
vt 0.9390068 0.9705678
vt 0.01220391 0.08827608
vt 0.06099319 0.02943216
vt 0.9877961 0.02943216
vt 0.9877961 0.9117239
vt 0.01220391 0.08827608
vt 0.9390068 0.9705678
vt 0.01220391 0.9705678
vt 0.04879773 0.02943256
vt 0.06096699 0.02943256
vt 0.06096699 0.05878193
vt 0.04878911 0.05880273
vt 0.963406 0.9117231
vt 0.963406 0.8823738
vt 0.9512368 0.8823738
vt 0.9512281 0.9117439
usemtl EGA_Sidewalk_36_texture0
f 3/3/3 2/2/2 1/1/1
f 4/4/4 3/3/3 1/1/1
f 7/7/7 6/6/6 5/5/5
f 7/7/7 5/5/5 8/8/8
f 11/11/11 10/10/10 9/9/9
f 14/14/14 13/13/13 12/12/12
f 17/17/17 16/16/16 15/15/15
f 20/20/20 19/19/19 18/18/18
f 23/23/23 22/22/22 21/21/21
f 24/24/24 23/23/23 21/21/21
f 27/27/27 26/26/26 25/25/25
f 27/27/27 25/25/25 28/28/28
