mtllib EGA_Sidewalk_43.mtl
g default
v -4.9 0.3 3.1
v -4.9 -0.1 3.1
v -4.9 -0.1 -2.9
v -4.9 0.3 -2.9
v 4.9 -0.1 -2.9
v 4.9 -0.1 3.1
v 4.9 0.3 3.1
v 4.9 0.3 -2.9
v -4.9 -0.1 -2.9
v -4.9 -0.1 3.1
v 4.9 -0.1 3.1
v 4.9 -0.1 -2.9
v -4.9 -0.1 -2.9
v 4.9 -0.1 3.1
v 4.9 0.3 3.1
v -4.9 0.3 3.1
v -4.9 0.3 -2.9
v 4.9 0.3 3.1
v -4.9 0.3 -2.9
v 4.9 0.3 -2.9
v 4.9 -0.1 3.1
v -4.9 -0.1 3.1
v -4.9 0.3 3.1
v 4.9 0.3 3.1
v -4.9 0.3 -2.9
v -4.9 -0.1 -2.9
v 4.9 -0.1 -2.9
v 4.9 0.3 -2.9
vn -1 0 0
vn -1 0 0
vn -1 0 0
vn -1 0 0
vn 1 0 0
vn 1 0 0
vn 1 0 0
vn 1 0 0
vn 0 -1 0
vn 0 -1 0
vn 0 -1 0
vn 0 -1 0
vn 0 -1 0
vn 0 -1 0
vn 0 1 0
vn 0 1 0
vn 0 1 0
vn 0 1 0
vn 0 1 0
vn 0 1 0
vn 0 0 1
vn 0 0 1
vn 0 0 1
vn 0 0 1
vn 0 0 -1
vn 0 0 -1
vn 0 0 -1
vn 0 0 -1
vt 0.9411896 0.02705249
vt 0.9607778 0.02705249
vt 0.9607778 0.8377869
vt 0.941183 0.8378124
vt 0.8431224 0.8689875
vt 0.8431224 0.8378555
vt 0.823559 0.8378555
vt 0.8235443 0.8690052
vt 0.9803782 0.8378001
vt 0.9803782 0.0270459
vt 0.01963591 0.0270459
vt 0.01962188 0.9729541
vt 0.9803641 0.9729541
vt 0.01962188 0.1621999
vt 0.01963591 0.0270459
vt 0.9803782 0.0270459
vt 0.9803782 0.8378001
vt 0.01962188 0.1621999
vt 0.9803641 0.9729541
vt 0.01962188 0.9729541
vt 0.01963557 0.1351542
vt 0.03920182 0.1351542
vt 0.03920182 0.1621239
vt 0.01962171 0.1621431
vt 0.9607704 0.8377996
vt 0.9607704 0.8108299
vt 0.9412042 0.8108299
vt 0.9411904 0.8378187
usemtl EGA_Sidewalk_43_texture0
f 3/3/3 2/2/2 1/1/1
f 4/4/4 3/3/3 1/1/1
f 7/7/7 6/6/6 5/5/5
f 7/7/7 5/5/5 8/8/8
f 11/11/11 10/10/10 9/9/9
f 14/14/14 13/13/13 12/12/12
f 17/17/17 16/16/16 15/15/15
f 20/20/20 19/19/19 18/18/18
f 23/23/23 22/22/22 21/21/21
f 24/24/24 23/23/23 21/21/21
f 27/27/27 26/26/26 25/25/25
f 27/27/27 25/25/25 28/28/28
