mtllib EGA_Plaza_03.mtl
g default
v -0.3 2.1 0.5
v -0.3 -0.1 0.5
v -0.3 -0.1 -0.3
v -0.3 2.1 -0.3
v -0.5 2.3 0.5
v -0.5 2.1 0.5
v -0.5 2.1 -0.5
v -0.5 2.3 -0.5
v 0.5 2.1 -0.3
v 0.5 -0.1 0.5
v 0.5 2.3 0.5
v 0.5 -0.1 -0.3
v 0.5 -0.1 0.5
v 0.5 2.1 -0.3
v 0.5 2.3 -0.5
v 0.5 2.1 -0.3
v 0.5 2.3 0.5
v 0.5 2.1 -0.5
v 0.5 2.1 -0.3
v -0.3 -0.1 -0.3
v -0.3 -0.1 0.5
v 0.5 -0.1 0.5
v 0.5 -0.1 -0.3
v 0.5 2.1 -0.3
v 0.5 2.1 -0.5
v -0.3 2.1 -0.3
v -0.3 2.1 -0.3
v -0.5 2.1 -0.5
v -0.3 2.1 -0.3
v -0.5 2.1 0.5
v -0.3 2.1 0.5
v -0.3 2.1 -0.3
v 0.5 2.3 0.5
v -0.5 2.3 0.5
v -0.5 2.3 -0.5
v 0.5 2.3 -0.5
v 0.5 -0.1 0.5
v -0.3 -0.1 0.5
v -0.3 2.1 0.5
v 0.5 -0.1 0.5
v -0.3 2.1 0.5
v 0.5 2.3 0.5
v -0.3 2.1 0.5
v -0.5 2.3 0.5
v 0.5 2.3 0.5
v -0.3 2.1 0.5
v -0.5 2.1 0.5
v -0.5 2.3 -0.5
v -0.5 2.1 -0.5
v 0.5 2.1 -0.5
v 0.5 2.3 -0.5
v -0.3 2.1 -0.3
v -0.3 -0.1 -0.3
v 0.5 -0.1 -0.3
v 0.5 2.1 -0.3
vn -1 0 0
vn -1 0 0
vn -1 0 0
vn -1 0 0
vn -1 0 0
vn -1 0 0
vn -1 0 0
vn -1 0 0
vn 1 0 0
vn 1 0 0
vn 1 0 0
vn 1 0 0
vn 1 0 0
vn 1 0 0
vn 1 0 0
vn 1 0 0
vn 1 0 0
vn 1 0 0
vn 1 0 0
vn 0 -1 0
vn 0 -1 0
vn 0 -1 0
vn 0 -1 0
vn 0 -1 0
vn 0 -1 0
vn 0 -1 0
vn 0 -1 0
vn 0 -1 0
vn 0 -1 0
vn 0 -1 0
vn 0 -1 0
vn 0 -1 0
vn 0 1 0
vn 0 1 0
vn 0 1 0
vn 0 1 0
vn 0 0 1
vn 0 0 1
vn 0 0 1
vn 0 0 1
vn 0 0 1
vn 0 0 1
vn 0 0 1
vn 0 0 1
vn 0 0 1
vn 0 0 1
vn 0 0 1
vn 0 0 -1
vn 0 0 -1
vn 0 0 -1
vn 0 0 -1
vn 0 0 -1
vn 0 0 -1
vn 0 0 -1
vn 0 0 -1
vt 0.6669024 0.333569
vt 0.8332155 0.333569
vt 0.8332155 0.6661953
vt 0.6667845 0.666431
vt 0.1669024 0.333569
vt 0.3332155 0.333569
vt 0.3332155 0.6661953
vt 0.1667845 0.666431
vt 0.5000851 0.6661678
vt 0.6664711 0.3335828
vt 0.484959 0.3335828
vt 0.8332155 0.666431
vt 0.8332155 0.3338047
vt 0.6669024 0.666431
vt 0.1667734 0.6664106
vt 0.3331199 0.5998719
vt 0.1667734 0.3337174
vt 0.3332155 0.666431
vt 0.3332155 0.3338047
vt 0.8332155 0.6661953
vt 0.8332155 0.333569
vt 0.6669024 0.333569
vt 0.6667845 0.666431
vt 0.1667845 0.333569
vt 0.1667845 0.6661953
vt 0.3330976 0.333569
vt 0.299936 0.3337601
vt 0.3332053 0.6664532
vt 0.1668801 0.5998719
vt 0.3332266 0.3337174
vt 0.1667845 0.333569
vt 0.1667845 0.6661953
vt 0.1669024 0.333569
vt 0.3332155 0.333569
vt 0.3332155 0.6661953
vt 0.1667845 0.666431
vt 0.6669024 0.333569
vt 0.8332155 0.333569
vt 0.8332155 0.6661953
vt 0.6664711 0.6664172
vt 0.5000851 0.3338322
vt 0.484959 0.6664172
vt 0.299936 0.3337601
vt 0.3332053 0.6664532
vt 0.1668587 0.6664532
vt 0.1669024 0.333569
vt 0.3332155 0.333569
vt 0.3332155 0.6661953
vt 0.3332155 0.333569
vt 0.1669024 0.333569
vt 0.1667845 0.666431
vt 0.8332155 0.6661953
vt 0.8332155 0.333569
vt 0.6669024 0.333569
vt 0.6667845 0.666431
usemtl EGA_Plaza_03_texture0
f 3/3/3 2/2/2 1/1/1
f 4/4/4 3/3/3 1/1/1
f 7/7/7 6/6/6 5/5/5
f 8/8/8 7/7/7 5/5/5
f 11/11/11 10/10/10 9/9/9
f 14/14/14 13/13/13 12/12/12
f 17/17/17 16/16/16 15/15/15
f 15/15/15 19/19/19 18/18/18
f 22/22/22 21/21/21 20/20/20
f 22/22/22 20/20/20 23/23/23
f 26/26/26 25/25/25 24/24/24
f 28/28/28 25/25/25 27/27/27
f 30/30/30 28/28/28 29/29/29
f 30/30/30 32/32/32 31/31/31
f 35/35/35 34/34/34 33/33/33
f 36/36/36 35/35/35 33/33/33
f 39/39/39 38/38/38 37/37/37
f 42/42/42 41/41/41 40/40/40
f 45/45/45 44/44/44 43/43/43
f 44/44/44 47/47/47 46/46/46
f 50/50/50 49/49/49 48/48/48
f 50/50/50 48/48/48 51/51/51
f 54/54/54 53/53/53 52/52/52
f 54/54/54 52/52/52 55/55/55
