mtllib EGA_Plaza_06.mtl
g default
v 4.9 1.5 13.1
v 4.9 -0.1 13.1
v 4.9 -0.1 7.5
v 4.9 1.5 7.5
v -11.9 1.5 13.1
v -11.9 -0.1 13.1
v -11.9 -0.1 -10.9
v -11.9 1.5 -10.9
v 12.1 -0.1 -10.9
v 12.1 -0.1 13.1
v 12.1 1.5 13.1
v 12.1 1.5 -10.9
v -4.7 -0.1 7.5
v -4.7 -0.1 13.1
v -4.7 1.5 13.1
v -4.7 1.5 7.5
v 4.9 -0.1 7.5
v 4.9 -0.1 13.1
v 12.1 -0.1 13.1
v 12.1 -0.1 -10.9
v 4.9 -0.1 7.5
v 12.1 -0.1 13.1
v 12.1 -0.1 -10.9
v -11.9 -0.1 -10.9
v 4.9 -0.1 7.5
v 4.9 -0.1 7.5
v -11.9 -0.1 -10.9
v -4.7 -0.1 7.5
v -4.7 -0.1 7.5
v -11.9 -0.1 -10.9
v -11.9 -0.1 13.1
v -4.7 -0.1 13.1
v -4.7 -0.1 7.5
v -11.9 -0.1 13.1
v 12.1 1.5 13.1
v 4.9 1.5 13.1
v 4.9 1.5 7.5
v 12.1 1.5 13.1
v 4.9 1.5 7.5
v 12.1 1.5 -10.9
v 4.9 1.5 7.5
v -11.9 1.5 -10.9
v 12.1 1.5 -10.9
v -4.7 1.5 7.5
v -11.9 1.5 -10.9
v 4.9 1.5 7.5
v -11.9 1.5 13.1
v -11.9 1.5 -10.9
v -4.7 1.5 7.5
v -11.9 1.5 13.1
v -4.7 1.5 7.5
v -4.7 1.5 13.1
v 12.1 -0.1 13.1
v 4.9 -0.1 13.1
v 4.9 1.5 13.1
v 12.1 1.5 13.1
v -4.7 -0.1 13.1
v -11.9 -0.1 13.1
v -11.9 1.5 13.1
v -4.7 1.5 13.1
v 4.9 -0.1 7.5
v -4.7 -0.1 7.5
v -4.7 1.5 7.5
v 4.9 1.5 7.5
v -11.9 1.5 -10.9
v -11.9 -0.1 -10.9
v 12.1 -0.1 -10.9
v 12.1 1.5 -10.9
vn -1 0 0
vn -1 0 0
vn -1 0 0
vn -1 0 0
vn -1 0 0
vn -1 0 0
vn -1 0 0
vn -1 0 0
vn 1 0 0
vn 1 0 0
vn 1 0 0
vn 1 0 0
vn 1 0 0
vn 1 0 0
vn 1 0 0
vn 1 0 0
vn 0 -1 0
vn 0 -1 0
vn 0 -1 0
vn 0 -1 0
vn 0 -1 0
vn 0 -1 0
vn 0 -1 0
vn 0 -1 0
vn 0 -1 0
vn 0 -1 0
vn 0 -1 0
vn 0 -1 0
vn 0 -1 0
vn 0 -1 0
vn 0 -1 0
vn 0 -1 0
vn 0 -1 0
vn 0 -1 0
vn 0 1 0
vn 0 1 0
vn 0 1 0
vn 0 1 0
vn 0 1 0
vn 0 1 0
vn 0 1 0
vn 0 1 0
vn 0 1 0
vn 0 1 0
vn 0 1 0
vn 0 1 0
vn 0 1 0
vn 0 1 0
vn 0 1 0
vn 0 1 0
vn 0 1 0
vn 0 1 0
vn 0 0 1
vn 0 0 1
vn 0 0 1
vn 0 0 1
vn 0 0 1
vn 0 0 1
vn 0 0 1
vn 0 0 1
vn 0 0 1
vn 0 0 1
vn 0 0 1
vn 0 0 1
vn 0 0 -1
vn 0 0 -1
vn 0 0 -1
vn 0 0 -1
vt 0.1053013 0.9165517
vt 0.1053013 0.8333908
vt 0.1788711 0.8333908
vt 0.1789093 0.9166092
vt 0.5263585 0.08340948
vt 0.578926 0.08340948
vt 0.578926 0.583181
vt 0.5263371 0.5832572
vt 0.947347 0.583181
vt 0.947347 0.08340948
vt 0.8947796 0.08340948
vt 0.8947582 0.5832572
vt 0.1788711 0.8333908
vt 0.1053013 0.8333908
vt 0.1053013 0.9165517
vt 0.1789093 0.9166092
vt 0.8526731 0.8665643
vt 0.8526731 0.7500511
vt 0.9472854 0.7500511
vt 0.6842346 0.5832212
vt 0.7788993 0.2000338
vt 0.6842346 0.0834116
vt 0.5262864 0.08340244
vt 0.5262864 0.583243
vt 0.2842694 0.2333546
vt 0.2842627 0.5667852
vt 0.5262114 0.9165589
vt 0.2842627 0.7666559
vt 0.7683997 0.7667428
vt 0.5263866 0.9166286
vt 0.8420559 0.9166286
vt 0.115831 0.08338449
vt 0.115831 0.1998977
vt 0.2104432 0.08338449
vt 0.9472854 0.7500511
vt 0.8526731 0.7500511
vt 0.8526731 0.8665643
vt 0.6842346 0.0834116
vt 0.7788993 0.2000338
vt 0.6842346 0.5832212
vt 0.2842694 0.2333546
vt 0.5262864 0.583243
vt 0.5262864 0.08340244
vt 0.2842627 0.7666559
vt 0.5262114 0.9165589
vt 0.2842627 0.5667852
vt 0.8420559 0.9166286
vt 0.5263866 0.9166286
vt 0.7683997 0.7667428
vt 0.2104432 0.08338449
vt 0.115831 0.1998977
vt 0.115831 0.08338449
vt 0.1052318 0.6668006
vt 0.1052318 0.8165997
vt 0.05269423 0.8165997
vt 0.05266291 0.6667336
vt 0.1158741 0.833383
vt 0.210484 0.833383
vt 0.210484 0.9165674
vt 0.1158318 0.916617
vt 0.2631242 0.5667947
vt 0.2631242 0.7666026
vt 0.2105937 0.7666026
vt 0.21056 0.5667307
vt 0.5263585 0.5832572
vt 0.578926 0.5832572
vt 0.578926 0.08348563
vt 0.5263371 0.08340948
usemtl EGA_Plaza_06_texture0
f 3/3/3 2/2/2 1/1/1
f 4/4/4 3/3/3 1/1/1
f 7/7/7 6/6/6 5/5/5
f 8/8/8 7/7/7 5/5/5
f 11/11/11 10/10/10 9/9/9
f 11/11/11 9/9/9 12/12/12
f 15/15/15 14/14/14 13/13/13
f 15/15/15 13/13/13 16/16/16
f 19/19/19 18/18/18 17/17/17
f 22/22/22 21/21/21 20/20/20
f 25/25/25 24/24/24 23/23/23
f 28/28/28 27/27/27 26/26/26
f 31/31/31 30/30/30 29/29/29
f 34/34/34 33/33/33 32/32/32
f 37/37/37 36/36/36 35/35/35
f 40/40/40 39/39/39 38/38/38
f 43/43/43 42/42/42 41/41/41
f 46/46/46 45/45/45 44/44/44
f 49/49/49 48/48/48 47/47/47
f 52/52/52 51/51/51 50/50/50
f 55/55/55 54/54/54 53/53/53
f 56/56/56 55/55/55 53/53/53
f 59/59/59 58/58/58 57/57/57
f 60/60/60 59/59/59 57/57/57
f 63/63/63 62/62/62 61/61/61
f 64/64/64 63/63/63 61/61/61
f 67/67/67 66/66/66 65/65/65
f 67/67/67 65/65/65 68/68/68
