mtllib EGA_Plaza_07.mtl
g default
v 4.9 1.5 -7.3
v 4.9 -0.1 -7.3
v 4.9 -0.1 -12.9
v 4.9 1.5 -12.9
v -11.9 1.5 11.1
v -11.9 -0.1 11.1
v -11.9 -0.1 -12.9
v -11.9 1.5 -12.9
v 12.1 -0.1 -12.9
v 12.1 -0.1 11.1
v 12.1 1.5 11.1
v 12.1 1.5 -12.9
v -4.7 -0.1 -12.9
v -4.7 -0.1 -7.3
v -4.7 1.5 -7.3
v -4.7 1.5 -12.9
v 4.9 -0.1 -7.3
v -11.9 -0.1 11.1
v 12.1 -0.1 11.1
v -4.7 -0.1 -7.3
v -11.9 -0.1 11.1
v 4.9 -0.1 -7.3
v 12.1 -0.1 -12.9
v 4.9 -0.1 -7.3
v 12.1 -0.1 11.1
v -11.9 -0.1 -12.9
v -11.9 -0.1 11.1
v -4.7 -0.1 -7.3
v 4.9 -0.1 -12.9
v 4.9 -0.1 -7.3
v 12.1 -0.1 -12.9
v -4.7 -0.1 -12.9
v -11.9 -0.1 -12.9
v -4.7 -0.1 -7.3
v 12.1 1.5 11.1
v -11.9 1.5 11.1
v 4.9 1.5 -7.3
v 4.9 1.5 -7.3
v -11.9 1.5 11.1
v -4.7 1.5 -7.3
v 12.1 1.5 11.1
v 4.9 1.5 -7.3
v 12.1 1.5 -12.9
v -4.7 1.5 -7.3
v -11.9 1.5 11.1
v -11.9 1.5 -12.9
v 12.1 1.5 -12.9
v 4.9 1.5 -7.3
v 4.9 1.5 -12.9
v -4.7 1.5 -7.3
v -11.9 1.5 -12.9
v -4.7 1.5 -12.9
v 12.1 -0.1 11.1
v -11.9 -0.1 11.1
v -11.9 1.5 11.1
v 12.1 1.5 11.1
v 4.9 1.5 -12.9
v 4.9 -0.1 -12.9
v 12.1 -0.1 -12.9
v 12.1 1.5 -12.9
v -11.9 1.5 -12.9
v -11.9 -0.1 -12.9
v -4.7 -0.1 -12.9
v -4.7 1.5 -12.9
v -4.7 1.5 -7.3
v -4.7 -0.1 -7.3
v 4.9 -0.1 -7.3
v 4.9 1.5 -7.3
vn -1 0 0
vn -1 0 0
vn -1 0 0
vn -1 0 0
vn -1 0 0
vn -1 0 0
vn -1 0 0
vn -1 0 0
vn 1 0 0
vn 1 0 0
vn 1 0 0
vn 1 0 0
vn 1 0 0
vn 1 0 0
vn 1 0 0
vn 1 0 0
vn 0 -1 0
vn 0 -1 0
vn 0 -1 0
vn 0 -1 0
vn 0 -1 0
vn 0 -1 0
vn 0 -1 0
vn 0 -1 0
vn 0 -1 0
vn 0 -1 0
vn 0 -1 0
vn 0 -1 0
vn 0 -1 0
vn 0 -1 0
vn 0 -1 0
vn 0 -1 0
vn 0 -1 0
vn 0 -1 0
vn 0 1 0
vn 0 1 0
vn 0 1 0
vn 0 1 0
vn 0 1 0
vn 0 1 0
vn 0 1 0
vn 0 1 0
vn 0 1 0
vn 0 1 0
vn 0 1 0
vn 0 1 0
vn 0 1 0
vn 0 1 0
vn 0 1 0
vn 0 1 0
vn 0 1 0
vn 0 1 0
vn 0 0 1
vn 0 0 1
vn 0 0 1
vn 0 0 1
vn 0 0 -1
vn 0 0 -1
vn 0 0 -1
vn 0 0 -1
vn 0 0 -1
vn 0 0 -1
vn 0 0 -1
vn 0 0 -1
vn 0 0 -1
vn 0 0 -1
vn 0 0 -1
vn 0 0 -1
vt 0.5583032 0.6665134
vt 0.5583032 0.5556322
vt 0.5000603 0.5556322
vt 0.5000302 0.66659
vt 0.1250338 0.2223238
vt 0.1666497 0.2223238
vt 0.1666497 0.8886858
vt 0.1250169 0.8887873
vt 0.2916498 0.8886858
vt 0.2916498 0.2223238
vt 0.2500339 0.2223238
vt 0.2500169 0.8887873
vt 0.5000603 0.5556322
vt 0.5583032 0.5556322
vt 0.5583032 0.6665134
vt 0.5000302 0.66659
vt 0.4832868 0.4222506
vt 0.29169 0.8887684
vt 0.29169 0.2223144
vt 0.6749946 0.2667768
vt 0.7499461 0.7775574
vt 0.5750593 0.2667768
vt 0.8333524 0.8887845
vt 0.9082953 0.7332882
vt 0.8333524 0.2223717
vt 0.124981 0.8887845
vt 0.124981 0.2223717
vt 0.05003808 0.7332882
vt 0.5083662 0.5554873
vt 0.5083662 0.4001364
vt 0.5832676 0.5554873
vt 0.5000256 0.6889766
vt 0.5000256 0.8887135
vt 0.5582822 0.6889766
vt 0.29169 0.2223144
vt 0.29169 0.8887684
vt 0.4832868 0.4222506
vt 0.5750593 0.2667768
vt 0.7499461 0.7775574
vt 0.6749946 0.2667768
vt 0.8333524 0.2223717
vt 0.9082953 0.7332882
vt 0.8333524 0.8887845
vt 0.05003808 0.7332882
vt 0.124981 0.2223717
vt 0.124981 0.8887845
vt 0.5832676 0.5554873
vt 0.5083662 0.4001364
vt 0.5083662 0.5554873
vt 0.5582822 0.6889766
vt 0.5000256 0.8887135
vt 0.5000256 0.6889766
vt 0.2916498 0.2224253
vt 0.2916498 0.8887873
vt 0.2500339 0.8887873
vt 0.2500169 0.2223238
vt 0.5083668 0.6665344
vt 0.5083668 0.5556217
vt 0.5832664 0.5556217
vt 0.5832999 0.6666005
vt 0.9582999 0.2220899
vt 0.9582999 0.1111773
vt 0.8834003 0.1111773
vt 0.8833668 0.2221561
vt 0.674968 0.22208
vt 0.674968 0.1111822
vt 0.575064 0.1111822
vt 0.575032 0.2221511
usemtl EGA_Plaza_07_texture0
f 3/3/3 2/2/2 1/1/1
f 4/4/4 3/3/3 1/1/1
f 7/7/7 6/6/6 5/5/5
f 8/8/8 7/7/7 5/5/5
f 11/11/11 10/10/10 9/9/9
f 11/11/11 9/9/9 12/12/12
f 15/15/15 14/14/14 13/13/13
f 15/15/15 13/13/13 16/16/16
f 19/19/19 18/18/18 17/17/17
f 22/22/22 21/21/21 20/20/20
f 25/25/25 24/24/24 23/23/23
f 28/28/28 27/27/27 26/26/26
f 31/31/31 30/30/30 29/29/29
f 34/34/34 33/33/33 32/32/32
f 37/37/37 36/36/36 35/35/35
f 40/40/40 39/39/39 38/38/38
f 43/43/43 42/42/42 41/41/41
f 46/46/46 45/45/45 44/44/44
f 49/49/49 48/48/48 47/47/47
f 52/52/52 51/51/51 50/50/50
f 55/55/55 54/54/54 53/53/53
f 56/56/56 55/55/55 53/53/53
f 59/59/59 58/58/58 57/57/57
f 59/59/59 57/57/57 60/60/60
f 63/63/63 62/62/62 61/61/61
f 63/63/63 61/61/61 64/64/64
f 67/67/67 66/66/66 65/65/65
f 67/67/67 65/65/65 68/68/68
