mtllib EGA_Sidewalk_41.mtl
g default
v -1.5 0.3 3.1
v -1.5 -0.1 3.1
v -1.5 -0.1 -2.9
v -1.5 0.3 -2.9
v 1.5 -0.1 -2.9
v 1.5 -0.1 3.1
v 1.5 0.3 3.1
v 1.5 0.3 -2.9
v -1.5 -0.1 -2.9
v -1.5 -0.1 3.1
v 1.5 -0.1 3.1
v 1.5 -0.1 -2.9
v -1.5 -0.1 -2.9
v 1.5 -0.1 3.1
v 1.5 0.3 3.1
v -1.5 0.3 3.1
v -1.5 0.3 -2.9
v 1.5 0.3 3.1
v -1.5 0.3 -2.9
v 1.5 0.3 -2.9
v 1.5 -0.1 3.1
v -1.5 -0.1 3.1
v -1.5 0.3 3.1
v 1.5 0.3 3.1
v -1.5 0.3 -2.9
v -1.5 -0.1 -2.9
v 1.5 -0.1 -2.9
v 1.5 0.3 -2.9
vn -1 0 0
vn -1 0 0
vn -1 0 0
vn -1 0 0
vn 1 0 0
vn 1 0 0
vn 1 0 0
vn 1 0 0
vn 0 -1 0
vn 0 -1 0
vn 0 -1 0
vn 0 -1 0
vn 0 -1 0
vn 0 -1 0
vn 0 1 0
vn 0 1 0
vn 0 1 0
vn 0 1 0
vn 0 1 0
vn 0 1 0
vn 0 0 1
vn 0 0 1
vn 0 0 1
vn 0 0 1
vn 0 0 -1
vn 0 0 -1
vn 0 0 -1
vn 0 0 -1
vt 0.4761593 0.06056023
vt 0.4761593 0.03032594
vt 0.4213077 0.03032594
vt 0.4212766 0.06058315
vt 0.2856806 0.1211693
vt 0.2856806 0.09093052
vt 0.2381626 0.09093052
vt 0.2381289 0.1211907
vt 0.9523483 0.9696528
vt 0.9523483 0.06062813
vt 0.2381605 0.06062813
vt 0.04765169 0.9696749
vt 0.7618395 0.9696749
vt 0.04765169 0.06065019
vt 0.2381605 0.06062813
vt 0.9523483 0.06062813
vt 0.9523483 0.9696528
vt 0.04765169 0.06065019
vt 0.7618395 0.9696749
vt 0.04765169 0.9696749
vt 0.4113235 0.03032422
vt 0.4761564 0.03032422
vt 0.4761564 0.06056369
vt 0.4112895 0.06058488
vt 0.2856806 0.1211693
vt 0.2856806 0.09093052
vt 0.2381626 0.09093052
vt 0.2381289 0.1211907
usemtl EGA_Sidewalk_41_texture0
f 3/3/3 2/2/2 1/1/1
f 4/4/4 3/3/3 1/1/1
f 7/7/7 6/6/6 5/5/5
f 7/7/7 5/5/5 8/8/8
f 11/11/11 10/10/10 9/9/9
f 14/14/14 13/13/13 12/12/12
f 17/17/17 16/16/16 15/15/15
f 20/20/20 19/19/19 18/18/18
f 23/23/23 22/22/22 21/21/21
f 24/24/24 23/23/23 21/21/21
f 27/27/27 26/26/26 25/25/25
f 27/27/27 25/25/25 28/28/28
