mtllib EGA_Parking_22.mtl
g default
v -9.900001 0.3 12.3
v -9.900001 -0.1 12.3
v -9.900001 -0.1 -12.3
v -9.900001 0.3 -12.3
v 9.900001 -0.1 -12.3
v 9.900001 -0.1 12.3
v 9.900001 0.3 12.3
v 9.900001 0.3 -12.3
v -9.900001 -0.1 -12.3
v -9.900001 -0.1 12.3
v 9.900001 -0.1 12.3
v 9.900001 -0.1 -12.3
v 9.900001 0.3 12.3
v -9.900001 0.3 12.3
v -9.900001 0.3 -12.3
v 9.900001 0.3 12.3
v -9.900001 0.3 -12.3
v 9.900001 0.3 -12.3
v 9.900001 -0.1 12.3
v -9.900001 -0.1 12.3
v -9.900001 0.3 12.3
v 9.900001 0.3 12.3
v -9.900001 0.3 -12.3
v -9.900001 -0.1 -12.3
v 9.900001 -0.1 -12.3
v 9.900001 0.3 -12.3
vn -1 0 0
vn -1 0 0
vn -1 0 0
vn -1 0 0
vn 1 0 0
vn 1 0 0
vn 1 0 0
vn 1 0 0
vn 0 -1 0
vn 0 -1 0
vn 0 -1 0
vn 0 -1 0
vn 0 1 0
vn 0 1 0
vn 0 1 0
vn 0 1 0
vn 0 1 0
vn 0 1 0
vn 0 0 1
vn 0 0 1
vn 0 0 1
vn 0 0 1
vn 0 0 -1
vn 0 0 -1
vn 0 0 -1
vn 0 0 -1
vt 0.02913994 0.01550936
vt 0.03882809 0.01550936
vt 0.03882809 0.02324485
vt 0.02913308 0.02325033
vt 0.03882809 0.02324485
vt 0.03882809 0.01550936
vt 0.02913994 0.01550936
vt 0.02913308 0.02325033
vt 0.03882809 0.02324485
vt 0.03882809 0.01550936
vt 0.02913994 0.01550936
vt 0.02913308 0.02325033
vt 0.02913992 0.00775743
vt 0.9902844 0.00775743
vt 0.9902844 0.9612293
vt 0.00971559 0.03877068
vt 0.9708601 0.9922426
vt 0.00971559 0.9922426
vt 0.02913994 0.01550936
vt 0.03882809 0.01550936
vt 0.03882809 0.02324485
vt 0.02913308 0.02325033
vt 0.03882809 0.02324485
vt 0.03882809 0.01550936
vt 0.02913994 0.01550936
vt 0.02913308 0.02325033
usemtl EGA_Parking_22_texture0
f 3/3/3 2/2/2 1/1/1
f 4/4/4 3/3/3 1/1/1
f 7/7/7 6/6/6 5/5/5
f 7/7/7 5/5/5 8/8/8
f 11/11/11 10/10/10 9/9/9
f 11/11/11 9/9/9 12/12/12
f 15/15/15 14/14/14 13/13/13
f 18/18/18 17/17/17 16/16/16
f 21/21/21 20/20/20 19/19/19
f 22/22/22 21/21/21 19/19/19
f 25/25/25 24/24/24 23/23/23
f 25/25/25 23/23/23 26/26/26
