mtllib EGA_Wall_01.mtl
g default
v -5.1 4.9 0.7
v -5.1 -0.1 0.7
v -5.1 -0.1 -0.5
v -5.1 4.9 -0.5
v 4.1 0.7 0.5
v 4.1 4.9 0.7
v 4.1 -0.1 0.7
v 4.1 0.7 0.5
v 4.1 4.3 0.5
v 4.1 0.7 0.5
v 4.1 -0.1 0.5
v 4.1 4.3 0.5
v 4.1 4.7 0.5
v 4.1 4.7 0.5
v 4.1 4.9 -0.5
v 4.1 4.7 0.5
v 4.1 4.7 -0.3
v 4.1 4.3 -0.3
v 4.1 4.7 -0.3
v 4.1 4.3 -0.3
v 4.1 0.7 -0.3
v 4.1 -0.1 -0.5
v 4.1 0.7 -0.3
v 4.1 0.7 -0.3
v 4.1 -0.1 -0.3
v 4.1 4.3 0.5
v 4.1 0.7 0.5
v 4.1 0.7 0.3
v 4.1 4.3 0.3
v 4.1 4.3 -0.1
v 4.1 0.7 -0.3
v 4.1 4.3 -0.3
v 4.1 0.7 -0.1
v -5.3 5.3 0.9
v -5.3 4.9 0.9
v -5.3 4.9 -0.7
v -5.3 5.3 -0.7
v 3.9 5.3 0.9
v 3.9 4.9 0.9
v 3.9 4.9 -0.7
v 3.9 5.3 -0.7
v -3.7 4.9 -0.7
v -3.7 4.9 0.9
v -3.7 5.3 0.9
v -3.7 5.3 -0.7
v 5.5 4.9 -0.7
v 5.5 4.9 0.9
v 5.5 5.3 0.9
v 5.5 5.3 -0.7
v -3.9 -0.1 0.7
v -3.9 4.9 0.7
v -3.9 0.7 0.5
v -3.9 4.3 0.5
v -3.9 0.7 0.5
v -3.9 -0.1 0.5
v -3.9 0.7 0.5
v -3.9 4.7 0.5
v -3.9 4.3 0.5
v -3.9 4.9 -0.5
v -3.9 4.7 0.5
v -3.9 4.7 -0.3
v -3.9 4.7 0.5
v -3.9 4.7 -0.3
v -3.9 4.3 -0.3
v -3.9 0.7 -0.3
v -3.9 4.3 -0.3
v -3.9 0.7 -0.3
v -3.9 -0.1 -0.5
v -3.9 -0.1 -0.3
v -3.9 0.7 -0.3
v -3.9 0.7 0.3
v -3.9 0.7 0.5
v -3.9 4.3 0.5
v -3.9 4.3 0.3
v -3.9 4.3 -0.3
v -3.9 0.7 -0.3
v -3.9 4.3 -0.1
v -3.9 0.7 -0.1
v 5.3 -0.1 -0.5
v 5.3 -0.1 0.7
v 5.3 4.9 0.7
v 5.3 4.9 -0.5
v 4.1 -0.1 0.5
v 4.1 -0.1 0.7
v 5.3 -0.1 0.7
v 5.3 -0.1 -0.5
v 4.1 -0.1 0.5
v 4.1 -0.1 -0.3
v 4.1 -0.1 0.5
v 4.1 -0.1 -0.5
v 4.1 -0.1 -0.3
v 4.1 -0.1 -0.3
v -3.9 -0.1 -0.3
v 4.1 -0.1 0.5
v -3.9 -0.1 0.5
v -3.9 -0.1 -0.3
v -5.1 -0.1 -0.5
v -3.9 -0.1 0.5
v -3.9 -0.1 -0.5
v -3.9 -0.1 -0.3
v -3.9 -0.1 0.5
v -5.1 -0.1 0.7
v -3.9 -0.1 0.7
v -3.9 -0.1 0.5
v 5.3 4.9 0.7
v 3.9 4.9 0.9
v 5.5 4.9 0.9
v 4.1 4.9 0.7
v 5.3 4.9 0.7
v 5.5 4.9 -0.7
v 5.3 4.9 0.7
v 3.9 4.9 -0.7
v 4.1 4.9 0.7
v 5.3 4.9 -0.5
v 5.3 4.9 -0.5
v 5.3 4.9 0.7
v 4.1 4.9 -0.5
v 4.1 4.9 0.7
v 5.3 4.9 -0.5
v 4.1 4.9 -0.5
v -3.9 4.9 0.7
v -5.3 4.9 0.9
v -3.7 4.9 0.9
v -5.1 4.9 0.7
v -3.9 4.9 0.7
v -3.7 4.9 -0.7
v -3.9 4.9 0.7
v -5.3 4.9 -0.7
v -5.1 4.9 0.7
v -3.9 4.9 -0.5
v -3.9 4.9 -0.5
v -3.9 4.9 0.7
v -5.1 4.9 -0.5
v -5.1 4.9 0.7
v -3.9 4.9 -0.5
v -5.1 4.9 -0.5
v -3.9 4.3 0.3
v -3.9 4.3 0.5
v 4.1 4.3 0.5
v 4.1 4.3 0.3
v -3.9 4.3 -0.3
v -3.9 4.3 -0.1
v 4.1 4.3 -0.1
v 4.1 4.3 -0.3
v 5.5 5.3 0.9
v 3.9 5.3 0.9
v 3.9 5.3 -0.7
v 5.5 5.3 -0.7
v -3.7 5.3 0.9
v -5.3 5.3 0.9
v -5.3 5.3 -0.7
v -3.7 5.3 -0.7
v 4.1 4.7 0.5
v -3.9 4.7 0.5
v -3.9 4.7 -0.3
v 4.1 4.7 -0.3
v 4.1 0.7 0.5
v -3.9 0.7 0.5
v -3.9 0.7 0.3
v 4.1 0.7 0.3
v 4.1 0.7 -0.1
v -3.9 0.7 -0.1
v -3.9 0.7 -0.3
v 4.1 0.7 -0.3
v 4.1 0.7 0.3
v -3.9 0.7 0.3
v -3.9 4.3 0.3
v 4.1 4.3 0.3
v 4.1 -0.1 0.5
v -3.9 -0.1 0.5
v -3.9 0.7 0.5
v 4.1 0.7 0.5
v 4.1 4.3 0.5
v -3.9 4.3 0.5
v -3.9 4.7 0.5
v 4.1 4.7 0.5
v 5.3 -0.1 0.7
v 4.1 -0.1 0.7
v 4.1 4.9 0.7
v 5.3 4.9 0.7
v -3.9 -0.1 0.7
v -5.1 -0.1 0.7
v -5.1 4.9 0.7
v -3.9 4.9 0.7
v 5.5 4.9 0.9
v 3.9 4.9 0.9
v 3.9 5.3 0.9
v 5.5 5.3 0.9
v -3.7 4.9 0.9
v -5.3 4.9 0.9
v -5.3 5.3 0.9
v -3.7 5.3 0.9
v -3.9 4.3 -0.1
v -3.9 0.7 -0.1
v 4.1 0.7 -0.1
v 4.1 4.3 -0.1
v 3.9 5.3 -0.7
v 3.9 4.9 -0.7
v 5.5 4.9 -0.7
v 5.5 5.3 -0.7
v -5.3 5.3 -0.7
v -5.3 4.9 -0.7
v -3.7 4.9 -0.7
v -3.7 5.3 -0.7
v 4.1 4.9 -0.5
v 4.1 -0.1 -0.5
v 5.3 -0.1 -0.5
v 5.3 4.9 -0.5
v -5.1 4.9 -0.5
v -5.1 -0.1 -0.5
v -3.9 -0.1 -0.5
v -3.9 4.9 -0.5
v -3.9 0.7 -0.3
v -3.9 -0.1 -0.3
v 4.1 -0.1 -0.3
v 4.1 0.7 -0.3
v -3.9 4.7 -0.3
v -3.9 4.3 -0.3
v 4.1 4.3 -0.3
v 4.1 4.7 -0.3
vn -1 0 0
vn -1 0 0
vn -1 0 0
vn -1 0 0
vn -1 0 0
vn -1 0 0
vn -1 0 0
vn -1 0 0
vn -1 0 0
vn -1 0 0
vn -1 0 0
vn -1 0 0
vn -1 0 0
vn -1 0 0
vn -1 0 0
vn -1 0 0
vn -1 0 0
vn -1 0 0
vn -1 0 0
vn -1 0 0
vn -1 0 0
vn -1 0 0
vn -1 0 0
vn -1 0 0
vn -1 0 0
vn -1 0 0
vn -1 0 0
vn -1 0 0
vn -1 0 0
vn -1 0 0
vn -1 0 0
vn -1 0 0
vn -1 0 0
vn -1 0 0
vn -1 0 0
vn -1 0 0
vn -1 0 0
vn -1 0 0
vn -1 0 0
vn -1 0 0
vn -1 0 0
vn 1 0 0
vn 1 0 0
vn 1 0 0
vn 1 0 0
vn 1 0 0
vn 1 0 0
vn 1 0 0
vn 1 0 0
vn 1 0 0
vn 1 0 0
vn 1 0 0
vn 1 0 0
vn 1 0 0
vn 1 0 0
vn 1 0 0
vn 1 0 0
vn 1 0 0
vn 1 0 0
vn 1 0 0
vn 1 0 0
vn 1 0 0
vn 1 0 0
vn 1 0 0
vn 1 0 0
vn 1 0 0
vn 1 0 0
vn 1 0 0
vn 1 0 0
vn 1 0 0
vn 1 0 0
vn 1 0 0
vn 1 0 0
vn 1 0 0
vn 1 0 0
vn 1 0 0
vn 1 0 0
vn 1 0 0
vn 1 0 0
vn 1 0 0
vn 1 0 0
vn 1 0 0
vn 0 -1 0
vn 0 -1 0
vn 0 -1 0
vn 0 -1 0
vn 0 -1 0
vn 0 -1 0
vn 0 -1 0
vn 0 -1 0
vn 0 -1 0
vn 0 -1 0
vn 0 -1 0
vn 0 -1 0
vn 0 -1 0
vn 0 -1 0
vn 0 -1 0
vn 0 -1 0
vn 0 -1 0
vn 0 -1 0
vn 0 -1 0
vn 0 -1 0
vn 0 -1 0
vn 0 -1 0
vn 0 -1 0
vn 0 -1 0
vn 0 -1 0
vn 0 -1 0
vn 0 -1 0
vn 0 -1 0
vn 0 -1 0
vn 0 -1 0
vn 0 -1 0
vn 0 -1 0
vn 0 -1 0
vn 0 -1 0
vn 0 -1 0
vn 0 -1 0
vn 0 -1 0
vn 0 -1 0
vn 0 -1 0
vn 0 -1 0
vn 0 -1 0
vn 0 -1 0
vn 0 -1 0
vn 0 -1 0
vn 0 -1 0
vn 0 -1 0
vn 0 -1 0
vn 0 -1 0
vn 0 -1 0
vn 0 -1 0
vn 0 -1 0
vn 0 -1 0
vn 0 -1 0
vn 0 -1 0
vn 0 -1 0
vn 0 -1 0
vn 0 -1 0
vn 0 -1 0
vn 0 -1 0
vn 0 -1 0
vn 0 -1 0
vn 0 -1 0
vn 0 1 0
vn 0 1 0
vn 0 1 0
vn 0 1 0
vn 0 1 0
vn 0 1 0
vn 0 1 0
vn 0 1 0
vn 0 1 0
vn 0 1 0
vn 0 1 0
vn 0 1 0
vn 0 1 0
vn 0 1 0
vn 0 1 0
vn 0 1 0
vn 0 1 0
vn 0 1 0
vn 0 1 0
vn 0 1 0
vn 0 0 1
vn 0 0 1
vn 0 0 1
vn 0 0 1
vn 0 0 1
vn 0 0 1
vn 0 0 1
vn 0 0 1
vn 0 0 1
vn 0 0 1
vn 0 0 1
vn 0 0 1
vn 0 0 1
vn 0 0 1
vn 0 0 1
vn 0 0 1
vn 0 0 1
vn 0 0 1
vn 0 0 1
vn 0 0 1
vn 0 0 1
vn 0 0 1
vn 0 0 1
vn 0 0 1
vn 0 0 1
vn 0 0 1
vn 0 0 1
vn 0 0 1
vn 0 0 -1
vn 0 0 -1
vn 0 0 -1
vn 0 0 -1
vn 0 0 -1
vn 0 0 -1
vn 0 0 -1
vn 0 0 -1
vn 0 0 -1
vn 0 0 -1
vn 0 0 -1
vn 0 0 -1
vn 0 0 -1
vn 0 0 -1
vn 0 0 -1
vn 0 0 -1
vn 0 0 -1
vn 0 0 -1
vn 0 0 -1
vn 0 0 -1
vn 0 0 -1
vn 0 0 -1
vn 0 0 -1
vn 0 0 -1
vn 0 0 -1
vn 0 0 -1
vn 0 0 -1
vn 0 0 -1
vt 0.6669024 0.6667845
vt 0.8332155 0.6667845
vt 0.8332155 0.8330976
vt 0.6667845 0.8332155
vt 0.8065926 0.8331157
vt 0.6668669 0.6667755
vt 0.8332071 0.6667755
vt 0.8330815 0.8331977
vt 0.690573 0.8331977
vt 0.6669024 0.8332155
vt 0.8332155 0.8332155
vt 0.8330698 0.8331752
vt 0.7222749 0.8331752
vt 0.8331164 0.6945168
vt 0.6667751 0.8331345
vt 0.8331904 0.6669239
vt 0.8331904 0.7999142
vt 0.8330698 0.6668248
vt 0.7222749 0.6668248
vt 0.690573 0.6668023
vt 0.8330815 0.6668023
vt 0.8332071 0.8332245
vt 0.8065926 0.6668843
vt 0.6669024 0.6667845
vt 0.8332155 0.6667845
vt 0.6669024 0.6667845
vt 0.8332155 0.6667845
vt 0.8332155 0.8330976
vt 0.6667845 0.8332155
vt 0.6667845 0.6669024
vt 0.8330976 0.8332155
vt 0.6667845 0.8332155
vt 0.8332155 0.6667845
vt 0.1669024 0.6667845
vt 0.3332155 0.6667845
vt 0.3332155 0.8330976
vt 0.1667845 0.8332155
vt 0.1669024 0.6667845
vt 0.3332155 0.6667845
vt 0.3332155 0.8330976
vt 0.1667845 0.8332155
vt 0.3332155 0.8330976
vt 0.3332155 0.6667845
vt 0.1669024 0.6667845
vt 0.1667845 0.8332155
vt 0.3332155 0.8330976
vt 0.3332155 0.6667845
vt 0.1669024 0.6667845
vt 0.1667845 0.8332155
vt 0.8332071 0.6667755
vt 0.6668669 0.6667755
vt 0.8065926 0.8331157
vt 0.690573 0.8331977
vt 0.8330815 0.8331977
vt 0.8332155 0.8332155
vt 0.6669024 0.8332155
vt 0.7222749 0.8331752
vt 0.8330698 0.8331752
vt 0.6667751 0.8331345
vt 0.8331164 0.6945168
vt 0.8331904 0.7999142
vt 0.8331904 0.6669239
vt 0.7222749 0.6668248
vt 0.8330698 0.6668248
vt 0.8330815 0.6668023
vt 0.690573 0.6668023
vt 0.8065926 0.6668843
vt 0.8332071 0.8332245
vt 0.8332155 0.6667845
vt 0.6669024 0.6667845
vt 0.8332155 0.8330976
vt 0.8332155 0.6667845
vt 0.6669024 0.6667845
vt 0.6667845 0.8332155
vt 0.6667845 0.8332155
vt 0.8330976 0.8332155
vt 0.6667845 0.6669024
vt 0.8332155 0.6667845
vt 0.8332155 0.8330976
vt 0.8332155 0.6667845
vt 0.6669024 0.6667845
vt 0.6667845 0.8332155
vt 0.8332155 0.8330976
vt 0.8332155 0.6667845
vt 0.6669024 0.6667845
vt 0.6667751 0.8331345
vt 0.8331164 0.6945168
vt 0.8331904 0.7999142
vt 0.8331904 0.6669239
vt 0.8332155 0.8332155
vt 0.8332155 0.6669024
vt 0.1667734 0.5832053
vt 0.3331199 0.5832053
vt 0.1667734 0.2502561
vt 0.3332266 0.250128
vt 0.6668096 0.7999142
vt 0.8330475 0.8331618
vt 0.6668096 0.6669239
vt 0.6667845 0.8332155
vt 0.6667845 0.6669024
vt 0.6668836 0.6945168
vt 0.8332249 0.6667932
vt 0.6667845 0.6667845
vt 0.6667845 0.8330976
vt 0.187583 0.8331119
vt 0.3331257 0.6667774
vt 0.1667912 0.6667774
vt 0.3094269 0.8331977
vt 0.1669185 0.8331977
vt 0.1667774 0.8331257
vt 0.3331119 0.687583
vt 0.3332226 0.8331257
vt 0.1668881 0.687583
vt 0.187583 0.6668881
vt 0.3331977 0.809427
vt 0.3331977 0.6669185
vt 0.1668023 0.809427
vt 0.1668023 0.6669185
vt 0.1669185 0.6668023
vt 0.3094269 0.6668023
vt 0.187583 0.8331119
vt 0.3331257 0.6667774
vt 0.1667912 0.6667774
vt 0.3094269 0.8331977
vt 0.1669185 0.8331977
vt 0.1667774 0.8331257
vt 0.3331119 0.687583
vt 0.3332226 0.8331257
vt 0.1668881 0.687583
vt 0.187583 0.6668881
vt 0.3331977 0.809427
vt 0.3331977 0.6669185
vt 0.1668023 0.809427
vt 0.1668023 0.6669185
vt 0.1669185 0.6668023
vt 0.3094269 0.6668023
vt 0.3332155 0.8330976
vt 0.3332155 0.6667845
vt 0.1669024 0.6667845
vt 0.1667845 0.8332155
vt 0.3332155 0.8330976
vt 0.3332155 0.6667845
vt 0.1669024 0.6667845
vt 0.1667845 0.8332155
vt 0.1669024 0.6667845
vt 0.3332155 0.6667845
vt 0.3332155 0.8330976
vt 0.1667845 0.8332155
vt 0.1669024 0.6667845
vt 0.3332155 0.6667845
vt 0.3332155 0.8330976
vt 0.1667845 0.8332155
vt 0.1669024 0.6667845
vt 0.3332155 0.6667845
vt 0.3332155 0.8330976
vt 0.1667845 0.8332155
vt 0.1669024 0.6667845
vt 0.3332155 0.6667845
vt 0.3332155 0.8330976
vt 0.1667845 0.8332155
vt 0.1669024 0.6667845
vt 0.3332155 0.6667845
vt 0.3332155 0.8330976
vt 0.1667845 0.8332155
vt 0.6669024 0.6667845
vt 0.8332155 0.6667845
vt 0.8332155 0.8330976
vt 0.6667845 0.8332155
vt 0.1669024 0.6667845
vt 0.3332155 0.6667845
vt 0.3332155 0.8330976
vt 0.1667845 0.8332155
vt 0.1669024 0.6667845
vt 0.3332155 0.6667845
vt 0.3332155 0.8330976
vt 0.1667845 0.8332155
vt 0.6669024 0.6667845
vt 0.8332155 0.6667845
vt 0.8332155 0.8330976
vt 0.6667845 0.8332155
vt 0.6669024 0.6667845
vt 0.8332155 0.6667845
vt 0.8332155 0.8330976
vt 0.6667845 0.8332155
vt 0.1669024 0.6667845
vt 0.3332155 0.6667845
vt 0.3332155 0.8330976
vt 0.1667845 0.8332155
vt 0.1669024 0.6667845
vt 0.3332155 0.6667845
vt 0.3332155 0.8330976
vt 0.1667845 0.8332155
vt 0.8332155 0.8330976
vt 0.8332155 0.6667845
vt 0.6669024 0.6667845
vt 0.6667845 0.8332155
vt 0.3332155 0.8330976
vt 0.3332155 0.6667845
vt 0.1669024 0.6667845
vt 0.1667845 0.8332155
vt 0.3332155 0.8330976
vt 0.3332155 0.6667845
vt 0.1669024 0.6667845
vt 0.1667845 0.8332155
vt 0.8332155 0.8330976
vt 0.8332155 0.6667845
vt 0.6669024 0.6667845
vt 0.6667845 0.8332155
vt 0.8332155 0.8330976
vt 0.8332155 0.6667845
vt 0.6669024 0.6667845
vt 0.6667845 0.8332155
vt 0.3332155 0.8330976
vt 0.3332155 0.6667845
vt 0.1669024 0.6667845
vt 0.1667845 0.8332155
vt 0.3332155 0.8330976
vt 0.3332155 0.6667845
vt 0.1669024 0.6667845
vt 0.1667845 0.8332155
usemtl EGA_Wall_01_texture0
f 3/3/3 2/2/2 1/1/1
f 4/4/4 3/3/3 1/1/1
f 7/7/7 6/6/6 5/5/5
f 9/9/9 8/8/8 6/6/6
f 11/11/11 7/7/7 10/10/10
f 13/13/13 12/12/12 6/6/6
f 15/15/15 14/14/14 6/6/6
f 17/17/17 16/16/16 15/15/15
f 19/19/19 15/15/15 18/18/18
f 21/21/21 20/20/20 15/15/15
f 23/23/23 15/15/15 22/22/22
f 22/22/22 25/25/25 24/24/24
f 28/28/28 27/27/27 26/26/26
f 29/29/29 28/28/28 26/26/26
f 32/32/32 31/31/31 30/30/30
f 31/31/31 33/33/33 30/30/30
f 36/36/36 35/35/35 34/34/34
f 37/37/37 36/36/36 34/34/34
f 40/40/40 39/39/39 38/38/38
f 41/41/41 40/40/40 38/38/38
f 44/44/44 43/43/43 42/42/42
f 44/44/44 42/42/42 45/45/45
f 48/48/48 47/47/47 46/46/46
f 48/48/48 46/46/46 49/49/49
f 52/52/52 51/51/51 50/50/50
f 51/51/51 54/54/54 53/53/53
f 56/56/56 50/50/50 55/55/55
f 51/51/51 58/58/58 57/57/57
f 51/51/51 60/60/60 59/59/59
f 59/59/59 62/62/62 61/61/61
f 64/64/64 59/59/59 63/63/63
f 59/59/59 66/66/66 65/65/65
f 68/68/68 59/59/59 67/67/67
f 70/70/70 69/69/69 68/68/68
f 73/73/73 72/72/72 71/71/71
f 73/73/73 71/71/71 74/74/74
f 77/77/77 76/76/76 75/75/75
f 77/77/77 78/78/78 76/76/76
f 81/81/81 80/80/80 79/79/79
f 81/81/81 79/79/79 82/82/82
f 85/85/85 84/84/84 83/83/83
f 85/85/85 87/87/87 86/86/86
f 86/86/86 89/89/89 88/88/88
f 86/86/86 91/91/91 90/90/90
f 94/94/94 93/93/93 92/92/92
f 94/94/94 95/95/95 93/93/93
f 98/98/98 97/97/97 96/96/96
f 100/100/100 97/97/97 99/99/99
f 102/102/102 97/97/97 101/101/101
f 102/102/102 104/104/104 103/103/103
f 107/107/107 106/106/106 105/105/105
f 109/109/109 106/106/106 108/108/108
f 107/107/107 111/111/111 110/110/110
f 113/113/113 106/106/106 112/112/112
f 114/114/114 112/112/112 110/110/110
f 110/110/110 116/116/116 115/115/115
f 118/118/118 112/112/112 117/117/117
f 120/120/120 112/112/112 119/119/119
f 123/123/123 122/122/122 121/121/121
f 125/125/125 122/122/122 124/124/124
f 123/123/123 127/127/127 126/126/126
f 129/129/129 122/122/122 128/128/128
f 130/130/130 128/128/128 126/126/126
f 126/126/126 132/132/132 131/131/131
f 134/134/134 128/128/128 133/133/133
f 136/136/136 128/128/128 135/135/135
f 139/139/139 138/138/138 137/137/137
f 139/139/139 137/137/137 140/140/140
f 143/143/143 142/142/142 141/141/141
f 143/143/143 141/141/141 144/144/144
f 147/147/147 146/146/146 145/145/145
f 148/148/148 147/147/147 145/145/145
f 151/151/151 150/150/150 149/149/149
f 152/152/152 151/151/151 149/149/149
f 155/155/155 154/154/154 153/153/153
f 156/156/156 155/155/155 153/153/153
f 159/159/159 158/158/158 157/157/157
f 160/160/160 159/159/159 157/157/157
f 163/163/163 162/162/162 161/161/161
f 164/164/164 163/163/163 161/161/161
f 167/167/167 166/166/166 165/165/165
f 168/168/168 167/167/167 165/165/165
f 171/171/171 170/170/170 169/169/169
f 172/172/172 171/171/171 169/169/169
f 175/175/175 174/174/174 173/173/173
f 176/176/176 175/175/175 173/173/173
f 179/179/179 178/178/178 177/177/177
f 180/180/180 179/179/179 177/177/177
f 183/183/183 182/182/182 181/181/181
f 184/184/184 183/183/183 181/181/181
f 187/187/187 186/186/186 185/185/185
f 188/188/188 187/187/187 185/185/185
f 191/191/191 190/190/190 189/189/189
f 192/192/192 191/191/191 189/189/189
f 195/195/195 194/194/194 193/193/193
f 195/195/195 193/193/193 196/196/196
f 199/199/199 198/198/198 197/197/197
f 199/199/199 197/197/197 200/200/200
f 203/203/203 202/202/202 201/201/201
f 203/203/203 201/201/201 204/204/204
f 207/207/207 206/206/206 205/205/205
f 207/207/207 205/205/205 208/208/208
f 211/211/211 210/210/210 209/209/209
f 211/211/211 209/209/209 212/212/212
f 215/215/215 214/214/214 213/213/213
f 215/215/215 213/213/213 216/216/216
f 219/219/219 218/218/218 217/217/217
f 219/219/219 217/217/217 220/220/220
