mtllib EGA_Grass_18.mtl
g default
v 0.9171452 -0.2318472 -0.1577852
v 1.008062 -0.2250131 -0.1226618
v 0.9555833 -0.2318471 -0.188448
v 0.969624 -0.2250133 -0.09199896
v 0.969624 -0.2250133 -0.09199896
v 0.8849607 1.304678 -0.2375459
v 1.008062 -0.2250131 -0.1226618
v 0.9171452 -0.2318472 -0.1577852
v 0.8849607 1.304678 -0.2375459
v 0.969624 -0.2250133 -0.09199896
v 0.9555833 -0.2318471 -0.188448
v 0.8849607 1.304678 -0.2375459
v 0.9171452 -0.2318472 -0.1577852
v 1.008062 -0.2250131 -0.1226618
v 0.8849607 1.304678 -0.2375459
v 0.9555833 -0.2318471 -0.188448
v 1.164253 -0.2319332 0.1575523
v 1.268029 -0.2394312 0.1976564
v 1.208121 -0.231933 0.1225577
v 1.224161 -0.2394314 0.232651
v 1.224161 -0.2394314 0.232651
v 1.301321 1.514449 0.2843938
v 1.268029 -0.2394312 0.1976564
v 1.164253 -0.2319332 0.1575523
v 1.301321 1.514449 0.2843938
v 1.224161 -0.2394314 0.232651
v 1.208121 -0.231933 0.1225577
v 1.301321 1.514449 0.2843938
v 1.164253 -0.2319332 0.1575523
v 1.268029 -0.2394312 0.1976564
v 1.301321 1.514449 0.2843938
v 1.208121 -0.231933 0.1225577
v 1.046431 -0.2240475 0.01792263
v 1.169032 -0.2240472 0.06548803
v 1.098166 -0.2240473 -0.02334767
v 1.117297 -0.2240475 0.1067583
v 1.117297 -0.2240475 0.1067583
v 1.107726 1.846216 0.04171002
v 1.169032 -0.2240472 0.06548803
v 1.046431 -0.2240475 0.01792263
v 1.107726 1.846216 0.04171002
v 1.117297 -0.2240475 0.1067583
v 1.098166 -0.2240473 -0.02334767
v 1.107726 1.846216 0.04171002
v 1.046431 -0.2240475 0.01792263
v 1.169032 -0.2240472 0.06548803
v 1.107726 1.846216 0.04171002
v 1.098166 -0.2240473 -0.02334767
v 0.7374388 -0.2318472 0.1878321
v 0.7846952 -0.2250131 0.1025889
v 0.7123353 -0.2318471 0.1455531
v 0.8097987 -0.2250133 0.1448679
v 0.8097987 -0.2250133 0.1448679
v 0.6540188 1.304678 0.2087776
v 0.7846952 -0.2250131 0.1025889
v 0.7374388 -0.2318472 0.1878321
v 0.6540188 1.304678 0.2087776
v 0.8097987 -0.2250133 0.1448679
v 0.7123353 -0.2318471 0.1455531
v 0.6540188 1.304678 0.2087776
v 0.7374388 -0.2318472 0.1878321
v 0.7846952 -0.2250131 0.1025889
v 0.6540188 1.304678 0.2087776
v 0.7123353 -0.2318471 0.1455531
v 1.083677 -0.2319332 -0.0137099
v 1.13763 -0.2394312 -0.1110079
v 1.055027 -0.231933 -0.06196179
v 1.16628 -0.2394314 -0.06275595
v 1.16628 -0.2394314 -0.06275595
v 1.228113 1.514449 -0.1320937
v 1.13763 -0.2394312 -0.1110079
v 1.083677 -0.2319332 -0.0137099
v 1.228113 1.514449 -0.1320937
v 1.16628 -0.2394314 -0.06275595
v 1.055027 -0.231933 -0.06196179
v 1.228113 1.514449 -0.1320937
v 1.083677 -0.2319332 -0.0137099
v 1.13763 -0.2394312 -0.1110079
v 1.228113 1.514449 -0.1320937
v 1.055027 -0.231933 -0.06196179
v 0.9292125 -0.2240475 0.08385634
v 0.9931372 -0.2240472 -0.03106613
v 0.8954247 -0.2240473 0.02695133
v 1.026925 -0.2240475 0.02583888
v 1.026925 -0.2240475 0.02583888
v 0.9611787 1.846216 0.02640154
v 0.9931372 -0.2240472 -0.03106613
v 0.9292125 -0.2240475 0.08385634
v 0.9611787 1.846216 0.02640154
v 1.026925 -0.2240475 0.02583888
v 0.8954247 -0.2240473 0.02695133
v 0.9611787 1.846216 0.02640154
v 0.9292125 -0.2240475 0.08385634
v 0.9931372 -0.2240472 -0.03106613
v 0.9611787 1.846216 0.02640154
v 0.8954247 -0.2240473 0.02695133
v 0.9214456 -0.2318472 0.1856638
v 0.9221307 -0.2250131 0.08820049
v 0.8791665 -0.2318471 0.1605603
v 0.9644097 -0.2250133 0.1133039
v 0.9644097 -0.2250133 0.1133039
v 0.8582307 1.304678 0.243986
v 0.9221307 -0.2250131 0.08820049
v 0.9214456 -0.2318472 0.1856638
v 0.8582307 1.304678 0.243986
v 0.9644097 -0.2250133 0.1133039
v 0.8791665 -0.2318471 0.1605603
v 0.8582307 1.304678 0.243986
v 0.9214456 -0.2318472 0.1856638
v 0.9221307 -0.2250131 0.08820049
v 0.8582307 1.304678 0.243986
v 0.8791665 -0.2318471 0.1605603
v 1.12896 -0.2319332 -0.1570279
v 1.129754 -0.2394312 -0.2682807
v 1.080708 -0.231933 -0.1856778
v 1.178006 -0.2394314 -0.2396308
v 1.178006 -0.2394314 -0.2396308
v 1.199103 1.514449 -0.330107
v 1.129754 -0.2394312 -0.2682807
v 1.12896 -0.2319332 -0.1570279
v 1.199103 1.514449 -0.330107
v 1.178006 -0.2394314 -0.2396308
v 1.080708 -0.231933 -0.1856778
v 1.199103 1.514449 -0.330107
v 1.12896 -0.2319332 -0.1570279
v 1.129754 -0.2394312 -0.2682807
v 1.199103 1.514449 -0.330107
v 1.080708 -0.231933 -0.1856778
v 1.040047 -0.2240475 0.002574399
v 1.04116 -0.2240472 -0.1289258
v 0.9831423 -0.2240473 -0.03121332
v 1.098065 -0.2240475 -0.0951381
v 1.098065 -0.2240475 -0.0951381
v 1.04061 1.846216 -0.0631719
v 1.04116 -0.2240472 -0.1289258
v 1.040047 -0.2240475 0.002574399
v 1.04061 1.846216 -0.0631719
v 1.098065 -0.2240475 -0.0951381
v 0.9831423 -0.2240473 -0.03121332
v 1.04061 1.846216 -0.0631719
v 1.040047 -0.2240475 0.002574399
v 1.04116 -0.2240472 -0.1289258
v 1.04061 1.846216 -0.0631719
v 0.9831423 -0.2240473 -0.03121332
v 1.190336 -0.2318472 0.3218581
v 1.103418 -0.2250131 0.277757
v 1.149005 -0.2318471 0.348494
v 1.144749 -0.2250133 0.2511212
v 1.144749 -0.2250133 0.2511212
v 1.214324 1.304678 0.4044546
v 1.103418 -0.2250131 0.277757
v 1.190336 -0.2318472 0.3218581
v 1.214324 1.304678 0.4044546
v 1.144749 -0.2250133 0.2511212
v 1.149005 -0.2318471 0.348494
v 1.214324 1.304678 0.4044546
v 1.190336 -0.2318472 0.3218581
v 1.103418 -0.2250131 0.277757
v 1.214324 1.304678 0.4044546
v 1.149005 -0.2318471 0.348494
v 0.9762419 -0.2319332 -0.01676229
v 0.8770323 -0.2394312 -0.0671137
v 0.9290723 -0.231933 0.01363647
v 0.924202 -0.2394314 -0.09751248
v 0.924202 -0.2394314 -0.09751248
v 0.852645 1.514449 -0.1567629
v 0.8770323 -0.2394312 -0.0671137
v 0.9762419 -0.2319332 -0.01676229
v 0.852645 1.514449 -0.1567629
v 0.924202 -0.2394314 -0.09751248
v 0.9290723 -0.231933 0.01363647
v 0.852645 1.514449 -0.1567629
v 0.9762419 -0.2319332 -0.01676229
v 0.8770323 -0.2394312 -0.0671137
v 0.852645 1.514449 -0.1567629
v 0.9290723 -0.231933 0.01363647
v 1.079403 -0.2240475 0.1340233
v 0.962215 -0.2240472 0.07435258
v 1.023774 -0.2240473 0.1698735
v 1.017844 -0.2240475 0.03850236
v 1.017844 -0.2240475 0.03850236
v 1.020815 1.846216 0.1041839
v 0.962215 -0.2240472 0.07435258
v 1.079403 -0.2240475 0.1340233
v 1.020815 1.846216 0.1041839
v 1.017844 -0.2240475 0.03850236
v 1.023774 -0.2240473 0.1698735
v 1.020815 1.846216 0.1041839
v 1.079403 -0.2240475 0.1340233
v 0.962215 -0.2240472 0.07435258
v 1.020815 1.846216 0.1041839
v 1.023774 -0.2240473 0.1698735
vn 0.05047568 -0.9967188 0.06327502
vn 0.05047568 -0.9967188 0.06327502
vn 0.05047568 -0.9967188 0.06327502
vn 0.05047568 -0.9967188 0.06327502
vn 0.6199422 0.1082554 0.7771438
vn 0.6199422 0.1082554 0.7771438
vn 0.6199422 0.1082554 0.7771438
vn -0.7824448 0.01592537 0.6225163
vn -0.7824448 0.01592537 0.6225163
vn -0.7824448 0.01592537 0.6225163
vn -0.6227118 -0.05356507 -0.7806157
vn -0.6227118 -0.05356507 -0.7806157
vn -0.6227118 -0.05356507 -0.7806157
vn 0.7808313 0.0159326 -0.6245387
vn 0.7808313 0.0159326 -0.6245387
vn 0.7808313 0.0159326 -0.6245387
vn -0.04852596 -0.9969679 -0.06083091
vn -0.04852596 -0.9969679 -0.06083091
vn -0.04852596 -0.9969679 -0.06083091
vn -0.04852596 -0.9969679 -0.06083091
vn 0.6228135 -0.05043342 0.7807431
vn 0.6228135 -0.05043342 0.7807431
vn 0.6228135 -0.05043342 0.7807431
vn -0.7808626 0.01592934 0.6244996
vn -0.7808626 0.01592934 0.6244996
vn -0.7808626 0.01592934 0.6244996
vn -0.6201509 0.1051373 -0.7774054
vn -0.6201509 0.1051373 -0.7774054
vn -0.6201509 0.1051373 -0.7774054
vn 0.7824136 0.01593657 -0.6225552
vn 0.7824136 0.01593657 -0.6225552
vn 0.7824136 0.01593657 -0.6225552
vn 0 -1 0
vn 0 -1 0
vn 0 -1 0
vn 0 -1 0
vn 0.6233724 0.02743513 0.7814438
vn 0.6233724 0.02743513 0.7814438
vn 0.6233724 0.02743513 0.7814438
vn -0.7816381 0.01597781 0.6235275
vn -0.7816381 0.01597781 0.6235275
vn -0.7816381 0.01597781 0.6235275
vn -0.6233724 0.02743515 -0.7814438
vn -0.6233724 0.02743515 -0.7814438
vn -0.6233724 0.02743515 -0.7814438
vn 0.7816381 0.01598505 -0.6235274
vn 0.7816381 0.01598505 -0.6235274
vn 0.7816381 0.01598505 -0.6235274
vn 0.06959771 -0.9967188 -0.04132412
vn 0.06959771 -0.9967188 -0.04132412
vn 0.06959771 -0.9967188 -0.04132412
vn 0.06959771 -0.9967188 -0.04132412
vn 0.854799 0.1082554 -0.5075427
vn 0.854799 0.1082554 -0.5075427
vn 0.854799 0.1082554 -0.5075427
vn 0.5093656 0.01592536 0.8604029
vn 0.5093656 0.01592536 0.8604029
vn 0.5093656 0.01592536 0.8604029
vn -0.8586177 -0.05356506 0.5098101
vn -0.8586177 -0.05356506 0.5098101
vn -0.8586177 -0.05356506 0.5098101
vn -0.5115902 0.0159326 -0.8590819
vn -0.5115902 0.0159326 -0.8590819
vn -0.5115902 0.0159326 -0.8590819
vn -0.06690937 -0.9969679 0.0397279
vn -0.06690937 -0.9969679 0.0397279
vn -0.06690937 -0.9969679 0.0397279
vn -0.06690937 -0.9969679 0.0397279
vn 0.858758 -0.05043341 -0.5098934
vn 0.858758 -0.05043341 -0.5098934
vn 0.858758 -0.05043341 -0.5098934
vn 0.5115472 0.01592934 0.8591076
vn 0.5115472 0.01592934 0.8591076
vn 0.5115472 0.01592934 0.8591076
vn -0.8550867 0.1051373 0.5077136
vn -0.8550867 0.1051373 0.5077136
vn -0.8550867 0.1051373 0.5077136
vn -0.5094085 0.01593657 -0.8603772
vn -0.5094085 0.01593657 -0.8603772
vn -0.5094085 0.01593657 -0.8603772
vn 0 -1 0
vn 0 -1 0
vn 0 -1 0
vn 0 -1 0
vn 0.8595285 0.02743512 -0.5103509
vn 0.8595285 0.02743512 -0.5103509
vn 0.8595285 0.02743512 -0.5103509
vn 0.5104779 0.01597781 0.8597425
vn 0.5104779 0.01597781 0.8597425
vn 0.5104779 0.01597781 0.8597425
vn -0.8595285 0.02743514 0.5103509
vn -0.8595285 0.02743514 0.5103509
vn -0.8595285 0.02743514 0.5103509
vn -0.5104778 0.01598504 -0.8597423
vn -0.5104778 0.01598504 -0.8597423
vn -0.5104778 0.01598504 -0.8597423
vn 0.0413241 -0.9967188 -0.06959771
vn 0.0413241 -0.9967188 -0.06959771
vn 0.0413241 -0.9967188 -0.06959771
vn 0.0413241 -0.9967188 -0.06959771
vn 0.5075426 0.1082554 -0.854799
vn 0.5075426 0.1082554 -0.854799
vn 0.5075426 0.1082554 -0.854799
vn 0.859082 0.01592537 0.5115901
vn 0.859082 0.01592537 0.5115901
vn 0.859082 0.01592537 0.5115901
vn -0.5098101 -0.05356507 0.8586178
vn -0.5098101 -0.05356507 0.8586178
vn -0.5098101 -0.05356507 0.8586178
vn -0.8604028 0.0159326 -0.5093654
vn -0.8604028 0.0159326 -0.5093654
vn -0.8604028 0.0159326 -0.5093654
vn -0.03972788 -0.9969679 0.06690937
vn -0.03972788 -0.9969679 0.06690937
vn -0.03972788 -0.9969679 0.06690937
vn -0.03972788 -0.9969679 0.06690937
vn 0.5098932 -0.05043342 -0.858758
vn 0.5098932 -0.05043342 -0.858758
vn 0.5098932 -0.05043342 -0.858758
vn 0.8603774 0.01592934 0.5094085
vn 0.8603774 0.01592934 0.5094085
vn 0.8603774 0.01592934 0.5094085
vn -0.5077134 0.1051373 0.8550867
vn -0.5077134 0.1051373 0.8550867
vn -0.5077134 0.1051373 0.8550867
vn -0.8591075 0.01593657 -0.5115471
vn -0.8591075 0.01593657 -0.5115471
vn -0.8591075 0.01593657 -0.5115471
vn 0 -1 0
vn 0 -1 0
vn 0 -1 0
vn 0 -1 0
vn 0.5103508 0.02743513 -0.8595285
vn 0.5103508 0.02743513 -0.8595285
vn 0.5103508 0.02743513 -0.8595285
vn 0.8597426 0.01597781 0.5104778
vn 0.8597426 0.01597781 0.5104778
vn 0.8597426 0.01597781 0.5104778
vn -0.5103508 0.02743515 0.8595285
vn -0.5103508 0.02743515 0.8595285
vn -0.5103508 0.02743515 0.8595285
vn -0.8597424 0.01598505 -0.5104778
vn -0.8597424 0.01598505 -0.5104778
vn -0.8597424 0.01598505 -0.5104778
vn -0.04384665 -0.9967188 -0.06803671
vn -0.04384665 -0.9967188 -0.06803671
vn -0.04384665 -0.9967188 -0.06803671
vn -0.04384665 -0.9967188 -0.06803671
vn -0.5385246 0.1082554 -0.8356268
vn -0.5385246 0.1082554 -0.8356268
vn -0.5385246 0.1082554 -0.8356268
vn 0.8411601 0.01592537 -0.5405517
vn 0.8411601 0.01592537 -0.5405517
vn 0.8411601 0.01592537 -0.5405517
vn 0.5409303 -0.05356506 0.8393599
vn 0.5409303 -0.05356506 0.8393599
vn 0.5409303 -0.05356506 0.8393599
vn -0.8397585 0.0159326 0.5427262
vn -0.8397585 0.0159326 0.5427262
vn -0.8397585 0.0159326 0.5427262
vn 0.04215299 -0.9969679 0.06540867
vn 0.04215299 -0.9969679 0.06540867
vn 0.04215299 -0.9969679 0.06540867
vn 0.04215299 -0.9969679 0.06540867
vn -0.5410187 -0.05043342 -0.839497
vn -0.5410187 -0.05043342 -0.839497
vn -0.5410187 -0.05043342 -0.839497
vn 0.8397858 0.01592934 -0.5426843
vn 0.8397858 0.01592934 -0.5426843
vn 0.8397858 0.01592934 -0.5426843
vn 0.5387058 0.1051373 0.8359081
vn 0.5387058 0.1051373 0.8359081
vn 0.5387058 0.1051373 0.8359081
vn -0.8411329 0.01593657 0.5405936
vn -0.8411329 0.01593657 0.5405936
vn -0.8411329 0.01593657 0.5405936
vn 0 -1 0
vn 0 -1 0
vn 0 -1 0
vn 0 -1 0
vn -0.5415042 0.02743513 -0.8402503
vn -0.5415042 0.02743513 -0.8402503
vn -0.5415042 0.02743513 -0.8402503
vn 0.8404595 0.01597781 -0.5416389
vn 0.8404595 0.01597781 -0.5416389
vn 0.8404595 0.01597781 -0.5416389
vn 0.5415042 0.02743515 0.8402503
vn 0.5415042 0.02743515 0.8402503
vn 0.5415042 0.02743515 0.8402503
vn -0.8404593 0.01598505 0.5416389
vn -0.8404593 0.01598505 0.5416389
vn -0.8404593 0.01598505 0.5416389
vt 0.624975 0.375025
vt 0.624975 0.375025
vt 0.624975 0.375025
vt 0.624975 0.375025
vt 0.624975 0.375025
vt 0.624975 0.375025
vt 0.624975 0.375025
vt 0.624975 0.375025
vt 0.624975 0.375025
vt 0.624975 0.375025
vt 0.624975 0.375025
vt 0.624975 0.375025
vt 0.624975 0.375025
vt 0.624975 0.375025
vt 0.624975 0.375025
vt 0.624975 0.375025
vt 0.624975 0.375025
vt 0.624975 0.375025
vt 0.624975 0.375025
vt 0.624975 0.375025
vt 0.624975 0.375025
vt 0.624975 0.375025
vt 0.624975 0.375025
vt 0.624975 0.375025
vt 0.624975 0.375025
vt 0.624975 0.375025
vt 0.624975 0.375025
vt 0.624975 0.375025
vt 0.624975 0.375025
vt 0.624975 0.375025
vt 0.624975 0.375025
vt 0.624975 0.375025
vt 0.624975 0.375025
vt 0.624975 0.375025
vt 0.624975 0.375025
vt 0.624975 0.375025
vt 0.624975 0.375025
vt 0.624975 0.375025
vt 0.624975 0.375025
vt 0.624975 0.375025
vt 0.624975 0.375025
vt 0.624975 0.375025
vt 0.624975 0.375025
vt 0.624975 0.375025
vt 0.624975 0.375025
vt 0.624975 0.375025
vt 0.624975 0.375025
vt 0.624975 0.375025
vt 0.624975 0.375025
vt 0.624975 0.375025
vt 0.624975 0.375025
vt 0.624975 0.375025
vt 0.624975 0.375025
vt 0.624975 0.375025
vt 0.624975 0.375025
vt 0.624975 0.375025
vt 0.624975 0.375025
vt 0.624975 0.375025
vt 0.624975 0.375025
vt 0.624975 0.375025
vt 0.624975 0.375025
vt 0.624975 0.375025
vt 0.624975 0.375025
vt 0.624975 0.375025
vt 0.624975 0.375025
vt 0.624975 0.375025
vt 0.624975 0.375025
vt 0.624975 0.375025
vt 0.624975 0.375025
vt 0.624975 0.375025
vt 0.624975 0.375025
vt 0.624975 0.375025
vt 0.624975 0.375025
vt 0.624975 0.375025
vt 0.624975 0.375025
vt 0.624975 0.375025
vt 0.624975 0.375025
vt 0.624975 0.375025
vt 0.624975 0.375025
vt 0.624975 0.375025
vt 0.624975 0.375025
vt 0.624975 0.375025
vt 0.624975 0.375025
vt 0.624975 0.375025
vt 0.624975 0.375025
vt 0.624975 0.375025
vt 0.624975 0.375025
vt 0.624975 0.375025
vt 0.624975 0.375025
vt 0.624975 0.375025
vt 0.624975 0.375025
vt 0.624975 0.375025
vt 0.624975 0.375025
vt 0.624975 0.375025
vt 0.624975 0.375025
vt 0.624975 0.375025
vt 0.624975 0.375025
vt 0.624975 0.375025
vt 0.624975 0.375025
vt 0.624975 0.375025
vt 0.624975 0.375025
vt 0.624975 0.375025
vt 0.624975 0.375025
vt 0.624975 0.375025
vt 0.624975 0.375025
vt 0.624975 0.375025
vt 0.624975 0.375025
vt 0.624975 0.375025
vt 0.624975 0.375025
vt 0.624975 0.375025
vt 0.624975 0.375025
vt 0.624975 0.375025
vt 0.624975 0.375025
vt 0.624975 0.375025
vt 0.624975 0.375025
vt 0.624975 0.375025
vt 0.624975 0.375025
vt 0.624975 0.375025
vt 0.624975 0.375025
vt 0.624975 0.375025
vt 0.624975 0.375025
vt 0.624975 0.375025
vt 0.624975 0.375025
vt 0.624975 0.375025
vt 0.624975 0.375025
vt 0.624975 0.375025
vt 0.624975 0.375025
vt 0.624975 0.375025
vt 0.624975 0.375025
vt 0.624975 0.375025
vt 0.624975 0.375025
vt 0.624975 0.375025
vt 0.624975 0.375025
vt 0.624975 0.375025
vt 0.624975 0.375025
vt 0.624975 0.375025
vt 0.624975 0.375025
vt 0.624975 0.375025
vt 0.624975 0.375025
vt 0.624975 0.375025
vt 0.624975 0.375025
vt 0.624975 0.375025
vt 0.624975 0.375025
vt 0.624975 0.375025
vt 0.624975 0.375025
vt 0.624975 0.375025
vt 0.624975 0.375025
vt 0.624975 0.375025
vt 0.624975 0.375025
vt 0.624975 0.375025
vt 0.624975 0.375025
vt 0.624975 0.375025
vt 0.624975 0.375025
vt 0.624975 0.375025
vt 0.624975 0.375025
vt 0.624975 0.375025
vt 0.624975 0.375025
vt 0.624975 0.375025
vt 0.624975 0.375025
vt 0.624975 0.375025
vt 0.624975 0.375025
vt 0.624975 0.375025
vt 0.624975 0.375025
vt 0.624975 0.375025
vt 0.624975 0.375025
vt 0.624975 0.375025
vt 0.624975 0.375025
vt 0.624975 0.375025
vt 0.624975 0.375025
vt 0.624975 0.375025
vt 0.624975 0.375025
vt 0.624975 0.375025
vt 0.624975 0.375025
vt 0.624975 0.375025
vt 0.624975 0.375025
vt 0.624975 0.375025
vt 0.624975 0.375025
vt 0.624975 0.375025
vt 0.624975 0.375025
vt 0.624975 0.375025
vt 0.624975 0.375025
vt 0.624975 0.375025
vt 0.624975 0.375025
vt 0.624975 0.375025
vt 0.624975 0.375025
vt 0.624975 0.375025
vt 0.624975 0.375025
vt 0.624975 0.375025
vt 0.624975 0.375025
vt 0.624975 0.375025
vt 0.624975 0.375025
vt 0.624975 0.375025
usemtl EGA_Grass_18-defaultMat
f 3/3/3 2/2/2 1/1/1
f 1/1/1 2/2/2 4/4/4
f 7/7/7 6/6/6 5/5/5
f 10/10/10 9/9/9 8/8/8
f 13/13/13 12/12/12 11/11/11
f 16/16/16 15/15/15 14/14/14
f 19/19/19 18/18/18 17/17/17
f 17/17/17 18/18/18 20/20/20
f 23/23/23 22/22/22 21/21/21
f 26/26/26 25/25/25 24/24/24
f 29/29/29 28/28/28 27/27/27
f 32/32/32 31/31/31 30/30/30
f 35/35/35 34/34/34 33/33/33
f 33/33/33 34/34/34 36/36/36
f 39/39/39 38/38/38 37/37/37
f 42/42/42 41/41/41 40/40/40
f 45/45/45 44/44/44 43/43/43
f 48/48/48 47/47/47 46/46/46
f 51/51/51 50/50/50 49/49/49
f 49/49/49 50/50/50 52/52/52
f 55/55/55 54/54/54 53/53/53
f 58/58/58 57/57/57 56/56/56
f 61/61/61 60/60/60 59/59/59
f 64/64/64 63/63/63 62/62/62
f 67/67/67 66/66/66 65/65/65
f 65/65/65 66/66/66 68/68/68
f 71/71/71 70/70/70 69/69/69
f 74/74/74 73/73/73 72/72/72
f 77/77/77 76/76/76 75/75/75
f 80/80/80 79/79/79 78/78/78
f 83/83/83 82/82/82 81/81/81
f 81/81/81 82/82/82 84/84/84
f 87/87/87 86/86/86 85/85/85
f 90/90/90 89/89/89 88/88/88
f 93/93/93 92/92/92 91/91/91
f 96/96/96 95/95/95 94/94/94
f 99/99/99 98/98/98 97/97/97
f 97/97/97 98/98/98 100/100/100
f 103/103/103 102/102/102 101/101/101
f 106/106/106 105/105/105 104/104/104
f 109/109/109 108/108/108 107/107/107
f 112/112/112 111/111/111 110/110/110
f 115/115/115 114/114/114 113/113/113
f 113/113/113 114/114/114 116/116/116
f 119/119/119 118/118/118 117/117/117
f 122/122/122 121/121/121 120/120/120
f 125/125/125 124/124/124 123/123/123
f 128/128/128 127/127/127 126/126/126
f 131/131/131 130/130/130 129/129/129
f 129/129/129 130/130/130 132/132/132
f 135/135/135 134/134/134 133/133/133
f 138/138/138 137/137/137 136/136/136
f 141/141/141 140/140/140 139/139/139
f 144/144/144 143/143/143 142/142/142
f 147/147/147 146/146/146 145/145/145
f 145/145/145 146/146/146 148/148/148
f 151/151/151 150/150/150 149/149/149
f 154/154/154 153/153/153 152/152/152
f 157/157/157 156/156/156 155/155/155
f 160/160/160 159/159/159 158/158/158
f 163/163/163 162/162/162 161/161/161
f 161/161/161 162/162/162 164/164/164
f 167/167/167 166/166/166 165/165/165
f 170/170/170 169/169/169 168/168/168
f 173/173/173 172/172/172 171/171/171
f 176/176/176 175/175/175 174/174/174
f 179/179/179 178/178/178 177/177/177
f 177/177/177 178/178/178 180/180/180
f 183/183/183 182/182/182 181/181/181
f 186/186/186 185/185/185 184/184/184
f 189/189/189 188/188/188 187/187/187
f 192/192/192 191/191/191 190/190/190
